%TF.GenerationSoftware,Altium Limited,Altium Designer,19.0.15 (446)*%
G04 Layer_Color=8388736*
%FSLAX45Y45*%
%MOMM*%
%TF.FileFunction,Soldermask,Top*%
%TF.Part,Single*%
G01*
G75*
%TA.AperFunction,ComponentPad*%
%ADD20C,1.88000*%
%TA.AperFunction,ViaPad*%
%ADD21C,0.58000*%
%TA.AperFunction,SMDPad,CuDef*%
%ADD26R,0.88000X0.88000*%
%ADD27R,1.03000X0.93000*%
%ADD28R,0.93000X1.03000*%
%ADD29R,0.88000X0.98000*%
%ADD30R,0.98000X0.88000*%
%ADD31R,0.88000X0.88000*%
D20*
X11176000Y9144000D02*
D03*
Y8890000D02*
D03*
Y9398000D02*
D03*
Y9652000D02*
D03*
Y10668000D02*
D03*
Y10414000D02*
D03*
Y9906000D02*
D03*
Y10160000D02*
D03*
X6096000Y9144000D02*
D03*
Y8890000D02*
D03*
Y9398000D02*
D03*
Y9652000D02*
D03*
Y10668000D02*
D03*
Y10414000D02*
D03*
Y9906000D02*
D03*
Y10160000D02*
D03*
D21*
X10888000Y8015200D02*
D03*
X7843600D02*
D03*
X7975600Y10947400D02*
D03*
X10896600Y8923400D02*
D03*
X7844400Y8940800D02*
D03*
X7937900Y11890200D02*
D03*
X10591400Y9194800D02*
D03*
X10034600Y9956800D02*
D03*
X6472600Y11383600D02*
D03*
X9377300Y11006000D02*
D03*
X9347200Y10806200D02*
D03*
X9448800Y9575800D02*
D03*
X8317000Y9804400D02*
D03*
X8153400Y8280400D02*
D03*
X8610600Y8991600D02*
D03*
Y9118600D02*
D03*
X8254700Y9875600D02*
D03*
X9396800Y8407400D02*
D03*
X10920800Y10134600D02*
D03*
X9525000Y10642600D02*
D03*
X9245600Y10490200D02*
D03*
X8801200Y10566400D02*
D03*
X8431000Y11338000D02*
D03*
X8001000Y8966200D02*
D03*
X7950200Y8432500D02*
D03*
X8026400Y8843300D02*
D03*
X8197600Y10947400D02*
D03*
X7955200Y10490200D02*
D03*
X6299200Y8574000D02*
D03*
X6350000Y11072400D02*
D03*
X6431200Y10275800D02*
D03*
X9575800Y11074400D02*
D03*
X6633000Y9647300D02*
D03*
X6324600Y8255000D02*
D03*
X6468200Y9590000D02*
D03*
X9372600Y8178800D02*
D03*
X7378800Y9118600D02*
D03*
X7843600Y8153400D02*
D03*
X7871400Y8239200D02*
D03*
X6553200Y9289600D02*
D03*
X10642600Y10210800D02*
D03*
X10196600Y10033000D02*
D03*
X9866400Y10050800D02*
D03*
Y9353800D02*
D03*
X10222000Y9201400D02*
D03*
X9485400Y9310600D02*
D03*
X10131600Y10515600D02*
D03*
X9485400Y10284000D02*
D03*
X9118600Y8923400D02*
D03*
Y8153800D02*
D03*
X8915400Y7983600D02*
D03*
X8712200Y8661400D02*
D03*
X8571700Y8502800D02*
D03*
X8763000Y8128400D02*
D03*
Y7761600D02*
D03*
X8386600Y7899400D02*
D03*
X8016800Y7856600D02*
D03*
X8382000Y8585200D02*
D03*
X8661400Y11563600D02*
D03*
X8280400Y11796800D02*
D03*
X8661400Y10877800D02*
D03*
X8305800Y10834600D02*
D03*
X9017000Y11258800D02*
D03*
Y10896600D02*
D03*
X9289800Y11709400D02*
D03*
X8926600Y12039600D02*
D03*
X8536000Y10090400D02*
D03*
X8155000Y10323600D02*
D03*
X8536000Y9404600D02*
D03*
X8180400Y9361400D02*
D03*
X8891600Y9785600D02*
D03*
Y9423400D02*
D03*
X8801200Y9144000D02*
D03*
X9164400Y10236200D02*
D03*
X7113600Y10065000D02*
D03*
X6732600Y10298200D02*
D03*
X7113600Y9379200D02*
D03*
X6758000Y9336000D02*
D03*
X7469200Y9760200D02*
D03*
Y9398000D02*
D03*
X7742000Y10210800D02*
D03*
X7378800Y10541000D02*
D03*
X10637600Y11709400D02*
D03*
X10364800Y11258800D02*
D03*
X10274400Y12039600D02*
D03*
X10364800Y10896600D02*
D03*
X10009200Y11563600D02*
D03*
X9628200Y11796800D02*
D03*
X10009200Y10877800D02*
D03*
X9653600Y10834600D02*
D03*
X9752400Y8591800D02*
D03*
X9396800Y8825000D02*
D03*
X9752400Y7906000D02*
D03*
X9396800Y7862800D02*
D03*
X10060400Y8096000D02*
D03*
X10692200Y8450600D02*
D03*
X10108000Y7753600D02*
D03*
X10360500Y9037800D02*
D03*
X10888000Y8139200D02*
D03*
X10393200Y8352000D02*
D03*
X10502400Y7615400D02*
D03*
X10915800Y8225000D02*
D03*
X10870000Y8656800D02*
D03*
X6708000Y8606000D02*
D03*
X6352400Y8839200D02*
D03*
X6708000Y7920200D02*
D03*
X6352400Y7877000D02*
D03*
X7016000Y8110200D02*
D03*
X7647800Y8464800D02*
D03*
X7063600Y7767800D02*
D03*
X7348800Y8366200D02*
D03*
X7458000Y7629600D02*
D03*
X7825600Y8671000D02*
D03*
X7904400Y11633200D02*
D03*
X7950200Y11201400D02*
D03*
X7726600Y11427000D02*
D03*
X7427600Y11328400D02*
D03*
X7922400Y11115600D02*
D03*
X7094800Y11072400D02*
D03*
X7394900Y12014200D02*
D03*
X7142400Y10730000D02*
D03*
X6786800Y10882400D02*
D03*
X6431200Y10839200D02*
D03*
X6786800Y11568200D02*
D03*
X6431200Y11801400D02*
D03*
D26*
X9826200Y8940800D02*
D03*
X9676200D02*
D03*
X10843400Y7721600D02*
D03*
X10693400D02*
D03*
X9827400Y7747000D02*
D03*
X9677400D02*
D03*
X6781800Y8955000D02*
D03*
X6631800D02*
D03*
X7799000Y7735800D02*
D03*
X7649000D02*
D03*
X6783000Y7761200D02*
D03*
X6633000D02*
D03*
X6860600Y11917200D02*
D03*
X6710600D02*
D03*
X7877800Y10698000D02*
D03*
X7727800D02*
D03*
X6861800Y10723400D02*
D03*
X6711800D02*
D03*
X10084200Y11912600D02*
D03*
X9934200D02*
D03*
X10084200Y10718800D02*
D03*
X9934200D02*
D03*
X8736400Y11912600D02*
D03*
X8586400D02*
D03*
X8736400Y10718800D02*
D03*
X8586400D02*
D03*
X8611000Y10439400D02*
D03*
X8461000D02*
D03*
X8611000Y9245600D02*
D03*
X8461000D02*
D03*
X7188600Y10414000D02*
D03*
X7038600D02*
D03*
X7188600Y9220200D02*
D03*
X7038600D02*
D03*
X8457000Y8934600D02*
D03*
X8307000D02*
D03*
X8457000Y7740800D02*
D03*
X8307000D02*
D03*
X9941400Y10399800D02*
D03*
X9791400D02*
D03*
X9941400Y9194800D02*
D03*
X9791400D02*
D03*
D27*
X10361200Y8799600D02*
D03*
Y8929600D02*
D03*
X9498400Y8825000D02*
D03*
Y8955000D02*
D03*
X10768400Y8269200D02*
D03*
Y8139200D02*
D03*
X9498400Y8675600D02*
D03*
Y8545600D02*
D03*
X10393200Y8574000D02*
D03*
Y8444000D02*
D03*
X10539000Y8929600D02*
D03*
Y8799600D02*
D03*
X9498400Y8012200D02*
D03*
Y8142200D02*
D03*
Y7862800D02*
D03*
Y7732800D02*
D03*
X7316800Y8813800D02*
D03*
Y8943800D02*
D03*
X6454000Y8839200D02*
D03*
Y8969200D02*
D03*
X7724000Y8283400D02*
D03*
Y8153400D02*
D03*
X6454000Y8689800D02*
D03*
Y8559800D02*
D03*
X7348800Y8588200D02*
D03*
Y8458200D02*
D03*
X7494600Y8943800D02*
D03*
Y8813800D02*
D03*
X6454000Y8026400D02*
D03*
Y8156400D02*
D03*
Y7877000D02*
D03*
Y7747000D02*
D03*
X7395600Y11776000D02*
D03*
Y11906000D02*
D03*
X6532800Y11801400D02*
D03*
Y11931400D02*
D03*
X7802800Y11245600D02*
D03*
Y11115600D02*
D03*
X6532800Y11652000D02*
D03*
Y11522000D02*
D03*
X7427600Y11550400D02*
D03*
Y11420400D02*
D03*
X7573400Y11906000D02*
D03*
Y11776000D02*
D03*
X6532800Y10988600D02*
D03*
Y11118600D02*
D03*
Y10839200D02*
D03*
Y10709200D02*
D03*
X9748600Y11796800D02*
D03*
Y11926800D02*
D03*
Y11643200D02*
D03*
Y11513200D02*
D03*
X10274400Y11749000D02*
D03*
Y11619000D02*
D03*
X9754800Y10984000D02*
D03*
Y11114000D02*
D03*
Y10834600D02*
D03*
Y10704600D02*
D03*
X8400800Y11796800D02*
D03*
Y11926800D02*
D03*
Y11643200D02*
D03*
Y11513200D02*
D03*
X8926600Y11749000D02*
D03*
Y11619000D02*
D03*
X8407000Y10984000D02*
D03*
Y11114000D02*
D03*
Y10834600D02*
D03*
Y10704600D02*
D03*
X8275400Y10323600D02*
D03*
Y10453600D02*
D03*
Y10170000D02*
D03*
Y10040000D02*
D03*
X8801200Y10275800D02*
D03*
Y10145800D02*
D03*
X8281600Y9510800D02*
D03*
Y9640800D02*
D03*
Y9361400D02*
D03*
Y9231400D02*
D03*
X6853000Y10298200D02*
D03*
Y10428200D02*
D03*
Y10144600D02*
D03*
Y10014600D02*
D03*
X7378800Y10250400D02*
D03*
Y10120400D02*
D03*
X6859200Y9485400D02*
D03*
Y9615400D02*
D03*
Y9336000D02*
D03*
Y9206000D02*
D03*
X8128000Y8818800D02*
D03*
Y8948800D02*
D03*
Y8669400D02*
D03*
Y8539400D02*
D03*
X8991600Y8793400D02*
D03*
Y8923400D02*
D03*
Y8514000D02*
D03*
Y8644000D02*
D03*
X9018600Y7983600D02*
D03*
Y7853600D02*
D03*
X8128000Y8006000D02*
D03*
Y8136000D02*
D03*
Y7856600D02*
D03*
Y7726600D02*
D03*
X9612400Y10284000D02*
D03*
Y10414000D02*
D03*
Y10134600D02*
D03*
Y10004600D02*
D03*
Y9460000D02*
D03*
Y9590000D02*
D03*
Y9310600D02*
D03*
Y9180600D02*
D03*
D28*
X10146800Y8545600D02*
D03*
X10016800D02*
D03*
X10360500Y7924800D02*
D03*
X10490500D02*
D03*
X10372400Y7732800D02*
D03*
X10502400D02*
D03*
X9661200Y8432800D02*
D03*
X9791200D02*
D03*
X9661200Y8255000D02*
D03*
X9791200D02*
D03*
X10832600Y7899400D02*
D03*
X10702600D02*
D03*
X7102400Y8559800D02*
D03*
X6972400D02*
D03*
X7316100Y7939000D02*
D03*
X7446100D02*
D03*
X7328000Y7747000D02*
D03*
X7458000D02*
D03*
X6616800Y8447000D02*
D03*
X6746800D02*
D03*
X6616800Y8269200D02*
D03*
X6746800D02*
D03*
X7788200Y7913600D02*
D03*
X7658200D02*
D03*
X7181201Y11522000D02*
D03*
X7051201D02*
D03*
X7394900Y10901200D02*
D03*
X7524900D02*
D03*
X7406800Y10709200D02*
D03*
X7536800D02*
D03*
X6695600Y11409200D02*
D03*
X6825600D02*
D03*
X6695600Y11231400D02*
D03*
X6825600D02*
D03*
X7867001Y10875800D02*
D03*
X7737001D02*
D03*
X9918800Y11404600D02*
D03*
X10048800D02*
D03*
X10404400Y10733000D02*
D03*
X10274400D02*
D03*
X9918800Y11226800D02*
D03*
X10048800D02*
D03*
X10274400Y11926800D02*
D03*
X10404400D02*
D03*
X8571000Y11404600D02*
D03*
X8701000D02*
D03*
X9056600Y10733000D02*
D03*
X8926600D02*
D03*
X8571000Y11226800D02*
D03*
X8701000D02*
D03*
X8926600Y11926800D02*
D03*
X9056600D02*
D03*
X8445600Y9931400D02*
D03*
X8575600D02*
D03*
X8931200Y9259800D02*
D03*
X8801200D02*
D03*
X8445600Y9753600D02*
D03*
X8575600D02*
D03*
X8801200Y10453600D02*
D03*
X8931200D02*
D03*
X7023200Y9906000D02*
D03*
X7153200D02*
D03*
X7508800Y9234400D02*
D03*
X7378800D02*
D03*
X7023200Y9728200D02*
D03*
X7153200D02*
D03*
X7378800Y10428200D02*
D03*
X7508800D02*
D03*
X8317000Y8426600D02*
D03*
X8447000D02*
D03*
X8802600Y8502800D02*
D03*
X8672600D02*
D03*
X8317000Y8248800D02*
D03*
X8447000D02*
D03*
X10261600Y9906000D02*
D03*
X10131600D02*
D03*
X10261600Y10414000D02*
D03*
X10131600D02*
D03*
X9776000Y9880600D02*
D03*
X9906000D02*
D03*
X10617200Y9557000D02*
D03*
X10487200D02*
D03*
X9776000Y9702800D02*
D03*
X9906000D02*
D03*
X10642600Y10083800D02*
D03*
X10512600D02*
D03*
D29*
X10107200Y8913800D02*
D03*
X10202200Y8713800D02*
D03*
X10012200D02*
D03*
X10488200Y8278800D02*
D03*
X10583200Y8078800D02*
D03*
X10393200D02*
D03*
X10793800Y9008800D02*
D03*
X10888800Y8808800D02*
D03*
X10698800D02*
D03*
X7062800Y8928000D02*
D03*
X7157800Y8728000D02*
D03*
X6967800D02*
D03*
X7443800Y8293000D02*
D03*
X7538800Y8093000D02*
D03*
X7348800D02*
D03*
X7749400Y9023000D02*
D03*
X7844400Y8823000D02*
D03*
X7654400D02*
D03*
X7141600Y11890200D02*
D03*
X7236600Y11690200D02*
D03*
X7046600D02*
D03*
X7522600Y11255200D02*
D03*
X7617600Y11055200D02*
D03*
X7427600D02*
D03*
X7828200Y11985200D02*
D03*
X7923200Y11785200D02*
D03*
X7733200D02*
D03*
X10542600Y11809400D02*
D03*
X10637600Y11609400D02*
D03*
X10447600D02*
D03*
X9194800Y11809400D02*
D03*
X9289800Y11609400D02*
D03*
X9099800D02*
D03*
X9069400Y10336200D02*
D03*
X9164400Y10136200D02*
D03*
X8974400D02*
D03*
X7647000Y10310800D02*
D03*
X7742000Y10110800D02*
D03*
X7552000D02*
D03*
D30*
X9852400Y8686800D02*
D03*
X9652400Y8591800D02*
D03*
Y8781800D02*
D03*
X10232600Y8280400D02*
D03*
X10032600Y8185400D02*
D03*
Y8375400D02*
D03*
X10791400Y8545600D02*
D03*
X10591400Y8450600D02*
D03*
Y8640600D02*
D03*
X10207200Y7848600D02*
D03*
X10007200Y7753600D02*
D03*
Y7943600D02*
D03*
X9851600Y8001000D02*
D03*
X9651600Y7906000D02*
D03*
Y8096000D02*
D03*
X6808000Y8701000D02*
D03*
X6608000Y8606000D02*
D03*
Y8796000D02*
D03*
X7188200Y8294600D02*
D03*
X6988200Y8199600D02*
D03*
Y8389600D02*
D03*
X7747000Y8559800D02*
D03*
X7547000Y8464800D02*
D03*
Y8654800D02*
D03*
X7162800Y7862800D02*
D03*
X6962800Y7767800D02*
D03*
Y7957800D02*
D03*
X6807200Y8015200D02*
D03*
X6607200Y7920200D02*
D03*
Y8110200D02*
D03*
X6886800Y11663200D02*
D03*
X6686800Y11568200D02*
D03*
Y11758200D02*
D03*
X7267000Y11256800D02*
D03*
X7067000Y11161800D02*
D03*
Y11351800D02*
D03*
X7825800Y11522000D02*
D03*
X7625800Y11427000D02*
D03*
Y11617000D02*
D03*
X7241600Y10825000D02*
D03*
X7041600Y10730000D02*
D03*
Y10920000D02*
D03*
X6886000Y10977400D02*
D03*
X6686000Y10882400D02*
D03*
Y11072400D02*
D03*
X10109200Y11658600D02*
D03*
X9909200Y11563600D02*
D03*
Y11753600D02*
D03*
X10464800Y11353800D02*
D03*
X10264800Y11258800D02*
D03*
Y11448800D02*
D03*
X10464800Y10998200D02*
D03*
X10264800Y10903200D02*
D03*
Y11093200D02*
D03*
X10109200Y10972800D02*
D03*
X9909200Y10877800D02*
D03*
Y11067800D02*
D03*
X8761400Y11658600D02*
D03*
X8561400Y11563600D02*
D03*
Y11753600D02*
D03*
X9117000Y11353800D02*
D03*
X8917000Y11258800D02*
D03*
Y11448800D02*
D03*
X9117000Y10998200D02*
D03*
X8917000Y10903200D02*
D03*
Y11093200D02*
D03*
X8761400Y10972800D02*
D03*
X8561400Y10877800D02*
D03*
Y11067800D02*
D03*
X8636000Y10185400D02*
D03*
X8436000Y10090400D02*
D03*
Y10280400D02*
D03*
X8991600Y9880600D02*
D03*
X8791600Y9785600D02*
D03*
Y9975600D02*
D03*
X8991600Y9525000D02*
D03*
X8791600Y9430000D02*
D03*
Y9620000D02*
D03*
X8636000Y9499600D02*
D03*
X8436000Y9404600D02*
D03*
Y9594600D02*
D03*
X7213600Y10160000D02*
D03*
X7013600Y10065000D02*
D03*
Y10255000D02*
D03*
X7569200Y9855200D02*
D03*
X7369200Y9760200D02*
D03*
Y9950200D02*
D03*
X7569200Y9499600D02*
D03*
X7369200Y9404600D02*
D03*
Y9594600D02*
D03*
X7213600Y9474200D02*
D03*
X7013600Y9379200D02*
D03*
Y9569200D02*
D03*
X8482000Y8680600D02*
D03*
X8282000Y8585600D02*
D03*
Y8775600D02*
D03*
X8863000Y8223400D02*
D03*
X8663000Y8128400D02*
D03*
Y8318400D02*
D03*
X8837600Y8775600D02*
D03*
X8637600Y8680600D02*
D03*
Y8870600D02*
D03*
X8863000Y7856600D02*
D03*
X8663000Y7761600D02*
D03*
Y7951600D02*
D03*
X9218600Y8248800D02*
D03*
X9018600Y8153800D02*
D03*
Y8343800D02*
D03*
X8488600Y7993200D02*
D03*
X8288600Y7898200D02*
D03*
Y8088200D02*
D03*
X9964800Y10145800D02*
D03*
X9764800Y10050800D02*
D03*
Y10240800D02*
D03*
X10347400Y9652000D02*
D03*
X10147400Y9557000D02*
D03*
Y9747000D02*
D03*
X10323600Y10160000D02*
D03*
X10123600Y10065000D02*
D03*
Y10255000D02*
D03*
X10323600Y9296400D02*
D03*
X10123600Y9201400D02*
D03*
Y9391400D02*
D03*
X10677600Y9295200D02*
D03*
X10477600Y9200200D02*
D03*
Y9390200D02*
D03*
X9966400Y9448800D02*
D03*
X9766400Y9353800D02*
D03*
Y9543800D02*
D03*
D31*
X10637600Y11428800D02*
D03*
Y11278800D02*
D03*
X9289800Y11428800D02*
D03*
Y11278800D02*
D03*
X9164400Y9955600D02*
D03*
Y9805600D02*
D03*
X7742000Y9930200D02*
D03*
Y9780200D02*
D03*
X9194800Y7973200D02*
D03*
Y7823200D02*
D03*
X10566400Y9754800D02*
D03*
Y9904800D02*
D03*
%TF.MD5,280c17d3b2e8fb545acbe153ec429f77*%
M02*
