%TF.GenerationSoftware,Altium Limited,Altium Designer,19.0.15 (446)*%
G04 Layer_Color=128*
%FSLAX45Y45*%
%MOMM*%
%TF.FileFunction,Drillmap*%
%TF.Part,Single*%
G01*
G75*
%TA.AperFunction,NonConductor*%
%ADD37C,0.12700*%
D37*
X11131000Y9144000D02*
X11221000D01*
X11176000Y9099000D02*
Y9189000D01*
X11131000Y8890000D02*
X11221000D01*
X11176000Y8845000D02*
Y8935000D01*
X11131000Y9398000D02*
X11221000D01*
X11176000Y9353000D02*
Y9443000D01*
X11131000Y9652000D02*
X11221000D01*
X11176000Y9607000D02*
Y9697000D01*
X11131000Y10668000D02*
X11221000D01*
X11176000Y10623000D02*
Y10713000D01*
X11131000Y10414000D02*
X11221000D01*
X11176000Y10369000D02*
Y10459000D01*
X11131000Y9906000D02*
X11221000D01*
X11176000Y9861000D02*
Y9951000D01*
X11131000Y10160000D02*
X11221000D01*
X11176000Y10115000D02*
Y10205000D01*
X6051000Y9144000D02*
X6141000D01*
X6096000Y9099000D02*
Y9189000D01*
X6051000Y8890000D02*
X6141000D01*
X6096000Y8845000D02*
Y8935000D01*
X6051000Y9398000D02*
X6141000D01*
X6096000Y9353000D02*
Y9443000D01*
X6051000Y9652000D02*
X6141000D01*
X6096000Y9607000D02*
Y9697000D01*
X6051000Y10668000D02*
X6141000D01*
X6096000Y10623000D02*
Y10713000D01*
X6051000Y10414000D02*
X6141000D01*
X6096000Y10369000D02*
Y10459000D01*
X6051000Y9906000D02*
X6141000D01*
X6096000Y9861000D02*
Y9951000D01*
X6051000Y10160000D02*
X6141000D01*
X6096000Y10115000D02*
Y10205000D01*
X10873000Y8015200D02*
X10903000D01*
X10888000Y8000200D02*
Y8030200D01*
X7828600Y8015200D02*
X7858600D01*
X7843600Y8000200D02*
Y8030200D01*
X7960600Y10947400D02*
X7990600D01*
X7975600Y10932400D02*
Y10962400D01*
X10881600Y8923400D02*
X10911600D01*
X10896600Y8908400D02*
Y8938400D01*
X7829400Y8940800D02*
X7859400D01*
X7844400Y8925800D02*
Y8955800D01*
X7922900Y11890200D02*
X7952900D01*
X7937900Y11875200D02*
Y11905200D01*
X10576400Y9194800D02*
X10606400D01*
X10591400Y9179800D02*
Y9209800D01*
X10019600Y9956800D02*
X10049600D01*
X10034600Y9941800D02*
Y9971800D01*
X6457600Y11383600D02*
X6487600D01*
X6472600Y11368600D02*
Y11398600D01*
X9362300Y11006000D02*
X9392300D01*
X9377300Y10991000D02*
Y11021000D01*
X9332200Y10806200D02*
X9362200D01*
X9347200Y10791200D02*
Y10821200D01*
X9433800Y9575800D02*
X9463800D01*
X9448800Y9560800D02*
Y9590800D01*
X8302000Y9804400D02*
X8332000D01*
X8317000Y9789400D02*
Y9819400D01*
X8138400Y8280400D02*
X8168400D01*
X8153400Y8265400D02*
Y8295400D01*
X8595600Y8991600D02*
X8625600D01*
X8610600Y8976600D02*
Y9006600D01*
X8595600Y9118600D02*
X8625600D01*
X8610600Y9103600D02*
Y9133600D01*
X8239700Y9875600D02*
X8269700D01*
X8254700Y9860600D02*
Y9890600D01*
X9381800Y8407400D02*
X9411800D01*
X9396800Y8392400D02*
Y8422400D01*
X10905800Y10134600D02*
X10935800D01*
X10920800Y10119600D02*
Y10149600D01*
X9510000Y10642600D02*
X9540000D01*
X9525000Y10627600D02*
Y10657600D01*
X9230600Y10490200D02*
X9260600D01*
X9245600Y10475200D02*
Y10505200D01*
X8786200Y10566400D02*
X8816200D01*
X8801200Y10551400D02*
Y10581400D01*
X8416000Y11338000D02*
X8446000D01*
X8431000Y11323000D02*
Y11353000D01*
X7986000Y8966200D02*
X8016000D01*
X8001000Y8951200D02*
Y8981200D01*
X7935200Y8432500D02*
X7965200D01*
X7950200Y8417500D02*
Y8447500D01*
X8011400Y8843300D02*
X8041400D01*
X8026400Y8828300D02*
Y8858300D01*
X8182600Y10947400D02*
X8212600D01*
X8197600Y10932400D02*
Y10962400D01*
X7940200Y10490200D02*
X7970200D01*
X7955200Y10475200D02*
Y10505200D01*
X6284200Y8574000D02*
X6314200D01*
X6299200Y8559000D02*
Y8589000D01*
X6335000Y11072400D02*
X6365000D01*
X6350000Y11057400D02*
Y11087400D01*
X6416200Y10275800D02*
X6446200D01*
X6431200Y10260800D02*
Y10290800D01*
X9560800Y11074400D02*
X9590800D01*
X9575800Y11059400D02*
Y11089400D01*
X6618000Y9647300D02*
X6648000D01*
X6633000Y9632300D02*
Y9662300D01*
X6309600Y8255000D02*
X6339600D01*
X6324600Y8240000D02*
Y8270000D01*
X6453200Y9590000D02*
X6483200D01*
X6468200Y9575000D02*
Y9605000D01*
X9357600Y8178800D02*
X9387600D01*
X9372600Y8163800D02*
Y8193800D01*
X7363800Y9118600D02*
X7393800D01*
X7378800Y9103600D02*
Y9133600D01*
X7828600Y8153400D02*
X7858600D01*
X7843600Y8138400D02*
Y8168400D01*
X7856400Y8239200D02*
X7886400D01*
X7871400Y8224200D02*
Y8254200D01*
X6538200Y9289600D02*
X6568200D01*
X6553200Y9274600D02*
Y9304600D01*
X10627600Y10210800D02*
X10657600D01*
X10642600Y10195800D02*
Y10225800D01*
X10181600Y10033000D02*
X10211600D01*
X10196600Y10018000D02*
Y10048000D01*
X9851400Y10050800D02*
X9881400D01*
X9866400Y10035800D02*
Y10065800D01*
X9851400Y9353800D02*
X9881400D01*
X9866400Y9338800D02*
Y9368800D01*
X10207000Y9201400D02*
X10237000D01*
X10222000Y9186400D02*
Y9216400D01*
X9470400Y9310600D02*
X9500400D01*
X9485400Y9295600D02*
Y9325600D01*
X10116600Y10515600D02*
X10146600D01*
X10131600Y10500600D02*
Y10530600D01*
X9470400Y10284000D02*
X9500400D01*
X9485400Y10269000D02*
Y10299000D01*
X9103600Y8923400D02*
X9133600D01*
X9118600Y8908400D02*
Y8938400D01*
X9103600Y8153800D02*
X9133600D01*
X9118600Y8138800D02*
Y8168800D01*
X8900400Y7983600D02*
X8930400D01*
X8915400Y7968600D02*
Y7998600D01*
X8697200Y8661400D02*
X8727200D01*
X8712200Y8646400D02*
Y8676400D01*
X8556700Y8502800D02*
X8586700D01*
X8571700Y8487800D02*
Y8517800D01*
X8748000Y8128400D02*
X8778000D01*
X8763000Y8113400D02*
Y8143400D01*
X8748000Y7761600D02*
X8778000D01*
X8763000Y7746600D02*
Y7776600D01*
X8371600Y7899400D02*
X8401600D01*
X8386600Y7884400D02*
Y7914400D01*
X8001800Y7856600D02*
X8031800D01*
X8016800Y7841600D02*
Y7871600D01*
X8367000Y8585200D02*
X8397000D01*
X8382000Y8570200D02*
Y8600200D01*
X8646400Y11563600D02*
X8676400D01*
X8661400Y11548600D02*
Y11578600D01*
X8265400Y11796800D02*
X8295400D01*
X8280400Y11781800D02*
Y11811800D01*
X8646400Y10877800D02*
X8676400D01*
X8661400Y10862800D02*
Y10892800D01*
X8290800Y10834600D02*
X8320800D01*
X8305800Y10819600D02*
Y10849600D01*
X9002000Y11258800D02*
X9032000D01*
X9017000Y11243800D02*
Y11273800D01*
X9002000Y10896600D02*
X9032000D01*
X9017000Y10881600D02*
Y10911600D01*
X9274800Y11709400D02*
X9304800D01*
X9289800Y11694400D02*
Y11724400D01*
X8911600Y12039600D02*
X8941600D01*
X8926600Y12024600D02*
Y12054600D01*
X8521000Y10090400D02*
X8551000D01*
X8536000Y10075400D02*
Y10105400D01*
X8140000Y10323600D02*
X8170000D01*
X8155000Y10308600D02*
Y10338600D01*
X8521000Y9404600D02*
X8551000D01*
X8536000Y9389600D02*
Y9419600D01*
X8165400Y9361400D02*
X8195400D01*
X8180400Y9346400D02*
Y9376400D01*
X8876600Y9785600D02*
X8906600D01*
X8891600Y9770600D02*
Y9800600D01*
X8876600Y9423400D02*
X8906600D01*
X8891600Y9408400D02*
Y9438400D01*
X8786200Y9144000D02*
X8816200D01*
X8801200Y9129000D02*
Y9159000D01*
X9149400Y10236200D02*
X9179400D01*
X9164400Y10221200D02*
Y10251200D01*
X7098600Y10065000D02*
X7128600D01*
X7113600Y10050000D02*
Y10080000D01*
X6717600Y10298200D02*
X6747600D01*
X6732600Y10283200D02*
Y10313200D01*
X7098600Y9379200D02*
X7128600D01*
X7113600Y9364200D02*
Y9394200D01*
X6743000Y9336000D02*
X6773000D01*
X6758000Y9321000D02*
Y9351000D01*
X7454200Y9760200D02*
X7484200D01*
X7469200Y9745200D02*
Y9775200D01*
X7454200Y9398000D02*
X7484200D01*
X7469200Y9383000D02*
Y9413000D01*
X7727000Y10210800D02*
X7757000D01*
X7742000Y10195800D02*
Y10225800D01*
X7363800Y10541000D02*
X7393800D01*
X7378800Y10526000D02*
Y10556000D01*
X10622600Y11709400D02*
X10652600D01*
X10637600Y11694400D02*
Y11724400D01*
X10349800Y11258800D02*
X10379800D01*
X10364800Y11243800D02*
Y11273800D01*
X10259400Y12039600D02*
X10289400D01*
X10274400Y12024600D02*
Y12054600D01*
X10349800Y10896600D02*
X10379800D01*
X10364800Y10881600D02*
Y10911600D01*
X9994200Y11563600D02*
X10024200D01*
X10009200Y11548600D02*
Y11578600D01*
X9613200Y11796800D02*
X9643200D01*
X9628200Y11781800D02*
Y11811800D01*
X9994200Y10877800D02*
X10024200D01*
X10009200Y10862800D02*
Y10892800D01*
X9638600Y10834600D02*
X9668600D01*
X9653600Y10819600D02*
Y10849600D01*
X9737400Y8591800D02*
X9767400D01*
X9752400Y8576800D02*
Y8606800D01*
X9381800Y8825000D02*
X9411800D01*
X9396800Y8810000D02*
Y8840000D01*
X9737400Y7906000D02*
X9767400D01*
X9752400Y7891000D02*
Y7921000D01*
X9381800Y7862800D02*
X9411800D01*
X9396800Y7847800D02*
Y7877800D01*
X10045400Y8096000D02*
X10075400D01*
X10060400Y8081000D02*
Y8111000D01*
X10677200Y8450600D02*
X10707200D01*
X10692200Y8435600D02*
Y8465600D01*
X10093000Y7753600D02*
X10123000D01*
X10108000Y7738600D02*
Y7768600D01*
X10345500Y9037800D02*
X10375500D01*
X10360500Y9022800D02*
Y9052800D01*
X10873000Y8139200D02*
X10903000D01*
X10888000Y8124200D02*
Y8154200D01*
X10378200Y8352000D02*
X10408200D01*
X10393200Y8337000D02*
Y8367000D01*
X10487400Y7615400D02*
X10517400D01*
X10502400Y7600400D02*
Y7630400D01*
X10900800Y8225000D02*
X10930800D01*
X10915800Y8210000D02*
Y8240000D01*
X10855000Y8656800D02*
X10885000D01*
X10870000Y8641800D02*
Y8671800D01*
X6693000Y8606000D02*
X6723000D01*
X6708000Y8591000D02*
Y8621000D01*
X6337400Y8839200D02*
X6367400D01*
X6352400Y8824200D02*
Y8854200D01*
X6693000Y7920200D02*
X6723000D01*
X6708000Y7905200D02*
Y7935200D01*
X6337400Y7877000D02*
X6367400D01*
X6352400Y7862000D02*
Y7892000D01*
X7001000Y8110200D02*
X7031000D01*
X7016000Y8095200D02*
Y8125200D01*
X7632800Y8464800D02*
X7662800D01*
X7647800Y8449800D02*
Y8479800D01*
X7048600Y7767800D02*
X7078600D01*
X7063600Y7752800D02*
Y7782800D01*
X7333800Y8366200D02*
X7363800D01*
X7348800Y8351200D02*
Y8381200D01*
X7443000Y7629600D02*
X7473000D01*
X7458000Y7614600D02*
Y7644600D01*
X7810600Y8671000D02*
X7840600D01*
X7825600Y8656000D02*
Y8686000D01*
X7889400Y11633200D02*
X7919400D01*
X7904400Y11618200D02*
Y11648200D01*
X7935200Y11201400D02*
X7965200D01*
X7950200Y11186400D02*
Y11216400D01*
X7711600Y11427000D02*
X7741600D01*
X7726600Y11412000D02*
Y11442000D01*
X7412600Y11328400D02*
X7442600D01*
X7427600Y11313400D02*
Y11343400D01*
X7907400Y11115600D02*
X7937400D01*
X7922400Y11100600D02*
Y11130600D01*
X7079800Y11072400D02*
X7109800D01*
X7094800Y11057400D02*
Y11087400D01*
X7379900Y12014200D02*
X7409900D01*
X7394900Y11999200D02*
Y12029200D01*
X7127400Y10730000D02*
X7157400D01*
X7142400Y10715000D02*
Y10745000D01*
X6771800Y10882400D02*
X6801800D01*
X6786800Y10867400D02*
Y10897400D01*
X6416200Y10839200D02*
X6446200D01*
X6431200Y10824200D02*
Y10854200D01*
X6771800Y11568200D02*
X6801800D01*
X6786800Y11553200D02*
Y11583200D01*
X6416200Y11801400D02*
X6446200D01*
X6431200Y11786400D02*
Y11816400D01*
%TF.MD5,da34ef11c1de4397c3fb16c3dbc1da01*%
M02*
