%TF.GenerationSoftware,Altium Limited,Altium Designer,19.0.15 (446)*%
G04 Layer_Physical_Order=3*
G04 Layer_Color=16440176*
%FSLAX45Y45*%
%MOMM*%
%TF.FileFunction,Copper,L3,Inr,Signal*%
%TF.Part,Single*%
G01*
G75*
%TA.AperFunction,ComponentPad*%
%ADD17C,1.80000*%
%TA.AperFunction,ViaPad*%
%ADD18C,0.50000*%
G36*
X11366500Y7493000D02*
X5905500D01*
Y12128500D01*
X11366500D01*
Y7493000D01*
D02*
G37*
%LPC*%
G36*
X10287100Y12088461D02*
Y12052300D01*
X10323261D01*
X10321876Y12059265D01*
X10310736Y12075936D01*
X10294065Y12087076D01*
X10287100Y12088461D01*
D02*
G37*
G36*
X10261700D02*
X10254735Y12087076D01*
X10238064Y12075936D01*
X10226924Y12059265D01*
X10225539Y12052300D01*
X10261700D01*
Y12088461D01*
D02*
G37*
G36*
X8939300D02*
Y12052300D01*
X8975461D01*
X8974076Y12059265D01*
X8962936Y12075936D01*
X8946265Y12087076D01*
X8939300Y12088461D01*
D02*
G37*
G36*
X8913900D02*
X8906935Y12087076D01*
X8890264Y12075936D01*
X8879124Y12059265D01*
X8877739Y12052300D01*
X8913900D01*
Y12088461D01*
D02*
G37*
G36*
X7407600Y12063061D02*
Y12026900D01*
X7443761D01*
X7442376Y12033865D01*
X7431236Y12050536D01*
X7414565Y12061676D01*
X7407600Y12063061D01*
D02*
G37*
G36*
X7382200D02*
X7375235Y12061676D01*
X7358564Y12050536D01*
X7347424Y12033865D01*
X7346039Y12026900D01*
X7382200D01*
Y12063061D01*
D02*
G37*
G36*
X10323261Y12026900D02*
X10287100D01*
Y11990739D01*
X10294065Y11992124D01*
X10310736Y12003264D01*
X10321876Y12019935D01*
X10323261Y12026900D01*
D02*
G37*
G36*
X10261700D02*
X10225539D01*
X10226924Y12019935D01*
X10238064Y12003264D01*
X10254735Y11992124D01*
X10261700Y11990739D01*
Y12026900D01*
D02*
G37*
G36*
X8975461D02*
X8939300D01*
Y11990739D01*
X8946265Y11992124D01*
X8962936Y12003264D01*
X8974076Y12019935D01*
X8975461Y12026900D01*
D02*
G37*
G36*
X8913900D02*
X8877739D01*
X8879124Y12019935D01*
X8890264Y12003264D01*
X8906935Y11992124D01*
X8913900Y11990739D01*
Y12026900D01*
D02*
G37*
G36*
X7443761Y12001500D02*
X7407600D01*
Y11965339D01*
X7414565Y11966724D01*
X7431236Y11977864D01*
X7442376Y11994535D01*
X7443761Y12001500D01*
D02*
G37*
G36*
X7382200D02*
X7346039D01*
X7347424Y11994535D01*
X7358564Y11977864D01*
X7375235Y11966724D01*
X7382200Y11965339D01*
Y12001500D01*
D02*
G37*
G36*
X7937900Y11941587D02*
X7918235Y11937676D01*
X7901564Y11926536D01*
X7890424Y11909865D01*
X7886513Y11890200D01*
X7890424Y11870535D01*
X7901564Y11853864D01*
X7918235Y11842724D01*
X7937900Y11838813D01*
X7957565Y11842724D01*
X7974236Y11853864D01*
X7985376Y11870535D01*
X7989287Y11890200D01*
X7985376Y11909865D01*
X7974236Y11926536D01*
X7957565Y11937676D01*
X7937900Y11941587D01*
D02*
G37*
G36*
X6443900Y11850261D02*
Y11814100D01*
X6480061D01*
X6478676Y11821065D01*
X6467536Y11837736D01*
X6450865Y11848875D01*
X6443900Y11850261D01*
D02*
G37*
G36*
X6418500D02*
X6411535Y11848875D01*
X6394864Y11837736D01*
X6383725Y11821065D01*
X6382339Y11814100D01*
X6418500D01*
Y11850261D01*
D02*
G37*
G36*
X9640900Y11845661D02*
Y11809500D01*
X9677061D01*
X9675676Y11816465D01*
X9664536Y11833136D01*
X9647865Y11844276D01*
X9640900Y11845661D01*
D02*
G37*
G36*
X9615500D02*
X9608535Y11844276D01*
X9591864Y11833136D01*
X9580724Y11816465D01*
X9579339Y11809500D01*
X9615500D01*
Y11845661D01*
D02*
G37*
G36*
X8293100D02*
Y11809500D01*
X8329261D01*
X8327876Y11816465D01*
X8316736Y11833136D01*
X8300065Y11844276D01*
X8293100Y11845661D01*
D02*
G37*
G36*
X8267700D02*
X8260735Y11844276D01*
X8244064Y11833136D01*
X8232924Y11816465D01*
X8231539Y11809500D01*
X8267700D01*
Y11845661D01*
D02*
G37*
G36*
X6480061Y11788700D02*
X6443900D01*
Y11752539D01*
X6450865Y11753924D01*
X6467536Y11765064D01*
X6478676Y11781735D01*
X6480061Y11788700D01*
D02*
G37*
G36*
X6418500D02*
X6382339D01*
X6383725Y11781735D01*
X6394864Y11765064D01*
X6411535Y11753924D01*
X6418500Y11752539D01*
Y11788700D01*
D02*
G37*
G36*
X9677061Y11784100D02*
X9640900D01*
Y11747939D01*
X9647865Y11749324D01*
X9664536Y11760464D01*
X9675676Y11777135D01*
X9677061Y11784100D01*
D02*
G37*
G36*
X9615500D02*
X9579339D01*
X9580724Y11777135D01*
X9591864Y11760464D01*
X9608535Y11749324D01*
X9615500Y11747939D01*
Y11784100D01*
D02*
G37*
G36*
X8329261D02*
X8293100D01*
Y11747939D01*
X8300065Y11749324D01*
X8316736Y11760464D01*
X8327876Y11777135D01*
X8329261Y11784100D01*
D02*
G37*
G36*
X8267700D02*
X8231539D01*
X8232924Y11777135D01*
X8244064Y11760464D01*
X8260735Y11749324D01*
X8267700Y11747939D01*
Y11784100D01*
D02*
G37*
G36*
X10637600Y11760787D02*
X10617935Y11756876D01*
X10601264Y11745736D01*
X10590124Y11729065D01*
X10586213Y11709400D01*
X10590124Y11689735D01*
X10601264Y11673064D01*
X10617935Y11661924D01*
X10637600Y11658013D01*
X10657265Y11661924D01*
X10673936Y11673064D01*
X10685075Y11689735D01*
X10688987Y11709400D01*
X10685075Y11729065D01*
X10673936Y11745736D01*
X10657265Y11756876D01*
X10637600Y11760787D01*
D02*
G37*
G36*
X9289800D02*
X9270135Y11756876D01*
X9253464Y11745736D01*
X9242324Y11729065D01*
X9238413Y11709400D01*
X9242324Y11689735D01*
X9253464Y11673064D01*
X9270135Y11661924D01*
X9289800Y11658013D01*
X9309465Y11661924D01*
X9326136Y11673064D01*
X9337275Y11689735D01*
X9341187Y11709400D01*
X9337275Y11729065D01*
X9326136Y11745736D01*
X9309465Y11756876D01*
X9289800Y11760787D01*
D02*
G37*
G36*
X7904400Y11684587D02*
X7884735Y11680676D01*
X7868064Y11669536D01*
X7856925Y11652865D01*
X7853013Y11633200D01*
X7856925Y11613535D01*
X7868064Y11596864D01*
X7884735Y11585724D01*
X7904400Y11581813D01*
X7924065Y11585724D01*
X7940736Y11596864D01*
X7951876Y11613535D01*
X7955787Y11633200D01*
X7951876Y11652865D01*
X7940736Y11669536D01*
X7924065Y11680676D01*
X7904400Y11684587D01*
D02*
G37*
G36*
X6786800Y11619587D02*
X6767135Y11615676D01*
X6750464Y11604536D01*
X6739325Y11587865D01*
X6735413Y11568200D01*
X6739325Y11548535D01*
X6750464Y11531864D01*
X6767135Y11520724D01*
X6786800Y11516813D01*
X6806465Y11520724D01*
X6823136Y11531864D01*
X6834276Y11548535D01*
X6838187Y11568200D01*
X6834276Y11587865D01*
X6823136Y11604536D01*
X6806465Y11615676D01*
X6786800Y11619587D01*
D02*
G37*
G36*
X10009200Y11614987D02*
X9989535Y11611076D01*
X9972864Y11599936D01*
X9961724Y11583265D01*
X9957813Y11563600D01*
X9961724Y11543935D01*
X9972864Y11527264D01*
X9989535Y11516125D01*
X10009200Y11512213D01*
X10028865Y11516125D01*
X10045536Y11527264D01*
X10056676Y11543935D01*
X10060587Y11563600D01*
X10056676Y11583265D01*
X10045536Y11599936D01*
X10028865Y11611076D01*
X10009200Y11614987D01*
D02*
G37*
G36*
X8661400D02*
X8641735Y11611076D01*
X8625064Y11599936D01*
X8613924Y11583265D01*
X8610013Y11563600D01*
X8613924Y11543935D01*
X8625064Y11527264D01*
X8641735Y11516125D01*
X8661400Y11512213D01*
X8681065Y11516125D01*
X8697736Y11527264D01*
X8708876Y11543935D01*
X8712787Y11563600D01*
X8708876Y11583265D01*
X8697736Y11599936D01*
X8681065Y11611076D01*
X8661400Y11614987D01*
D02*
G37*
G36*
X7726600Y11478388D02*
X7706935Y11474476D01*
X7690264Y11463336D01*
X7679125Y11446665D01*
X7675213Y11427000D01*
X7679125Y11407335D01*
X7690264Y11390664D01*
X7706935Y11379525D01*
X7726600Y11375613D01*
X7746265Y11379525D01*
X7762936Y11390664D01*
X7774076Y11407335D01*
X7777987Y11427000D01*
X7774076Y11446665D01*
X7762936Y11463336D01*
X7746265Y11474476D01*
X7726600Y11478388D01*
D02*
G37*
G36*
X7440300Y11377261D02*
Y11341100D01*
X7476461D01*
X7475076Y11348065D01*
X7463937Y11364736D01*
X7447265Y11375876D01*
X7440300Y11377261D01*
D02*
G37*
G36*
X7414900D02*
X7407935Y11375876D01*
X7391264Y11364736D01*
X7380125Y11348065D01*
X7378739Y11341100D01*
X7414900D01*
Y11377261D01*
D02*
G37*
G36*
X6472600Y11434987D02*
X6452936Y11431075D01*
X6436264Y11419936D01*
X6425125Y11403264D01*
X6421213Y11383600D01*
X6425125Y11363935D01*
X6436264Y11347263D01*
X6452936Y11336124D01*
X6472600Y11332212D01*
X6492265Y11336124D01*
X6508937Y11347263D01*
X6520076Y11363935D01*
X6523988Y11383600D01*
X6520076Y11403264D01*
X6508937Y11419936D01*
X6492265Y11431075D01*
X6472600Y11434987D01*
D02*
G37*
G36*
X8431000Y11389387D02*
X8411335Y11385476D01*
X8394664Y11374336D01*
X8383524Y11357665D01*
X8379613Y11338000D01*
X8383524Y11318335D01*
X8394664Y11301664D01*
X8411335Y11290524D01*
X8431000Y11286613D01*
X8450665Y11290524D01*
X8467336Y11301664D01*
X8478476Y11318335D01*
X8482387Y11338000D01*
X8478476Y11357665D01*
X8467336Y11374336D01*
X8450665Y11385476D01*
X8431000Y11389387D01*
D02*
G37*
G36*
X7476461Y11315700D02*
X7440300D01*
Y11279539D01*
X7447265Y11280924D01*
X7463937Y11292064D01*
X7475076Y11308735D01*
X7476461Y11315700D01*
D02*
G37*
G36*
X7414900D02*
X7378739D01*
X7380125Y11308735D01*
X7391264Y11292064D01*
X7407935Y11280924D01*
X7414900Y11279539D01*
Y11315700D01*
D02*
G37*
G36*
X10364800Y11310187D02*
X10345135Y11306276D01*
X10328464Y11295136D01*
X10317324Y11278465D01*
X10313413Y11258800D01*
X10317324Y11239135D01*
X10328464Y11222464D01*
X10345135Y11211325D01*
X10364800Y11207413D01*
X10384465Y11211325D01*
X10401136Y11222464D01*
X10412276Y11239135D01*
X10416187Y11258800D01*
X10412276Y11278465D01*
X10401136Y11295136D01*
X10384465Y11306276D01*
X10364800Y11310187D01*
D02*
G37*
G36*
X9017000D02*
X8997335Y11306276D01*
X8980664Y11295136D01*
X8969524Y11278465D01*
X8965613Y11258800D01*
X8969524Y11239135D01*
X8980664Y11222464D01*
X8997335Y11211325D01*
X9017000Y11207413D01*
X9036665Y11211325D01*
X9053336Y11222464D01*
X9064476Y11239135D01*
X9068387Y11258800D01*
X9064476Y11278465D01*
X9053336Y11295136D01*
X9036665Y11306276D01*
X9017000Y11310187D01*
D02*
G37*
G36*
X7950200Y11252787D02*
X7930535Y11248876D01*
X7913864Y11237736D01*
X7902724Y11221065D01*
X7898813Y11201400D01*
X7902724Y11181735D01*
X7907502Y11174584D01*
X7904889Y11168276D01*
X7900787Y11161774D01*
X7886064Y11151936D01*
X7874925Y11135265D01*
X7873539Y11128300D01*
X7971261D01*
X7969876Y11135265D01*
X7965098Y11142416D01*
X7967711Y11148724D01*
X7971813Y11155226D01*
X7986536Y11165064D01*
X7997676Y11181735D01*
X8001587Y11201400D01*
X7997676Y11221065D01*
X7986536Y11237736D01*
X7969865Y11248876D01*
X7950200Y11252787D01*
D02*
G37*
G36*
X7971261Y11102900D02*
X7935100D01*
Y11066739D01*
X7942065Y11068124D01*
X7958736Y11079264D01*
X7969876Y11095935D01*
X7971261Y11102900D01*
D02*
G37*
G36*
X7909700D02*
X7873539D01*
X7874925Y11095935D01*
X7886064Y11079264D01*
X7902735Y11068124D01*
X7909700Y11066739D01*
Y11102900D01*
D02*
G37*
G36*
X9575800Y11125787D02*
X9556135Y11121876D01*
X9539464Y11110736D01*
X9528324Y11094065D01*
X9524413Y11074400D01*
X9528324Y11054735D01*
X9539464Y11038064D01*
X9556135Y11026924D01*
X9575800Y11023013D01*
X9595465Y11026924D01*
X9612136Y11038064D01*
X9623276Y11054735D01*
X9627187Y11074400D01*
X9623276Y11094065D01*
X9612136Y11110736D01*
X9595465Y11121876D01*
X9575800Y11125787D01*
D02*
G37*
G36*
X7094800Y11123787D02*
X7075135Y11119876D01*
X7058464Y11108736D01*
X7047324Y11092065D01*
X7043413Y11072400D01*
X7047324Y11052735D01*
X7058464Y11036064D01*
X7075135Y11024924D01*
X7094800Y11021013D01*
X7114465Y11024924D01*
X7131136Y11036064D01*
X7142276Y11052735D01*
X7146187Y11072400D01*
X7142276Y11092065D01*
X7131136Y11108736D01*
X7114465Y11119876D01*
X7094800Y11123787D01*
D02*
G37*
G36*
X6350000D02*
X6330335Y11119876D01*
X6313664Y11108736D01*
X6302524Y11092065D01*
X6298613Y11072400D01*
X6302524Y11052735D01*
X6313664Y11036064D01*
X6330335Y11024924D01*
X6350000Y11021013D01*
X6369665Y11024924D01*
X6386336Y11036064D01*
X6397476Y11052735D01*
X6401387Y11072400D01*
X6397476Y11092065D01*
X6386336Y11108736D01*
X6369665Y11119876D01*
X6350000Y11123787D01*
D02*
G37*
G36*
X7988300Y10996261D02*
Y10960100D01*
X8024461D01*
X8023076Y10967065D01*
X8011936Y10983736D01*
X7995265Y10994876D01*
X7988300Y10996261D01*
D02*
G37*
G36*
X7962900D02*
X7955935Y10994876D01*
X7939264Y10983736D01*
X7928124Y10967065D01*
X7926739Y10960100D01*
X7962900D01*
Y10996261D01*
D02*
G37*
G36*
X9377300Y11057387D02*
X9357635Y11053475D01*
X9340964Y11042336D01*
X9329824Y11025665D01*
X9325913Y11006000D01*
X9329824Y10986335D01*
X9340964Y10969664D01*
X9357635Y10958524D01*
X9377300Y10954613D01*
X9396965Y10958524D01*
X9413636Y10969664D01*
X9424775Y10986335D01*
X9428687Y11006000D01*
X9424775Y11025665D01*
X9413636Y11042336D01*
X9396965Y11053475D01*
X9377300Y11057387D01*
D02*
G37*
G36*
X8024461Y10934700D02*
X7988300D01*
Y10898539D01*
X7995265Y10899924D01*
X8011936Y10911064D01*
X8023076Y10927735D01*
X8024461Y10934700D01*
D02*
G37*
G36*
X7962900D02*
X7926739D01*
X7928124Y10927735D01*
X7939264Y10911064D01*
X7955935Y10899924D01*
X7962900Y10898539D01*
Y10934700D01*
D02*
G37*
G36*
X8197600Y10998787D02*
X8177935Y10994876D01*
X8161264Y10983736D01*
X8150124Y10967065D01*
X8146213Y10947400D01*
X8150124Y10927735D01*
X8161264Y10911064D01*
X8177935Y10899924D01*
X8197600Y10896013D01*
X8217265Y10899924D01*
X8233936Y10911064D01*
X8245075Y10927735D01*
X8248987Y10947400D01*
X8245075Y10967065D01*
X8233936Y10983736D01*
X8217265Y10994876D01*
X8197600Y10998787D01*
D02*
G37*
G36*
X6443900Y10888061D02*
Y10851900D01*
X6480061D01*
X6478676Y10858865D01*
X6467536Y10875536D01*
X6450865Y10886676D01*
X6443900Y10888061D01*
D02*
G37*
G36*
X6418500D02*
X6411535Y10886676D01*
X6394864Y10875536D01*
X6383725Y10858865D01*
X6382339Y10851900D01*
X6418500D01*
Y10888061D01*
D02*
G37*
G36*
X9666300Y10883461D02*
Y10847300D01*
X9702461D01*
X9701076Y10854265D01*
X9689936Y10870936D01*
X9673265Y10882076D01*
X9666300Y10883461D01*
D02*
G37*
G36*
X9640900D02*
X9633935Y10882076D01*
X9617264Y10870936D01*
X9606124Y10854265D01*
X9604739Y10847300D01*
X9640900D01*
Y10883461D01*
D02*
G37*
G36*
X8318500D02*
Y10847300D01*
X8354661D01*
X8353276Y10854265D01*
X8342136Y10870936D01*
X8325465Y10882076D01*
X8318500Y10883461D01*
D02*
G37*
G36*
X8293100D02*
X8286135Y10882076D01*
X8269464Y10870936D01*
X8258324Y10854265D01*
X8256939Y10847300D01*
X8293100D01*
Y10883461D01*
D02*
G37*
G36*
X10364800Y10947987D02*
X10345135Y10944076D01*
X10328464Y10932936D01*
X10317324Y10916265D01*
X10313413Y10896600D01*
X10317324Y10876935D01*
X10328464Y10860264D01*
X10345135Y10849124D01*
X10364800Y10845213D01*
X10384465Y10849124D01*
X10401136Y10860264D01*
X10412276Y10876935D01*
X10416187Y10896600D01*
X10412276Y10916265D01*
X10401136Y10932936D01*
X10384465Y10944076D01*
X10364800Y10947987D01*
D02*
G37*
G36*
X9017000D02*
X8997335Y10944076D01*
X8980664Y10932936D01*
X8969524Y10916265D01*
X8965613Y10896600D01*
X8969524Y10876935D01*
X8980664Y10860264D01*
X8997335Y10849124D01*
X9017000Y10845213D01*
X9036665Y10849124D01*
X9053336Y10860264D01*
X9064476Y10876935D01*
X9068387Y10896600D01*
X9064476Y10916265D01*
X9053336Y10932936D01*
X9036665Y10944076D01*
X9017000Y10947987D01*
D02*
G37*
G36*
X6786800Y10933787D02*
X6767135Y10929876D01*
X6750464Y10918736D01*
X6739325Y10902065D01*
X6735413Y10882400D01*
X6739325Y10862735D01*
X6750464Y10846064D01*
X6767135Y10834924D01*
X6786800Y10831013D01*
X6806465Y10834924D01*
X6823136Y10846064D01*
X6834276Y10862735D01*
X6838187Y10882400D01*
X6834276Y10902065D01*
X6823136Y10918736D01*
X6806465Y10929876D01*
X6786800Y10933787D01*
D02*
G37*
G36*
X10009200Y10929187D02*
X9989535Y10925276D01*
X9972864Y10914136D01*
X9961724Y10897465D01*
X9957813Y10877800D01*
X9961724Y10858135D01*
X9972864Y10841464D01*
X9989535Y10830325D01*
X10009200Y10826413D01*
X10028865Y10830325D01*
X10045536Y10841464D01*
X10056676Y10858135D01*
X10060587Y10877800D01*
X10056676Y10897465D01*
X10045536Y10914136D01*
X10028865Y10925276D01*
X10009200Y10929187D01*
D02*
G37*
G36*
X8661400D02*
X8641735Y10925276D01*
X8625064Y10914136D01*
X8613924Y10897465D01*
X8610013Y10877800D01*
X8613924Y10858135D01*
X8625064Y10841464D01*
X8641735Y10830325D01*
X8661400Y10826413D01*
X8681065Y10830325D01*
X8697736Y10841464D01*
X8708876Y10858135D01*
X8712787Y10877800D01*
X8708876Y10897465D01*
X8697736Y10914136D01*
X8681065Y10925276D01*
X8661400Y10929187D01*
D02*
G37*
G36*
X6480061Y10826500D02*
X6443900D01*
Y10790339D01*
X6450865Y10791724D01*
X6467536Y10802864D01*
X6478676Y10819535D01*
X6480061Y10826500D01*
D02*
G37*
G36*
X6418500D02*
X6382339D01*
X6383725Y10819535D01*
X6394864Y10802864D01*
X6411535Y10791724D01*
X6418500Y10790339D01*
Y10826500D01*
D02*
G37*
G36*
X8354661Y10821900D02*
X8318500D01*
Y10785739D01*
X8325465Y10787124D01*
X8342136Y10798264D01*
X8353276Y10814935D01*
X8354661Y10821900D01*
D02*
G37*
G36*
X8293100D02*
X8256939D01*
X8258324Y10814935D01*
X8269464Y10798264D01*
X8286135Y10787124D01*
X8293100Y10785739D01*
Y10821900D01*
D02*
G37*
G36*
X9702461D02*
X9666300D01*
Y10785739D01*
X9673265Y10787124D01*
X9689936Y10798264D01*
X9701076Y10814935D01*
X9702461Y10821900D01*
D02*
G37*
G36*
X9640900D02*
X9604739D01*
X9606124Y10814935D01*
X9617264Y10798264D01*
X9633935Y10787124D01*
X9640900Y10785739D01*
Y10821900D01*
D02*
G37*
G36*
X9347200Y10857587D02*
X9327535Y10853676D01*
X9310864Y10842536D01*
X9299724Y10825865D01*
X9295813Y10806200D01*
X9299724Y10786535D01*
X9310864Y10769864D01*
X9327535Y10758724D01*
X9347200Y10754813D01*
X9366865Y10758724D01*
X9383536Y10769864D01*
X9394676Y10786535D01*
X9398587Y10806200D01*
X9394676Y10825865D01*
X9383536Y10842536D01*
X9366865Y10853676D01*
X9347200Y10857587D01*
D02*
G37*
G36*
X11188700Y10782724D02*
Y10680700D01*
X11290724D01*
X11288430Y10698125D01*
X11276801Y10726198D01*
X11258304Y10750304D01*
X11234198Y10768801D01*
X11206125Y10780430D01*
X11188700Y10782724D01*
D02*
G37*
G36*
X6108700D02*
Y10680700D01*
X6210724D01*
X6208430Y10698125D01*
X6196801Y10726198D01*
X6178304Y10750304D01*
X6154198Y10768801D01*
X6126125Y10780430D01*
X6108700Y10782724D01*
D02*
G37*
G36*
X11163300D02*
X11145875Y10780430D01*
X11117802Y10768801D01*
X11093696Y10750304D01*
X11075199Y10726198D01*
X11063570Y10698125D01*
X11061276Y10680700D01*
X11163300D01*
Y10782724D01*
D02*
G37*
G36*
X6083300D02*
X6065875Y10780430D01*
X6037802Y10768801D01*
X6013696Y10750304D01*
X5995199Y10726198D01*
X5983570Y10698125D01*
X5981276Y10680700D01*
X6083300D01*
Y10782724D01*
D02*
G37*
G36*
X7142400Y10781387D02*
X7122735Y10777476D01*
X7106064Y10766336D01*
X7094925Y10749665D01*
X7091013Y10730000D01*
X7094925Y10710335D01*
X7106064Y10693664D01*
X7122735Y10682524D01*
X7142400Y10678613D01*
X7162065Y10682524D01*
X7178736Y10693664D01*
X7189876Y10710335D01*
X7193787Y10730000D01*
X7189876Y10749665D01*
X7178736Y10766336D01*
X7162065Y10777476D01*
X7142400Y10781387D01*
D02*
G37*
G36*
X9525000Y10693987D02*
X9505335Y10690076D01*
X9488664Y10678936D01*
X9477524Y10662265D01*
X9473613Y10642600D01*
X9477524Y10622935D01*
X9488664Y10606264D01*
X9505335Y10595124D01*
X9525000Y10591213D01*
X9544665Y10595124D01*
X9561336Y10606264D01*
X9572476Y10622935D01*
X9576387Y10642600D01*
X9572476Y10662265D01*
X9561336Y10678936D01*
X9544665Y10690076D01*
X9525000Y10693987D01*
D02*
G37*
G36*
X8813900Y10615261D02*
Y10579100D01*
X8850061D01*
X8848676Y10586065D01*
X8837536Y10602736D01*
X8820865Y10613876D01*
X8813900Y10615261D01*
D02*
G37*
G36*
X8788500D02*
X8781535Y10613876D01*
X8764864Y10602736D01*
X8753724Y10586065D01*
X8752339Y10579100D01*
X8788500D01*
Y10615261D01*
D02*
G37*
G36*
X7391500Y10589861D02*
Y10553700D01*
X7427661D01*
X7426276Y10560665D01*
X7415136Y10577336D01*
X7398465Y10588476D01*
X7391500Y10589861D01*
D02*
G37*
G36*
X7366100D02*
X7359135Y10588476D01*
X7342464Y10577336D01*
X7331324Y10560665D01*
X7329939Y10553700D01*
X7366100D01*
Y10589861D01*
D02*
G37*
G36*
X6210724Y10655300D02*
X6108700D01*
Y10553276D01*
X6126125Y10555570D01*
X6154198Y10567199D01*
X6178304Y10585696D01*
X6196801Y10609802D01*
X6208430Y10637875D01*
X6210724Y10655300D01*
D02*
G37*
G36*
X11290724D02*
X11188700D01*
Y10553276D01*
X11206125Y10555570D01*
X11234198Y10567199D01*
X11258304Y10585696D01*
X11276801Y10609802D01*
X11288430Y10637875D01*
X11290724Y10655300D01*
D02*
G37*
G36*
X6083300D02*
X5981276D01*
X5983570Y10637875D01*
X5995199Y10609802D01*
X6013696Y10585696D01*
X6037802Y10567199D01*
X6065875Y10555570D01*
X6083300Y10553276D01*
Y10655300D01*
D02*
G37*
G36*
X11163300D02*
X11061276D01*
X11063570Y10637875D01*
X11075199Y10609802D01*
X11093696Y10585696D01*
X11117802Y10567199D01*
X11145875Y10555570D01*
X11163300Y10553276D01*
Y10655300D01*
D02*
G37*
G36*
X10144300Y10564461D02*
Y10528300D01*
X10180461D01*
X10179076Y10535265D01*
X10167936Y10551936D01*
X10151265Y10563076D01*
X10144300Y10564461D01*
D02*
G37*
G36*
X10118900D02*
X10111935Y10563076D01*
X10095264Y10551936D01*
X10084124Y10535265D01*
X10082739Y10528300D01*
X10118900D01*
Y10564461D01*
D02*
G37*
G36*
X8850061Y10553700D02*
X8813900D01*
Y10517539D01*
X8820865Y10518924D01*
X8837536Y10530064D01*
X8848676Y10546735D01*
X8850061Y10553700D01*
D02*
G37*
G36*
X8788500D02*
X8752339D01*
X8753724Y10546735D01*
X8764864Y10530064D01*
X8781535Y10518924D01*
X8788500Y10517539D01*
Y10553700D01*
D02*
G37*
G36*
X7427661Y10528300D02*
X7391500D01*
Y10492139D01*
X7398465Y10493524D01*
X7415136Y10504664D01*
X7426276Y10521335D01*
X7427661Y10528300D01*
D02*
G37*
G36*
X7366100D02*
X7329939D01*
X7331324Y10521335D01*
X7342464Y10504664D01*
X7359135Y10493524D01*
X7366100Y10492139D01*
Y10528300D01*
D02*
G37*
G36*
X10180461Y10502900D02*
X10144300D01*
Y10466739D01*
X10151265Y10468124D01*
X10167936Y10479264D01*
X10179076Y10495935D01*
X10180461Y10502900D01*
D02*
G37*
G36*
X10118900D02*
X10082739D01*
X10084124Y10495935D01*
X10095264Y10479264D01*
X10111935Y10468124D01*
X10118900Y10466739D01*
Y10502900D01*
D02*
G37*
G36*
X9245600Y10541587D02*
X9225935Y10537676D01*
X9209264Y10526536D01*
X9198124Y10509865D01*
X9194213Y10490200D01*
X9198124Y10470535D01*
X9209264Y10453864D01*
X9225935Y10442724D01*
X9245600Y10438813D01*
X9265265Y10442724D01*
X9281936Y10453864D01*
X9293076Y10470535D01*
X9296987Y10490200D01*
X9293076Y10509865D01*
X9281936Y10526536D01*
X9265265Y10537676D01*
X9245600Y10541587D01*
D02*
G37*
G36*
X7955200D02*
X7935535Y10537676D01*
X7918864Y10526536D01*
X7907725Y10509865D01*
X7903813Y10490200D01*
X7907725Y10470535D01*
X7918864Y10453864D01*
X7935535Y10442724D01*
X7955200Y10438813D01*
X7974865Y10442724D01*
X7991536Y10453864D01*
X8002676Y10470535D01*
X8006587Y10490200D01*
X8002676Y10509865D01*
X7991536Y10526536D01*
X7974865Y10537676D01*
X7955200Y10541587D01*
D02*
G37*
G36*
X11188700Y10528724D02*
Y10426700D01*
X11290724D01*
X11288430Y10444125D01*
X11276801Y10472198D01*
X11258304Y10496304D01*
X11234198Y10514801D01*
X11206125Y10526430D01*
X11188700Y10528724D01*
D02*
G37*
G36*
X6108700D02*
Y10426700D01*
X6210724D01*
X6208430Y10444125D01*
X6196801Y10472198D01*
X6178304Y10496304D01*
X6154198Y10514801D01*
X6126125Y10526430D01*
X6108700Y10528724D01*
D02*
G37*
G36*
X11163300D02*
X11145875Y10526430D01*
X11117802Y10514801D01*
X11093696Y10496304D01*
X11075199Y10472198D01*
X11063570Y10444125D01*
X11061276Y10426700D01*
X11163300D01*
Y10528724D01*
D02*
G37*
G36*
X6083300D02*
X6065875Y10526430D01*
X6037802Y10514801D01*
X6013696Y10496304D01*
X5995199Y10472198D01*
X5983570Y10444125D01*
X5981276Y10426700D01*
X6083300D01*
Y10528724D01*
D02*
G37*
G36*
X8167700Y10372461D02*
Y10336300D01*
X8203861D01*
X8202476Y10343265D01*
X8191336Y10359936D01*
X8174665Y10371076D01*
X8167700Y10372461D01*
D02*
G37*
G36*
X8142300D02*
X8135335Y10371076D01*
X8118664Y10359936D01*
X8107524Y10343265D01*
X8106139Y10336300D01*
X8142300D01*
Y10372461D01*
D02*
G37*
G36*
X6745300Y10347061D02*
Y10310900D01*
X6781461D01*
X6780076Y10317865D01*
X6768936Y10334536D01*
X6752265Y10345676D01*
X6745300Y10347061D01*
D02*
G37*
G36*
X6719900D02*
X6712935Y10345676D01*
X6696264Y10334536D01*
X6685124Y10317865D01*
X6683739Y10310900D01*
X6719900D01*
Y10347061D01*
D02*
G37*
G36*
X11290724Y10401300D02*
X11188700D01*
Y10299276D01*
X11206125Y10301570D01*
X11234198Y10313199D01*
X11258304Y10331696D01*
X11276801Y10355802D01*
X11288430Y10383875D01*
X11290724Y10401300D01*
D02*
G37*
G36*
X6210724D02*
X6108700D01*
Y10299276D01*
X6126125Y10301570D01*
X6154198Y10313199D01*
X6178304Y10331696D01*
X6196801Y10355802D01*
X6208430Y10383875D01*
X6210724Y10401300D01*
D02*
G37*
G36*
X6083300D02*
X5981276D01*
X5983570Y10383875D01*
X5995199Y10355802D01*
X6013696Y10331696D01*
X6037802Y10313199D01*
X6065875Y10301570D01*
X6083300Y10299276D01*
Y10401300D01*
D02*
G37*
G36*
X11163300D02*
X11061276D01*
X11063570Y10383875D01*
X11075199Y10355802D01*
X11093696Y10331696D01*
X11117802Y10313199D01*
X11145875Y10301570D01*
X11163300Y10299276D01*
Y10401300D01*
D02*
G37*
G36*
X9498100Y10332861D02*
Y10296700D01*
X9534261D01*
X9532876Y10303665D01*
X9521736Y10320336D01*
X9505065Y10331475D01*
X9498100Y10332861D01*
D02*
G37*
G36*
X9472700D02*
X9465735Y10331475D01*
X9449064Y10320336D01*
X9437924Y10303665D01*
X9436539Y10296700D01*
X9472700D01*
Y10332861D01*
D02*
G37*
G36*
X8203861Y10310900D02*
X8167700D01*
Y10274739D01*
X8174665Y10276124D01*
X8191336Y10287264D01*
X8202476Y10303935D01*
X8203861Y10310900D01*
D02*
G37*
G36*
X8142300D02*
X8106139D01*
X8107524Y10303935D01*
X8118664Y10287264D01*
X8135335Y10276124D01*
X8142300Y10274739D01*
Y10310900D01*
D02*
G37*
G36*
X6781461Y10285500D02*
X6745300D01*
Y10249339D01*
X6752265Y10250724D01*
X6768936Y10261864D01*
X6780076Y10278535D01*
X6781461Y10285500D01*
D02*
G37*
G36*
X6719900D02*
X6683739D01*
X6685124Y10278535D01*
X6696264Y10261864D01*
X6712935Y10250724D01*
X6719900Y10249339D01*
Y10285500D01*
D02*
G37*
G36*
X9534261Y10271300D02*
X9498100D01*
Y10235139D01*
X9505065Y10236524D01*
X9521736Y10247664D01*
X9532876Y10264335D01*
X9534261Y10271300D01*
D02*
G37*
G36*
X9472700D02*
X9436539D01*
X9437924Y10264335D01*
X9449064Y10247664D01*
X9465735Y10236524D01*
X9472700Y10235139D01*
Y10271300D01*
D02*
G37*
G36*
X6431200Y10327187D02*
X6411535Y10323276D01*
X6394864Y10312136D01*
X6383725Y10295465D01*
X6379813Y10275800D01*
X6383725Y10256135D01*
X6394864Y10239464D01*
X6411535Y10228324D01*
X6431200Y10224413D01*
X6450865Y10228324D01*
X6467536Y10239464D01*
X6478676Y10256135D01*
X6482587Y10275800D01*
X6478676Y10295465D01*
X6467536Y10312136D01*
X6450865Y10323276D01*
X6431200Y10327187D01*
D02*
G37*
G36*
X10655300Y10259661D02*
Y10223500D01*
X10691461D01*
X10690076Y10230465D01*
X10678936Y10247136D01*
X10662265Y10258276D01*
X10655300Y10259661D01*
D02*
G37*
G36*
X10629900D02*
X10622935Y10258276D01*
X10606264Y10247136D01*
X10595124Y10230465D01*
X10593739Y10223500D01*
X10629900D01*
Y10259661D01*
D02*
G37*
G36*
X9164400Y10287587D02*
X9144735Y10283676D01*
X9128064Y10272536D01*
X9116924Y10255865D01*
X9113013Y10236200D01*
X9116924Y10216535D01*
X9128064Y10199864D01*
X9144735Y10188724D01*
X9164400Y10184813D01*
X9184065Y10188724D01*
X9200736Y10199864D01*
X9211875Y10216535D01*
X9215787Y10236200D01*
X9211875Y10255865D01*
X9200736Y10272536D01*
X9184065Y10283676D01*
X9164400Y10287587D01*
D02*
G37*
G36*
X10691461Y10198100D02*
X10655300D01*
Y10161939D01*
X10662265Y10163324D01*
X10678936Y10174464D01*
X10690076Y10191135D01*
X10691461Y10198100D01*
D02*
G37*
G36*
X10629900D02*
X10593739D01*
X10595124Y10191135D01*
X10606264Y10174464D01*
X10622935Y10163324D01*
X10629900Y10161939D01*
Y10198100D01*
D02*
G37*
G36*
X7742000Y10262187D02*
X7722335Y10258276D01*
X7705664Y10247136D01*
X7694524Y10230465D01*
X7690613Y10210800D01*
X7694524Y10191135D01*
X7705664Y10174464D01*
X7722335Y10163324D01*
X7742000Y10159413D01*
X7761665Y10163324D01*
X7778336Y10174464D01*
X7789475Y10191135D01*
X7793387Y10210800D01*
X7789475Y10230465D01*
X7778336Y10247136D01*
X7761665Y10258276D01*
X7742000Y10262187D01*
D02*
G37*
G36*
X10920800Y10185987D02*
X10901135Y10182076D01*
X10884464Y10170936D01*
X10873324Y10154265D01*
X10869413Y10134600D01*
X10873324Y10114935D01*
X10884464Y10098264D01*
X10901135Y10087124D01*
X10920800Y10083213D01*
X10940465Y10087124D01*
X10957136Y10098264D01*
X10968276Y10114935D01*
X10972187Y10134600D01*
X10968276Y10154265D01*
X10957136Y10170936D01*
X10940465Y10182076D01*
X10920800Y10185987D01*
D02*
G37*
G36*
X11176000Y10276395D02*
X11145875Y10272430D01*
X11117802Y10260801D01*
X11093696Y10242304D01*
X11075199Y10218198D01*
X11063570Y10190125D01*
X11059604Y10160000D01*
X11063570Y10129875D01*
X11075199Y10101802D01*
X11093696Y10077696D01*
X11117802Y10059199D01*
X11145875Y10047570D01*
X11176000Y10043604D01*
X11206125Y10047570D01*
X11234198Y10059199D01*
X11258304Y10077696D01*
X11276801Y10101802D01*
X11288430Y10129875D01*
X11292396Y10160000D01*
X11288430Y10190125D01*
X11276801Y10218198D01*
X11258304Y10242304D01*
X11234198Y10260801D01*
X11206125Y10272430D01*
X11176000Y10276395D01*
D02*
G37*
G36*
X6096000D02*
X6065875Y10272430D01*
X6037802Y10260801D01*
X6013696Y10242304D01*
X5995199Y10218198D01*
X5983570Y10190125D01*
X5979604Y10160000D01*
X5983570Y10129875D01*
X5995199Y10101802D01*
X6013696Y10077696D01*
X6037802Y10059199D01*
X6065875Y10047570D01*
X6096000Y10043604D01*
X6126125Y10047570D01*
X6154198Y10059199D01*
X6178304Y10077696D01*
X6196801Y10101802D01*
X6208430Y10129875D01*
X6212395Y10160000D01*
X6208430Y10190125D01*
X6196801Y10218198D01*
X6178304Y10242304D01*
X6154198Y10260801D01*
X6126125Y10272430D01*
X6096000Y10276395D01*
D02*
G37*
G36*
X8536000Y10141787D02*
X8516335Y10137876D01*
X8499664Y10126736D01*
X8488524Y10110065D01*
X8484613Y10090400D01*
X8488524Y10070735D01*
X8499664Y10054064D01*
X8516335Y10042925D01*
X8536000Y10039013D01*
X8555665Y10042925D01*
X8572336Y10054064D01*
X8583476Y10070735D01*
X8587387Y10090400D01*
X8583476Y10110065D01*
X8572336Y10126736D01*
X8555665Y10137876D01*
X8536000Y10141787D01*
D02*
G37*
G36*
X7113600Y10116387D02*
X7093935Y10112476D01*
X7077264Y10101336D01*
X7066124Y10084665D01*
X7062213Y10065000D01*
X7066124Y10045335D01*
X7077264Y10028664D01*
X7093935Y10017525D01*
X7113600Y10013613D01*
X7133265Y10017525D01*
X7149936Y10028664D01*
X7161076Y10045335D01*
X7164987Y10065000D01*
X7161076Y10084665D01*
X7149936Y10101336D01*
X7133265Y10112476D01*
X7113600Y10116387D01*
D02*
G37*
G36*
X9866400Y10102187D02*
X9846735Y10098276D01*
X9830064Y10087136D01*
X9818924Y10070465D01*
X9815013Y10050800D01*
X9818924Y10031135D01*
X9830064Y10014464D01*
X9846735Y10003324D01*
X9866400Y9999413D01*
X9886065Y10003324D01*
X9902736Y10014464D01*
X9913876Y10031135D01*
X9917787Y10050800D01*
X9913876Y10070465D01*
X9902736Y10087136D01*
X9886065Y10098276D01*
X9866400Y10102187D01*
D02*
G37*
G36*
X10196600Y10084387D02*
X10176935Y10080476D01*
X10160264Y10069336D01*
X10149124Y10052665D01*
X10145213Y10033000D01*
X10149124Y10013335D01*
X10160264Y9996664D01*
X10176935Y9985524D01*
X10196600Y9981613D01*
X10216265Y9985524D01*
X10232936Y9996664D01*
X10244076Y10013335D01*
X10247987Y10033000D01*
X10244076Y10052665D01*
X10232936Y10069336D01*
X10216265Y10080476D01*
X10196600Y10084387D01*
D02*
G37*
G36*
X10047300Y10005661D02*
Y9969500D01*
X10083461D01*
X10082075Y9976465D01*
X10070936Y9993136D01*
X10054265Y10004276D01*
X10047300Y10005661D01*
D02*
G37*
G36*
X10021900D02*
X10014935Y10004276D01*
X9998263Y9993136D01*
X9987124Y9976465D01*
X9985739Y9969500D01*
X10021900D01*
Y10005661D01*
D02*
G37*
G36*
X10083461Y9944100D02*
X10047300D01*
Y9907939D01*
X10054265Y9909324D01*
X10070936Y9920464D01*
X10082075Y9937135D01*
X10083461Y9944100D01*
D02*
G37*
G36*
X10021900D02*
X9985739D01*
X9987124Y9937135D01*
X9998263Y9920464D01*
X10014935Y9909324D01*
X10021900Y9907939D01*
Y9944100D01*
D02*
G37*
G36*
X11176000Y10022395D02*
X11145875Y10018430D01*
X11117802Y10006801D01*
X11093696Y9988304D01*
X11075199Y9964198D01*
X11063570Y9936125D01*
X11059604Y9906000D01*
X11063570Y9875875D01*
X11075199Y9847802D01*
X11093696Y9823696D01*
X11117802Y9805199D01*
X11145875Y9793570D01*
X11176000Y9789605D01*
X11206125Y9793570D01*
X11234198Y9805199D01*
X11258304Y9823696D01*
X11276801Y9847802D01*
X11288430Y9875875D01*
X11292396Y9906000D01*
X11288430Y9936125D01*
X11276801Y9964198D01*
X11258304Y9988304D01*
X11234198Y10006801D01*
X11206125Y10018430D01*
X11176000Y10022395D01*
D02*
G37*
G36*
X6096000D02*
X6065875Y10018430D01*
X6037802Y10006801D01*
X6013696Y9988304D01*
X5995199Y9964198D01*
X5983570Y9936125D01*
X5979604Y9906000D01*
X5983570Y9875875D01*
X5995199Y9847802D01*
X6013696Y9823696D01*
X6037802Y9805199D01*
X6065875Y9793570D01*
X6096000Y9789605D01*
X6126125Y9793570D01*
X6154198Y9805199D01*
X6178304Y9823696D01*
X6196801Y9847802D01*
X6208430Y9875875D01*
X6212395Y9906000D01*
X6208430Y9936125D01*
X6196801Y9964198D01*
X6178304Y9988304D01*
X6154198Y10006801D01*
X6126125Y10018430D01*
X6096000Y10022395D01*
D02*
G37*
G36*
X8254700Y9926987D02*
X8235035Y9923076D01*
X8218364Y9911936D01*
X8207224Y9895265D01*
X8203313Y9875600D01*
X8207224Y9855935D01*
X8218364Y9839264D01*
X8235035Y9828124D01*
X8254700Y9824213D01*
X8256683Y9824607D01*
X8267484Y9813807D01*
X8265613Y9804400D01*
X8269524Y9784735D01*
X8280664Y9768064D01*
X8297335Y9756924D01*
X8317000Y9753013D01*
X8336665Y9756924D01*
X8353336Y9768064D01*
X8364476Y9784735D01*
X8368387Y9804400D01*
X8364476Y9824065D01*
X8353336Y9840736D01*
X8336665Y9851876D01*
X8317000Y9855787D01*
X8315016Y9855393D01*
X8304216Y9866193D01*
X8306087Y9875600D01*
X8302175Y9895265D01*
X8291036Y9911936D01*
X8274365Y9923076D01*
X8254700Y9926987D01*
D02*
G37*
G36*
X8891600Y9836987D02*
X8871935Y9833076D01*
X8855264Y9821936D01*
X8844124Y9805265D01*
X8840213Y9785600D01*
X8844124Y9765935D01*
X8855264Y9749264D01*
X8871935Y9738125D01*
X8891600Y9734213D01*
X8911265Y9738125D01*
X8927936Y9749264D01*
X8939076Y9765935D01*
X8942987Y9785600D01*
X8939076Y9805265D01*
X8927936Y9821936D01*
X8911265Y9833076D01*
X8891600Y9836987D01*
D02*
G37*
G36*
X7469200Y9811587D02*
X7449535Y9807676D01*
X7432864Y9796536D01*
X7421724Y9779865D01*
X7417813Y9760200D01*
X7421724Y9740535D01*
X7432864Y9723864D01*
X7449535Y9712725D01*
X7469200Y9708813D01*
X7488865Y9712725D01*
X7505536Y9723864D01*
X7516676Y9740535D01*
X7520587Y9760200D01*
X7516676Y9779865D01*
X7505536Y9796536D01*
X7488865Y9807676D01*
X7469200Y9811587D01*
D02*
G37*
G36*
X6633000Y9698687D02*
X6613335Y9694776D01*
X6596663Y9683636D01*
X6585524Y9666965D01*
X6581612Y9647300D01*
X6585524Y9627635D01*
X6596663Y9610964D01*
X6613335Y9599825D01*
X6633000Y9595913D01*
X6652665Y9599825D01*
X6669336Y9610964D01*
X6680475Y9627635D01*
X6684387Y9647300D01*
X6680475Y9666965D01*
X6669336Y9683636D01*
X6652665Y9694776D01*
X6633000Y9698687D01*
D02*
G37*
G36*
X6468200Y9641387D02*
X6448535Y9637476D01*
X6431863Y9626336D01*
X6420724Y9609665D01*
X6416812Y9590000D01*
X6420724Y9570335D01*
X6431863Y9553664D01*
X6448535Y9542524D01*
X6468200Y9538613D01*
X6487865Y9542524D01*
X6504536Y9553664D01*
X6515675Y9570335D01*
X6519587Y9590000D01*
X6515675Y9609665D01*
X6504536Y9626336D01*
X6487865Y9637476D01*
X6468200Y9641387D01*
D02*
G37*
G36*
X11176000Y9768395D02*
X11145875Y9764430D01*
X11117802Y9752801D01*
X11093696Y9734304D01*
X11075199Y9710198D01*
X11063570Y9682125D01*
X11059604Y9652000D01*
X11063570Y9621875D01*
X11075199Y9593802D01*
X11093696Y9569696D01*
X11117802Y9551199D01*
X11145875Y9539570D01*
X11176000Y9535604D01*
X11206125Y9539570D01*
X11234198Y9551199D01*
X11258304Y9569696D01*
X11276801Y9593802D01*
X11288430Y9621875D01*
X11292396Y9652000D01*
X11288430Y9682125D01*
X11276801Y9710198D01*
X11258304Y9734304D01*
X11234198Y9752801D01*
X11206125Y9764430D01*
X11176000Y9768395D01*
D02*
G37*
G36*
X6096000D02*
X6065875Y9764430D01*
X6037802Y9752801D01*
X6013696Y9734304D01*
X5995199Y9710198D01*
X5983570Y9682125D01*
X5979604Y9652000D01*
X5983570Y9621875D01*
X5995199Y9593802D01*
X6013696Y9569696D01*
X6037802Y9551199D01*
X6065875Y9539570D01*
X6096000Y9535604D01*
X6126125Y9539570D01*
X6154198Y9551199D01*
X6178304Y9569696D01*
X6196801Y9593802D01*
X6208430Y9621875D01*
X6212395Y9652000D01*
X6208430Y9682125D01*
X6196801Y9710198D01*
X6178304Y9734304D01*
X6154198Y9752801D01*
X6126125Y9764430D01*
X6096000Y9768395D01*
D02*
G37*
G36*
X9448800Y9627187D02*
X9429135Y9623276D01*
X9412464Y9612136D01*
X9401324Y9595465D01*
X9397413Y9575800D01*
X9401324Y9556135D01*
X9412464Y9539464D01*
X9429135Y9528324D01*
X9448800Y9524413D01*
X9468465Y9528324D01*
X9485136Y9539464D01*
X9496276Y9556135D01*
X9500187Y9575800D01*
X9496276Y9595465D01*
X9485136Y9612136D01*
X9468465Y9623276D01*
X9448800Y9627187D01*
D02*
G37*
G36*
X8193100Y9410261D02*
Y9374100D01*
X8229261D01*
X8227876Y9381065D01*
X8216736Y9397736D01*
X8200065Y9408876D01*
X8193100Y9410261D01*
D02*
G37*
G36*
X8167700D02*
X8160735Y9408876D01*
X8144064Y9397736D01*
X8132924Y9381065D01*
X8131539Y9374100D01*
X8167700D01*
Y9410261D01*
D02*
G37*
G36*
X8891600Y9474787D02*
X8871935Y9470876D01*
X8855264Y9459736D01*
X8844124Y9443065D01*
X8840213Y9423400D01*
X8844124Y9403735D01*
X8855264Y9387064D01*
X8871935Y9375924D01*
X8891600Y9372013D01*
X8911265Y9375924D01*
X8927936Y9387064D01*
X8939076Y9403735D01*
X8942987Y9423400D01*
X8939076Y9443065D01*
X8927936Y9459736D01*
X8911265Y9470876D01*
X8891600Y9474787D01*
D02*
G37*
G36*
X8536000Y9455987D02*
X8516335Y9452076D01*
X8499664Y9440936D01*
X8488524Y9424265D01*
X8484613Y9404600D01*
X8488524Y9384935D01*
X8499664Y9368264D01*
X8516335Y9357125D01*
X8536000Y9353213D01*
X8555665Y9357125D01*
X8572336Y9368264D01*
X8583476Y9384935D01*
X8587387Y9404600D01*
X8583476Y9424265D01*
X8572336Y9440936D01*
X8555665Y9452076D01*
X8536000Y9455987D01*
D02*
G37*
G36*
X6770700Y9384861D02*
Y9348700D01*
X6806861D01*
X6805476Y9355665D01*
X6794336Y9372336D01*
X6777665Y9383476D01*
X6770700Y9384861D01*
D02*
G37*
G36*
X6745300D02*
X6738335Y9383476D01*
X6721664Y9372336D01*
X6710524Y9355665D01*
X6709139Y9348700D01*
X6745300D01*
Y9384861D01*
D02*
G37*
G36*
X7469200Y9449387D02*
X7449535Y9445476D01*
X7432864Y9434336D01*
X7421724Y9417665D01*
X7417813Y9398000D01*
X7421724Y9378335D01*
X7432864Y9361664D01*
X7449535Y9350524D01*
X7469200Y9346613D01*
X7488865Y9350524D01*
X7505536Y9361664D01*
X7516676Y9378335D01*
X7520587Y9398000D01*
X7516676Y9417665D01*
X7505536Y9434336D01*
X7488865Y9445476D01*
X7469200Y9449387D01*
D02*
G37*
G36*
X7113600Y9430587D02*
X7093935Y9426676D01*
X7077264Y9415536D01*
X7066124Y9398865D01*
X7062213Y9379200D01*
X7066124Y9359535D01*
X7077264Y9342864D01*
X7093935Y9331725D01*
X7113600Y9327813D01*
X7133265Y9331725D01*
X7149936Y9342864D01*
X7161076Y9359535D01*
X7164987Y9379200D01*
X7161076Y9398865D01*
X7149936Y9415536D01*
X7133265Y9426676D01*
X7113600Y9430587D01*
D02*
G37*
G36*
X9498100Y9359461D02*
Y9323300D01*
X9534261D01*
X9532876Y9330265D01*
X9521736Y9346936D01*
X9505065Y9358076D01*
X9498100Y9359461D01*
D02*
G37*
G36*
X9472700D02*
X9465735Y9358076D01*
X9449064Y9346936D01*
X9437924Y9330265D01*
X9436539Y9323300D01*
X9472700D01*
Y9359461D01*
D02*
G37*
G36*
X8229261Y9348700D02*
X8193100D01*
Y9312539D01*
X8200065Y9313924D01*
X8216736Y9325064D01*
X8227876Y9341735D01*
X8229261Y9348700D01*
D02*
G37*
G36*
X8167700D02*
X8131539D01*
X8132924Y9341735D01*
X8144064Y9325064D01*
X8160735Y9313924D01*
X8167700Y9312539D01*
Y9348700D01*
D02*
G37*
G36*
X9866400Y9405187D02*
X9846735Y9401276D01*
X9830064Y9390136D01*
X9818924Y9373465D01*
X9815013Y9353800D01*
X9818924Y9334135D01*
X9830064Y9317464D01*
X9846735Y9306325D01*
X9866400Y9302413D01*
X9886065Y9306325D01*
X9902736Y9317464D01*
X9913876Y9334135D01*
X9917787Y9353800D01*
X9913876Y9373465D01*
X9902736Y9390136D01*
X9886065Y9401276D01*
X9866400Y9405187D01*
D02*
G37*
G36*
X6806861Y9323300D02*
X6770700D01*
Y9287139D01*
X6777665Y9288524D01*
X6794336Y9299664D01*
X6805476Y9316335D01*
X6806861Y9323300D01*
D02*
G37*
G36*
X6745300D02*
X6709139D01*
X6710524Y9316335D01*
X6721664Y9299664D01*
X6738335Y9288524D01*
X6745300Y9287139D01*
Y9323300D01*
D02*
G37*
G36*
X11176000Y9514395D02*
X11145875Y9510430D01*
X11117802Y9498801D01*
X11093696Y9480304D01*
X11075199Y9456198D01*
X11063570Y9428125D01*
X11059604Y9398000D01*
X11063570Y9367875D01*
X11075199Y9339802D01*
X11093696Y9315696D01*
X11117802Y9297199D01*
X11145875Y9285570D01*
X11176000Y9281604D01*
X11206125Y9285570D01*
X11234198Y9297199D01*
X11258304Y9315696D01*
X11276801Y9339802D01*
X11288430Y9367875D01*
X11292396Y9398000D01*
X11288430Y9428125D01*
X11276801Y9456198D01*
X11258304Y9480304D01*
X11234198Y9498801D01*
X11206125Y9510430D01*
X11176000Y9514395D01*
D02*
G37*
G36*
X6096000D02*
X6065875Y9510430D01*
X6037802Y9498801D01*
X6013696Y9480304D01*
X5995199Y9456198D01*
X5983570Y9428125D01*
X5979604Y9398000D01*
X5983570Y9367875D01*
X5995199Y9339802D01*
X6013696Y9315696D01*
X6037802Y9297199D01*
X6065875Y9285570D01*
X6096000Y9281604D01*
X6126125Y9285570D01*
X6154198Y9297199D01*
X6178304Y9315696D01*
X6196801Y9339802D01*
X6208430Y9367875D01*
X6212395Y9398000D01*
X6208430Y9428125D01*
X6196801Y9456198D01*
X6178304Y9480304D01*
X6154198Y9498801D01*
X6126125Y9510430D01*
X6096000Y9514395D01*
D02*
G37*
G36*
X9534261Y9297900D02*
X9498100D01*
Y9261739D01*
X9505065Y9263124D01*
X9521736Y9274264D01*
X9532876Y9290935D01*
X9534261Y9297900D01*
D02*
G37*
G36*
X9472700D02*
X9436539D01*
X9437924Y9290935D01*
X9449064Y9274264D01*
X9465735Y9263124D01*
X9472700Y9261739D01*
Y9297900D01*
D02*
G37*
G36*
X6553200Y9340987D02*
X6533535Y9337076D01*
X6516864Y9325936D01*
X6505724Y9309265D01*
X6501813Y9289600D01*
X6505724Y9269935D01*
X6516864Y9253264D01*
X6533535Y9242125D01*
X6553200Y9238213D01*
X6572865Y9242125D01*
X6589536Y9253264D01*
X6600676Y9269935D01*
X6604587Y9289600D01*
X6600676Y9309265D01*
X6589536Y9325936D01*
X6572865Y9337076D01*
X6553200Y9340987D01*
D02*
G37*
G36*
X8813900Y9192861D02*
Y9156700D01*
X8850061D01*
X8848675Y9163665D01*
X8837536Y9180336D01*
X8820865Y9191476D01*
X8813900Y9192861D01*
D02*
G37*
G36*
X8788500D02*
X8781535Y9191476D01*
X8764864Y9180336D01*
X8753724Y9163665D01*
X8752339Y9156700D01*
X8788500D01*
Y9192861D01*
D02*
G37*
G36*
X10222000Y9252787D02*
X10202335Y9248876D01*
X10185664Y9237736D01*
X10174524Y9221065D01*
X10170613Y9201400D01*
X10174524Y9181735D01*
X10185664Y9165064D01*
X10202335Y9153925D01*
X10222000Y9150013D01*
X10241665Y9153925D01*
X10258336Y9165064D01*
X10269476Y9181735D01*
X10273387Y9201400D01*
X10269476Y9221065D01*
X10258336Y9237736D01*
X10241665Y9248876D01*
X10222000Y9252787D01*
D02*
G37*
G36*
X10591400Y9246187D02*
X10571735Y9242276D01*
X10555064Y9231136D01*
X10543925Y9214465D01*
X10540013Y9194800D01*
X10543925Y9175135D01*
X10555064Y9158464D01*
X10571735Y9147324D01*
X10591400Y9143413D01*
X10611065Y9147324D01*
X10627736Y9158464D01*
X10638876Y9175135D01*
X10642787Y9194800D01*
X10638876Y9214465D01*
X10627736Y9231136D01*
X10611065Y9242276D01*
X10591400Y9246187D01*
D02*
G37*
G36*
X7391500Y9167461D02*
Y9131300D01*
X7427661D01*
X7426275Y9138265D01*
X7415136Y9154936D01*
X7398465Y9166076D01*
X7391500Y9167461D01*
D02*
G37*
G36*
X7366100D02*
X7359135Y9166076D01*
X7342464Y9154936D01*
X7331324Y9138265D01*
X7329939Y9131300D01*
X7366100D01*
Y9167461D01*
D02*
G37*
G36*
X8850061Y9131300D02*
X8813900D01*
Y9095139D01*
X8820865Y9096524D01*
X8837536Y9107664D01*
X8848675Y9124335D01*
X8850061Y9131300D01*
D02*
G37*
G36*
X8788500D02*
X8752339D01*
X8753724Y9124335D01*
X8764864Y9107664D01*
X8781535Y9096524D01*
X8788500Y9095139D01*
Y9131300D01*
D02*
G37*
G36*
X7427661Y9105900D02*
X7391500D01*
Y9069739D01*
X7398465Y9071124D01*
X7415136Y9082264D01*
X7426275Y9098935D01*
X7427661Y9105900D01*
D02*
G37*
G36*
X7366100D02*
X7329939D01*
X7331324Y9098935D01*
X7342464Y9082264D01*
X7359135Y9071124D01*
X7366100Y9069739D01*
Y9105900D01*
D02*
G37*
G36*
X8610600Y9169987D02*
X8590935Y9166076D01*
X8574264Y9154936D01*
X8563124Y9138265D01*
X8559213Y9118600D01*
X8563124Y9098935D01*
X8574264Y9082264D01*
X8590935Y9071124D01*
X8610600Y9067213D01*
X8630265Y9071124D01*
X8646936Y9082264D01*
X8658076Y9098935D01*
X8661987Y9118600D01*
X8658076Y9138265D01*
X8646936Y9154936D01*
X8630265Y9166076D01*
X8610600Y9169987D01*
D02*
G37*
G36*
X10373200Y9086661D02*
Y9050500D01*
X10409361D01*
X10407976Y9057465D01*
X10396836Y9074136D01*
X10380165Y9085276D01*
X10373200Y9086661D01*
D02*
G37*
G36*
X10347800D02*
X10340835Y9085276D01*
X10324164Y9074136D01*
X10313024Y9057465D01*
X10311639Y9050500D01*
X10347800D01*
Y9086661D01*
D02*
G37*
G36*
X11176000Y9260395D02*
X11145875Y9256430D01*
X11117802Y9244801D01*
X11093696Y9226304D01*
X11075199Y9202198D01*
X11063570Y9174125D01*
X11059604Y9144000D01*
X11063570Y9113875D01*
X11075199Y9085802D01*
X11093696Y9061696D01*
X11117802Y9043199D01*
X11145875Y9031570D01*
X11176000Y9027604D01*
X11206125Y9031570D01*
X11234198Y9043199D01*
X11258304Y9061696D01*
X11276801Y9085802D01*
X11288430Y9113875D01*
X11292396Y9144000D01*
X11288430Y9174125D01*
X11276801Y9202198D01*
X11258304Y9226304D01*
X11234198Y9244801D01*
X11206125Y9256430D01*
X11176000Y9260395D01*
D02*
G37*
G36*
X6096000D02*
X6065875Y9256430D01*
X6037802Y9244801D01*
X6013696Y9226304D01*
X5995199Y9202198D01*
X5983570Y9174125D01*
X5979604Y9144000D01*
X5983570Y9113875D01*
X5995199Y9085802D01*
X6013696Y9061696D01*
X6037802Y9043199D01*
X6065875Y9031570D01*
X6096000Y9027604D01*
X6126125Y9031570D01*
X6154198Y9043199D01*
X6178304Y9061696D01*
X6196801Y9085802D01*
X6208430Y9113875D01*
X6212395Y9144000D01*
X6208430Y9174125D01*
X6196801Y9202198D01*
X6178304Y9226304D01*
X6154198Y9244801D01*
X6126125Y9256430D01*
X6096000Y9260395D01*
D02*
G37*
G36*
X10409361Y9025100D02*
X10373200D01*
Y8988939D01*
X10380165Y8990324D01*
X10396836Y9001464D01*
X10407976Y9018135D01*
X10409361Y9025100D01*
D02*
G37*
G36*
X10347800D02*
X10311639D01*
X10313024Y9018135D01*
X10324164Y9001464D01*
X10340835Y8990324D01*
X10347800Y8988939D01*
Y9025100D01*
D02*
G37*
G36*
X8610600Y9042987D02*
X8590935Y9039076D01*
X8574264Y9027936D01*
X8563124Y9011265D01*
X8559213Y8991600D01*
X8563124Y8971935D01*
X8574264Y8955264D01*
X8590935Y8944124D01*
X8610600Y8940213D01*
X8630265Y8944124D01*
X8646936Y8955264D01*
X8658076Y8971935D01*
X8661987Y8991600D01*
X8658076Y9011265D01*
X8646936Y9027936D01*
X8630265Y9039076D01*
X8610600Y9042987D01*
D02*
G37*
G36*
X9131300Y8972261D02*
Y8936100D01*
X9167461D01*
X9166076Y8943065D01*
X9154936Y8959736D01*
X9138265Y8970875D01*
X9131300Y8972261D01*
D02*
G37*
G36*
X9105900D02*
X9098935Y8970875D01*
X9082264Y8959736D01*
X9071124Y8943065D01*
X9069739Y8936100D01*
X9105900D01*
Y8972261D01*
D02*
G37*
G36*
X8001000Y9017587D02*
X7981335Y9013676D01*
X7964664Y9002536D01*
X7953524Y8985865D01*
X7949613Y8966200D01*
X7953524Y8946535D01*
X7964664Y8929864D01*
X7981335Y8918724D01*
X8001000Y8914813D01*
X8020665Y8918724D01*
X8037336Y8929864D01*
X8048476Y8946535D01*
X8052387Y8966200D01*
X8048476Y8985865D01*
X8037336Y9002536D01*
X8020665Y9013676D01*
X8001000Y9017587D01*
D02*
G37*
G36*
X7844400Y8992187D02*
X7824735Y8988276D01*
X7808063Y8977136D01*
X7796924Y8960465D01*
X7793012Y8940800D01*
X7796924Y8921135D01*
X7808063Y8904464D01*
X7824735Y8893324D01*
X7844400Y8889413D01*
X7864065Y8893324D01*
X7880736Y8904464D01*
X7891875Y8921135D01*
X7895787Y8940800D01*
X7891875Y8960465D01*
X7880736Y8977136D01*
X7864065Y8988276D01*
X7844400Y8992187D01*
D02*
G37*
G36*
X9167461Y8910700D02*
X9131300D01*
Y8874539D01*
X9138265Y8875924D01*
X9154936Y8887064D01*
X9166076Y8903735D01*
X9167461Y8910700D01*
D02*
G37*
G36*
X9105900D02*
X9069739D01*
X9071124Y8903735D01*
X9082264Y8887064D01*
X9098935Y8875924D01*
X9105900Y8874539D01*
Y8910700D01*
D02*
G37*
G36*
X10896600Y8974787D02*
X10876935Y8970875D01*
X10860264Y8959736D01*
X10849124Y8943065D01*
X10845213Y8923400D01*
X10849124Y8903735D01*
X10860264Y8887064D01*
X10876935Y8875924D01*
X10896600Y8872012D01*
X10916265Y8875924D01*
X10932936Y8887064D01*
X10944076Y8903735D01*
X10947987Y8923400D01*
X10944076Y8943065D01*
X10932936Y8959736D01*
X10916265Y8970875D01*
X10896600Y8974787D01*
D02*
G37*
G36*
X8039100Y8892161D02*
Y8856000D01*
X8075261D01*
X8073876Y8862965D01*
X8062736Y8879636D01*
X8046065Y8890775D01*
X8039100Y8892161D01*
D02*
G37*
G36*
X8013700D02*
X8006735Y8890775D01*
X7990064Y8879636D01*
X7978924Y8862965D01*
X7977539Y8856000D01*
X8013700D01*
Y8892161D01*
D02*
G37*
G36*
X6365100Y8888061D02*
Y8851900D01*
X6401261D01*
X6399875Y8858865D01*
X6388736Y8875536D01*
X6372065Y8886675D01*
X6365100Y8888061D01*
D02*
G37*
G36*
X6339700D02*
X6332735Y8886675D01*
X6316064Y8875536D01*
X6304924Y8858865D01*
X6303539Y8851900D01*
X6339700D01*
Y8888061D01*
D02*
G37*
G36*
X9409500Y8873861D02*
Y8837700D01*
X9445661D01*
X9444276Y8844665D01*
X9433136Y8861336D01*
X9416465Y8872476D01*
X9409500Y8873861D01*
D02*
G37*
G36*
X9384100D02*
X9377135Y8872476D01*
X9360464Y8861336D01*
X9349324Y8844665D01*
X9347939Y8837700D01*
X9384100D01*
Y8873861D01*
D02*
G37*
G36*
X8075261Y8830600D02*
X8039100D01*
Y8794439D01*
X8046065Y8795824D01*
X8062736Y8806964D01*
X8073876Y8823635D01*
X8075261Y8830600D01*
D02*
G37*
G36*
X8013700D02*
X7977539D01*
X7978924Y8823635D01*
X7990064Y8806964D01*
X8006735Y8795824D01*
X8013700Y8794439D01*
Y8830600D01*
D02*
G37*
G36*
X6401261Y8826500D02*
X6365100D01*
Y8790339D01*
X6372065Y8791724D01*
X6388736Y8802864D01*
X6399875Y8819535D01*
X6401261Y8826500D01*
D02*
G37*
G36*
X6339700D02*
X6303539D01*
X6304924Y8819535D01*
X6316064Y8802864D01*
X6332735Y8791724D01*
X6339700Y8790339D01*
Y8826500D01*
D02*
G37*
G36*
X9445661Y8812300D02*
X9409500D01*
Y8776139D01*
X9416465Y8777524D01*
X9433136Y8788664D01*
X9444276Y8805335D01*
X9445661Y8812300D01*
D02*
G37*
G36*
X9384100D02*
X9347939D01*
X9349324Y8805335D01*
X9360464Y8788664D01*
X9377135Y8777524D01*
X9384100Y8776139D01*
Y8812300D01*
D02*
G37*
G36*
X11176000Y9006395D02*
X11145875Y9002430D01*
X11117802Y8990801D01*
X11093696Y8972304D01*
X11075199Y8948198D01*
X11063570Y8920125D01*
X11059604Y8890000D01*
X11063570Y8859875D01*
X11075199Y8831802D01*
X11093696Y8807696D01*
X11117802Y8789199D01*
X11145875Y8777570D01*
X11176000Y8773604D01*
X11206125Y8777570D01*
X11234198Y8789199D01*
X11258304Y8807696D01*
X11276801Y8831802D01*
X11288430Y8859875D01*
X11292396Y8890000D01*
X11288430Y8920125D01*
X11276801Y8948198D01*
X11258304Y8972304D01*
X11234198Y8990801D01*
X11206125Y9002430D01*
X11176000Y9006395D01*
D02*
G37*
G36*
X6096000D02*
X6065875Y9002430D01*
X6037802Y8990801D01*
X6013696Y8972304D01*
X5995199Y8948198D01*
X5983570Y8920125D01*
X5979604Y8890000D01*
X5983570Y8859875D01*
X5995199Y8831802D01*
X6013696Y8807696D01*
X6037802Y8789199D01*
X6065875Y8777570D01*
X6096000Y8773604D01*
X6126125Y8777570D01*
X6154198Y8789199D01*
X6178304Y8807696D01*
X6196801Y8831802D01*
X6208430Y8859875D01*
X6212395Y8890000D01*
X6208430Y8920125D01*
X6196801Y8948198D01*
X6178304Y8972304D01*
X6154198Y8990801D01*
X6126125Y9002430D01*
X6096000Y9006395D01*
D02*
G37*
G36*
X7825600Y8722387D02*
X7805935Y8718476D01*
X7789264Y8707336D01*
X7778124Y8690665D01*
X7774213Y8671000D01*
X7778124Y8651335D01*
X7789264Y8634664D01*
X7805935Y8623524D01*
X7825600Y8619613D01*
X7845265Y8623524D01*
X7861936Y8634664D01*
X7873075Y8651335D01*
X7876987Y8671000D01*
X7873075Y8690665D01*
X7861936Y8707336D01*
X7845265Y8718476D01*
X7825600Y8722387D01*
D02*
G37*
G36*
X8712200Y8712787D02*
X8692535Y8708876D01*
X8675864Y8697736D01*
X8664724Y8681065D01*
X8660813Y8661400D01*
X8664724Y8641735D01*
X8675864Y8625064D01*
X8692535Y8613924D01*
X8712200Y8610013D01*
X8731865Y8613924D01*
X8748536Y8625064D01*
X8759676Y8641735D01*
X8763587Y8661400D01*
X8759676Y8681065D01*
X8748536Y8697736D01*
X8731865Y8708876D01*
X8712200Y8712787D01*
D02*
G37*
G36*
X10870000Y8708187D02*
X10850335Y8704276D01*
X10833664Y8693136D01*
X10822524Y8676465D01*
X10818613Y8656800D01*
X10822524Y8637135D01*
X10833664Y8620464D01*
X10850335Y8609324D01*
X10870000Y8605413D01*
X10889665Y8609324D01*
X10906336Y8620464D01*
X10917476Y8637135D01*
X10921387Y8656800D01*
X10917476Y8676465D01*
X10906336Y8693136D01*
X10889665Y8704276D01*
X10870000Y8708187D01*
D02*
G37*
G36*
X6708000Y8657387D02*
X6688335Y8653475D01*
X6671664Y8642336D01*
X6660524Y8625665D01*
X6656613Y8606000D01*
X6660524Y8586335D01*
X6671664Y8569664D01*
X6688335Y8558524D01*
X6708000Y8554613D01*
X6727665Y8558524D01*
X6744336Y8569664D01*
X6755475Y8586335D01*
X6759387Y8606000D01*
X6755475Y8625665D01*
X6744336Y8642336D01*
X6727665Y8653475D01*
X6708000Y8657387D01*
D02*
G37*
G36*
X9752400Y8643187D02*
X9732735Y8639276D01*
X9716064Y8628136D01*
X9704924Y8611465D01*
X9701013Y8591800D01*
X9704924Y8572135D01*
X9716064Y8555464D01*
X9732735Y8544324D01*
X9752400Y8540413D01*
X9772065Y8544324D01*
X9788736Y8555464D01*
X9799876Y8572135D01*
X9803787Y8591800D01*
X9799876Y8611465D01*
X9788736Y8628136D01*
X9772065Y8639276D01*
X9752400Y8643187D01*
D02*
G37*
G36*
X8382000Y8636587D02*
X8362335Y8632676D01*
X8345664Y8621536D01*
X8334524Y8604865D01*
X8330613Y8585200D01*
X8334524Y8565535D01*
X8345664Y8548864D01*
X8362335Y8537724D01*
X8382000Y8533813D01*
X8401665Y8537724D01*
X8418336Y8548864D01*
X8429476Y8565535D01*
X8433387Y8585200D01*
X8429476Y8604865D01*
X8418336Y8621536D01*
X8401665Y8632676D01*
X8382000Y8636587D01*
D02*
G37*
G36*
X6299200Y8625387D02*
X6279535Y8621476D01*
X6262864Y8610336D01*
X6251724Y8593665D01*
X6247813Y8574000D01*
X6251724Y8554335D01*
X6262864Y8537664D01*
X6279535Y8526524D01*
X6299200Y8522613D01*
X6318865Y8526524D01*
X6335536Y8537664D01*
X6346676Y8554335D01*
X6350587Y8574000D01*
X6346676Y8593665D01*
X6335536Y8610336D01*
X6318865Y8621476D01*
X6299200Y8625387D01*
D02*
G37*
G36*
X8584400Y8551661D02*
Y8515500D01*
X8620561D01*
X8619176Y8522465D01*
X8608037Y8539136D01*
X8591365Y8550276D01*
X8584400Y8551661D01*
D02*
G37*
G36*
X8559000D02*
X8552035Y8550276D01*
X8535364Y8539136D01*
X8524225Y8522465D01*
X8522839Y8515500D01*
X8559000D01*
Y8551661D01*
D02*
G37*
G36*
X8620561Y8490100D02*
X8584400D01*
Y8453939D01*
X8591365Y8455324D01*
X8608037Y8466464D01*
X8619176Y8483135D01*
X8620561Y8490100D01*
D02*
G37*
G36*
X8559000D02*
X8522839D01*
X8524225Y8483135D01*
X8535364Y8466464D01*
X8552035Y8455324D01*
X8559000Y8453939D01*
Y8490100D01*
D02*
G37*
G36*
X7647800Y8516187D02*
X7628135Y8512276D01*
X7611464Y8501136D01*
X7600324Y8484465D01*
X7596413Y8464800D01*
X7600324Y8445135D01*
X7611464Y8428464D01*
X7628135Y8417325D01*
X7647800Y8413413D01*
X7667465Y8417325D01*
X7684136Y8428464D01*
X7695275Y8445135D01*
X7699187Y8464800D01*
X7695275Y8484465D01*
X7684136Y8501136D01*
X7667465Y8512276D01*
X7647800Y8516187D01*
D02*
G37*
G36*
X10692200Y8501988D02*
X10672535Y8498076D01*
X10655864Y8486937D01*
X10644724Y8470265D01*
X10640813Y8450600D01*
X10644724Y8430935D01*
X10655864Y8414264D01*
X10672535Y8403125D01*
X10692200Y8399213D01*
X10711865Y8403125D01*
X10728536Y8414264D01*
X10739676Y8430935D01*
X10743587Y8450600D01*
X10739676Y8470265D01*
X10728536Y8486937D01*
X10711865Y8498076D01*
X10692200Y8501988D01*
D02*
G37*
G36*
X7950200Y8483888D02*
X7930535Y8479976D01*
X7913864Y8468837D01*
X7902724Y8452165D01*
X7898813Y8432500D01*
X7902724Y8412835D01*
X7913864Y8396164D01*
X7930535Y8385025D01*
X7950200Y8381113D01*
X7969865Y8385025D01*
X7986536Y8396164D01*
X7997676Y8412835D01*
X8001587Y8432500D01*
X7997676Y8452165D01*
X7986536Y8468837D01*
X7969865Y8479976D01*
X7950200Y8483888D01*
D02*
G37*
G36*
X7361500Y8415061D02*
Y8378900D01*
X7397661D01*
X7396276Y8385865D01*
X7385136Y8402536D01*
X7368465Y8413676D01*
X7361500Y8415061D01*
D02*
G37*
G36*
X7336100D02*
X7329135Y8413676D01*
X7312464Y8402536D01*
X7301324Y8385865D01*
X7299939Y8378900D01*
X7336100D01*
Y8415061D01*
D02*
G37*
G36*
X10405900Y8400861D02*
Y8364700D01*
X10442061D01*
X10440676Y8371665D01*
X10429536Y8388336D01*
X10412865Y8399476D01*
X10405900Y8400861D01*
D02*
G37*
G36*
X10380500D02*
X10373535Y8399476D01*
X10356864Y8388336D01*
X10345725Y8371665D01*
X10344339Y8364700D01*
X10380500D01*
Y8400861D01*
D02*
G37*
G36*
X9396800Y8458787D02*
X9377135Y8454876D01*
X9360464Y8443736D01*
X9349324Y8427065D01*
X9345413Y8407400D01*
X9349324Y8387735D01*
X9360464Y8371064D01*
X9377135Y8359924D01*
X9396800Y8356013D01*
X9416465Y8359924D01*
X9433136Y8371064D01*
X9444276Y8387735D01*
X9448187Y8407400D01*
X9444276Y8427065D01*
X9433136Y8443736D01*
X9416465Y8454876D01*
X9396800Y8458787D01*
D02*
G37*
G36*
X7397661Y8353500D02*
X7361500D01*
Y8317339D01*
X7368465Y8318724D01*
X7385136Y8329864D01*
X7396276Y8346535D01*
X7397661Y8353500D01*
D02*
G37*
G36*
X7336100D02*
X7299939D01*
X7301324Y8346535D01*
X7312464Y8329864D01*
X7329135Y8318724D01*
X7336100Y8317339D01*
Y8353500D01*
D02*
G37*
G36*
X10442061Y8339300D02*
X10405900D01*
Y8303139D01*
X10412865Y8304524D01*
X10429536Y8315664D01*
X10440676Y8332335D01*
X10442061Y8339300D01*
D02*
G37*
G36*
X10380500D02*
X10344339D01*
X10345725Y8332335D01*
X10356864Y8315664D01*
X10373535Y8304524D01*
X10380500Y8303139D01*
Y8339300D01*
D02*
G37*
G36*
X8153400Y8331787D02*
X8133735Y8327876D01*
X8117064Y8316736D01*
X8105924Y8300065D01*
X8102013Y8280400D01*
X8105924Y8260735D01*
X8117064Y8244064D01*
X8133735Y8232924D01*
X8153400Y8229013D01*
X8173065Y8232924D01*
X8189736Y8244064D01*
X8200876Y8260735D01*
X8204787Y8280400D01*
X8200876Y8300065D01*
X8189736Y8316736D01*
X8173065Y8327876D01*
X8153400Y8331787D01*
D02*
G37*
G36*
X6324600Y8306387D02*
X6304935Y8302476D01*
X6288264Y8291336D01*
X6277124Y8274665D01*
X6273213Y8255000D01*
X6277124Y8235335D01*
X6288264Y8218664D01*
X6304935Y8207524D01*
X6324600Y8203613D01*
X6344265Y8207524D01*
X6360936Y8218664D01*
X6372076Y8235335D01*
X6375987Y8255000D01*
X6372076Y8274665D01*
X6360936Y8291336D01*
X6344265Y8302476D01*
X6324600Y8306387D01*
D02*
G37*
G36*
X7871400Y8290587D02*
X7851735Y8286676D01*
X7835063Y8275536D01*
X7823924Y8258865D01*
X7820012Y8239200D01*
X7823924Y8219535D01*
X7828702Y8212384D01*
X7826089Y8206076D01*
X7821987Y8199574D01*
X7807264Y8189736D01*
X7796124Y8173065D01*
X7794739Y8166100D01*
X7892461D01*
X7891075Y8173065D01*
X7886297Y8180216D01*
X7888911Y8186524D01*
X7893012Y8193026D01*
X7907736Y8202864D01*
X7918875Y8219535D01*
X7922787Y8239200D01*
X7918875Y8258865D01*
X7907736Y8275536D01*
X7891064Y8286676D01*
X7871400Y8290587D01*
D02*
G37*
G36*
X10915800Y8276387D02*
X10896135Y8272476D01*
X10879464Y8261336D01*
X10868324Y8244665D01*
X10864413Y8225000D01*
X10868324Y8205335D01*
X10873102Y8198185D01*
X10868335Y8186676D01*
X10851664Y8175536D01*
X10840524Y8158865D01*
X10839139Y8151900D01*
X10936861D01*
X10935476Y8158865D01*
X10930698Y8166016D01*
X10935465Y8177524D01*
X10952136Y8188664D01*
X10963276Y8205335D01*
X10967187Y8225000D01*
X10963276Y8244665D01*
X10952136Y8261336D01*
X10935465Y8272476D01*
X10915800Y8276387D01*
D02*
G37*
G36*
X9372600Y8230187D02*
X9352935Y8226276D01*
X9336264Y8215136D01*
X9325124Y8198465D01*
X9321213Y8178800D01*
X9325124Y8159135D01*
X9336264Y8142464D01*
X9352935Y8131324D01*
X9372600Y8127413D01*
X9392265Y8131324D01*
X9408936Y8142464D01*
X9420076Y8159135D01*
X9423987Y8178800D01*
X9420076Y8198465D01*
X9408936Y8215136D01*
X9392265Y8226276D01*
X9372600Y8230187D01*
D02*
G37*
G36*
X7892461Y8140700D02*
X7856300D01*
Y8104539D01*
X7863265Y8105924D01*
X7879936Y8117064D01*
X7891075Y8133735D01*
X7892461Y8140700D01*
D02*
G37*
G36*
X7830900D02*
X7794739D01*
X7796124Y8133735D01*
X7807264Y8117064D01*
X7823935Y8105924D01*
X7830900Y8104539D01*
Y8140700D01*
D02*
G37*
G36*
X9118600Y8205187D02*
X9098935Y8201276D01*
X9082264Y8190136D01*
X9071124Y8173465D01*
X9067213Y8153800D01*
X9071124Y8134135D01*
X9082264Y8117464D01*
X9098935Y8106324D01*
X9118600Y8102413D01*
X9138265Y8106324D01*
X9154936Y8117464D01*
X9166076Y8134135D01*
X9169987Y8153800D01*
X9166076Y8173465D01*
X9154936Y8190136D01*
X9138265Y8201276D01*
X9118600Y8205187D01*
D02*
G37*
G36*
X10936861Y8126500D02*
X10900700D01*
Y8090339D01*
X10907665Y8091724D01*
X10924336Y8102864D01*
X10935476Y8119535D01*
X10936861Y8126500D01*
D02*
G37*
G36*
X10875300D02*
X10839139D01*
X10840524Y8119535D01*
X10851664Y8102864D01*
X10868335Y8091724D01*
X10875300Y8090339D01*
Y8126500D01*
D02*
G37*
G36*
X8763000Y8179787D02*
X8743335Y8175876D01*
X8726664Y8164736D01*
X8715524Y8148065D01*
X8711613Y8128400D01*
X8715524Y8108735D01*
X8726664Y8092064D01*
X8743335Y8080924D01*
X8763000Y8077013D01*
X8782665Y8080924D01*
X8799336Y8092064D01*
X8810476Y8108735D01*
X8814387Y8128400D01*
X8810476Y8148065D01*
X8799336Y8164736D01*
X8782665Y8175876D01*
X8763000Y8179787D01*
D02*
G37*
G36*
X7016000Y8161587D02*
X6996335Y8157676D01*
X6979663Y8146536D01*
X6968524Y8129865D01*
X6964612Y8110200D01*
X6968524Y8090535D01*
X6979663Y8073864D01*
X6996335Y8062724D01*
X7016000Y8058813D01*
X7035665Y8062724D01*
X7052336Y8073864D01*
X7063475Y8090535D01*
X7067387Y8110200D01*
X7063475Y8129865D01*
X7052336Y8146536D01*
X7035665Y8157676D01*
X7016000Y8161587D01*
D02*
G37*
G36*
X10060400Y8147387D02*
X10040735Y8143476D01*
X10024064Y8132336D01*
X10012924Y8115665D01*
X10009013Y8096000D01*
X10012924Y8076335D01*
X10024064Y8059664D01*
X10040735Y8048524D01*
X10060400Y8044613D01*
X10080065Y8048524D01*
X10096736Y8059664D01*
X10107876Y8076335D01*
X10111787Y8096000D01*
X10107876Y8115665D01*
X10096736Y8132336D01*
X10080065Y8143476D01*
X10060400Y8147387D01*
D02*
G37*
G36*
X10900700Y8064061D02*
Y8027900D01*
X10936861D01*
X10935476Y8034865D01*
X10924336Y8051536D01*
X10907665Y8062676D01*
X10900700Y8064061D01*
D02*
G37*
G36*
X10875300D02*
X10868335Y8062676D01*
X10851664Y8051536D01*
X10840524Y8034865D01*
X10839139Y8027900D01*
X10875300D01*
Y8064061D01*
D02*
G37*
G36*
X7856300D02*
Y8027900D01*
X7892461D01*
X7891075Y8034865D01*
X7879936Y8051536D01*
X7863265Y8062676D01*
X7856300Y8064061D01*
D02*
G37*
G36*
X7830900D02*
X7823935Y8062676D01*
X7807264Y8051536D01*
X7796124Y8034865D01*
X7794739Y8027900D01*
X7830900D01*
Y8064061D01*
D02*
G37*
G36*
X8928100Y8032461D02*
Y7996300D01*
X8964261D01*
X8962876Y8003265D01*
X8951736Y8019936D01*
X8935065Y8031076D01*
X8928100Y8032461D01*
D02*
G37*
G36*
X8902700D02*
X8895735Y8031076D01*
X8879064Y8019936D01*
X8867924Y8003265D01*
X8866539Y7996300D01*
X8902700D01*
Y8032461D01*
D02*
G37*
G36*
X10936861Y8002500D02*
X10900700D01*
Y7966339D01*
X10907665Y7967724D01*
X10924336Y7978864D01*
X10935476Y7995535D01*
X10936861Y8002500D01*
D02*
G37*
G36*
X10875300D02*
X10839139D01*
X10840524Y7995535D01*
X10851664Y7978864D01*
X10868335Y7967724D01*
X10875300Y7966339D01*
Y8002500D01*
D02*
G37*
G36*
X7892461D02*
X7856300D01*
Y7966339D01*
X7863265Y7967724D01*
X7879936Y7978864D01*
X7891075Y7995535D01*
X7892461Y8002500D01*
D02*
G37*
G36*
X7830900D02*
X7794739D01*
X7796124Y7995535D01*
X7807264Y7978864D01*
X7823935Y7967724D01*
X7830900Y7966339D01*
Y8002500D01*
D02*
G37*
G36*
X8964261Y7970900D02*
X8928100D01*
Y7934739D01*
X8935065Y7936124D01*
X8951736Y7947264D01*
X8962876Y7963935D01*
X8964261Y7970900D01*
D02*
G37*
G36*
X8902700D02*
X8866539D01*
X8867924Y7963935D01*
X8879064Y7947264D01*
X8895735Y7936124D01*
X8902700Y7934739D01*
Y7970900D01*
D02*
G37*
G36*
X6365100Y7925861D02*
Y7889700D01*
X6401261D01*
X6399875Y7896665D01*
X6388736Y7913336D01*
X6372065Y7924476D01*
X6365100Y7925861D01*
D02*
G37*
G36*
X6339700D02*
X6332735Y7924476D01*
X6316064Y7913336D01*
X6304924Y7896665D01*
X6303539Y7889700D01*
X6339700D01*
Y7925861D01*
D02*
G37*
G36*
X9409500Y7911661D02*
Y7875500D01*
X9445661D01*
X9444276Y7882465D01*
X9433136Y7899136D01*
X9416465Y7910276D01*
X9409500Y7911661D01*
D02*
G37*
G36*
X9384100D02*
X9377135Y7910276D01*
X9360464Y7899136D01*
X9349324Y7882465D01*
X9347939Y7875500D01*
X9384100D01*
Y7911661D01*
D02*
G37*
G36*
X8029500Y7905461D02*
Y7869300D01*
X8065661D01*
X8064275Y7876265D01*
X8053136Y7892936D01*
X8036465Y7904076D01*
X8029500Y7905461D01*
D02*
G37*
G36*
X8004100D02*
X7997135Y7904076D01*
X7980464Y7892936D01*
X7969324Y7876265D01*
X7967939Y7869300D01*
X8004100D01*
Y7905461D01*
D02*
G37*
G36*
X6708000Y7971587D02*
X6688335Y7967676D01*
X6671664Y7956536D01*
X6660524Y7939865D01*
X6656613Y7920200D01*
X6660524Y7900535D01*
X6671664Y7883864D01*
X6688335Y7872724D01*
X6708000Y7868813D01*
X6727665Y7872724D01*
X6744336Y7883864D01*
X6755475Y7900535D01*
X6759387Y7920200D01*
X6755475Y7939865D01*
X6744336Y7956536D01*
X6727665Y7967676D01*
X6708000Y7971587D01*
D02*
G37*
G36*
X9752400Y7957387D02*
X9732735Y7953476D01*
X9716064Y7942336D01*
X9704924Y7925665D01*
X9701013Y7906000D01*
X9704924Y7886335D01*
X9716064Y7869664D01*
X9732735Y7858525D01*
X9752400Y7854613D01*
X9772065Y7858525D01*
X9788736Y7869664D01*
X9799876Y7886335D01*
X9803787Y7906000D01*
X9799876Y7925665D01*
X9788736Y7942336D01*
X9772065Y7953476D01*
X9752400Y7957387D01*
D02*
G37*
G36*
X8386600Y7950787D02*
X8366935Y7946876D01*
X8350263Y7935736D01*
X8339124Y7919065D01*
X8335212Y7899400D01*
X8339124Y7879735D01*
X8350263Y7863064D01*
X8366935Y7851924D01*
X8386600Y7848013D01*
X8406265Y7851924D01*
X8422936Y7863064D01*
X8434075Y7879735D01*
X8437987Y7899400D01*
X8434075Y7919065D01*
X8422936Y7935736D01*
X8406265Y7946876D01*
X8386600Y7950787D01*
D02*
G37*
G36*
X6401261Y7864300D02*
X6365100D01*
Y7828139D01*
X6372065Y7829524D01*
X6388736Y7840664D01*
X6399875Y7857335D01*
X6401261Y7864300D01*
D02*
G37*
G36*
X6339700D02*
X6303539D01*
X6304924Y7857335D01*
X6316064Y7840664D01*
X6332735Y7829524D01*
X6339700Y7828139D01*
Y7864300D01*
D02*
G37*
G36*
X9445661Y7850100D02*
X9409500D01*
Y7813939D01*
X9416465Y7815324D01*
X9433136Y7826464D01*
X9444276Y7843135D01*
X9445661Y7850100D01*
D02*
G37*
G36*
X9384100D02*
X9347939D01*
X9349324Y7843135D01*
X9360464Y7826464D01*
X9377135Y7815324D01*
X9384100Y7813939D01*
Y7850100D01*
D02*
G37*
G36*
X8065661Y7843900D02*
X8029500D01*
Y7807739D01*
X8036465Y7809124D01*
X8053136Y7820264D01*
X8064275Y7836935D01*
X8065661Y7843900D01*
D02*
G37*
G36*
X8004100D02*
X7967939D01*
X7969324Y7836935D01*
X7980464Y7820264D01*
X7997135Y7809124D01*
X8004100Y7807739D01*
Y7843900D01*
D02*
G37*
G36*
X7063600Y7819187D02*
X7043935Y7815276D01*
X7027264Y7804136D01*
X7016124Y7787465D01*
X7012213Y7767800D01*
X7016124Y7748135D01*
X7027264Y7731464D01*
X7043935Y7720324D01*
X7063600Y7716413D01*
X7083265Y7720324D01*
X7099936Y7731464D01*
X7111075Y7748135D01*
X7114987Y7767800D01*
X7111075Y7787465D01*
X7099936Y7804136D01*
X7083265Y7815276D01*
X7063600Y7819187D01*
D02*
G37*
G36*
X8763000Y7812987D02*
X8743335Y7809076D01*
X8726664Y7797936D01*
X8715524Y7781265D01*
X8711613Y7761600D01*
X8715524Y7741935D01*
X8726664Y7725264D01*
X8743335Y7714125D01*
X8763000Y7710213D01*
X8782665Y7714125D01*
X8799336Y7725264D01*
X8810476Y7741935D01*
X8814387Y7761600D01*
X8810476Y7781265D01*
X8799336Y7797936D01*
X8782665Y7809076D01*
X8763000Y7812987D01*
D02*
G37*
G36*
X10108000Y7804987D02*
X10088335Y7801076D01*
X10071664Y7789936D01*
X10060524Y7773265D01*
X10056613Y7753600D01*
X10060524Y7733935D01*
X10071664Y7717264D01*
X10088335Y7706125D01*
X10108000Y7702213D01*
X10127665Y7706125D01*
X10144336Y7717264D01*
X10155476Y7733935D01*
X10159387Y7753600D01*
X10155476Y7773265D01*
X10144336Y7789936D01*
X10127665Y7801076D01*
X10108000Y7804987D01*
D02*
G37*
G36*
X7470700Y7678461D02*
Y7642300D01*
X7506861D01*
X7505475Y7649265D01*
X7494336Y7665936D01*
X7477665Y7677076D01*
X7470700Y7678461D01*
D02*
G37*
G36*
X7445300D02*
X7438335Y7677076D01*
X7421664Y7665936D01*
X7410524Y7649265D01*
X7409139Y7642300D01*
X7445300D01*
Y7678461D01*
D02*
G37*
G36*
X10515100Y7664261D02*
Y7628100D01*
X10551261D01*
X10549876Y7635065D01*
X10538736Y7651736D01*
X10522065Y7662876D01*
X10515100Y7664261D01*
D02*
G37*
G36*
X10489700D02*
X10482735Y7662876D01*
X10466064Y7651736D01*
X10454924Y7635065D01*
X10453539Y7628100D01*
X10489700D01*
Y7664261D01*
D02*
G37*
G36*
X7506861Y7616900D02*
X7470700D01*
Y7580739D01*
X7477665Y7582124D01*
X7494336Y7593264D01*
X7505475Y7609935D01*
X7506861Y7616900D01*
D02*
G37*
G36*
X7445300D02*
X7409139D01*
X7410524Y7609935D01*
X7421664Y7593264D01*
X7438335Y7582124D01*
X7445300Y7580739D01*
Y7616900D01*
D02*
G37*
G36*
X10551261Y7602700D02*
X10515100D01*
Y7566539D01*
X10522065Y7567924D01*
X10538736Y7579064D01*
X10549876Y7595735D01*
X10551261Y7602700D01*
D02*
G37*
G36*
X10489700D02*
X10453539D01*
X10454924Y7595735D01*
X10466064Y7579064D01*
X10482735Y7567924D01*
X10489700Y7566539D01*
Y7602700D01*
D02*
G37*
%LPD*%
D17*
X11176000Y9144000D02*
D03*
Y8890000D02*
D03*
Y9398000D02*
D03*
Y9652000D02*
D03*
Y10668000D02*
D03*
Y10414000D02*
D03*
Y9906000D02*
D03*
Y10160000D02*
D03*
X6096000Y9144000D02*
D03*
Y8890000D02*
D03*
Y9398000D02*
D03*
Y9652000D02*
D03*
Y10668000D02*
D03*
Y10414000D02*
D03*
Y9906000D02*
D03*
Y10160000D02*
D03*
D18*
X10888000Y8015200D02*
D03*
X7843600D02*
D03*
X7975600Y10947400D02*
D03*
X10896600Y8923400D02*
D03*
X7844400Y8940800D02*
D03*
X7937900Y11890200D02*
D03*
X10591400Y9194800D02*
D03*
X10034600Y9956800D02*
D03*
X6472600Y11383600D02*
D03*
X9377300Y11006000D02*
D03*
X9347200Y10806200D02*
D03*
X9448800Y9575800D02*
D03*
X8317000Y9804400D02*
D03*
X8153400Y8280400D02*
D03*
X8610600Y8991600D02*
D03*
Y9118600D02*
D03*
X8254700Y9875600D02*
D03*
X9396800Y8407400D02*
D03*
X10920800Y10134600D02*
D03*
X9525000Y10642600D02*
D03*
X9245600Y10490200D02*
D03*
X8801200Y10566400D02*
D03*
X8431000Y11338000D02*
D03*
X8001000Y8966200D02*
D03*
X7950200Y8432500D02*
D03*
X8026400Y8843300D02*
D03*
X8197600Y10947400D02*
D03*
X7955200Y10490200D02*
D03*
X6299200Y8574000D02*
D03*
X6350000Y11072400D02*
D03*
X6431200Y10275800D02*
D03*
X9575800Y11074400D02*
D03*
X6633000Y9647300D02*
D03*
X6324600Y8255000D02*
D03*
X6468200Y9590000D02*
D03*
X9372600Y8178800D02*
D03*
X7378800Y9118600D02*
D03*
X7843600Y8153400D02*
D03*
X7871400Y8239200D02*
D03*
X6553200Y9289600D02*
D03*
X10642600Y10210800D02*
D03*
X10196600Y10033000D02*
D03*
X9866400Y10050800D02*
D03*
Y9353800D02*
D03*
X10222000Y9201400D02*
D03*
X9485400Y9310600D02*
D03*
X10131600Y10515600D02*
D03*
X9485400Y10284000D02*
D03*
X9118600Y8923400D02*
D03*
Y8153800D02*
D03*
X8915400Y7983600D02*
D03*
X8712200Y8661400D02*
D03*
X8571700Y8502800D02*
D03*
X8763000Y8128400D02*
D03*
Y7761600D02*
D03*
X8386600Y7899400D02*
D03*
X8016800Y7856600D02*
D03*
X8382000Y8585200D02*
D03*
X8661400Y11563600D02*
D03*
X8280400Y11796800D02*
D03*
X8661400Y10877800D02*
D03*
X8305800Y10834600D02*
D03*
X9017000Y11258800D02*
D03*
Y10896600D02*
D03*
X9289800Y11709400D02*
D03*
X8926600Y12039600D02*
D03*
X8536000Y10090400D02*
D03*
X8155000Y10323600D02*
D03*
X8536000Y9404600D02*
D03*
X8180400Y9361400D02*
D03*
X8891600Y9785600D02*
D03*
Y9423400D02*
D03*
X8801200Y9144000D02*
D03*
X9164400Y10236200D02*
D03*
X7113600Y10065000D02*
D03*
X6732600Y10298200D02*
D03*
X7113600Y9379200D02*
D03*
X6758000Y9336000D02*
D03*
X7469200Y9760200D02*
D03*
Y9398000D02*
D03*
X7742000Y10210800D02*
D03*
X7378800Y10541000D02*
D03*
X10637600Y11709400D02*
D03*
X10364800Y11258800D02*
D03*
X10274400Y12039600D02*
D03*
X10364800Y10896600D02*
D03*
X10009200Y11563600D02*
D03*
X9628200Y11796800D02*
D03*
X10009200Y10877800D02*
D03*
X9653600Y10834600D02*
D03*
X9752400Y8591800D02*
D03*
X9396800Y8825000D02*
D03*
X9752400Y7906000D02*
D03*
X9396800Y7862800D02*
D03*
X10060400Y8096000D02*
D03*
X10692200Y8450600D02*
D03*
X10108000Y7753600D02*
D03*
X10360500Y9037800D02*
D03*
X10888000Y8139200D02*
D03*
X10393200Y8352000D02*
D03*
X10502400Y7615400D02*
D03*
X10915800Y8225000D02*
D03*
X10870000Y8656800D02*
D03*
X6708000Y8606000D02*
D03*
X6352400Y8839200D02*
D03*
X6708000Y7920200D02*
D03*
X6352400Y7877000D02*
D03*
X7016000Y8110200D02*
D03*
X7647800Y8464800D02*
D03*
X7063600Y7767800D02*
D03*
X7348800Y8366200D02*
D03*
X7458000Y7629600D02*
D03*
X7825600Y8671000D02*
D03*
X7904400Y11633200D02*
D03*
X7950200Y11201400D02*
D03*
X7726600Y11427000D02*
D03*
X7427600Y11328400D02*
D03*
X7922400Y11115600D02*
D03*
X7094800Y11072400D02*
D03*
X7394900Y12014200D02*
D03*
X7142400Y10730000D02*
D03*
X6786800Y10882400D02*
D03*
X6431200Y10839200D02*
D03*
X6786800Y11568200D02*
D03*
X6431200Y11801400D02*
D03*
%TF.MD5,9867e36a5a5d6500a8fe89a6f7b9e490*%
M02*
