%TF.GenerationSoftware,Altium Limited,Altium Designer,19.0.15 (446)*%
G04 Layer_Color=32896*
%FSLAX45Y45*%
%MOMM*%
%TF.FileFunction,Legend,Bot*%
%TF.Part,Single*%
G01*
G75*
%TA.AperFunction,NonConductor*%
%ADD19C,0.25400*%
D19*
X11049000Y9525000D02*
X11303000D01*
Y8763000D02*
Y9779000D01*
X11049000Y8763000D02*
Y9779000D01*
Y8763000D02*
X11303000D01*
X11049000Y9017000D02*
X11303000D01*
X11049000Y9271000D02*
X11303000D01*
X11049000Y10795000D02*
X11303000D01*
X11049000Y10541000D02*
X11303000D01*
X11049000Y10287000D02*
X11303000D01*
X11049000Y9779000D02*
X11303000D01*
X11049000Y10033000D02*
X11303000D01*
X11049000Y9779000D02*
Y10795000D01*
X11303000Y9779000D02*
Y10795000D01*
X5969000Y9525000D02*
X6223000D01*
Y8763000D02*
Y9779000D01*
X5969000Y8763000D02*
Y9779000D01*
Y8763000D02*
X6223000D01*
X5969000Y9017000D02*
X6223000D01*
X5969000Y9271000D02*
X6223000D01*
X5969000Y10795000D02*
X6223000D01*
X5969000Y10541000D02*
X6223000D01*
X5969000Y10287000D02*
X6223000D01*
X5969000Y9779000D02*
X6223000D01*
X5969000Y10033000D02*
X6223000D01*
X5969000Y9779000D02*
Y10795000D01*
X6223000Y9779000D02*
Y10795000D01*
%TF.MD5,8228014f0c97ae675f3861b7ed1cd0be*%
M02*
