%TF.GenerationSoftware,Altium Limited,Altium Designer,19.0.15 (446)*%
G04 Layer_Physical_Order=4*
G04 Layer_Color=16711680*
%FSLAX45Y45*%
%MOMM*%
%TF.FileFunction,Copper,L4,Bot,Signal*%
%TF.Part,Single*%
G01*
G75*
%TA.AperFunction,Conductor*%
%ADD16C,0.25400*%
%TA.AperFunction,ComponentPad*%
%ADD17C,1.80000*%
%TA.AperFunction,ViaPad*%
%ADD18C,0.50000*%
D16*
X6472600Y11329800D02*
Y11383600D01*
Y11329800D02*
X6553200Y11249200D01*
X10920800Y10134600D02*
Y10249600D01*
X10781800Y10388600D02*
X10920800Y10249600D01*
X9779000Y10388600D02*
X10781800D01*
X9347200Y10975900D02*
X9377300Y11006000D01*
X9347200Y10806200D02*
Y10975900D01*
X9377300Y9647300D02*
X9448800Y9575800D01*
X8921050Y9647300D02*
X9377300D01*
X8782750Y9785600D02*
X8921050Y9647300D01*
X8548200Y9785600D02*
X8782750D01*
X8458200Y9875600D02*
X8548200Y9785600D01*
X8388200Y9875600D02*
X8458200D01*
X8317000Y9804400D02*
X8388200Y9875600D01*
X8253900Y9602300D02*
X8420900Y9435300D01*
X8253900Y9602300D02*
Y9874800D01*
X8254700Y9875600D01*
X8153400Y8280400D02*
X8280700D01*
X8432800Y8432500D01*
Y8546763D01*
X8610600Y8724563D01*
Y8991600D01*
X8603219Y9125981D02*
X8610600Y9118600D01*
X8536000Y9125981D02*
X8603219D01*
X8420900Y9241081D02*
X8536000Y9125981D01*
X8420900Y9241081D02*
Y9435300D01*
X9396800Y8407400D02*
Y8661400D01*
X9575800Y8840400D01*
Y9677400D01*
X9422300Y9830900D02*
X9575800Y9677400D01*
X9422300Y9830900D02*
Y10322681D01*
X9423400Y10323781D01*
Y10388600D01*
X9525000Y10490200D01*
Y10642600D01*
X9779000Y10388600D01*
X9042400Y10693400D02*
X9245600Y10490200D01*
X8813800Y10693400D02*
X9042400D01*
X8763000Y10744200D02*
X8813800Y10693400D01*
X8763000Y10744200D02*
Y11006000D01*
X8431000Y11338000D02*
X8763000Y11006000D01*
X8001000Y8966200D02*
X8102600Y8864600D01*
Y8502800D02*
Y8864600D01*
X8032300Y8432500D02*
X8102600Y8502800D01*
X7950200Y8432500D02*
X8032300D01*
X8197600Y10732600D02*
Y10947400D01*
X7955200Y10490200D02*
X8197600Y10732600D01*
X6289300Y8590557D02*
X6299200Y8580657D01*
Y8574000D02*
Y8580657D01*
X6289300Y8590557D02*
Y9125981D01*
X6350000Y9186681D01*
Y9843772D01*
X6431200Y9924972D01*
Y10275800D01*
X6324600Y11047000D02*
X6350000Y11072400D01*
X6324600Y10693400D02*
Y11047000D01*
Y10693400D02*
X6431200Y10586800D01*
Y10275800D02*
Y10586800D01*
X9448800Y10947400D02*
X9575800Y11074400D01*
X9448800Y10566400D02*
Y10947400D01*
X9271000Y10388600D02*
X9448800Y10566400D01*
X8788400Y10388600D02*
X9271000D01*
X8661400Y10261600D02*
X8788400Y10388600D01*
X8197600Y10261600D02*
X8661400D01*
X7842000Y9906000D02*
X8197600Y10261600D01*
X6891699Y9906000D02*
X7842000D01*
X6633000Y9647300D02*
X6891699Y9906000D01*
X6324600Y8255000D02*
X6468200Y8398600D01*
Y9590000D01*
X6553200Y9289600D02*
Y11249200D01*
X9321800Y8229600D02*
Y8809437D01*
Y8229600D02*
X9372600Y8178800D01*
X9075736Y9055500D02*
X9321800Y8809437D01*
X7340537Y9055500D02*
X9075736D01*
X7315937Y9080100D02*
X7340537Y9055500D01*
X6762700Y9080100D02*
X7315937D01*
X6553200Y9289600D02*
X6762700Y9080100D01*
X7871400Y8239200D02*
Y8625200D01*
X7825600Y8671000D02*
X7871400Y8625200D01*
X10915800Y8225000D02*
Y8611000D01*
X10870000Y8656800D02*
X10915800Y8611000D01*
X7904400Y11633200D02*
X7950200Y11587400D01*
Y11201400D02*
Y11587400D01*
D17*
X11176000Y9144000D02*
D03*
Y8890000D02*
D03*
Y9398000D02*
D03*
Y9652000D02*
D03*
Y10668000D02*
D03*
Y10414000D02*
D03*
Y9906000D02*
D03*
Y10160000D02*
D03*
X6096000Y9144000D02*
D03*
Y8890000D02*
D03*
Y9398000D02*
D03*
Y9652000D02*
D03*
Y10668000D02*
D03*
Y10414000D02*
D03*
Y9906000D02*
D03*
Y10160000D02*
D03*
D18*
X10888000Y8015200D02*
D03*
X7843600D02*
D03*
X7975600Y10947400D02*
D03*
X10896600Y8923400D02*
D03*
X7844400Y8940800D02*
D03*
X7937900Y11890200D02*
D03*
X10591400Y9194800D02*
D03*
X10034600Y9956800D02*
D03*
X6472600Y11383600D02*
D03*
X9377300Y11006000D02*
D03*
X9347200Y10806200D02*
D03*
X9448800Y9575800D02*
D03*
X8317000Y9804400D02*
D03*
X8153400Y8280400D02*
D03*
X8610600Y8991600D02*
D03*
Y9118600D02*
D03*
X8254700Y9875600D02*
D03*
X9396800Y8407400D02*
D03*
X10920800Y10134600D02*
D03*
X9525000Y10642600D02*
D03*
X9245600Y10490200D02*
D03*
X8801200Y10566400D02*
D03*
X8431000Y11338000D02*
D03*
X8001000Y8966200D02*
D03*
X7950200Y8432500D02*
D03*
X8026400Y8843300D02*
D03*
X8197600Y10947400D02*
D03*
X7955200Y10490200D02*
D03*
X6299200Y8574000D02*
D03*
X6350000Y11072400D02*
D03*
X6431200Y10275800D02*
D03*
X9575800Y11074400D02*
D03*
X6633000Y9647300D02*
D03*
X6324600Y8255000D02*
D03*
X6468200Y9590000D02*
D03*
X9372600Y8178800D02*
D03*
X7378800Y9118600D02*
D03*
X7843600Y8153400D02*
D03*
X7871400Y8239200D02*
D03*
X6553200Y9289600D02*
D03*
X10642600Y10210800D02*
D03*
X10196600Y10033000D02*
D03*
X9866400Y10050800D02*
D03*
Y9353800D02*
D03*
X10222000Y9201400D02*
D03*
X9485400Y9310600D02*
D03*
X10131600Y10515600D02*
D03*
X9485400Y10284000D02*
D03*
X9118600Y8923400D02*
D03*
Y8153800D02*
D03*
X8915400Y7983600D02*
D03*
X8712200Y8661400D02*
D03*
X8571700Y8502800D02*
D03*
X8763000Y8128400D02*
D03*
Y7761600D02*
D03*
X8386600Y7899400D02*
D03*
X8016800Y7856600D02*
D03*
X8382000Y8585200D02*
D03*
X8661400Y11563600D02*
D03*
X8280400Y11796800D02*
D03*
X8661400Y10877800D02*
D03*
X8305800Y10834600D02*
D03*
X9017000Y11258800D02*
D03*
Y10896600D02*
D03*
X9289800Y11709400D02*
D03*
X8926600Y12039600D02*
D03*
X8536000Y10090400D02*
D03*
X8155000Y10323600D02*
D03*
X8536000Y9404600D02*
D03*
X8180400Y9361400D02*
D03*
X8891600Y9785600D02*
D03*
Y9423400D02*
D03*
X8801200Y9144000D02*
D03*
X9164400Y10236200D02*
D03*
X7113600Y10065000D02*
D03*
X6732600Y10298200D02*
D03*
X7113600Y9379200D02*
D03*
X6758000Y9336000D02*
D03*
X7469200Y9760200D02*
D03*
Y9398000D02*
D03*
X7742000Y10210800D02*
D03*
X7378800Y10541000D02*
D03*
X10637600Y11709400D02*
D03*
X10364800Y11258800D02*
D03*
X10274400Y12039600D02*
D03*
X10364800Y10896600D02*
D03*
X10009200Y11563600D02*
D03*
X9628200Y11796800D02*
D03*
X10009200Y10877800D02*
D03*
X9653600Y10834600D02*
D03*
X9752400Y8591800D02*
D03*
X9396800Y8825000D02*
D03*
X9752400Y7906000D02*
D03*
X9396800Y7862800D02*
D03*
X10060400Y8096000D02*
D03*
X10692200Y8450600D02*
D03*
X10108000Y7753600D02*
D03*
X10360500Y9037800D02*
D03*
X10888000Y8139200D02*
D03*
X10393200Y8352000D02*
D03*
X10502400Y7615400D02*
D03*
X10915800Y8225000D02*
D03*
X10870000Y8656800D02*
D03*
X6708000Y8606000D02*
D03*
X6352400Y8839200D02*
D03*
X6708000Y7920200D02*
D03*
X6352400Y7877000D02*
D03*
X7016000Y8110200D02*
D03*
X7647800Y8464800D02*
D03*
X7063600Y7767800D02*
D03*
X7348800Y8366200D02*
D03*
X7458000Y7629600D02*
D03*
X7825600Y8671000D02*
D03*
X7904400Y11633200D02*
D03*
X7950200Y11201400D02*
D03*
X7726600Y11427000D02*
D03*
X7427600Y11328400D02*
D03*
X7922400Y11115600D02*
D03*
X7094800Y11072400D02*
D03*
X7394900Y12014200D02*
D03*
X7142400Y10730000D02*
D03*
X6786800Y10882400D02*
D03*
X6431200Y10839200D02*
D03*
X6786800Y11568200D02*
D03*
X6431200Y11801400D02*
D03*
%TF.MD5,ba814a937569bb5441452b494ca9ef52*%
M02*
