%TF.GenerationSoftware,Altium Limited,Altium Designer,19.0.15 (446)*%
G04 Layer_Color=0*
%FSLAX45Y45*%
%MOMM*%
%TF.FileFunction,Plated,1,4,PTH,Drill*%
%TF.Part,Single*%
G01*
G75*
%TA.AperFunction,ComponentDrill*%
%ADD34C,0.90000*%
%TA.AperFunction,ViaDrill,NotFilled*%
%ADD35C,0.30000*%
D34*
X11176000Y9144000D02*
D03*
Y8890000D02*
D03*
Y9398000D02*
D03*
Y9652000D02*
D03*
Y10668000D02*
D03*
Y10414000D02*
D03*
Y9906000D02*
D03*
Y10160000D02*
D03*
X6096000Y9144000D02*
D03*
Y8890000D02*
D03*
Y9398000D02*
D03*
Y9652000D02*
D03*
Y10668000D02*
D03*
Y10414000D02*
D03*
Y9906000D02*
D03*
Y10160000D02*
D03*
D35*
X10888000Y8015200D02*
D03*
X7843600D02*
D03*
X7975600Y10947400D02*
D03*
X10896600Y8923400D02*
D03*
X7844400Y8940800D02*
D03*
X7937900Y11890200D02*
D03*
X10591400Y9194800D02*
D03*
X10034600Y9956800D02*
D03*
X6472600Y11383600D02*
D03*
X9377300Y11006000D02*
D03*
X9347200Y10806200D02*
D03*
X9448800Y9575800D02*
D03*
X8317000Y9804400D02*
D03*
X8153400Y8280400D02*
D03*
X8610600Y8991600D02*
D03*
Y9118600D02*
D03*
X8254700Y9875600D02*
D03*
X9396800Y8407400D02*
D03*
X10920800Y10134600D02*
D03*
X9525000Y10642600D02*
D03*
X9245600Y10490200D02*
D03*
X8801200Y10566400D02*
D03*
X8431000Y11338000D02*
D03*
X8001000Y8966200D02*
D03*
X7950200Y8432500D02*
D03*
X8026400Y8843300D02*
D03*
X8197600Y10947400D02*
D03*
X7955200Y10490200D02*
D03*
X6299200Y8574000D02*
D03*
X6350000Y11072400D02*
D03*
X6431200Y10275800D02*
D03*
X9575800Y11074400D02*
D03*
X6633000Y9647300D02*
D03*
X6324600Y8255000D02*
D03*
X6468200Y9590000D02*
D03*
X9372600Y8178800D02*
D03*
X7378800Y9118600D02*
D03*
X7843600Y8153400D02*
D03*
X7871400Y8239200D02*
D03*
X6553200Y9289600D02*
D03*
X10642600Y10210800D02*
D03*
X10196600Y10033000D02*
D03*
X9866400Y10050800D02*
D03*
Y9353800D02*
D03*
X10222000Y9201400D02*
D03*
X9485400Y9310600D02*
D03*
X10131600Y10515600D02*
D03*
X9485400Y10284000D02*
D03*
X9118600Y8923400D02*
D03*
Y8153800D02*
D03*
X8915400Y7983600D02*
D03*
X8712200Y8661400D02*
D03*
X8571700Y8502800D02*
D03*
X8763000Y8128400D02*
D03*
Y7761600D02*
D03*
X8386600Y7899400D02*
D03*
X8016800Y7856600D02*
D03*
X8382000Y8585200D02*
D03*
X8661400Y11563600D02*
D03*
X8280400Y11796800D02*
D03*
X8661400Y10877800D02*
D03*
X8305800Y10834600D02*
D03*
X9017000Y11258800D02*
D03*
Y10896600D02*
D03*
X9289800Y11709400D02*
D03*
X8926600Y12039600D02*
D03*
X8536000Y10090400D02*
D03*
X8155000Y10323600D02*
D03*
X8536000Y9404600D02*
D03*
X8180400Y9361400D02*
D03*
X8891600Y9785600D02*
D03*
Y9423400D02*
D03*
X8801200Y9144000D02*
D03*
X9164400Y10236200D02*
D03*
X7113600Y10065000D02*
D03*
X6732600Y10298200D02*
D03*
X7113600Y9379200D02*
D03*
X6758000Y9336000D02*
D03*
X7469200Y9760200D02*
D03*
Y9398000D02*
D03*
X7742000Y10210800D02*
D03*
X7378800Y10541000D02*
D03*
X10637600Y11709400D02*
D03*
X10364800Y11258800D02*
D03*
X10274400Y12039600D02*
D03*
X10364800Y10896600D02*
D03*
X10009200Y11563600D02*
D03*
X9628200Y11796800D02*
D03*
X10009200Y10877800D02*
D03*
X9653600Y10834600D02*
D03*
X9752400Y8591800D02*
D03*
X9396800Y8825000D02*
D03*
X9752400Y7906000D02*
D03*
X9396800Y7862800D02*
D03*
X10060400Y8096000D02*
D03*
X10692200Y8450600D02*
D03*
X10108000Y7753600D02*
D03*
X10360500Y9037800D02*
D03*
X10888000Y8139200D02*
D03*
X10393200Y8352000D02*
D03*
X10502400Y7615400D02*
D03*
X10915800Y8225000D02*
D03*
X10870000Y8656800D02*
D03*
X6708000Y8606000D02*
D03*
X6352400Y8839200D02*
D03*
X6708000Y7920200D02*
D03*
X6352400Y7877000D02*
D03*
X7016000Y8110200D02*
D03*
X7647800Y8464800D02*
D03*
X7063600Y7767800D02*
D03*
X7348800Y8366200D02*
D03*
X7458000Y7629600D02*
D03*
X7825600Y8671000D02*
D03*
X7904400Y11633200D02*
D03*
X7950200Y11201400D02*
D03*
X7726600Y11427000D02*
D03*
X7427600Y11328400D02*
D03*
X7922400Y11115600D02*
D03*
X7094800Y11072400D02*
D03*
X7394900Y12014200D02*
D03*
X7142400Y10730000D02*
D03*
X6786800Y10882400D02*
D03*
X6431200Y10839200D02*
D03*
X6786800Y11568200D02*
D03*
X6431200Y11801400D02*
D03*
%TF.MD5,a16fa0808776139afabc948624bc77dc*%
M02*
