%TF.GenerationSoftware,Altium Limited,Altium Designer,19.0.15 (446)*%
G04 Layer_Physical_Order=1*
G04 Layer_Color=255*
%FSLAX45Y45*%
%MOMM*%
%TF.FileFunction,Copper,L1,Top,Signal*%
%TF.Part,Single*%
G01*
G75*
%TA.AperFunction,SMDPad,CuDef*%
%ADD10R,0.80000X0.80000*%
%ADD11R,0.95000X0.85000*%
%ADD12R,0.85000X0.95000*%
%ADD13R,0.80000X0.90000*%
%ADD14R,0.90000X0.80000*%
%ADD15R,0.80000X0.80000*%
%TA.AperFunction,Conductor*%
%ADD16C,0.25400*%
%TA.AperFunction,ComponentPad*%
%ADD17C,1.80000*%
%TA.AperFunction,ViaPad*%
%ADD18C,0.50000*%
D10*
X9826200Y8940800D02*
D03*
X9676200D02*
D03*
X10843400Y7721600D02*
D03*
X10693400D02*
D03*
X9827400Y7747000D02*
D03*
X9677400D02*
D03*
X6781800Y8955000D02*
D03*
X6631800D02*
D03*
X7799000Y7735800D02*
D03*
X7649000D02*
D03*
X6783000Y7761200D02*
D03*
X6633000D02*
D03*
X6860600Y11917200D02*
D03*
X6710600D02*
D03*
X7877800Y10698000D02*
D03*
X7727800D02*
D03*
X6861800Y10723400D02*
D03*
X6711800D02*
D03*
X10084200Y11912600D02*
D03*
X9934200D02*
D03*
X10084200Y10718800D02*
D03*
X9934200D02*
D03*
X8736400Y11912600D02*
D03*
X8586400D02*
D03*
X8736400Y10718800D02*
D03*
X8586400D02*
D03*
X8611000Y10439400D02*
D03*
X8461000D02*
D03*
X8611000Y9245600D02*
D03*
X8461000D02*
D03*
X7188600Y10414000D02*
D03*
X7038600D02*
D03*
X7188600Y9220200D02*
D03*
X7038600D02*
D03*
X8457000Y8934600D02*
D03*
X8307000D02*
D03*
X8457000Y7740800D02*
D03*
X8307000D02*
D03*
X9941400Y10399800D02*
D03*
X9791400D02*
D03*
X9941400Y9194800D02*
D03*
X9791400D02*
D03*
D11*
X10361200Y8799600D02*
D03*
Y8929600D02*
D03*
X9498400Y8825000D02*
D03*
Y8955000D02*
D03*
X10768400Y8269200D02*
D03*
Y8139200D02*
D03*
X9498400Y8675600D02*
D03*
Y8545600D02*
D03*
X10393200Y8574000D02*
D03*
Y8444000D02*
D03*
X10539000Y8929600D02*
D03*
Y8799600D02*
D03*
X9498400Y8012200D02*
D03*
Y8142200D02*
D03*
Y7862800D02*
D03*
Y7732800D02*
D03*
X7316800Y8813800D02*
D03*
Y8943800D02*
D03*
X6454000Y8839200D02*
D03*
Y8969200D02*
D03*
X7724000Y8283400D02*
D03*
Y8153400D02*
D03*
X6454000Y8689800D02*
D03*
Y8559800D02*
D03*
X7348800Y8588200D02*
D03*
Y8458200D02*
D03*
X7494600Y8943800D02*
D03*
Y8813800D02*
D03*
X6454000Y8026400D02*
D03*
Y8156400D02*
D03*
Y7877000D02*
D03*
Y7747000D02*
D03*
X7395600Y11776000D02*
D03*
Y11906000D02*
D03*
X6532800Y11801400D02*
D03*
Y11931400D02*
D03*
X7802800Y11245600D02*
D03*
Y11115600D02*
D03*
X6532800Y11652000D02*
D03*
Y11522000D02*
D03*
X7427600Y11550400D02*
D03*
Y11420400D02*
D03*
X7573400Y11906000D02*
D03*
Y11776000D02*
D03*
X6532800Y10988600D02*
D03*
Y11118600D02*
D03*
Y10839200D02*
D03*
Y10709200D02*
D03*
X9748600Y11796800D02*
D03*
Y11926800D02*
D03*
Y11643200D02*
D03*
Y11513200D02*
D03*
X10274400Y11749000D02*
D03*
Y11619000D02*
D03*
X9754800Y10984000D02*
D03*
Y11114000D02*
D03*
Y10834600D02*
D03*
Y10704600D02*
D03*
X8400800Y11796800D02*
D03*
Y11926800D02*
D03*
Y11643200D02*
D03*
Y11513200D02*
D03*
X8926600Y11749000D02*
D03*
Y11619000D02*
D03*
X8407000Y10984000D02*
D03*
Y11114000D02*
D03*
Y10834600D02*
D03*
Y10704600D02*
D03*
X8275400Y10323600D02*
D03*
Y10453600D02*
D03*
Y10170000D02*
D03*
Y10040000D02*
D03*
X8801200Y10275800D02*
D03*
Y10145800D02*
D03*
X8281600Y9510800D02*
D03*
Y9640800D02*
D03*
Y9361400D02*
D03*
Y9231400D02*
D03*
X6853000Y10298200D02*
D03*
Y10428200D02*
D03*
Y10144600D02*
D03*
Y10014600D02*
D03*
X7378800Y10250400D02*
D03*
Y10120400D02*
D03*
X6859200Y9485400D02*
D03*
Y9615400D02*
D03*
Y9336000D02*
D03*
Y9206000D02*
D03*
X8128000Y8818800D02*
D03*
Y8948800D02*
D03*
Y8669400D02*
D03*
Y8539400D02*
D03*
X8991600Y8793400D02*
D03*
Y8923400D02*
D03*
Y8514000D02*
D03*
Y8644000D02*
D03*
X9018600Y7983600D02*
D03*
Y7853600D02*
D03*
X8128000Y8006000D02*
D03*
Y8136000D02*
D03*
Y7856600D02*
D03*
Y7726600D02*
D03*
X9612400Y10284000D02*
D03*
Y10414000D02*
D03*
Y10134600D02*
D03*
Y10004600D02*
D03*
Y9460000D02*
D03*
Y9590000D02*
D03*
Y9310600D02*
D03*
Y9180600D02*
D03*
D12*
X10146800Y8545600D02*
D03*
X10016800D02*
D03*
X10360500Y7924800D02*
D03*
X10490500D02*
D03*
X10372400Y7732800D02*
D03*
X10502400D02*
D03*
X9661200Y8432800D02*
D03*
X9791200D02*
D03*
X9661200Y8255000D02*
D03*
X9791200D02*
D03*
X10832600Y7899400D02*
D03*
X10702600D02*
D03*
X7102400Y8559800D02*
D03*
X6972400D02*
D03*
X7316100Y7939000D02*
D03*
X7446100D02*
D03*
X7328000Y7747000D02*
D03*
X7458000D02*
D03*
X6616800Y8447000D02*
D03*
X6746800D02*
D03*
X6616800Y8269200D02*
D03*
X6746800D02*
D03*
X7788200Y7913600D02*
D03*
X7658200D02*
D03*
X7181201Y11522000D02*
D03*
X7051201D02*
D03*
X7394900Y10901200D02*
D03*
X7524900D02*
D03*
X7406800Y10709200D02*
D03*
X7536800D02*
D03*
X6695600Y11409200D02*
D03*
X6825600D02*
D03*
X6695600Y11231400D02*
D03*
X6825600D02*
D03*
X7867001Y10875800D02*
D03*
X7737001D02*
D03*
X9918800Y11404600D02*
D03*
X10048800D02*
D03*
X10404400Y10733000D02*
D03*
X10274400D02*
D03*
X9918800Y11226800D02*
D03*
X10048800D02*
D03*
X10274400Y11926800D02*
D03*
X10404400D02*
D03*
X8571000Y11404600D02*
D03*
X8701000D02*
D03*
X9056600Y10733000D02*
D03*
X8926600D02*
D03*
X8571000Y11226800D02*
D03*
X8701000D02*
D03*
X8926600Y11926800D02*
D03*
X9056600D02*
D03*
X8445600Y9931400D02*
D03*
X8575600D02*
D03*
X8931200Y9259800D02*
D03*
X8801200D02*
D03*
X8445600Y9753600D02*
D03*
X8575600D02*
D03*
X8801200Y10453600D02*
D03*
X8931200D02*
D03*
X7023200Y9906000D02*
D03*
X7153200D02*
D03*
X7508800Y9234400D02*
D03*
X7378800D02*
D03*
X7023200Y9728200D02*
D03*
X7153200D02*
D03*
X7378800Y10428200D02*
D03*
X7508800D02*
D03*
X8317000Y8426600D02*
D03*
X8447000D02*
D03*
X8802600Y8502800D02*
D03*
X8672600D02*
D03*
X8317000Y8248800D02*
D03*
X8447000D02*
D03*
X10261600Y9906000D02*
D03*
X10131600D02*
D03*
X10261600Y10414000D02*
D03*
X10131600D02*
D03*
X9776000Y9880600D02*
D03*
X9906000D02*
D03*
X10617200Y9557000D02*
D03*
X10487200D02*
D03*
X9776000Y9702800D02*
D03*
X9906000D02*
D03*
X10642600Y10083800D02*
D03*
X10512600D02*
D03*
D13*
X10107200Y8913800D02*
D03*
X10202200Y8713800D02*
D03*
X10012200D02*
D03*
X10488200Y8278800D02*
D03*
X10583200Y8078800D02*
D03*
X10393200D02*
D03*
X10793800Y9008800D02*
D03*
X10888800Y8808800D02*
D03*
X10698800D02*
D03*
X7062800Y8928000D02*
D03*
X7157800Y8728000D02*
D03*
X6967800D02*
D03*
X7443800Y8293000D02*
D03*
X7538800Y8093000D02*
D03*
X7348800D02*
D03*
X7749400Y9023000D02*
D03*
X7844400Y8823000D02*
D03*
X7654400D02*
D03*
X7141600Y11890200D02*
D03*
X7236600Y11690200D02*
D03*
X7046600D02*
D03*
X7522600Y11255200D02*
D03*
X7617600Y11055200D02*
D03*
X7427600D02*
D03*
X7828200Y11985200D02*
D03*
X7923200Y11785200D02*
D03*
X7733200D02*
D03*
X10542600Y11809400D02*
D03*
X10637600Y11609400D02*
D03*
X10447600D02*
D03*
X9194800Y11809400D02*
D03*
X9289800Y11609400D02*
D03*
X9099800D02*
D03*
X9069400Y10336200D02*
D03*
X9164400Y10136200D02*
D03*
X8974400D02*
D03*
X7647000Y10310800D02*
D03*
X7742000Y10110800D02*
D03*
X7552000D02*
D03*
D14*
X9852400Y8686800D02*
D03*
X9652400Y8591800D02*
D03*
Y8781800D02*
D03*
X10232600Y8280400D02*
D03*
X10032600Y8185400D02*
D03*
Y8375400D02*
D03*
X10791400Y8545600D02*
D03*
X10591400Y8450600D02*
D03*
Y8640600D02*
D03*
X10207200Y7848600D02*
D03*
X10007200Y7753600D02*
D03*
Y7943600D02*
D03*
X9851600Y8001000D02*
D03*
X9651600Y7906000D02*
D03*
Y8096000D02*
D03*
X6808000Y8701000D02*
D03*
X6608000Y8606000D02*
D03*
Y8796000D02*
D03*
X7188200Y8294600D02*
D03*
X6988200Y8199600D02*
D03*
Y8389600D02*
D03*
X7747000Y8559800D02*
D03*
X7547000Y8464800D02*
D03*
Y8654800D02*
D03*
X7162800Y7862800D02*
D03*
X6962800Y7767800D02*
D03*
Y7957800D02*
D03*
X6807200Y8015200D02*
D03*
X6607200Y7920200D02*
D03*
Y8110200D02*
D03*
X6886800Y11663200D02*
D03*
X6686800Y11568200D02*
D03*
Y11758200D02*
D03*
X7267000Y11256800D02*
D03*
X7067000Y11161800D02*
D03*
Y11351800D02*
D03*
X7825800Y11522000D02*
D03*
X7625800Y11427000D02*
D03*
Y11617000D02*
D03*
X7241600Y10825000D02*
D03*
X7041600Y10730000D02*
D03*
Y10920000D02*
D03*
X6886000Y10977400D02*
D03*
X6686000Y10882400D02*
D03*
Y11072400D02*
D03*
X10109200Y11658600D02*
D03*
X9909200Y11563600D02*
D03*
Y11753600D02*
D03*
X10464800Y11353800D02*
D03*
X10264800Y11258800D02*
D03*
Y11448800D02*
D03*
X10464800Y10998200D02*
D03*
X10264800Y10903200D02*
D03*
Y11093200D02*
D03*
X10109200Y10972800D02*
D03*
X9909200Y10877800D02*
D03*
Y11067800D02*
D03*
X8761400Y11658600D02*
D03*
X8561400Y11563600D02*
D03*
Y11753600D02*
D03*
X9117000Y11353800D02*
D03*
X8917000Y11258800D02*
D03*
Y11448800D02*
D03*
X9117000Y10998200D02*
D03*
X8917000Y10903200D02*
D03*
Y11093200D02*
D03*
X8761400Y10972800D02*
D03*
X8561400Y10877800D02*
D03*
Y11067800D02*
D03*
X8636000Y10185400D02*
D03*
X8436000Y10090400D02*
D03*
Y10280400D02*
D03*
X8991600Y9880600D02*
D03*
X8791600Y9785600D02*
D03*
Y9975600D02*
D03*
X8991600Y9525000D02*
D03*
X8791600Y9430000D02*
D03*
Y9620000D02*
D03*
X8636000Y9499600D02*
D03*
X8436000Y9404600D02*
D03*
Y9594600D02*
D03*
X7213600Y10160000D02*
D03*
X7013600Y10065000D02*
D03*
Y10255000D02*
D03*
X7569200Y9855200D02*
D03*
X7369200Y9760200D02*
D03*
Y9950200D02*
D03*
X7569200Y9499600D02*
D03*
X7369200Y9404600D02*
D03*
Y9594600D02*
D03*
X7213600Y9474200D02*
D03*
X7013600Y9379200D02*
D03*
Y9569200D02*
D03*
X8482000Y8680600D02*
D03*
X8282000Y8585600D02*
D03*
Y8775600D02*
D03*
X8863000Y8223400D02*
D03*
X8663000Y8128400D02*
D03*
Y8318400D02*
D03*
X8837600Y8775600D02*
D03*
X8637600Y8680600D02*
D03*
Y8870600D02*
D03*
X8863000Y7856600D02*
D03*
X8663000Y7761600D02*
D03*
Y7951600D02*
D03*
X9218600Y8248800D02*
D03*
X9018600Y8153800D02*
D03*
Y8343800D02*
D03*
X8488600Y7993200D02*
D03*
X8288600Y7898200D02*
D03*
Y8088200D02*
D03*
X9964800Y10145800D02*
D03*
X9764800Y10050800D02*
D03*
Y10240800D02*
D03*
X10347400Y9652000D02*
D03*
X10147400Y9557000D02*
D03*
Y9747000D02*
D03*
X10323600Y10160000D02*
D03*
X10123600Y10065000D02*
D03*
Y10255000D02*
D03*
X10323600Y9296400D02*
D03*
X10123600Y9201400D02*
D03*
Y9391400D02*
D03*
X10677600Y9295200D02*
D03*
X10477600Y9200200D02*
D03*
Y9390200D02*
D03*
X9966400Y9448800D02*
D03*
X9766400Y9353800D02*
D03*
Y9543800D02*
D03*
D15*
X10637600Y11428800D02*
D03*
Y11278800D02*
D03*
X9289800Y11428800D02*
D03*
Y11278800D02*
D03*
X9164400Y9955600D02*
D03*
Y9805600D02*
D03*
X7742000Y9930200D02*
D03*
Y9780200D02*
D03*
X9194800Y7973200D02*
D03*
Y7823200D02*
D03*
X10566400Y9754800D02*
D03*
Y9904800D02*
D03*
D16*
X10888000Y7954800D02*
Y8015200D01*
X10832600Y7899400D02*
X10888000Y7954800D01*
X7843600Y7969000D02*
Y8015200D01*
X7788200Y7913600D02*
X7843600Y7969000D01*
X7939500Y7876300D02*
Y8083518D01*
X7799000Y7735800D02*
X7939500Y7876300D01*
X7906700Y8116318D02*
X7939500Y8083518D01*
X7906700Y8116318D02*
Y8203900D01*
X7871400Y8239200D02*
X7906700Y8203900D01*
X7867001Y10875800D02*
X7938601Y10947400D01*
X7975600D01*
X7950200Y11201400D02*
X8038700Y11112900D01*
Y10858900D02*
Y11112900D01*
X7877800Y10698000D02*
X8038700Y10858900D01*
X10896600Y8818200D02*
Y8923400D01*
X10888000Y8809600D02*
X10896600Y8818200D01*
X7844400Y8824600D02*
Y8940800D01*
X7843600Y8823800D02*
X7844400Y8824600D01*
X7937900Y11801500D02*
Y11890200D01*
X7922400Y11786000D02*
X7937900Y11801500D01*
X10485400Y9194800D02*
X10591400D01*
X10478800Y9201400D02*
X10485400Y9194800D01*
X10034600Y9956800D02*
X10080800D01*
X10131600Y9906000D01*
X7649000Y7735800D02*
X7658200Y7745000D01*
Y7913600D01*
X10693400Y7721600D02*
X10702600Y7730800D01*
Y7899400D01*
X7727800Y10698000D02*
X7737001Y10707200D01*
Y10875800D01*
X10951100Y8029100D02*
X10983900Y7996300D01*
X10223600Y10566400D02*
X10274400Y10617200D01*
X10182400Y10566400D02*
X10223600D01*
X10131600Y10515600D02*
X10182400Y10566400D01*
X8875800D02*
X8926600Y10617200D01*
X8801200Y10566400D02*
X8875800D01*
X7469200Y10591800D02*
X7507000Y10629600D01*
Y10679400D01*
X7536800Y10709200D01*
X6527800Y11522000D02*
X6537800D01*
X7429600Y10591800D02*
X7469200D01*
X7378800Y10541000D02*
X7429600Y10591800D01*
X6472600Y11383600D02*
Y11390256D01*
X6498000Y11415656D01*
Y11492200D01*
X6527800Y11522000D01*
X10871200Y9322200D02*
X10947000Y9398000D01*
X11176000D01*
X10871200Y9186200D02*
Y9322200D01*
Y9186200D02*
X10983900Y9073500D01*
Y8606000D02*
Y9073500D01*
X10923500Y8545600D02*
X10983900Y8606000D01*
X10791400Y8545600D02*
X10923500D01*
X10936800Y9652000D02*
X11176000D01*
X10759100Y9829700D02*
X10936800Y9652000D01*
X10759100Y9829700D02*
Y10242300D01*
X10690600Y10310800D02*
X10759100Y10242300D01*
X10479400Y10310800D02*
X10690600D01*
X10328600Y10160000D02*
X10479400Y10310800D01*
X10323600Y10160000D02*
X10328600D01*
X10832600Y9982200D02*
X10908800Y9906000D01*
X11176000D01*
X10832600Y9982200D02*
Y10786300D01*
X10620700Y10998200D02*
X10832600Y10786300D01*
X10464800Y10998200D02*
X10620700D01*
X9565000Y9804400D02*
X9641200Y9880600D01*
X9385700Y9625100D02*
X9565000Y9804400D01*
X9612400Y11241100D02*
Y11382000D01*
X9743600Y11513200D01*
X9748600D01*
X9377300Y11006000D02*
X9612400Y11241100D01*
X9347200Y10806200D02*
X9385700Y10767700D01*
Y9983700D02*
Y10767700D01*
Y9983700D02*
X9565000Y9804400D01*
X9641200Y9880600D02*
X9776000D01*
X9385700Y9460000D02*
Y9625100D01*
X9296400Y9370700D02*
X9385700Y9460000D01*
X9296400Y8995000D02*
Y9370700D01*
X9250200Y8948800D02*
X9296400Y8995000D01*
X9250200Y8732600D02*
Y8948800D01*
X9161600Y8644000D02*
X9250200Y8732600D01*
X8991600Y8644000D02*
X9161600D01*
X9512600Y9575800D02*
X9526800Y9590000D01*
X9448800Y9575800D02*
X9512600D01*
X9526800Y9590000D02*
X9612400D01*
X8317000Y9804400D02*
X8333000Y9788400D01*
X8415800D01*
X8445600Y9758600D01*
Y9753600D02*
Y9758600D01*
X8211000Y8214000D02*
Y8222800D01*
X8153400Y8280400D02*
X8211000Y8222800D01*
X8610600Y8991600D02*
Y9118600D01*
X8254700Y9875600D02*
X8389800D01*
X8410800Y9896600D01*
X8415800D01*
X8445600Y9926400D01*
Y9931400D01*
X9635800Y8407400D02*
X9661200Y8432800D01*
X9396800Y8407400D02*
X9635800D01*
X11022500Y10134600D02*
X11047900Y10160000D01*
X10920800Y10134600D02*
X11022500D01*
X11047900Y10160000D02*
X11176000D01*
X9525000Y10642600D02*
Y10723400D01*
X9250200Y10998200D02*
X9525000Y10723400D01*
X9117000Y10998200D02*
X9250200D01*
X8991600Y9525000D02*
X9166300D01*
X9321800Y9680500D01*
Y10414000D01*
X9245600Y10490200D02*
X9321800Y10414000D01*
X8801200Y10453600D02*
Y10566400D01*
X8801200Y10453600D02*
X8801200Y10453600D01*
X8926600Y10617200D02*
Y10733000D01*
X8926600Y10733000D01*
X8431000Y11338000D02*
X8462800Y11369800D01*
X8541200D01*
X8571000Y11399600D01*
Y11404600D01*
X8001000Y8966200D02*
Y9118600D01*
X8051800Y9550400D02*
X8142200Y9640800D01*
X8281600D01*
X8051800Y9169400D02*
Y9550400D01*
X8001000Y9118600D02*
X8051800Y9169400D01*
X7937900Y8607300D02*
X8005800Y8539400D01*
X7937900Y8607300D02*
Y9364500D01*
X7802800Y9499600D02*
X7937900Y9364500D01*
X7850200Y8532500D02*
X7950200Y8432500D01*
X7774300Y8532500D02*
X7850200D01*
X7747000Y8559800D02*
X7774300Y8532500D01*
X8026400Y8843300D02*
X8103500D01*
X8128000Y8818800D01*
X8005800Y8539400D02*
X8128000D01*
X8197600Y11036100D02*
X8275500Y11114000D01*
X8407000D01*
X8197600Y10947400D02*
Y11036100D01*
X7901800Y10436800D02*
X7955200Y10490200D01*
X7901800Y10127700D02*
Y10436800D01*
Y10127700D02*
X7955200Y10074299D01*
Y9652000D02*
Y10074299D01*
X7802800Y9499600D02*
X7955200Y9652000D01*
X7569200Y9499600D02*
X7802800D01*
X8018300Y10179300D02*
X8157600Y10040000D01*
X8275400D01*
X8018300Y10179300D02*
Y10428200D01*
X8102600Y10512500D01*
Y11338000D01*
X8026400Y11414200D02*
X8102600Y11338000D01*
X7938601Y11414200D02*
X8026400D01*
X7830800Y11522000D02*
X7938601Y11414200D01*
X7825800Y11522000D02*
X7830800D01*
X6439800Y8574000D02*
X6454000Y8559800D01*
X6299200Y8574000D02*
X6439800D01*
X6396200Y11118600D02*
X6532800D01*
X6350000Y11072400D02*
X6396200Y11118600D01*
X6431200Y10227400D02*
Y10275800D01*
X6363800Y10160000D02*
X6431200Y10227400D01*
X6509200Y10014600D02*
X6853000D01*
X6363800Y10160000D02*
X6509200Y10014600D01*
X6096000Y10160000D02*
X6363800D01*
X6483800Y9829800D02*
X6639800D01*
X6854200Y9615400D01*
X6859200D01*
X6407600Y9906000D02*
X6483800Y9829800D01*
X6096000Y9906000D02*
X6407600D01*
X9582457Y11074400D02*
X9622056Y11114000D01*
X9575800Y11074400D02*
X9582457D01*
X9622056Y11114000D02*
X9754800D01*
X6575699Y9590000D02*
X6633000Y9647300D01*
X6468200Y9590000D02*
X6575699D01*
X6324600Y8194850D02*
X6363050Y8156400D01*
X6454000D01*
X6324600Y8194850D02*
Y8255000D01*
X6406200Y9652000D02*
X6468200Y9590000D01*
X6096000Y9652000D02*
X6406200D01*
X7316800Y8943800D02*
Y9056600D01*
X7378800Y9118600D01*
X9376200Y8178800D02*
X9412800Y8142200D01*
X9372600Y8178800D02*
X9376200D01*
X9412800Y8142200D02*
X9498400D01*
X7289800Y8970800D02*
X7316800Y8943800D01*
X7378800Y9118600D02*
Y9234400D01*
X7378800Y9234400D01*
X7724000Y8153400D02*
X7843600D01*
X6444800Y9398000D02*
X6553200Y9289600D01*
X6096000Y9398000D02*
X6444800D01*
X10477600Y9200200D02*
X10478800Y9201400D01*
X10642600Y10083800D02*
Y10210800D01*
X10399800Y9902900D02*
Y10083800D01*
X10355900Y10127700D02*
X10399800Y10083800D01*
X10355900Y10127700D02*
Y10132700D01*
X10328600Y10160000D02*
X10355900Y10132700D01*
X10399800Y9902900D02*
X10457400Y9845300D01*
Y9586800D02*
Y9845300D01*
Y9586800D02*
X10487200Y9557000D01*
X10587400Y9527200D02*
X10617200Y9557000D01*
X10587400Y9495000D02*
Y9527200D01*
X10482600Y9390200D02*
X10587400Y9495000D01*
X10477600Y9390200D02*
X10482600D01*
X10677600Y9295200D02*
X10704600Y9322200D01*
Y9701200D01*
X10651000Y9754800D02*
X10704600Y9701200D01*
X10566400Y9754800D02*
X10651000D01*
X10539100Y9932100D02*
X10566400Y9904800D01*
X10539100Y9932100D02*
Y10057300D01*
X10512600Y10083800D02*
X10539100Y10057300D01*
X10347400Y9652000D02*
Y9815200D01*
X10259700Y9902900D02*
X10347400Y9815200D01*
X10291400Y10270300D02*
X10323600Y10238100D01*
X10291400Y10270300D02*
Y10384200D01*
X10261600Y10414000D02*
X10291400Y10384200D01*
X10323600Y10160000D02*
Y10238100D01*
X10259700Y9902900D02*
Y10067782D01*
X10155900Y10171582D02*
X10259700Y10067782D01*
X10155900Y10171582D02*
Y10227700D01*
X10128600Y10255000D02*
X10155900Y10227700D01*
X10123600Y10255000D02*
X10128600D01*
X10191900Y10037700D02*
X10196600Y10033000D01*
X10150900Y10037700D02*
X10191900D01*
X10123600Y10065000D02*
X10150900Y10037700D01*
X9964800Y10145800D02*
Y10376400D01*
X9764800Y10050800D02*
X9866400D01*
X10323600Y9296400D02*
Y9385800D01*
X10152400Y9557000D02*
X10323600Y9385800D01*
X10147400Y9557000D02*
X10152400D01*
X9906000Y9875600D02*
X10034600Y9747000D01*
X9906000Y9875600D02*
Y9880600D01*
X10034600Y9747000D02*
X10147400D01*
X9906000Y9697800D02*
Y9702800D01*
Y9697800D02*
X10013549Y9590250D01*
Y9551969D02*
Y9590250D01*
Y9551969D02*
X10091300Y9474219D01*
Y9418700D02*
Y9474219D01*
Y9418700D02*
X10118600Y9391400D01*
X10123600D01*
X9966400Y9219800D02*
Y9448800D01*
X9766400Y9353800D02*
X9866400D01*
X10123600Y9201400D02*
X10222000D01*
X9941400Y9194800D02*
X9966400Y9219800D01*
X9626600Y9194800D02*
X9791400D01*
X9612400Y9180600D02*
X9626600Y9194800D01*
X9485400Y9310600D02*
X9612400D01*
X9761400Y9543800D02*
X9766400D01*
X9707400Y9489800D02*
X9761400Y9543800D01*
X9642200Y9489800D02*
X9707400D01*
X9612400Y9460000D02*
X9642200Y9489800D01*
X9776000Y9697800D02*
Y9702800D01*
X9746200Y9668000D02*
X9776000Y9697800D01*
X9695400Y9668000D02*
X9746200D01*
X9617400Y9590000D02*
X9695400Y9668000D01*
X9612400Y9590000D02*
X9617400D01*
X10131600Y10414000D02*
Y10515600D01*
X9776000Y9880600D02*
Y9885600D01*
X9746200Y9915400D02*
X9776000Y9885600D01*
X9706600Y9915400D02*
X9746200D01*
X9617400Y10004600D02*
X9706600Y9915400D01*
X9612400Y10004600D02*
X9617400D01*
X9485400Y10284000D02*
X9612400D01*
X9737500Y10213500D02*
X9764800Y10240800D01*
X9696300Y10213500D02*
X9737500D01*
X9617400Y10134600D02*
X9696300Y10213500D01*
X9612400Y10134600D02*
X9617400D01*
X9941400Y10399800D02*
X9964800Y10376400D01*
X9626600Y10399800D02*
X9791400D01*
X9612400Y10414000D02*
X9626600Y10399800D01*
X9116100Y7823800D02*
X9116700Y7823200D01*
X9048400Y7823800D02*
X9116100D01*
X9018600Y7853600D02*
X9048400Y7823800D01*
X9116700Y7823200D02*
X9194800D01*
X8991600Y8923400D02*
X9118600D01*
X9194800Y7973200D02*
X9218600Y7997000D01*
Y8248800D01*
X8991600Y8370800D02*
X9018600Y8343800D01*
X8991600Y8370800D02*
Y8514000D01*
Y8644000D02*
Y8793400D01*
X8973800Y8775600D02*
X8991600Y8793400D01*
X8837600Y8775600D02*
X8973800D01*
X8852300Y7867300D02*
X8863000Y7856600D01*
X8852300Y7867300D02*
Y8212700D01*
X8863000Y8223400D01*
X9018600Y8153800D02*
X9118600D01*
X8915400Y7983600D02*
X9018600D01*
X8859700Y8223400D02*
X8863000D01*
X8832400Y8250700D02*
X8859700Y8223400D01*
X8832400Y8250700D02*
Y8473000D01*
X8802600Y8502800D02*
X8832400Y8473000D01*
X8637600Y8870600D02*
X8642600D01*
X8669900Y8843300D01*
Y8792937D02*
Y8843300D01*
Y8792937D02*
X8775300Y8687537D01*
Y8530100D02*
Y8687537D01*
Y8530100D02*
X8802600Y8502800D01*
X8656800Y8661400D02*
X8712200D01*
X8637600Y8680600D02*
X8656800Y8661400D01*
X8571700Y8502800D02*
X8672600D01*
X8482000Y8680600D02*
Y8909600D01*
X8457000Y8934600D02*
X8482000Y8909600D01*
X8447000Y8426600D02*
X8549800D01*
X8658000Y8318400D01*
X8663000D01*
X8658000Y7951600D02*
X8663000D01*
X8571700Y8037900D02*
X8658000Y7951600D01*
X8571700Y8037900D02*
Y8119099D01*
X8447000Y8243800D02*
X8571700Y8119099D01*
X8447000Y8243800D02*
Y8248800D01*
X8663000Y8128400D02*
X8763000D01*
X8457000Y7740800D02*
X8484300Y7768100D01*
Y7988900D01*
X8488600Y7993200D01*
X8663000Y7761600D02*
X8763000D01*
X8142200Y7740800D02*
X8307000D01*
X8128000Y7726600D02*
X8142200Y7740800D01*
X8288600Y7898200D02*
X8289800Y7899400D01*
X8386600D01*
X8016800Y7856600D02*
X8128000D01*
X8283600Y8088200D02*
X8288600D01*
X8231200Y8035800D02*
X8283600Y8088200D01*
X8157800Y8035800D02*
X8231200D01*
X8128000Y8006000D02*
X8157800Y8035800D01*
X8317000Y8243800D02*
Y8248800D01*
X8287200Y8214000D02*
X8317000Y8243800D01*
X8211000Y8214000D02*
X8287200D01*
X8133000Y8136000D02*
X8211000Y8214000D01*
X8128000Y8136000D02*
X8133000D01*
X8317000Y8426600D02*
Y8431600D01*
X8287200Y8461400D02*
X8317000Y8431600D01*
X8211000Y8461400D02*
X8287200D01*
X8133000Y8539400D02*
X8211000Y8461400D01*
X8128000Y8539400D02*
X8133000D01*
X8282000Y8585600D02*
X8282400Y8585200D01*
X8382000D01*
X8254700Y8748300D02*
X8282000Y8775600D01*
X8211900Y8748300D02*
X8254700D01*
X8133000Y8669400D02*
X8211900Y8748300D01*
X8128000Y8669400D02*
X8133000D01*
X8292800Y8948800D02*
X8307000Y8934600D01*
X8128000Y8948800D02*
X8292800D01*
X8736400Y11912600D02*
X8761400Y11887600D01*
Y11658600D02*
Y11887600D01*
X8561400Y11563600D02*
X8661400D01*
X8534100Y11726300D02*
X8561400Y11753600D01*
X8488900Y11726300D02*
X8534100D01*
X8405800Y11643200D02*
X8488900Y11726300D01*
X8400800Y11643200D02*
X8405800D01*
X8280400Y11796800D02*
X8400800D01*
X8572200Y11926800D02*
X8586400Y11912600D01*
X8400800Y11926800D02*
X8572200D01*
X8761400Y10743800D02*
Y10972800D01*
X8736400Y10718800D02*
X8761400Y10743800D01*
X8561400Y10877800D02*
X8661400D01*
X8556400Y11067800D02*
X8561400D01*
X8502400Y11013800D02*
X8556400Y11067800D01*
X8436800Y11013800D02*
X8502400D01*
X8407000Y10984000D02*
X8436800Y11013800D01*
X8305800Y10834600D02*
X8407000D01*
X8572200Y10704600D02*
X8586400Y10718800D01*
X8407000Y10704600D02*
X8572200D01*
X8917000Y11258800D02*
X9017000D01*
X9117000Y10998200D02*
Y11353800D01*
X8923600Y10896600D02*
X9017000D01*
X8917000Y10903200D02*
X8923600Y10896600D01*
X8479600Y11439400D02*
X8541200D01*
X8400800Y11513200D02*
X8405800D01*
X8571000Y11404600D02*
Y11409600D01*
X8405800Y11513200D02*
X8479600Y11439400D01*
X8541200D02*
X8571000Y11409600D01*
X8889700Y11421500D02*
X8917000Y11448800D01*
X8717900Y11421500D02*
X8889700D01*
X8701000Y11404600D02*
X8717900Y11421500D01*
X8571000Y11221800D02*
Y11226800D01*
X8541200Y11192000D02*
X8571000Y11221800D01*
X8490000Y11192000D02*
X8541200D01*
X8407000Y11114000D02*
X8412000D01*
X8490000Y11192000D01*
X8807300Y11120500D02*
X8889700D01*
X8735800Y11192000D02*
X8807300Y11120500D01*
X8889700D02*
X8917000Y11093200D01*
X8730800Y11192000D02*
X8735800D01*
X8701000Y11221800D02*
Y11226800D01*
Y11221800D02*
X8730800Y11192000D01*
X9117000Y10920100D02*
Y10998200D01*
X9086400Y10889500D02*
X9117000Y10920100D01*
X9086400Y10762800D02*
Y10889500D01*
X9056600Y10733000D02*
X9086400Y10762800D01*
X9194800Y11523800D02*
Y11809400D01*
Y11523800D02*
X9289800Y11428800D01*
Y11609400D02*
Y11709400D01*
X9099800Y11609400D02*
Y11614400D01*
X8995000Y11719200D02*
X9099800Y11614400D01*
X8956400Y11719200D02*
X8995000D01*
X8926600Y11749000D02*
X8956400Y11719200D01*
X9117000Y11353800D02*
Y11433600D01*
X8931600Y11619000D02*
X9117000Y11433600D01*
X8926600Y11619000D02*
X8931600D01*
X8926600Y11926800D02*
Y12039600D01*
X8926600Y11926800D02*
X8926600Y11926800D01*
X9367900Y11356900D02*
Y11775182D01*
X9230482Y11912600D02*
X9367900Y11775182D01*
X9289800Y11278800D02*
X9367900Y11356900D01*
X9070800Y11912600D02*
X9230482D01*
X9056600Y11926800D02*
X9070800Y11912600D01*
X8611000Y10439400D02*
X8636000Y10414400D01*
Y10185400D02*
Y10414400D01*
X8436000Y10090400D02*
X8536000D01*
X8408700Y10253100D02*
X8436000Y10280400D01*
X8363500Y10253100D02*
X8408700D01*
X8280400Y10170000D02*
X8363500Y10253100D01*
X8275400Y10170000D02*
X8280400D01*
X8155000Y10323600D02*
X8275400D01*
X8446800Y10453600D02*
X8461000Y10439400D01*
X8275400Y10453600D02*
X8446800D01*
X8636000Y9270600D02*
Y9499600D01*
X8611000Y9245600D02*
X8636000Y9270600D01*
X8436000Y9404600D02*
X8536000D01*
X8431000Y9594600D02*
X8436000D01*
X8377000Y9540600D02*
X8431000Y9594600D01*
X8311400Y9540600D02*
X8377000D01*
X8281600Y9510800D02*
X8311400Y9540600D01*
X8180400Y9361400D02*
X8281600D01*
X8446800Y9231400D02*
X8461000Y9245600D01*
X8281600Y9231400D02*
X8446800D01*
X8791600Y9785600D02*
X8891600D01*
X8991600Y9525000D02*
Y9880600D01*
X8798200Y9423400D02*
X8891600D01*
X8791600Y9430000D02*
X8798200Y9423400D01*
X8354200Y9966200D02*
X8415800D01*
X8275400Y10040000D02*
X8280400D01*
X8445600Y9931400D02*
Y9936400D01*
X8280400Y10040000D02*
X8354200Y9966200D01*
X8415800D02*
X8445600Y9936400D01*
X8764300Y9948300D02*
X8791600Y9975600D01*
X8592500Y9948300D02*
X8764300D01*
X8575600Y9931400D02*
X8592500Y9948300D01*
X8445600Y9748600D02*
Y9753600D01*
X8415800Y9718800D02*
X8445600Y9748600D01*
X8364600Y9718800D02*
X8415800D01*
X8281600Y9640800D02*
X8286600D01*
X8364600Y9718800D01*
X8681900Y9647300D02*
X8764300D01*
X8610400Y9718800D02*
X8681900Y9647300D01*
X8764300D02*
X8791600Y9620000D01*
X8605400Y9718800D02*
X8610400D01*
X8575600Y9748600D02*
Y9753600D01*
Y9748600D02*
X8605400Y9718800D01*
X8991600Y9446900D02*
Y9525000D01*
X8961000Y9416300D02*
X8991600Y9446900D01*
X8961000Y9289600D02*
Y9416300D01*
X8931200Y9259800D02*
X8961000Y9289600D01*
X8801200Y9259800D02*
X8801200Y9259800D01*
X8801200Y9144000D02*
Y9259800D01*
X9069400Y10050600D02*
Y10336200D01*
Y10050600D02*
X9164400Y9955600D01*
Y10136200D02*
Y10236200D01*
X8974400Y10136200D02*
Y10141200D01*
X8869600Y10246000D02*
X8974400Y10141200D01*
X8831000Y10246000D02*
X8869600D01*
X8801200Y10275800D02*
X8831000Y10246000D01*
X8991600Y9880600D02*
Y9960400D01*
X8806200Y10145800D02*
X8991600Y9960400D01*
X8801200Y10145800D02*
X8806200D01*
X9242500Y9883700D02*
Y10301982D01*
X9105082Y10439400D02*
X9242500Y10301982D01*
X9164400Y9805600D02*
X9242500Y9883700D01*
X8945400Y10439400D02*
X9105082D01*
X8931200Y10453600D02*
X8945400Y10439400D01*
X7188600Y10414000D02*
X7213600Y10389000D01*
Y10160000D02*
Y10389000D01*
X7013600Y10065000D02*
X7113600D01*
X6986300Y10227700D02*
X7013600Y10255000D01*
X6941100Y10227700D02*
X6986300D01*
X6858000Y10144600D02*
X6941100Y10227700D01*
X6853000Y10144600D02*
X6858000D01*
X6732600Y10298200D02*
X6853000D01*
X7024400Y10428200D02*
X7038600Y10414000D01*
X6853000Y10428200D02*
X7024400D01*
X7213600Y9245200D02*
Y9474200D01*
X7188600Y9220200D02*
X7213600Y9245200D01*
X7013600Y9379200D02*
X7113600D01*
X7008600Y9569200D02*
X7013600D01*
X6954600Y9515200D02*
X7008600Y9569200D01*
X6889000Y9515200D02*
X6954600D01*
X6859200Y9485400D02*
X6889000Y9515200D01*
X6758000Y9336000D02*
X6859200D01*
X7024400Y9206000D02*
X7038600Y9220200D01*
X6859200Y9206000D02*
X7024400D01*
X7369200Y9760200D02*
X7469200D01*
X7569200Y9499600D02*
Y9855200D01*
X7375800Y9398000D02*
X7469200D01*
X7369200Y9404600D02*
X7375800Y9398000D01*
X6931800Y9940800D02*
X6993400D01*
X6853000Y10014600D02*
X6858000D01*
X7023200Y9906000D02*
Y9911000D01*
X6858000Y10014600D02*
X6931800Y9940800D01*
X6993400D02*
X7023200Y9911000D01*
X7341900Y9922900D02*
X7369200Y9950200D01*
X7170100Y9922900D02*
X7341900D01*
X7153200Y9906000D02*
X7170100Y9922900D01*
X7023200Y9723200D02*
Y9728200D01*
X6993400Y9693400D02*
X7023200Y9723200D01*
X6942200Y9693400D02*
X6993400D01*
X6859200Y9615400D02*
X6864200D01*
X6942200Y9693400D01*
X7259500Y9621900D02*
X7341900D01*
X7188000Y9693400D02*
X7259500Y9621900D01*
X7341900D02*
X7369200Y9594600D01*
X7183000Y9693400D02*
X7188000D01*
X7153200Y9723200D02*
Y9728200D01*
Y9723200D02*
X7183000Y9693400D01*
X7569200Y9421500D02*
Y9499600D01*
X7538600Y9390900D02*
X7569200Y9421500D01*
X7538600Y9264200D02*
Y9390900D01*
X7508800Y9234400D02*
X7538600Y9264200D01*
X7647000Y10025200D02*
Y10310800D01*
Y10025200D02*
X7742000Y9930200D01*
Y10110800D02*
Y10210800D01*
X7552000Y10110800D02*
Y10115800D01*
X7447200Y10220600D02*
X7552000Y10115800D01*
X7408600Y10220600D02*
X7447200D01*
X7378800Y10250400D02*
X7408600Y10220600D01*
X7569200Y9855200D02*
Y9935000D01*
X7383800Y10120400D02*
X7569200Y9935000D01*
X7378800Y10120400D02*
X7383800D01*
X7378800Y10428200D02*
Y10541000D01*
X7378800Y10428200D02*
X7378800Y10428200D01*
X7820100Y9858300D02*
Y10276582D01*
X7682682Y10414000D02*
X7820100Y10276582D01*
X7742000Y9780200D02*
X7820100Y9858300D01*
X7523000Y10414000D02*
X7682682D01*
X7508800Y10428200D02*
X7523000Y10414000D01*
X10637600Y11609400D02*
Y11709400D01*
X10404400Y11926800D02*
X10418600Y11912600D01*
X10578282D01*
X10715700Y11775182D01*
Y11356900D02*
Y11775182D01*
X10637600Y11278800D02*
X10715700Y11356900D01*
X10542600Y11523800D02*
Y11809400D01*
Y11523800D02*
X10637600Y11428800D01*
X10279400Y11619000D02*
X10464800Y11433600D01*
Y10998200D02*
Y11353800D01*
X10434200Y10889500D02*
X10464800Y10920100D01*
X10434200Y10762800D02*
Y10889500D01*
X10404400Y10733000D02*
X10434200Y10762800D01*
X10464800Y10920100D02*
Y10998200D01*
X10237500Y11120500D02*
X10264800Y11093200D01*
X10155100Y11120500D02*
X10237500D01*
X10083600Y11192000D02*
X10155100Y11120500D01*
X10078600Y11192000D02*
X10083600D01*
X10048800Y11221800D02*
X10078600Y11192000D01*
X10048800Y11221800D02*
Y11226800D01*
X10264800Y11258800D02*
X10364800D01*
X10237500Y11421500D02*
X10264800Y11448800D01*
X10065700Y11421500D02*
X10237500D01*
X10048800Y11404600D02*
X10065700Y11421500D01*
X10464800Y11353800D02*
Y11433600D01*
X10274400Y11619000D02*
X10279400D01*
X10447600Y11609400D02*
Y11614400D01*
X10342800Y11719200D02*
X10447600Y11614400D01*
X10304200Y11719200D02*
X10342800D01*
X10274400Y11749000D02*
X10304200Y11719200D01*
X10274400Y11926800D02*
X10274400Y11926800D01*
Y12039600D01*
X10109200Y11658600D02*
Y11887600D01*
X10084200Y11912600D02*
X10109200Y11887600D01*
X10264800Y10903200D02*
X10271400Y10896600D01*
X10364800D01*
X10274400Y10733000D02*
X10274400Y10733000D01*
X10274400Y10617200D02*
Y10733000D01*
X9909200Y11563600D02*
X10009200D01*
X9628200Y11796800D02*
X9748600D01*
X9909200Y10877800D02*
X10009200D01*
X9653600Y10834600D02*
X9754800D01*
X10084200Y10718800D02*
X10109200Y10743800D01*
Y10972800D01*
X9920000Y10704600D02*
X9934200Y10718800D01*
X9754800Y10704600D02*
X9920000D01*
X9904200Y11067800D02*
X9909200D01*
X9850200Y11013800D02*
X9904200Y11067800D01*
X9784600Y11013800D02*
X9850200D01*
X9754800Y10984000D02*
X9784600Y11013800D01*
X9918800Y11221800D02*
Y11226800D01*
X9889000Y11192000D02*
X9918800Y11221800D01*
X9837800Y11192000D02*
X9889000D01*
X9759800Y11114000D02*
X9837800Y11192000D01*
X9754800Y11114000D02*
X9759800D01*
X9918800Y11404600D02*
Y11409600D01*
X9889000Y11439400D02*
X9918800Y11409600D01*
X9827400Y11439400D02*
X9889000D01*
X9753600Y11513200D02*
X9827400Y11439400D01*
X9748600Y11513200D02*
X9753600D01*
X9881900Y11726300D02*
X9909200Y11753600D01*
X9836700Y11726300D02*
X9881900D01*
X9753600Y11643200D02*
X9836700Y11726300D01*
X9748600Y11643200D02*
X9753600D01*
X9920000Y11926800D02*
X9934200Y11912600D01*
X9748600Y11926800D02*
X9920000D01*
X9826200Y8940800D02*
X9852400Y8914600D01*
Y8686800D02*
Y8914600D01*
X9652400Y8591800D02*
X9752400D01*
X9652400Y8591800D02*
X9652400Y8591800D01*
X9625100Y8754500D02*
X9652400Y8781800D01*
X9582300Y8754500D02*
X9625100D01*
X9503400Y8675600D02*
X9582300Y8754500D01*
X9498400Y8675600D02*
X9503400D01*
X9479200Y8825000D02*
X9488800Y8834600D01*
X9498400Y8825000D01*
X9396800D02*
X9479200D01*
X9662000Y8955000D02*
X9676200Y8940800D01*
X9498400Y8955000D02*
X9662000D01*
X9851600Y7771200D02*
Y8001000D01*
X9827400Y7747000D02*
X9851600Y7771200D01*
X9651600Y7906000D02*
X9752400D01*
X9646600Y8096000D02*
X9651600D01*
X9592600Y8042000D02*
X9646600Y8096000D01*
X9528200Y8042000D02*
X9592600D01*
X9498400Y8012200D02*
X9528200Y8042000D01*
X9396800Y7862800D02*
X9498400D01*
X9512600Y7747000D02*
X9677400D01*
X9498400Y7732800D02*
X9512600Y7747000D01*
X10134500Y8881500D02*
X10139500D01*
X10232600Y8280400D02*
X10235000Y8282800D01*
X10032600Y8185400D02*
X10033100D01*
X10060400Y8158100D01*
Y8096000D02*
Y8158100D01*
X10786400Y8545600D02*
X10791400D01*
X10591400Y8450600D02*
X10692200D01*
X10586400Y8640600D02*
X10591400D01*
X10497900Y8552100D02*
X10586400Y8640600D01*
X10497900Y8288500D02*
Y8552100D01*
X10488200Y8278800D02*
X10497900Y8288500D01*
X10207200Y7848600D02*
X10212200D01*
X10202200D02*
X10207200D01*
X10007200Y7753600D02*
X10108000D01*
X10564100Y8667900D02*
X10591400Y8640600D01*
X10366200Y8799600D02*
X10497900Y8667900D01*
X10564100D01*
X10107200Y8908800D02*
Y8913800D01*
Y8908800D02*
X10134500Y8881500D01*
X10361200Y8799600D02*
X10366200D01*
X10139500Y8881500D02*
X10221400Y8799600D01*
X10361200D01*
X10360500Y8930300D02*
Y9037800D01*
Y8930300D02*
X10361200Y8929600D01*
X10791400Y8292200D02*
Y8545600D01*
X10768400Y8269200D02*
X10791400Y8292200D01*
X10768400Y8139200D02*
X10888000D01*
X10149500Y8206050D02*
X10174900Y8180650D01*
Y7875900D02*
Y8180650D01*
X10146800Y8545600D02*
X10149500Y8542900D01*
Y8206050D02*
Y8542900D01*
X10174900Y7875900D02*
X10202200Y7848600D01*
X10012200Y8713800D02*
X10016800Y8709200D01*
Y8545600D02*
Y8709200D01*
X10360500Y7924800D02*
Y7929800D01*
X10232600Y8057700D02*
X10360500Y7929800D01*
X10232600Y8057700D02*
Y8280400D01*
X10460700Y7954600D02*
X10490500Y7924800D01*
X10460700Y7954600D02*
Y8006300D01*
X10393200Y8073800D02*
Y8078800D01*
Y8073800D02*
X10460700Y8006300D01*
X10388200Y8574000D02*
X10393200D01*
X10363400Y8544200D02*
X10393200Y8574000D01*
X10280701Y8681500D02*
X10388200Y8574000D01*
X10295101Y8544200D02*
X10363400D01*
X10260400Y8509500D02*
X10295101Y8544200D01*
X10260400Y8377400D02*
Y8509500D01*
X10235000Y8282800D02*
Y8352000D01*
X10229500Y8681500D02*
X10280701D01*
X10235000Y8352000D02*
X10260400Y8377400D01*
X10202200Y8708800D02*
Y8713800D01*
Y8708800D02*
X10229500Y8681500D01*
X10393200Y8352000D02*
Y8444000D01*
X10583200Y7848600D02*
Y8078800D01*
X10564400Y7829800D02*
X10583200Y7848600D01*
X10412800Y7829800D02*
X10564400D01*
X10387400Y7804400D02*
X10412800Y7829800D01*
X10293200Y7767600D02*
X10342600D01*
X10387400Y7747800D02*
Y7804400D01*
X10372400Y7732800D02*
X10387400Y7747800D01*
X10342600Y7767600D02*
X10372400Y7737800D01*
Y7732800D02*
Y7737800D01*
X10212200Y7848600D02*
X10293200Y7767600D01*
X10502400Y7615400D02*
Y7732800D01*
X9631400Y8467600D02*
X9661200Y8437800D01*
Y8432800D02*
Y8437800D01*
X9581400Y8467600D02*
X9631400D01*
X9498400Y8545600D02*
X9503400D01*
X9581400Y8467600D01*
X10005300Y8402700D02*
X10032600Y8375400D01*
X9821000Y8402700D02*
X10005300D01*
X9791200Y8432500D02*
X9821000Y8402700D01*
X9791200Y8432500D02*
Y8432800D01*
X9661200Y8250000D02*
Y8255000D01*
X9631400Y8220200D02*
X9661200Y8250000D01*
X9581400Y8220200D02*
X9631400D01*
X9503400Y8142200D02*
X9581400Y8220200D01*
X9498400Y8142200D02*
X9503400D01*
X10007200Y7943600D02*
Y8034000D01*
X9791200Y8250000D02*
X10007200Y8034000D01*
X9791200Y8250000D02*
Y8255000D01*
X10915800Y8225000D02*
X10951100Y8189700D01*
Y8029100D02*
Y8189700D01*
X10983900Y7862100D02*
Y7996300D01*
X10793800Y8733000D02*
X10870000Y8656800D01*
X10793800Y8733000D02*
Y9008800D01*
X10843400Y7721600D02*
X10983900Y7862100D01*
X10888000Y8809600D02*
X10888800Y8808800D01*
X10698800D02*
Y8813800D01*
X10612800Y8899800D02*
X10698800Y8813800D01*
X10568800Y8899800D02*
X10612800D01*
X10539000Y8929600D02*
X10568800Y8899800D01*
X10617901Y8725700D02*
X10645182D01*
X10544000Y8799600D02*
X10617901Y8725700D01*
X10645182D02*
X10759100Y8611782D01*
X10539000Y8799600D02*
X10544000D01*
X10759100Y8572900D02*
Y8611782D01*
Y8572900D02*
X10786400Y8545600D01*
X6781800Y8955000D02*
X6808000Y8928800D01*
Y8701000D02*
Y8928800D01*
X6608000Y8606000D02*
X6708000D01*
X6608000Y8606000D02*
X6608000Y8606000D01*
X6580700Y8768700D02*
X6608000Y8796000D01*
X6537900Y8768700D02*
X6580700D01*
X6459000Y8689800D02*
X6537900Y8768700D01*
X6454000Y8689800D02*
X6459000D01*
X6434799Y8839200D02*
X6444400Y8848800D01*
X6454000Y8839200D01*
X6352400D02*
X6434799D01*
X6617600Y8969200D02*
X6631800Y8955000D01*
X6454000Y8969200D02*
X6617600D01*
X6807200Y7785400D02*
Y8015200D01*
X6783000Y7761200D02*
X6807200Y7785400D01*
X6607200Y7920200D02*
X6708000D01*
X6602200Y8110200D02*
X6607200D01*
X6548200Y8056200D02*
X6602200Y8110200D01*
X6483800Y8056200D02*
X6548200D01*
X6454000Y8026400D02*
X6483800Y8056200D01*
X6352400Y7877000D02*
X6454000D01*
X6468200Y7761200D02*
X6633000D01*
X6454000Y7747000D02*
X6468200Y7761200D01*
X7090100Y8895700D02*
X7095100D01*
X7188200Y8294600D02*
X7190600Y8297000D01*
X6988200Y8199600D02*
X6988700D01*
X7016000Y8172300D01*
Y8110200D02*
Y8172300D01*
X7742000Y8559800D02*
X7747000D01*
X7547000Y8464800D02*
X7647800D01*
X7542000Y8654800D02*
X7547000D01*
X7453499Y8566300D02*
X7542000Y8654800D01*
X7453499Y8302699D02*
Y8566300D01*
X7443800Y8293000D02*
X7453499Y8302699D01*
X7162800Y7862800D02*
X7167800D01*
X7157800D02*
X7162800D01*
X6962800Y7767800D02*
X7063600D01*
X7519700Y8682100D02*
X7547000Y8654800D01*
X7321800Y8813800D02*
X7453499Y8682100D01*
X7519700D01*
X7062800Y8923000D02*
Y8928000D01*
Y8923000D02*
X7090100Y8895700D01*
X7316800Y8813800D02*
X7321800D01*
X7095100Y8895700D02*
X7177000Y8813800D01*
X7316800D01*
X7747000Y8306400D02*
Y8559800D01*
X7724000Y8283400D02*
X7747000Y8306400D01*
X7105100Y8220250D02*
X7130500Y8194850D01*
Y7890100D02*
Y8194850D01*
X7102400Y8559800D02*
X7105100Y8557100D01*
Y8220250D02*
Y8557100D01*
X7130500Y7890100D02*
X7157800Y7862800D01*
X6967800Y8728000D02*
X6972400Y8723400D01*
Y8559800D02*
Y8723400D01*
X7316100Y7939000D02*
Y7944000D01*
X7188200Y8071900D02*
X7316100Y7944000D01*
X7188200Y8071900D02*
Y8294600D01*
X7416300Y7968800D02*
X7446100Y7939000D01*
X7416300Y7968800D02*
Y8020500D01*
X7348800Y8088000D02*
Y8093000D01*
Y8088000D02*
X7416300Y8020500D01*
X7343800Y8588200D02*
X7348800D01*
X7319000Y8558400D02*
X7348800Y8588200D01*
X7236300Y8695700D02*
X7343800Y8588200D01*
X7250700Y8558400D02*
X7319000D01*
X7216000Y8523699D02*
X7250700Y8558400D01*
X7216000Y8391600D02*
Y8523699D01*
X7190600Y8297000D02*
Y8366200D01*
X7185100Y8695700D02*
X7236300D01*
X7190600Y8366200D02*
X7216000Y8391600D01*
X7157800Y8723000D02*
Y8728000D01*
Y8723000D02*
X7185100Y8695700D01*
X7348800Y8366200D02*
Y8458200D01*
X7538800Y7862800D02*
Y8093000D01*
X7520000Y7844000D02*
X7538800Y7862800D01*
X7368400Y7844000D02*
X7520000D01*
X7343000Y7818600D02*
X7368400Y7844000D01*
X7248800Y7781800D02*
X7298200D01*
X7343000Y7762000D02*
Y7818600D01*
X7328000Y7747000D02*
X7343000Y7762000D01*
X7298200Y7781800D02*
X7328000Y7752000D01*
Y7747000D02*
Y7752000D01*
X7167800Y7862800D02*
X7248800Y7781800D01*
X7458000Y7629600D02*
Y7747000D01*
X6587000Y8481800D02*
X6616800Y8452000D01*
Y8447000D02*
Y8452000D01*
X6537000Y8481800D02*
X6587000D01*
X6454000Y8559800D02*
X6459000D01*
X6537000Y8481800D01*
X6960900Y8416900D02*
X6988200Y8389600D01*
X6776600Y8416900D02*
X6960900D01*
X6746800Y8446700D02*
X6776600Y8416900D01*
X6746800Y8446700D02*
Y8447000D01*
X6616800Y8264200D02*
Y8269200D01*
X6587000Y8234400D02*
X6616800Y8264200D01*
X6537000Y8234400D02*
X6587000D01*
X6459000Y8156400D02*
X6537000Y8234400D01*
X6454000Y8156400D02*
X6459000D01*
X6962800Y7957800D02*
Y8048200D01*
X6746800Y8264200D02*
X6962800Y8048200D01*
X6746800Y8264200D02*
Y8269200D01*
X7749400Y8747200D02*
X7825600Y8671000D01*
X7749400Y8747200D02*
Y9023000D01*
X7843600Y8823800D02*
X7844400Y8823000D01*
X7654400D02*
Y8828000D01*
X7568400Y8914000D02*
X7654400Y8828000D01*
X7524400Y8914000D02*
X7568400D01*
X7494600Y8943800D02*
X7524400Y8914000D01*
X7573500Y8739900D02*
X7600782D01*
X7499600Y8813800D02*
X7573500Y8739900D01*
X7600782D02*
X7714700Y8625982D01*
X7494600Y8813800D02*
X7499600D01*
X7714700Y8587100D02*
Y8625982D01*
Y8587100D02*
X7742000Y8559800D01*
X7828200Y11709400D02*
Y11985200D01*
Y11709400D02*
X7904400Y11633200D01*
X7922400Y11786000D02*
X7923200Y11785200D01*
X7733200D02*
Y11790200D01*
X7647200Y11876200D02*
X7733200Y11790200D01*
X7603200Y11876200D02*
X7647200D01*
X7573400Y11906000D02*
X7603200Y11876200D01*
X7820800Y11522000D02*
X7825800D01*
X7793500Y11549300D02*
X7820800Y11522000D01*
X7793500Y11549300D02*
Y11588182D01*
X7679583Y11702100D02*
X7793500Y11588182D01*
X7652301Y11702100D02*
X7679583D01*
X7578400Y11776000D02*
X7652301Y11702100D01*
X7573400Y11776000D02*
X7578400D01*
X7532300Y11528500D02*
X7620800Y11617000D01*
X7532300Y11264899D02*
Y11528500D01*
Y11644300D02*
X7598500D01*
X7400600Y11776000D02*
X7532300Y11644300D01*
X7825800Y11268600D02*
Y11522000D01*
X7802800Y11245600D02*
X7825800Y11268600D01*
X7625800Y11427000D02*
X7726600D01*
X7620800Y11617000D02*
X7625800D01*
X7522600Y11255200D02*
X7532300Y11264899D01*
X7427600Y11328400D02*
Y11420400D01*
X7802800Y11115600D02*
X7922400D01*
X7617600Y10825000D02*
Y11055200D01*
X7598800Y10806200D02*
X7617600Y10825000D01*
X7447200Y10806200D02*
X7598800D01*
X7421800Y10780800D02*
X7447200Y10806200D01*
X7421800Y10724200D02*
Y10780800D01*
X7406800Y10709200D02*
X7421800Y10724200D01*
X7495100Y10931000D02*
X7524900Y10901200D01*
X7495100Y10931000D02*
Y10982700D01*
X7427600Y11050200D02*
X7495100Y10982700D01*
X7427600Y11050200D02*
Y11055200D01*
X7406800Y10709200D02*
Y10714200D01*
X7377000Y10744000D02*
X7406800Y10714200D01*
X7327600Y10744000D02*
X7377000D01*
X7246600Y10825000D02*
X7327600Y10744000D01*
X7241600Y10825000D02*
X7246600D01*
X7267000Y11034100D02*
X7394900Y10906200D01*
Y10901200D02*
Y10906200D01*
X7267000Y11034100D02*
Y11256800D01*
X7269400Y11259200D02*
Y11328400D01*
X7267000Y11256800D02*
X7269400Y11259200D01*
Y11328400D02*
X7294800Y11353800D01*
Y11485900D01*
X7329501Y11520600D01*
X7397800D01*
X7427600Y11550400D01*
X7094800Y11072400D02*
Y11134500D01*
X7067500Y11161800D02*
X7094800Y11134500D01*
X7067000Y11161800D02*
X7067500D01*
X7041600Y10920000D02*
Y11010400D01*
X6825600Y11226400D02*
X7041600Y11010400D01*
X6825600Y11226400D02*
Y11231400D01*
X7236600Y10825000D02*
X7241600D01*
X7209300Y10852300D02*
X7236600Y10825000D01*
X7209300Y10852300D02*
Y11157050D01*
X7183900Y11182450D02*
X7209300Y11157050D01*
X7183900Y11182450D02*
Y11519300D01*
X7181201Y11522000D02*
X7183900Y11519300D01*
X7394900Y11906700D02*
X7395600Y11906000D01*
X7394900Y11906700D02*
Y12014200D01*
X7598500Y11644300D02*
X7625800Y11617000D01*
X7395600Y11776000D02*
X7400600D01*
X7255801D02*
X7395600D01*
X7173901Y11857900D02*
X7255801Y11776000D01*
X7168901Y11857900D02*
X7173901D01*
X7141600Y11885200D02*
X7168901Y11857900D01*
X7141600Y11885200D02*
Y11890200D01*
X7422600Y11550400D02*
X7427600D01*
X7315101Y11657900D02*
X7422600Y11550400D01*
X7263900Y11657900D02*
X7315101D01*
X7236600Y11685200D02*
X7263900Y11657900D01*
X7236600Y11685200D02*
Y11690200D01*
X7046600D02*
X7051201Y11685600D01*
Y11522000D02*
Y11685600D01*
X7039700Y11379100D02*
X7067000Y11351800D01*
X6855400Y11379100D02*
X7039700D01*
X6825600Y11408900D02*
X6855400Y11379100D01*
X6825600Y11408900D02*
Y11409200D01*
X6695600D02*
Y11414200D01*
X6665800Y11444000D02*
X6695600Y11414200D01*
X6615800Y11444000D02*
X6665800D01*
X6537800Y11522000D02*
X6615800Y11444000D01*
X6695600Y11226400D02*
Y11231400D01*
X6665800Y11196600D02*
X6695600Y11226400D01*
X6615800Y11196600D02*
X6665800D01*
X6537800Y11118600D02*
X6615800Y11196600D01*
X6532800Y11118600D02*
X6537800D01*
X7041600Y10730000D02*
X7142400D01*
X6886000Y10747600D02*
Y10977400D01*
X6861800Y10723400D02*
X6886000Y10747600D01*
X6686000Y10882400D02*
X6786800D01*
X6431200Y10839200D02*
X6532800D01*
X6547000Y10723400D02*
X6711800D01*
X6532800Y10709200D02*
X6547000Y10723400D01*
X6681000Y11072400D02*
X6686000D01*
X6627000Y11018400D02*
X6681000Y11072400D01*
X6562600Y11018400D02*
X6627000D01*
X6532800Y10988600D02*
X6562600Y11018400D01*
X6686800Y11568200D02*
X6686800Y11568200D01*
X6786800D01*
X6886800Y11663200D02*
Y11891000D01*
X6860600Y11917200D02*
X6886800Y11891000D01*
X6659500Y11730900D02*
X6686800Y11758200D01*
X6616700Y11730900D02*
X6659500D01*
X6537800Y11652000D02*
X6616700Y11730900D01*
X6532800Y11652000D02*
X6537800D01*
X6431200Y11801400D02*
X6513600D01*
X6523200Y11811000D01*
X6532800Y11801400D01*
X6696400Y11931400D02*
X6710600Y11917200D01*
X6532800Y11931400D02*
X6696400D01*
D17*
X11176000Y9144000D02*
D03*
Y8890000D02*
D03*
Y9398000D02*
D03*
Y9652000D02*
D03*
Y10668000D02*
D03*
Y10414000D02*
D03*
Y9906000D02*
D03*
Y10160000D02*
D03*
X6096000Y9144000D02*
D03*
Y8890000D02*
D03*
Y9398000D02*
D03*
Y9652000D02*
D03*
Y10668000D02*
D03*
Y10414000D02*
D03*
Y9906000D02*
D03*
Y10160000D02*
D03*
D18*
X10888000Y8015200D02*
D03*
X7843600D02*
D03*
X7975600Y10947400D02*
D03*
X10896600Y8923400D02*
D03*
X7844400Y8940800D02*
D03*
X7937900Y11890200D02*
D03*
X10591400Y9194800D02*
D03*
X10034600Y9956800D02*
D03*
X6472600Y11383600D02*
D03*
X9377300Y11006000D02*
D03*
X9347200Y10806200D02*
D03*
X9448800Y9575800D02*
D03*
X8317000Y9804400D02*
D03*
X8153400Y8280400D02*
D03*
X8610600Y8991600D02*
D03*
Y9118600D02*
D03*
X8254700Y9875600D02*
D03*
X9396800Y8407400D02*
D03*
X10920800Y10134600D02*
D03*
X9525000Y10642600D02*
D03*
X9245600Y10490200D02*
D03*
X8801200Y10566400D02*
D03*
X8431000Y11338000D02*
D03*
X8001000Y8966200D02*
D03*
X7950200Y8432500D02*
D03*
X8026400Y8843300D02*
D03*
X8197600Y10947400D02*
D03*
X7955200Y10490200D02*
D03*
X6299200Y8574000D02*
D03*
X6350000Y11072400D02*
D03*
X6431200Y10275800D02*
D03*
X9575800Y11074400D02*
D03*
X6633000Y9647300D02*
D03*
X6324600Y8255000D02*
D03*
X6468200Y9590000D02*
D03*
X9372600Y8178800D02*
D03*
X7378800Y9118600D02*
D03*
X7843600Y8153400D02*
D03*
X7871400Y8239200D02*
D03*
X6553200Y9289600D02*
D03*
X10642600Y10210800D02*
D03*
X10196600Y10033000D02*
D03*
X9866400Y10050800D02*
D03*
Y9353800D02*
D03*
X10222000Y9201400D02*
D03*
X9485400Y9310600D02*
D03*
X10131600Y10515600D02*
D03*
X9485400Y10284000D02*
D03*
X9118600Y8923400D02*
D03*
Y8153800D02*
D03*
X8915400Y7983600D02*
D03*
X8712200Y8661400D02*
D03*
X8571700Y8502800D02*
D03*
X8763000Y8128400D02*
D03*
Y7761600D02*
D03*
X8386600Y7899400D02*
D03*
X8016800Y7856600D02*
D03*
X8382000Y8585200D02*
D03*
X8661400Y11563600D02*
D03*
X8280400Y11796800D02*
D03*
X8661400Y10877800D02*
D03*
X8305800Y10834600D02*
D03*
X9017000Y11258800D02*
D03*
Y10896600D02*
D03*
X9289800Y11709400D02*
D03*
X8926600Y12039600D02*
D03*
X8536000Y10090400D02*
D03*
X8155000Y10323600D02*
D03*
X8536000Y9404600D02*
D03*
X8180400Y9361400D02*
D03*
X8891600Y9785600D02*
D03*
Y9423400D02*
D03*
X8801200Y9144000D02*
D03*
X9164400Y10236200D02*
D03*
X7113600Y10065000D02*
D03*
X6732600Y10298200D02*
D03*
X7113600Y9379200D02*
D03*
X6758000Y9336000D02*
D03*
X7469200Y9760200D02*
D03*
Y9398000D02*
D03*
X7742000Y10210800D02*
D03*
X7378800Y10541000D02*
D03*
X10637600Y11709400D02*
D03*
X10364800Y11258800D02*
D03*
X10274400Y12039600D02*
D03*
X10364800Y10896600D02*
D03*
X10009200Y11563600D02*
D03*
X9628200Y11796800D02*
D03*
X10009200Y10877800D02*
D03*
X9653600Y10834600D02*
D03*
X9752400Y8591800D02*
D03*
X9396800Y8825000D02*
D03*
X9752400Y7906000D02*
D03*
X9396800Y7862800D02*
D03*
X10060400Y8096000D02*
D03*
X10692200Y8450600D02*
D03*
X10108000Y7753600D02*
D03*
X10360500Y9037800D02*
D03*
X10888000Y8139200D02*
D03*
X10393200Y8352000D02*
D03*
X10502400Y7615400D02*
D03*
X10915800Y8225000D02*
D03*
X10870000Y8656800D02*
D03*
X6708000Y8606000D02*
D03*
X6352400Y8839200D02*
D03*
X6708000Y7920200D02*
D03*
X6352400Y7877000D02*
D03*
X7016000Y8110200D02*
D03*
X7647800Y8464800D02*
D03*
X7063600Y7767800D02*
D03*
X7348800Y8366200D02*
D03*
X7458000Y7629600D02*
D03*
X7825600Y8671000D02*
D03*
X7904400Y11633200D02*
D03*
X7950200Y11201400D02*
D03*
X7726600Y11427000D02*
D03*
X7427600Y11328400D02*
D03*
X7922400Y11115600D02*
D03*
X7094800Y11072400D02*
D03*
X7394900Y12014200D02*
D03*
X7142400Y10730000D02*
D03*
X6786800Y10882400D02*
D03*
X6431200Y10839200D02*
D03*
X6786800Y11568200D02*
D03*
X6431200Y11801400D02*
D03*
%TF.MD5,1dc732e8a174cfa75214d22150f8daed*%
M02*
