ISO-10303-21;
HEADER;
FILE_DESCRIPTION( ( '' ), ' ' );
FILE_NAME( '/vol/tmp/translate-8546735440601774710/5a5c486c2696ab0efc327d5b.step', '2018-01-15T06:21:32', ( '' ), ( '' ), ' ', ' ', ' ' );
FILE_SCHEMA( ( 'AUTOMOTIVE_DESIGN { 1 0 10303 214 1 1 1 1 }' ) );
ENDSEC;
DATA;
#1 = MECHANICAL_DESIGN_GEOMETRIC_PRESENTATION_REPRESENTATION( ' ', ( #10, #11, #12, #13, #14, #15, #16, #17, #18, #19, #20, #21, #22, #23, #24, #25, #26 ), #6 );
#2 = PRODUCT_DEFINITION_CONTEXT( '', #27, 'design' );
#3 = APPLICATION_PROTOCOL_DEFINITION( 'international standard', 'automotive_design', 2001, #27 );
#4 = PRODUCT_CATEGORY_RELATIONSHIP( 'NONE', 'NONE', #28, #29 );
#5 = SHAPE_DEFINITION_REPRESENTATION( #30, #31 );
#6 =  ( GEOMETRIC_REPRESENTATION_CONTEXT( 3 )GLOBAL_UNCERTAINTY_ASSIGNED_CONTEXT( ( #34 ) )GLOBAL_UNIT_ASSIGNED_CONTEXT( ( #36, #37, #38 ) )REPRESENTATION_CONTEXT( 'NONE', 'WORKSPACE' ) );
#10 = STYLED_ITEM( '', ( #40 ), #41 );
#11 = STYLED_ITEM( '', ( #42 ), #43 );
#12 = STYLED_ITEM( '', ( #44 ), #45 );
#13 = STYLED_ITEM( '', ( #46 ), #47 );
#14 = STYLED_ITEM( '', ( #48 ), #49 );
#15 = STYLED_ITEM( '', ( #50 ), #51 );
#16 = STYLED_ITEM( '', ( #52 ), #53 );
#17 = STYLED_ITEM( '', ( #54 ), #55 );
#18 = STYLED_ITEM( '', ( #56 ), #57 );
#19 = STYLED_ITEM( '', ( #58 ), #59 );
#20 = STYLED_ITEM( '', ( #60 ), #61 );
#21 = STYLED_ITEM( '', ( #62 ), #63 );
#22 = STYLED_ITEM( '', ( #64 ), #65 );
#23 = STYLED_ITEM( '', ( #66 ), #67 );
#24 = STYLED_ITEM( '', ( #68 ), #69 );
#25 = STYLED_ITEM( '', ( #70 ), #71 );
#26 = STYLED_ITEM( '', ( #72 ), #73 );
#27 = APPLICATION_CONTEXT( 'core data for automotive mechanical design processes' );
#28 = PRODUCT_CATEGORY( 'part', 'NONE' );
#29 = PRODUCT_RELATED_PRODUCT_CATEGORY( 'detail', ' ', ( #74 ) );
#30 = PRODUCT_DEFINITION_SHAPE( 'NONE', 'NONE', #75 );
#31 = ADVANCED_BREP_SHAPE_REPRESENTATION( 'Open CASCADE STEP translator 6.8 1', ( #76, #77 ), #6 );
#34 = UNCERTAINTY_MEASURE_WITH_UNIT( LENGTH_MEASURE( 1.00000000000000E-06 ), #36, '', '' );
#36 =  ( CONVERSION_BASED_UNIT( 'METRE', #80 )LENGTH_UNIT(  )NAMED_UNIT( #83 ) );
#37 =  ( NAMED_UNIT( #85 )PLANE_ANGLE_UNIT(  )SI_UNIT( $, .RADIAN. ) );
#38 =  ( NAMED_UNIT( #85 )SI_UNIT( $, .STERADIAN. )SOLID_ANGLE_UNIT(  ) );
#40 = PRESENTATION_STYLE_ASSIGNMENT( ( #91 ) );
#41 = EDGE_CURVE( '', #92, #92, #93, .T. );
#42 = PRESENTATION_STYLE_ASSIGNMENT( ( #94 ) );
#43 = ADVANCED_FACE( '', ( #95 ), #96, .T. );
#44 = PRESENTATION_STYLE_ASSIGNMENT( ( #97 ) );
#45 = ADVANCED_FACE( '', ( #98, #99 ), #100, .T. );
#46 = PRESENTATION_STYLE_ASSIGNMENT( ( #101 ) );
#47 = ADVANCED_FACE( '', ( #102, #103 ), #104, .T. );
#48 = PRESENTATION_STYLE_ASSIGNMENT( ( #105 ) );
#49 = EDGE_CURVE( '', #106, #106, #107, .T. );
#50 = PRESENTATION_STYLE_ASSIGNMENT( ( #108 ) );
#51 = ADVANCED_FACE( '', ( #109 ), #110, .T. );
#52 = PRESENTATION_STYLE_ASSIGNMENT( ( #111 ) );
#53 = EDGE_CURVE( '', #112, #112, #113, .T. );
#54 = PRESENTATION_STYLE_ASSIGNMENT( ( #114 ) );
#55 = EDGE_CURVE( '', #115, #115, #116, .T. );
#56 = PRESENTATION_STYLE_ASSIGNMENT( ( #117 ) );
#57 = EDGE_CURVE( '', #118, #118, #119, .T. );
#58 = PRESENTATION_STYLE_ASSIGNMENT( ( #120 ) );
#59 = EDGE_CURVE( '', #121, #121, #122, .T. );
#60 = PRESENTATION_STYLE_ASSIGNMENT( ( #123 ) );
#61 = ADVANCED_FACE( '', ( #124 ), #125, .T. );
#62 = PRESENTATION_STYLE_ASSIGNMENT( ( #126 ) );
#63 = EDGE_CURVE( '', #127, #127, #128, .T. );
#64 = PRESENTATION_STYLE_ASSIGNMENT( ( #129 ) );
#65 = ADVANCED_FACE( '', ( #130, #131 ), #132, .T. );
#66 = PRESENTATION_STYLE_ASSIGNMENT( ( #133 ) );
#67 = ADVANCED_FACE( '', ( #134, #135 ), #136, .T. );
#68 = PRESENTATION_STYLE_ASSIGNMENT( ( #137 ) );
#69 = ADVANCED_FACE( '', ( #138, #139 ), #140, .T. );
#70 = PRESENTATION_STYLE_ASSIGNMENT( ( #141 ) );
#71 = ADVANCED_FACE( '', ( #142, #143, #144 ), #145, .F. );
#72 = PRESENTATION_STYLE_ASSIGNMENT( ( #146 ) );
#73 = EDGE_CURVE( '', #147, #147, #148, .T. );
#74 = PRODUCT( 'Open CASCADE STEP translator 6.8 1', 'Open CASCADE STEP translator 6.8 1', 'PART-Open CASCADE STEP translator 6.8 1-DESC', ( #149 ) );
#75 = PRODUCT_DEFINITION( 'NONE', 'NONE', #150, #2 );
#76 = MANIFOLD_SOLID_BREP( 'Open CASCADE STEP translator 6.8 1', #151 );
#77 = AXIS2_PLACEMENT_3D( '', #152, #153, #154 );
#80 = LENGTH_MEASURE_WITH_UNIT( LENGTH_MEASURE( 1.00000000000000 ), #155 );
#83 = DIMENSIONAL_EXPONENTS( 1.00000000000000, 0.00000000000000, 0.00000000000000, 0.00000000000000, 0.00000000000000, 0.00000000000000, 0.00000000000000 );
#85 = DIMENSIONAL_EXPONENTS( 0.00000000000000, 0.00000000000000, 0.00000000000000, 0.00000000000000, 0.00000000000000, 0.00000000000000, 0.00000000000000 );
#91 = CURVE_STYLE( '', #156, POSITIVE_LENGTH_MEASURE( 1.00000000000000E-06 ), #157 );
#92 = VERTEX_POINT( '', #158 );
#93 = CIRCLE( '', #159, 0.00230000000000000 );
#94 = SURFACE_STYLE_USAGE( .BOTH., #160 );
#95 = FACE_OUTER_BOUND( '', #161, .T. );
#96 = PLANE( '', #162 );
#97 = SURFACE_STYLE_USAGE( .BOTH., #163 );
#98 = FACE_OUTER_BOUND( '', #164, .T. );
#99 = FACE_OUTER_BOUND( '', #165, .T. );
#100 = TOROIDAL_SURFACE( '', #166, 0.00230000000000000, 0.000200000000000000 );
#101 = SURFACE_STYLE_USAGE( .BOTH., #167 );
#102 = FACE_OUTER_BOUND( '', #168, .T. );
#103 = FACE_OUTER_BOUND( '', #169, .T. );
#104 = CYLINDRICAL_SURFACE( '', #170, 0.00250000000000000 );
#105 = CURVE_STYLE( '', #171, POSITIVE_LENGTH_MEASURE( 1.00000000000000E-06 ), #172 );
#106 = VERTEX_POINT( '', #173 );
#107 = CIRCLE( '', #174, 0.000250000000000000 );
#108 = SURFACE_STYLE_USAGE( .BOTH., #175 );
#109 = FACE_OUTER_BOUND( '', #176, .T. );
#110 = PLANE( '', #177 );
#111 = CURVE_STYLE( '', #178, POSITIVE_LENGTH_MEASURE( 1.00000000000000E-06 ), #179 );
#112 = VERTEX_POINT( '', #180 );
#113 = CIRCLE( '', #181, 0.000250000000000000 );
#114 = CURVE_STYLE( '', #182, POSITIVE_LENGTH_MEASURE( 1.00000000000000E-06 ), #183 );
#115 = VERTEX_POINT( '', #184 );
#116 = CIRCLE( '', #185, 0.00250000000000000 );
#117 = CURVE_STYLE( '', #186, POSITIVE_LENGTH_MEASURE( 1.00000000000000E-06 ), #187 );
#118 = VERTEX_POINT( '', #188 );
#119 = CIRCLE( '', #189, 0.000250000000000000 );
#120 = CURVE_STYLE( '', #190, POSITIVE_LENGTH_MEASURE( 1.00000000000000E-06 ), #191 );
#121 = VERTEX_POINT( '', #192 );
#122 = CIRCLE( '', #193, 0.000250000000000000 );
#123 = SURFACE_STYLE_USAGE( .BOTH., #194 );
#124 = FACE_OUTER_BOUND( '', #195, .T. );
#125 = PLANE( '', #196 );
#126 = CURVE_STYLE( '', #197, POSITIVE_LENGTH_MEASURE( 1.00000000000000E-06 ), #198 );
#127 = VERTEX_POINT( '', #199 );
#128 = CIRCLE( '', #200, 0.00250000000000000 );
#129 = SURFACE_STYLE_USAGE( .BOTH., #201 );
#130 = FACE_OUTER_BOUND( '', #202, .T. );
#131 = FACE_OUTER_BOUND( '', #203, .T. );
#132 = TOROIDAL_SURFACE( '', #204, 0.00230000000000000, 0.000200000000000000 );
#133 = SURFACE_STYLE_USAGE( .BOTH., #205 );
#134 = FACE_OUTER_BOUND( '', #206, .T. );
#135 = FACE_OUTER_BOUND( '', #207, .T. );
#136 = CYLINDRICAL_SURFACE( '', #208, 0.000250000000000000 );
#137 = SURFACE_STYLE_USAGE( .BOTH., #209 );
#138 = FACE_OUTER_BOUND( '', #210, .T. );
#139 = FACE_OUTER_BOUND( '', #211, .T. );
#140 = CYLINDRICAL_SURFACE( '', #212, 0.000250000000000000 );
#141 = SURFACE_STYLE_USAGE( .BOTH., #213 );
#142 = FACE_OUTER_BOUND( '', #214, .T. );
#143 = FACE_BOUND( '', #215, .T. );
#144 = FACE_BOUND( '', #216, .T. );
#145 = PLANE( '', #217 );
#146 = CURVE_STYLE( '', #218, POSITIVE_LENGTH_MEASURE( 1.00000000000000E-06 ), #219 );
#147 = VERTEX_POINT( '', #220 );
#148 = CIRCLE( '', #221, 0.00230000000000000 );
#149 = PRODUCT_CONTEXT( '', #27, 'mechanical' );
#150 = PRODUCT_DEFINITION_FORMATION_WITH_SPECIFIED_SOURCE( ' ', 'NONE', #74, .NOT_KNOWN. );
#151 = CLOSED_SHELL( '', ( #65, #71, #69, #47, #67, #43, #45, #51, #61 ) );
#152 = CARTESIAN_POINT( '', ( 0.00000000000000, 0.00000000000000, 0.00000000000000 ) );
#153 = DIRECTION( '', ( 0.00000000000000, 0.00000000000000, 1.00000000000000 ) );
#154 = DIRECTION( '', ( 1.00000000000000, 0.00000000000000, 0.00000000000000 ) );
#155 =  ( LENGTH_UNIT(  )NAMED_UNIT( #83 )SI_UNIT( $, .METRE. ) );
#156 = DRAUGHTING_PRE_DEFINED_CURVE_FONT( 'continuous' );
#157 = COLOUR_RGB( '', 0.00000000000000, 0.00000000000000, 0.00000000000000 );
#158 = CARTESIAN_POINT( '', ( 0.00000000000000, -0.00229912000000000, 0.0110296000000200 ) );
#159 = AXIS2_PLACEMENT_3D( '', #223, #224, #225 );
#160 = SURFACE_SIDE_STYLE( '', ( #226 ) );
#161 = EDGE_LOOP( '', ( #227 ) );
#162 = AXIS2_PLACEMENT_3D( '', #228, #229, #230 );
#163 = SURFACE_SIDE_STYLE( '', ( #231 ) );
#164 = EDGE_LOOP( '', ( #232 ) );
#165 = EDGE_LOOP( '', ( #233 ) );
#166 = AXIS2_PLACEMENT_3D( '', #234, #235, #236 );
#167 = SURFACE_SIDE_STYLE( '', ( #237 ) );
#168 = EDGE_LOOP( '', ( #238 ) );
#169 = EDGE_LOOP( '', ( #239 ) );
#170 = AXIS2_PLACEMENT_3D( '', #240, #241, #242 );
#171 = DRAUGHTING_PRE_DEFINED_CURVE_FONT( 'continuous' );
#172 = COLOUR_RGB( '', 0.00000000000000, 0.00000000000000, 0.00000000000000 );
#173 = CARTESIAN_POINT( '', ( 0.00100000000001000, 0.000250880000019998, -0.0199704000000200 ) );
#174 = AXIS2_PLACEMENT_3D( '', #243, #244, #245 );
#175 = SURFACE_SIDE_STYLE( '', ( #246 ) );
#176 = EDGE_LOOP( '', ( #247 ) );
#177 = AXIS2_PLACEMENT_3D( '', #248, #249, #250 );
#178 = DRAUGHTING_PRE_DEFINED_CURVE_FONT( 'continuous' );
#179 = COLOUR_RGB( '', 0.00000000000000, 0.00000000000000, 0.00000000000000 );
#180 = CARTESIAN_POINT( '', ( 0.00100000000001000, -0.000249120000000000, 2.96000000200000E-05 ) );
#181 = AXIS2_PLACEMENT_3D( '', #251, #252, #253 );
#182 = DRAUGHTING_PRE_DEFINED_CURVE_FONT( 'continuous' );
#183 = COLOUR_RGB( '', 0.00000000000000, 0.00000000000000, 0.00000000000000 );
#184 = CARTESIAN_POINT( '', ( 0.00000000000000, -0.00249912000000000, 0.000229600000020000 ) );
#185 = AXIS2_PLACEMENT_3D( '', #254, #255, #256 );
#186 = DRAUGHTING_PRE_DEFINED_CURVE_FONT( 'continuous' );
#187 = COLOUR_RGB( '', 0.00000000000000, 0.00000000000000, 0.00000000000000 );
#188 = CARTESIAN_POINT( '', ( -0.00100000000001000, 0.000250880000019998, -0.0149704000000200 ) );
#189 = AXIS2_PLACEMENT_3D( '', #257, #258, #259 );
#190 = DRAUGHTING_PRE_DEFINED_CURVE_FONT( 'continuous' );
#191 = COLOUR_RGB( '', 0.00000000000000, 0.00000000000000, 0.00000000000000 );
#192 = CARTESIAN_POINT( '', ( -0.00100000000001000, -0.000249120000000000, 2.96000000200000E-05 ) );
#193 = AXIS2_PLACEMENT_3D( '', #260, #261, #262 );
#194 = SURFACE_SIDE_STYLE( '', ( #263 ) );
#195 = EDGE_LOOP( '', ( #264 ) );
#196 = AXIS2_PLACEMENT_3D( '', #265, #266, #267 );
#197 = DRAUGHTING_PRE_DEFINED_CURVE_FONT( 'continuous' );
#198 = COLOUR_RGB( '', 0.00000000000000, 0.00000000000000, 0.00000000000000 );
#199 = CARTESIAN_POINT( '', ( 0.00000000000000, -0.00249912000000000, 0.0108296000000200 ) );
#200 = AXIS2_PLACEMENT_3D( '', #268, #269, #270 );
#201 = SURFACE_SIDE_STYLE( '', ( #271 ) );
#202 = EDGE_LOOP( '', ( #272 ) );
#203 = EDGE_LOOP( '', ( #273 ) );
#204 = AXIS2_PLACEMENT_3D( '', #274, #275, #276 );
#205 = SURFACE_SIDE_STYLE( '', ( #277 ) );
#206 = EDGE_LOOP( '', ( #278 ) );
#207 = EDGE_LOOP( '', ( #279 ) );
#208 = AXIS2_PLACEMENT_3D( '', #280, #281, #282 );
#209 = SURFACE_SIDE_STYLE( '', ( #283 ) );
#210 = EDGE_LOOP( '', ( #284 ) );
#211 = EDGE_LOOP( '', ( #285 ) );
#212 = AXIS2_PLACEMENT_3D( '', #286, #287, #288 );
#213 = SURFACE_SIDE_STYLE( '', ( #289 ) );
#214 = EDGE_LOOP( '', ( #290 ) );
#215 = EDGE_LOOP( '', ( #291 ) );
#216 = EDGE_LOOP( '', ( #292 ) );
#217 = AXIS2_PLACEMENT_3D( '', #293, #294, #295 );
#218 = DRAUGHTING_PRE_DEFINED_CURVE_FONT( 'continuous' );
#219 = COLOUR_RGB( '', 0.00000000000000, 0.00000000000000, 0.00000000000000 );
#220 = CARTESIAN_POINT( '', ( 0.00000000000000, -0.00229912000000000, 2.96000000200003E-05 ) );
#221 = AXIS2_PLACEMENT_3D( '', #296, #297, #298 );
#223 = CARTESIAN_POINT( '', ( 0.00000000000000, 0.00000000000000, 0.0110296000000100 ) );
#224 = DIRECTION( '', ( 0.00000000000000, 0.00000000000000, 1.00000000000000 ) );
#225 = DIRECTION( '', ( 0.00000000000000, -1.00000000000000, 0.00000000000000 ) );
#226 = SURFACE_STYLE_FILL_AREA( #299 );
#227 = ORIENTED_EDGE( '', *, *, #41, .T. );
#228 = CARTESIAN_POINT( '', ( 0.00000000000000, 0.00000000000000, 0.0110296000000000 ) );
#229 = DIRECTION( '', ( -0.00000000000000, 1.11022302462500E-16, 1.00000000000000 ) );
#230 = DIRECTION( '', ( 1.00000000000000, 0.00000000000000, 0.00000000000000 ) );
#231 = SURFACE_STYLE_FILL_AREA( #300 );
#232 = ORIENTED_EDGE( '', *, *, #41, .F. );
#233 = ORIENTED_EDGE( '', *, *, #63, .F. );
#234 = CARTESIAN_POINT( '', ( 0.00000000000000, 0.00000000000000, 0.0108296000000000 ) );
#235 = DIRECTION( '', ( 0.00000000000000, 1.11022302462500E-16, 1.00000000000000 ) );
#236 = DIRECTION( '', ( 0.00000000000000, -1.00000000000000, 1.11022302462500E-16 ) );
#237 = SURFACE_STYLE_FILL_AREA( #301 );
#238 = ORIENTED_EDGE( '', *, *, #55, .T. );
#239 = ORIENTED_EDGE( '', *, *, #63, .T. );
#240 = CARTESIAN_POINT( '', ( 0.00000000000000, 0.00000000000000, 0.0110296000000000 ) );
#241 = DIRECTION( '', ( -0.00000000000000, 1.11022302462500E-16, 1.00000000000000 ) );
#242 = DIRECTION( '', ( 0.00000000000000, 1.00000000000000, -1.11022302462500E-16 ) );
#243 = CARTESIAN_POINT( '', ( 0.00100000000001000, 0.00000000000000, -0.0199704000000100 ) );
#244 = DIRECTION( '', ( 0.00000000000000, 0.00000000000000, -1.00000000000000 ) );
#245 = DIRECTION( '', ( 0.00000000000000, 1.00000000000000, 0.00000000000000 ) );
#246 = SURFACE_STYLE_FILL_AREA( #302 );
#247 = ORIENTED_EDGE( '', *, *, #57, .T. );
#248 = CARTESIAN_POINT( '', ( -0.00100000000000000, 0.00000000000000, -0.0149704000000000 ) );
#249 = DIRECTION( '', ( 0.00000000000000, -1.11022302462500E-16, -1.00000000000000 ) );
#250 = DIRECTION( '', ( 0.00000000000000, -1.00000000000000, 1.11022302462500E-16 ) );
#251 = CARTESIAN_POINT( '', ( 0.00100000000001000, 0.00000000000000, 2.96000000100000E-05 ) );
#252 = DIRECTION( '', ( 0.00000000000000, 0.00000000000000, -1.00000000000000 ) );
#253 = DIRECTION( '', ( 0.00000000000000, -1.00000000000000, 0.00000000000000 ) );
#254 = CARTESIAN_POINT( '', ( 0.00000000000000, 0.00000000000000, 0.000229600000010000 ) );
#255 = DIRECTION( '', ( 0.00000000000000, 0.00000000000000, 1.00000000000000 ) );
#256 = DIRECTION( '', ( 0.00000000000000, -1.00000000000000, 0.00000000000000 ) );
#257 = CARTESIAN_POINT( '', ( -0.00100000000001000, 0.00000000000000, -0.0149704000000100 ) );
#258 = DIRECTION( '', ( 0.00000000000000, 0.00000000000000, -1.00000000000000 ) );
#259 = DIRECTION( '', ( 0.00000000000000, 1.00000000000000, 0.00000000000000 ) );
#260 = CARTESIAN_POINT( '', ( -0.00100000000001000, 0.00000000000000, 2.96000000100000E-05 ) );
#261 = DIRECTION( '', ( 0.00000000000000, 0.00000000000000, -1.00000000000000 ) );
#262 = DIRECTION( '', ( 0.00000000000000, -1.00000000000000, 0.00000000000000 ) );
#263 = SURFACE_STYLE_FILL_AREA( #303 );
#264 = ORIENTED_EDGE( '', *, *, #49, .T. );
#265 = CARTESIAN_POINT( '', ( 0.00100000000000000, 0.00000000000000, -0.0199704000000000 ) );
#266 = DIRECTION( '', ( 0.00000000000000, -1.11022302462500E-16, -1.00000000000000 ) );
#267 = DIRECTION( '', ( 0.00000000000000, -1.00000000000000, 1.11022302462500E-16 ) );
#268 = CARTESIAN_POINT( '', ( 0.00000000000000, 0.00000000000000, 0.0108296000000100 ) );
#269 = DIRECTION( '', ( 0.00000000000000, 0.00000000000000, -1.00000000000000 ) );
#270 = DIRECTION( '', ( 0.00000000000000, -1.00000000000000, 0.00000000000000 ) );
#271 = SURFACE_STYLE_FILL_AREA( #304 );
#272 = ORIENTED_EDGE( '', *, *, #55, .F. );
#273 = ORIENTED_EDGE( '', *, *, #73, .F. );
#274 = CARTESIAN_POINT( '', ( 0.00000000000000, 0.00000000000000, 0.000229600000000000 ) );
#275 = DIRECTION( '', ( 0.00000000000000, 1.11022302462500E-16, 1.00000000000000 ) );
#276 = DIRECTION( '', ( 0.00000000000000, -1.00000000000000, 1.11022302462500E-16 ) );
#277 = SURFACE_STYLE_FILL_AREA( #305 );
#278 = ORIENTED_EDGE( '', *, *, #53, .T. );
#279 = ORIENTED_EDGE( '', *, *, #49, .F. );
#280 = CARTESIAN_POINT( '', ( 0.00100000000000000, 0.00000000000000, -0.0149704000000000 ) );
#281 = DIRECTION( '', ( -0.00000000000000, -1.11022302462500E-16, -1.00000000000000 ) );
#282 = DIRECTION( '', ( 0.00000000000000, -1.00000000000000, 1.11022302462500E-16 ) );
#283 = SURFACE_STYLE_FILL_AREA( #306 );
#284 = ORIENTED_EDGE( '', *, *, #59, .T. );
#285 = ORIENTED_EDGE( '', *, *, #57, .F. );
#286 = CARTESIAN_POINT( '', ( -0.00100000000000000, 0.00000000000000, -0.0149704000000000 ) );
#287 = DIRECTION( '', ( -0.00000000000000, -1.11022302462500E-16, -1.00000000000000 ) );
#288 = DIRECTION( '', ( 0.00000000000000, -1.00000000000000, 1.11022302462500E-16 ) );
#289 = SURFACE_STYLE_FILL_AREA( #307 );
#290 = ORIENTED_EDGE( '', *, *, #73, .T. );
#291 = ORIENTED_EDGE( '', *, *, #53, .F. );
#292 = ORIENTED_EDGE( '', *, *, #59, .F. );
#293 = CARTESIAN_POINT( '', ( 0.00000000000000, 0.00000000000000, 2.96000000000000E-05 ) );
#294 = DIRECTION( '', ( -0.00000000000000, 1.11022302462500E-16, 1.00000000000000 ) );
#295 = DIRECTION( '', ( 1.00000000000000, 0.00000000000000, 0.00000000000000 ) );
#296 = CARTESIAN_POINT( '', ( 0.00000000000000, 0.00000000000000, 2.96000000100000E-05 ) );
#297 = DIRECTION( '', ( 0.00000000000000, 0.00000000000000, -1.00000000000000 ) );
#298 = DIRECTION( '', ( 0.00000000000000, -1.00000000000000, 0.00000000000000 ) );
#299 = FILL_AREA_STYLE( '', ( #308 ) );
#300 = FILL_AREA_STYLE( '', ( #309 ) );
#301 = FILL_AREA_STYLE( '', ( #310 ) );
#302 = FILL_AREA_STYLE( '', ( #311 ) );
#303 = FILL_AREA_STYLE( '', ( #312 ) );
#304 = FILL_AREA_STYLE( '', ( #313 ) );
#305 = FILL_AREA_STYLE( '', ( #314 ) );
#306 = FILL_AREA_STYLE( '', ( #315 ) );
#307 = FILL_AREA_STYLE( '', ( #316 ) );
#308 = FILL_AREA_STYLE_COLOUR( '', #317 );
#309 = FILL_AREA_STYLE_COLOUR( '', #318 );
#310 = FILL_AREA_STYLE_COLOUR( '', #319 );
#311 = FILL_AREA_STYLE_COLOUR( '', #320 );
#312 = FILL_AREA_STYLE_COLOUR( '', #321 );
#313 = FILL_AREA_STYLE_COLOUR( '', #322 );
#314 = FILL_AREA_STYLE_COLOUR( '', #323 );
#315 = FILL_AREA_STYLE_COLOUR( '', #324 );
#316 = FILL_AREA_STYLE_COLOUR( '', #325 );
#317 = COLOUR_RGB( '', 0.00000000000000, 0.00000000000000, 0.00000000000000 );
#318 = COLOUR_RGB( '', 0.00000000000000, 0.00000000000000, 0.00000000000000 );
#319 = COLOUR_RGB( '', 0.00000000000000, 0.00000000000000, 0.00000000000000 );
#320 = COLOUR_RGB( '', 0.00000000000000, 0.00000000000000, 0.00000000000000 );
#321 = COLOUR_RGB( '', 0.00000000000000, 0.00000000000000, 0.00000000000000 );
#322 = COLOUR_RGB( '', 0.00000000000000, 0.00000000000000, 0.00000000000000 );
#323 = COLOUR_RGB( '', 0.00000000000000, 0.00000000000000, 0.00000000000000 );
#324 = COLOUR_RGB( '', 0.00000000000000, 0.00000000000000, 0.00000000000000 );
#325 = COLOUR_RGB( '', 0.00000000000000, 0.00000000000000, 0.00000000000000 );
ENDSEC;
END-ISO-10303-21;
