ISO-10303-21;
HEADER;
/* Generated by software containing ST-Developer
 * from STEP Tools, Inc. (www.steptools.com) 
 */
/* OPTION: using custom schema-name function */

FILE_DESCRIPTION(
/* description */ (''),
/* implementation_level */ '2;1');

FILE_NAME(
/* name */ 'REDE7A~1',
/* time_stamp */ '2022-10-18T15:55:34+02:00',
/* author */ (''),
/* organization */ (''),
/* preprocessor_version */ 'ST-DEVELOPER v16.5',
/* originating_system */ '',
/* authorisation */ '');

FILE_SCHEMA (('AUTOMOTIVE_DESIGN'));
ENDSEC;

DATA;
#10=SHAPE_REPRESENTATION_RELATIONSHIP('','',#439,#14);
#11=SHAPE_REPRESENTATION_RELATIONSHIP('','',#439,#16);
#12=SHAPE_REPRESENTATION_RELATIONSHIP('','',#439,#139);
#13=GEOMETRIC_CURVE_SET('curve_set_0',(#371));
#14=GEOMETRICALLY_BOUNDED_WIREFRAME_SHAPE_REPRESENTATION(
'wireframe_rep_0',(#13,#441),#438);
#15=MANIFOLD_SOLID_BREP('brep_1',#17);
#16=ADVANCED_BREP_SHAPE_REPRESENTATION('brep_rep_0',(#15,#442),#438);
#17=CLOSED_SHELL('',(#164,#165,#166,#167,#168));
#18=COLOUR_RGB('',1.,0.,0.);
#19=COLOUR_RGB('',0.749019607843137,0.247058823529412,0.247058823529412);
#20=COLOUR_RGB('',0.,1.,0.);
#21=COLOUR_RGB('',0.0666666666666667,0.0549019607843137,0.0549019607843137);
#22=COLOUR_RGB('',0.749019607843137,0.247058823529412,0.247058823529412);
#23=COLOUR_RGB('',0.823529411764706,0.458823529411765,0.298039215686275);
#24=COLOUR_RGB('',0.823529411764706,0.458823529411765,0.298039215686275);
#25=COLOUR_RGB('',0.823529411764706,0.458823529411765,0.298039215686275);
#26=COLOUR_RGB('',0.823529411764706,0.458823529411765,0.298039215686275);
#27=COLOUR_RGB('',0.823529411764706,0.458823529411765,0.298039215686275);
#28=COLOUR_RGB('',0.823529411764706,0.458823529411765,0.298039215686275);
#29=COLOUR_RGB('',0.901960784313726,0.901960784313726,0.901960784313726);
#30=FILL_AREA_STYLE_COLOUR('',#18);
#31=FILL_AREA_STYLE_COLOUR('',#19);
#32=FILL_AREA_STYLE_COLOUR('',#20);
#33=FILL_AREA_STYLE_COLOUR('',#21);
#34=FILL_AREA_STYLE_COLOUR('',#22);
#35=FILL_AREA_STYLE_COLOUR('',#23);
#36=FILL_AREA_STYLE_COLOUR('',#24);
#37=FILL_AREA_STYLE_COLOUR('',#25);
#38=FILL_AREA_STYLE_COLOUR('',#26);
#39=FILL_AREA_STYLE_COLOUR('',#27);
#40=FILL_AREA_STYLE_COLOUR('',#28);
#41=FILL_AREA_STYLE_COLOUR('',#29);
#42=FILL_AREA_STYLE('',(#30));
#43=FILL_AREA_STYLE('',(#31));
#44=FILL_AREA_STYLE('',(#32));
#45=FILL_AREA_STYLE('',(#33));
#46=FILL_AREA_STYLE('',(#34));
#47=FILL_AREA_STYLE('',(#35));
#48=FILL_AREA_STYLE('',(#36));
#49=FILL_AREA_STYLE('',(#37));
#50=FILL_AREA_STYLE('',(#38));
#51=FILL_AREA_STYLE('',(#39));
#52=FILL_AREA_STYLE('',(#40));
#53=FILL_AREA_STYLE('',(#41));
#54=SURFACE_STYLE_FILL_AREA(#42);
#55=SURFACE_STYLE_FILL_AREA(#43);
#56=SURFACE_STYLE_FILL_AREA(#44);
#57=SURFACE_STYLE_FILL_AREA(#45);
#58=SURFACE_STYLE_FILL_AREA(#46);
#59=SURFACE_STYLE_FILL_AREA(#47);
#60=SURFACE_STYLE_FILL_AREA(#48);
#61=SURFACE_STYLE_FILL_AREA(#49);
#62=SURFACE_STYLE_FILL_AREA(#50);
#63=SURFACE_STYLE_FILL_AREA(#51);
#64=SURFACE_STYLE_FILL_AREA(#52);
#65=SURFACE_STYLE_FILL_AREA(#53);
#66=SURFACE_SIDE_STYLE('',(#54));
#67=SURFACE_SIDE_STYLE('',(#55));
#68=SURFACE_SIDE_STYLE('',(#56));
#69=SURFACE_SIDE_STYLE('',(#57));
#70=SURFACE_SIDE_STYLE('',(#58));
#71=SURFACE_SIDE_STYLE('',(#59));
#72=SURFACE_SIDE_STYLE('',(#60));
#73=SURFACE_SIDE_STYLE('',(#61));
#74=SURFACE_SIDE_STYLE('',(#62));
#75=SURFACE_SIDE_STYLE('',(#63));
#76=SURFACE_SIDE_STYLE('',(#64));
#77=SURFACE_SIDE_STYLE('',(#65));
#78=SURFACE_STYLE_USAGE(.BOTH.,#66);
#79=SURFACE_STYLE_USAGE(.BOTH.,#67);
#80=SURFACE_STYLE_USAGE(.BOTH.,#68);
#81=SURFACE_STYLE_USAGE(.BOTH.,#69);
#82=SURFACE_STYLE_USAGE(.BOTH.,#70);
#83=SURFACE_STYLE_USAGE(.BOTH.,#71);
#84=SURFACE_STYLE_USAGE(.BOTH.,#72);
#85=SURFACE_STYLE_USAGE(.BOTH.,#73);
#86=SURFACE_STYLE_USAGE(.BOTH.,#74);
#87=SURFACE_STYLE_USAGE(.BOTH.,#75);
#88=SURFACE_STYLE_USAGE(.BOTH.,#76);
#89=SURFACE_STYLE_USAGE(.BOTH.,#77);
#90=MECHANICAL_DESIGN_GEOMETRIC_PRESENTATION_REPRESENTATION('',(#103,#104,
#105,#106,#107,#108,#109,#110,#111,#112,#113,#114),#438);
#91=PRESENTATION_STYLE_ASSIGNMENT((#78));
#92=PRESENTATION_STYLE_ASSIGNMENT((#79));
#93=PRESENTATION_STYLE_ASSIGNMENT((#80));
#94=PRESENTATION_STYLE_ASSIGNMENT((#81));
#95=PRESENTATION_STYLE_ASSIGNMENT((#82));
#96=PRESENTATION_STYLE_ASSIGNMENT((#83));
#97=PRESENTATION_STYLE_ASSIGNMENT((#84));
#98=PRESENTATION_STYLE_ASSIGNMENT((#85));
#99=PRESENTATION_STYLE_ASSIGNMENT((#86));
#100=PRESENTATION_STYLE_ASSIGNMENT((#87));
#101=PRESENTATION_STYLE_ASSIGNMENT((#88));
#102=PRESENTATION_STYLE_ASSIGNMENT((#89));
#103=STYLED_ITEM('',(#91),#128);
#104=STYLED_ITEM('',(#92),#129);
#105=STYLED_ITEM('',(#93),#130);
#106=STYLED_ITEM('',(#94),#131);
#107=STYLED_ITEM('',(#95),#132);
#108=STYLED_ITEM('',(#96),#133);
#109=STYLED_ITEM('',(#97),#134);
#110=STYLED_ITEM('',(#98),#135);
#111=STYLED_ITEM('',(#99),#136);
#112=STYLED_ITEM('',(#100),#137);
#113=STYLED_ITEM('',(#101),#138);
#114=STYLED_ITEM('',(#102),#15);
#115=PRESENTATION_LAYER_ASSIGNMENT(
'ver1  CCF55 series, VISHAY DALE::color code::ring 1','',(#128));
#116=PRESENTATION_LAYER_ASSIGNMENT(
'ver1  CCF55 series, VISHAY DALE::color code::ring 2','',(#129));
#117=PRESENTATION_LAYER_ASSIGNMENT(
'ver1  CCF55 series, VISHAY DALE::color code::ring 3','',(#130));
#118=PRESENTATION_LAYER_ASSIGNMENT(
'ver1  CCF55 series, VISHAY DALE::color code::ring 4','',(#131));
#119=PRESENTATION_LAYER_ASSIGNMENT(
'ver1  CCF55 series, VISHAY DALE::color code::fing 5 tol','',(#132));
#120=PRESENTATION_LAYER_ASSIGNMENT(
'ver1  CCF55 series, VISHAY DALE::body','',(#133));
#121=PRESENTATION_LAYER_ASSIGNMENT(
'ver1  CCF55 series, VISHAY DALE::body','',(#134));
#122=PRESENTATION_LAYER_ASSIGNMENT(
'ver1  CCF55 series, VISHAY DALE::body','',(#135));
#123=PRESENTATION_LAYER_ASSIGNMENT(
'ver1  CCF55 series, VISHAY DALE::body','',(#136));
#124=PRESENTATION_LAYER_ASSIGNMENT(
'ver1  CCF55 series, VISHAY DALE::body','',(#137));
#125=PRESENTATION_LAYER_ASSIGNMENT(
'ver1  CCF55 series, VISHAY DALE::body','',(#138));
#126=PRESENTATION_LAYER_ASSIGNMENT(
'ver1  CCF55 series, VISHAY DALE::leads::pitch 2,54mm','',(#15));
#127=PRESENTATION_LAYER_ASSIGNMENT(
'ver1  CCF55 series, VISHAY DALE::color code','',(#371));
#128=SHELL_BASED_SURFACE_MODEL('shell_1',(#140));
#129=SHELL_BASED_SURFACE_MODEL('shell_2',(#141));
#130=SHELL_BASED_SURFACE_MODEL('shell_3',(#142));
#131=SHELL_BASED_SURFACE_MODEL('shell_4',(#143));
#132=SHELL_BASED_SURFACE_MODEL('shell_5',(#144));
#133=SHELL_BASED_SURFACE_MODEL('shell_6',(#145));
#134=SHELL_BASED_SURFACE_MODEL('shell_7',(#146));
#135=SHELL_BASED_SURFACE_MODEL('shell_8',(#147));
#136=SHELL_BASED_SURFACE_MODEL('shell_9',(#148));
#137=SHELL_BASED_SURFACE_MODEL('shell_10',(#149));
#138=SHELL_BASED_SURFACE_MODEL('shell_11',(#150));
#139=MANIFOLD_SURFACE_SHAPE_REPRESENTATION('shell_rep_0',(#128,#129,#130,
#131,#132,#133,#134,#135,#136,#137,#138,#443),#438);
#140=OPEN_SHELL('',(#151,#152));
#141=OPEN_SHELL('',(#153));
#142=OPEN_SHELL('',(#154));
#143=OPEN_SHELL('',(#155));
#144=OPEN_SHELL('',(#156,#157));
#145=OPEN_SHELL('',(#158));
#146=OPEN_SHELL('',(#159));
#147=OPEN_SHELL('',(#160));
#148=OPEN_SHELL('',(#161));
#149=OPEN_SHELL('',(#162));
#150=OPEN_SHELL('',(#163));
#151=ADVANCED_FACE('',(#169),#403,.T.);
#152=ADVANCED_FACE('',(#170),#404,.T.);
#153=ADVANCED_FACE('',(#171),#405,.T.);
#154=ADVANCED_FACE('',(#172),#406,.T.);
#155=ADVANCED_FACE('',(#173),#407,.T.);
#156=ADVANCED_FACE('',(#174),#408,.T.);
#157=ADVANCED_FACE('',(#175),#409,.T.);
#158=ADVANCED_FACE('',(#176),#410,.T.);
#159=ADVANCED_FACE('',(#177),#411,.T.);
#160=ADVANCED_FACE('',(#178),#412,.T.);
#161=ADVANCED_FACE('',(#179),#413,.T.);
#162=ADVANCED_FACE('',(#180),#414,.T.);
#163=ADVANCED_FACE('',(#181),#415,.T.);
#164=ADVANCED_FACE('',(#182),#416,.T.);
#165=ADVANCED_FACE('',(#183),#417,.T.);
#166=ADVANCED_FACE('',(#184),#418,.T.);
#167=ADVANCED_FACE('',(#185),#419,.T.);
#168=ADVANCED_FACE('',(#186),#420,.T.);
#169=FACE_OUTER_BOUND('',#187,.T.);
#170=FACE_OUTER_BOUND('',#188,.T.);
#171=FACE_OUTER_BOUND('',#189,.T.);
#172=FACE_OUTER_BOUND('',#190,.T.);
#173=FACE_OUTER_BOUND('',#191,.T.);
#174=FACE_OUTER_BOUND('',#192,.T.);
#175=FACE_OUTER_BOUND('',#193,.T.);
#176=FACE_OUTER_BOUND('',#194,.T.);
#177=FACE_OUTER_BOUND('',#195,.T.);
#178=FACE_OUTER_BOUND('',#196,.T.);
#179=FACE_OUTER_BOUND('',#197,.T.);
#180=FACE_OUTER_BOUND('',#198,.T.);
#181=FACE_OUTER_BOUND('',#199,.T.);
#182=FACE_OUTER_BOUND('',#200,.T.);
#183=FACE_OUTER_BOUND('',#201,.T.);
#184=FACE_OUTER_BOUND('',#202,.T.);
#185=FACE_OUTER_BOUND('',#203,.T.);
#186=FACE_OUTER_BOUND('',#204,.T.);
#187=EDGE_LOOP('',(#205,#206,#207,#208));
#188=EDGE_LOOP('',(#209,#210,#211,#212));
#189=EDGE_LOOP('',(#213,#214,#215,#216));
#190=EDGE_LOOP('',(#217,#218,#219,#220));
#191=EDGE_LOOP('',(#221,#222,#223,#224));
#192=EDGE_LOOP('',(#225,#226,#227,#228));
#193=EDGE_LOOP('',(#229,#230,#231,#232));
#194=EDGE_LOOP('',(#233,#234,#235,#236));
#195=EDGE_LOOP('',(#237,#238,#239,#240));
#196=EDGE_LOOP('',(#241,#242,#243,#244));
#197=EDGE_LOOP('',(#245,#246,#247,#248));
#198=EDGE_LOOP('',(#249,#250,#251,#252));
#199=EDGE_LOOP('',(#253,#254,#255,#256));
#200=EDGE_LOOP('',(#257,#258,#259,#260));
#201=EDGE_LOOP('',(#261,#262,#263,#264));
#202=EDGE_LOOP('',(#265,#266,#267,#268,#269));
#203=EDGE_LOOP('',(#270,#271,#272));
#204=EDGE_LOOP('',(#273,#274,#275,#276));
#205=ORIENTED_EDGE('',*,*,#280,.T.);
#206=ORIENTED_EDGE('',*,*,#278,.F.);
#207=ORIENTED_EDGE('',*,*,#277,.T.);
#208=ORIENTED_EDGE('',*,*,#278,.T.);
#209=ORIENTED_EDGE('',*,*,#281,.T.);
#210=ORIENTED_EDGE('',*,*,#277,.F.);
#211=ORIENTED_EDGE('',*,*,#281,.F.);
#212=ORIENTED_EDGE('',*,*,#279,.F.);
#213=ORIENTED_EDGE('',*,*,#284,.T.);
#214=ORIENTED_EDGE('',*,*,#282,.T.);
#215=ORIENTED_EDGE('',*,*,#284,.F.);
#216=ORIENTED_EDGE('',*,*,#283,.F.);
#217=ORIENTED_EDGE('',*,*,#285,.T.);
#218=ORIENTED_EDGE('',*,*,#287,.F.);
#219=ORIENTED_EDGE('',*,*,#286,.F.);
#220=ORIENTED_EDGE('',*,*,#287,.T.);
#221=ORIENTED_EDGE('',*,*,#288,.T.);
#222=ORIENTED_EDGE('',*,*,#290,.F.);
#223=ORIENTED_EDGE('',*,*,#289,.F.);
#224=ORIENTED_EDGE('',*,*,#290,.T.);
#225=ORIENTED_EDGE('',*,*,#295,.T.);
#226=ORIENTED_EDGE('',*,*,#291,.F.);
#227=ORIENTED_EDGE('',*,*,#292,.T.);
#228=ORIENTED_EDGE('',*,*,#291,.T.);
#229=ORIENTED_EDGE('',*,*,#294,.T.);
#230=ORIENTED_EDGE('',*,*,#293,.F.);
#231=ORIENTED_EDGE('',*,*,#292,.F.);
#232=ORIENTED_EDGE('',*,*,#293,.T.);
#233=ORIENTED_EDGE('',*,*,#298,.T.);
#234=ORIENTED_EDGE('',*,*,#297,.F.);
#235=ORIENTED_EDGE('',*,*,#296,.F.);
#236=ORIENTED_EDGE('',*,*,#297,.T.);
#237=ORIENTED_EDGE('',*,*,#300,.F.);
#238=ORIENTED_EDGE('',*,*,#299,.F.);
#239=ORIENTED_EDGE('',*,*,#300,.T.);
#240=ORIENTED_EDGE('',*,*,#301,.F.);
#241=ORIENTED_EDGE('',*,*,#304,.T.);
#242=ORIENTED_EDGE('',*,*,#302,.T.);
#243=ORIENTED_EDGE('',*,*,#304,.F.);
#244=ORIENTED_EDGE('',*,*,#303,.F.);
#245=ORIENTED_EDGE('',*,*,#307,.T.);
#246=ORIENTED_EDGE('',*,*,#305,.T.);
#247=ORIENTED_EDGE('',*,*,#307,.F.);
#248=ORIENTED_EDGE('',*,*,#306,.F.);
#249=ORIENTED_EDGE('',*,*,#310,.T.);
#250=ORIENTED_EDGE('',*,*,#308,.T.);
#251=ORIENTED_EDGE('',*,*,#310,.F.);
#252=ORIENTED_EDGE('',*,*,#309,.F.);
#253=ORIENTED_EDGE('',*,*,#311,.T.);
#254=ORIENTED_EDGE('',*,*,#313,.F.);
#255=ORIENTED_EDGE('',*,*,#312,.F.);
#256=ORIENTED_EDGE('',*,*,#313,.T.);
#257=ORIENTED_EDGE('',*,*,#320,.F.);
#258=ORIENTED_EDGE('',*,*,#314,.T.);
#259=ORIENTED_EDGE('',*,*,#315,.F.);
#260=ORIENTED_EDGE('',*,*,#314,.F.);
#261=ORIENTED_EDGE('',*,*,#315,.T.);
#262=ORIENTED_EDGE('',*,*,#316,.T.);
#263=ORIENTED_EDGE('',*,*,#317,.F.);
#264=ORIENTED_EDGE('',*,*,#316,.F.);
#265=ORIENTED_EDGE('',*,*,#317,.T.);
#266=ORIENTED_EDGE('',*,*,#318,.T.);
#267=ORIENTED_EDGE('',*,*,#322,.F.);
#268=ORIENTED_EDGE('',*,*,#323,.F.);
#269=ORIENTED_EDGE('',*,*,#318,.F.);
#270=ORIENTED_EDGE('',*,*,#319,.T.);
#271=ORIENTED_EDGE('',*,*,#320,.T.);
#272=ORIENTED_EDGE('',*,*,#319,.F.);
#273=ORIENTED_EDGE('',*,*,#321,.T.);
#274=ORIENTED_EDGE('',*,*,#322,.T.);
#275=ORIENTED_EDGE('',*,*,#323,.T.);
#276=ORIENTED_EDGE('',*,*,#321,.F.);
#277=EDGE_CURVE('',#372,#372,#324,.T.);
#278=EDGE_CURVE('',#372,#374,#325,.T.);
#279=EDGE_CURVE('',#373,#373,#326,.T.);
#280=EDGE_CURVE('',#374,#374,#327,.T.);
#281=EDGE_CURVE('',#373,#372,#328,.T.);
#282=EDGE_CURVE('',#375,#375,#329,.T.);
#283=EDGE_CURVE('',#376,#376,#330,.T.);
#284=EDGE_CURVE('',#376,#375,#331,.T.);
#285=EDGE_CURVE('',#377,#377,#332,.T.);
#286=EDGE_CURVE('',#378,#378,#333,.T.);
#287=EDGE_CURVE('',#378,#377,#334,.T.);
#288=EDGE_CURVE('',#379,#379,#335,.T.);
#289=EDGE_CURVE('',#380,#380,#336,.T.);
#290=EDGE_CURVE('',#380,#379,#337,.T.);
#291=EDGE_CURVE('',#381,#383,#338,.T.);
#292=EDGE_CURVE('',#381,#381,#339,.T.);
#293=EDGE_CURVE('',#381,#382,#340,.T.);
#294=EDGE_CURVE('',#382,#382,#341,.T.);
#295=EDGE_CURVE('',#383,#383,#342,.T.);
#296=EDGE_CURVE('',#384,#384,#343,.T.);
#297=EDGE_CURVE('',#384,#385,#344,.T.);
#298=EDGE_CURVE('',#385,#385,#345,.T.);
#299=EDGE_CURVE('',#386,#386,#346,.T.);
#300=EDGE_CURVE('',#386,#387,#347,.T.);
#301=EDGE_CURVE('',#387,#387,#348,.T.);
#302=EDGE_CURVE('',#388,#388,#349,.T.);
#303=EDGE_CURVE('',#389,#389,#350,.T.);
#304=EDGE_CURVE('',#389,#388,#351,.T.);
#305=EDGE_CURVE('',#390,#390,#352,.T.);
#306=EDGE_CURVE('',#391,#391,#353,.T.);
#307=EDGE_CURVE('',#391,#390,#354,.T.);
#308=EDGE_CURVE('',#392,#392,#355,.T.);
#309=EDGE_CURVE('',#393,#393,#356,.T.);
#310=EDGE_CURVE('',#393,#392,#357,.T.);
#311=EDGE_CURVE('',#394,#394,#358,.T.);
#312=EDGE_CURVE('',#395,#395,#359,.T.);
#313=EDGE_CURVE('',#395,#394,#360,.T.);
#314=EDGE_CURVE('',#396,#397,#361,.T.);
#315=EDGE_CURVE('',#397,#397,#362,.T.);
#316=EDGE_CURVE('',#397,#398,#363,.T.);
#317=EDGE_CURVE('',#398,#398,#364,.T.);
#318=EDGE_CURVE('',#398,#399,#365,.T.);
#319=EDGE_CURVE('',#400,#396,#366,.T.);
#320=EDGE_CURVE('',#396,#396,#367,.T.);
#321=EDGE_CURVE('',#401,#402,#368,.T.);
#322=EDGE_CURVE('',#402,#399,#369,.T.);
#323=EDGE_CURVE('',#399,#402,#370,.T.);
#324=(
BOUNDED_CURVE()
B_SPLINE_CURVE(2,(#501,#502,#503,#504,#505,#506,#507,#508,#509),
 .UNSPECIFIED.,.T.,.F.)
B_SPLINE_CURVE_WITH_KNOTS((3,2,2,2,3),(0.,0.447665643285754,0.895331286571508,
1.34299692985726,1.79066257314302),.UNSPECIFIED.)
CURVE()
GEOMETRIC_REPRESENTATION_ITEM()
RATIONAL_B_SPLINE_CURVE((1.,0.707106781186548,1.,0.707106781186548,1.,0.707106781186548,
1.,0.707106781186548,1.))
REPRESENTATION_ITEM('')
);
#325=(
BOUNDED_CURVE()
B_SPLINE_CURVE(2,(#510,#511,#512),.UNSPECIFIED.,.F.,.F.)
B_SPLINE_CURVE_WITH_KNOTS((3,3),(0.,0.276440064556369),.UNSPECIFIED.)
CURVE()
GEOMETRIC_REPRESENTATION_ITEM()
RATIONAL_B_SPLINE_CURVE((1.,0.978120268660736,1.))
REPRESENTATION_ITEM('')
);
#326=(
BOUNDED_CURVE()
B_SPLINE_CURVE(2,(#513,#514,#515,#516,#517,#518,#519,#520,#521),
 .UNSPECIFIED.,.T.,.F.)
B_SPLINE_CURVE_WITH_KNOTS((3,2,2,2,3),(-7.19424717672063,-5.39568538254047,
-3.59712358836031,-1.79856179418016,0.),.UNSPECIFIED.)
CURVE()
GEOMETRIC_REPRESENTATION_ITEM()
RATIONAL_B_SPLINE_CURVE((1.,0.707106781186548,1.,0.707106781186548,1.,0.707106781186548,
1.,0.707106781186548,1.))
REPRESENTATION_ITEM('')
);
#327=(
BOUNDED_CURVE()
B_SPLINE_CURVE(2,(#522,#523,#524,#525,#526,#527,#528,#529,#530),
 .UNSPECIFIED.,.T.,.F.)
B_SPLINE_CURVE_WITH_KNOTS((3,2,2,2,3),(-1.79066257314302,-1.34299692985726,
-0.895331286571508,-0.447665643285754,0.),.UNSPECIFIED.)
CURVE()
GEOMETRIC_REPRESENTATION_ITEM()
RATIONAL_B_SPLINE_CURVE((1.,0.707106781186548,1.,0.707106781186548,1.,0.707106781186548,
1.,0.707106781186548,1.))
REPRESENTATION_ITEM('')
);
#328=(
BOUNDED_CURVE()
B_SPLINE_CURVE(1,(#531,#532),.UNSPECIFIED.,.F.,.F.)
B_SPLINE_CURVE_WITH_KNOTS((2,2),(5.11,5.36),.UNSPECIFIED.)
CURVE()
GEOMETRIC_REPRESENTATION_ITEM()
RATIONAL_B_SPLINE_CURVE((1.,1.))
REPRESENTATION_ITEM('')
);
#329=(
BOUNDED_CURVE()
B_SPLINE_CURVE(2,(#553,#554,#555,#556,#557,#558,#559,#560,#561),
 .UNSPECIFIED.,.T.,.F.)
B_SPLINE_CURVE_WITH_KNOTS((3,2,2,2,3),(-7.19424717672063,-5.39568538254047,
-3.59712358836031,-1.79856179418016,0.),.UNSPECIFIED.)
CURVE()
GEOMETRIC_REPRESENTATION_ITEM()
RATIONAL_B_SPLINE_CURVE((1.,0.707106781186548,1.,0.707106781186548,1.,0.707106781186548,
1.,0.707106781186548,1.))
REPRESENTATION_ITEM('')
);
#330=(
BOUNDED_CURVE()
B_SPLINE_CURVE(2,(#562,#563,#564,#565,#566,#567,#568,#569,#570),
 .UNSPECIFIED.,.T.,.F.)
B_SPLINE_CURVE_WITH_KNOTS((3,2,2,2,3),(-7.19424717672063,-5.39568538254047,
-3.59712358836031,-1.79856179418016,0.),.UNSPECIFIED.)
CURVE()
GEOMETRIC_REPRESENTATION_ITEM()
RATIONAL_B_SPLINE_CURVE((1.,0.707106781186548,1.,0.707106781186548,1.,0.707106781186548,
1.,0.707106781186548,1.))
REPRESENTATION_ITEM('')
);
#331=(
BOUNDED_CURVE()
B_SPLINE_CURVE(1,(#571,#572),.UNSPECIFIED.,.F.,.F.)
B_SPLINE_CURVE_WITH_KNOTS((2,2),(4.21,4.81),.UNSPECIFIED.)
CURVE()
GEOMETRIC_REPRESENTATION_ITEM()
RATIONAL_B_SPLINE_CURVE((1.,1.))
REPRESENTATION_ITEM('')
);
#332=(
BOUNDED_CURVE()
B_SPLINE_CURVE(2,(#593,#594,#595,#596,#597,#598,#599,#600,#601),
 .UNSPECIFIED.,.T.,.F.)
B_SPLINE_CURVE_WITH_KNOTS((3,2,2,2,3),(-7.19424717672063,-5.39568538254047,
-3.59712358836031,-1.79856179418016,0.),.UNSPECIFIED.)
CURVE()
GEOMETRIC_REPRESENTATION_ITEM()
RATIONAL_B_SPLINE_CURVE((1.,0.707106781186548,1.,0.707106781186548,1.,0.707106781186548,
1.,0.707106781186548,1.))
REPRESENTATION_ITEM('')
);
#333=(
BOUNDED_CURVE()
B_SPLINE_CURVE(2,(#602,#603,#604,#605,#606,#607,#608,#609,#610),
 .UNSPECIFIED.,.T.,.F.)
B_SPLINE_CURVE_WITH_KNOTS((3,2,2,2,3),(-7.19424717672063,-5.39568538254047,
-3.59712358836031,-1.79856179418016,0.),.UNSPECIFIED.)
CURVE()
GEOMETRIC_REPRESENTATION_ITEM()
RATIONAL_B_SPLINE_CURVE((1.,0.707106781186548,1.,0.707106781186548,1.,0.707106781186548,
1.,0.707106781186548,1.))
REPRESENTATION_ITEM('')
);
#334=(
BOUNDED_CURVE()
B_SPLINE_CURVE(1,(#611,#612),.UNSPECIFIED.,.F.,.F.)
B_SPLINE_CURVE_WITH_KNOTS((2,2),(3.21,3.81),.UNSPECIFIED.)
CURVE()
GEOMETRIC_REPRESENTATION_ITEM()
RATIONAL_B_SPLINE_CURVE((1.,1.))
REPRESENTATION_ITEM('')
);
#335=(
BOUNDED_CURVE()
B_SPLINE_CURVE(2,(#633,#634,#635,#636,#637,#638,#639,#640,#641),
 .UNSPECIFIED.,.T.,.F.)
B_SPLINE_CURVE_WITH_KNOTS((3,2,2,2,3),(-7.19424717672063,-5.39568538254047,
-3.59712358836031,-1.79856179418016,0.),.UNSPECIFIED.)
CURVE()
GEOMETRIC_REPRESENTATION_ITEM()
RATIONAL_B_SPLINE_CURVE((1.,0.707106781186548,1.,0.707106781186548,1.,0.707106781186548,
1.,0.707106781186548,1.))
REPRESENTATION_ITEM('')
);
#336=(
BOUNDED_CURVE()
B_SPLINE_CURVE(2,(#642,#643,#644,#645,#646,#647,#648,#649,#650),
 .UNSPECIFIED.,.T.,.F.)
B_SPLINE_CURVE_WITH_KNOTS((3,2,2,2,3),(-7.19424717672063,-5.39568538254047,
-3.59712358836031,-1.79856179418016,0.),.UNSPECIFIED.)
CURVE()
GEOMETRIC_REPRESENTATION_ITEM()
RATIONAL_B_SPLINE_CURVE((1.,0.707106781186548,1.,0.707106781186548,1.,0.707106781186548,
1.,0.707106781186548,1.))
REPRESENTATION_ITEM('')
);
#337=(
BOUNDED_CURVE()
B_SPLINE_CURVE(1,(#651,#652),.UNSPECIFIED.,.F.,.F.)
B_SPLINE_CURVE_WITH_KNOTS((2,2),(2.21,2.81),.UNSPECIFIED.)
CURVE()
GEOMETRIC_REPRESENTATION_ITEM()
RATIONAL_B_SPLINE_CURVE((1.,1.))
REPRESENTATION_ITEM('')
);
#338=(
BOUNDED_CURVE()
B_SPLINE_CURVE(1,(#701,#702),.UNSPECIFIED.,.F.,.F.)
B_SPLINE_CURVE_WITH_KNOTS((2,2),(0.86,1.61),.UNSPECIFIED.)
CURVE()
GEOMETRIC_REPRESENTATION_ITEM()
RATIONAL_B_SPLINE_CURVE((1.,1.))
REPRESENTATION_ITEM('')
);
#339=(
BOUNDED_CURVE()
B_SPLINE_CURVE(2,(#703,#704,#705,#706,#707,#708,#709,#710,#711),
 .UNSPECIFIED.,.T.,.F.)
B_SPLINE_CURVE_WITH_KNOTS((3,2,2,2,3),(0.,0.447665643285754,0.895331286571507,
1.34299692985726,1.79066257314301),.UNSPECIFIED.)
CURVE()
GEOMETRIC_REPRESENTATION_ITEM()
RATIONAL_B_SPLINE_CURVE((1.,0.707106781186548,1.,0.707106781186548,1.,0.707106781186548,
1.,0.707106781186548,1.))
REPRESENTATION_ITEM('')
);
#340=(
BOUNDED_CURVE()
B_SPLINE_CURVE(2,(#712,#713,#714),.UNSPECIFIED.,.F.,.F.)
B_SPLINE_CURVE_WITH_KNOTS((3,3),(0.,0.197912320652915),.UNSPECIFIED.)
CURVE()
GEOMETRIC_REPRESENTATION_ITEM()
RATIONAL_B_SPLINE_CURVE((1.,0.989144821822798,1.))
REPRESENTATION_ITEM('')
);
#341=(
BOUNDED_CURVE()
B_SPLINE_CURVE(2,(#715,#716,#717,#718,#719,#720,#721,#722,#723),
 .UNSPECIFIED.,.T.,.F.)
B_SPLINE_CURVE_WITH_KNOTS((3,2,2,2,3),(0.,0.447665643285754,0.895331286571507,
1.34299692985726,1.79066257314301),.UNSPECIFIED.)
CURVE()
GEOMETRIC_REPRESENTATION_ITEM()
RATIONAL_B_SPLINE_CURVE((1.,0.707106781186548,1.,0.707106781186548,1.,0.707106781186548,
1.,0.707106781186548,1.))
REPRESENTATION_ITEM('')
);
#342=(
BOUNDED_CURVE()
B_SPLINE_CURVE(2,(#724,#725,#726,#727,#728,#729,#730,#731,#732),
 .UNSPECIFIED.,.T.,.F.)
B_SPLINE_CURVE_WITH_KNOTS((3,2,2,2,3),(-7.19424717672063,-5.39568538254047,
-3.59712358836031,-1.79856179418016,0.),.UNSPECIFIED.)
CURVE()
GEOMETRIC_REPRESENTATION_ITEM()
RATIONAL_B_SPLINE_CURVE((1.,0.707106781186548,1.,0.707106781186548,1.,0.707106781186548,
1.,0.707106781186548,1.))
REPRESENTATION_ITEM('')
);
#343=(
BOUNDED_CURVE()
B_SPLINE_CURVE(2,(#762,#763,#764,#765,#766,#767,#768,#769,#770),
 .UNSPECIFIED.,.T.,.F.)
B_SPLINE_CURVE_WITH_KNOTS((3,2,2,2,3),(-1.79066257314302,-1.34299692985726,
-0.895331286571508,-0.447665643285754,0.),.UNSPECIFIED.)
CURVE()
GEOMETRIC_REPRESENTATION_ITEM()
RATIONAL_B_SPLINE_CURVE((1.,0.707106781186548,1.,0.707106781186548,1.,0.707106781186548,
1.,0.707106781186548,1.))
REPRESENTATION_ITEM('')
);
#344=(
BOUNDED_CURVE()
B_SPLINE_CURVE(2,(#771,#772,#773),.UNSPECIFIED.,.F.,.F.)
B_SPLINE_CURVE_WITH_KNOTS((3,3),(0.276440064556369,0.99589382364797),
 .UNSPECIFIED.)
CURVE()
GEOMETRIC_REPRESENTATION_ITEM()
RATIONAL_B_SPLINE_CURVE((1.,0.840321532174471,1.))
REPRESENTATION_ITEM('')
);
#345=(
BOUNDED_CURVE()
B_SPLINE_CURVE(2,(#774,#775,#776,#777,#778,#779,#780,#781,#782),
 .UNSPECIFIED.,.T.,.F.)
B_SPLINE_CURVE_WITH_KNOTS((3,2,2,2,3),(-1.79066257314302,-1.34299692985726,
-0.895331286571508,-0.447665643285754,0.),.UNSPECIFIED.)
CURVE()
GEOMETRIC_REPRESENTATION_ITEM()
RATIONAL_B_SPLINE_CURVE((1.,0.707106781186548,1.,0.707106781186548,1.,0.707106781186548,
1.,0.707106781186548,1.))
REPRESENTATION_ITEM('')
);
#346=(
BOUNDED_CURVE()
B_SPLINE_CURVE(2,(#812,#813,#814,#815,#816,#817,#818,#819,#820),
 .UNSPECIFIED.,.T.,.F.)
B_SPLINE_CURVE_WITH_KNOTS((3,2,2,2,3),(0.,0.447665643285754,0.895331286571507,
1.34299692985726,1.79066257314301),.UNSPECIFIED.)
CURVE()
GEOMETRIC_REPRESENTATION_ITEM()
RATIONAL_B_SPLINE_CURVE((1.,0.707106781186548,1.,0.707106781186548,1.,0.707106781186548,
1.,0.707106781186548,1.))
REPRESENTATION_ITEM('')
);
#347=(
BOUNDED_CURVE()
B_SPLINE_CURVE(2,(#821,#822,#823),.UNSPECIFIED.,.F.,.F.)
B_SPLINE_CURVE_WITH_KNOTS((3,3),(0.197912320652915,0.99589382364797),
 .UNSPECIFIED.)
CURVE()
GEOMETRIC_REPRESENTATION_ITEM()
RATIONAL_B_SPLINE_CURVE((1.,0.805063860493408,1.))
REPRESENTATION_ITEM('')
);
#348=(
BOUNDED_CURVE()
B_SPLINE_CURVE(2,(#824,#825,#826,#827,#828,#829,#830,#831,#832),
 .UNSPECIFIED.,.T.,.F.)
B_SPLINE_CURVE_WITH_KNOTS((3,2,2,2,3),(-1.79066257314301,-1.34299692985726,
-0.895331286571507,-0.447665643285754,0.),.UNSPECIFIED.)
CURVE()
GEOMETRIC_REPRESENTATION_ITEM()
RATIONAL_B_SPLINE_CURVE((1.,0.707106781186548,1.,0.707106781186548,1.,0.707106781186548,
1.,0.707106781186548,1.))
REPRESENTATION_ITEM('')
);
#349=(
BOUNDED_CURVE()
B_SPLINE_CURVE(2,(#853,#854,#855,#856,#857,#858,#859,#860,#861),
 .UNSPECIFIED.,.T.,.F.)
B_SPLINE_CURVE_WITH_KNOTS((3,2,2,2,3),(-7.19424717672063,-5.39568538254047,
-3.59712358836031,-1.79856179418016,0.),.UNSPECIFIED.)
CURVE()
GEOMETRIC_REPRESENTATION_ITEM()
RATIONAL_B_SPLINE_CURVE((1.,0.707106781186548,1.,0.707106781186548,1.,0.707106781186548,
1.,0.707106781186548,1.))
REPRESENTATION_ITEM('')
);
#350=(
BOUNDED_CURVE()
B_SPLINE_CURVE(2,(#862,#863,#864,#865,#866,#867,#868,#869,#870),
 .UNSPECIFIED.,.T.,.F.)
B_SPLINE_CURVE_WITH_KNOTS((3,2,2,2,3),(-7.19424717672063,-5.39568538254047,
-3.59712358836031,-1.79856179418016,0.),.UNSPECIFIED.)
CURVE()
GEOMETRIC_REPRESENTATION_ITEM()
RATIONAL_B_SPLINE_CURVE((1.,0.707106781186548,1.,0.707106781186548,1.,0.707106781186548,
1.,0.707106781186548,1.))
REPRESENTATION_ITEM('')
);
#351=(
BOUNDED_CURVE()
B_SPLINE_CURVE(1,(#871,#872),.UNSPECIFIED.,.F.,.F.)
B_SPLINE_CURVE_WITH_KNOTS((2,2),(3.81,4.21),.UNSPECIFIED.)
CURVE()
GEOMETRIC_REPRESENTATION_ITEM()
RATIONAL_B_SPLINE_CURVE((1.,1.))
REPRESENTATION_ITEM('')
);
#352=(
BOUNDED_CURVE()
B_SPLINE_CURVE(2,(#893,#894,#895,#896,#897,#898,#899,#900,#901),
 .UNSPECIFIED.,.T.,.F.)
B_SPLINE_CURVE_WITH_KNOTS((3,2,2,2,3),(-7.19424717672063,-5.39568538254047,
-3.59712358836031,-1.79856179418016,0.),.UNSPECIFIED.)
CURVE()
GEOMETRIC_REPRESENTATION_ITEM()
RATIONAL_B_SPLINE_CURVE((1.,0.707106781186548,1.,0.707106781186548,1.,0.707106781186548,
1.,0.707106781186548,1.))
REPRESENTATION_ITEM('')
);
#353=(
BOUNDED_CURVE()
B_SPLINE_CURVE(2,(#902,#903,#904,#905,#906,#907,#908,#909,#910),
 .UNSPECIFIED.,.T.,.F.)
B_SPLINE_CURVE_WITH_KNOTS((3,2,2,2,3),(-7.19424717672063,-5.39568538254047,
-3.59712358836031,-1.79856179418016,0.),.UNSPECIFIED.)
CURVE()
GEOMETRIC_REPRESENTATION_ITEM()
RATIONAL_B_SPLINE_CURVE((1.,0.707106781186548,1.,0.707106781186548,1.,0.707106781186548,
1.,0.707106781186548,1.))
REPRESENTATION_ITEM('')
);
#354=(
BOUNDED_CURVE()
B_SPLINE_CURVE(1,(#911,#912),.UNSPECIFIED.,.F.,.F.)
B_SPLINE_CURVE_WITH_KNOTS((2,2),(1.61,2.21),.UNSPECIFIED.)
CURVE()
GEOMETRIC_REPRESENTATION_ITEM()
RATIONAL_B_SPLINE_CURVE((1.,1.))
REPRESENTATION_ITEM('')
);
#355=(
BOUNDED_CURVE()
B_SPLINE_CURVE(2,(#933,#934,#935,#936,#937,#938,#939,#940,#941),
 .UNSPECIFIED.,.T.,.F.)
B_SPLINE_CURVE_WITH_KNOTS((3,2,2,2,3),(-7.19424717672063,-5.39568538254047,
-3.59712358836031,-1.79856179418016,0.),.UNSPECIFIED.)
CURVE()
GEOMETRIC_REPRESENTATION_ITEM()
RATIONAL_B_SPLINE_CURVE((1.,0.707106781186548,1.,0.707106781186548,1.,0.707106781186548,
1.,0.707106781186548,1.))
REPRESENTATION_ITEM('')
);
#356=(
BOUNDED_CURVE()
B_SPLINE_CURVE(2,(#942,#943,#944,#945,#946,#947,#948,#949,#950),
 .UNSPECIFIED.,.T.,.F.)
B_SPLINE_CURVE_WITH_KNOTS((3,2,2,2,3),(-7.19424717672063,-5.39568538254047,
-3.59712358836031,-1.79856179418016,0.),.UNSPECIFIED.)
CURVE()
GEOMETRIC_REPRESENTATION_ITEM()
RATIONAL_B_SPLINE_CURVE((1.,0.707106781186548,1.,0.707106781186548,1.,0.707106781186548,
1.,0.707106781186548,1.))
REPRESENTATION_ITEM('')
);
#357=(
BOUNDED_CURVE()
B_SPLINE_CURVE(1,(#951,#952),.UNSPECIFIED.,.F.,.F.)
B_SPLINE_CURVE_WITH_KNOTS((2,2),(2.81,3.21),.UNSPECIFIED.)
CURVE()
GEOMETRIC_REPRESENTATION_ITEM()
RATIONAL_B_SPLINE_CURVE((1.,1.))
REPRESENTATION_ITEM('')
);
#358=(
BOUNDED_CURVE()
B_SPLINE_CURVE(2,(#973,#974,#975,#976,#977,#978,#979,#980,#981),
 .UNSPECIFIED.,.T.,.F.)
B_SPLINE_CURVE_WITH_KNOTS((3,2,2,2,3),(-7.19424717672063,-5.39568538254047,
-3.59712358836031,-1.79856179418016,0.),.UNSPECIFIED.)
CURVE()
GEOMETRIC_REPRESENTATION_ITEM()
RATIONAL_B_SPLINE_CURVE((1.,0.707106781186548,1.,0.707106781186548,1.,0.707106781186548,
1.,0.707106781186548,1.))
REPRESENTATION_ITEM('')
);
#359=(
BOUNDED_CURVE()
B_SPLINE_CURVE(2,(#982,#983,#984,#985,#986,#987,#988,#989,#990),
 .UNSPECIFIED.,.T.,.F.)
B_SPLINE_CURVE_WITH_KNOTS((3,2,2,2,3),(-7.19424717672063,-5.39568538254047,
-3.59712358836031,-1.79856179418016,0.),.UNSPECIFIED.)
CURVE()
GEOMETRIC_REPRESENTATION_ITEM()
RATIONAL_B_SPLINE_CURVE((1.,0.707106781186548,1.,0.707106781186548,1.,0.707106781186548,
1.,0.707106781186548,1.))
REPRESENTATION_ITEM('')
);
#360=(
BOUNDED_CURVE()
B_SPLINE_CURVE(1,(#991,#992),.UNSPECIFIED.,.F.,.F.)
B_SPLINE_CURVE_WITH_KNOTS((2,2),(4.81,5.11),.UNSPECIFIED.)
CURVE()
GEOMETRIC_REPRESENTATION_ITEM()
RATIONAL_B_SPLINE_CURVE((1.,1.))
REPRESENTATION_ITEM('')
);
#361=(
BOUNDED_CURVE()
B_SPLINE_CURVE(3,(#1225,#1226,#1227,#1228),.UNSPECIFIED.,.F.,.F.)
B_SPLINE_CURVE_WITH_KNOTS((4,4),(0.,10.81),.UNSPECIFIED.)
CURVE()
GEOMETRIC_REPRESENTATION_ITEM()
RATIONAL_B_SPLINE_CURVE((1.,1.,1.,1.))
REPRESENTATION_ITEM('')
);
#362=(
BOUNDED_CURVE()
B_SPLINE_CURVE(2,(#1229,#1230,#1231,#1232,#1233,#1234,#1235,#1236,#1237),
 .UNSPECIFIED.,.T.,.F.)
B_SPLINE_CURVE_WITH_KNOTS((3,2,2,2,3),(0.,0.45553093477052,0.91106186954104,
1.36659280431156,1.82212373908208),.UNSPECIFIED.)
CURVE()
GEOMETRIC_REPRESENTATION_ITEM()
RATIONAL_B_SPLINE_CURVE((1.,0.707106781186548,1.,0.707106781186548,1.,0.707106781186548,
1.,0.707106781186548,1.))
REPRESENTATION_ITEM('')
);
#363=(
BOUNDED_CURVE()
B_SPLINE_CURVE(3,(#1238,#1239,#1240,#1241,#1242,#1243,#1244,#1245,#1246,
#1247,#1248,#1249,#1250,#1251,#1252,#1253,#1254,#1255,#1256,#1257,#1258,
#1259,#1260,#1261,#1262),.UNSPECIFIED.,.F.,.F.)
B_SPLINE_CURVE_WITH_KNOTS((4,3,3,3,3,3,3,3,4),(0.,0.478737262993597,0.997454092472042,
1.51617092195048,1.99490818494409,2.47364544793768,2.99236227741613,3.51107910689457,
3.98981636988817),.UNSPECIFIED.)
CURVE()
GEOMETRIC_REPRESENTATION_ITEM()
RATIONAL_B_SPLINE_CURVE((1.,1.,1.,1.,1.,1.,1.,1.,1.,1.,1.,1.,1.,1.,1.,1.,
1.,1.,1.,1.,1.,1.,1.,1.,1.))
REPRESENTATION_ITEM('')
);
#364=(
BOUNDED_CURVE()
B_SPLINE_CURVE(2,(#1263,#1264,#1265,#1266,#1267,#1268,#1269,#1270,#1271),
 .UNSPECIFIED.,.T.,.F.)
B_SPLINE_CURVE_WITH_KNOTS((3,2,2,2,3),(0.,0.45553093477052,0.91106186954104,
1.36659280431156,1.82212373908208),.UNSPECIFIED.)
CURVE()
GEOMETRIC_REPRESENTATION_ITEM()
RATIONAL_B_SPLINE_CURVE((1.,0.707106781186548,1.,0.707106781186548,1.,0.707106781186548,
1.,0.707106781186548,1.))
REPRESENTATION_ITEM('')
);
#365=(
BOUNDED_CURVE()
B_SPLINE_CURVE(3,(#1272,#1273,#1274,#1275),.UNSPECIFIED.,.F.,.F.)
B_SPLINE_CURVE_WITH_KNOTS((4,4),(0.,10.81),.UNSPECIFIED.)
CURVE()
GEOMETRIC_REPRESENTATION_ITEM()
RATIONAL_B_SPLINE_CURVE((1.,1.,1.,1.))
REPRESENTATION_ITEM('')
);
#366=(
BOUNDED_CURVE()
B_SPLINE_CURVE(2,(#1276,#1277,#1278),.UNSPECIFIED.,.F.,.F.)
B_SPLINE_CURVE_WITH_KNOTS((3,3),(0.,0.45553093477052),.UNSPECIFIED.)
CURVE()
GEOMETRIC_REPRESENTATION_ITEM()
RATIONAL_B_SPLINE_CURVE((1.,0.707106781186548,1.))
REPRESENTATION_ITEM('')
);
#367=(
BOUNDED_CURVE()
B_SPLINE_CURVE(2,(#1279,#1280,#1281,#1282,#1283,#1284,#1285,#1286,#1287),
 .UNSPECIFIED.,.T.,.F.)
B_SPLINE_CURVE_WITH_KNOTS((3,2,2,2,3),(0.,1.5707963267949,3.14159265358979,
4.71238898038469,6.28318530717959),.UNSPECIFIED.)
CURVE()
GEOMETRIC_REPRESENTATION_ITEM()
RATIONAL_B_SPLINE_CURVE((1.,0.707106781186548,1.,0.707106781186548,1.,0.707106781186548,
1.,0.707106781186548,1.))
REPRESENTATION_ITEM('')
);
#368=(
BOUNDED_CURVE()
B_SPLINE_CURVE(2,(#1288,#1289,#1290),.UNSPECIFIED.,.F.,.F.)
B_SPLINE_CURVE_WITH_KNOTS((3,3),(0.,0.455530934770519),.UNSPECIFIED.)
CURVE()
GEOMETRIC_REPRESENTATION_ITEM()
RATIONAL_B_SPLINE_CURVE((1.,0.707106781186547,1.))
REPRESENTATION_ITEM('')
);
#369=(
BOUNDED_CURVE()
B_SPLINE_CURVE(2,(#1291,#1292,#1293),.UNSPECIFIED.,.F.,.F.)
B_SPLINE_CURVE_WITH_KNOTS((3,3),(-6.28318530717959,-4.71238898038469),
 .UNSPECIFIED.)
CURVE()
GEOMETRIC_REPRESENTATION_ITEM()
RATIONAL_B_SPLINE_CURVE((1.,0.707106781186548,1.))
REPRESENTATION_ITEM('')
);
#370=(
BOUNDED_CURVE()
B_SPLINE_CURVE(2,(#1294,#1295,#1296,#1297,#1298,#1299,#1300,#1301,#1302),
 .UNSPECIFIED.,.F.,.F.)
B_SPLINE_CURVE_WITH_KNOTS((3,2,2,2,3),(-4.71238898038469,-3.53429173528852,
-2.35619449019234,-1.17809724509617,0.),.UNSPECIFIED.)
CURVE()
GEOMETRIC_REPRESENTATION_ITEM()
RATIONAL_B_SPLINE_CURVE((1.,0.831469612302545,1.,0.831469612302545,1.,0.831469612302545,
1.,0.831469612302545,1.))
REPRESENTATION_ITEM('')
);
#371=(
BOUNDED_CURVE()
B_SPLINE_CURVE(2,(#1303,#1304,#1305,#1306,#1307,#1308,#1309,#1310,#1311),
 .UNSPECIFIED.,.F.,.F.)
B_SPLINE_CURVE_WITH_KNOTS((3,2,2,2,3),(-10.81,0.,1.99491133502952,3.98982267005905,
14.799822670059),.UNSPECIFIED.)
CURVE()
GEOMETRIC_REPRESENTATION_ITEM()
RATIONAL_B_SPLINE_CURVE((1.,1.,1.,0.707106781186548,1.,0.707106781186548,
1.,1.,1.))
REPRESENTATION_ITEM('')
);
#372=VERTEX_POINT('',#498);
#373=VERTEX_POINT('',#499);
#374=VERTEX_POINT('',#500);
#375=VERTEX_POINT('',#551);
#376=VERTEX_POINT('',#552);
#377=VERTEX_POINT('',#591);
#378=VERTEX_POINT('',#592);
#379=VERTEX_POINT('',#631);
#380=VERTEX_POINT('',#632);
#381=VERTEX_POINT('',#698);
#382=VERTEX_POINT('',#699);
#383=VERTEX_POINT('',#700);
#384=VERTEX_POINT('',#760);
#385=VERTEX_POINT('',#761);
#386=VERTEX_POINT('',#810);
#387=VERTEX_POINT('',#811);
#388=VERTEX_POINT('',#851);
#389=VERTEX_POINT('',#852);
#390=VERTEX_POINT('',#891);
#391=VERTEX_POINT('',#892);
#392=VERTEX_POINT('',#931);
#393=VERTEX_POINT('',#932);
#394=VERTEX_POINT('',#971);
#395=VERTEX_POINT('',#972);
#396=VERTEX_POINT('',#1218);
#397=VERTEX_POINT('',#1219);
#398=VERTEX_POINT('',#1220);
#399=VERTEX_POINT('',#1221);
#400=VERTEX_POINT('',#1222);
#401=VERTEX_POINT('',#1223);
#402=VERTEX_POINT('',#1224);
#403=(
BOUNDED_SURFACE()
B_SPLINE_SURFACE(2,2,((#453,#454,#455),(#456,#457,#458),(#459,#460,#461),
(#462,#463,#464),(#465,#466,#467),(#468,#469,#470),(#471,#472,#473),(#474,
#475,#476),(#477,#478,#479)),.UNSPECIFIED.,.T.,.F.,.F.)
B_SPLINE_SURFACE_WITH_KNOTS((3,2,2,2,3),(3,3),(0.,0.447665643285754,0.895331286571508,
1.34299692985726,1.79066257314302),(0.,1.),.UNSPECIFIED.)
GEOMETRIC_REPRESENTATION_ITEM()
RATIONAL_B_SPLINE_SURFACE(((1.,0.707106781186547,1.),(0.707106781186548,
0.5,0.707106781186548),(1.,0.707106781186547,1.),(0.707106781186548,0.5,
0.707106781186548),(1.,0.707106781186547,1.),(0.707106781186548,0.5,0.707106781186548),
(1.,0.707106781186547,1.),(0.707106781186548,0.5,0.707106781186548),(1.,
0.707106781186547,1.)))
REPRESENTATION_ITEM('')
SURFACE()
);
#404=(
BOUNDED_SURFACE()
B_SPLINE_SURFACE(2,1,((#480,#481),(#482,#483),(#484,#485),(#486,#487),(#488,
#489),(#490,#491),(#492,#493),(#494,#495),(#496,#497)),.UNSPECIFIED.,.T.,
 .F.,.F.)
B_SPLINE_SURFACE_WITH_KNOTS((3,2,2,2,3),(2,2),(0.,1.79856179418016,3.59712358836031,
5.39568538254047,7.19424717672063),(0.,6.22),.UNSPECIFIED.)
GEOMETRIC_REPRESENTATION_ITEM()
RATIONAL_B_SPLINE_SURFACE(((1.,1.),(0.707106781186548,0.707106781186548),
(1.,1.),(0.707106781186548,0.707106781186548),(1.,1.),(0.707106781186548,
0.707106781186548),(1.,1.),(0.707106781186548,0.707106781186548),(1.,1.)))
REPRESENTATION_ITEM('')
SURFACE()
);
#405=(
BOUNDED_SURFACE()
B_SPLINE_SURFACE(2,1,((#533,#534),(#535,#536),(#537,#538),(#539,#540),(#541,
#542),(#543,#544),(#545,#546),(#547,#548),(#549,#550)),.UNSPECIFIED.,.T.,
 .F.,.F.)
B_SPLINE_SURFACE_WITH_KNOTS((3,2,2,2,3),(2,2),(0.,1.79856179418016,3.59712358836031,
5.39568538254047,7.19424717672063),(0.,6.22),.UNSPECIFIED.)
GEOMETRIC_REPRESENTATION_ITEM()
RATIONAL_B_SPLINE_SURFACE(((1.,1.),(0.707106781186548,0.707106781186548),
(1.,1.),(0.707106781186548,0.707106781186548),(1.,1.),(0.707106781186548,
0.707106781186548),(1.,1.),(0.707106781186548,0.707106781186548),(1.,1.)))
REPRESENTATION_ITEM('')
SURFACE()
);
#406=(
BOUNDED_SURFACE()
B_SPLINE_SURFACE(2,1,((#573,#574),(#575,#576),(#577,#578),(#579,#580),(#581,
#582),(#583,#584),(#585,#586),(#587,#588),(#589,#590)),.UNSPECIFIED.,.T.,
 .F.,.F.)
B_SPLINE_SURFACE_WITH_KNOTS((3,2,2,2,3),(2,2),(0.,1.79856179418016,3.59712358836031,
5.39568538254047,7.19424717672063),(0.,6.22),.UNSPECIFIED.)
GEOMETRIC_REPRESENTATION_ITEM()
RATIONAL_B_SPLINE_SURFACE(((1.,1.),(0.707106781186548,0.707106781186548),
(1.,1.),(0.707106781186548,0.707106781186548),(1.,1.),(0.707106781186548,
0.707106781186548),(1.,1.),(0.707106781186548,0.707106781186548),(1.,1.)))
REPRESENTATION_ITEM('')
SURFACE()
);
#407=(
BOUNDED_SURFACE()
B_SPLINE_SURFACE(2,1,((#613,#614),(#615,#616),(#617,#618),(#619,#620),(#621,
#622),(#623,#624),(#625,#626),(#627,#628),(#629,#630)),.UNSPECIFIED.,.T.,
 .F.,.F.)
B_SPLINE_SURFACE_WITH_KNOTS((3,2,2,2,3),(2,2),(0.,1.79856179418016,3.59712358836031,
5.39568538254047,7.19424717672063),(0.,6.22),.UNSPECIFIED.)
GEOMETRIC_REPRESENTATION_ITEM()
RATIONAL_B_SPLINE_SURFACE(((1.,1.),(0.707106781186548,0.707106781186548),
(1.,1.),(0.707106781186548,0.707106781186548),(1.,1.),(0.707106781186548,
0.707106781186548),(1.,1.),(0.707106781186548,0.707106781186548),(1.,1.)))
REPRESENTATION_ITEM('')
SURFACE()
);
#408=(
BOUNDED_SURFACE()
B_SPLINE_SURFACE(2,1,((#653,#654),(#655,#656),(#657,#658),(#659,#660),(#661,
#662),(#663,#664),(#665,#666),(#667,#668),(#669,#670)),.UNSPECIFIED.,.T.,
 .F.,.F.)
B_SPLINE_SURFACE_WITH_KNOTS((3,2,2,2,3),(2,2),(0.,1.79856179418016,3.59712358836031,
5.39568538254047,7.19424717672063),(0.,6.22),.UNSPECIFIED.)
GEOMETRIC_REPRESENTATION_ITEM()
RATIONAL_B_SPLINE_SURFACE(((1.,1.),(0.707106781186548,0.707106781186548),
(1.,1.),(0.707106781186548,0.707106781186548),(1.,1.),(0.707106781186548,
0.707106781186548),(1.,1.),(0.707106781186548,0.707106781186548),(1.,1.)))
REPRESENTATION_ITEM('')
SURFACE()
);
#409=(
BOUNDED_SURFACE()
B_SPLINE_SURFACE(2,2,((#671,#672,#673,#674,#675,#676,#677,#678,#679),(#680,
#681,#682,#683,#684,#685,#686,#687,#688),(#689,#690,#691,#692,#693,#694,
#695,#696,#697)),.UNSPECIFIED.,.F.,.F.,.F.)
B_SPLINE_SURFACE_WITH_KNOTS((3,3),(3,2,2,2,3),(0.,1.),(0.,0.447665643285754,
0.895331286571507,1.34299692985726,1.79066257314301),.UNSPECIFIED.)
GEOMETRIC_REPRESENTATION_ITEM()
RATIONAL_B_SPLINE_SURFACE(((1.,0.707106781186548,1.,0.707106781186548,1.,
0.707106781186548,1.,0.707106781186548,1.),(0.707106781186547,0.5,0.707106781186547,
0.5,0.707106781186547,0.5,0.707106781186547,0.5,0.707106781186547),(1.,
0.707106781186548,1.,0.707106781186548,1.,0.707106781186548,1.,0.707106781186548,
1.)))
REPRESENTATION_ITEM('')
SURFACE()
);
#410=(
BOUNDED_SURFACE()
B_SPLINE_SURFACE(2,2,((#733,#734,#735),(#736,#737,#738),(#739,#740,#741),
(#742,#743,#744),(#745,#746,#747),(#748,#749,#750),(#751,#752,#753),(#754,
#755,#756),(#757,#758,#759)),.UNSPECIFIED.,.T.,.F.,.F.)
B_SPLINE_SURFACE_WITH_KNOTS((3,2,2,2,3),(3,3),(0.,0.447665643285754,0.895331286571508,
1.34299692985726,1.79066257314302),(0.,1.),.UNSPECIFIED.)
GEOMETRIC_REPRESENTATION_ITEM()
RATIONAL_B_SPLINE_SURFACE(((1.,0.707106781186547,1.),(0.707106781186548,
0.5,0.707106781186548),(1.,0.707106781186547,1.),(0.707106781186548,0.5,
0.707106781186548),(1.,0.707106781186547,1.),(0.707106781186548,0.5,0.707106781186548),
(1.,0.707106781186547,1.),(0.707106781186548,0.5,0.707106781186548),(1.,
0.707106781186547,1.)))
REPRESENTATION_ITEM('')
SURFACE()
);
#411=(
BOUNDED_SURFACE()
B_SPLINE_SURFACE(2,2,((#783,#784,#785,#786,#787,#788,#789,#790,#791),(#792,
#793,#794,#795,#796,#797,#798,#799,#800),(#801,#802,#803,#804,#805,#806,
#807,#808,#809)),.UNSPECIFIED.,.F.,.F.,.F.)
B_SPLINE_SURFACE_WITH_KNOTS((3,3),(3,2,2,2,3),(0.,1.),(0.,0.447665643285754,
0.895331286571507,1.34299692985726,1.79066257314301),.UNSPECIFIED.)
GEOMETRIC_REPRESENTATION_ITEM()
RATIONAL_B_SPLINE_SURFACE(((1.,0.707106781186548,1.,0.707106781186548,1.,
0.707106781186548,1.,0.707106781186548,1.),(0.707106781186547,0.5,0.707106781186547,
0.5,0.707106781186547,0.5,0.707106781186547,0.5,0.707106781186547),(1.,
0.707106781186548,1.,0.707106781186548,1.,0.707106781186548,1.,0.707106781186548,
1.)))
REPRESENTATION_ITEM('')
SURFACE()
);
#412=(
BOUNDED_SURFACE()
B_SPLINE_SURFACE(2,1,((#833,#834),(#835,#836),(#837,#838),(#839,#840),(#841,
#842),(#843,#844),(#845,#846),(#847,#848),(#849,#850)),.UNSPECIFIED.,.T.,
 .F.,.F.)
B_SPLINE_SURFACE_WITH_KNOTS((3,2,2,2,3),(2,2),(0.,1.79856179418016,3.59712358836031,
5.39568538254047,7.19424717672063),(0.,6.22),.UNSPECIFIED.)
GEOMETRIC_REPRESENTATION_ITEM()
RATIONAL_B_SPLINE_SURFACE(((1.,1.),(0.707106781186548,0.707106781186548),
(1.,1.),(0.707106781186548,0.707106781186548),(1.,1.),(0.707106781186548,
0.707106781186548),(1.,1.),(0.707106781186548,0.707106781186548),(1.,1.)))
REPRESENTATION_ITEM('')
SURFACE()
);
#413=(
BOUNDED_SURFACE()
B_SPLINE_SURFACE(2,1,((#873,#874),(#875,#876),(#877,#878),(#879,#880),(#881,
#882),(#883,#884),(#885,#886),(#887,#888),(#889,#890)),.UNSPECIFIED.,.T.,
 .F.,.F.)
B_SPLINE_SURFACE_WITH_KNOTS((3,2,2,2,3),(2,2),(0.,1.79856179418016,3.59712358836031,
5.39568538254047,7.19424717672063),(0.,6.22),.UNSPECIFIED.)
GEOMETRIC_REPRESENTATION_ITEM()
RATIONAL_B_SPLINE_SURFACE(((1.,1.),(0.707106781186548,0.707106781186548),
(1.,1.),(0.707106781186548,0.707106781186548),(1.,1.),(0.707106781186548,
0.707106781186548),(1.,1.),(0.707106781186548,0.707106781186548),(1.,1.)))
REPRESENTATION_ITEM('')
SURFACE()
);
#414=(
BOUNDED_SURFACE()
B_SPLINE_SURFACE(2,1,((#913,#914),(#915,#916),(#917,#918),(#919,#920),(#921,
#922),(#923,#924),(#925,#926),(#927,#928),(#929,#930)),.UNSPECIFIED.,.T.,
 .F.,.F.)
B_SPLINE_SURFACE_WITH_KNOTS((3,2,2,2,3),(2,2),(0.,1.79856179418016,3.59712358836031,
5.39568538254047,7.19424717672063),(0.,6.22),.UNSPECIFIED.)
GEOMETRIC_REPRESENTATION_ITEM()
RATIONAL_B_SPLINE_SURFACE(((1.,1.),(0.707106781186548,0.707106781186548),
(1.,1.),(0.707106781186548,0.707106781186548),(1.,1.),(0.707106781186548,
0.707106781186548),(1.,1.),(0.707106781186548,0.707106781186548),(1.,1.)))
REPRESENTATION_ITEM('')
SURFACE()
);
#415=(
BOUNDED_SURFACE()
B_SPLINE_SURFACE(2,1,((#953,#954),(#955,#956),(#957,#958),(#959,#960),(#961,
#962),(#963,#964),(#965,#966),(#967,#968),(#969,#970)),.UNSPECIFIED.,.T.,
 .F.,.F.)
B_SPLINE_SURFACE_WITH_KNOTS((3,2,2,2,3),(2,2),(0.,1.79856179418016,3.59712358836031,
5.39568538254047,7.19424717672063),(0.,6.22),.UNSPECIFIED.)
GEOMETRIC_REPRESENTATION_ITEM()
RATIONAL_B_SPLINE_SURFACE(((1.,1.),(0.707106781186548,0.707106781186548),
(1.,1.),(0.707106781186548,0.707106781186548),(1.,1.),(0.707106781186548,
0.707106781186548),(1.,1.),(0.707106781186548,0.707106781186548),(1.,1.)))
REPRESENTATION_ITEM('')
SURFACE()
);
#416=(
BOUNDED_SURFACE()
B_SPLINE_SURFACE(2,3,((#993,#994,#995,#996),(#997,#998,#999,#1000),(#1001,
#1002,#1003,#1004),(#1005,#1006,#1007,#1008),(#1009,#1010,#1011,#1012),
(#1013,#1014,#1015,#1016),(#1017,#1018,#1019,#1020),(#1021,#1022,#1023,
#1024),(#1025,#1026,#1027,#1028)),.UNSPECIFIED.,.T.,.F.,.F.)
B_SPLINE_SURFACE_WITH_KNOTS((3,2,2,2,3),(4,4),(0.,0.45553093477052,0.91106186954104,
1.36659280431156,1.82212373908208),(0.,10.81),.UNSPECIFIED.)
GEOMETRIC_REPRESENTATION_ITEM()
RATIONAL_B_SPLINE_SURFACE(((1.,1.,1.,1.),(0.707106781186548,0.707106781186548,
0.707106781186547,0.707106781186548),(1.,1.,1.,1.),(0.707106781186548,0.707106781186548,
0.707106781186547,0.707106781186548),(1.,1.,1.,1.),(0.707106781186548,0.707106781186548,
0.707106781186547,0.707106781186548),(1.,1.,1.,1.),(0.707106781186548,0.707106781186548,
0.707106781186547,0.707106781186548),(1.,1.,1.,1.)))
REPRESENTATION_ITEM('')
SURFACE()
);
#417=(
BOUNDED_SURFACE()
B_SPLINE_SURFACE(2,3,((#1029,#1030,#1031,#1032,#1033,#1034,#1035,#1036,
#1037,#1038,#1039),(#1040,#1041,#1042,#1043,#1044,#1045,#1046,#1047,#1048,
#1049,#1050),(#1051,#1052,#1053,#1054,#1055,#1056,#1057,#1058,#1059,#1060,
#1061),(#1062,#1063,#1064,#1065,#1066,#1067,#1068,#1069,#1070,#1071,#1072),
(#1073,#1074,#1075,#1076,#1077,#1078,#1079,#1080,#1081,#1082,#1083),(#1084,
#1085,#1086,#1087,#1088,#1089,#1090,#1091,#1092,#1093,#1094),(#1095,#1096,
#1097,#1098,#1099,#1100,#1101,#1102,#1103,#1104,#1105),(#1106,#1107,#1108,
#1109,#1110,#1111,#1112,#1113,#1114,#1115,#1116),(#1117,#1118,#1119,#1120,
#1121,#1122,#1123,#1124,#1125,#1126,#1127)),.UNSPECIFIED.,.T.,.F.,.F.)
B_SPLINE_SURFACE_WITH_KNOTS((3,2,2,2,3),(4,1,1,1,1,1,1,1,4),(0.,0.45553093477052,
0.91106186954104,1.36659280431156,1.82212373908208),(0.,0.478737262993597,
0.997454092472042,1.51617092195048,1.99490818494409,2.47364544793768,2.99236227741613,
3.51107910689457,3.98981636988817),.UNSPECIFIED.)
GEOMETRIC_REPRESENTATION_ITEM()
RATIONAL_B_SPLINE_SURFACE(((1.,1.,1.,1.,1.,1.,1.,1.,1.,1.,1.),(0.707106781186548,
0.707106781186548,0.707106781186548,0.707106781186548,0.707106781186547,
0.707106781186548,0.707106781186548,0.707106781186548,0.707106781186548,
0.707106781186548,0.707106781186548),(1.,1.,1.,1.,1.,1.,1.,1.,1.,1.,1.),
(0.707106781186548,0.707106781186548,0.707106781186548,0.707106781186548,
0.707106781186547,0.707106781186548,0.707106781186548,0.707106781186548,
0.707106781186548,0.707106781186548,0.707106781186548),(1.,1.,1.,1.,1.,
1.,1.,1.,1.,1.,1.),(0.707106781186548,0.707106781186548,0.707106781186548,
0.707106781186548,0.707106781186547,0.707106781186548,0.707106781186548,
0.707106781186548,0.707106781186548,0.707106781186548,0.707106781186548),
(1.,1.,1.,1.,1.,1.,1.,1.,1.,1.,1.),(0.707106781186548,0.707106781186548,
0.707106781186548,0.707106781186548,0.707106781186547,0.707106781186548,
0.707106781186548,0.707106781186548,0.707106781186548,0.707106781186548,
0.707106781186548),(1.,1.,1.,1.,1.,1.,1.,1.,1.,1.,1.)))
REPRESENTATION_ITEM('')
SURFACE()
);
#418=(
BOUNDED_SURFACE()
B_SPLINE_SURFACE(2,3,((#1128,#1129,#1130,#1131),(#1132,#1133,#1134,#1135),
(#1136,#1137,#1138,#1139),(#1140,#1141,#1142,#1143),(#1144,#1145,#1146,
#1147),(#1148,#1149,#1150,#1151),(#1152,#1153,#1154,#1155),(#1156,#1157,
#1158,#1159),(#1160,#1161,#1162,#1163)),.UNSPECIFIED.,.T.,.F.,.F.)
B_SPLINE_SURFACE_WITH_KNOTS((3,2,2,2,3),(4,4),(0.,0.45553093477052,0.91106186954104,
1.36659280431156,1.82212373908208),(0.,10.81),.UNSPECIFIED.)
GEOMETRIC_REPRESENTATION_ITEM()
RATIONAL_B_SPLINE_SURFACE(((1.,1.,1.,1.),(0.707106781186548,0.707106781186548,
0.707106781186547,0.707106781186548),(1.,1.,1.,1.),(0.707106781186548,0.707106781186548,
0.707106781186547,0.707106781186548),(1.,1.,1.,1.),(0.707106781186548,0.707106781186548,
0.707106781186547,0.707106781186548),(1.,1.,1.,1.),(0.707106781186548,0.707106781186548,
0.707106781186547,0.707106781186548),(1.,1.,1.,1.)))
REPRESENTATION_ITEM('')
SURFACE()
);
#419=(
BOUNDED_SURFACE()
B_SPLINE_SURFACE(2,2,((#1164,#1165,#1166,#1167,#1168,#1169,#1170,#1171,
#1172),(#1173,#1174,#1175,#1176,#1177,#1178,#1179,#1180,#1181),(#1182,#1183,
#1184,#1185,#1186,#1187,#1188,#1189,#1190)),.UNSPECIFIED.,.F.,.F.,.F.)
B_SPLINE_SURFACE_WITH_KNOTS((3,3),(3,2,2,2,3),(0.,0.45553093477052),(0.,
1.5707963267949,3.14159265358979,4.71238898038469,6.28318530717959),
 .UNSPECIFIED.)
GEOMETRIC_REPRESENTATION_ITEM()
RATIONAL_B_SPLINE_SURFACE(((1.,0.707106781186548,1.,0.707106781186548,1.,
0.707106781186548,1.,0.707106781186548,1.),(0.707106781186548,0.5,0.707106781186548,
0.5,0.707106781186548,0.5,0.707106781186548,0.5,0.707106781186548),(1.,
0.707106781186548,1.,0.707106781186548,1.,0.707106781186548,1.,0.707106781186548,
1.)))
REPRESENTATION_ITEM('')
SURFACE()
);
#420=(
BOUNDED_SURFACE()
B_SPLINE_SURFACE(2,2,((#1191,#1192,#1193),(#1194,#1195,#1196),(#1197,#1198,
#1199),(#1200,#1201,#1202),(#1203,#1204,#1205),(#1206,#1207,#1208),(#1209,
#1210,#1211),(#1212,#1213,#1214),(#1215,#1216,#1217)),.UNSPECIFIED.,.T.,
 .F.,.F.)
B_SPLINE_SURFACE_WITH_KNOTS((3,2,2,2,3),(3,3),(0.,1.5707963267949,3.14159265358979,
4.71238898038469,6.28318530717959),(0.,0.455530934770519),.UNSPECIFIED.)
GEOMETRIC_REPRESENTATION_ITEM()
RATIONAL_B_SPLINE_SURFACE(((1.,0.707106781186547,1.),(0.707106781186548,
0.5,0.707106781186548),(1.,0.707106781186547,1.),(0.707106781186548,0.5,
0.707106781186548),(1.,0.707106781186547,1.),(0.707106781186548,0.5,0.707106781186548),
(1.,0.707106781186547,1.),(0.707106781186548,0.5,0.707106781186548),(1.,
0.707106781186547,1.)))
REPRESENTATION_ITEM('')
SURFACE()
);
#421=SHAPE_DEFINITION_REPRESENTATION(#422,#439);
#422=PRODUCT_DEFINITION_SHAPE('Document','',#424);
#423=PRODUCT_DEFINITION_CONTEXT('3D Mechanical Parts',#428,'design');
#424=PRODUCT_DEFINITION('A','First version',#425,#423);
#425=PRODUCT_DEFINITION_FORMATION_WITH_SPECIFIED_SOURCE('A',
'First version',#430,.MADE.);
#426=PRODUCT_RELATED_PRODUCT_CATEGORY('tool','tool',(#430));
#427=APPLICATION_PROTOCOL_DEFINITION('Draft International Standard',
'automotive_design',1999,#428);
#428=APPLICATION_CONTEXT(
'data for automotive mechanical design processes');
#429=PRODUCT_CONTEXT('3D Mechanical Parts',#428,'mechanical');
#430=PRODUCT('Document','Document','Rhino converted to STEP',(#429));
#431=(
LENGTH_UNIT()
NAMED_UNIT(*)
SI_UNIT(.MILLI.,.METRE.)
);
#432=(
NAMED_UNIT(*)
PLANE_ANGLE_UNIT()
SI_UNIT($,.RADIAN.)
);
#433=DIMENSIONAL_EXPONENTS(0.,0.,0.,0.,0.,0.,0.);
#434=PLANE_ANGLE_MEASURE_WITH_UNIT(PLANE_ANGLE_MEASURE(0.01745329252),#432);
#435=(
CONVERSION_BASED_UNIT('DEGREES',#434)
NAMED_UNIT(#433)
PLANE_ANGLE_UNIT()
);
#436=(
NAMED_UNIT(*)
SI_UNIT($,.STERADIAN.)
SOLID_ANGLE_UNIT()
);
#437=UNCERTAINTY_MEASURE_WITH_UNIT(LENGTH_MEASURE(0.001),#431,
'DISTANCE_ACCURACY_VALUE',
'Maximum model space distance between geometric entities at asserted c
onnectivities');
#438=(
GEOMETRIC_REPRESENTATION_CONTEXT(3)
GLOBAL_UNCERTAINTY_ASSIGNED_CONTEXT((#437))
GLOBAL_UNIT_ASSIGNED_CONTEXT((#436,#435,#431))
REPRESENTATION_CONTEXT('ID1','3D')
);
#439=SHAPE_REPRESENTATION('Document',(#440,#441,#442,#443),#438);
#440=AXIS2_PLACEMENT_3D('',#452,#444,#445);
#441=AXIS2_PLACEMENT_3D('',#1312,#446,#447);
#442=AXIS2_PLACEMENT_3D('',#1313,#448,#449);
#443=AXIS2_PLACEMENT_3D('',#1314,#450,#451);
#444=DIRECTION('',(0.,0.,1.));
#445=DIRECTION('',(1.,0.,0.));
#446=DIRECTION('',(0.,0.,1.));
#447=DIRECTION('',(1.,0.,0.));
#448=DIRECTION('',(0.,0.,1.));
#449=DIRECTION('',(1.,0.,0.));
#450=DIRECTION('',(0.,0.,1.));
#451=DIRECTION('',(1.,0.,0.));
#452=CARTESIAN_POINT('',(0.,0.,0.));
#453=CARTESIAN_POINT('',(-61.145,1.5,4.44089209850063E-16));
#454=CARTESIAN_POINT('',(-61.145,0.640000000000002,3.14018491736755E-16));
#455=CARTESIAN_POINT('',(-60.285,0.640000000000001,0.));
#456=CARTESIAN_POINT('',(-61.145,1.5,-1.145));
#457=CARTESIAN_POINT('',(-61.145,0.640000000000002,-1.145));
#458=CARTESIAN_POINT('',(-60.285,0.640000000000001,-0.284999999999997));
#459=CARTESIAN_POINT('',(-60.,1.5,-1.145));
#460=CARTESIAN_POINT('',(-60.,0.640000000000002,-1.145));
#461=CARTESIAN_POINT('',(-60.,0.640000000000001,-0.284999999999997));
#462=CARTESIAN_POINT('',(-58.855,1.5,-1.145));
#463=CARTESIAN_POINT('',(-58.855,0.640000000000002,-1.145));
#464=CARTESIAN_POINT('',(-59.715,0.640000000000001,-0.284999999999997));
#465=CARTESIAN_POINT('',(-58.855,1.5,-5.84311268352434E-16));
#466=CARTESIAN_POINT('',(-58.855,0.640000000000002,-4.54240550239128E-16));
#467=CARTESIAN_POINT('',(-59.715,0.640000000000001,-3.49024337756992E-17));
#468=CARTESIAN_POINT('',(-58.855,1.5,1.145));
#469=CARTESIAN_POINT('',(-58.855,0.640000000000002,1.145));
#470=CARTESIAN_POINT('',(-59.715,0.640000000000001,0.284999999999997));
#471=CARTESIAN_POINT('',(-60.,1.5,1.145));
#472=CARTESIAN_POINT('',(-60.,0.640000000000002,1.145));
#473=CARTESIAN_POINT('',(-60.,0.640000000000001,0.284999999999997));
#474=CARTESIAN_POINT('',(-61.145,1.5,1.145));
#475=CARTESIAN_POINT('',(-61.145,0.640000000000002,1.145));
#476=CARTESIAN_POINT('',(-60.285,0.640000000000001,0.284999999999997));
#477=CARTESIAN_POINT('',(-61.145,1.5,4.44089209850063E-16));
#478=CARTESIAN_POINT('',(-61.145,0.640000000000002,3.14018491736755E-16));
#479=CARTESIAN_POINT('',(-60.285,0.640000000000001,0.));
#480=CARTESIAN_POINT('',(-61.145,6.86,0.));
#481=CARTESIAN_POINT('',(-61.145,0.640000000000001,0.));
#482=CARTESIAN_POINT('',(-61.145,6.86,-1.145));
#483=CARTESIAN_POINT('',(-61.145,0.64,-1.145));
#484=CARTESIAN_POINT('',(-60.,6.86,-1.145));
#485=CARTESIAN_POINT('',(-60.,0.640000000000001,-1.145));
#486=CARTESIAN_POINT('',(-58.855,6.86,-1.145));
#487=CARTESIAN_POINT('',(-58.855,0.64,-1.145));
#488=CARTESIAN_POINT('',(-58.855,6.86,-4.44089209850063E-16));
#489=CARTESIAN_POINT('',(-58.855,0.640000000000001,-4.44089209850063E-16));
#490=CARTESIAN_POINT('',(-58.855,6.86,1.145));
#491=CARTESIAN_POINT('',(-58.855,0.64,1.145));
#492=CARTESIAN_POINT('',(-60.,6.86,1.145));
#493=CARTESIAN_POINT('',(-60.,0.640000000000001,1.145));
#494=CARTESIAN_POINT('',(-61.145,6.86,1.145));
#495=CARTESIAN_POINT('',(-61.145,0.64,1.145));
#496=CARTESIAN_POINT('',(-61.145,6.86,0.));
#497=CARTESIAN_POINT('',(-61.145,0.640000000000001,0.));
#498=CARTESIAN_POINT('',(-61.145,1.5,0.));
#499=CARTESIAN_POINT('',(-61.145,1.75,0.));
#500=CARTESIAN_POINT('',(-61.0705571271397,1.15,0.));
#501=CARTESIAN_POINT('',(-61.145,1.5,4.35219296126019E-16));
#502=CARTESIAN_POINT('',(-61.145,1.5,-1.145));
#503=CARTESIAN_POINT('',(-60.,1.5,-1.145));
#504=CARTESIAN_POINT('',(-58.855,1.5,-1.145));
#505=CARTESIAN_POINT('',(-58.855,1.5,-5.75441354628391E-16));
#506=CARTESIAN_POINT('',(-58.855,1.5,1.145));
#507=CARTESIAN_POINT('',(-60.,1.5,1.145));
#508=CARTESIAN_POINT('',(-61.145,1.5,1.145));
#509=CARTESIAN_POINT('',(-61.145,1.5,4.35219296126019E-16));
#510=CARTESIAN_POINT('',(-61.145,1.5,0.));
#511=CARTESIAN_POINT('',(-61.145,1.31708322668615,4.83213783349443E-16));
#512=CARTESIAN_POINT('',(-61.0705571271397,1.15,0.));
#513=CARTESIAN_POINT('',(-61.145,1.75,0.));
#514=CARTESIAN_POINT('',(-61.145,1.75,1.145));
#515=CARTESIAN_POINT('',(-60.,1.75,1.145));
#516=CARTESIAN_POINT('',(-58.855,1.75,1.145));
#517=CARTESIAN_POINT('',(-58.855,1.75,-4.44089209850063E-16));
#518=CARTESIAN_POINT('',(-58.855,1.75,-1.145));
#519=CARTESIAN_POINT('',(-60.,1.75,-1.145));
#520=CARTESIAN_POINT('',(-61.145,1.75,-1.145));
#521=CARTESIAN_POINT('',(-61.145,1.75,0.));
#522=CARTESIAN_POINT('',(-61.0705571271397,1.15,3.9041525948737E-16));
#523=CARTESIAN_POINT('',(-61.0705571271397,1.15,1.07055712713971));
#524=CARTESIAN_POINT('',(-60.,1.15,1.07055712713971));
#525=CARTESIAN_POINT('',(-58.9294428728603,1.15,1.07055712713971));
#526=CARTESIAN_POINT('',(-58.9294428728603,1.15,-5.21520695392974E-16));
#527=CARTESIAN_POINT('',(-58.9294428728603,1.15,-1.07055712713971));
#528=CARTESIAN_POINT('',(-60.,1.15,-1.07055712713971));
#529=CARTESIAN_POINT('',(-61.0705571271397,1.15,-1.07055712713971));
#530=CARTESIAN_POINT('',(-61.0705571271397,1.15,3.9041525948737E-16));
#531=CARTESIAN_POINT('',(-61.145,1.75,0.));
#532=CARTESIAN_POINT('',(-61.145,1.5,0.));
#533=CARTESIAN_POINT('',(-61.145,6.86,0.));
#534=CARTESIAN_POINT('',(-61.145,0.640000000000001,0.));
#535=CARTESIAN_POINT('',(-61.145,6.86,-1.145));
#536=CARTESIAN_POINT('',(-61.145,0.64,-1.145));
#537=CARTESIAN_POINT('',(-60.,6.86,-1.145));
#538=CARTESIAN_POINT('',(-60.,0.640000000000001,-1.145));
#539=CARTESIAN_POINT('',(-58.855,6.86,-1.145));
#540=CARTESIAN_POINT('',(-58.855,0.64,-1.145));
#541=CARTESIAN_POINT('',(-58.855,6.86,-4.44089209850063E-16));
#542=CARTESIAN_POINT('',(-58.855,0.640000000000001,-4.44089209850063E-16));
#543=CARTESIAN_POINT('',(-58.855,6.86,1.145));
#544=CARTESIAN_POINT('',(-58.855,0.64,1.145));
#545=CARTESIAN_POINT('',(-60.,6.86,1.145));
#546=CARTESIAN_POINT('',(-60.,0.640000000000001,1.145));
#547=CARTESIAN_POINT('',(-61.145,6.86,1.145));
#548=CARTESIAN_POINT('',(-61.145,0.64,1.145));
#549=CARTESIAN_POINT('',(-61.145,6.86,0.));
#550=CARTESIAN_POINT('',(-61.145,0.640000000000001,0.));
#551=CARTESIAN_POINT('',(-61.145,2.05,0.));
#552=CARTESIAN_POINT('',(-61.145,2.65,0.));
#553=CARTESIAN_POINT('',(-61.145,2.05,0.));
#554=CARTESIAN_POINT('',(-61.145,2.05,1.145));
#555=CARTESIAN_POINT('',(-60.,2.05,1.145));
#556=CARTESIAN_POINT('',(-58.855,2.05,1.145));
#557=CARTESIAN_POINT('',(-58.855,2.05,-4.44089209850063E-16));
#558=CARTESIAN_POINT('',(-58.855,2.05,-1.145));
#559=CARTESIAN_POINT('',(-60.,2.05,-1.145));
#560=CARTESIAN_POINT('',(-61.145,2.05,-1.145));
#561=CARTESIAN_POINT('',(-61.145,2.05,0.));
#562=CARTESIAN_POINT('',(-61.145,2.65,0.));
#563=CARTESIAN_POINT('',(-61.145,2.65,1.145));
#564=CARTESIAN_POINT('',(-60.,2.65,1.145));
#565=CARTESIAN_POINT('',(-58.855,2.65,1.145));
#566=CARTESIAN_POINT('',(-58.855,2.65,-4.44089209850063E-16));
#567=CARTESIAN_POINT('',(-58.855,2.65,-1.145));
#568=CARTESIAN_POINT('',(-60.,2.65,-1.145));
#569=CARTESIAN_POINT('',(-61.145,2.65,-1.145));
#570=CARTESIAN_POINT('',(-61.145,2.65,0.));
#571=CARTESIAN_POINT('',(-61.145,2.65,0.));
#572=CARTESIAN_POINT('',(-61.145,2.05,0.));
#573=CARTESIAN_POINT('',(-61.145,6.86,0.));
#574=CARTESIAN_POINT('',(-61.145,0.640000000000001,0.));
#575=CARTESIAN_POINT('',(-61.145,6.86,-1.145));
#576=CARTESIAN_POINT('',(-61.145,0.64,-1.145));
#577=CARTESIAN_POINT('',(-60.,6.86,-1.145));
#578=CARTESIAN_POINT('',(-60.,0.640000000000001,-1.145));
#579=CARTESIAN_POINT('',(-58.855,6.86,-1.145));
#580=CARTESIAN_POINT('',(-58.855,0.64,-1.145));
#581=CARTESIAN_POINT('',(-58.855,6.86,-4.44089209850063E-16));
#582=CARTESIAN_POINT('',(-58.855,0.640000000000001,-4.44089209850063E-16));
#583=CARTESIAN_POINT('',(-58.855,6.86,1.145));
#584=CARTESIAN_POINT('',(-58.855,0.64,1.145));
#585=CARTESIAN_POINT('',(-60.,6.86,1.145));
#586=CARTESIAN_POINT('',(-60.,0.640000000000001,1.145));
#587=CARTESIAN_POINT('',(-61.145,6.86,1.145));
#588=CARTESIAN_POINT('',(-61.145,0.64,1.145));
#589=CARTESIAN_POINT('',(-61.145,6.86,0.));
#590=CARTESIAN_POINT('',(-61.145,0.640000000000001,0.));
#591=CARTESIAN_POINT('',(-61.145,3.05,0.));
#592=CARTESIAN_POINT('',(-61.145,3.65,0.));
#593=CARTESIAN_POINT('',(-61.145,3.05,0.));
#594=CARTESIAN_POINT('',(-61.145,3.05,1.145));
#595=CARTESIAN_POINT('',(-60.,3.05,1.145));
#596=CARTESIAN_POINT('',(-58.855,3.05,1.145));
#597=CARTESIAN_POINT('',(-58.855,3.05,-4.44089209850063E-16));
#598=CARTESIAN_POINT('',(-58.855,3.05,-1.145));
#599=CARTESIAN_POINT('',(-60.,3.05,-1.145));
#600=CARTESIAN_POINT('',(-61.145,3.05,-1.145));
#601=CARTESIAN_POINT('',(-61.145,3.05,0.));
#602=CARTESIAN_POINT('',(-61.145,3.65,0.));
#603=CARTESIAN_POINT('',(-61.145,3.65,1.145));
#604=CARTESIAN_POINT('',(-60.,3.65,1.145));
#605=CARTESIAN_POINT('',(-58.855,3.65,1.145));
#606=CARTESIAN_POINT('',(-58.855,3.65,-4.44089209850063E-16));
#607=CARTESIAN_POINT('',(-58.855,3.65,-1.145));
#608=CARTESIAN_POINT('',(-60.,3.65,-1.145));
#609=CARTESIAN_POINT('',(-61.145,3.65,-1.145));
#610=CARTESIAN_POINT('',(-61.145,3.65,0.));
#611=CARTESIAN_POINT('',(-61.145,3.65,0.));
#612=CARTESIAN_POINT('',(-61.145,3.05,0.));
#613=CARTESIAN_POINT('',(-61.145,6.86,0.));
#614=CARTESIAN_POINT('',(-61.145,0.640000000000001,0.));
#615=CARTESIAN_POINT('',(-61.145,6.86,-1.145));
#616=CARTESIAN_POINT('',(-61.145,0.64,-1.145));
#617=CARTESIAN_POINT('',(-60.,6.86,-1.145));
#618=CARTESIAN_POINT('',(-60.,0.640000000000001,-1.145));
#619=CARTESIAN_POINT('',(-58.855,6.86,-1.145));
#620=CARTESIAN_POINT('',(-58.855,0.64,-1.145));
#621=CARTESIAN_POINT('',(-58.855,6.86,-4.44089209850063E-16));
#622=CARTESIAN_POINT('',(-58.855,0.640000000000001,-4.44089209850063E-16));
#623=CARTESIAN_POINT('',(-58.855,6.86,1.145));
#624=CARTESIAN_POINT('',(-58.855,0.64,1.145));
#625=CARTESIAN_POINT('',(-60.,6.86,1.145));
#626=CARTESIAN_POINT('',(-60.,0.640000000000001,1.145));
#627=CARTESIAN_POINT('',(-61.145,6.86,1.145));
#628=CARTESIAN_POINT('',(-61.145,0.64,1.145));
#629=CARTESIAN_POINT('',(-61.145,6.86,0.));
#630=CARTESIAN_POINT('',(-61.145,0.640000000000001,0.));
#631=CARTESIAN_POINT('',(-61.145,4.05,0.));
#632=CARTESIAN_POINT('',(-61.145,4.65,0.));
#633=CARTESIAN_POINT('',(-61.145,4.05,0.));
#634=CARTESIAN_POINT('',(-61.145,4.05,1.145));
#635=CARTESIAN_POINT('',(-60.,4.05,1.145));
#636=CARTESIAN_POINT('',(-58.855,4.05,1.145));
#637=CARTESIAN_POINT('',(-58.855,4.05,-4.44089209850063E-16));
#638=CARTESIAN_POINT('',(-58.855,4.05,-1.145));
#639=CARTESIAN_POINT('',(-60.,4.05,-1.145));
#640=CARTESIAN_POINT('',(-61.145,4.05,-1.145));
#641=CARTESIAN_POINT('',(-61.145,4.05,0.));
#642=CARTESIAN_POINT('',(-61.145,4.65,0.));
#643=CARTESIAN_POINT('',(-61.145,4.65,1.145));
#644=CARTESIAN_POINT('',(-60.,4.65,1.145));
#645=CARTESIAN_POINT('',(-58.855,4.65,1.145));
#646=CARTESIAN_POINT('',(-58.855,4.65,-4.44089209850063E-16));
#647=CARTESIAN_POINT('',(-58.855,4.65,-1.145));
#648=CARTESIAN_POINT('',(-60.,4.65,-1.145));
#649=CARTESIAN_POINT('',(-61.145,4.65,-1.145));
#650=CARTESIAN_POINT('',(-61.145,4.65,0.));
#651=CARTESIAN_POINT('',(-61.145,4.65,0.));
#652=CARTESIAN_POINT('',(-61.145,4.05,0.));
#653=CARTESIAN_POINT('',(-61.145,6.86,0.));
#654=CARTESIAN_POINT('',(-61.145,0.640000000000001,0.));
#655=CARTESIAN_POINT('',(-61.145,6.86,-1.145));
#656=CARTESIAN_POINT('',(-61.145,0.64,-1.145));
#657=CARTESIAN_POINT('',(-60.,6.86,-1.145));
#658=CARTESIAN_POINT('',(-60.,0.640000000000001,-1.145));
#659=CARTESIAN_POINT('',(-58.855,6.86,-1.145));
#660=CARTESIAN_POINT('',(-58.855,0.64,-1.145));
#661=CARTESIAN_POINT('',(-58.855,6.86,-4.44089209850063E-16));
#662=CARTESIAN_POINT('',(-58.855,0.640000000000001,-4.44089209850063E-16));
#663=CARTESIAN_POINT('',(-58.855,6.86,1.145));
#664=CARTESIAN_POINT('',(-58.855,0.64,1.145));
#665=CARTESIAN_POINT('',(-60.,6.86,1.145));
#666=CARTESIAN_POINT('',(-60.,0.640000000000001,1.145));
#667=CARTESIAN_POINT('',(-61.145,6.86,1.145));
#668=CARTESIAN_POINT('',(-61.145,0.64,1.145));
#669=CARTESIAN_POINT('',(-61.145,6.86,0.));
#670=CARTESIAN_POINT('',(-61.145,0.640000000000001,0.));
#671=CARTESIAN_POINT('',(-61.145,6.,0.));
#672=CARTESIAN_POINT('',(-61.145,6.,-1.145));
#673=CARTESIAN_POINT('',(-60.,6.,-1.145));
#674=CARTESIAN_POINT('',(-58.855,6.,-1.145));
#675=CARTESIAN_POINT('',(-58.855,6.,-1.40222058502371E-16));
#676=CARTESIAN_POINT('',(-58.855,6.,1.145));
#677=CARTESIAN_POINT('',(-60.,6.,1.145));
#678=CARTESIAN_POINT('',(-61.145,6.,1.145));
#679=CARTESIAN_POINT('',(-61.145,6.,0.));
#680=CARTESIAN_POINT('',(-61.145,6.86,0.));
#681=CARTESIAN_POINT('',(-61.145,6.86,-1.14499999999999));
#682=CARTESIAN_POINT('',(-60.,6.86,-1.14499999999999));
#683=CARTESIAN_POINT('',(-58.855,6.86,-1.14499999999999));
#684=CARTESIAN_POINT('',(-58.855,6.86,-1.40222058502371E-16));
#685=CARTESIAN_POINT('',(-58.855,6.86,1.14499999999999));
#686=CARTESIAN_POINT('',(-60.,6.86,1.14499999999999));
#687=CARTESIAN_POINT('',(-61.145,6.86,1.14499999999999));
#688=CARTESIAN_POINT('',(-61.145,6.86,0.));
#689=CARTESIAN_POINT('',(-60.285,6.86,0.));
#690=CARTESIAN_POINT('',(-60.285,6.86,-0.284999999999997));
#691=CARTESIAN_POINT('',(-60.,6.86,-0.284999999999997));
#692=CARTESIAN_POINT('',(-59.715,6.86,-0.284999999999997));
#693=CARTESIAN_POINT('',(-59.715,6.86,-3.49024337756992E-17));
#694=CARTESIAN_POINT('',(-59.715,6.86,0.284999999999997));
#695=CARTESIAN_POINT('',(-60.,6.86,0.284999999999997));
#696=CARTESIAN_POINT('',(-60.285,6.86,0.284999999999997));
#697=CARTESIAN_POINT('',(-60.285,6.86,0.));
#698=CARTESIAN_POINT('',(-61.145,6.,0.));
#699=CARTESIAN_POINT('',(-61.1078608630868,6.25,0.));
#700=CARTESIAN_POINT('',(-61.145,5.25,0.));
#701=CARTESIAN_POINT('',(-61.145,6.,0.));
#702=CARTESIAN_POINT('',(-61.145,5.25,0.));
#703=CARTESIAN_POINT('',(-61.145,6.,7.14571212762976E-17));
#704=CARTESIAN_POINT('',(-61.145,6.,-1.145));
#705=CARTESIAN_POINT('',(-60.,6.,-1.145));
#706=CARTESIAN_POINT('',(-58.855,6.,-1.145));
#707=CARTESIAN_POINT('',(-58.855,6.,-2.1167917977867E-16));
#708=CARTESIAN_POINT('',(-58.855,6.,1.145));
#709=CARTESIAN_POINT('',(-60.,6.,1.145));
#710=CARTESIAN_POINT('',(-61.145,6.,1.145));
#711=CARTESIAN_POINT('',(-61.145,6.,7.14571212762976E-17));
#712=CARTESIAN_POINT('',(-61.145,6.,0.));
#713=CARTESIAN_POINT('',(-61.145,6.12775863098131,2.3570792802398E-16));
#714=CARTESIAN_POINT('',(-61.1078608630868,6.25,2.44809303678745E-16));
#715=CARTESIAN_POINT('',(-61.1078608630868,6.25,6.64682178565586E-17));
#716=CARTESIAN_POINT('',(-61.1078608630868,6.25,-1.10786086308683));
#717=CARTESIAN_POINT('',(-60.,6.25,-1.10786086308683));
#718=CARTESIAN_POINT('',(-58.8921391369132,6.25,-1.10786086308683));
#719=CARTESIAN_POINT('',(-58.8921391369132,6.25,-2.02142043844549E-16));
#720=CARTESIAN_POINT('',(-58.8921391369132,6.25,1.10786086308683));
#721=CARTESIAN_POINT('',(-60.,6.25,1.10786086308683));
#722=CARTESIAN_POINT('',(-61.1078608630868,6.25,1.10786086308683));
#723=CARTESIAN_POINT('',(-61.1078608630868,6.25,6.64682178565586E-17));
#724=CARTESIAN_POINT('',(-61.145,5.25,0.));
#725=CARTESIAN_POINT('',(-61.145,5.25,1.145));
#726=CARTESIAN_POINT('',(-60.,5.25,1.145));
#727=CARTESIAN_POINT('',(-58.855,5.25,1.145));
#728=CARTESIAN_POINT('',(-58.855,5.25,-4.44089209850063E-16));
#729=CARTESIAN_POINT('',(-58.855,5.25,-1.145));
#730=CARTESIAN_POINT('',(-60.,5.25,-1.145));
#731=CARTESIAN_POINT('',(-61.145,5.25,-1.145));
#732=CARTESIAN_POINT('',(-61.145,5.25,0.));
#733=CARTESIAN_POINT('',(-61.145,1.5,4.44089209850063E-16));
#734=CARTESIAN_POINT('',(-61.145,0.640000000000002,3.14018491736755E-16));
#735=CARTESIAN_POINT('',(-60.285,0.640000000000001,0.));
#736=CARTESIAN_POINT('',(-61.145,1.5,-1.145));
#737=CARTESIAN_POINT('',(-61.145,0.640000000000002,-1.145));
#738=CARTESIAN_POINT('',(-60.285,0.640000000000001,-0.284999999999997));
#739=CARTESIAN_POINT('',(-60.,1.5,-1.145));
#740=CARTESIAN_POINT('',(-60.,0.640000000000002,-1.145));
#741=CARTESIAN_POINT('',(-60.,0.640000000000001,-0.284999999999997));
#742=CARTESIAN_POINT('',(-58.855,1.5,-1.145));
#743=CARTESIAN_POINT('',(-58.855,0.640000000000002,-1.145));
#744=CARTESIAN_POINT('',(-59.715,0.640000000000001,-0.284999999999997));
#745=CARTESIAN_POINT('',(-58.855,1.5,-5.84311268352434E-16));
#746=CARTESIAN_POINT('',(-58.855,0.640000000000002,-4.54240550239128E-16));
#747=CARTESIAN_POINT('',(-59.715,0.640000000000001,-3.49024337756992E-17));
#748=CARTESIAN_POINT('',(-58.855,1.5,1.145));
#749=CARTESIAN_POINT('',(-58.855,0.640000000000002,1.145));
#750=CARTESIAN_POINT('',(-59.715,0.640000000000001,0.284999999999997));
#751=CARTESIAN_POINT('',(-60.,1.5,1.145));
#752=CARTESIAN_POINT('',(-60.,0.640000000000002,1.145));
#753=CARTESIAN_POINT('',(-60.,0.640000000000001,0.284999999999997));
#754=CARTESIAN_POINT('',(-61.145,1.5,1.145));
#755=CARTESIAN_POINT('',(-61.145,0.640000000000002,1.145));
#756=CARTESIAN_POINT('',(-60.285,0.640000000000001,0.284999999999997));
#757=CARTESIAN_POINT('',(-61.145,1.5,4.44089209850063E-16));
#758=CARTESIAN_POINT('',(-61.145,0.640000000000002,3.14018491736755E-16));
#759=CARTESIAN_POINT('',(-60.285,0.640000000000001,0.));
#760=CARTESIAN_POINT('',(-61.0705571271397,1.15,0.));
#761=CARTESIAN_POINT('',(-60.29,0.640014535006551,0.));
#762=CARTESIAN_POINT('',(-61.0705571271397,1.15,3.9041525948737E-16));
#763=CARTESIAN_POINT('',(-61.0705571271397,1.15,1.07055712713971));
#764=CARTESIAN_POINT('',(-60.,1.15,1.07055712713971));
#765=CARTESIAN_POINT('',(-58.9294428728603,1.15,1.07055712713971));
#766=CARTESIAN_POINT('',(-58.9294428728603,1.15,-5.21520695392974E-16));
#767=CARTESIAN_POINT('',(-58.9294428728603,1.15,-1.07055712713971));
#768=CARTESIAN_POINT('',(-60.,1.15,-1.07055712713971));
#769=CARTESIAN_POINT('',(-61.0705571271397,1.15,-1.07055712713971));
#770=CARTESIAN_POINT('',(-61.0705571271397,1.15,3.9041525948737E-16));
#771=CARTESIAN_POINT('',(-61.0705571271397,1.15,0.));
#772=CARTESIAN_POINT('',(-60.844773427746,0.643240016426463,2.81563838622289E-16));
#773=CARTESIAN_POINT('',(-60.29,0.640014535006551,0.));
#774=CARTESIAN_POINT('',(-60.29,0.640014535006551,-7.93692716464785E-17));
#775=CARTESIAN_POINT('',(-60.29,0.640014535006551,0.29));
#776=CARTESIAN_POINT('',(-60.,0.640014535006551,0.29));
#777=CARTESIAN_POINT('',(-59.71,0.640014535006551,0.29));
#778=CARTESIAN_POINT('',(-59.71,0.640014535006551,4.38545144712052E-17));
#779=CARTESIAN_POINT('',(-59.71,0.640014535006551,-0.29));
#780=CARTESIAN_POINT('',(-60.,0.640014535006551,-0.29));
#781=CARTESIAN_POINT('',(-60.29,0.640014535006551,-0.29));
#782=CARTESIAN_POINT('',(-60.29,0.640014535006551,-7.93692716464785E-17));
#783=CARTESIAN_POINT('',(-61.145,6.,0.));
#784=CARTESIAN_POINT('',(-61.145,6.,-1.145));
#785=CARTESIAN_POINT('',(-60.,6.,-1.145));
#786=CARTESIAN_POINT('',(-58.855,6.,-1.145));
#787=CARTESIAN_POINT('',(-58.855,6.,-1.40222058502371E-16));
#788=CARTESIAN_POINT('',(-58.855,6.,1.145));
#789=CARTESIAN_POINT('',(-60.,6.,1.145));
#790=CARTESIAN_POINT('',(-61.145,6.,1.145));
#791=CARTESIAN_POINT('',(-61.145,6.,0.));
#792=CARTESIAN_POINT('',(-61.145,6.86,0.));
#793=CARTESIAN_POINT('',(-61.145,6.86,-1.14499999999999));
#794=CARTESIAN_POINT('',(-60.,6.86,-1.14499999999999));
#795=CARTESIAN_POINT('',(-58.855,6.86,-1.14499999999999));
#796=CARTESIAN_POINT('',(-58.855,6.86,-1.40222058502371E-16));
#797=CARTESIAN_POINT('',(-58.855,6.86,1.14499999999999));
#798=CARTESIAN_POINT('',(-60.,6.86,1.14499999999999));
#799=CARTESIAN_POINT('',(-61.145,6.86,1.14499999999999));
#800=CARTESIAN_POINT('',(-61.145,6.86,0.));
#801=CARTESIAN_POINT('',(-60.285,6.86,0.));
#802=CARTESIAN_POINT('',(-60.285,6.86,-0.284999999999997));
#803=CARTESIAN_POINT('',(-60.,6.86,-0.284999999999997));
#804=CARTESIAN_POINT('',(-59.715,6.86,-0.284999999999997));
#805=CARTESIAN_POINT('',(-59.715,6.86,-3.49024337756992E-17));
#806=CARTESIAN_POINT('',(-59.715,6.86,0.284999999999997));
#807=CARTESIAN_POINT('',(-60.,6.86,0.284999999999997));
#808=CARTESIAN_POINT('',(-60.285,6.86,0.284999999999997));
#809=CARTESIAN_POINT('',(-60.285,6.86,0.));
#810=CARTESIAN_POINT('',(-61.1078608630868,6.25,0.));
#811=CARTESIAN_POINT('',(-60.29,6.85998546499345,0.));
#812=CARTESIAN_POINT('',(-61.1078608630868,6.25,6.64682178565586E-17));
#813=CARTESIAN_POINT('',(-61.1078608630868,6.25,-1.10786086308683));
#814=CARTESIAN_POINT('',(-60.,6.25,-1.10786086308683));
#815=CARTESIAN_POINT('',(-58.8921391369132,6.25,-1.10786086308683));
#816=CARTESIAN_POINT('',(-58.8921391369132,6.25,-2.02142043844549E-16));
#817=CARTESIAN_POINT('',(-58.8921391369132,6.25,1.10786086308683));
#818=CARTESIAN_POINT('',(-60.,6.25,1.10786086308683));
#819=CARTESIAN_POINT('',(-61.1078608630868,6.25,1.10786086308683));
#820=CARTESIAN_POINT('',(-61.1078608630868,6.25,6.64682178565586E-17));
#821=CARTESIAN_POINT('',(-61.1078608630868,6.25,2.44809303678745E-16));
#822=CARTESIAN_POINT('',(-60.9236555539003,6.85630135880972,0.));
#823=CARTESIAN_POINT('',(-60.29,6.85998546499345,0.));
#824=CARTESIAN_POINT('',(-60.29,6.85998546499345,-4.3395102165864E-17));
#825=CARTESIAN_POINT('',(-60.29,6.85998546499345,0.29));
#826=CARTESIAN_POINT('',(-60.,6.85998546499345,0.29));
#827=CARTESIAN_POINT('',(-59.71,6.85998546499345,0.29));
#828=CARTESIAN_POINT('',(-59.71,6.85998546499345,7.88034499059076E-18));
#829=CARTESIAN_POINT('',(-59.71,6.85998546499345,-0.29));
#830=CARTESIAN_POINT('',(-60.,6.85998546499345,-0.29));
#831=CARTESIAN_POINT('',(-60.29,6.85998546499345,-0.29));
#832=CARTESIAN_POINT('',(-60.29,6.85998546499345,-4.3395102165864E-17));
#833=CARTESIAN_POINT('',(-61.145,6.86,0.));
#834=CARTESIAN_POINT('',(-61.145,0.640000000000001,0.));
#835=CARTESIAN_POINT('',(-61.145,6.86,-1.145));
#836=CARTESIAN_POINT('',(-61.145,0.64,-1.145));
#837=CARTESIAN_POINT('',(-60.,6.86,-1.145));
#838=CARTESIAN_POINT('',(-60.,0.640000000000001,-1.145));
#839=CARTESIAN_POINT('',(-58.855,6.86,-1.145));
#840=CARTESIAN_POINT('',(-58.855,0.64,-1.145));
#841=CARTESIAN_POINT('',(-58.855,6.86,-4.44089209850063E-16));
#842=CARTESIAN_POINT('',(-58.855,0.640000000000001,-4.44089209850063E-16));
#843=CARTESIAN_POINT('',(-58.855,6.86,1.145));
#844=CARTESIAN_POINT('',(-58.855,0.64,1.145));
#845=CARTESIAN_POINT('',(-60.,6.86,1.145));
#846=CARTESIAN_POINT('',(-60.,0.640000000000001,1.145));
#847=CARTESIAN_POINT('',(-61.145,6.86,1.145));
#848=CARTESIAN_POINT('',(-61.145,0.64,1.145));
#849=CARTESIAN_POINT('',(-61.145,6.86,0.));
#850=CARTESIAN_POINT('',(-61.145,0.640000000000001,0.));
#851=CARTESIAN_POINT('',(-61.145,2.65,0.));
#852=CARTESIAN_POINT('',(-61.145,3.05,0.));
#853=CARTESIAN_POINT('',(-61.145,2.65,0.));
#854=CARTESIAN_POINT('',(-61.145,2.65,1.145));
#855=CARTESIAN_POINT('',(-60.,2.65,1.145));
#856=CARTESIAN_POINT('',(-58.855,2.65,1.145));
#857=CARTESIAN_POINT('',(-58.855,2.65,-4.44089209850063E-16));
#858=CARTESIAN_POINT('',(-58.855,2.65,-1.145));
#859=CARTESIAN_POINT('',(-60.,2.65,-1.145));
#860=CARTESIAN_POINT('',(-61.145,2.65,-1.145));
#861=CARTESIAN_POINT('',(-61.145,2.65,0.));
#862=CARTESIAN_POINT('',(-61.145,3.05,0.));
#863=CARTESIAN_POINT('',(-61.145,3.05,1.145));
#864=CARTESIAN_POINT('',(-60.,3.05,1.145));
#865=CARTESIAN_POINT('',(-58.855,3.05,1.145));
#866=CARTESIAN_POINT('',(-58.855,3.05,-4.44089209850063E-16));
#867=CARTESIAN_POINT('',(-58.855,3.05,-1.145));
#868=CARTESIAN_POINT('',(-60.,3.05,-1.145));
#869=CARTESIAN_POINT('',(-61.145,3.05,-1.145));
#870=CARTESIAN_POINT('',(-61.145,3.05,0.));
#871=CARTESIAN_POINT('',(-61.145,3.05,0.));
#872=CARTESIAN_POINT('',(-61.145,2.65,0.));
#873=CARTESIAN_POINT('',(-61.145,6.86,0.));
#874=CARTESIAN_POINT('',(-61.145,0.640000000000001,0.));
#875=CARTESIAN_POINT('',(-61.145,6.86,-1.145));
#876=CARTESIAN_POINT('',(-61.145,0.64,-1.145));
#877=CARTESIAN_POINT('',(-60.,6.86,-1.145));
#878=CARTESIAN_POINT('',(-60.,0.640000000000001,-1.145));
#879=CARTESIAN_POINT('',(-58.855,6.86,-1.145));
#880=CARTESIAN_POINT('',(-58.855,0.64,-1.145));
#881=CARTESIAN_POINT('',(-58.855,6.86,-4.44089209850063E-16));
#882=CARTESIAN_POINT('',(-58.855,0.640000000000001,-4.44089209850063E-16));
#883=CARTESIAN_POINT('',(-58.855,6.86,1.145));
#884=CARTESIAN_POINT('',(-58.855,0.64,1.145));
#885=CARTESIAN_POINT('',(-60.,6.86,1.145));
#886=CARTESIAN_POINT('',(-60.,0.640000000000001,1.145));
#887=CARTESIAN_POINT('',(-61.145,6.86,1.145));
#888=CARTESIAN_POINT('',(-61.145,0.64,1.145));
#889=CARTESIAN_POINT('',(-61.145,6.86,0.));
#890=CARTESIAN_POINT('',(-61.145,0.640000000000001,0.));
#891=CARTESIAN_POINT('',(-61.145,4.65,0.));
#892=CARTESIAN_POINT('',(-61.145,5.25,0.));
#893=CARTESIAN_POINT('',(-61.145,4.65,0.));
#894=CARTESIAN_POINT('',(-61.145,4.65,1.145));
#895=CARTESIAN_POINT('',(-60.,4.65,1.145));
#896=CARTESIAN_POINT('',(-58.855,4.65,1.145));
#897=CARTESIAN_POINT('',(-58.855,4.65,-4.44089209850063E-16));
#898=CARTESIAN_POINT('',(-58.855,4.65,-1.145));
#899=CARTESIAN_POINT('',(-60.,4.65,-1.145));
#900=CARTESIAN_POINT('',(-61.145,4.65,-1.145));
#901=CARTESIAN_POINT('',(-61.145,4.65,0.));
#902=CARTESIAN_POINT('',(-61.145,5.25,0.));
#903=CARTESIAN_POINT('',(-61.145,5.25,1.145));
#904=CARTESIAN_POINT('',(-60.,5.25,1.145));
#905=CARTESIAN_POINT('',(-58.855,5.25,1.145));
#906=CARTESIAN_POINT('',(-58.855,5.25,-4.44089209850063E-16));
#907=CARTESIAN_POINT('',(-58.855,5.25,-1.145));
#908=CARTESIAN_POINT('',(-60.,5.25,-1.145));
#909=CARTESIAN_POINT('',(-61.145,5.25,-1.145));
#910=CARTESIAN_POINT('',(-61.145,5.25,0.));
#911=CARTESIAN_POINT('',(-61.145,5.25,0.));
#912=CARTESIAN_POINT('',(-61.145,4.65,0.));
#913=CARTESIAN_POINT('',(-61.145,6.86,0.));
#914=CARTESIAN_POINT('',(-61.145,0.640000000000001,0.));
#915=CARTESIAN_POINT('',(-61.145,6.86,-1.145));
#916=CARTESIAN_POINT('',(-61.145,0.64,-1.145));
#917=CARTESIAN_POINT('',(-60.,6.86,-1.145));
#918=CARTESIAN_POINT('',(-60.,0.640000000000001,-1.145));
#919=CARTESIAN_POINT('',(-58.855,6.86,-1.145));
#920=CARTESIAN_POINT('',(-58.855,0.64,-1.145));
#921=CARTESIAN_POINT('',(-58.855,6.86,-4.44089209850063E-16));
#922=CARTESIAN_POINT('',(-58.855,0.640000000000001,-4.44089209850063E-16));
#923=CARTESIAN_POINT('',(-58.855,6.86,1.145));
#924=CARTESIAN_POINT('',(-58.855,0.64,1.145));
#925=CARTESIAN_POINT('',(-60.,6.86,1.145));
#926=CARTESIAN_POINT('',(-60.,0.640000000000001,1.145));
#927=CARTESIAN_POINT('',(-61.145,6.86,1.145));
#928=CARTESIAN_POINT('',(-61.145,0.64,1.145));
#929=CARTESIAN_POINT('',(-61.145,6.86,0.));
#930=CARTESIAN_POINT('',(-61.145,0.640000000000001,0.));
#931=CARTESIAN_POINT('',(-61.145,3.65,0.));
#932=CARTESIAN_POINT('',(-61.145,4.05,0.));
#933=CARTESIAN_POINT('',(-61.145,3.65,0.));
#934=CARTESIAN_POINT('',(-61.145,3.65,1.145));
#935=CARTESIAN_POINT('',(-60.,3.65,1.145));
#936=CARTESIAN_POINT('',(-58.855,3.65,1.145));
#937=CARTESIAN_POINT('',(-58.855,3.65,-4.44089209850063E-16));
#938=CARTESIAN_POINT('',(-58.855,3.65,-1.145));
#939=CARTESIAN_POINT('',(-60.,3.65,-1.145));
#940=CARTESIAN_POINT('',(-61.145,3.65,-1.145));
#941=CARTESIAN_POINT('',(-61.145,3.65,0.));
#942=CARTESIAN_POINT('',(-61.145,4.05,0.));
#943=CARTESIAN_POINT('',(-61.145,4.05,1.145));
#944=CARTESIAN_POINT('',(-60.,4.05,1.145));
#945=CARTESIAN_POINT('',(-58.855,4.05,1.145));
#946=CARTESIAN_POINT('',(-58.855,4.05,-4.44089209850063E-16));
#947=CARTESIAN_POINT('',(-58.855,4.05,-1.145));
#948=CARTESIAN_POINT('',(-60.,4.05,-1.145));
#949=CARTESIAN_POINT('',(-61.145,4.05,-1.145));
#950=CARTESIAN_POINT('',(-61.145,4.05,0.));
#951=CARTESIAN_POINT('',(-61.145,4.05,0.));
#952=CARTESIAN_POINT('',(-61.145,3.65,0.));
#953=CARTESIAN_POINT('',(-61.145,6.86,0.));
#954=CARTESIAN_POINT('',(-61.145,0.640000000000001,0.));
#955=CARTESIAN_POINT('',(-61.145,6.86,-1.145));
#956=CARTESIAN_POINT('',(-61.145,0.64,-1.145));
#957=CARTESIAN_POINT('',(-60.,6.86,-1.145));
#958=CARTESIAN_POINT('',(-60.,0.640000000000001,-1.145));
#959=CARTESIAN_POINT('',(-58.855,6.86,-1.145));
#960=CARTESIAN_POINT('',(-58.855,0.64,-1.145));
#961=CARTESIAN_POINT('',(-58.855,6.86,-4.44089209850063E-16));
#962=CARTESIAN_POINT('',(-58.855,0.640000000000001,-4.44089209850063E-16));
#963=CARTESIAN_POINT('',(-58.855,6.86,1.145));
#964=CARTESIAN_POINT('',(-58.855,0.64,1.145));
#965=CARTESIAN_POINT('',(-60.,6.86,1.145));
#966=CARTESIAN_POINT('',(-60.,0.640000000000001,1.145));
#967=CARTESIAN_POINT('',(-61.145,6.86,1.145));
#968=CARTESIAN_POINT('',(-61.145,0.64,1.145));
#969=CARTESIAN_POINT('',(-61.145,6.86,0.));
#970=CARTESIAN_POINT('',(-61.145,0.640000000000001,0.));
#971=CARTESIAN_POINT('',(-61.145,1.75,0.));
#972=CARTESIAN_POINT('',(-61.145,2.05,0.));
#973=CARTESIAN_POINT('',(-61.145,1.75,0.));
#974=CARTESIAN_POINT('',(-61.145,1.75,1.145));
#975=CARTESIAN_POINT('',(-60.,1.75,1.145));
#976=CARTESIAN_POINT('',(-58.855,1.75,1.145));
#977=CARTESIAN_POINT('',(-58.855,1.75,-4.44089209850063E-16));
#978=CARTESIAN_POINT('',(-58.855,1.75,-1.145));
#979=CARTESIAN_POINT('',(-60.,1.75,-1.145));
#980=CARTESIAN_POINT('',(-61.145,1.75,-1.145));
#981=CARTESIAN_POINT('',(-61.145,1.75,0.));
#982=CARTESIAN_POINT('',(-61.145,2.05,0.));
#983=CARTESIAN_POINT('',(-61.145,2.05,1.145));
#984=CARTESIAN_POINT('',(-60.,2.05,1.145));
#985=CARTESIAN_POINT('',(-58.855,2.05,1.145));
#986=CARTESIAN_POINT('',(-58.855,2.05,-4.44089209850063E-16));
#987=CARTESIAN_POINT('',(-58.855,2.05,-1.145));
#988=CARTESIAN_POINT('',(-60.,2.05,-1.145));
#989=CARTESIAN_POINT('',(-61.145,2.05,-1.145));
#990=CARTESIAN_POINT('',(-61.145,2.05,0.));
#991=CARTESIAN_POINT('',(-61.145,2.05,0.));
#992=CARTESIAN_POINT('',(-61.145,1.75,0.));
#993=CARTESIAN_POINT('',(-62.54,-3.,0.29));
#994=CARTESIAN_POINT('',(-62.54,0.603333333333335,0.29));
#995=CARTESIAN_POINT('',(-62.54,4.20666666666667,0.29));
#996=CARTESIAN_POINT('',(-62.54,7.81,0.29));
#997=CARTESIAN_POINT('',(-62.25,-3.,0.29));
#998=CARTESIAN_POINT('',(-62.25,0.603333333333333,0.29));
#999=CARTESIAN_POINT('',(-62.25,4.20666666666667,0.29));
#1000=CARTESIAN_POINT('',(-62.25,7.81,0.29));
#1001=CARTESIAN_POINT('',(-62.25,-3.,1.77573785876366E-17));
#1002=CARTESIAN_POINT('',(-62.25,0.603333333333332,1.77573785876366E-17));
#1003=CARTESIAN_POINT('',(-62.25,4.20666666666667,1.77573785876366E-17));
#1004=CARTESIAN_POINT('',(-62.25,7.81,1.77573785876366E-17));
#1005=CARTESIAN_POINT('',(-62.25,-3.,-0.29));
#1006=CARTESIAN_POINT('',(-62.25,0.603333333333333,-0.29));
#1007=CARTESIAN_POINT('',(-62.25,4.20666666666667,-0.29));
#1008=CARTESIAN_POINT('',(-62.25,7.81,-0.29));
#1009=CARTESIAN_POINT('',(-62.54,-3.,-0.29));
#1010=CARTESIAN_POINT('',(-62.54,0.603333333333335,-0.29));
#1011=CARTESIAN_POINT('',(-62.54,4.20666666666667,-0.29));
#1012=CARTESIAN_POINT('',(-62.54,7.81,-0.29));
#1013=CARTESIAN_POINT('',(-62.83,-3.,-0.29));
#1014=CARTESIAN_POINT('',(-62.83,0.603333333333333,-0.29));
#1015=CARTESIAN_POINT('',(-62.83,4.20666666666667,-0.29));
#1016=CARTESIAN_POINT('',(-62.83,7.81,-0.29));
#1017=CARTESIAN_POINT('',(-62.83,-3.,-5.32721357629099E-17));
#1018=CARTESIAN_POINT('',(-62.83,0.603333333333334,-5.32721357629099E-17));
#1019=CARTESIAN_POINT('',(-62.83,4.20666666666667,-5.32721357629098E-17));
#1020=CARTESIAN_POINT('',(-62.83,7.81,-5.32721357629099E-17));
#1021=CARTESIAN_POINT('',(-62.83,-3.,0.29));
#1022=CARTESIAN_POINT('',(-62.83,0.603333333333333,0.29));
#1023=CARTESIAN_POINT('',(-62.83,4.20666666666667,0.29));
#1024=CARTESIAN_POINT('',(-62.83,7.81,0.29));
#1025=CARTESIAN_POINT('',(-62.54,-3.,0.29));
#1026=CARTESIAN_POINT('',(-62.54,0.603333333333335,0.29));
#1027=CARTESIAN_POINT('',(-62.54,4.20666666666667,0.29));
#1028=CARTESIAN_POINT('',(-62.54,7.81,0.29));
#1029=CARTESIAN_POINT('',(-62.54,7.81,0.29));
#1030=CARTESIAN_POINT('',(-62.5400978767139,7.96957846904164,0.29));
#1031=CARTESIAN_POINT('',(-62.4765749656864,8.30202495935326,0.29));
#1032=CARTESIAN_POINT('',(-62.1933661034519,8.7333513641967,0.29));
#1033=CARTESIAN_POINT('',(-61.7620274728844,9.01662017402911,0.29));
#1034=CARTESIAN_POINT('',(-61.2699997911308,9.11041978406411,0.29));
#1035=CARTESIAN_POINT('',(-60.7779733974778,9.01661994972008,0.29));
#1036=CARTESIAN_POINT('',(-60.3466374113263,8.73335497039252,0.29));
#1037=CARTESIAN_POINT('',(-60.0634247348144,8.30202540294645,0.29));
#1038=CARTESIAN_POINT('',(-59.9999022938162,7.96957942518906,0.29));
#1039=CARTESIAN_POINT('',(-60.,7.81,0.29));
#1040=CARTESIAN_POINT('',(-62.25,7.81,0.29));
#1041=CARTESIAN_POINT('',(-62.2500755269131,7.93313929107151,0.29));
#1042=CARTESIAN_POINT('',(-62.2010578475375,8.18967280328046,0.29));
#1043=CARTESIAN_POINT('',(-61.9825187254983,8.52250735189982,0.29));
#1044=CARTESIAN_POINT('',(-61.6496747428557,8.74109273271538,0.29));
#1045=CARTESIAN_POINT('',(-61.2699998388253,8.8134735341597,0.29));
#1046=CARTESIAN_POINT('',(-60.8903259287624,8.74109255962652,0.29));
#1047=CARTESIAN_POINT('',(-60.5574839866927,8.5225101346336,0.29));
#1048=CARTESIAN_POINT('',(-60.3389419213529,8.18967314558072,0.29));
#1049=CARTESIAN_POINT('',(-60.289924604677,7.93314002888605,0.29));
#1050=CARTESIAN_POINT('',(-60.29,7.81,0.29));
#1051=CARTESIAN_POINT('',(-62.25,7.81,1.77573785876366E-17));
#1052=CARTESIAN_POINT('',(-62.2500755269131,7.93313929107151,1.77573785876366E-17));
#1053=CARTESIAN_POINT('',(-62.2010578475375,8.18967280328046,1.77573785876366E-17));
#1054=CARTESIAN_POINT('',(-61.9825187254983,8.52250735189982,1.77573785876366E-17));
#1055=CARTESIAN_POINT('',(-61.6496747428557,8.74109273271537,1.77573785876366E-17));
#1056=CARTESIAN_POINT('',(-61.2699998388253,8.81347353415971,1.77573785876366E-17));
#1057=CARTESIAN_POINT('',(-60.8903259287624,8.74109255962651,1.77573785876366E-17));
#1058=CARTESIAN_POINT('',(-60.5574839866927,8.5225101346336,1.77573785876366E-17));
#1059=CARTESIAN_POINT('',(-60.3389419213529,8.18967314558073,1.77573785876366E-17));
#1060=CARTESIAN_POINT('',(-60.289924604677,7.93314002888605,1.77573785876366E-17));
#1061=CARTESIAN_POINT('',(-60.29,7.81,1.77573785876366E-17));
#1062=CARTESIAN_POINT('',(-62.25,7.81,-0.29));
#1063=CARTESIAN_POINT('',(-62.2500755269131,7.93313929107151,-0.29));
#1064=CARTESIAN_POINT('',(-62.2010578475375,8.18967280328046,-0.29));
#1065=CARTESIAN_POINT('',(-61.9825187254983,8.52250735189982,-0.29));
#1066=CARTESIAN_POINT('',(-61.6496747428557,8.74109273271538,-0.29));
#1067=CARTESIAN_POINT('',(-61.2699998388253,8.8134735341597,-0.29));
#1068=CARTESIAN_POINT('',(-60.8903259287624,8.74109255962652,-0.29));
#1069=CARTESIAN_POINT('',(-60.5574839866927,8.5225101346336,-0.29));
#1070=CARTESIAN_POINT('',(-60.3389419213529,8.18967314558072,-0.29));
#1071=CARTESIAN_POINT('',(-60.289924604677,7.93314002888605,-0.29));
#1072=CARTESIAN_POINT('',(-60.29,7.81,-0.29));
#1073=CARTESIAN_POINT('',(-62.54,7.81,-0.29));
#1074=CARTESIAN_POINT('',(-62.5400978767139,7.96957846904164,-0.29));
#1075=CARTESIAN_POINT('',(-62.4765749656864,8.30202495935326,-0.29));
#1076=CARTESIAN_POINT('',(-62.1933661034519,8.7333513641967,-0.29));
#1077=CARTESIAN_POINT('',(-61.7620274728844,9.01662017402911,-0.29));
#1078=CARTESIAN_POINT('',(-61.2699997911308,9.11041978406411,-0.29));
#1079=CARTESIAN_POINT('',(-60.7779733974778,9.01661994972008,-0.29));
#1080=CARTESIAN_POINT('',(-60.3466374113263,8.73335497039252,-0.29));
#1081=CARTESIAN_POINT('',(-60.0634247348144,8.30202540294645,-0.29));
#1082=CARTESIAN_POINT('',(-59.9999022938162,7.96957942518906,-0.29));
#1083=CARTESIAN_POINT('',(-60.,7.81,-0.29));
#1084=CARTESIAN_POINT('',(-62.83,7.81,-0.29));
#1085=CARTESIAN_POINT('',(-62.8301202265148,8.00601764701177,-0.29));
#1086=CARTESIAN_POINT('',(-62.7520920838352,8.41437711542604,-0.29));
#1087=CARTESIAN_POINT('',(-62.4042134814055,8.94419537649359,-0.29));
#1088=CARTESIAN_POINT('',(-61.8743802029132,9.29214761534284,-0.29));
#1089=CARTESIAN_POINT('',(-61.2699997434363,9.40736603396851,-0.29));
#1090=CARTESIAN_POINT('',(-60.6656208661932,9.29214733981364,-0.29));
#1091=CARTESIAN_POINT('',(-60.1357908359598,8.94419980615143,-0.29));
#1092=CARTESIAN_POINT('',(-59.787907548276,8.41437766031219,-0.29));
#1093=CARTESIAN_POINT('',(-59.7098799829553,8.00601882149207,-0.29));
#1094=CARTESIAN_POINT('',(-59.71,7.81,-0.29));
#1095=CARTESIAN_POINT('',(-62.83,7.81,-5.32721357629099E-17));
#1096=CARTESIAN_POINT('',(-62.8301202265148,8.00601764701178,-5.32721357629099E-17));
#1097=CARTESIAN_POINT('',(-62.7520920838352,8.41437711542604,-5.32721357629099E-17));
#1098=CARTESIAN_POINT('',(-62.4042134814055,8.94419537649358,-5.32721357629098E-17));
#1099=CARTESIAN_POINT('',(-61.8743802029132,9.29214761534284,-5.32721357629099E-17));
#1100=CARTESIAN_POINT('',(-61.2699997434363,9.4073660339685,-5.32721357629099E-17));
#1101=CARTESIAN_POINT('',(-60.6656208661932,9.29214733981364,-5.32721357629099E-17));
#1102=CARTESIAN_POINT('',(-60.1357908359598,8.94419980615143,-5.32721357629099E-17));
#1103=CARTESIAN_POINT('',(-59.787907548276,8.41437766031219,-5.32721357629099E-17));
#1104=CARTESIAN_POINT('',(-59.7098799829553,8.00601882149207,-5.32721357629099E-17));
#1105=CARTESIAN_POINT('',(-59.71,7.81,-5.32721357629099E-17));
#1106=CARTESIAN_POINT('',(-62.83,7.81,0.29));
#1107=CARTESIAN_POINT('',(-62.8301202265148,8.00601764701177,0.29));
#1108=CARTESIAN_POINT('',(-62.7520920838352,8.41437711542604,0.29));
#1109=CARTESIAN_POINT('',(-62.4042134814055,8.94419537649359,0.29));
#1110=CARTESIAN_POINT('',(-61.8743802029132,9.29214761534284,0.29));
#1111=CARTESIAN_POINT('',(-61.2699997434363,9.40736603396851,0.29));
#1112=CARTESIAN_POINT('',(-60.6656208661932,9.29214733981364,0.29));
#1113=CARTESIAN_POINT('',(-60.1357908359598,8.94419980615143,0.29));
#1114=CARTESIAN_POINT('',(-59.787907548276,8.41437766031219,0.29));
#1115=CARTESIAN_POINT('',(-59.7098799829553,8.00601882149207,0.29));
#1116=CARTESIAN_POINT('',(-59.71,7.81,0.29));
#1117=CARTESIAN_POINT('',(-62.54,7.81,0.29));
#1118=CARTESIAN_POINT('',(-62.5400978767139,7.96957846904164,0.29));
#1119=CARTESIAN_POINT('',(-62.4765749656864,8.30202495935326,0.29));
#1120=CARTESIAN_POINT('',(-62.1933661034519,8.7333513641967,0.29));
#1121=CARTESIAN_POINT('',(-61.7620274728844,9.01662017402911,0.29));
#1122=CARTESIAN_POINT('',(-61.2699997911308,9.11041978406411,0.29));
#1123=CARTESIAN_POINT('',(-60.7779733974778,9.01661994972008,0.29));
#1124=CARTESIAN_POINT('',(-60.3466374113263,8.73335497039252,0.29));
#1125=CARTESIAN_POINT('',(-60.0634247348144,8.30202540294645,0.29));
#1126=CARTESIAN_POINT('',(-59.9999022938162,7.96957942518906,0.29));
#1127=CARTESIAN_POINT('',(-60.,7.81,0.29));
#1128=CARTESIAN_POINT('',(-60.,7.81,0.29));
#1129=CARTESIAN_POINT('',(-60.,4.20666666666667,0.29));
#1130=CARTESIAN_POINT('',(-60.,0.60333333333333,0.29));
#1131=CARTESIAN_POINT('',(-60.,-3.,0.29));
#1132=CARTESIAN_POINT('',(-60.29,7.81,0.29));
#1133=CARTESIAN_POINT('',(-60.29,4.20666666666667,0.29));
#1134=CARTESIAN_POINT('',(-60.29,0.60333333333333,0.29));
#1135=CARTESIAN_POINT('',(-60.29,-3.,0.29));
#1136=CARTESIAN_POINT('',(-60.29,7.81,1.77573785876366E-17));
#1137=CARTESIAN_POINT('',(-60.29,4.20666666666667,1.77573785876366E-17));
#1138=CARTESIAN_POINT('',(-60.29,0.60333333333333,1.77573785876366E-17));
#1139=CARTESIAN_POINT('',(-60.29,-3.,1.77573785876366E-17));
#1140=CARTESIAN_POINT('',(-60.29,7.81,-0.29));
#1141=CARTESIAN_POINT('',(-60.29,4.20666666666667,-0.29));
#1142=CARTESIAN_POINT('',(-60.29,0.60333333333333,-0.29));
#1143=CARTESIAN_POINT('',(-60.29,-3.,-0.29));
#1144=CARTESIAN_POINT('',(-60.,7.81,-0.29));
#1145=CARTESIAN_POINT('',(-60.,4.20666666666667,-0.29));
#1146=CARTESIAN_POINT('',(-60.,0.60333333333333,-0.29));
#1147=CARTESIAN_POINT('',(-60.,-3.,-0.29));
#1148=CARTESIAN_POINT('',(-59.71,7.81,-0.29));
#1149=CARTESIAN_POINT('',(-59.71,4.20666666666667,-0.29));
#1150=CARTESIAN_POINT('',(-59.71,0.60333333333333,-0.29));
#1151=CARTESIAN_POINT('',(-59.71,-3.,-0.29));
#1152=CARTESIAN_POINT('',(-59.71,7.81,-5.32721357629099E-17));
#1153=CARTESIAN_POINT('',(-59.71,4.20666666666667,-5.32721357629099E-17));
#1154=CARTESIAN_POINT('',(-59.71,0.60333333333333,-5.32721357629098E-17));
#1155=CARTESIAN_POINT('',(-59.71,-3.,-5.32721357629099E-17));
#1156=CARTESIAN_POINT('',(-59.71,7.81,0.29));
#1157=CARTESIAN_POINT('',(-59.71,4.20666666666667,0.29));
#1158=CARTESIAN_POINT('',(-59.71,0.60333333333333,0.29));
#1159=CARTESIAN_POINT('',(-59.71,-3.,0.29));
#1160=CARTESIAN_POINT('',(-60.,7.81,0.29));
#1161=CARTESIAN_POINT('',(-60.,4.20666666666667,0.29));
#1162=CARTESIAN_POINT('',(-60.,0.60333333333333,0.29));
#1163=CARTESIAN_POINT('',(-60.,-3.,0.29));
#1164=CARTESIAN_POINT('',(-62.54,-3.29,0.));
#1165=CARTESIAN_POINT('',(-62.54,-3.29,0.));
#1166=CARTESIAN_POINT('',(-62.54,-3.29,0.));
#1167=CARTESIAN_POINT('',(-62.54,-3.29,0.));
#1168=CARTESIAN_POINT('',(-62.54,-3.29,0.));
#1169=CARTESIAN_POINT('',(-62.54,-3.29,0.));
#1170=CARTESIAN_POINT('',(-62.54,-3.29,0.));
#1171=CARTESIAN_POINT('',(-62.54,-3.29,0.));
#1172=CARTESIAN_POINT('',(-62.54,-3.29,0.));
#1173=CARTESIAN_POINT('',(-62.54,-3.29,0.29));
#1174=CARTESIAN_POINT('',(-62.83,-3.29,0.290000000000007));
#1175=CARTESIAN_POINT('',(-62.83,-3.29,7.12318473618864E-15));
#1176=CARTESIAN_POINT('',(-62.83,-3.29,-0.289999999999993));
#1177=CARTESIAN_POINT('',(-62.54,-3.29,-0.29));
#1178=CARTESIAN_POINT('',(-62.25,-3.29,-0.290000000000007));
#1179=CARTESIAN_POINT('',(-62.25,-3.29,-7.15869949336391E-15));
#1180=CARTESIAN_POINT('',(-62.25,-3.29,0.289999999999993));
#1181=CARTESIAN_POINT('',(-62.54,-3.29,0.29));
#1182=CARTESIAN_POINT('',(-62.54,-3.,0.29));
#1183=CARTESIAN_POINT('',(-62.83,-3.,0.29));
#1184=CARTESIAN_POINT('',(-62.83,-3.,1.77573785876366E-17));
#1185=CARTESIAN_POINT('',(-62.83,-3.,-0.29));
#1186=CARTESIAN_POINT('',(-62.54,-3.,-0.29));
#1187=CARTESIAN_POINT('',(-62.25,-3.,-0.29));
#1188=CARTESIAN_POINT('',(-62.25,-3.,-5.32721357629099E-17));
#1189=CARTESIAN_POINT('',(-62.25,-3.,0.29));
#1190=CARTESIAN_POINT('',(-62.54,-3.,0.29));
#1191=CARTESIAN_POINT('',(-60.,-3.29,0.));
#1192=CARTESIAN_POINT('',(-59.71,-3.29,0.));
#1193=CARTESIAN_POINT('',(-59.71,-3.,-5.32721357629098E-17));
#1194=CARTESIAN_POINT('',(-60.,-3.29,0.));
#1195=CARTESIAN_POINT('',(-59.71,-3.29,-0.289999999999999));
#1196=CARTESIAN_POINT('',(-59.71,-3.,-0.289999999999999));
#1197=CARTESIAN_POINT('',(-60.,-3.29,0.));
#1198=CARTESIAN_POINT('',(-60.,-3.29,-0.289999999999999));
#1199=CARTESIAN_POINT('',(-60.,-3.,-0.289999999999999));
#1200=CARTESIAN_POINT('',(-60.,-3.29,0.));
#1201=CARTESIAN_POINT('',(-60.29,-3.29,-0.289999999999999));
#1202=CARTESIAN_POINT('',(-60.29,-3.,-0.289999999999999));
#1203=CARTESIAN_POINT('',(-60.,-3.29,0.));
#1204=CARTESIAN_POINT('',(-60.29,-3.29,-3.55147571752731E-17));
#1205=CARTESIAN_POINT('',(-60.29,-3.,1.77573785876367E-17));
#1206=CARTESIAN_POINT('',(-60.,-3.29,0.));
#1207=CARTESIAN_POINT('',(-60.29,-3.29,0.289999999999999));
#1208=CARTESIAN_POINT('',(-60.29,-3.,0.289999999999999));
#1209=CARTESIAN_POINT('',(-60.,-3.29,0.));
#1210=CARTESIAN_POINT('',(-60.,-3.29,0.289999999999999));
#1211=CARTESIAN_POINT('',(-60.,-3.,0.289999999999999));
#1212=CARTESIAN_POINT('',(-60.,-3.29,0.));
#1213=CARTESIAN_POINT('',(-59.71,-3.29,0.289999999999999));
#1214=CARTESIAN_POINT('',(-59.71,-3.,0.289999999999999));
#1215=CARTESIAN_POINT('',(-60.,-3.29,0.));
#1216=CARTESIAN_POINT('',(-59.71,-3.29,0.));
#1217=CARTESIAN_POINT('',(-59.71,-3.,-5.32721357629098E-17));
#1218=CARTESIAN_POINT('',(-62.54,-3.,0.29));
#1219=CARTESIAN_POINT('',(-62.54,7.81,0.29));
#1220=CARTESIAN_POINT('',(-60.,7.81,0.29));
#1221=CARTESIAN_POINT('',(-60.,-3.,0.29));
#1222=CARTESIAN_POINT('',(-62.54,-3.29,0.));
#1223=CARTESIAN_POINT('',(-60.,-3.29,0.));
#1224=CARTESIAN_POINT('',(-59.71,-3.,1.77573785876364E-17));
#1225=CARTESIAN_POINT('',(-62.54,-3.,0.29));
#1226=CARTESIAN_POINT('',(-62.54,0.603333333333335,0.29));
#1227=CARTESIAN_POINT('',(-62.54,4.20666666666667,0.29));
#1228=CARTESIAN_POINT('',(-62.54,7.81,0.29));
#1229=CARTESIAN_POINT('',(-62.54,7.81,0.29));
#1230=CARTESIAN_POINT('',(-62.25,7.81,0.29));
#1231=CARTESIAN_POINT('',(-62.25,7.81,1.77573785876366E-17));
#1232=CARTESIAN_POINT('',(-62.25,7.81,-0.29));
#1233=CARTESIAN_POINT('',(-62.54,7.81,-0.29));
#1234=CARTESIAN_POINT('',(-62.83,7.81,-0.29));
#1235=CARTESIAN_POINT('',(-62.83,7.81,-5.32721357629099E-17));
#1236=CARTESIAN_POINT('',(-62.83,7.81,0.29));
#1237=CARTESIAN_POINT('',(-62.54,7.81,0.29));
#1238=CARTESIAN_POINT('',(-62.54,7.81,0.29));
#1239=CARTESIAN_POINT('',(-62.5400978767139,7.96957846904164,0.29));
#1240=CARTESIAN_POINT('',(-62.5096094714908,8.12913921881927,0.29));
#1241=CARTESIAN_POINT('',(-62.4508342061569,8.2774844516584,0.29));
#1242=CARTESIAN_POINT('',(-62.3871505916935,8.43821806233532,0.29));
#1243=CARTESIAN_POINT('',(-62.2902583475727,8.58578471326601,0.29));
#1244=CARTESIAN_POINT('',(-62.1680268086967,8.7080244155155,0.29));
#1245=CARTESIAN_POINT('',(-62.0457952698208,8.83026411776499,0.29));
#1246=CARTESIAN_POINT('',(-61.8982244361896,8.92717687133329,0.29));
#1247=CARTESIAN_POINT('',(-61.7374850825507,8.99083164305953,0.29));
#1248=CARTESIAN_POINT('',(-61.5891345493824,9.04958028868059,0.29));
#1249=CARTESIAN_POINT('',(-61.4295671702566,9.08000003637235,0.29));
#1250=CARTESIAN_POINT('',(-61.27,9.08,0.29));
#1251=CARTESIAN_POINT('',(-61.1104328297434,9.07999996362765,0.29));
#1252=CARTESIAN_POINT('',(-60.9508658683559,9.04958014319119,0.29));
#1253=CARTESIAN_POINT('',(-60.8025159531876,8.99083204024953,0.29));
#1254=CARTESIAN_POINT('',(-60.6417772691579,8.92717785652207,0.29));
#1255=CARTESIAN_POINT('',(-60.4942073402421,8.8302664134573,0.29));
#1256=CARTESIAN_POINT('',(-60.3719756012479,8.70802682546013,0.29));
#1257=CARTESIAN_POINT('',(-60.2497438622538,8.58578723746297,0.29));
#1258=CARTESIAN_POINT('',(-60.1528503131812,8.43821950453342,0.29));
#1259=CARTESIAN_POINT('',(-60.0891661995101,8.27748551315762,0.29));
#1260=CARTESIAN_POINT('',(-60.0303904734444,8.12913992896159,0.29));
#1261=CARTESIAN_POINT('',(-59.9999022938162,7.96957942518906,0.29));
#1262=CARTESIAN_POINT('',(-60.,7.81,0.29));
#1263=CARTESIAN_POINT('',(-60.,7.81,0.29));
#1264=CARTESIAN_POINT('',(-60.29,7.81,0.29));
#1265=CARTESIAN_POINT('',(-60.29,7.81,1.77573785876366E-17));
#1266=CARTESIAN_POINT('',(-60.29,7.81,-0.29));
#1267=CARTESIAN_POINT('',(-60.,7.81,-0.29));
#1268=CARTESIAN_POINT('',(-59.71,7.81,-0.29));
#1269=CARTESIAN_POINT('',(-59.71,7.81,-5.32721357629099E-17));
#1270=CARTESIAN_POINT('',(-59.71,7.81,0.29));
#1271=CARTESIAN_POINT('',(-60.,7.81,0.29));
#1272=CARTESIAN_POINT('',(-60.,7.81,0.29));
#1273=CARTESIAN_POINT('',(-60.,4.20666666666667,0.29));
#1274=CARTESIAN_POINT('',(-60.,0.60333333333333,0.29));
#1275=CARTESIAN_POINT('',(-60.,-3.,0.29));
#1276=CARTESIAN_POINT('',(-62.54,-3.29,0.));
#1277=CARTESIAN_POINT('',(-62.54,-3.29,0.29));
#1278=CARTESIAN_POINT('',(-62.54,-3.,0.29));
#1279=CARTESIAN_POINT('',(-62.54,-3.,0.29));
#1280=CARTESIAN_POINT('',(-62.83,-3.,0.29));
#1281=CARTESIAN_POINT('',(-62.83,-3.,1.77573785876366E-17));
#1282=CARTESIAN_POINT('',(-62.83,-3.,-0.29));
#1283=CARTESIAN_POINT('',(-62.54,-3.,-0.29));
#1284=CARTESIAN_POINT('',(-62.25,-3.,-0.29));
#1285=CARTESIAN_POINT('',(-62.25,-3.,-5.32721357629099E-17));
#1286=CARTESIAN_POINT('',(-62.25,-3.,0.29));
#1287=CARTESIAN_POINT('',(-62.54,-3.,0.29));
#1288=CARTESIAN_POINT('',(-60.,-3.29,0.));
#1289=CARTESIAN_POINT('',(-59.71,-3.29,0.));
#1290=CARTESIAN_POINT('',(-59.71,-3.,-5.32721357629098E-17));
#1291=CARTESIAN_POINT('',(-59.71,-3.,0.));
#1292=CARTESIAN_POINT('',(-59.71,-3.,0.289999999999999));
#1293=CARTESIAN_POINT('',(-60.,-3.,0.289999999999999));
#1294=CARTESIAN_POINT('',(-60.,-3.,0.289999999999999));
#1295=CARTESIAN_POINT('',(-60.1937718049966,-3.,0.289999999999999));
#1296=CARTESIAN_POINT('',(-60.2679250644283,-3.,0.110978195385876));
#1297=CARTESIAN_POINT('',(-60.34207832386,-3.,-0.0680436092282478));
#1298=CARTESIAN_POINT('',(-60.2050609665441,-3.,-0.205060966544098));
#1299=CARTESIAN_POINT('',(-60.0680436092283,-3.,-0.342078323859949));
#1300=CARTESIAN_POINT('',(-59.8890218046141,-3.,-0.267925064428272));
#1301=CARTESIAN_POINT('',(-59.71,-3.,-0.193771804996596));
#1302=CARTESIAN_POINT('',(-59.71,-3.,-5.32721357629098E-17));
#1303=CARTESIAN_POINT('',(-62.54,-3.,0.));
#1304=CARTESIAN_POINT('',(-62.54,2.405,0.));
#1305=CARTESIAN_POINT('',(-62.54,7.81,0.));
#1306=CARTESIAN_POINT('',(-62.54,9.08,0.));
#1307=CARTESIAN_POINT('',(-61.27,9.08,0.));
#1308=CARTESIAN_POINT('',(-60.,9.08,0.));
#1309=CARTESIAN_POINT('',(-60.,7.81,0.));
#1310=CARTESIAN_POINT('',(-60.,2.405,0.));
#1311=CARTESIAN_POINT('',(-60.,-3.,0.));
#1312=CARTESIAN_POINT('',(0.,0.,0.));
#1313=CARTESIAN_POINT('',(0.,0.,0.));
#1314=CARTESIAN_POINT('',(0.,0.,0.));
ENDSEC;
END-ISO-10303-21;
