ISO-10303-21;
HEADER;
/* Generated by software containing ST-Developer
 * from STEP Tools, Inc. (www.steptools.com) 
 */
/* OPTION: using custom schema-name function */

FILE_DESCRIPTION(
/* description */ (''),
/* implementation_level */ '2;1');

FILE_NAME(
/* name */ 'RESL6_~1',
/* time_stamp */ '2022-10-18T11:50:52+02:00',
/* author */ (''),
/* organization */ (''),
/* preprocessor_version */ 'ST-DEVELOPER v16.5',
/* originating_system */ '',
/* authorisation */ '');

FILE_SCHEMA (('AUTOMOTIVE_DESIGN'));
ENDSEC;

DATA;
#10=SHAPE_REPRESENTATION_RELATIONSHIP('','',#455,#145);
#11=SHAPE_REPRESENTATION_RELATIONSHIP('','',#455,#23);
#12=SHELL_BASED_SURFACE_MODEL('shell_1',(#24));
#13=SHELL_BASED_SURFACE_MODEL('shell_2',(#25));
#14=SHELL_BASED_SURFACE_MODEL('shell_3',(#26));
#15=SHELL_BASED_SURFACE_MODEL('shell_4',(#27));
#16=SHELL_BASED_SURFACE_MODEL('shell_5',(#28));
#17=SHELL_BASED_SURFACE_MODEL('shell_6',(#29));
#18=SHELL_BASED_SURFACE_MODEL('shell_7',(#30));
#19=SHELL_BASED_SURFACE_MODEL('shell_8',(#31));
#20=SHELL_BASED_SURFACE_MODEL('shell_9',(#32));
#21=SHELL_BASED_SURFACE_MODEL('shell_10',(#33));
#22=SHELL_BASED_SURFACE_MODEL('shell_11',(#34));
#23=MANIFOLD_SURFACE_SHAPE_REPRESENTATION('shell_rep_0',(#12,#13,#14,#15,
#16,#17,#18,#19,#20,#21,#22,#458),#454);
#24=OPEN_SHELL('',(#154));
#25=OPEN_SHELL('',(#155));
#26=OPEN_SHELL('',(#156));
#27=OPEN_SHELL('',(#157));
#28=OPEN_SHELL('',(#158));
#29=OPEN_SHELL('',(#159));
#30=OPEN_SHELL('',(#160));
#31=OPEN_SHELL('',(#161));
#32=OPEN_SHELL('',(#162));
#33=OPEN_SHELL('',(#163,#164));
#34=OPEN_SHELL('',(#165,#166));
#35=COLOUR_RGB('',0.901960784313726,0.901960784313726,0.901960784313726);
#36=COLOUR_RGB('',0.823529411764706,0.458823529411765,0.298039215686275);
#37=COLOUR_RGB('',0.823529411764706,0.458823529411765,0.298039215686275);
#38=COLOUR_RGB('',0.823529411764706,0.458823529411765,0.298039215686275);
#39=COLOUR_RGB('',0.823529411764706,0.458823529411765,0.298039215686275);
#40=COLOUR_RGB('',0.749019607843137,0.247058823529412,0.247058823529412);
#41=COLOUR_RGB('',0.823529411764706,0.458823529411765,0.298039215686275);
#42=COLOUR_RGB('',0.,1.,0.);
#43=COLOUR_RGB('',0.0666666666666667,0.0549019607843137,0.0549019607843137);
#44=COLOUR_RGB('',0.823529411764706,0.458823529411765,0.298039215686275);
#45=COLOUR_RGB('',1.,0.,0.);
#46=COLOUR_RGB('',0.749019607843137,0.247058823529412,0.247058823529412);
#47=FILL_AREA_STYLE_COLOUR('',#35);
#48=FILL_AREA_STYLE_COLOUR('',#36);
#49=FILL_AREA_STYLE_COLOUR('',#37);
#50=FILL_AREA_STYLE_COLOUR('',#38);
#51=FILL_AREA_STYLE_COLOUR('',#39);
#52=FILL_AREA_STYLE_COLOUR('',#40);
#53=FILL_AREA_STYLE_COLOUR('',#41);
#54=FILL_AREA_STYLE_COLOUR('',#42);
#55=FILL_AREA_STYLE_COLOUR('',#43);
#56=FILL_AREA_STYLE_COLOUR('',#44);
#57=FILL_AREA_STYLE_COLOUR('',#45);
#58=FILL_AREA_STYLE_COLOUR('',#46);
#59=FILL_AREA_STYLE('',(#47));
#60=FILL_AREA_STYLE('',(#48));
#61=FILL_AREA_STYLE('',(#49));
#62=FILL_AREA_STYLE('',(#50));
#63=FILL_AREA_STYLE('',(#51));
#64=FILL_AREA_STYLE('',(#52));
#65=FILL_AREA_STYLE('',(#53));
#66=FILL_AREA_STYLE('',(#54));
#67=FILL_AREA_STYLE('',(#55));
#68=FILL_AREA_STYLE('',(#56));
#69=FILL_AREA_STYLE('',(#57));
#70=FILL_AREA_STYLE('',(#58));
#71=SURFACE_STYLE_FILL_AREA(#59);
#72=SURFACE_STYLE_FILL_AREA(#60);
#73=SURFACE_STYLE_FILL_AREA(#61);
#74=SURFACE_STYLE_FILL_AREA(#62);
#75=SURFACE_STYLE_FILL_AREA(#63);
#76=SURFACE_STYLE_FILL_AREA(#64);
#77=SURFACE_STYLE_FILL_AREA(#65);
#78=SURFACE_STYLE_FILL_AREA(#66);
#79=SURFACE_STYLE_FILL_AREA(#67);
#80=SURFACE_STYLE_FILL_AREA(#68);
#81=SURFACE_STYLE_FILL_AREA(#69);
#82=SURFACE_STYLE_FILL_AREA(#70);
#83=SURFACE_SIDE_STYLE('',(#71));
#84=SURFACE_SIDE_STYLE('',(#72));
#85=SURFACE_SIDE_STYLE('',(#73));
#86=SURFACE_SIDE_STYLE('',(#74));
#87=SURFACE_SIDE_STYLE('',(#75));
#88=SURFACE_SIDE_STYLE('',(#76));
#89=SURFACE_SIDE_STYLE('',(#77));
#90=SURFACE_SIDE_STYLE('',(#78));
#91=SURFACE_SIDE_STYLE('',(#79));
#92=SURFACE_SIDE_STYLE('',(#80));
#93=SURFACE_SIDE_STYLE('',(#81));
#94=SURFACE_SIDE_STYLE('',(#82));
#95=SURFACE_STYLE_USAGE(.BOTH.,#83);
#96=SURFACE_STYLE_USAGE(.BOTH.,#84);
#97=SURFACE_STYLE_USAGE(.BOTH.,#85);
#98=SURFACE_STYLE_USAGE(.BOTH.,#86);
#99=SURFACE_STYLE_USAGE(.BOTH.,#87);
#100=SURFACE_STYLE_USAGE(.BOTH.,#88);
#101=SURFACE_STYLE_USAGE(.BOTH.,#89);
#102=SURFACE_STYLE_USAGE(.BOTH.,#90);
#103=SURFACE_STYLE_USAGE(.BOTH.,#91);
#104=SURFACE_STYLE_USAGE(.BOTH.,#92);
#105=SURFACE_STYLE_USAGE(.BOTH.,#93);
#106=SURFACE_STYLE_USAGE(.BOTH.,#94);
#107=MECHANICAL_DESIGN_GEOMETRIC_PRESENTATION_REPRESENTATION('',(#120,#121,
#122,#123,#124,#125,#126,#127,#128,#129,#130,#131),#454);
#108=PRESENTATION_STYLE_ASSIGNMENT((#95));
#109=PRESENTATION_STYLE_ASSIGNMENT((#96));
#110=PRESENTATION_STYLE_ASSIGNMENT((#97));
#111=PRESENTATION_STYLE_ASSIGNMENT((#98));
#112=PRESENTATION_STYLE_ASSIGNMENT((#99));
#113=PRESENTATION_STYLE_ASSIGNMENT((#100));
#114=PRESENTATION_STYLE_ASSIGNMENT((#101));
#115=PRESENTATION_STYLE_ASSIGNMENT((#102));
#116=PRESENTATION_STYLE_ASSIGNMENT((#103));
#117=PRESENTATION_STYLE_ASSIGNMENT((#104));
#118=PRESENTATION_STYLE_ASSIGNMENT((#105));
#119=PRESENTATION_STYLE_ASSIGNMENT((#106));
#120=STYLED_ITEM('',(#108),#144);
#121=STYLED_ITEM('',(#109),#12);
#122=STYLED_ITEM('',(#110),#13);
#123=STYLED_ITEM('',(#111),#14);
#124=STYLED_ITEM('',(#112),#15);
#125=STYLED_ITEM('',(#113),#16);
#126=STYLED_ITEM('',(#114),#17);
#127=STYLED_ITEM('',(#115),#18);
#128=STYLED_ITEM('',(#116),#19);
#129=STYLED_ITEM('',(#117),#20);
#130=STYLED_ITEM('',(#118),#21);
#131=STYLED_ITEM('',(#119),#22);
#132=PRESENTATION_LAYER_ASSIGNMENT('leads::Pitch 8,64mm minimal','',(#144));
#133=PRESENTATION_LAYER_ASSIGNMENT('CCF55 series, VISHAY DALE::body','',
(#12));
#134=PRESENTATION_LAYER_ASSIGNMENT('CCF55 series, VISHAY DALE::body','',
(#13));
#135=PRESENTATION_LAYER_ASSIGNMENT('CCF55 series, VISHAY DALE::body','',
(#14));
#136=PRESENTATION_LAYER_ASSIGNMENT('CCF55 series, VISHAY DALE::body','',
(#15));
#137=PRESENTATION_LAYER_ASSIGNMENT(
'CCF55 series, VISHAY DALE::colorcoding::ring 2','',(#16));
#138=PRESENTATION_LAYER_ASSIGNMENT('CCF55 series, VISHAY DALE::body','',
(#17));
#139=PRESENTATION_LAYER_ASSIGNMENT(
'CCF55 series, VISHAY DALE::colorcoding::ring 3','',(#18));
#140=PRESENTATION_LAYER_ASSIGNMENT(
'CCF55 series, VISHAY DALE::colorcoding::ring 4','',(#19));
#141=PRESENTATION_LAYER_ASSIGNMENT('CCF55 series, VISHAY DALE::body','',
(#20));
#142=PRESENTATION_LAYER_ASSIGNMENT(
'CCF55 series, VISHAY DALE::colorcoding::ring 1','',(#21));
#143=PRESENTATION_LAYER_ASSIGNMENT(
'CCF55 series, VISHAY DALE::colorcoding::fing 5 tol','',(#22));
#144=MANIFOLD_SOLID_BREP('brep_1',#146);
#145=ADVANCED_BREP_SHAPE_REPRESENTATION('brep_rep_0',(#144,#457),#454);
#146=CLOSED_SHELL('',(#147,#148,#149,#150,#151,#152,#153));
#147=ADVANCED_FACE('',(#167),#417,.T.);
#148=ADVANCED_FACE('',(#168),#418,.T.);
#149=ADVANCED_FACE('',(#169),#419,.T.);
#150=ADVANCED_FACE('',(#170),#420,.T.);
#151=ADVANCED_FACE('',(#171),#421,.T.);
#152=ADVANCED_FACE('',(#172),#422,.T.);
#153=ADVANCED_FACE('',(#173),#423,.T.);
#154=ADVANCED_FACE('',(#174),#424,.T.);
#155=ADVANCED_FACE('',(#175),#425,.T.);
#156=ADVANCED_FACE('',(#176),#426,.T.);
#157=ADVANCED_FACE('',(#177),#427,.T.);
#158=ADVANCED_FACE('',(#178),#428,.T.);
#159=ADVANCED_FACE('',(#179),#429,.T.);
#160=ADVANCED_FACE('',(#180),#430,.T.);
#161=ADVANCED_FACE('',(#181),#431,.T.);
#162=ADVANCED_FACE('',(#182),#432,.T.);
#163=ADVANCED_FACE('',(#183),#433,.T.);
#164=ADVANCED_FACE('',(#184),#434,.T.);
#165=ADVANCED_FACE('',(#185),#435,.T.);
#166=ADVANCED_FACE('',(#186),#436,.T.);
#167=FACE_OUTER_BOUND('',#187,.T.);
#168=FACE_OUTER_BOUND('',#188,.T.);
#169=FACE_OUTER_BOUND('',#189,.T.);
#170=FACE_OUTER_BOUND('',#190,.T.);
#171=FACE_OUTER_BOUND('',#191,.T.);
#172=FACE_OUTER_BOUND('',#192,.T.);
#173=FACE_OUTER_BOUND('',#193,.T.);
#174=FACE_OUTER_BOUND('',#194,.T.);
#175=FACE_OUTER_BOUND('',#195,.T.);
#176=FACE_OUTER_BOUND('',#196,.T.);
#177=FACE_OUTER_BOUND('',#197,.T.);
#178=FACE_OUTER_BOUND('',#198,.T.);
#179=FACE_OUTER_BOUND('',#199,.T.);
#180=FACE_OUTER_BOUND('',#200,.T.);
#181=FACE_OUTER_BOUND('',#201,.T.);
#182=FACE_OUTER_BOUND('',#202,.T.);
#183=FACE_OUTER_BOUND('',#203,.T.);
#184=FACE_OUTER_BOUND('',#204,.T.);
#185=FACE_OUTER_BOUND('',#205,.T.);
#186=FACE_OUTER_BOUND('',#206,.T.);
#187=EDGE_LOOP('',(#207,#208,#209,#210));
#188=EDGE_LOOP('',(#211,#212,#213,#214));
#189=EDGE_LOOP('',(#215,#216,#217,#218));
#190=EDGE_LOOP('',(#219,#220,#221,#222));
#191=EDGE_LOOP('',(#223,#224,#225,#226));
#192=EDGE_LOOP('',(#227,#228,#229));
#193=EDGE_LOOP('',(#230,#231,#232));
#194=EDGE_LOOP('',(#233,#234,#235,#236));
#195=EDGE_LOOP('',(#237,#238,#239,#240));
#196=EDGE_LOOP('',(#241,#242,#243,#244));
#197=EDGE_LOOP('',(#245,#246,#247,#248));
#198=EDGE_LOOP('',(#249,#250,#251,#252));
#199=EDGE_LOOP('',(#253,#254,#255,#256));
#200=EDGE_LOOP('',(#257,#258,#259,#260));
#201=EDGE_LOOP('',(#261,#262,#263,#264));
#202=EDGE_LOOP('',(#265,#266,#267,#268));
#203=EDGE_LOOP('',(#269,#270,#271,#272));
#204=EDGE_LOOP('',(#273,#274,#275,#276));
#205=EDGE_LOOP('',(#277,#278,#279,#280));
#206=EDGE_LOOP('',(#281,#282,#283,#284));
#207=ORIENTED_EDGE('',*,*,#285,.T.);
#208=ORIENTED_EDGE('',*,*,#286,.T.);
#209=ORIENTED_EDGE('',*,*,#285,.F.);
#210=ORIENTED_EDGE('',*,*,#295,.T.);
#211=ORIENTED_EDGE('',*,*,#287,.T.);
#212=ORIENTED_EDGE('',*,*,#288,.T.);
#213=ORIENTED_EDGE('',*,*,#287,.F.);
#214=ORIENTED_EDGE('',*,*,#286,.F.);
#215=ORIENTED_EDGE('',*,*,#289,.T.);
#216=ORIENTED_EDGE('',*,*,#290,.T.);
#217=ORIENTED_EDGE('',*,*,#289,.F.);
#218=ORIENTED_EDGE('',*,*,#288,.F.);
#219=ORIENTED_EDGE('',*,*,#291,.T.);
#220=ORIENTED_EDGE('',*,*,#292,.T.);
#221=ORIENTED_EDGE('',*,*,#291,.F.);
#222=ORIENTED_EDGE('',*,*,#290,.F.);
#223=ORIENTED_EDGE('',*,*,#293,.T.);
#224=ORIENTED_EDGE('',*,*,#297,.T.);
#225=ORIENTED_EDGE('',*,*,#293,.F.);
#226=ORIENTED_EDGE('',*,*,#292,.F.);
#227=ORIENTED_EDGE('',*,*,#294,.T.);
#228=ORIENTED_EDGE('',*,*,#295,.F.);
#229=ORIENTED_EDGE('',*,*,#294,.F.);
#230=ORIENTED_EDGE('',*,*,#296,.T.);
#231=ORIENTED_EDGE('',*,*,#297,.F.);
#232=ORIENTED_EDGE('',*,*,#296,.F.);
#233=ORIENTED_EDGE('',*,*,#300,.T.);
#234=ORIENTED_EDGE('',*,*,#299,.F.);
#235=ORIENTED_EDGE('',*,*,#298,.F.);
#236=ORIENTED_EDGE('',*,*,#299,.T.);
#237=ORIENTED_EDGE('',*,*,#302,.F.);
#238=ORIENTED_EDGE('',*,*,#301,.F.);
#239=ORIENTED_EDGE('',*,*,#302,.T.);
#240=ORIENTED_EDGE('',*,*,#303,.F.);
#241=ORIENTED_EDGE('',*,*,#306,.T.);
#242=ORIENTED_EDGE('',*,*,#304,.T.);
#243=ORIENTED_EDGE('',*,*,#306,.F.);
#244=ORIENTED_EDGE('',*,*,#305,.F.);
#245=ORIENTED_EDGE('',*,*,#309,.T.);
#246=ORIENTED_EDGE('',*,*,#307,.T.);
#247=ORIENTED_EDGE('',*,*,#309,.F.);
#248=ORIENTED_EDGE('',*,*,#308,.F.);
#249=ORIENTED_EDGE('',*,*,#312,.T.);
#250=ORIENTED_EDGE('',*,*,#310,.T.);
#251=ORIENTED_EDGE('',*,*,#312,.F.);
#252=ORIENTED_EDGE('',*,*,#311,.F.);
#253=ORIENTED_EDGE('',*,*,#315,.T.);
#254=ORIENTED_EDGE('',*,*,#313,.T.);
#255=ORIENTED_EDGE('',*,*,#315,.F.);
#256=ORIENTED_EDGE('',*,*,#314,.F.);
#257=ORIENTED_EDGE('',*,*,#316,.T.);
#258=ORIENTED_EDGE('',*,*,#318,.F.);
#259=ORIENTED_EDGE('',*,*,#317,.F.);
#260=ORIENTED_EDGE('',*,*,#318,.T.);
#261=ORIENTED_EDGE('',*,*,#319,.T.);
#262=ORIENTED_EDGE('',*,*,#321,.F.);
#263=ORIENTED_EDGE('',*,*,#320,.F.);
#264=ORIENTED_EDGE('',*,*,#321,.T.);
#265=ORIENTED_EDGE('',*,*,#322,.T.);
#266=ORIENTED_EDGE('',*,*,#324,.F.);
#267=ORIENTED_EDGE('',*,*,#323,.F.);
#268=ORIENTED_EDGE('',*,*,#324,.T.);
#269=ORIENTED_EDGE('',*,*,#328,.T.);
#270=ORIENTED_EDGE('',*,*,#326,.F.);
#271=ORIENTED_EDGE('',*,*,#325,.T.);
#272=ORIENTED_EDGE('',*,*,#326,.T.);
#273=ORIENTED_EDGE('',*,*,#329,.T.);
#274=ORIENTED_EDGE('',*,*,#325,.F.);
#275=ORIENTED_EDGE('',*,*,#329,.F.);
#276=ORIENTED_EDGE('',*,*,#327,.F.);
#277=ORIENTED_EDGE('',*,*,#334,.T.);
#278=ORIENTED_EDGE('',*,*,#330,.F.);
#279=ORIENTED_EDGE('',*,*,#331,.T.);
#280=ORIENTED_EDGE('',*,*,#330,.T.);
#281=ORIENTED_EDGE('',*,*,#333,.T.);
#282=ORIENTED_EDGE('',*,*,#332,.F.);
#283=ORIENTED_EDGE('',*,*,#331,.F.);
#284=ORIENTED_EDGE('',*,*,#332,.T.);
#285=EDGE_CURVE('',#385,#386,#335,.T.);
#286=EDGE_CURVE('',#386,#386,#336,.T.);
#287=EDGE_CURVE('',#386,#387,#337,.T.);
#288=EDGE_CURVE('',#387,#387,#338,.T.);
#289=EDGE_CURVE('',#387,#388,#339,.T.);
#290=EDGE_CURVE('',#388,#388,#340,.T.);
#291=EDGE_CURVE('',#388,#389,#341,.T.);
#292=EDGE_CURVE('',#389,#389,#342,.T.);
#293=EDGE_CURVE('',#389,#390,#343,.T.);
#294=EDGE_CURVE('',#391,#385,#344,.T.);
#295=EDGE_CURVE('',#385,#385,#345,.T.);
#296=EDGE_CURVE('',#392,#390,#346,.T.);
#297=EDGE_CURVE('',#390,#390,#347,.T.);
#298=EDGE_CURVE('',#393,#393,#348,.T.);
#299=EDGE_CURVE('',#393,#394,#349,.T.);
#300=EDGE_CURVE('',#394,#394,#350,.T.);
#301=EDGE_CURVE('',#395,#395,#351,.T.);
#302=EDGE_CURVE('',#395,#396,#352,.T.);
#303=EDGE_CURVE('',#396,#396,#353,.T.);
#304=EDGE_CURVE('',#397,#397,#354,.T.);
#305=EDGE_CURVE('',#398,#398,#355,.T.);
#306=EDGE_CURVE('',#398,#397,#356,.T.);
#307=EDGE_CURVE('',#399,#399,#357,.T.);
#308=EDGE_CURVE('',#400,#400,#358,.T.);
#309=EDGE_CURVE('',#400,#399,#359,.T.);
#310=EDGE_CURVE('',#401,#401,#360,.T.);
#311=EDGE_CURVE('',#402,#402,#361,.T.);
#312=EDGE_CURVE('',#402,#401,#362,.T.);
#313=EDGE_CURVE('',#403,#403,#363,.T.);
#314=EDGE_CURVE('',#404,#404,#364,.T.);
#315=EDGE_CURVE('',#404,#403,#365,.T.);
#316=EDGE_CURVE('',#405,#405,#366,.T.);
#317=EDGE_CURVE('',#406,#406,#367,.T.);
#318=EDGE_CURVE('',#406,#405,#368,.T.);
#319=EDGE_CURVE('',#407,#407,#369,.T.);
#320=EDGE_CURVE('',#408,#408,#370,.T.);
#321=EDGE_CURVE('',#408,#407,#371,.T.);
#322=EDGE_CURVE('',#409,#409,#372,.T.);
#323=EDGE_CURVE('',#410,#410,#373,.T.);
#324=EDGE_CURVE('',#410,#409,#374,.T.);
#325=EDGE_CURVE('',#411,#411,#375,.T.);
#326=EDGE_CURVE('',#411,#413,#376,.T.);
#327=EDGE_CURVE('',#412,#412,#377,.T.);
#328=EDGE_CURVE('',#413,#413,#378,.T.);
#329=EDGE_CURVE('',#412,#411,#379,.T.);
#330=EDGE_CURVE('',#414,#416,#380,.T.);
#331=EDGE_CURVE('',#414,#414,#381,.T.);
#332=EDGE_CURVE('',#414,#415,#382,.T.);
#333=EDGE_CURVE('',#415,#415,#383,.T.);
#334=EDGE_CURVE('',#416,#416,#384,.T.);
#335=(
BOUNDED_CURVE()
B_SPLINE_CURVE(3,(#762,#763,#764,#765),.UNSPECIFIED.,.F.,.F.)
B_SPLINE_CURVE_WITH_KNOTS((4,4),(0.,3.665),.UNSPECIFIED.)
CURVE()
GEOMETRIC_REPRESENTATION_ITEM()
RATIONAL_B_SPLINE_CURVE((1.,1.,1.,1.))
REPRESENTATION_ITEM('')
);
#336=(
BOUNDED_CURVE()
B_SPLINE_CURVE(2,(#766,#767,#768,#769,#770,#771,#772,#773,#774),
 .UNSPECIFIED.,.T.,.F.)
B_SPLINE_CURVE_WITH_KNOTS((3,2,2,2,3),(0.,0.45553093477052,0.91106186954104,
1.36659280431156,1.82212373908208),.UNSPECIFIED.)
CURVE()
GEOMETRIC_REPRESENTATION_ITEM()
RATIONAL_B_SPLINE_CURVE((1.,0.707106781186548,1.,0.707106781186548,1.,0.707106781186548,
1.,0.707106781186548,1.))
REPRESENTATION_ITEM('')
);
#337=(
BOUNDED_CURVE()
B_SPLINE_CURVE(3,(#775,#776,#777,#778,#779,#780,#781),.UNSPECIFIED.,.F.,
 .F.)
B_SPLINE_CURVE_WITH_KNOTS((4,1,1,1,4),(0.,0.218635915382903,0.455530215459671,
0.69242451553644,0.911060430919343),.UNSPECIFIED.)
CURVE()
GEOMETRIC_REPRESENTATION_ITEM()
RATIONAL_B_SPLINE_CURVE((1.,1.,1.,1.,0.999999999999999,1.,1.))
REPRESENTATION_ITEM('')
);
#338=(
BOUNDED_CURVE()
B_SPLINE_CURVE(2,(#782,#783,#784,#785,#786,#787,#788,#789,#790),
 .UNSPECIFIED.,.T.,.F.)
B_SPLINE_CURVE_WITH_KNOTS((3,2,2,2,3),(0.,0.45553093477052,0.91106186954104,
1.36659280431156,1.82212373908208),.UNSPECIFIED.)
CURVE()
GEOMETRIC_REPRESENTATION_ITEM()
RATIONAL_B_SPLINE_CURVE((1.,0.707106781186548,1.,0.707106781186548,1.,0.707106781186548,
1.,0.707106781186548,1.))
REPRESENTATION_ITEM('')
);
#339=(
BOUNDED_CURVE()
B_SPLINE_CURVE(3,(#791,#792,#793,#794),.UNSPECIFIED.,.F.,.F.)
B_SPLINE_CURVE_WITH_KNOTS((4,4),(0.,7.48),.UNSPECIFIED.)
CURVE()
GEOMETRIC_REPRESENTATION_ITEM()
RATIONAL_B_SPLINE_CURVE((1.,1.,1.,1.))
REPRESENTATION_ITEM('')
);
#340=(
BOUNDED_CURVE()
B_SPLINE_CURVE(2,(#795,#796,#797,#798,#799,#800,#801,#802,#803),
 .UNSPECIFIED.,.T.,.F.)
B_SPLINE_CURVE_WITH_KNOTS((3,2,2,2,3),(0.,0.45553093477052,0.91106186954104,
1.36659280431156,1.82212373908208),.UNSPECIFIED.)
CURVE()
GEOMETRIC_REPRESENTATION_ITEM()
RATIONAL_B_SPLINE_CURVE((1.,0.707106781186548,1.,0.707106781186548,1.,0.707106781186548,
1.,0.707106781186548,1.))
REPRESENTATION_ITEM('')
);
#341=(
BOUNDED_CURVE()
B_SPLINE_CURVE(3,(#804,#805,#806,#807,#808,#809,#810),.UNSPECIFIED.,.F.,
 .F.)
B_SPLINE_CURVE_WITH_KNOTS((4,1,1,1,4),(0.,0.218635915382903,0.455530215459671,
0.692424515536441,0.911060430919343),.UNSPECIFIED.)
CURVE()
GEOMETRIC_REPRESENTATION_ITEM()
RATIONAL_B_SPLINE_CURVE((1.,1.,1.,1.,1.,0.999999999999999,1.))
REPRESENTATION_ITEM('')
);
#342=(
BOUNDED_CURVE()
B_SPLINE_CURVE(2,(#811,#812,#813,#814,#815,#816,#817,#818,#819),
 .UNSPECIFIED.,.T.,.F.)
B_SPLINE_CURVE_WITH_KNOTS((3,2,2,2,3),(0.,0.45553093477052,0.91106186954104,
1.36659280431156,1.82212373908208),.UNSPECIFIED.)
CURVE()
GEOMETRIC_REPRESENTATION_ITEM()
RATIONAL_B_SPLINE_CURVE((1.,0.707106781186548,1.,0.707106781186548,1.,0.707106781186548,
1.,0.707106781186548,1.))
REPRESENTATION_ITEM('')
);
#343=(
BOUNDED_CURVE()
B_SPLINE_CURVE(3,(#820,#821,#822,#823),.UNSPECIFIED.,.F.,.F.)
B_SPLINE_CURVE_WITH_KNOTS((4,4),(0.,3.665),.UNSPECIFIED.)
CURVE()
GEOMETRIC_REPRESENTATION_ITEM()
RATIONAL_B_SPLINE_CURVE((1.,1.,1.,1.))
REPRESENTATION_ITEM('')
);
#344=(
BOUNDED_CURVE()
B_SPLINE_CURVE(2,(#824,#825,#826),.UNSPECIFIED.,.F.,.F.)
B_SPLINE_CURVE_WITH_KNOTS((3,3),(0.,0.45553093477052),.UNSPECIFIED.)
CURVE()
GEOMETRIC_REPRESENTATION_ITEM()
RATIONAL_B_SPLINE_CURVE((1.,0.707106781186548,1.))
REPRESENTATION_ITEM('')
);
#345=(
BOUNDED_CURVE()
B_SPLINE_CURVE(2,(#827,#828,#829,#830,#831,#832,#833,#834,#835),
 .UNSPECIFIED.,.T.,.F.)
B_SPLINE_CURVE_WITH_KNOTS((3,2,2,2,3),(0.,1.5707963267949,3.14159265358979,
4.71238898038469,6.28318530717959),.UNSPECIFIED.)
CURVE()
GEOMETRIC_REPRESENTATION_ITEM()
RATIONAL_B_SPLINE_CURVE((1.,0.707106781186548,1.,0.707106781186548,1.,0.707106781186548,
1.,0.707106781186548,1.))
REPRESENTATION_ITEM('')
);
#346=(
BOUNDED_CURVE()
B_SPLINE_CURVE(2,(#836,#837,#838),.UNSPECIFIED.,.F.,.F.)
B_SPLINE_CURVE_WITH_KNOTS((3,3),(0.,0.45553093477052),.UNSPECIFIED.)
CURVE()
GEOMETRIC_REPRESENTATION_ITEM()
RATIONAL_B_SPLINE_CURVE((1.,0.707106781186547,1.))
REPRESENTATION_ITEM('')
);
#347=(
BOUNDED_CURVE()
B_SPLINE_CURVE(2,(#839,#840,#841,#842,#843,#844,#845,#846,#847),
 .UNSPECIFIED.,.T.,.F.)
B_SPLINE_CURVE_WITH_KNOTS((3,2,2,2,3),(-6.28318530717959,-4.71238898038469,
-3.14159265358979,-1.5707963267949,0.),.UNSPECIFIED.)
CURVE()
GEOMETRIC_REPRESENTATION_ITEM()
RATIONAL_B_SPLINE_CURVE((1.,0.707106781186548,1.,0.707106781186548,1.,0.707106781186548,
1.,0.707106781186548,1.))
REPRESENTATION_ITEM('')
);
#348=(
BOUNDED_CURVE()
B_SPLINE_CURVE(2,(#877,#878,#879,#880,#881,#882,#883,#884,#885),
 .UNSPECIFIED.,.T.,.F.)
B_SPLINE_CURVE_WITH_KNOTS((3,2,2,2,3),(-1.79066257314302,-1.34299692985726,
-0.895331286571508,-0.447665643285754,0.),.UNSPECIFIED.)
CURVE()
GEOMETRIC_REPRESENTATION_ITEM()
RATIONAL_B_SPLINE_CURVE((1.,0.707106781186548,1.,0.707106781186548,1.,0.707106781186548,
1.,0.707106781186548,1.))
REPRESENTATION_ITEM('')
);
#349=(
BOUNDED_CURVE()
B_SPLINE_CURVE(2,(#886,#887,#888),.UNSPECIFIED.,.F.,.F.)
B_SPLINE_CURVE_WITH_KNOTS((3,3),(0.276440064556369,0.99589382364797),
 .UNSPECIFIED.)
CURVE()
GEOMETRIC_REPRESENTATION_ITEM()
RATIONAL_B_SPLINE_CURVE((1.,0.840321532174471,1.))
REPRESENTATION_ITEM('')
);
#350=(
BOUNDED_CURVE()
B_SPLINE_CURVE(2,(#889,#890,#891,#892,#893,#894,#895,#896,#897),
 .UNSPECIFIED.,.T.,.F.)
B_SPLINE_CURVE_WITH_KNOTS((3,2,2,2,3),(-1.79066257314302,-1.34299692985726,
-0.895331286571508,-0.447665643285754,0.),.UNSPECIFIED.)
CURVE()
GEOMETRIC_REPRESENTATION_ITEM()
RATIONAL_B_SPLINE_CURVE((1.,0.707106781186548,1.,0.707106781186548,1.,0.707106781186548,
1.,0.707106781186548,1.))
REPRESENTATION_ITEM('')
);
#351=(
BOUNDED_CURVE()
B_SPLINE_CURVE(2,(#927,#928,#929,#930,#931,#932,#933,#934,#935),
 .UNSPECIFIED.,.T.,.F.)
B_SPLINE_CURVE_WITH_KNOTS((3,2,2,2,3),(0.,0.447665643285754,0.895331286571507,
1.34299692985726,1.79066257314301),.UNSPECIFIED.)
CURVE()
GEOMETRIC_REPRESENTATION_ITEM()
RATIONAL_B_SPLINE_CURVE((1.,0.707106781186548,1.,0.707106781186548,1.,0.707106781186548,
1.,0.707106781186548,1.))
REPRESENTATION_ITEM('')
);
#352=(
BOUNDED_CURVE()
B_SPLINE_CURVE(2,(#936,#937,#938),.UNSPECIFIED.,.F.,.F.)
B_SPLINE_CURVE_WITH_KNOTS((3,3),(0.197912320652915,0.99589382364797),
 .UNSPECIFIED.)
CURVE()
GEOMETRIC_REPRESENTATION_ITEM()
RATIONAL_B_SPLINE_CURVE((1.,0.805063860493408,1.))
REPRESENTATION_ITEM('')
);
#353=(
BOUNDED_CURVE()
B_SPLINE_CURVE(2,(#939,#940,#941,#942,#943,#944,#945,#946,#947),
 .UNSPECIFIED.,.T.,.F.)
B_SPLINE_CURVE_WITH_KNOTS((3,2,2,2,3),(-1.79066257314301,-1.34299692985726,
-0.895331286571507,-0.447665643285754,0.),.UNSPECIFIED.)
CURVE()
GEOMETRIC_REPRESENTATION_ITEM()
RATIONAL_B_SPLINE_CURVE((1.,0.707106781186548,1.,0.707106781186548,1.,0.707106781186548,
1.,0.707106781186548,1.))
REPRESENTATION_ITEM('')
);
#354=(
BOUNDED_CURVE()
B_SPLINE_CURVE(2,(#968,#969,#970,#971,#972,#973,#974,#975,#976),
 .UNSPECIFIED.,.T.,.F.)
B_SPLINE_CURVE_WITH_KNOTS((3,2,2,2,3),(-7.19424717672063,-5.39568538254047,
-3.59712358836031,-1.79856179418016,0.),.UNSPECIFIED.)
CURVE()
GEOMETRIC_REPRESENTATION_ITEM()
RATIONAL_B_SPLINE_CURVE((1.,0.707106781186548,1.,0.707106781186548,1.,0.707106781186548,
1.,0.707106781186548,1.))
REPRESENTATION_ITEM('')
);
#355=(
BOUNDED_CURVE()
B_SPLINE_CURVE(2,(#977,#978,#979,#980,#981,#982,#983,#984,#985),
 .UNSPECIFIED.,.T.,.F.)
B_SPLINE_CURVE_WITH_KNOTS((3,2,2,2,3),(-7.19424717672063,-5.39568538254047,
-3.59712358836031,-1.79856179418016,0.),.UNSPECIFIED.)
CURVE()
GEOMETRIC_REPRESENTATION_ITEM()
RATIONAL_B_SPLINE_CURVE((1.,0.707106781186548,1.,0.707106781186548,1.,0.707106781186548,
1.,0.707106781186548,1.))
REPRESENTATION_ITEM('')
);
#356=(
BOUNDED_CURVE()
B_SPLINE_CURVE(1,(#986,#987),.UNSPECIFIED.,.F.,.F.)
B_SPLINE_CURVE_WITH_KNOTS((2,2),(3.81,4.21),.UNSPECIFIED.)
CURVE()
GEOMETRIC_REPRESENTATION_ITEM()
RATIONAL_B_SPLINE_CURVE((1.,1.))
REPRESENTATION_ITEM('')
);
#357=(
BOUNDED_CURVE()
B_SPLINE_CURVE(2,(#1008,#1009,#1010,#1011,#1012,#1013,#1014,#1015,#1016),
 .UNSPECIFIED.,.T.,.F.)
B_SPLINE_CURVE_WITH_KNOTS((3,2,2,2,3),(-7.19424717672063,-5.39568538254047,
-3.59712358836031,-1.79856179418016,0.),.UNSPECIFIED.)
CURVE()
GEOMETRIC_REPRESENTATION_ITEM()
RATIONAL_B_SPLINE_CURVE((1.,0.707106781186548,1.,0.707106781186548,1.,0.707106781186548,
1.,0.707106781186548,1.))
REPRESENTATION_ITEM('')
);
#358=(
BOUNDED_CURVE()
B_SPLINE_CURVE(2,(#1017,#1018,#1019,#1020,#1021,#1022,#1023,#1024,#1025),
 .UNSPECIFIED.,.T.,.F.)
B_SPLINE_CURVE_WITH_KNOTS((3,2,2,2,3),(-7.19424717672063,-5.39568538254047,
-3.59712358836031,-1.79856179418016,0.),.UNSPECIFIED.)
CURVE()
GEOMETRIC_REPRESENTATION_ITEM()
RATIONAL_B_SPLINE_CURVE((1.,0.707106781186548,1.,0.707106781186548,1.,0.707106781186548,
1.,0.707106781186548,1.))
REPRESENTATION_ITEM('')
);
#359=(
BOUNDED_CURVE()
B_SPLINE_CURVE(1,(#1026,#1027),.UNSPECIFIED.,.F.,.F.)
B_SPLINE_CURVE_WITH_KNOTS((2,2),(1.61,2.21),.UNSPECIFIED.)
CURVE()
GEOMETRIC_REPRESENTATION_ITEM()
RATIONAL_B_SPLINE_CURVE((1.,1.))
REPRESENTATION_ITEM('')
);
#360=(
BOUNDED_CURVE()
B_SPLINE_CURVE(2,(#1048,#1049,#1050,#1051,#1052,#1053,#1054,#1055,#1056),
 .UNSPECIFIED.,.T.,.F.)
B_SPLINE_CURVE_WITH_KNOTS((3,2,2,2,3),(-7.19424717672063,-5.39568538254047,
-3.59712358836031,-1.79856179418016,0.),.UNSPECIFIED.)
CURVE()
GEOMETRIC_REPRESENTATION_ITEM()
RATIONAL_B_SPLINE_CURVE((1.,0.707106781186548,1.,0.707106781186548,1.,0.707106781186548,
1.,0.707106781186548,1.))
REPRESENTATION_ITEM('')
);
#361=(
BOUNDED_CURVE()
B_SPLINE_CURVE(2,(#1057,#1058,#1059,#1060,#1061,#1062,#1063,#1064,#1065),
 .UNSPECIFIED.,.T.,.F.)
B_SPLINE_CURVE_WITH_KNOTS((3,2,2,2,3),(-7.19424717672063,-5.39568538254047,
-3.59712358836031,-1.79856179418016,0.),.UNSPECIFIED.)
CURVE()
GEOMETRIC_REPRESENTATION_ITEM()
RATIONAL_B_SPLINE_CURVE((1.,0.707106781186548,1.,0.707106781186548,1.,0.707106781186548,
1.,0.707106781186548,1.))
REPRESENTATION_ITEM('')
);
#362=(
BOUNDED_CURVE()
B_SPLINE_CURVE(1,(#1066,#1067),.UNSPECIFIED.,.F.,.F.)
B_SPLINE_CURVE_WITH_KNOTS((2,2),(4.21,4.81),.UNSPECIFIED.)
CURVE()
GEOMETRIC_REPRESENTATION_ITEM()
RATIONAL_B_SPLINE_CURVE((1.,1.))
REPRESENTATION_ITEM('')
);
#363=(
BOUNDED_CURVE()
B_SPLINE_CURVE(2,(#1088,#1089,#1090,#1091,#1092,#1093,#1094,#1095,#1096),
 .UNSPECIFIED.,.T.,.F.)
B_SPLINE_CURVE_WITH_KNOTS((3,2,2,2,3),(-7.19424717672063,-5.39568538254047,
-3.59712358836031,-1.79856179418016,0.),.UNSPECIFIED.)
CURVE()
GEOMETRIC_REPRESENTATION_ITEM()
RATIONAL_B_SPLINE_CURVE((1.,0.707106781186548,1.,0.707106781186548,1.,0.707106781186548,
1.,0.707106781186548,1.))
REPRESENTATION_ITEM('')
);
#364=(
BOUNDED_CURVE()
B_SPLINE_CURVE(2,(#1097,#1098,#1099,#1100,#1101,#1102,#1103,#1104,#1105),
 .UNSPECIFIED.,.T.,.F.)
B_SPLINE_CURVE_WITH_KNOTS((3,2,2,2,3),(-7.19424717672063,-5.39568538254047,
-3.59712358836031,-1.79856179418016,0.),.UNSPECIFIED.)
CURVE()
GEOMETRIC_REPRESENTATION_ITEM()
RATIONAL_B_SPLINE_CURVE((1.,0.707106781186548,1.,0.707106781186548,1.,0.707106781186548,
1.,0.707106781186548,1.))
REPRESENTATION_ITEM('')
);
#365=(
BOUNDED_CURVE()
B_SPLINE_CURVE(1,(#1106,#1107),.UNSPECIFIED.,.F.,.F.)
B_SPLINE_CURVE_WITH_KNOTS((2,2),(2.81,3.21),.UNSPECIFIED.)
CURVE()
GEOMETRIC_REPRESENTATION_ITEM()
RATIONAL_B_SPLINE_CURVE((1.,1.))
REPRESENTATION_ITEM('')
);
#366=(
BOUNDED_CURVE()
B_SPLINE_CURVE(2,(#1128,#1129,#1130,#1131,#1132,#1133,#1134,#1135,#1136),
 .UNSPECIFIED.,.T.,.F.)
B_SPLINE_CURVE_WITH_KNOTS((3,2,2,2,3),(-7.19424717672063,-5.39568538254047,
-3.59712358836031,-1.79856179418016,0.),.UNSPECIFIED.)
CURVE()
GEOMETRIC_REPRESENTATION_ITEM()
RATIONAL_B_SPLINE_CURVE((1.,0.707106781186548,1.,0.707106781186548,1.,0.707106781186548,
1.,0.707106781186548,1.))
REPRESENTATION_ITEM('')
);
#367=(
BOUNDED_CURVE()
B_SPLINE_CURVE(2,(#1137,#1138,#1139,#1140,#1141,#1142,#1143,#1144,#1145),
 .UNSPECIFIED.,.T.,.F.)
B_SPLINE_CURVE_WITH_KNOTS((3,2,2,2,3),(-7.19424717672063,-5.39568538254047,
-3.59712358836031,-1.79856179418016,0.),.UNSPECIFIED.)
CURVE()
GEOMETRIC_REPRESENTATION_ITEM()
RATIONAL_B_SPLINE_CURVE((1.,0.707106781186548,1.,0.707106781186548,1.,0.707106781186548,
1.,0.707106781186548,1.))
REPRESENTATION_ITEM('')
);
#368=(
BOUNDED_CURVE()
B_SPLINE_CURVE(1,(#1146,#1147),.UNSPECIFIED.,.F.,.F.)
B_SPLINE_CURVE_WITH_KNOTS((2,2),(3.21,3.81),.UNSPECIFIED.)
CURVE()
GEOMETRIC_REPRESENTATION_ITEM()
RATIONAL_B_SPLINE_CURVE((1.,1.))
REPRESENTATION_ITEM('')
);
#369=(
BOUNDED_CURVE()
B_SPLINE_CURVE(2,(#1168,#1169,#1170,#1171,#1172,#1173,#1174,#1175,#1176),
 .UNSPECIFIED.,.T.,.F.)
B_SPLINE_CURVE_WITH_KNOTS((3,2,2,2,3),(-7.19424717672063,-5.39568538254047,
-3.59712358836031,-1.79856179418016,0.),.UNSPECIFIED.)
CURVE()
GEOMETRIC_REPRESENTATION_ITEM()
RATIONAL_B_SPLINE_CURVE((1.,0.707106781186548,1.,0.707106781186548,1.,0.707106781186548,
1.,0.707106781186548,1.))
REPRESENTATION_ITEM('')
);
#370=(
BOUNDED_CURVE()
B_SPLINE_CURVE(2,(#1177,#1178,#1179,#1180,#1181,#1182,#1183,#1184,#1185),
 .UNSPECIFIED.,.T.,.F.)
B_SPLINE_CURVE_WITH_KNOTS((3,2,2,2,3),(-7.19424717672063,-5.39568538254047,
-3.59712358836031,-1.79856179418016,0.),.UNSPECIFIED.)
CURVE()
GEOMETRIC_REPRESENTATION_ITEM()
RATIONAL_B_SPLINE_CURVE((1.,0.707106781186548,1.,0.707106781186548,1.,0.707106781186548,
1.,0.707106781186548,1.))
REPRESENTATION_ITEM('')
);
#371=(
BOUNDED_CURVE()
B_SPLINE_CURVE(1,(#1186,#1187),.UNSPECIFIED.,.F.,.F.)
B_SPLINE_CURVE_WITH_KNOTS((2,2),(2.21,2.81),.UNSPECIFIED.)
CURVE()
GEOMETRIC_REPRESENTATION_ITEM()
RATIONAL_B_SPLINE_CURVE((1.,1.))
REPRESENTATION_ITEM('')
);
#372=(
BOUNDED_CURVE()
B_SPLINE_CURVE(2,(#1208,#1209,#1210,#1211,#1212,#1213,#1214,#1215,#1216),
 .UNSPECIFIED.,.T.,.F.)
B_SPLINE_CURVE_WITH_KNOTS((3,2,2,2,3),(-7.19424717672063,-5.39568538254047,
-3.59712358836031,-1.79856179418016,0.),.UNSPECIFIED.)
CURVE()
GEOMETRIC_REPRESENTATION_ITEM()
RATIONAL_B_SPLINE_CURVE((1.,0.707106781186548,1.,0.707106781186548,1.,0.707106781186548,
1.,0.707106781186548,1.))
REPRESENTATION_ITEM('')
);
#373=(
BOUNDED_CURVE()
B_SPLINE_CURVE(2,(#1217,#1218,#1219,#1220,#1221,#1222,#1223,#1224,#1225),
 .UNSPECIFIED.,.T.,.F.)
B_SPLINE_CURVE_WITH_KNOTS((3,2,2,2,3),(-7.19424717672063,-5.39568538254047,
-3.59712358836031,-1.79856179418016,0.),.UNSPECIFIED.)
CURVE()
GEOMETRIC_REPRESENTATION_ITEM()
RATIONAL_B_SPLINE_CURVE((1.,0.707106781186548,1.,0.707106781186548,1.,0.707106781186548,
1.,0.707106781186548,1.))
REPRESENTATION_ITEM('')
);
#374=(
BOUNDED_CURVE()
B_SPLINE_CURVE(1,(#1226,#1227),.UNSPECIFIED.,.F.,.F.)
B_SPLINE_CURVE_WITH_KNOTS((2,2),(4.81,5.11),.UNSPECIFIED.)
CURVE()
GEOMETRIC_REPRESENTATION_ITEM()
RATIONAL_B_SPLINE_CURVE((1.,1.))
REPRESENTATION_ITEM('')
);
#375=(
BOUNDED_CURVE()
B_SPLINE_CURVE(2,(#1276,#1277,#1278,#1279,#1280,#1281,#1282,#1283,#1284),
 .UNSPECIFIED.,.T.,.F.)
B_SPLINE_CURVE_WITH_KNOTS((3,2,2,2,3),(0.,0.447665643285754,0.895331286571508,
1.34299692985726,1.79066257314302),.UNSPECIFIED.)
CURVE()
GEOMETRIC_REPRESENTATION_ITEM()
RATIONAL_B_SPLINE_CURVE((1.,0.707106781186548,1.,0.707106781186548,1.,0.707106781186548,
1.,0.707106781186548,1.))
REPRESENTATION_ITEM('')
);
#376=(
BOUNDED_CURVE()
B_SPLINE_CURVE(2,(#1285,#1286,#1287),.UNSPECIFIED.,.F.,.F.)
B_SPLINE_CURVE_WITH_KNOTS((3,3),(0.,0.276440064556369),.UNSPECIFIED.)
CURVE()
GEOMETRIC_REPRESENTATION_ITEM()
RATIONAL_B_SPLINE_CURVE((1.,0.978120268660736,1.))
REPRESENTATION_ITEM('')
);
#377=(
BOUNDED_CURVE()
B_SPLINE_CURVE(2,(#1288,#1289,#1290,#1291,#1292,#1293,#1294,#1295,#1296),
 .UNSPECIFIED.,.T.,.F.)
B_SPLINE_CURVE_WITH_KNOTS((3,2,2,2,3),(-7.19424717672063,-5.39568538254047,
-3.59712358836031,-1.79856179418016,0.),.UNSPECIFIED.)
CURVE()
GEOMETRIC_REPRESENTATION_ITEM()
RATIONAL_B_SPLINE_CURVE((1.,0.707106781186548,1.,0.707106781186548,1.,0.707106781186548,
1.,0.707106781186548,1.))
REPRESENTATION_ITEM('')
);
#378=(
BOUNDED_CURVE()
B_SPLINE_CURVE(2,(#1297,#1298,#1299,#1300,#1301,#1302,#1303,#1304,#1305),
 .UNSPECIFIED.,.T.,.F.)
B_SPLINE_CURVE_WITH_KNOTS((3,2,2,2,3),(-1.79066257314302,-1.34299692985726,
-0.895331286571508,-0.447665643285754,0.),.UNSPECIFIED.)
CURVE()
GEOMETRIC_REPRESENTATION_ITEM()
RATIONAL_B_SPLINE_CURVE((1.,0.707106781186548,1.,0.707106781186548,1.,0.707106781186548,
1.,0.707106781186548,1.))
REPRESENTATION_ITEM('')
);
#379=(
BOUNDED_CURVE()
B_SPLINE_CURVE(1,(#1306,#1307),.UNSPECIFIED.,.F.,.F.)
B_SPLINE_CURVE_WITH_KNOTS((2,2),(5.11,5.36),.UNSPECIFIED.)
CURVE()
GEOMETRIC_REPRESENTATION_ITEM()
RATIONAL_B_SPLINE_CURVE((1.,1.))
REPRESENTATION_ITEM('')
);
#380=(
BOUNDED_CURVE()
B_SPLINE_CURVE(1,(#1356,#1357),.UNSPECIFIED.,.F.,.F.)
B_SPLINE_CURVE_WITH_KNOTS((2,2),(0.86,1.61),.UNSPECIFIED.)
CURVE()
GEOMETRIC_REPRESENTATION_ITEM()
RATIONAL_B_SPLINE_CURVE((1.,1.))
REPRESENTATION_ITEM('')
);
#381=(
BOUNDED_CURVE()
B_SPLINE_CURVE(2,(#1358,#1359,#1360,#1361,#1362,#1363,#1364,#1365,#1366),
 .UNSPECIFIED.,.T.,.F.)
B_SPLINE_CURVE_WITH_KNOTS((3,2,2,2,3),(0.,0.447665643285754,0.895331286571507,
1.34299692985726,1.79066257314301),.UNSPECIFIED.)
CURVE()
GEOMETRIC_REPRESENTATION_ITEM()
RATIONAL_B_SPLINE_CURVE((1.,0.707106781186548,1.,0.707106781186548,1.,0.707106781186548,
1.,0.707106781186548,1.))
REPRESENTATION_ITEM('')
);
#382=(
BOUNDED_CURVE()
B_SPLINE_CURVE(2,(#1367,#1368,#1369),.UNSPECIFIED.,.F.,.F.)
B_SPLINE_CURVE_WITH_KNOTS((3,3),(0.,0.197912320652915),.UNSPECIFIED.)
CURVE()
GEOMETRIC_REPRESENTATION_ITEM()
RATIONAL_B_SPLINE_CURVE((1.,0.989144821822798,1.))
REPRESENTATION_ITEM('')
);
#383=(
BOUNDED_CURVE()
B_SPLINE_CURVE(2,(#1370,#1371,#1372,#1373,#1374,#1375,#1376,#1377,#1378),
 .UNSPECIFIED.,.T.,.F.)
B_SPLINE_CURVE_WITH_KNOTS((3,2,2,2,3),(0.,0.447665643285754,0.895331286571507,
1.34299692985726,1.79066257314301),.UNSPECIFIED.)
CURVE()
GEOMETRIC_REPRESENTATION_ITEM()
RATIONAL_B_SPLINE_CURVE((1.,0.707106781186548,1.,0.707106781186548,1.,0.707106781186548,
1.,0.707106781186548,1.))
REPRESENTATION_ITEM('')
);
#384=(
BOUNDED_CURVE()
B_SPLINE_CURVE(2,(#1379,#1380,#1381,#1382,#1383,#1384,#1385,#1386,#1387),
 .UNSPECIFIED.,.T.,.F.)
B_SPLINE_CURVE_WITH_KNOTS((3,2,2,2,3),(-7.19424717672063,-5.39568538254047,
-3.59712358836031,-1.79856179418016,0.),.UNSPECIFIED.)
CURVE()
GEOMETRIC_REPRESENTATION_ITEM()
RATIONAL_B_SPLINE_CURVE((1.,0.707106781186548,1.,0.707106781186548,1.,0.707106781186548,
1.,0.707106781186548,1.))
REPRESENTATION_ITEM('')
);
#385=VERTEX_POINT('',#754);
#386=VERTEX_POINT('',#755);
#387=VERTEX_POINT('',#756);
#388=VERTEX_POINT('',#757);
#389=VERTEX_POINT('',#758);
#390=VERTEX_POINT('',#759);
#391=VERTEX_POINT('',#760);
#392=VERTEX_POINT('',#761);
#393=VERTEX_POINT('',#875);
#394=VERTEX_POINT('',#876);
#395=VERTEX_POINT('',#925);
#396=VERTEX_POINT('',#926);
#397=VERTEX_POINT('',#966);
#398=VERTEX_POINT('',#967);
#399=VERTEX_POINT('',#1006);
#400=VERTEX_POINT('',#1007);
#401=VERTEX_POINT('',#1046);
#402=VERTEX_POINT('',#1047);
#403=VERTEX_POINT('',#1086);
#404=VERTEX_POINT('',#1087);
#405=VERTEX_POINT('',#1126);
#406=VERTEX_POINT('',#1127);
#407=VERTEX_POINT('',#1166);
#408=VERTEX_POINT('',#1167);
#409=VERTEX_POINT('',#1206);
#410=VERTEX_POINT('',#1207);
#411=VERTEX_POINT('',#1273);
#412=VERTEX_POINT('',#1274);
#413=VERTEX_POINT('',#1275);
#414=VERTEX_POINT('',#1353);
#415=VERTEX_POINT('',#1354);
#416=VERTEX_POINT('',#1355);
#417=(
BOUNDED_SURFACE()
B_SPLINE_SURFACE(3,2,((#466,#467,#468,#469,#470,#471,#472,#473,#474),(#475,
#476,#477,#478,#479,#480,#481,#482,#483),(#484,#485,#486,#487,#488,#489,
#490,#491,#492),(#493,#494,#495,#496,#497,#498,#499,#500,#501)),
 .UNSPECIFIED.,.F.,.F.,.F.)
B_SPLINE_SURFACE_WITH_KNOTS((4,4),(3,2,2,2,3),(0.,3.665),(0.,0.45553093477052,
0.91106186954104,1.36659280431156,1.82212373908208),.UNSPECIFIED.)
GEOMETRIC_REPRESENTATION_ITEM()
RATIONAL_B_SPLINE_SURFACE(((1.,0.707106781186548,1.,0.707106781186548,1.,
0.707106781186548,1.,0.707106781186548,1.),(1.,0.707106781186548,1.,0.707106781186548,
1.,0.707106781186548,1.,0.707106781186548,1.),(1.,0.707106781186547,1.,
0.707106781186547,1.,0.707106781186547,1.,0.707106781186547,1.),(1.,0.707106781186548,
1.,0.707106781186548,1.,0.707106781186548,1.,0.707106781186548,1.)))
REPRESENTATION_ITEM('')
SURFACE()
);
#418=(
BOUNDED_SURFACE()
B_SPLINE_SURFACE(3,2,((#502,#503,#504,#505,#506,#507,#508,#509,#510),(#511,
#512,#513,#514,#515,#516,#517,#518,#519),(#520,#521,#522,#523,#524,#525,
#526,#527,#528),(#529,#530,#531,#532,#533,#534,#535,#536,#537),(#538,#539,
#540,#541,#542,#543,#544,#545,#546),(#547,#548,#549,#550,#551,#552,#553,
#554,#555),(#556,#557,#558,#559,#560,#561,#562,#563,#564)),
 .UNSPECIFIED.,.F.,.F.,.F.)
B_SPLINE_SURFACE_WITH_KNOTS((4,1,1,1,4),(3,2,2,2,3),(0.,0.218635915382903,
0.455530215459671,0.69242451553644,0.911060430919343),(0.,0.45553093477052,
0.91106186954104,1.36659280431156,1.82212373908208),.UNSPECIFIED.)
GEOMETRIC_REPRESENTATION_ITEM()
RATIONAL_B_SPLINE_SURFACE(((1.,0.707106781186548,1.,0.707106781186548,1.,
0.707106781186548,1.,0.707106781186548,1.),(1.,0.707106781186547,1.,0.707106781186547,
1.,0.707106781186547,1.,0.707106781186547,1.),(1.,0.707106781186548,1.,
0.707106781186548,1.,0.707106781186548,1.,0.707106781186548,1.),(1.,0.707106781186548,
1.,0.707106781186548,1.,0.707106781186548,1.,0.707106781186548,1.),(0.999999999999999,
0.707106781186547,0.999999999999999,0.707106781186547,0.999999999999999,
0.707106781186547,0.999999999999999,0.707106781186547,0.999999999999999),
(1.,0.707106781186548,1.,0.707106781186548,1.,0.707106781186548,1.,0.707106781186548,
1.),(1.,0.707106781186548,1.,0.707106781186548,1.,0.707106781186548,1.,
0.707106781186548,1.)))
REPRESENTATION_ITEM('')
SURFACE()
);
#419=(
BOUNDED_SURFACE()
B_SPLINE_SURFACE(3,2,((#565,#566,#567,#568,#569,#570,#571,#572,#573),(#574,
#575,#576,#577,#578,#579,#580,#581,#582),(#583,#584,#585,#586,#587,#588,
#589,#590,#591),(#592,#593,#594,#595,#596,#597,#598,#599,#600)),
 .UNSPECIFIED.,.F.,.F.,.F.)
B_SPLINE_SURFACE_WITH_KNOTS((4,4),(3,2,2,2,3),(0.,7.48),(0.,0.45553093477052,
0.91106186954104,1.36659280431156,1.82212373908208),.UNSPECIFIED.)
GEOMETRIC_REPRESENTATION_ITEM()
RATIONAL_B_SPLINE_SURFACE(((1.,0.707106781186548,1.,0.707106781186548,1.,
0.707106781186548,1.,0.707106781186548,1.),(1.,0.707106781186548,1.,0.707106781186548,
1.,0.707106781186548,1.,0.707106781186548,1.),(1.,0.707106781186547,1.,
0.707106781186547,1.,0.707106781186547,1.,0.707106781186547,1.),(1.,0.707106781186548,
1.,0.707106781186548,1.,0.707106781186548,1.,0.707106781186548,1.)))
REPRESENTATION_ITEM('')
SURFACE()
);
#420=(
BOUNDED_SURFACE()
B_SPLINE_SURFACE(3,2,((#601,#602,#603,#604,#605,#606,#607,#608,#609),(#610,
#611,#612,#613,#614,#615,#616,#617,#618),(#619,#620,#621,#622,#623,#624,
#625,#626,#627),(#628,#629,#630,#631,#632,#633,#634,#635,#636),(#637,#638,
#639,#640,#641,#642,#643,#644,#645),(#646,#647,#648,#649,#650,#651,#652,
#653,#654),(#655,#656,#657,#658,#659,#660,#661,#662,#663)),
 .UNSPECIFIED.,.F.,.F.,.F.)
B_SPLINE_SURFACE_WITH_KNOTS((4,1,1,1,4),(3,2,2,2,3),(0.,0.218635915382903,
0.455530215459671,0.692424515536441,0.911060430919343),(0.,0.45553093477052,
0.91106186954104,1.36659280431156,1.82212373908208),.UNSPECIFIED.)
GEOMETRIC_REPRESENTATION_ITEM()
RATIONAL_B_SPLINE_SURFACE(((1.,0.707106781186548,1.,0.707106781186548,1.,
0.707106781186548,1.,0.707106781186548,1.),(1.,0.707106781186547,1.,0.707106781186547,
1.,0.707106781186547,1.,0.707106781186547,1.),(1.,0.707106781186548,1.,
0.707106781186548,1.,0.707106781186548,1.,0.707106781186548,1.),(1.,0.707106781186547,
1.,0.707106781186547,1.,0.707106781186547,1.,0.707106781186547,1.),(1.,
0.707106781186548,1.,0.707106781186548,1.,0.707106781186548,1.,0.707106781186548,
1.),(0.999999999999999,0.707106781186547,0.999999999999999,0.707106781186547,
0.999999999999999,0.707106781186547,0.999999999999999,0.707106781186547,
0.999999999999999),(1.,0.707106781186548,1.,0.707106781186548,1.,0.707106781186548,
1.,0.707106781186548,1.)))
REPRESENTATION_ITEM('')
SURFACE()
);
#421=(
BOUNDED_SURFACE()
B_SPLINE_SURFACE(3,2,((#664,#665,#666,#667,#668,#669,#670,#671,#672),(#673,
#674,#675,#676,#677,#678,#679,#680,#681),(#682,#683,#684,#685,#686,#687,
#688,#689,#690),(#691,#692,#693,#694,#695,#696,#697,#698,#699)),
 .UNSPECIFIED.,.F.,.F.,.F.)
B_SPLINE_SURFACE_WITH_KNOTS((4,4),(3,2,2,2,3),(0.,3.665),(0.,0.45553093477052,
0.91106186954104,1.36659280431156,1.82212373908208),.UNSPECIFIED.)
GEOMETRIC_REPRESENTATION_ITEM()
RATIONAL_B_SPLINE_SURFACE(((1.,0.707106781186548,1.,0.707106781186548,1.,
0.707106781186548,1.,0.707106781186548,1.),(1.,0.707106781186548,1.,0.707106781186548,
1.,0.707106781186548,1.,0.707106781186548,1.),(1.,0.707106781186547,1.,
0.707106781186547,1.,0.707106781186547,1.,0.707106781186547,1.),(1.,0.707106781186548,
1.,0.707106781186548,1.,0.707106781186548,1.,0.707106781186548,1.)))
REPRESENTATION_ITEM('')
SURFACE()
);
#422=(
BOUNDED_SURFACE()
B_SPLINE_SURFACE(2,2,((#700,#701,#702),(#703,#704,#705),(#706,#707,#708),
(#709,#710,#711),(#712,#713,#714),(#715,#716,#717),(#718,#719,#720),(#721,
#722,#723),(#724,#725,#726)),.UNSPECIFIED.,.T.,.F.,.F.)
B_SPLINE_SURFACE_WITH_KNOTS((3,2,2,2,3),(3,3),(0.,1.5707963267949,3.14159265358979,
4.71238898038469,6.28318530717959),(0.,0.45553093477052),.UNSPECIFIED.)
GEOMETRIC_REPRESENTATION_ITEM()
RATIONAL_B_SPLINE_SURFACE(((1.,0.707106781186548,1.),(0.707106781186548,
0.5,0.707106781186548),(1.,0.707106781186548,1.),(0.707106781186548,0.5,
0.707106781186548),(1.,0.707106781186548,1.),(0.707106781186548,0.5,0.707106781186548),
(1.,0.707106781186548,1.),(0.707106781186548,0.5,0.707106781186548),(1.,
0.707106781186548,1.)))
REPRESENTATION_ITEM('')
SURFACE()
);
#423=(
BOUNDED_SURFACE()
B_SPLINE_SURFACE(2,2,((#727,#728,#729,#730,#731,#732,#733,#734,#735),(#736,
#737,#738,#739,#740,#741,#742,#743,#744),(#745,#746,#747,#748,#749,#750,
#751,#752,#753)),.UNSPECIFIED.,.F.,.F.,.F.)
B_SPLINE_SURFACE_WITH_KNOTS((3,3),(3,2,2,2,3),(0.,0.45553093477052),(0.,
1.5707963267949,3.14159265358979,4.71238898038469,6.28318530717959),
 .UNSPECIFIED.)
GEOMETRIC_REPRESENTATION_ITEM()
RATIONAL_B_SPLINE_SURFACE(((1.,0.707106781186548,1.,0.707106781186548,1.,
0.707106781186548,1.,0.707106781186548,1.),(0.707106781186547,0.5,0.707106781186547,
0.5,0.707106781186547,0.5,0.707106781186547,0.5,0.707106781186547),(1.,
0.707106781186548,1.,0.707106781186548,1.,0.707106781186548,1.,0.707106781186548,
1.)))
REPRESENTATION_ITEM('')
SURFACE()
);
#424=(
BOUNDED_SURFACE()
B_SPLINE_SURFACE(2,2,((#848,#849,#850),(#851,#852,#853),(#854,#855,#856),
(#857,#858,#859),(#860,#861,#862),(#863,#864,#865),(#866,#867,#868),(#869,
#870,#871),(#872,#873,#874)),.UNSPECIFIED.,.T.,.F.,.F.)
B_SPLINE_SURFACE_WITH_KNOTS((3,2,2,2,3),(3,3),(0.,0.447665643285754,0.895331286571508,
1.34299692985726,1.79066257314302),(0.,1.),.UNSPECIFIED.)
GEOMETRIC_REPRESENTATION_ITEM()
RATIONAL_B_SPLINE_SURFACE(((1.,0.707106781186547,1.),(0.707106781186548,
0.5,0.707106781186548),(1.,0.707106781186547,1.),(0.707106781186548,0.5,
0.707106781186548),(1.,0.707106781186547,1.),(0.707106781186548,0.5,0.707106781186548),
(1.,0.707106781186547,1.),(0.707106781186548,0.5,0.707106781186548),(1.,
0.707106781186547,1.)))
REPRESENTATION_ITEM('')
SURFACE()
);
#425=(
BOUNDED_SURFACE()
B_SPLINE_SURFACE(2,2,((#898,#899,#900,#901,#902,#903,#904,#905,#906),(#907,
#908,#909,#910,#911,#912,#913,#914,#915),(#916,#917,#918,#919,#920,#921,
#922,#923,#924)),.UNSPECIFIED.,.F.,.F.,.F.)
B_SPLINE_SURFACE_WITH_KNOTS((3,3),(3,2,2,2,3),(0.,1.),(0.,0.447665643285754,
0.895331286571507,1.34299692985726,1.79066257314301),.UNSPECIFIED.)
GEOMETRIC_REPRESENTATION_ITEM()
RATIONAL_B_SPLINE_SURFACE(((1.,0.707106781186548,1.,0.707106781186548,1.,
0.707106781186548,1.,0.707106781186548,1.),(0.707106781186547,0.5,0.707106781186547,
0.5,0.707106781186547,0.5,0.707106781186547,0.5,0.707106781186547),(1.,
0.707106781186548,1.,0.707106781186548,1.,0.707106781186548,1.,0.707106781186548,
1.)))
REPRESENTATION_ITEM('')
SURFACE()
);
#426=(
BOUNDED_SURFACE()
B_SPLINE_SURFACE(2,1,((#948,#949),(#950,#951),(#952,#953),(#954,#955),(#956,
#957),(#958,#959),(#960,#961),(#962,#963),(#964,#965)),.UNSPECIFIED.,.T.,
 .F.,.F.)
B_SPLINE_SURFACE_WITH_KNOTS((3,2,2,2,3),(2,2),(0.,1.79856179418016,3.59712358836031,
5.39568538254047,7.19424717672063),(0.,6.22),.UNSPECIFIED.)
GEOMETRIC_REPRESENTATION_ITEM()
RATIONAL_B_SPLINE_SURFACE(((1.,1.),(0.707106781186548,0.707106781186548),
(1.,1.),(0.707106781186548,0.707106781186548),(1.,1.),(0.707106781186548,
0.707106781186548),(1.,1.),(0.707106781186548,0.707106781186548),(1.,1.)))
REPRESENTATION_ITEM('')
SURFACE()
);
#427=(
BOUNDED_SURFACE()
B_SPLINE_SURFACE(2,1,((#988,#989),(#990,#991),(#992,#993),(#994,#995),(#996,
#997),(#998,#999),(#1000,#1001),(#1002,#1003),(#1004,#1005)),
 .UNSPECIFIED.,.T.,.F.,.F.)
B_SPLINE_SURFACE_WITH_KNOTS((3,2,2,2,3),(2,2),(0.,1.79856179418016,3.59712358836031,
5.39568538254047,7.19424717672063),(0.,6.22),.UNSPECIFIED.)
GEOMETRIC_REPRESENTATION_ITEM()
RATIONAL_B_SPLINE_SURFACE(((1.,1.),(0.707106781186548,0.707106781186548),
(1.,1.),(0.707106781186548,0.707106781186548),(1.,1.),(0.707106781186548,
0.707106781186548),(1.,1.),(0.707106781186548,0.707106781186548),(1.,1.)))
REPRESENTATION_ITEM('')
SURFACE()
);
#428=(
BOUNDED_SURFACE()
B_SPLINE_SURFACE(2,1,((#1028,#1029),(#1030,#1031),(#1032,#1033),(#1034,
#1035),(#1036,#1037),(#1038,#1039),(#1040,#1041),(#1042,#1043),(#1044,#1045)),
 .UNSPECIFIED.,.T.,.F.,.F.)
B_SPLINE_SURFACE_WITH_KNOTS((3,2,2,2,3),(2,2),(0.,1.79856179418016,3.59712358836031,
5.39568538254047,7.19424717672063),(0.,6.22),.UNSPECIFIED.)
GEOMETRIC_REPRESENTATION_ITEM()
RATIONAL_B_SPLINE_SURFACE(((1.,1.),(0.707106781186548,0.707106781186548),
(1.,1.),(0.707106781186548,0.707106781186548),(1.,1.),(0.707106781186548,
0.707106781186548),(1.,1.),(0.707106781186548,0.707106781186548),(1.,1.)))
REPRESENTATION_ITEM('')
SURFACE()
);
#429=(
BOUNDED_SURFACE()
B_SPLINE_SURFACE(2,1,((#1068,#1069),(#1070,#1071),(#1072,#1073),(#1074,
#1075),(#1076,#1077),(#1078,#1079),(#1080,#1081),(#1082,#1083),(#1084,#1085)),
 .UNSPECIFIED.,.T.,.F.,.F.)
B_SPLINE_SURFACE_WITH_KNOTS((3,2,2,2,3),(2,2),(0.,1.79856179418016,3.59712358836031,
5.39568538254047,7.19424717672063),(0.,6.22),.UNSPECIFIED.)
GEOMETRIC_REPRESENTATION_ITEM()
RATIONAL_B_SPLINE_SURFACE(((1.,1.),(0.707106781186548,0.707106781186548),
(1.,1.),(0.707106781186548,0.707106781186548),(1.,1.),(0.707106781186548,
0.707106781186548),(1.,1.),(0.707106781186548,0.707106781186548),(1.,1.)))
REPRESENTATION_ITEM('')
SURFACE()
);
#430=(
BOUNDED_SURFACE()
B_SPLINE_SURFACE(2,1,((#1108,#1109),(#1110,#1111),(#1112,#1113),(#1114,
#1115),(#1116,#1117),(#1118,#1119),(#1120,#1121),(#1122,#1123),(#1124,#1125)),
 .UNSPECIFIED.,.T.,.F.,.F.)
B_SPLINE_SURFACE_WITH_KNOTS((3,2,2,2,3),(2,2),(0.,1.79856179418016,3.59712358836031,
5.39568538254047,7.19424717672063),(0.,6.22),.UNSPECIFIED.)
GEOMETRIC_REPRESENTATION_ITEM()
RATIONAL_B_SPLINE_SURFACE(((1.,1.),(0.707106781186548,0.707106781186548),
(1.,1.),(0.707106781186548,0.707106781186548),(1.,1.),(0.707106781186548,
0.707106781186548),(1.,1.),(0.707106781186548,0.707106781186548),(1.,1.)))
REPRESENTATION_ITEM('')
SURFACE()
);
#431=(
BOUNDED_SURFACE()
B_SPLINE_SURFACE(2,1,((#1148,#1149),(#1150,#1151),(#1152,#1153),(#1154,
#1155),(#1156,#1157),(#1158,#1159),(#1160,#1161),(#1162,#1163),(#1164,#1165)),
 .UNSPECIFIED.,.T.,.F.,.F.)
B_SPLINE_SURFACE_WITH_KNOTS((3,2,2,2,3),(2,2),(0.,1.79856179418016,3.59712358836031,
5.39568538254047,7.19424717672063),(0.,6.22),.UNSPECIFIED.)
GEOMETRIC_REPRESENTATION_ITEM()
RATIONAL_B_SPLINE_SURFACE(((1.,1.),(0.707106781186548,0.707106781186548),
(1.,1.),(0.707106781186548,0.707106781186548),(1.,1.),(0.707106781186548,
0.707106781186548),(1.,1.),(0.707106781186548,0.707106781186548),(1.,1.)))
REPRESENTATION_ITEM('')
SURFACE()
);
#432=(
BOUNDED_SURFACE()
B_SPLINE_SURFACE(2,1,((#1188,#1189),(#1190,#1191),(#1192,#1193),(#1194,
#1195),(#1196,#1197),(#1198,#1199),(#1200,#1201),(#1202,#1203),(#1204,#1205)),
 .UNSPECIFIED.,.T.,.F.,.F.)
B_SPLINE_SURFACE_WITH_KNOTS((3,2,2,2,3),(2,2),(0.,1.79856179418016,3.59712358836031,
5.39568538254047,7.19424717672063),(0.,6.22),.UNSPECIFIED.)
GEOMETRIC_REPRESENTATION_ITEM()
RATIONAL_B_SPLINE_SURFACE(((1.,1.),(0.707106781186548,0.707106781186548),
(1.,1.),(0.707106781186548,0.707106781186548),(1.,1.),(0.707106781186548,
0.707106781186548),(1.,1.),(0.707106781186548,0.707106781186548),(1.,1.)))
REPRESENTATION_ITEM('')
SURFACE()
);
#433=(
BOUNDED_SURFACE()
B_SPLINE_SURFACE(2,2,((#1228,#1229,#1230),(#1231,#1232,#1233),(#1234,#1235,
#1236),(#1237,#1238,#1239),(#1240,#1241,#1242),(#1243,#1244,#1245),(#1246,
#1247,#1248),(#1249,#1250,#1251),(#1252,#1253,#1254)),.UNSPECIFIED.,.T.,
 .F.,.F.)
B_SPLINE_SURFACE_WITH_KNOTS((3,2,2,2,3),(3,3),(0.,0.447665643285754,0.895331286571508,
1.34299692985726,1.79066257314302),(0.,1.),.UNSPECIFIED.)
GEOMETRIC_REPRESENTATION_ITEM()
RATIONAL_B_SPLINE_SURFACE(((1.,0.707106781186547,1.),(0.707106781186548,
0.5,0.707106781186548),(1.,0.707106781186547,1.),(0.707106781186548,0.5,
0.707106781186548),(1.,0.707106781186547,1.),(0.707106781186548,0.5,0.707106781186548),
(1.,0.707106781186547,1.),(0.707106781186548,0.5,0.707106781186548),(1.,
0.707106781186547,1.)))
REPRESENTATION_ITEM('')
SURFACE()
);
#434=(
BOUNDED_SURFACE()
B_SPLINE_SURFACE(2,1,((#1255,#1256),(#1257,#1258),(#1259,#1260),(#1261,
#1262),(#1263,#1264),(#1265,#1266),(#1267,#1268),(#1269,#1270),(#1271,#1272)),
 .UNSPECIFIED.,.T.,.F.,.F.)
B_SPLINE_SURFACE_WITH_KNOTS((3,2,2,2,3),(2,2),(0.,1.79856179418016,3.59712358836031,
5.39568538254047,7.19424717672063),(0.,6.22),.UNSPECIFIED.)
GEOMETRIC_REPRESENTATION_ITEM()
RATIONAL_B_SPLINE_SURFACE(((1.,1.),(0.707106781186548,0.707106781186548),
(1.,1.),(0.707106781186548,0.707106781186548),(1.,1.),(0.707106781186548,
0.707106781186548),(1.,1.),(0.707106781186548,0.707106781186548),(1.,1.)))
REPRESENTATION_ITEM('')
SURFACE()
);
#435=(
BOUNDED_SURFACE()
B_SPLINE_SURFACE(2,1,((#1308,#1309),(#1310,#1311),(#1312,#1313),(#1314,
#1315),(#1316,#1317),(#1318,#1319),(#1320,#1321),(#1322,#1323),(#1324,#1325)),
 .UNSPECIFIED.,.T.,.F.,.F.)
B_SPLINE_SURFACE_WITH_KNOTS((3,2,2,2,3),(2,2),(0.,1.79856179418016,3.59712358836031,
5.39568538254047,7.19424717672063),(0.,6.22),.UNSPECIFIED.)
GEOMETRIC_REPRESENTATION_ITEM()
RATIONAL_B_SPLINE_SURFACE(((1.,1.),(0.707106781186548,0.707106781186548),
(1.,1.),(0.707106781186548,0.707106781186548),(1.,1.),(0.707106781186548,
0.707106781186548),(1.,1.),(0.707106781186548,0.707106781186548),(1.,1.)))
REPRESENTATION_ITEM('')
SURFACE()
);
#436=(
BOUNDED_SURFACE()
B_SPLINE_SURFACE(2,2,((#1326,#1327,#1328,#1329,#1330,#1331,#1332,#1333,
#1334),(#1335,#1336,#1337,#1338,#1339,#1340,#1341,#1342,#1343),(#1344,#1345,
#1346,#1347,#1348,#1349,#1350,#1351,#1352)),.UNSPECIFIED.,.F.,.F.,.F.)
B_SPLINE_SURFACE_WITH_KNOTS((3,3),(3,2,2,2,3),(0.,1.),(0.,0.447665643285754,
0.895331286571507,1.34299692985726,1.79066257314301),.UNSPECIFIED.)
GEOMETRIC_REPRESENTATION_ITEM()
RATIONAL_B_SPLINE_SURFACE(((1.,0.707106781186548,1.,0.707106781186548,1.,
0.707106781186548,1.,0.707106781186548,1.),(0.707106781186547,0.5,0.707106781186547,
0.5,0.707106781186547,0.5,0.707106781186547,0.5,0.707106781186547),(1.,
0.707106781186548,1.,0.707106781186548,1.,0.707106781186548,1.,0.707106781186548,
1.)))
REPRESENTATION_ITEM('')
SURFACE()
);
#437=SHAPE_DEFINITION_REPRESENTATION(#438,#455);
#438=PRODUCT_DEFINITION_SHAPE('Document','',#440);
#439=PRODUCT_DEFINITION_CONTEXT('3D Mechanical Parts',#444,'design');
#440=PRODUCT_DEFINITION('A','First version',#441,#439);
#441=PRODUCT_DEFINITION_FORMATION_WITH_SPECIFIED_SOURCE('A',
'First version',#446,.MADE.);
#442=PRODUCT_RELATED_PRODUCT_CATEGORY('tool','tool',(#446));
#443=APPLICATION_PROTOCOL_DEFINITION('Draft International Standard',
'automotive_design',1999,#444);
#444=APPLICATION_CONTEXT(
'data for automotive mechanical design processes');
#445=PRODUCT_CONTEXT('3D Mechanical Parts',#444,'mechanical');
#446=PRODUCT('Document','Document','Rhino converted to STEP',(#445));
#447=(
LENGTH_UNIT()
NAMED_UNIT(*)
SI_UNIT(.MILLI.,.METRE.)
);
#448=(
NAMED_UNIT(*)
PLANE_ANGLE_UNIT()
SI_UNIT($,.RADIAN.)
);
#449=DIMENSIONAL_EXPONENTS(0.,0.,0.,0.,0.,0.,0.);
#450=PLANE_ANGLE_MEASURE_WITH_UNIT(PLANE_ANGLE_MEASURE(0.01745329252),#448);
#451=(
CONVERSION_BASED_UNIT('DEGREES',#450)
NAMED_UNIT(#449)
PLANE_ANGLE_UNIT()
);
#452=(
NAMED_UNIT(*)
SI_UNIT($,.STERADIAN.)
SOLID_ANGLE_UNIT()
);
#453=UNCERTAINTY_MEASURE_WITH_UNIT(LENGTH_MEASURE(0.001),#447,
'DISTANCE_ACCURACY_VALUE',
'Maximum model space distance between geometric entities at asserted c
onnectivities');
#454=(
GEOMETRIC_REPRESENTATION_CONTEXT(3)
GLOBAL_UNCERTAINTY_ASSIGNED_CONTEXT((#453))
GLOBAL_UNIT_ASSIGNED_CONTEXT((#452,#451,#447))
REPRESENTATION_CONTEXT('ID1','3D')
);
#455=SHAPE_REPRESENTATION('Document',(#456,#457,#458),#454);
#456=AXIS2_PLACEMENT_3D('',#465,#459,#460);
#457=AXIS2_PLACEMENT_3D('',#1388,#461,#462);
#458=AXIS2_PLACEMENT_3D('',#1389,#463,#464);
#459=DIRECTION('',(0.,0.,1.));
#460=DIRECTION('',(1.,0.,0.));
#461=DIRECTION('',(0.,0.,1.));
#462=DIRECTION('',(1.,0.,0.));
#463=DIRECTION('',(0.,0.,1.));
#464=DIRECTION('',(1.,0.,0.));
#465=CARTESIAN_POINT('',(0.,0.,0.));
#466=CARTESIAN_POINT('',(4.61,0.,-2.81));
#467=CARTESIAN_POINT('',(4.61,-0.29,-2.81));
#468=CARTESIAN_POINT('',(4.32,-0.29,-2.81));
#469=CARTESIAN_POINT('',(4.03,-0.29,-2.81));
#470=CARTESIAN_POINT('',(4.03,-3.55147571752732E-17,-2.81));
#471=CARTESIAN_POINT('',(4.03,0.29,-2.81));
#472=CARTESIAN_POINT('',(4.32,0.29,-2.81));
#473=CARTESIAN_POINT('',(4.61,0.29,-2.81));
#474=CARTESIAN_POINT('',(4.61,0.,-2.81));
#475=CARTESIAN_POINT('',(4.61,0.,-1.58833681874582));
#476=CARTESIAN_POINT('',(4.61,-0.29,-1.58833681874582));
#477=CARTESIAN_POINT('',(4.32,-0.29,-1.58833681874582));
#478=CARTESIAN_POINT('',(4.03,-0.29,-1.58833681874582));
#479=CARTESIAN_POINT('',(4.03,-3.55147571752732E-17,-1.58833681874582));
#480=CARTESIAN_POINT('',(4.03,0.29,-1.58833681874582));
#481=CARTESIAN_POINT('',(4.32,0.29,-1.58833681874582));
#482=CARTESIAN_POINT('',(4.61,0.29,-1.58833681874582));
#483=CARTESIAN_POINT('',(4.61,0.,-1.58833681874582));
#484=CARTESIAN_POINT('',(4.61,0.,-0.366662071248002));
#485=CARTESIAN_POINT('',(4.61,-0.29,-0.366662071248002));
#486=CARTESIAN_POINT('',(4.32,-0.29,-0.366662071248002));
#487=CARTESIAN_POINT('',(4.03,-0.29,-0.366662071248002));
#488=CARTESIAN_POINT('',(4.03,-3.55147571752732E-17,-0.366662071248002));
#489=CARTESIAN_POINT('',(4.03,0.29,-0.366662071248002));
#490=CARTESIAN_POINT('',(4.32,0.29,-0.366662071248002));
#491=CARTESIAN_POINT('',(4.61,0.29,-0.366662071248002));
#492=CARTESIAN_POINT('',(4.61,0.,-0.366662071248002));
#493=CARTESIAN_POINT('',(4.61,0.,0.855));
#494=CARTESIAN_POINT('',(4.61,-0.29,0.855));
#495=CARTESIAN_POINT('',(4.32,-0.29,0.855));
#496=CARTESIAN_POINT('',(4.03,-0.29,0.855));
#497=CARTESIAN_POINT('',(4.03,-3.55147571752732E-17,0.855));
#498=CARTESIAN_POINT('',(4.03,0.29,0.855));
#499=CARTESIAN_POINT('',(4.32,0.29,0.855));
#500=CARTESIAN_POINT('',(4.61,0.29,0.855));
#501=CARTESIAN_POINT('',(4.61,0.,0.855));
#502=CARTESIAN_POINT('',(4.61,0.,0.855));
#503=CARTESIAN_POINT('',(4.61,-0.29,0.855));
#504=CARTESIAN_POINT('',(4.32,-0.29,0.855));
#505=CARTESIAN_POINT('',(4.03,-0.29,0.855));
#506=CARTESIAN_POINT('',(4.03,-3.55147571752732E-17,0.855));
#507=CARTESIAN_POINT('',(4.03,0.29,0.855));
#508=CARTESIAN_POINT('',(4.32,0.29,0.855));
#509=CARTESIAN_POINT('',(4.61,0.29,0.855));
#510=CARTESIAN_POINT('',(4.61,0.,0.855));
#511=CARTESIAN_POINT('',(4.61006716940568,0.,0.964318031349542));
#512=CARTESIAN_POINT('',(4.61006716940568,-0.29,0.964318031349542));
#513=CARTESIAN_POINT('',(4.32004477960379,-0.29,0.927878687566361));
#514=CARTESIAN_POINT('',(4.0300223898019,-0.29,0.89143934378318));
#515=CARTESIAN_POINT('',(4.0300223898019,-3.55147571752732E-17,0.89143934378318));
#516=CARTESIAN_POINT('',(4.0300223898019,0.29,0.89143934378318));
#517=CARTESIAN_POINT('',(4.32004477960379,0.29,0.927878687566361));
#518=CARTESIAN_POINT('',(4.61006716940568,0.29,0.964318031349542));
#519=CARTESIAN_POINT('',(4.61006716940568,0.,0.964318031349542));
#520=CARTESIAN_POINT('',(4.56655073125687,0.,1.19205387991339));
#521=CARTESIAN_POINT('',(4.56655073125687,-0.29,1.19205387991339));
#522=CARTESIAN_POINT('',(4.29103382083791,-0.29,1.07970258660893));
#523=CARTESIAN_POINT('',(4.01551691041895,-0.29,0.967351293304465));
#524=CARTESIAN_POINT('',(4.01551691041895,-3.55147571752733E-17,0.967351293304464));
#525=CARTESIAN_POINT('',(4.01551691041895,0.29,0.967351293304465));
#526=CARTESIAN_POINT('',(4.29103382083791,0.29,1.07970258660893));
#527=CARTESIAN_POINT('',(4.56655073125687,0.29,1.19205387991339));
#528=CARTESIAN_POINT('',(4.56655073125687,0.,1.19205387991339));
#529=CARTESIAN_POINT('',(4.37254418012949,0.,1.48754045927556));
#530=CARTESIAN_POINT('',(4.37254418012949,-0.29,1.48754045927556));
#531=CARTESIAN_POINT('',(4.16169612008633,-0.29,1.27669363951704));
#532=CARTESIAN_POINT('',(3.95084806004317,-0.29,1.06584681975852));
#533=CARTESIAN_POINT('',(3.95084806004316,-3.55147571752732E-17,1.06584681975852));
#534=CARTESIAN_POINT('',(3.95084806004317,0.29,1.06584681975852));
#535=CARTESIAN_POINT('',(4.16169612008633,0.29,1.27669363951704));
#536=CARTESIAN_POINT('',(4.37254418012949,0.29,1.48754045927556));
#537=CARTESIAN_POINT('',(4.37254418012949,0.,1.48754045927556));
#538=CARTESIAN_POINT('',(4.07705097021295,0.,1.68155249441595));
#539=CARTESIAN_POINT('',(4.07705097021295,-0.29,1.68155249441595));
#540=CARTESIAN_POINT('',(3.96470064680863,-0.29,1.4060349962773));
#541=CARTESIAN_POINT('',(3.85235032340432,-0.29,1.13051749813865));
#542=CARTESIAN_POINT('',(3.85235032340432,-3.55147571752732E-17,1.13051749813865));
#543=CARTESIAN_POINT('',(3.85235032340432,0.29,1.13051749813865));
#544=CARTESIAN_POINT('',(3.96470064680863,0.29,1.4060349962773));
#545=CARTESIAN_POINT('',(4.07705097021295,0.29,1.68155249441595));
#546=CARTESIAN_POINT('',(4.07705097021295,0.,1.68155249441595));
#547=CARTESIAN_POINT('',(3.8493193908807,0.,1.725066716137));
#548=CARTESIAN_POINT('',(3.8493193908807,-0.29,1.725066716137));
#549=CARTESIAN_POINT('',(3.81287959392047,-0.29,1.43504447742467));
#550=CARTESIAN_POINT('',(3.77643979696023,-0.29,1.14502223871233));
#551=CARTESIAN_POINT('',(3.77643979696023,-3.55147571752732E-17,1.14502223871233));
#552=CARTESIAN_POINT('',(3.77643979696023,0.29,1.14502223871233));
#553=CARTESIAN_POINT('',(3.81287959392047,0.29,1.43504447742467));
#554=CARTESIAN_POINT('',(3.8493193908807,0.29,1.725066716137));
#555=CARTESIAN_POINT('',(3.8493193908807,0.,1.725066716137));
#556=CARTESIAN_POINT('',(3.74,0.,1.725));
#557=CARTESIAN_POINT('',(3.74,-0.29,1.725));
#558=CARTESIAN_POINT('',(3.74,-0.29,1.435));
#559=CARTESIAN_POINT('',(3.74,-0.29,1.145));
#560=CARTESIAN_POINT('',(3.74,-3.55147571752732E-17,1.145));
#561=CARTESIAN_POINT('',(3.74,0.29,1.145));
#562=CARTESIAN_POINT('',(3.74,0.29,1.435));
#563=CARTESIAN_POINT('',(3.74,0.29,1.725));
#564=CARTESIAN_POINT('',(3.74,0.,1.725));
#565=CARTESIAN_POINT('',(3.74,0.,1.725));
#566=CARTESIAN_POINT('',(3.74,-0.29,1.725));
#567=CARTESIAN_POINT('',(3.74,-0.29,1.435));
#568=CARTESIAN_POINT('',(3.74,-0.29,1.145));
#569=CARTESIAN_POINT('',(3.74,-3.55147571752732E-17,1.145));
#570=CARTESIAN_POINT('',(3.74,0.29,1.145));
#571=CARTESIAN_POINT('',(3.74,0.29,1.435));
#572=CARTESIAN_POINT('',(3.74,0.29,1.725));
#573=CARTESIAN_POINT('',(3.74,0.,1.725));
#574=CARTESIAN_POINT('',(1.24664667114597,0.,1.725));
#575=CARTESIAN_POINT('',(1.24664667114597,-0.29,1.725));
#576=CARTESIAN_POINT('',(1.24664667114597,-0.29,1.435));
#577=CARTESIAN_POINT('',(1.24664667114597,-0.29,1.145));
#578=CARTESIAN_POINT('',(1.24664667114597,-3.55147571752732E-17,1.145));
#579=CARTESIAN_POINT('',(1.24664667114597,0.29,1.145));
#580=CARTESIAN_POINT('',(1.24664667114597,0.29,1.435));
#581=CARTESIAN_POINT('',(1.24664667114597,0.29,1.725));
#582=CARTESIAN_POINT('',(1.24664667114597,0.,1.725));
#583=CARTESIAN_POINT('',(-1.24664043933728,0.,1.725));
#584=CARTESIAN_POINT('',(-1.24664043933728,-0.29,1.725));
#585=CARTESIAN_POINT('',(-1.24664043933728,-0.29,1.435));
#586=CARTESIAN_POINT('',(-1.24664043933728,-0.29,1.145));
#587=CARTESIAN_POINT('',(-1.24664043933728,-3.55147571752732E-17,1.145));
#588=CARTESIAN_POINT('',(-1.24664043933728,0.29,1.145));
#589=CARTESIAN_POINT('',(-1.24664043933728,0.29,1.435));
#590=CARTESIAN_POINT('',(-1.24664043933728,0.29,1.725));
#591=CARTESIAN_POINT('',(-1.24664043933728,0.,1.725));
#592=CARTESIAN_POINT('',(-3.74,0.,1.725));
#593=CARTESIAN_POINT('',(-3.74,-0.29,1.725));
#594=CARTESIAN_POINT('',(-3.74,-0.29,1.435));
#595=CARTESIAN_POINT('',(-3.74,-0.29,1.145));
#596=CARTESIAN_POINT('',(-3.74,-3.55147571752732E-17,1.145));
#597=CARTESIAN_POINT('',(-3.74,0.29,1.145));
#598=CARTESIAN_POINT('',(-3.74,0.29,1.435));
#599=CARTESIAN_POINT('',(-3.74,0.29,1.725));
#600=CARTESIAN_POINT('',(-3.74,0.,1.725));
#601=CARTESIAN_POINT('',(-3.74,0.,1.725));
#602=CARTESIAN_POINT('',(-3.74,-0.29,1.725));
#603=CARTESIAN_POINT('',(-3.74,-0.29,1.435));
#604=CARTESIAN_POINT('',(-3.74,-0.29,1.145));
#605=CARTESIAN_POINT('',(-3.74,-3.55147571752732E-17,1.145));
#606=CARTESIAN_POINT('',(-3.74,0.29,1.145));
#607=CARTESIAN_POINT('',(-3.74,0.29,1.435));
#608=CARTESIAN_POINT('',(-3.74,0.29,1.725));
#609=CARTESIAN_POINT('',(-3.74,0.,1.725));
#610=CARTESIAN_POINT('',(-3.84931803101842,0.,1.72506716967498));
#611=CARTESIAN_POINT('',(-3.84931803101842,-0.29,1.72506716967498));
#612=CARTESIAN_POINT('',(-3.81287868734562,-0.29,1.43504477978332));
#613=CARTESIAN_POINT('',(-3.77643934367281,-0.29,1.14502238989166));
#614=CARTESIAN_POINT('',(-3.77643934367281,-3.55147571752733E-17,1.14502238989166));
#615=CARTESIAN_POINT('',(-3.77643934367281,0.29,1.14502238989166));
#616=CARTESIAN_POINT('',(-3.81287868734562,0.29,1.43504477978332));
#617=CARTESIAN_POINT('',(-3.84931803101842,0.29,1.72506716967498));
#618=CARTESIAN_POINT('',(-3.84931803101842,0.,1.72506716967498));
#619=CARTESIAN_POINT('',(-4.07705388448269,0.,1.68155072976799));
#620=CARTESIAN_POINT('',(-4.07705388448269,-0.29,1.68155072976799));
#621=CARTESIAN_POINT('',(-3.96470258965513,-0.29,1.40603381984533));
#622=CARTESIAN_POINT('',(-3.85235129482756,-0.29,1.13051690992266));
#623=CARTESIAN_POINT('',(-3.85235129482756,-3.55147571752732E-17,1.13051690992266));
#624=CARTESIAN_POINT('',(-3.85235129482756,0.29,1.13051690992266));
#625=CARTESIAN_POINT('',(-3.96470258965513,0.29,1.40603381984533));
#626=CARTESIAN_POINT('',(-4.07705388448269,0.29,1.68155072976799));
#627=CARTESIAN_POINT('',(-4.07705388448269,0.,1.68155072976799));
#628=CARTESIAN_POINT('',(-4.372540461972,0.,1.48754417748858));
#629=CARTESIAN_POINT('',(-4.372540461972,-0.29,1.48754417748858));
#630=CARTESIAN_POINT('',(-4.16169364131467,-0.29,1.27669611832572));
#631=CARTESIAN_POINT('',(-3.95084682065733,-0.29,1.06584805916286));
#632=CARTESIAN_POINT('',(-3.95084682065733,-3.55147571752733E-17,1.06584805916286));
#633=CARTESIAN_POINT('',(-3.95084682065733,0.29,1.06584805916286));
#634=CARTESIAN_POINT('',(-4.16169364131467,0.29,1.27669611832572));
#635=CARTESIAN_POINT('',(-4.372540461972,0.29,1.48754417748858));
#636=CARTESIAN_POINT('',(-4.372540461972,0.,1.48754417748858));
#637=CARTESIAN_POINT('',(-4.56655249643921,0.,1.19205096489577));
#638=CARTESIAN_POINT('',(-4.56655249643921,-0.29,1.19205096489577));
#639=CARTESIAN_POINT('',(-4.29103499762614,-0.29,1.07970064326384));
#640=CARTESIAN_POINT('',(-4.01551749881307,-0.29,0.96735032163192));
#641=CARTESIAN_POINT('',(-4.01551749881307,-3.55147571752732E-17,0.967350321631919));
#642=CARTESIAN_POINT('',(-4.01551749881307,0.29,0.96735032163192));
#643=CARTESIAN_POINT('',(-4.29103499762614,0.29,1.07970064326384));
#644=CARTESIAN_POINT('',(-4.56655249643921,0.29,1.19205096489577));
#645=CARTESIAN_POINT('',(-4.56655249643921,0.,1.19205096489577));
#646=CARTESIAN_POINT('',(-4.61006671598717,0.,0.964319389478716));
#647=CARTESIAN_POINT('',(-4.61006671598717,-0.29,0.964319389478715));
#648=CARTESIAN_POINT('',(-4.32004447732478,-0.29,0.927879592985812));
#649=CARTESIAN_POINT('',(-4.03002223866239,-0.29,0.891439796492908));
#650=CARTESIAN_POINT('',(-4.03002223866239,-3.55147571752732E-17,0.891439796492908));
#651=CARTESIAN_POINT('',(-4.03002223866239,0.29,0.891439796492908));
#652=CARTESIAN_POINT('',(-4.32004447732478,0.29,0.927879592985812));
#653=CARTESIAN_POINT('',(-4.61006671598717,0.29,0.964319389478715));
#654=CARTESIAN_POINT('',(-4.61006671598717,0.,0.964319389478716));
#655=CARTESIAN_POINT('',(-4.61,0.,0.855));
#656=CARTESIAN_POINT('',(-4.61,-0.29,0.855));
#657=CARTESIAN_POINT('',(-4.32,-0.29,0.855));
#658=CARTESIAN_POINT('',(-4.03,-0.29,0.855));
#659=CARTESIAN_POINT('',(-4.03,-3.55147571752732E-17,0.855));
#660=CARTESIAN_POINT('',(-4.03,0.29,0.855));
#661=CARTESIAN_POINT('',(-4.32,0.29,0.855));
#662=CARTESIAN_POINT('',(-4.61,0.29,0.855));
#663=CARTESIAN_POINT('',(-4.61,0.,0.855));
#664=CARTESIAN_POINT('',(-4.61,0.,0.855));
#665=CARTESIAN_POINT('',(-4.61,-0.29,0.855));
#666=CARTESIAN_POINT('',(-4.32,-0.29,0.855));
#667=CARTESIAN_POINT('',(-4.03,-0.29,0.855));
#668=CARTESIAN_POINT('',(-4.03,-3.55147571752732E-17,0.855));
#669=CARTESIAN_POINT('',(-4.03,0.29,0.855));
#670=CARTESIAN_POINT('',(-4.32,0.29,0.855));
#671=CARTESIAN_POINT('',(-4.61,0.29,0.855));
#672=CARTESIAN_POINT('',(-4.61,0.,0.855));
#673=CARTESIAN_POINT('',(-4.61,0.,-0.366658157234344));
#674=CARTESIAN_POINT('',(-4.61,-0.29,-0.366658157234346));
#675=CARTESIAN_POINT('',(-4.32,-0.29,-0.366658157234344));
#676=CARTESIAN_POINT('',(-4.03,-0.29,-0.366658157234343));
#677=CARTESIAN_POINT('',(-4.03,-3.55147571752732E-17,-0.366658157234344));
#678=CARTESIAN_POINT('',(-4.03,0.29,-0.366658157234343));
#679=CARTESIAN_POINT('',(-4.32,0.29,-0.366658157234344));
#680=CARTESIAN_POINT('',(-4.61,0.29,-0.366658157234346));
#681=CARTESIAN_POINT('',(-4.61,0.,-0.366658157234344));
#682=CARTESIAN_POINT('',(-4.61,0.,-1.58833631280673));
#683=CARTESIAN_POINT('',(-4.61,-0.29,-1.58833631280673));
#684=CARTESIAN_POINT('',(-4.32,-0.29,-1.58833631280673));
#685=CARTESIAN_POINT('',(-4.03,-0.29,-1.58833631280674));
#686=CARTESIAN_POINT('',(-4.03,-3.55147571752732E-17,-1.58833631280673));
#687=CARTESIAN_POINT('',(-4.03,0.29,-1.58833631280674));
#688=CARTESIAN_POINT('',(-4.32,0.29,-1.58833631280673));
#689=CARTESIAN_POINT('',(-4.61,0.29,-1.58833631280673));
#690=CARTESIAN_POINT('',(-4.61,0.,-1.58833631280673));
#691=CARTESIAN_POINT('',(-4.61,0.,-2.81));
#692=CARTESIAN_POINT('',(-4.61,-0.29,-2.81));
#693=CARTESIAN_POINT('',(-4.32,-0.29,-2.81));
#694=CARTESIAN_POINT('',(-4.03,-0.29,-2.81));
#695=CARTESIAN_POINT('',(-4.03,-3.55147571752732E-17,-2.81));
#696=CARTESIAN_POINT('',(-4.03,0.29,-2.81));
#697=CARTESIAN_POINT('',(-4.32,0.29,-2.81));
#698=CARTESIAN_POINT('',(-4.61,0.29,-2.81));
#699=CARTESIAN_POINT('',(-4.61,0.,-2.81));
#700=CARTESIAN_POINT('',(4.32,0.,-3.1));
#701=CARTESIAN_POINT('',(4.61,0.,-3.1));
#702=CARTESIAN_POINT('',(4.61,0.,-2.81));
#703=CARTESIAN_POINT('',(4.32,0.,-3.1));
#704=CARTESIAN_POINT('',(4.61,0.289999999999999,-3.1));
#705=CARTESIAN_POINT('',(4.61,0.29,-2.81));
#706=CARTESIAN_POINT('',(4.32,0.,-3.1));
#707=CARTESIAN_POINT('',(4.32,0.289999999999999,-3.1));
#708=CARTESIAN_POINT('',(4.32,0.29,-2.81));
#709=CARTESIAN_POINT('',(4.32,0.,-3.1));
#710=CARTESIAN_POINT('',(4.03,0.289999999999999,-3.1));
#711=CARTESIAN_POINT('',(4.03,0.29,-2.81));
#712=CARTESIAN_POINT('',(4.32,0.,-3.1));
#713=CARTESIAN_POINT('',(4.03,3.55147571752731E-17,-3.1));
#714=CARTESIAN_POINT('',(4.03,3.55147571752732E-17,-2.81));
#715=CARTESIAN_POINT('',(4.32,0.,-3.1));
#716=CARTESIAN_POINT('',(4.03,-0.289999999999999,-3.1));
#717=CARTESIAN_POINT('',(4.03,-0.29,-2.81));
#718=CARTESIAN_POINT('',(4.32,0.,-3.1));
#719=CARTESIAN_POINT('',(4.32,-0.289999999999999,-3.1));
#720=CARTESIAN_POINT('',(4.32,-0.29,-2.81));
#721=CARTESIAN_POINT('',(4.32,0.,-3.1));
#722=CARTESIAN_POINT('',(4.61,-0.289999999999999,-3.1));
#723=CARTESIAN_POINT('',(4.61,-0.29,-2.81));
#724=CARTESIAN_POINT('',(4.32,0.,-3.1));
#725=CARTESIAN_POINT('',(4.61,0.,-3.1));
#726=CARTESIAN_POINT('',(4.61,0.,-2.81));
#727=CARTESIAN_POINT('',(-4.32,0.,-3.1));
#728=CARTESIAN_POINT('',(-4.32,0.,-3.1));
#729=CARTESIAN_POINT('',(-4.32,0.,-3.1));
#730=CARTESIAN_POINT('',(-4.32,0.,-3.1));
#731=CARTESIAN_POINT('',(-4.32,0.,-3.1));
#732=CARTESIAN_POINT('',(-4.32,0.,-3.1));
#733=CARTESIAN_POINT('',(-4.32,0.,-3.1));
#734=CARTESIAN_POINT('',(-4.32,0.,-3.1));
#735=CARTESIAN_POINT('',(-4.32,0.,-3.1));
#736=CARTESIAN_POINT('',(-4.61,0.,-3.1));
#737=CARTESIAN_POINT('',(-4.61,0.29,-3.1));
#738=CARTESIAN_POINT('',(-4.32,0.29,-3.1));
#739=CARTESIAN_POINT('',(-4.03,0.29,-3.1));
#740=CARTESIAN_POINT('',(-4.03,3.55147571752732E-17,-3.1));
#741=CARTESIAN_POINT('',(-4.03,-0.29,-3.1));
#742=CARTESIAN_POINT('',(-4.32,-0.29,-3.1));
#743=CARTESIAN_POINT('',(-4.61,-0.29,-3.1));
#744=CARTESIAN_POINT('',(-4.61,0.,-3.1));
#745=CARTESIAN_POINT('',(-4.61,0.,-2.81));
#746=CARTESIAN_POINT('',(-4.61,0.29,-2.81));
#747=CARTESIAN_POINT('',(-4.32,0.29,-2.81));
#748=CARTESIAN_POINT('',(-4.03,0.29,-2.81));
#749=CARTESIAN_POINT('',(-4.03,3.55147571752732E-17,-2.81));
#750=CARTESIAN_POINT('',(-4.03,-0.29,-2.81));
#751=CARTESIAN_POINT('',(-4.32,-0.29,-2.81));
#752=CARTESIAN_POINT('',(-4.61,-0.29,-2.81));
#753=CARTESIAN_POINT('',(-4.61,0.,-2.81));
#754=CARTESIAN_POINT('',(4.61,-3.55147571752732E-17,-2.81));
#755=CARTESIAN_POINT('',(4.61,0.,0.855));
#756=CARTESIAN_POINT('',(3.74,0.,1.725));
#757=CARTESIAN_POINT('',(-3.74,0.,1.725));
#758=CARTESIAN_POINT('',(-4.61,0.,0.855));
#759=CARTESIAN_POINT('',(-4.61,-3.55147571752732E-17,-2.81));
#760=CARTESIAN_POINT('',(4.32,0.,-3.1));
#761=CARTESIAN_POINT('',(-4.32,0.,-3.1));
#762=CARTESIAN_POINT('',(4.61,-3.55147571752732E-17,-2.81));
#763=CARTESIAN_POINT('',(4.61,-2.36765385580252E-17,-1.58833681874582));
#764=CARTESIAN_POINT('',(4.61,-1.18382078610134E-17,-0.366662071248001));
#765=CARTESIAN_POINT('',(4.61,0.,0.855));
#766=CARTESIAN_POINT('',(4.61,0.,0.855));
#767=CARTESIAN_POINT('',(4.61,-0.29,0.855));
#768=CARTESIAN_POINT('',(4.32,-0.29,0.855));
#769=CARTESIAN_POINT('',(4.03,-0.29,0.855));
#770=CARTESIAN_POINT('',(4.03,-3.55147571752732E-17,0.855));
#771=CARTESIAN_POINT('',(4.03,0.29,0.855));
#772=CARTESIAN_POINT('',(4.32,0.29,0.855));
#773=CARTESIAN_POINT('',(4.61,0.29,0.855));
#774=CARTESIAN_POINT('',(4.61,0.,0.855));
#775=CARTESIAN_POINT('',(4.61,0.,0.855));
#776=CARTESIAN_POINT('',(4.61006716940568,0.,0.964318031349542));
#777=CARTESIAN_POINT('',(4.56655073125687,0.,1.19205387991339));
#778=CARTESIAN_POINT('',(4.37254418012949,0.,1.48754045927556));
#779=CARTESIAN_POINT('',(4.07705097021295,0.,1.68155249441595));
#780=CARTESIAN_POINT('',(3.8493193908807,0.,1.725066716137));
#781=CARTESIAN_POINT('',(3.74,0.,1.725));
#782=CARTESIAN_POINT('',(3.74,0.,1.725));
#783=CARTESIAN_POINT('',(3.74,-0.29,1.725));
#784=CARTESIAN_POINT('',(3.74,-0.29,1.435));
#785=CARTESIAN_POINT('',(3.74,-0.29,1.145));
#786=CARTESIAN_POINT('',(3.74,-3.55147571752732E-17,1.145));
#787=CARTESIAN_POINT('',(3.74,0.29,1.145));
#788=CARTESIAN_POINT('',(3.74,0.29,1.435));
#789=CARTESIAN_POINT('',(3.74,0.29,1.725));
#790=CARTESIAN_POINT('',(3.74,0.,1.725));
#791=CARTESIAN_POINT('',(3.74,0.,1.725));
#792=CARTESIAN_POINT('',(1.24664667114597,0.,1.725));
#793=CARTESIAN_POINT('',(-1.24664043933728,0.,1.725));
#794=CARTESIAN_POINT('',(-3.74,0.,1.725));
#795=CARTESIAN_POINT('',(-3.74,0.,1.725));
#796=CARTESIAN_POINT('',(-3.74,-0.29,1.725));
#797=CARTESIAN_POINT('',(-3.74,-0.29,1.435));
#798=CARTESIAN_POINT('',(-3.74,-0.29,1.145));
#799=CARTESIAN_POINT('',(-3.74,-3.55147571752732E-17,1.145));
#800=CARTESIAN_POINT('',(-3.74,0.29,1.145));
#801=CARTESIAN_POINT('',(-3.74,0.29,1.435));
#802=CARTESIAN_POINT('',(-3.74,0.29,1.725));
#803=CARTESIAN_POINT('',(-3.74,0.,1.725));
#804=CARTESIAN_POINT('',(-3.74,0.,1.725));
#805=CARTESIAN_POINT('',(-3.84931803101842,0.,1.72506716967498));
#806=CARTESIAN_POINT('',(-4.07705388448269,0.,1.68155072976799));
#807=CARTESIAN_POINT('',(-4.372540461972,0.,1.48754417748858));
#808=CARTESIAN_POINT('',(-4.56655249643921,0.,1.19205096489577));
#809=CARTESIAN_POINT('',(-4.61006671598717,0.,0.964319389478716));
#810=CARTESIAN_POINT('',(-4.61,0.,0.855));
#811=CARTESIAN_POINT('',(-4.61,0.,0.855));
#812=CARTESIAN_POINT('',(-4.61,-0.29,0.855));
#813=CARTESIAN_POINT('',(-4.32,-0.29,0.855));
#814=CARTESIAN_POINT('',(-4.03,-0.29,0.855));
#815=CARTESIAN_POINT('',(-4.03,-3.55147571752732E-17,0.855));
#816=CARTESIAN_POINT('',(-4.03,0.29,0.855));
#817=CARTESIAN_POINT('',(-4.32,0.29,0.855));
#818=CARTESIAN_POINT('',(-4.61,0.29,0.855));
#819=CARTESIAN_POINT('',(-4.61,0.,0.855));
#820=CARTESIAN_POINT('',(-4.61,0.,0.855));
#821=CARTESIAN_POINT('',(-4.61,-1.18381699332523E-17,-0.366658157234344));
#822=CARTESIAN_POINT('',(-4.61,-2.36765336553502E-17,-1.58833631280673));
#823=CARTESIAN_POINT('',(-4.61,-3.55147571752732E-17,-2.81));
#824=CARTESIAN_POINT('',(4.32,0.,-3.1));
#825=CARTESIAN_POINT('',(4.61,0.,-3.1));
#826=CARTESIAN_POINT('',(4.61,0.,-2.81));
#827=CARTESIAN_POINT('',(4.61,0.,-2.81));
#828=CARTESIAN_POINT('',(4.61,0.29,-2.81));
#829=CARTESIAN_POINT('',(4.32,0.29,-2.81));
#830=CARTESIAN_POINT('',(4.03,0.29,-2.81));
#831=CARTESIAN_POINT('',(4.03,3.55147571752732E-17,-2.81));
#832=CARTESIAN_POINT('',(4.03,-0.29,-2.81));
#833=CARTESIAN_POINT('',(4.32,-0.29,-2.81));
#834=CARTESIAN_POINT('',(4.61,-0.29,-2.81));
#835=CARTESIAN_POINT('',(4.61,0.,-2.81));
#836=CARTESIAN_POINT('',(-4.32,0.,-3.1));
#837=CARTESIAN_POINT('',(-4.61,0.,-3.1));
#838=CARTESIAN_POINT('',(-4.61,0.,-2.81));
#839=CARTESIAN_POINT('',(-4.61,0.,-2.81));
#840=CARTESIAN_POINT('',(-4.61,-0.29,-2.81));
#841=CARTESIAN_POINT('',(-4.32,-0.29,-2.81));
#842=CARTESIAN_POINT('',(-4.03,-0.29,-2.81));
#843=CARTESIAN_POINT('',(-4.03,3.55147571752732E-17,-2.81));
#844=CARTESIAN_POINT('',(-4.03,0.29,-2.81));
#845=CARTESIAN_POINT('',(-4.32,0.29,-2.81));
#846=CARTESIAN_POINT('',(-4.61,0.29,-2.81));
#847=CARTESIAN_POINT('',(-4.61,0.,-2.81));
#848=CARTESIAN_POINT('',(-2.25,1.145,1.435));
#849=CARTESIAN_POINT('',(-3.11,1.145,1.435));
#850=CARTESIAN_POINT('',(-3.11,0.285000000000001,1.435));
#851=CARTESIAN_POINT('',(-2.25,1.145,0.29));
#852=CARTESIAN_POINT('',(-3.11,1.145,0.289999999999999));
#853=CARTESIAN_POINT('',(-3.11,0.285000000000001,1.15));
#854=CARTESIAN_POINT('',(-2.25,5.14200239101249E-16,0.29));
#855=CARTESIAN_POINT('',(-3.11,2.92155634176217E-16,0.289999999999999));
#856=CARTESIAN_POINT('',(-3.11,1.74512168878498E-17,1.15));
#857=CARTESIAN_POINT('',(-2.25,-1.145,0.29));
#858=CARTESIAN_POINT('',(-3.11,-1.145,0.289999999999999));
#859=CARTESIAN_POINT('',(-3.11,-0.285000000000001,1.15));
#860=CARTESIAN_POINT('',(-2.25,-1.145,1.435));
#861=CARTESIAN_POINT('',(-3.11,-1.145,1.435));
#862=CARTESIAN_POINT('',(-3.11,-0.285000000000001,1.435));
#863=CARTESIAN_POINT('',(-2.25,-1.145,2.58));
#864=CARTESIAN_POINT('',(-3.11,-1.145,2.58));
#865=CARTESIAN_POINT('',(-3.11,-0.285000000000001,1.72));
#866=CARTESIAN_POINT('',(-2.25,-6.54422297603621E-16,2.58));
#867=CARTESIAN_POINT('',(-3.11,-4.32377692678589E-16,2.58));
#868=CARTESIAN_POINT('',(-3.11,-5.23536506635495E-17,1.72));
#869=CARTESIAN_POINT('',(-2.25,1.145,2.58));
#870=CARTESIAN_POINT('',(-3.11,1.145,2.58));
#871=CARTESIAN_POINT('',(-3.11,0.285000000000001,1.72));
#872=CARTESIAN_POINT('',(-2.25,1.145,1.435));
#873=CARTESIAN_POINT('',(-3.11,1.145,1.435));
#874=CARTESIAN_POINT('',(-3.11,0.285000000000001,1.435));
#875=CARTESIAN_POINT('',(-2.6,1.07055712713971,1.435));
#876=CARTESIAN_POINT('',(-3.10998546499345,0.29,1.435));
#877=CARTESIAN_POINT('',(-2.6,1.07055712713971,1.435));
#878=CARTESIAN_POINT('',(-2.6,1.07055712713971,2.50555712713971));
#879=CARTESIAN_POINT('',(-2.6,-5.87073413345776E-16,2.50555712713971));
#880=CARTESIAN_POINT('',(-2.6,-1.07055712713971,2.50555712713971));
#881=CARTESIAN_POINT('',(-2.6,-1.07055712713971,1.435));
#882=CARTESIAN_POINT('',(-2.6,-1.07055712713971,0.364442872860286));
#883=CARTESIAN_POINT('',(-2.6,4.55967977440172E-16,0.364442872860286));
#884=CARTESIAN_POINT('',(-2.6,1.07055712713971,0.364442872860287));
#885=CARTESIAN_POINT('',(-2.6,1.07055712713971,1.435));
#886=CARTESIAN_POINT('',(-2.6,1.07055712713971,1.435));
#887=CARTESIAN_POINT('',(-3.10675998357354,0.844773427745953,1.435));
#888=CARTESIAN_POINT('',(-3.10998546499345,0.29,1.435));
#889=CARTESIAN_POINT('',(-3.10998546499345,0.29,1.435));
#890=CARTESIAN_POINT('',(-3.10998546499345,0.29,1.725));
#891=CARTESIAN_POINT('',(-3.10998546499345,2.60971358835686E-17,1.725));
#892=CARTESIAN_POINT('',(-3.10998546499345,-0.29,1.725));
#893=CARTESIAN_POINT('',(-3.10998546499345,-0.29,1.435));
#894=CARTESIAN_POINT('',(-3.10998546499345,-0.29,1.145));
#895=CARTESIAN_POINT('',(-3.10998546499345,-6.16118930588419E-17,1.145));
#896=CARTESIAN_POINT('',(-3.10998546499345,0.29,1.145));
#897=CARTESIAN_POINT('',(-3.10998546499345,0.29,1.435));
#898=CARTESIAN_POINT('',(2.25,1.145,1.435));
#899=CARTESIAN_POINT('',(2.25,1.145,0.29));
#900=CARTESIAN_POINT('',(2.25,7.0111029251186E-17,0.29));
#901=CARTESIAN_POINT('',(2.25,-1.145,0.29));
#902=CARTESIAN_POINT('',(2.25,-1.145,1.435));
#903=CARTESIAN_POINT('',(2.25,-1.145,2.58));
#904=CARTESIAN_POINT('',(2.25,-2.10333087753558E-16,2.58));
#905=CARTESIAN_POINT('',(2.25,1.145,2.58));
#906=CARTESIAN_POINT('',(2.25,1.145,1.435));
#907=CARTESIAN_POINT('',(3.11,1.145,1.435));
#908=CARTESIAN_POINT('',(3.11,1.145,0.289999999999999));
#909=CARTESIAN_POINT('',(3.11,7.0111029251186E-17,0.289999999999999));
#910=CARTESIAN_POINT('',(3.11,-1.145,0.289999999999999));
#911=CARTESIAN_POINT('',(3.11,-1.145,1.435));
#912=CARTESIAN_POINT('',(3.11,-1.145,2.58));
#913=CARTESIAN_POINT('',(3.11,-2.10333087753558E-16,2.58));
#914=CARTESIAN_POINT('',(3.11,1.145,2.58));
#915=CARTESIAN_POINT('',(3.11,1.145,1.435));
#916=CARTESIAN_POINT('',(3.11,0.285000000000001,1.435));
#917=CARTESIAN_POINT('',(3.11,0.285000000000001,1.15));
#918=CARTESIAN_POINT('',(3.11,1.74512168878498E-17,1.15));
#919=CARTESIAN_POINT('',(3.11,-0.285000000000001,1.15));
#920=CARTESIAN_POINT('',(3.11,-0.285000000000001,1.435));
#921=CARTESIAN_POINT('',(3.11,-0.285000000000001,1.72));
#922=CARTESIAN_POINT('',(3.11,-5.23536506635495E-17,1.72));
#923=CARTESIAN_POINT('',(3.11,0.285000000000001,1.72));
#924=CARTESIAN_POINT('',(3.11,0.285000000000001,1.435));
#925=CARTESIAN_POINT('',(2.5,1.10786086308683,1.435));
#926=CARTESIAN_POINT('',(3.10998546499345,0.29,1.435));
#927=CARTESIAN_POINT('',(2.5,1.10786086308683,1.435));
#928=CARTESIAN_POINT('',(2.5,1.10786086308683,0.327139136913172));
#929=CARTESIAN_POINT('',(2.5,1.34305130850554E-16,0.327139136913172));
#930=CARTESIAN_POINT('',(2.5,-1.10786086308683,0.327139136913172));
#931=CARTESIAN_POINT('',(2.5,-1.10786086308683,1.435));
#932=CARTESIAN_POINT('',(2.5,-1.10786086308683,2.54286086308683));
#933=CARTESIAN_POINT('',(2.5,-2.69978956838545E-16,2.54286086308683));
#934=CARTESIAN_POINT('',(2.5,1.10786086308683,2.54286086308683));
#935=CARTESIAN_POINT('',(2.5,1.10786086308683,1.435));
#936=CARTESIAN_POINT('',(2.5,1.10786086308683,1.435));
#937=CARTESIAN_POINT('',(3.10630135880972,0.923655553900267,1.435));
#938=CARTESIAN_POINT('',(3.10998546499345,0.29,1.435));
#939=CARTESIAN_POINT('',(3.10998546499345,0.29,1.435));
#940=CARTESIAN_POINT('',(3.10998546499345,0.29,1.725));
#941=CARTESIAN_POINT('',(3.10998546499345,-9.87703359704586E-18,1.725));
#942=CARTESIAN_POINT('',(3.10998546499345,-0.29,1.725));
#943=CARTESIAN_POINT('',(3.10998546499345,-0.29,1.435));
#944=CARTESIAN_POINT('',(3.10998546499345,-0.29,1.145));
#945=CARTESIAN_POINT('',(3.10998546499345,-2.56377235782274E-17,1.145));
#946=CARTESIAN_POINT('',(3.10998546499345,0.29,1.145));
#947=CARTESIAN_POINT('',(3.10998546499345,0.29,1.435));
#948=CARTESIAN_POINT('',(3.11,1.145,1.435));
#949=CARTESIAN_POINT('',(-3.11,1.145,1.435));
#950=CARTESIAN_POINT('',(3.11,1.145,0.29));
#951=CARTESIAN_POINT('',(-3.11,1.145,0.29));
#952=CARTESIAN_POINT('',(3.11,7.0111029251186E-17,0.29));
#953=CARTESIAN_POINT('',(-3.11,7.0111029251186E-17,0.29));
#954=CARTESIAN_POINT('',(3.11,-1.145,0.29));
#955=CARTESIAN_POINT('',(-3.11,-1.145,0.29));
#956=CARTESIAN_POINT('',(3.11,-1.145,1.435));
#957=CARTESIAN_POINT('',(-3.11,-1.145,1.435));
#958=CARTESIAN_POINT('',(3.11,-1.145,2.58));
#959=CARTESIAN_POINT('',(-3.11,-1.145,2.58));
#960=CARTESIAN_POINT('',(3.11,-2.10333087753558E-16,2.58));
#961=CARTESIAN_POINT('',(-3.11,-2.10333087753558E-16,2.58));
#962=CARTESIAN_POINT('',(3.11,1.145,2.58));
#963=CARTESIAN_POINT('',(-3.11,1.145,2.58));
#964=CARTESIAN_POINT('',(3.11,1.145,1.435));
#965=CARTESIAN_POINT('',(-3.11,1.145,1.435));
#966=CARTESIAN_POINT('',(-1.1,1.145,1.435));
#967=CARTESIAN_POINT('',(-0.7,1.145,1.435));
#968=CARTESIAN_POINT('',(-1.1,1.145,1.435));
#969=CARTESIAN_POINT('',(-1.1,1.145,2.58));
#970=CARTESIAN_POINT('',(-1.1,-2.10333087753558E-16,2.58));
#971=CARTESIAN_POINT('',(-1.1,-1.145,2.58));
#972=CARTESIAN_POINT('',(-1.1,-1.145,1.435));
#973=CARTESIAN_POINT('',(-1.1,-1.145,0.29));
#974=CARTESIAN_POINT('',(-1.1,7.0111029251186E-17,0.29));
#975=CARTESIAN_POINT('',(-1.1,1.145,0.29));
#976=CARTESIAN_POINT('',(-1.1,1.145,1.435));
#977=CARTESIAN_POINT('',(-0.7,1.145,1.435));
#978=CARTESIAN_POINT('',(-0.7,1.145,2.58));
#979=CARTESIAN_POINT('',(-0.7,-2.10333087753558E-16,2.58));
#980=CARTESIAN_POINT('',(-0.7,-1.145,2.58));
#981=CARTESIAN_POINT('',(-0.7,-1.145,1.435));
#982=CARTESIAN_POINT('',(-0.7,-1.145,0.29));
#983=CARTESIAN_POINT('',(-0.7,7.0111029251186E-17,0.29));
#984=CARTESIAN_POINT('',(-0.7,1.145,0.29));
#985=CARTESIAN_POINT('',(-0.7,1.145,1.435));
#986=CARTESIAN_POINT('',(-0.7,1.145,1.435));
#987=CARTESIAN_POINT('',(-1.1,1.145,1.435));
#988=CARTESIAN_POINT('',(3.11,1.145,1.435));
#989=CARTESIAN_POINT('',(-3.11,1.145,1.435));
#990=CARTESIAN_POINT('',(3.11,1.145,0.29));
#991=CARTESIAN_POINT('',(-3.11,1.145,0.29));
#992=CARTESIAN_POINT('',(3.11,7.0111029251186E-17,0.29));
#993=CARTESIAN_POINT('',(-3.11,7.0111029251186E-17,0.29));
#994=CARTESIAN_POINT('',(3.11,-1.145,0.29));
#995=CARTESIAN_POINT('',(-3.11,-1.145,0.29));
#996=CARTESIAN_POINT('',(3.11,-1.145,1.435));
#997=CARTESIAN_POINT('',(-3.11,-1.145,1.435));
#998=CARTESIAN_POINT('',(3.11,-1.145,2.58));
#999=CARTESIAN_POINT('',(-3.11,-1.145,2.58));
#1000=CARTESIAN_POINT('',(3.11,-2.10333087753558E-16,2.58));
#1001=CARTESIAN_POINT('',(-3.11,-2.10333087753558E-16,2.58));
#1002=CARTESIAN_POINT('',(3.11,1.145,2.58));
#1003=CARTESIAN_POINT('',(-3.11,1.145,2.58));
#1004=CARTESIAN_POINT('',(3.11,1.145,1.435));
#1005=CARTESIAN_POINT('',(-3.11,1.145,1.435));
#1006=CARTESIAN_POINT('',(0.9,1.145,1.435));
#1007=CARTESIAN_POINT('',(1.5,1.145,1.435));
#1008=CARTESIAN_POINT('',(0.9,1.145,1.435));
#1009=CARTESIAN_POINT('',(0.9,1.145,2.58));
#1010=CARTESIAN_POINT('',(0.9,-2.10333087753558E-16,2.58));
#1011=CARTESIAN_POINT('',(0.9,-1.145,2.58));
#1012=CARTESIAN_POINT('',(0.9,-1.145,1.435));
#1013=CARTESIAN_POINT('',(0.9,-1.145,0.29));
#1014=CARTESIAN_POINT('',(0.9,7.0111029251186E-17,0.29));
#1015=CARTESIAN_POINT('',(0.9,1.145,0.29));
#1016=CARTESIAN_POINT('',(0.9,1.145,1.435));
#1017=CARTESIAN_POINT('',(1.5,1.145,1.435));
#1018=CARTESIAN_POINT('',(1.5,1.145,2.58));
#1019=CARTESIAN_POINT('',(1.5,-2.10333087753558E-16,2.58));
#1020=CARTESIAN_POINT('',(1.5,-1.145,2.58));
#1021=CARTESIAN_POINT('',(1.5,-1.145,1.435));
#1022=CARTESIAN_POINT('',(1.5,-1.145,0.29));
#1023=CARTESIAN_POINT('',(1.5,7.0111029251186E-17,0.29));
#1024=CARTESIAN_POINT('',(1.5,1.145,0.29));
#1025=CARTESIAN_POINT('',(1.5,1.145,1.435));
#1026=CARTESIAN_POINT('',(1.5,1.145,1.435));
#1027=CARTESIAN_POINT('',(0.9,1.145,1.435));
#1028=CARTESIAN_POINT('',(3.11,1.145,1.435));
#1029=CARTESIAN_POINT('',(-3.11,1.145,1.435));
#1030=CARTESIAN_POINT('',(3.11,1.145,0.29));
#1031=CARTESIAN_POINT('',(-3.11,1.145,0.29));
#1032=CARTESIAN_POINT('',(3.11,7.0111029251186E-17,0.29));
#1033=CARTESIAN_POINT('',(-3.11,7.0111029251186E-17,0.29));
#1034=CARTESIAN_POINT('',(3.11,-1.145,0.29));
#1035=CARTESIAN_POINT('',(-3.11,-1.145,0.29));
#1036=CARTESIAN_POINT('',(3.11,-1.145,1.435));
#1037=CARTESIAN_POINT('',(-3.11,-1.145,1.435));
#1038=CARTESIAN_POINT('',(3.11,-1.145,2.58));
#1039=CARTESIAN_POINT('',(-3.11,-1.145,2.58));
#1040=CARTESIAN_POINT('',(3.11,-2.10333087753558E-16,2.58));
#1041=CARTESIAN_POINT('',(-3.11,-2.10333087753558E-16,2.58));
#1042=CARTESIAN_POINT('',(3.11,1.145,2.58));
#1043=CARTESIAN_POINT('',(-3.11,1.145,2.58));
#1044=CARTESIAN_POINT('',(3.11,1.145,1.435));
#1045=CARTESIAN_POINT('',(-3.11,1.145,1.435));
#1046=CARTESIAN_POINT('',(-1.7,1.145,1.435));
#1047=CARTESIAN_POINT('',(-1.1,1.145,1.435));
#1048=CARTESIAN_POINT('',(-1.7,1.145,1.435));
#1049=CARTESIAN_POINT('',(-1.7,1.145,2.58));
#1050=CARTESIAN_POINT('',(-1.7,-2.10333087753558E-16,2.58));
#1051=CARTESIAN_POINT('',(-1.7,-1.145,2.58));
#1052=CARTESIAN_POINT('',(-1.7,-1.145,1.435));
#1053=CARTESIAN_POINT('',(-1.7,-1.145,0.29));
#1054=CARTESIAN_POINT('',(-1.7,7.0111029251186E-17,0.29));
#1055=CARTESIAN_POINT('',(-1.7,1.145,0.29));
#1056=CARTESIAN_POINT('',(-1.7,1.145,1.435));
#1057=CARTESIAN_POINT('',(-1.1,1.145,1.435));
#1058=CARTESIAN_POINT('',(-1.1,1.145,2.58));
#1059=CARTESIAN_POINT('',(-1.1,-2.10333087753558E-16,2.58));
#1060=CARTESIAN_POINT('',(-1.1,-1.145,2.58));
#1061=CARTESIAN_POINT('',(-1.1,-1.145,1.435));
#1062=CARTESIAN_POINT('',(-1.1,-1.145,0.29));
#1063=CARTESIAN_POINT('',(-1.1,7.0111029251186E-17,0.29));
#1064=CARTESIAN_POINT('',(-1.1,1.145,0.29));
#1065=CARTESIAN_POINT('',(-1.1,1.145,1.435));
#1066=CARTESIAN_POINT('',(-1.1,1.145,1.435));
#1067=CARTESIAN_POINT('',(-1.7,1.145,1.435));
#1068=CARTESIAN_POINT('',(3.11,1.145,1.435));
#1069=CARTESIAN_POINT('',(-3.11,1.145,1.435));
#1070=CARTESIAN_POINT('',(3.11,1.145,0.29));
#1071=CARTESIAN_POINT('',(-3.11,1.145,0.29));
#1072=CARTESIAN_POINT('',(3.11,7.0111029251186E-17,0.29));
#1073=CARTESIAN_POINT('',(-3.11,7.0111029251186E-17,0.29));
#1074=CARTESIAN_POINT('',(3.11,-1.145,0.29));
#1075=CARTESIAN_POINT('',(-3.11,-1.145,0.29));
#1076=CARTESIAN_POINT('',(3.11,-1.145,1.435));
#1077=CARTESIAN_POINT('',(-3.11,-1.145,1.435));
#1078=CARTESIAN_POINT('',(3.11,-1.145,2.58));
#1079=CARTESIAN_POINT('',(-3.11,-1.145,2.58));
#1080=CARTESIAN_POINT('',(3.11,-2.10333087753558E-16,2.58));
#1081=CARTESIAN_POINT('',(-3.11,-2.10333087753558E-16,2.58));
#1082=CARTESIAN_POINT('',(3.11,1.145,2.58));
#1083=CARTESIAN_POINT('',(-3.11,1.145,2.58));
#1084=CARTESIAN_POINT('',(3.11,1.145,1.435));
#1085=CARTESIAN_POINT('',(-3.11,1.145,1.435));
#1086=CARTESIAN_POINT('',(-0.1,1.145,1.435));
#1087=CARTESIAN_POINT('',(0.3,1.145,1.435));
#1088=CARTESIAN_POINT('',(-0.100000000000001,1.145,1.435));
#1089=CARTESIAN_POINT('',(-0.1,1.145,2.58));
#1090=CARTESIAN_POINT('',(-0.100000000000001,-2.10333087753558E-16,2.58));
#1091=CARTESIAN_POINT('',(-0.1,-1.145,2.58));
#1092=CARTESIAN_POINT('',(-0.100000000000001,-1.145,1.435));
#1093=CARTESIAN_POINT('',(-0.1,-1.145,0.29));
#1094=CARTESIAN_POINT('',(-0.100000000000001,7.0111029251186E-17,0.29));
#1095=CARTESIAN_POINT('',(-0.1,1.145,0.29));
#1096=CARTESIAN_POINT('',(-0.100000000000001,1.145,1.435));
#1097=CARTESIAN_POINT('',(0.3,1.145,1.435));
#1098=CARTESIAN_POINT('',(0.300000000000001,1.145,2.58));
#1099=CARTESIAN_POINT('',(0.3,-2.10333087753558E-16,2.58));
#1100=CARTESIAN_POINT('',(0.300000000000001,-1.145,2.58));
#1101=CARTESIAN_POINT('',(0.3,-1.145,1.435));
#1102=CARTESIAN_POINT('',(0.300000000000001,-1.145,0.29));
#1103=CARTESIAN_POINT('',(0.3,7.0111029251186E-17,0.29));
#1104=CARTESIAN_POINT('',(0.300000000000001,1.145,0.29));
#1105=CARTESIAN_POINT('',(0.3,1.145,1.435));
#1106=CARTESIAN_POINT('',(0.3,1.145,1.435));
#1107=CARTESIAN_POINT('',(-0.1,1.145,1.435));
#1108=CARTESIAN_POINT('',(3.11,1.145,1.435));
#1109=CARTESIAN_POINT('',(-3.11,1.145,1.435));
#1110=CARTESIAN_POINT('',(3.11,1.145,0.29));
#1111=CARTESIAN_POINT('',(-3.11,1.145,0.29));
#1112=CARTESIAN_POINT('',(3.11,7.0111029251186E-17,0.29));
#1113=CARTESIAN_POINT('',(-3.11,7.0111029251186E-17,0.29));
#1114=CARTESIAN_POINT('',(3.11,-1.145,0.29));
#1115=CARTESIAN_POINT('',(-3.11,-1.145,0.29));
#1116=CARTESIAN_POINT('',(3.11,-1.145,1.435));
#1117=CARTESIAN_POINT('',(-3.11,-1.145,1.435));
#1118=CARTESIAN_POINT('',(3.11,-1.145,2.58));
#1119=CARTESIAN_POINT('',(-3.11,-1.145,2.58));
#1120=CARTESIAN_POINT('',(3.11,-2.10333087753558E-16,2.58));
#1121=CARTESIAN_POINT('',(-3.11,-2.10333087753558E-16,2.58));
#1122=CARTESIAN_POINT('',(3.11,1.145,2.58));
#1123=CARTESIAN_POINT('',(-3.11,1.145,2.58));
#1124=CARTESIAN_POINT('',(3.11,1.145,1.435));
#1125=CARTESIAN_POINT('',(-3.11,1.145,1.435));
#1126=CARTESIAN_POINT('',(-0.7,1.145,1.435));
#1127=CARTESIAN_POINT('',(-0.1,1.145,1.435));
#1128=CARTESIAN_POINT('',(-0.7,1.145,1.435));
#1129=CARTESIAN_POINT('',(-0.7,1.145,2.58));
#1130=CARTESIAN_POINT('',(-0.7,-2.10333087753558E-16,2.58));
#1131=CARTESIAN_POINT('',(-0.7,-1.145,2.58));
#1132=CARTESIAN_POINT('',(-0.7,-1.145,1.435));
#1133=CARTESIAN_POINT('',(-0.7,-1.145,0.29));
#1134=CARTESIAN_POINT('',(-0.7,7.0111029251186E-17,0.29));
#1135=CARTESIAN_POINT('',(-0.7,1.145,0.29));
#1136=CARTESIAN_POINT('',(-0.7,1.145,1.435));
#1137=CARTESIAN_POINT('',(-0.100000000000001,1.145,1.435));
#1138=CARTESIAN_POINT('',(-0.1,1.145,2.58));
#1139=CARTESIAN_POINT('',(-0.100000000000001,-2.10333087753558E-16,2.58));
#1140=CARTESIAN_POINT('',(-0.1,-1.145,2.58));
#1141=CARTESIAN_POINT('',(-0.100000000000001,-1.145,1.435));
#1142=CARTESIAN_POINT('',(-0.1,-1.145,0.29));
#1143=CARTESIAN_POINT('',(-0.100000000000001,7.0111029251186E-17,0.29));
#1144=CARTESIAN_POINT('',(-0.1,1.145,0.29));
#1145=CARTESIAN_POINT('',(-0.100000000000001,1.145,1.435));
#1146=CARTESIAN_POINT('',(-0.1,1.145,1.435));
#1147=CARTESIAN_POINT('',(-0.7,1.145,1.435));
#1148=CARTESIAN_POINT('',(3.11,1.145,1.435));
#1149=CARTESIAN_POINT('',(-3.11,1.145,1.435));
#1150=CARTESIAN_POINT('',(3.11,1.145,0.29));
#1151=CARTESIAN_POINT('',(-3.11,1.145,0.29));
#1152=CARTESIAN_POINT('',(3.11,7.0111029251186E-17,0.29));
#1153=CARTESIAN_POINT('',(-3.11,7.0111029251186E-17,0.29));
#1154=CARTESIAN_POINT('',(3.11,-1.145,0.29));
#1155=CARTESIAN_POINT('',(-3.11,-1.145,0.29));
#1156=CARTESIAN_POINT('',(3.11,-1.145,1.435));
#1157=CARTESIAN_POINT('',(-3.11,-1.145,1.435));
#1158=CARTESIAN_POINT('',(3.11,-1.145,2.58));
#1159=CARTESIAN_POINT('',(-3.11,-1.145,2.58));
#1160=CARTESIAN_POINT('',(3.11,-2.10333087753558E-16,2.58));
#1161=CARTESIAN_POINT('',(-3.11,-2.10333087753558E-16,2.58));
#1162=CARTESIAN_POINT('',(3.11,1.145,2.58));
#1163=CARTESIAN_POINT('',(-3.11,1.145,2.58));
#1164=CARTESIAN_POINT('',(3.11,1.145,1.435));
#1165=CARTESIAN_POINT('',(-3.11,1.145,1.435));
#1166=CARTESIAN_POINT('',(0.3,1.145,1.435));
#1167=CARTESIAN_POINT('',(0.9,1.145,1.435));
#1168=CARTESIAN_POINT('',(0.3,1.145,1.435));
#1169=CARTESIAN_POINT('',(0.300000000000001,1.145,2.58));
#1170=CARTESIAN_POINT('',(0.3,-2.10333087753558E-16,2.58));
#1171=CARTESIAN_POINT('',(0.300000000000001,-1.145,2.58));
#1172=CARTESIAN_POINT('',(0.3,-1.145,1.435));
#1173=CARTESIAN_POINT('',(0.300000000000001,-1.145,0.29));
#1174=CARTESIAN_POINT('',(0.3,7.0111029251186E-17,0.29));
#1175=CARTESIAN_POINT('',(0.300000000000001,1.145,0.29));
#1176=CARTESIAN_POINT('',(0.3,1.145,1.435));
#1177=CARTESIAN_POINT('',(0.9,1.145,1.435));
#1178=CARTESIAN_POINT('',(0.9,1.145,2.58));
#1179=CARTESIAN_POINT('',(0.9,-2.10333087753558E-16,2.58));
#1180=CARTESIAN_POINT('',(0.9,-1.145,2.58));
#1181=CARTESIAN_POINT('',(0.9,-1.145,1.435));
#1182=CARTESIAN_POINT('',(0.9,-1.145,0.29));
#1183=CARTESIAN_POINT('',(0.9,7.0111029251186E-17,0.29));
#1184=CARTESIAN_POINT('',(0.9,1.145,0.29));
#1185=CARTESIAN_POINT('',(0.9,1.145,1.435));
#1186=CARTESIAN_POINT('',(0.9,1.145,1.435));
#1187=CARTESIAN_POINT('',(0.3,1.145,1.435));
#1188=CARTESIAN_POINT('',(3.11,1.145,1.435));
#1189=CARTESIAN_POINT('',(-3.11,1.145,1.435));
#1190=CARTESIAN_POINT('',(3.11,1.145,0.29));
#1191=CARTESIAN_POINT('',(-3.11,1.145,0.29));
#1192=CARTESIAN_POINT('',(3.11,7.0111029251186E-17,0.29));
#1193=CARTESIAN_POINT('',(-3.11,7.0111029251186E-17,0.29));
#1194=CARTESIAN_POINT('',(3.11,-1.145,0.29));
#1195=CARTESIAN_POINT('',(-3.11,-1.145,0.29));
#1196=CARTESIAN_POINT('',(3.11,-1.145,1.435));
#1197=CARTESIAN_POINT('',(-3.11,-1.145,1.435));
#1198=CARTESIAN_POINT('',(3.11,-1.145,2.58));
#1199=CARTESIAN_POINT('',(-3.11,-1.145,2.58));
#1200=CARTESIAN_POINT('',(3.11,-2.10333087753558E-16,2.58));
#1201=CARTESIAN_POINT('',(-3.11,-2.10333087753558E-16,2.58));
#1202=CARTESIAN_POINT('',(3.11,1.145,2.58));
#1203=CARTESIAN_POINT('',(-3.11,1.145,2.58));
#1204=CARTESIAN_POINT('',(3.11,1.145,1.435));
#1205=CARTESIAN_POINT('',(-3.11,1.145,1.435));
#1206=CARTESIAN_POINT('',(-2.,1.145,1.435));
#1207=CARTESIAN_POINT('',(-1.7,1.145,1.435));
#1208=CARTESIAN_POINT('',(-2.,1.145,1.435));
#1209=CARTESIAN_POINT('',(-2.,1.145,2.58));
#1210=CARTESIAN_POINT('',(-2.,-2.10333087753558E-16,2.58));
#1211=CARTESIAN_POINT('',(-2.,-1.145,2.58));
#1212=CARTESIAN_POINT('',(-2.,-1.145,1.435));
#1213=CARTESIAN_POINT('',(-2.,-1.145,0.29));
#1214=CARTESIAN_POINT('',(-2.,7.0111029251186E-17,0.29));
#1215=CARTESIAN_POINT('',(-2.,1.145,0.29));
#1216=CARTESIAN_POINT('',(-2.,1.145,1.435));
#1217=CARTESIAN_POINT('',(-1.7,1.145,1.435));
#1218=CARTESIAN_POINT('',(-1.7,1.145,2.58));
#1219=CARTESIAN_POINT('',(-1.7,-2.10333087753558E-16,2.58));
#1220=CARTESIAN_POINT('',(-1.7,-1.145,2.58));
#1221=CARTESIAN_POINT('',(-1.7,-1.145,1.435));
#1222=CARTESIAN_POINT('',(-1.7,-1.145,0.29));
#1223=CARTESIAN_POINT('',(-1.7,7.0111029251186E-17,0.29));
#1224=CARTESIAN_POINT('',(-1.7,1.145,0.29));
#1225=CARTESIAN_POINT('',(-1.7,1.145,1.435));
#1226=CARTESIAN_POINT('',(-1.7,1.145,1.435));
#1227=CARTESIAN_POINT('',(-2.,1.145,1.435));
#1228=CARTESIAN_POINT('',(-2.25,1.145,1.435));
#1229=CARTESIAN_POINT('',(-3.11,1.145,1.435));
#1230=CARTESIAN_POINT('',(-3.11,0.285000000000001,1.435));
#1231=CARTESIAN_POINT('',(-2.25,1.145,0.29));
#1232=CARTESIAN_POINT('',(-3.11,1.145,0.289999999999999));
#1233=CARTESIAN_POINT('',(-3.11,0.285000000000001,1.15));
#1234=CARTESIAN_POINT('',(-2.25,5.14200239101249E-16,0.29));
#1235=CARTESIAN_POINT('',(-3.11,2.92155634176217E-16,0.289999999999999));
#1236=CARTESIAN_POINT('',(-3.11,1.74512168878498E-17,1.15));
#1237=CARTESIAN_POINT('',(-2.25,-1.145,0.29));
#1238=CARTESIAN_POINT('',(-3.11,-1.145,0.289999999999999));
#1239=CARTESIAN_POINT('',(-3.11,-0.285000000000001,1.15));
#1240=CARTESIAN_POINT('',(-2.25,-1.145,1.435));
#1241=CARTESIAN_POINT('',(-3.11,-1.145,1.435));
#1242=CARTESIAN_POINT('',(-3.11,-0.285000000000001,1.435));
#1243=CARTESIAN_POINT('',(-2.25,-1.145,2.58));
#1244=CARTESIAN_POINT('',(-3.11,-1.145,2.58));
#1245=CARTESIAN_POINT('',(-3.11,-0.285000000000001,1.72));
#1246=CARTESIAN_POINT('',(-2.25,-6.54422297603621E-16,2.58));
#1247=CARTESIAN_POINT('',(-3.11,-4.32377692678589E-16,2.58));
#1248=CARTESIAN_POINT('',(-3.11,-5.23536506635495E-17,1.72));
#1249=CARTESIAN_POINT('',(-2.25,1.145,2.58));
#1250=CARTESIAN_POINT('',(-3.11,1.145,2.58));
#1251=CARTESIAN_POINT('',(-3.11,0.285000000000001,1.72));
#1252=CARTESIAN_POINT('',(-2.25,1.145,1.435));
#1253=CARTESIAN_POINT('',(-3.11,1.145,1.435));
#1254=CARTESIAN_POINT('',(-3.11,0.285000000000001,1.435));
#1255=CARTESIAN_POINT('',(3.11,1.145,1.435));
#1256=CARTESIAN_POINT('',(-3.11,1.145,1.435));
#1257=CARTESIAN_POINT('',(3.11,1.145,0.29));
#1258=CARTESIAN_POINT('',(-3.11,1.145,0.29));
#1259=CARTESIAN_POINT('',(3.11,7.0111029251186E-17,0.29));
#1260=CARTESIAN_POINT('',(-3.11,7.0111029251186E-17,0.29));
#1261=CARTESIAN_POINT('',(3.11,-1.145,0.29));
#1262=CARTESIAN_POINT('',(-3.11,-1.145,0.29));
#1263=CARTESIAN_POINT('',(3.11,-1.145,1.435));
#1264=CARTESIAN_POINT('',(-3.11,-1.145,1.435));
#1265=CARTESIAN_POINT('',(3.11,-1.145,2.58));
#1266=CARTESIAN_POINT('',(-3.11,-1.145,2.58));
#1267=CARTESIAN_POINT('',(3.11,-2.10333087753558E-16,2.58));
#1268=CARTESIAN_POINT('',(-3.11,-2.10333087753558E-16,2.58));
#1269=CARTESIAN_POINT('',(3.11,1.145,2.58));
#1270=CARTESIAN_POINT('',(-3.11,1.145,2.58));
#1271=CARTESIAN_POINT('',(3.11,1.145,1.435));
#1272=CARTESIAN_POINT('',(-3.11,1.145,1.435));
#1273=CARTESIAN_POINT('',(-2.25,1.145,1.435));
#1274=CARTESIAN_POINT('',(-2.,1.145,1.435));
#1275=CARTESIAN_POINT('',(-2.6,1.07055712713971,1.435));
#1276=CARTESIAN_POINT('',(-2.25,1.145,1.435));
#1277=CARTESIAN_POINT('',(-2.25,1.145,0.29));
#1278=CARTESIAN_POINT('',(-2.25,5.05330325377205E-16,0.29));
#1279=CARTESIAN_POINT('',(-2.25,-1.145,0.29));
#1280=CARTESIAN_POINT('',(-2.25,-1.145,1.435));
#1281=CARTESIAN_POINT('',(-2.25,-1.145,2.58));
#1282=CARTESIAN_POINT('',(-2.25,-6.45552383879577E-16,2.58));
#1283=CARTESIAN_POINT('',(-2.25,1.145,2.58));
#1284=CARTESIAN_POINT('',(-2.25,1.145,1.435));
#1285=CARTESIAN_POINT('',(-2.25,1.145,1.435));
#1286=CARTESIAN_POINT('',(-2.43291677331385,1.145,1.435));
#1287=CARTESIAN_POINT('',(-2.6,1.07055712713971,1.435));
#1288=CARTESIAN_POINT('',(-2.,1.145,1.435));
#1289=CARTESIAN_POINT('',(-2.,1.145,2.58));
#1290=CARTESIAN_POINT('',(-2.,-2.10333087753558E-16,2.58));
#1291=CARTESIAN_POINT('',(-2.,-1.145,2.58));
#1292=CARTESIAN_POINT('',(-2.,-1.145,1.435));
#1293=CARTESIAN_POINT('',(-2.,-1.145,0.29));
#1294=CARTESIAN_POINT('',(-2.,7.0111029251186E-17,0.29));
#1295=CARTESIAN_POINT('',(-2.,1.145,0.29));
#1296=CARTESIAN_POINT('',(-2.,1.145,1.435));
#1297=CARTESIAN_POINT('',(-2.6,1.07055712713971,1.435));
#1298=CARTESIAN_POINT('',(-2.6,1.07055712713971,2.50555712713971));
#1299=CARTESIAN_POINT('',(-2.6,-5.87073413345776E-16,2.50555712713971));
#1300=CARTESIAN_POINT('',(-2.6,-1.07055712713971,2.50555712713971));
#1301=CARTESIAN_POINT('',(-2.6,-1.07055712713971,1.435));
#1302=CARTESIAN_POINT('',(-2.6,-1.07055712713971,0.364442872860286));
#1303=CARTESIAN_POINT('',(-2.6,4.55967977440172E-16,0.364442872860286));
#1304=CARTESIAN_POINT('',(-2.6,1.07055712713971,0.364442872860287));
#1305=CARTESIAN_POINT('',(-2.6,1.07055712713971,1.435));
#1306=CARTESIAN_POINT('',(-2.,1.145,1.435));
#1307=CARTESIAN_POINT('',(-2.25,1.145,1.435));
#1308=CARTESIAN_POINT('',(3.11,1.145,1.435));
#1309=CARTESIAN_POINT('',(-3.11,1.145,1.435));
#1310=CARTESIAN_POINT('',(3.11,1.145,0.29));
#1311=CARTESIAN_POINT('',(-3.11,1.145,0.29));
#1312=CARTESIAN_POINT('',(3.11,7.0111029251186E-17,0.29));
#1313=CARTESIAN_POINT('',(-3.11,7.0111029251186E-17,0.29));
#1314=CARTESIAN_POINT('',(3.11,-1.145,0.29));
#1315=CARTESIAN_POINT('',(-3.11,-1.145,0.29));
#1316=CARTESIAN_POINT('',(3.11,-1.145,1.435));
#1317=CARTESIAN_POINT('',(-3.11,-1.145,1.435));
#1318=CARTESIAN_POINT('',(3.11,-1.145,2.58));
#1319=CARTESIAN_POINT('',(-3.11,-1.145,2.58));
#1320=CARTESIAN_POINT('',(3.11,-2.10333087753558E-16,2.58));
#1321=CARTESIAN_POINT('',(-3.11,-2.10333087753558E-16,2.58));
#1322=CARTESIAN_POINT('',(3.11,1.145,2.58));
#1323=CARTESIAN_POINT('',(-3.11,1.145,2.58));
#1324=CARTESIAN_POINT('',(3.11,1.145,1.435));
#1325=CARTESIAN_POINT('',(-3.11,1.145,1.435));
#1326=CARTESIAN_POINT('',(2.25,1.145,1.435));
#1327=CARTESIAN_POINT('',(2.25,1.145,0.29));
#1328=CARTESIAN_POINT('',(2.25,7.0111029251186E-17,0.29));
#1329=CARTESIAN_POINT('',(2.25,-1.145,0.29));
#1330=CARTESIAN_POINT('',(2.25,-1.145,1.435));
#1331=CARTESIAN_POINT('',(2.25,-1.145,2.58));
#1332=CARTESIAN_POINT('',(2.25,-2.10333087753558E-16,2.58));
#1333=CARTESIAN_POINT('',(2.25,1.145,2.58));
#1334=CARTESIAN_POINT('',(2.25,1.145,1.435));
#1335=CARTESIAN_POINT('',(3.11,1.145,1.435));
#1336=CARTESIAN_POINT('',(3.11,1.145,0.289999999999999));
#1337=CARTESIAN_POINT('',(3.11,7.0111029251186E-17,0.289999999999999));
#1338=CARTESIAN_POINT('',(3.11,-1.145,0.289999999999999));
#1339=CARTESIAN_POINT('',(3.11,-1.145,1.435));
#1340=CARTESIAN_POINT('',(3.11,-1.145,2.58));
#1341=CARTESIAN_POINT('',(3.11,-2.10333087753558E-16,2.58));
#1342=CARTESIAN_POINT('',(3.11,1.145,2.58));
#1343=CARTESIAN_POINT('',(3.11,1.145,1.435));
#1344=CARTESIAN_POINT('',(3.11,0.285000000000001,1.435));
#1345=CARTESIAN_POINT('',(3.11,0.285000000000001,1.15));
#1346=CARTESIAN_POINT('',(3.11,1.74512168878498E-17,1.15));
#1347=CARTESIAN_POINT('',(3.11,-0.285000000000001,1.15));
#1348=CARTESIAN_POINT('',(3.11,-0.285000000000001,1.435));
#1349=CARTESIAN_POINT('',(3.11,-0.285000000000001,1.72));
#1350=CARTESIAN_POINT('',(3.11,-5.23536506635495E-17,1.72));
#1351=CARTESIAN_POINT('',(3.11,0.285000000000001,1.72));
#1352=CARTESIAN_POINT('',(3.11,0.285000000000001,1.435));
#1353=CARTESIAN_POINT('',(2.25,1.145,1.435));
#1354=CARTESIAN_POINT('',(2.5,1.10786086308683,1.435));
#1355=CARTESIAN_POINT('',(1.5,1.145,1.435));
#1356=CARTESIAN_POINT('',(2.25,1.145,1.435));
#1357=CARTESIAN_POINT('',(1.5,1.145,1.435));
#1358=CARTESIAN_POINT('',(2.25,1.145,1.435));
#1359=CARTESIAN_POINT('',(2.25,1.145,0.29));
#1360=CARTESIAN_POINT('',(2.25,1.41568150527484E-16,0.29));
#1361=CARTESIAN_POINT('',(2.25,-1.145,0.29));
#1362=CARTESIAN_POINT('',(2.25,-1.145,1.435));
#1363=CARTESIAN_POINT('',(2.25,-1.145,2.58));
#1364=CARTESIAN_POINT('',(2.25,-2.81790209029855E-16,2.58));
#1365=CARTESIAN_POINT('',(2.25,1.145,2.58));
#1366=CARTESIAN_POINT('',(2.25,1.145,1.435));
#1367=CARTESIAN_POINT('',(2.25,1.145,1.435));
#1368=CARTESIAN_POINT('',(2.37775863098131,1.145,1.435));
#1369=CARTESIAN_POINT('',(2.5,1.10786086308683,1.435));
#1370=CARTESIAN_POINT('',(2.5,1.10786086308683,1.435));
#1371=CARTESIAN_POINT('',(2.5,1.10786086308683,0.327139136913172));
#1372=CARTESIAN_POINT('',(2.5,1.34305130850554E-16,0.327139136913172));
#1373=CARTESIAN_POINT('',(2.5,-1.10786086308683,0.327139136913172));
#1374=CARTESIAN_POINT('',(2.5,-1.10786086308683,1.435));
#1375=CARTESIAN_POINT('',(2.5,-1.10786086308683,2.54286086308683));
#1376=CARTESIAN_POINT('',(2.5,-2.69978956838545E-16,2.54286086308683));
#1377=CARTESIAN_POINT('',(2.5,1.10786086308683,2.54286086308683));
#1378=CARTESIAN_POINT('',(2.5,1.10786086308683,1.435));
#1379=CARTESIAN_POINT('',(1.5,1.145,1.435));
#1380=CARTESIAN_POINT('',(1.5,1.145,2.58));
#1381=CARTESIAN_POINT('',(1.5,-2.10333087753558E-16,2.58));
#1382=CARTESIAN_POINT('',(1.5,-1.145,2.58));
#1383=CARTESIAN_POINT('',(1.5,-1.145,1.435));
#1384=CARTESIAN_POINT('',(1.5,-1.145,0.29));
#1385=CARTESIAN_POINT('',(1.5,7.0111029251186E-17,0.29));
#1386=CARTESIAN_POINT('',(1.5,1.145,0.29));
#1387=CARTESIAN_POINT('',(1.5,1.145,1.435));
#1388=CARTESIAN_POINT('',(0.,0.,0.));
#1389=CARTESIAN_POINT('',(0.,0.,0.));
ENDSEC;
END-ISO-10303-21;
