%TF.GenerationSoftware,Altium Limited,Altium Designer,19.0.15 (446)*%
G04 Layer_Physical_Order=4*
G04 Layer_Color=16711680*
%FSLAX45Y45*%
%MOMM*%
%TF.FileFunction,Copper,L4,Bot,Signal*%
%TF.Part,Single*%
G01*
G75*
%TA.AperFunction,Conductor*%
%ADD16C,0.25400*%
%TA.AperFunction,ComponentPad*%
%ADD17C,1.80000*%
%TA.AperFunction,ViaPad*%
%ADD18C,0.50000*%
D16*
X5768500Y10293300D02*
Y10731500D01*
Y10293300D02*
X5943600Y10118200D01*
X5344160Y11707940D02*
Y12186920D01*
Y11707940D02*
X5484400Y11567700D01*
X3350260Y11746640D02*
Y12192000D01*
Y11746640D02*
X3529200Y11567700D01*
X6299200Y9981300D02*
X6325200D01*
X6510000Y10166100D01*
X5843400Y11426500D02*
X5860700D01*
X6054200Y11620000D01*
X6107921D01*
X3885287Y11430000D02*
X3909500D01*
X4094000Y11614500D01*
X5012463Y8715200D02*
X5029200D01*
X4967500Y8760163D02*
X5012463Y8715200D01*
X4967500Y8760163D02*
Y8997256D01*
X5030600Y9060356D01*
X4951000Y9269000D02*
X4965600D01*
X4906800Y9224800D02*
X4951000Y9269000D01*
X4421497Y9224800D02*
X4906800D01*
X4381897Y9264400D02*
X4421497Y9224800D01*
X4241800Y9264400D02*
X4381897D01*
X5082063Y9326800D02*
X6326969D01*
X4981663Y9427200D02*
X5082063Y9326800D01*
X4280416Y9477429D02*
X4301458D01*
X4279287Y9476300D02*
X4280416Y9477429D01*
X4301458D02*
X4316987Y9461900D01*
X2946563Y9550400D02*
X4546600D01*
X4572000Y9525000D01*
X2775364Y9379200D02*
X2946563Y9550400D01*
X4316987Y9461900D02*
X4598137D01*
X4630837Y9494600D01*
X4899800D01*
X3933097Y9411100D02*
X4619179D01*
X3913397Y9391400D02*
X3933097Y9411100D01*
X4635278Y9427200D02*
X4981663D01*
X4619179Y9411100D02*
X4635278Y9427200D01*
X4953000Y9731413D02*
Y10197000D01*
X4811950Y9668100D02*
X5079700D01*
X4838087Y9731200D02*
X4838300Y9731413D01*
X6259400Y8731000D02*
Y9157200D01*
X6269093Y9166893D01*
Y9215493D01*
X6273800Y9220200D01*
X6400800Y9144000D02*
Y9252969D01*
X6326969Y9326800D02*
X6400800Y9252969D01*
X5030600Y8914200D02*
X5912800D01*
X6223000Y8604000D01*
X11341400Y8927800D02*
X11480800Y8788400D01*
X11341400Y8927800D02*
Y9652000D01*
X11111000Y9025882D02*
X11455400Y8681482D01*
X11111000Y9025882D02*
Y10058400D01*
X11341400Y10288800D01*
Y10710699D01*
X11591500Y11007300D02*
X11734800Y11150600D01*
X11379200Y11007300D02*
X11591500D01*
X10922000Y10550100D02*
X11379200Y11007300D01*
X10922000Y9937500D02*
Y10550100D01*
X10947400Y9139599D02*
Y9575800D01*
X10861500Y9053700D02*
X10947400Y9139599D01*
X11709400Y11252200D02*
Y11301000D01*
X11760200Y11351800D01*
X11557000Y11099800D02*
X11709400Y11252200D01*
X10955200Y11099800D02*
X11557000D01*
X10588800Y11112500D02*
X10972800Y10728500D01*
X10588800Y11112500D02*
Y11531600D01*
X10583700Y9702800D02*
X10972800D01*
X9779000Y10507500D02*
X10583700Y9702800D01*
X8765354Y11895653D02*
X8915400Y12045700D01*
X8765354Y11864154D02*
Y11895653D01*
X8610600Y11709400D02*
X8765354Y11864154D01*
X8991600Y11327000D02*
Y12416100D01*
X8396699Y11063699D02*
X8407400Y11074400D01*
X8396699Y10869463D02*
Y11063699D01*
Y10869463D02*
X8472400Y10793762D01*
Y10491500D02*
Y10793762D01*
Y10491500D02*
X8534400Y10429500D01*
X8051800Y11142520D02*
X8421600Y10772720D01*
X8051800Y11142520D02*
Y11143563D01*
X8421600Y10446000D02*
Y10772720D01*
X7888200Y8897700D02*
X8051800Y8734100D01*
X7888200Y8897700D02*
Y9157200D01*
X7226300Y8902700D02*
X7543900Y9220300D01*
X9176100D01*
X9271000Y9315200D01*
X7975600Y9575800D02*
X8135019D01*
X8280400Y9721181D01*
X7950200Y11912600D02*
X8076372D01*
X7860900Y11823300D02*
X7950200Y11912600D01*
X7860900Y11243185D02*
Y11823300D01*
X7298252Y10680537D02*
X7860900Y11243185D01*
X7298252Y10507851D02*
Y10680537D01*
X7188200Y10397800D02*
X7298252Y10507851D01*
X7950200Y11245163D02*
X8051800Y11143563D01*
X10577600Y11725200D02*
X10617200Y11764800D01*
X10577600Y11648079D02*
Y11725200D01*
X10562721Y11633200D02*
X10577600Y11648079D01*
X9652000Y11633200D02*
X10562721D01*
X9169400Y11150600D02*
X9652000Y11633200D01*
X8876363Y11143563D02*
X8883400Y11150600D01*
X8051800Y11143563D02*
X8876363D01*
X8786350Y10964150D02*
X9176000Y11353800D01*
X8786350Y10561871D02*
Y10964150D01*
X9176000Y11353800D02*
Y11716000D01*
X7848600Y9550400D02*
Y9563437D01*
X8176478Y9891315D01*
X8189515D01*
X8356600Y10058400D01*
X8419700Y10032263D02*
Y10195221D01*
X8076372Y9923735D02*
X8356600Y10203963D01*
X8242200Y10178800D02*
Y10605000D01*
X8396699Y9853463D02*
Y10009263D01*
Y9853463D02*
X8407400Y9842762D01*
Y9738400D02*
Y9842762D01*
X8419700Y10195221D02*
X8786350Y10561871D01*
X8396699Y10009263D02*
X8419700Y10032263D01*
X7950200Y11245163D02*
Y11749000D01*
X7872499Y9923735D02*
X8076372D01*
X7797800Y11760200D02*
Y12186400D01*
X7848600Y12237200D01*
X7975600Y12234300D02*
Y12272000D01*
X7947300Y12300300D02*
X7975600Y12272000D01*
X7658197Y12300300D02*
X7947300D01*
X7403597Y12045700D02*
X7658197Y12300300D01*
X7180400Y12045700D02*
X7403597D01*
X9176000Y11716000D02*
X9321800Y11861800D01*
X5062458Y9613500D02*
X5099758Y9576200D01*
X7702263Y9588100D02*
X7900463Y9389900D01*
X7149938Y9588100D02*
X7702263D01*
X7142439Y9580601D02*
X7149938Y9588100D01*
X6604040Y9580601D02*
X7142439D01*
X7142500Y9525000D02*
X7662200D01*
X6351600Y8734100D02*
X7142500Y9525000D01*
X5079700Y9668100D02*
X5120800Y9627000D01*
X6571141Y9613500D02*
X6604040Y9580601D01*
X6298463Y9613500D02*
X6571141D01*
X6261163Y9576200D02*
X6298463Y9613500D01*
X5099758Y9576200D02*
X6261163D01*
X4794708Y9613500D02*
X5062458D01*
X5120800Y9627000D02*
X6240121D01*
X6277421Y9664300D01*
X6592183D01*
X6612782Y9643701D01*
X6934200D01*
X6256379Y9715100D02*
X7663864D01*
X5202000Y9690100D02*
X6231379D01*
X4781608Y9626600D02*
X4794708Y9613500D01*
X7663864Y9715100D02*
X7872499Y9923735D01*
X6231379Y9690100D02*
X6256379Y9715100D01*
X6426200Y11284200D02*
X6850300Y10860100D01*
Y10331728D02*
Y10860100D01*
X6832600Y10314028D02*
X6850300Y10331728D01*
X6832600Y9779000D02*
Y10314028D01*
X6787000Y10383400D02*
X6787200D01*
X6781800Y10388600D02*
X6787000Y10383400D01*
X6745501Y10388600D02*
X6781800D01*
X6672301Y10315400D02*
X6745501Y10388600D01*
X6512921Y10337800D02*
Y10341664D01*
X6527800Y10356543D01*
Y10363200D01*
X5994400Y10337800D02*
X6512921D01*
X6604000Y10206379D02*
Y10390500D01*
X6563721Y10166100D02*
X6604000Y10206379D01*
X6447400Y10547100D02*
X6604000Y10390500D01*
X4953000Y10197000D02*
X5202000Y10446000D01*
X6400800Y10547100D02*
X6447400D01*
X6197600Y10750300D02*
X6400800Y10547100D01*
X4599986Y11757300D02*
X4729887Y11887200D01*
X4508600Y11757300D02*
X4599986D01*
X4433800Y11682500D02*
X4508600Y11757300D01*
X4433800Y11455400D02*
Y11682500D01*
X4802650Y9677400D02*
X4811950Y9668100D01*
X4787518Y9677400D02*
X4802650D01*
X4101718Y10363200D02*
X4787518Y9677400D01*
X3730800Y9626600D02*
X4781608D01*
X5116000Y10446000D02*
X5202000D01*
X4924500Y10637500D02*
X5116000Y10446000D01*
X4838087Y10820300D02*
X4838300Y10820087D01*
Y9731413D02*
Y10820087D01*
X7900463Y9389900D02*
X9704300D01*
X10312400Y8781800D01*
X6642100Y8902700D02*
X7226300D01*
X6343400Y8604000D02*
X6642100Y8902700D01*
X6223000Y8604000D02*
X6343400D01*
X4546600Y11321919D02*
Y11684000D01*
X4216187Y10991506D02*
X4546600Y11321919D01*
X4216187Y10622768D02*
Y10991506D01*
X3746718Y10153300D02*
X4216187Y10622768D01*
X3423300Y9274400D02*
X3454400Y9305500D01*
X3423300Y9051900D02*
Y9274400D01*
Y9051900D02*
X3729200Y8746000D01*
X2876800Y9391400D02*
X3913397D01*
X3683000Y9126200D02*
X4936600D01*
X8356600Y10203963D02*
Y10315400D01*
X4936600Y9126200D02*
X5030600Y9220200D01*
X6146800Y12039600D02*
X6510000D01*
X5889000Y12297400D02*
X6146800Y12039600D01*
X5489369Y12297400D02*
X5889000D01*
X5485569Y12293600D02*
X5489369Y12297400D01*
X4969000Y12293600D02*
X5485569D01*
X4495800Y11820400D02*
X4969000Y12293600D01*
X2664000Y9379200D02*
X2775364D01*
X3262704Y10485403D02*
X3597600Y10820300D01*
X3804300D01*
X3352800Y8559800D02*
X3570200D01*
X2260600Y9652000D02*
X3352800Y8559800D01*
X2530203Y10485403D02*
X3262704D01*
X2286000Y10241200D02*
X2530203Y10485403D01*
X7662200Y8604000D02*
Y9030200D01*
X7713000Y9081000D01*
X8242200Y10605000D02*
X8293000Y10655800D01*
X4876800Y9002900D02*
X4927600Y9053700D01*
X4876800Y8576700D02*
Y9002900D01*
X5991600Y12001000D02*
X6148200Y11844400D01*
X5945000Y12001000D02*
X5991600D01*
X6148200Y11660279D02*
Y11844400D01*
X6107921Y11620000D02*
X6148200Y11660279D01*
X5741800Y12204200D02*
X5945000Y12001000D01*
X5741800Y12204200D02*
Y12234300D01*
X4031400Y11995500D02*
X4188000Y11838900D01*
X3984800Y11995500D02*
X4031400D01*
X4188000Y11654779D02*
Y11838900D01*
X4147721Y11614500D02*
X4188000Y11654779D01*
X4094000Y11614500D02*
X4147721D01*
X3781600Y12198700D02*
X3984800Y11995500D01*
X3781600Y12198700D02*
Y12228800D01*
X6197600Y10750300D02*
Y10780400D01*
X6510000Y10166100D02*
X6563721D01*
D17*
X12446000Y10668000D02*
D03*
Y10414000D02*
D03*
Y10922000D02*
D03*
Y11176000D02*
D03*
Y10160000D02*
D03*
Y9906000D02*
D03*
Y9398000D02*
D03*
Y9652000D02*
D03*
Y9144000D02*
D03*
X2032000Y10668000D02*
D03*
Y10414000D02*
D03*
Y10922000D02*
D03*
Y11176000D02*
D03*
Y10160000D02*
D03*
Y9906000D02*
D03*
Y9398000D02*
D03*
Y9652000D02*
D03*
Y9144000D02*
D03*
D18*
X5768500Y10731500D02*
D03*
X5344160Y12186920D02*
D03*
X3350260Y12192000D02*
D03*
X5943600Y10118200D02*
D03*
X5484400Y11567700D02*
D03*
X3529200D02*
D03*
X6468500Y9969000D02*
D03*
X6299200Y9981300D02*
D03*
X5843400Y11426500D02*
D03*
X3885287Y11430000D02*
D03*
X5029200Y8715200D02*
D03*
X5030600Y9060356D02*
D03*
X4965600Y9269000D02*
D03*
X4241800Y9264400D02*
D03*
X4279287Y9476300D02*
D03*
X4899800Y9494600D02*
D03*
X5065600Y9432500D02*
D03*
X4953000Y9364100D02*
D03*
Y9731413D02*
D03*
X4838087Y9731200D02*
D03*
X6273800Y9220200D02*
D03*
X6468400Y9305500D02*
D03*
X6400800Y9144000D02*
D03*
X11480800Y8788400D02*
D03*
X11341400Y9652000D02*
D03*
X11455400Y8681482D02*
D03*
X11341400Y10710699D02*
D03*
X11607800Y10766581D02*
D03*
X11734800Y11150600D02*
D03*
X10922000Y9937500D02*
D03*
X10947400Y9575800D02*
D03*
X10861500Y9053700D02*
D03*
X11760200Y11351800D02*
D03*
X10955200Y11099800D02*
D03*
X10972800Y10728500D02*
D03*
X10588800Y11531600D02*
D03*
X10875900Y11769900D02*
D03*
X10972800Y9702800D02*
D03*
X9779000Y10507500D02*
D03*
X8915400Y12045700D02*
D03*
X8610600Y11709400D02*
D03*
X8407400Y11074400D02*
D03*
X8534400Y10429500D02*
D03*
X8051800Y8734100D02*
D03*
X7888200Y9157200D02*
D03*
X7721600Y9423400D02*
D03*
X7975600Y9575800D02*
D03*
X8280400Y9721181D02*
D03*
X8076372Y11912600D02*
D03*
X7188200Y10397800D02*
D03*
X10617200Y11764800D02*
D03*
X9169400Y11150600D02*
D03*
X8883400D02*
D03*
X7848600Y9550400D02*
D03*
X8356600Y10058400D02*
D03*
X8242200Y10178800D02*
D03*
X8421600Y10446000D02*
D03*
X7950200Y11749000D02*
D03*
X7797800Y11760200D02*
D03*
X8432800Y11498700D02*
D03*
X8890000Y11911200D02*
D03*
X7975600Y12234300D02*
D03*
X7180400Y12045700D02*
D03*
X9321800Y11861800D02*
D03*
X8407400Y9738400D02*
D03*
X7662200Y9525000D02*
D03*
X6351600Y8734100D02*
D03*
X6324600Y9550400D02*
D03*
X6787200Y10383400D02*
D03*
X6672301Y10315400D02*
D03*
X6527800Y10363200D02*
D03*
X5994400Y10337800D02*
D03*
X5202000Y9690100D02*
D03*
X6832600Y9779000D02*
D03*
X6426200Y11284200D02*
D03*
X4729887Y11887200D02*
D03*
X4433800Y11455400D02*
D03*
X6934200Y9643701D02*
D03*
X6680200Y9785100D02*
D03*
X4101718Y10363200D02*
D03*
X5202000Y10446000D02*
D03*
X4924500Y10637500D02*
D03*
X4775200Y10287000D02*
D03*
X9271000Y9315200D02*
D03*
X5030600Y8914200D02*
D03*
X4546600Y11684000D02*
D03*
X3746718Y10153300D02*
D03*
X3454400Y9305500D02*
D03*
X3729200Y8746000D02*
D03*
X3683000Y9278199D02*
D03*
Y9126200D02*
D03*
X4075500Y8284200D02*
D03*
X8356600Y10315400D02*
D03*
X5030600Y9220200D02*
D03*
X4075500Y9053700D02*
D03*
X6510000Y12039600D02*
D03*
X5030600Y12107700D02*
D03*
X5156000Y12077200D02*
D03*
X4495800Y11820400D02*
D03*
X10312400Y8781800D02*
D03*
X3730800Y9626600D02*
D03*
X3269000Y9686500D02*
D03*
X4572000Y9525000D02*
D03*
X2664000Y9379200D02*
D03*
X2876800Y9391400D02*
D03*
X2735900Y9661600D02*
D03*
X3885287Y10911200D02*
D03*
X3804300Y10820300D02*
D03*
X11111000Y11430000D02*
D03*
X11365000Y11487400D02*
D03*
X11238000Y11827282D02*
D03*
X10323600Y10370800D02*
D03*
X10577600Y10428200D02*
D03*
X10450600Y10768082D02*
D03*
X10088500Y10710699D02*
D03*
X10312400Y9323900D02*
D03*
X10566400Y9381300D02*
D03*
X10439400Y9721181D02*
D03*
X10077300Y9663799D02*
D03*
X9739400Y8284200D02*
D03*
X9993400Y8341600D02*
D03*
X9866400Y8681482D02*
D03*
X9504300Y8624100D02*
D03*
X10896600Y8280400D02*
D03*
X11150600Y8337800D02*
D03*
X11023600Y8677682D02*
D03*
X10661500Y8620300D02*
D03*
X11480800Y9321800D02*
D03*
X11734800Y9379200D02*
D03*
X11607800Y9719082D02*
D03*
X11245700Y9661700D02*
D03*
X11480800Y10369300D02*
D03*
X11734800Y10426700D02*
D03*
X11245700Y10709199D02*
D03*
X3570200Y8559800D02*
D03*
X2260600Y9652000D02*
D03*
X2286000Y10241200D02*
D03*
X8852300Y10660900D02*
D03*
X8459799Y10895599D02*
D03*
X8852300Y9911600D02*
D03*
X8459799Y9879600D02*
D03*
X9316799Y10902200D02*
D03*
X9110600Y9714500D02*
D03*
X8993199Y10643000D02*
D03*
X9385399Y10685799D02*
D03*
X9602799Y10203700D02*
D03*
X9618600Y9738400D02*
D03*
X2343400Y9896300D02*
D03*
X2735900Y8912300D02*
D03*
X2343400Y8880300D02*
D03*
X3200400Y9902900D02*
D03*
X2994200Y8715200D02*
D03*
X2876800Y9643701D02*
D03*
X3486400Y9204400D02*
D03*
X3502200Y8739100D02*
D03*
X8280700Y9085500D02*
D03*
X7888200Y9320200D02*
D03*
X8280700Y8336200D02*
D03*
X7888200Y8304200D02*
D03*
X8745200Y9326800D02*
D03*
X8539000Y8139100D02*
D03*
X8421600Y9067600D02*
D03*
X8813800Y9110400D02*
D03*
X9031200Y8628300D02*
D03*
X9047000Y8163000D02*
D03*
X10419000Y11299500D02*
D03*
X10185800Y12246900D02*
D03*
X10117200Y12463300D02*
D03*
X10403200Y11764800D02*
D03*
X9911000Y11275600D02*
D03*
X9793600Y12204100D02*
D03*
X9652700Y11472700D02*
D03*
X9260200Y11440700D02*
D03*
X9652700Y12222000D02*
D03*
X9260200Y12456700D02*
D03*
X4279287Y10677600D02*
D03*
Y9902900D02*
D03*
X3885287Y9858300D02*
D03*
X4787287Y11007300D02*
D03*
X4729887Y9959800D02*
D03*
X4838087Y10820300D02*
D03*
X4914287Y10498200D02*
D03*
X8991600Y12416100D02*
D03*
Y11327000D02*
D03*
X9067800Y12094000D02*
D03*
X8883400Y11555600D02*
D03*
X8940800Y12603100D02*
D03*
X8038800Y11454100D02*
D03*
X8432800Y12273400D02*
D03*
X8038800Y12507000D02*
D03*
X6860900Y9081000D02*
D03*
Y8311500D02*
D03*
X6468400Y8290000D02*
D03*
X7314200Y9315200D02*
D03*
X7027200Y8654800D02*
D03*
X7128800Y8096000D02*
D03*
X7433600Y8883400D02*
D03*
X7713000Y9081000D02*
D03*
X7662200Y8604000D02*
D03*
X7497200Y8128000D02*
D03*
X7440900Y10655800D02*
D03*
X7048400Y10880300D02*
D03*
X7440900Y9886300D02*
D03*
X7048400Y9864800D02*
D03*
X7894200Y10890000D02*
D03*
X7607200Y10229600D02*
D03*
X7708800Y9670800D02*
D03*
X8013600Y10458200D02*
D03*
X8293000Y10655800D02*
D03*
X8077200Y9702800D02*
D03*
X8318400Y10966200D02*
D03*
X6996500Y12237200D02*
D03*
X6604000Y12461700D02*
D03*
X6996500Y11467700D02*
D03*
X6604000Y11446200D02*
D03*
X7449800Y12471400D02*
D03*
X7162800Y11811000D02*
D03*
X7264400Y11252200D02*
D03*
X7569200Y12039600D02*
D03*
X7848600Y12237200D02*
D03*
X7632800Y11284200D02*
D03*
X7874000Y12547600D02*
D03*
X5458100Y9208000D02*
D03*
Y8438500D02*
D03*
X5065600Y8417000D02*
D03*
X5911400Y9442200D02*
D03*
X5624400Y8781800D02*
D03*
X5726000Y8223000D02*
D03*
X6030800Y9010400D02*
D03*
X6259400Y8731000D02*
D03*
X6094400Y8255000D02*
D03*
X4927600Y9053700D02*
D03*
X4876800Y8576700D02*
D03*
X4648200Y8856100D02*
D03*
X4528800Y9287900D02*
D03*
X4241800Y8627500D02*
D03*
X4711800Y8100700D02*
D03*
X4343400Y8068700D02*
D03*
X3683000Y8262700D02*
D03*
X3302000Y10785882D02*
D03*
X3175000Y10388600D02*
D03*
X3429000Y10446000D02*
D03*
X2939900Y10728500D02*
D03*
X4624200Y12326700D02*
D03*
X5030600Y11472700D02*
D03*
X4624200Y11405600D02*
D03*
X5564000Y11710400D02*
D03*
X5970400Y11409200D02*
D03*
X6148200Y11844400D02*
D03*
X5741800Y12234300D02*
D03*
X5481200Y11391400D02*
D03*
X5691000Y11620000D02*
D03*
X6224400Y11239000D02*
D03*
X6072000Y11721600D02*
D03*
X6061918Y12356600D02*
D03*
X6427600Y12534400D02*
D03*
X3070400Y12102200D02*
D03*
X2664000Y12321199D02*
D03*
X3070400Y11467200D02*
D03*
X2664000Y11400100D02*
D03*
X3603800Y11704899D02*
D03*
X4010200Y11403700D02*
D03*
X4188000Y11838900D02*
D03*
X3781600Y12228800D02*
D03*
X3521000Y11385900D02*
D03*
X3730800Y11614500D02*
D03*
X4264200Y11233500D02*
D03*
X3195800Y12071700D02*
D03*
X4111800Y11716100D02*
D03*
X4101718Y12351100D02*
D03*
X4467400Y12528900D02*
D03*
X6883400Y11080500D02*
D03*
X6517718Y10902700D02*
D03*
X6197600Y10780400D02*
D03*
X6604000Y10390500D02*
D03*
X6527800Y10267700D02*
D03*
X6146800Y10166100D02*
D03*
X6019800Y10256499D02*
D03*
X5937000Y9937500D02*
D03*
X5611800Y10623300D02*
D03*
X5486400Y10018800D02*
D03*
Y10653800D02*
D03*
X5080000Y9951700D02*
D03*
Y10872799D02*
D03*
%TF.MD5,6f5caa1165b25525ad4d4d94a4d2df62*%
M02*
