%TF.GenerationSoftware,Altium Limited,Altium Designer,19.0.15 (446)*%
G04 Layer_Physical_Order=3*
G04 Layer_Color=16440176*
%FSLAX45Y45*%
%MOMM*%
%TF.FileFunction,Copper,L3,Inr,Signal*%
%TF.Part,Single*%
G01*
G75*
%TA.AperFunction,ComponentPad*%
%ADD17C,1.80000*%
%TA.AperFunction,ViaPad*%
%ADD18C,0.50000*%
G36*
X12636500Y7937500D02*
X1841500D01*
Y12827000D01*
X12636500D01*
Y7937500D01*
D02*
G37*
%LPC*%
G36*
X8953500Y12651960D02*
Y12615800D01*
X8989661D01*
X8988276Y12622764D01*
X8977136Y12639436D01*
X8960465Y12650575D01*
X8953500Y12651960D01*
D02*
G37*
G36*
X8928100D02*
X8921135Y12650575D01*
X8904464Y12639436D01*
X8893324Y12622764D01*
X8891939Y12615800D01*
X8928100D01*
Y12651960D01*
D02*
G37*
G36*
X7886700Y12596461D02*
Y12560300D01*
X7922861D01*
X7921476Y12567265D01*
X7910336Y12583936D01*
X7893665Y12595076D01*
X7886700Y12596461D01*
D02*
G37*
G36*
X7861300D02*
X7854335Y12595076D01*
X7837664Y12583936D01*
X7826524Y12567265D01*
X7825139Y12560300D01*
X7861300D01*
Y12596461D01*
D02*
G37*
G36*
X8989661Y12590400D02*
X8953500D01*
Y12554239D01*
X8960465Y12555624D01*
X8977136Y12566763D01*
X8988276Y12583435D01*
X8989661Y12590400D01*
D02*
G37*
G36*
X8928100D02*
X8891939D01*
X8893324Y12583435D01*
X8904464Y12566763D01*
X8921135Y12555624D01*
X8928100Y12554239D01*
Y12590400D01*
D02*
G37*
G36*
X6440300Y12583261D02*
Y12547100D01*
X6476461D01*
X6475076Y12554065D01*
X6463937Y12570736D01*
X6447265Y12581876D01*
X6440300Y12583261D01*
D02*
G37*
G36*
X6414900D02*
X6407935Y12581876D01*
X6391264Y12570736D01*
X6380125Y12554065D01*
X6378739Y12547100D01*
X6414900D01*
Y12583261D01*
D02*
G37*
G36*
X4480100Y12577760D02*
Y12541600D01*
X4516261D01*
X4514876Y12548564D01*
X4503736Y12565236D01*
X4487065Y12576375D01*
X4480100Y12577760D01*
D02*
G37*
G36*
X4454700D02*
X4447735Y12576375D01*
X4431064Y12565236D01*
X4419924Y12548564D01*
X4418539Y12541600D01*
X4454700D01*
Y12577760D01*
D02*
G37*
G36*
X8051500Y12555861D02*
Y12519700D01*
X8087661D01*
X8086276Y12526665D01*
X8075136Y12543336D01*
X8058465Y12554476D01*
X8051500Y12555861D01*
D02*
G37*
G36*
X8026100D02*
X8019135Y12554476D01*
X8002464Y12543336D01*
X7991324Y12526665D01*
X7989939Y12519700D01*
X8026100D01*
Y12555861D01*
D02*
G37*
G36*
X7922861Y12534900D02*
X7886700D01*
Y12498739D01*
X7893665Y12500124D01*
X7910336Y12511264D01*
X7921476Y12527935D01*
X7922861Y12534900D01*
D02*
G37*
G36*
X7861300D02*
X7825139D01*
X7826524Y12527935D01*
X7837664Y12511264D01*
X7854335Y12500124D01*
X7861300Y12498739D01*
Y12534900D01*
D02*
G37*
G36*
X6476461Y12521700D02*
X6440300D01*
Y12485539D01*
X6447265Y12486924D01*
X6463937Y12498064D01*
X6475076Y12514735D01*
X6476461Y12521700D01*
D02*
G37*
G36*
X6414900D02*
X6378739D01*
X6380125Y12514735D01*
X6391264Y12498064D01*
X6407935Y12486924D01*
X6414900Y12485539D01*
Y12521700D01*
D02*
G37*
G36*
X4516261Y12516200D02*
X4480100D01*
Y12480039D01*
X4487065Y12481424D01*
X4503736Y12492563D01*
X4514876Y12509235D01*
X4516261Y12516200D01*
D02*
G37*
G36*
X4454700D02*
X4418539D01*
X4419924Y12509235D01*
X4431064Y12492563D01*
X4447735Y12481424D01*
X4454700Y12480039D01*
Y12516200D01*
D02*
G37*
G36*
X6616700Y12510561D02*
Y12474400D01*
X6652861D01*
X6651476Y12481365D01*
X6640336Y12498036D01*
X6623665Y12509175D01*
X6616700Y12510561D01*
D02*
G37*
G36*
X6591300D02*
X6584335Y12509175D01*
X6567664Y12498036D01*
X6556524Y12481365D01*
X6555139Y12474400D01*
X6591300D01*
Y12510561D01*
D02*
G37*
G36*
X9272900Y12505561D02*
Y12469400D01*
X9309061D01*
X9307676Y12476365D01*
X9296536Y12493036D01*
X9279865Y12504175D01*
X9272900Y12505561D01*
D02*
G37*
G36*
X9247500D02*
X9240535Y12504175D01*
X9223864Y12493036D01*
X9212724Y12476365D01*
X9211339Y12469400D01*
X9247500D01*
Y12505561D01*
D02*
G37*
G36*
X8087661Y12494300D02*
X8051500D01*
Y12458139D01*
X8058465Y12459524D01*
X8075136Y12470664D01*
X8086276Y12487335D01*
X8087661Y12494300D01*
D02*
G37*
G36*
X8026100D02*
X7989939D01*
X7991324Y12487335D01*
X8002464Y12470664D01*
X8019135Y12459524D01*
X8026100Y12458139D01*
Y12494300D01*
D02*
G37*
G36*
X7449800Y12522787D02*
X7430135Y12518876D01*
X7413464Y12507736D01*
X7402324Y12491065D01*
X7398413Y12471400D01*
X7402324Y12451735D01*
X7413464Y12435064D01*
X7430135Y12423924D01*
X7449800Y12420013D01*
X7469465Y12423924D01*
X7486136Y12435064D01*
X7497276Y12451735D01*
X7501187Y12471400D01*
X7497276Y12491065D01*
X7486136Y12507736D01*
X7469465Y12518876D01*
X7449800Y12522787D01*
D02*
G37*
G36*
X6652861Y12449000D02*
X6616700D01*
Y12412839D01*
X6623665Y12414224D01*
X6640336Y12425364D01*
X6651476Y12442035D01*
X6652861Y12449000D01*
D02*
G37*
G36*
X6591300D02*
X6555139D01*
X6556524Y12442035D01*
X6567664Y12425364D01*
X6584335Y12414224D01*
X6591300Y12412839D01*
Y12449000D01*
D02*
G37*
G36*
X10117200Y12514687D02*
X10097535Y12510776D01*
X10080864Y12499636D01*
X10069724Y12482965D01*
X10065812Y12463300D01*
X10069724Y12443635D01*
X10080864Y12426964D01*
X10097535Y12415825D01*
X10117200Y12411913D01*
X10136865Y12415825D01*
X10153536Y12426964D01*
X10164675Y12443635D01*
X10168587Y12463300D01*
X10164675Y12482965D01*
X10153536Y12499636D01*
X10136865Y12510776D01*
X10117200Y12514687D01*
D02*
G37*
G36*
X9309061Y12444000D02*
X9272900D01*
Y12407839D01*
X9279865Y12409224D01*
X9296536Y12420364D01*
X9307676Y12437035D01*
X9309061Y12444000D01*
D02*
G37*
G36*
X9247500D02*
X9211339D01*
X9212724Y12437035D01*
X9223864Y12420364D01*
X9240535Y12409224D01*
X9247500Y12407839D01*
Y12444000D01*
D02*
G37*
G36*
X8991600Y12467487D02*
X8971935Y12463575D01*
X8955264Y12452436D01*
X8944124Y12435765D01*
X8940213Y12416100D01*
X8944124Y12396435D01*
X8955264Y12379763D01*
X8971935Y12368624D01*
X8991600Y12364712D01*
X9011265Y12368624D01*
X9027936Y12379763D01*
X9039076Y12396435D01*
X9042987Y12416100D01*
X9039076Y12435765D01*
X9027936Y12452436D01*
X9011265Y12463575D01*
X8991600Y12467487D01*
D02*
G37*
G36*
X4636900Y12375561D02*
Y12339400D01*
X4673061D01*
X4671676Y12346365D01*
X4660537Y12363036D01*
X4643865Y12374175D01*
X4636900Y12375561D01*
D02*
G37*
G36*
X4611500D02*
X4604535Y12374175D01*
X4587864Y12363036D01*
X4576725Y12346365D01*
X4575339Y12339400D01*
X4611500D01*
Y12375561D01*
D02*
G37*
G36*
X2676700Y12370060D02*
Y12333899D01*
X2712861D01*
X2711476Y12340864D01*
X2700336Y12357536D01*
X2683665Y12368675D01*
X2676700Y12370060D01*
D02*
G37*
G36*
X2651300D02*
X2644335Y12368675D01*
X2627664Y12357536D01*
X2616524Y12340864D01*
X2615139Y12333899D01*
X2651300D01*
Y12370060D01*
D02*
G37*
G36*
X6061918Y12407987D02*
X6042253Y12404076D01*
X6025582Y12392936D01*
X6014442Y12376265D01*
X6010531Y12356600D01*
X6014442Y12336935D01*
X6025582Y12320264D01*
X6042253Y12309124D01*
X6061918Y12305213D01*
X6081583Y12309124D01*
X6098254Y12320264D01*
X6109394Y12336935D01*
X6113305Y12356600D01*
X6109394Y12376265D01*
X6098254Y12392936D01*
X6081583Y12404076D01*
X6061918Y12407987D01*
D02*
G37*
G36*
X4101718Y12402487D02*
X4082053Y12398575D01*
X4065382Y12387436D01*
X4054242Y12370764D01*
X4050330Y12351100D01*
X4054242Y12331435D01*
X4065382Y12314763D01*
X4082053Y12303624D01*
X4101718Y12299712D01*
X4121383Y12303624D01*
X4138054Y12314763D01*
X4149193Y12331435D01*
X4153105Y12351100D01*
X4149193Y12370764D01*
X4138054Y12387436D01*
X4121383Y12398575D01*
X4101718Y12402487D01*
D02*
G37*
G36*
X4673061Y12314000D02*
X4636900D01*
Y12277839D01*
X4643865Y12279224D01*
X4660537Y12290364D01*
X4671676Y12307035D01*
X4673061Y12314000D01*
D02*
G37*
G36*
X4611500D02*
X4575339D01*
X4576725Y12307035D01*
X4587864Y12290364D01*
X4604535Y12279224D01*
X4611500Y12277839D01*
Y12314000D01*
D02*
G37*
G36*
X2712861Y12308499D02*
X2676700D01*
Y12272338D01*
X2683665Y12273724D01*
X2700336Y12284863D01*
X2711476Y12301534D01*
X2712861Y12308499D01*
D02*
G37*
G36*
X2651300D02*
X2615139D01*
X2616524Y12301534D01*
X2627664Y12284863D01*
X2644335Y12273724D01*
X2651300Y12272338D01*
Y12308499D01*
D02*
G37*
G36*
X10198500Y12295761D02*
Y12259600D01*
X10234661D01*
X10233275Y12266564D01*
X10222136Y12283236D01*
X10205465Y12294375D01*
X10198500Y12295761D01*
D02*
G37*
G36*
X10173100D02*
X10166135Y12294375D01*
X10149464Y12283236D01*
X10138324Y12266564D01*
X10136939Y12259600D01*
X10173100D01*
Y12295761D01*
D02*
G37*
G36*
X8432800Y12324787D02*
X8413135Y12320876D01*
X8396464Y12309736D01*
X8385324Y12293065D01*
X8381413Y12273400D01*
X8385324Y12253735D01*
X8396464Y12237064D01*
X8413135Y12225924D01*
X8432800Y12222013D01*
X8452465Y12225924D01*
X8469136Y12237064D01*
X8480276Y12253735D01*
X8484187Y12273400D01*
X8480276Y12293065D01*
X8469136Y12309736D01*
X8452465Y12320876D01*
X8432800Y12324787D01*
D02*
G37*
G36*
X9806300Y12252961D02*
Y12216800D01*
X9842461D01*
X9841076Y12223765D01*
X9829936Y12240437D01*
X9813265Y12251576D01*
X9806300Y12252961D01*
D02*
G37*
G36*
X9780900D02*
X9773935Y12251576D01*
X9757264Y12240437D01*
X9746124Y12223765D01*
X9744739Y12216800D01*
X9780900D01*
Y12252961D01*
D02*
G37*
G36*
X10234661Y12234200D02*
X10198500D01*
Y12198039D01*
X10205465Y12199424D01*
X10222136Y12210563D01*
X10233275Y12227235D01*
X10234661Y12234200D01*
D02*
G37*
G36*
X10173100D02*
X10136939D01*
X10138324Y12227235D01*
X10149464Y12210563D01*
X10166135Y12199424D01*
X10173100Y12198039D01*
Y12234200D01*
D02*
G37*
G36*
X7848600Y12288587D02*
X7828935Y12284676D01*
X7812264Y12273536D01*
X7801124Y12256865D01*
X7797213Y12237200D01*
X7801124Y12217535D01*
X7812264Y12200864D01*
X7828935Y12189724D01*
X7848600Y12185813D01*
X7868265Y12189724D01*
X7884936Y12200864D01*
X7896076Y12217535D01*
X7899987Y12237200D01*
X7896076Y12256865D01*
X7884936Y12273536D01*
X7868265Y12284676D01*
X7848600Y12288587D01*
D02*
G37*
G36*
X6996500D02*
X6976835Y12284676D01*
X6960164Y12273536D01*
X6949024Y12256865D01*
X6945113Y12237200D01*
X6949024Y12217535D01*
X6960164Y12200864D01*
X6976835Y12189724D01*
X6996500Y12185813D01*
X7016165Y12189724D01*
X7032836Y12200864D01*
X7043976Y12217535D01*
X7047887Y12237200D01*
X7043976Y12256865D01*
X7032836Y12273536D01*
X7016165Y12284676D01*
X6996500Y12288587D01*
D02*
G37*
G36*
X7975600Y12285687D02*
X7955935Y12281776D01*
X7939264Y12270636D01*
X7928124Y12253965D01*
X7924213Y12234300D01*
X7928124Y12214635D01*
X7939264Y12197964D01*
X7955935Y12186824D01*
X7975600Y12182913D01*
X7995265Y12186824D01*
X8011936Y12197964D01*
X8023076Y12214635D01*
X8026987Y12234300D01*
X8023076Y12253965D01*
X8011936Y12270636D01*
X7995265Y12281776D01*
X7975600Y12285687D01*
D02*
G37*
G36*
X5741800D02*
X5722135Y12281776D01*
X5705464Y12270636D01*
X5694325Y12253965D01*
X5690413Y12234300D01*
X5694325Y12214635D01*
X5705464Y12197964D01*
X5722135Y12186824D01*
X5741800Y12182913D01*
X5761465Y12186824D01*
X5778137Y12197964D01*
X5789276Y12214635D01*
X5793188Y12234300D01*
X5789276Y12253965D01*
X5778137Y12270636D01*
X5761465Y12281776D01*
X5741800Y12285687D01*
D02*
G37*
G36*
X3781600Y12280187D02*
X3761935Y12276275D01*
X3745264Y12265136D01*
X3734124Y12248464D01*
X3730213Y12228800D01*
X3734124Y12209135D01*
X3745264Y12192463D01*
X3761935Y12181324D01*
X3781600Y12177412D01*
X3801265Y12181324D01*
X3817936Y12192463D01*
X3829076Y12209135D01*
X3832987Y12228800D01*
X3829076Y12248464D01*
X3817936Y12265136D01*
X3801265Y12276275D01*
X3781600Y12280187D01*
D02*
G37*
G36*
X9652700Y12273387D02*
X9633035Y12269476D01*
X9616364Y12258336D01*
X9605224Y12241665D01*
X9601313Y12222000D01*
X9605224Y12202335D01*
X9616364Y12185664D01*
X9633035Y12174525D01*
X9652700Y12170613D01*
X9672365Y12174525D01*
X9689036Y12185664D01*
X9700176Y12202335D01*
X9704087Y12222000D01*
X9700176Y12241665D01*
X9689036Y12258336D01*
X9672365Y12269476D01*
X9652700Y12273387D01*
D02*
G37*
G36*
X9842461Y12191400D02*
X9806300D01*
Y12155239D01*
X9813265Y12156625D01*
X9829936Y12167764D01*
X9841076Y12184435D01*
X9842461Y12191400D01*
D02*
G37*
G36*
X9780900D02*
X9744739D01*
X9746124Y12184435D01*
X9757264Y12167764D01*
X9773935Y12156625D01*
X9780900Y12155239D01*
Y12191400D01*
D02*
G37*
G36*
X3350260Y12243387D02*
X3330595Y12239476D01*
X3313924Y12228336D01*
X3302784Y12211665D01*
X3298873Y12192000D01*
X3302784Y12172335D01*
X3313924Y12155664D01*
X3330595Y12144524D01*
X3350260Y12140613D01*
X3369925Y12144524D01*
X3386596Y12155664D01*
X3397736Y12172335D01*
X3401647Y12192000D01*
X3397736Y12211665D01*
X3386596Y12228336D01*
X3369925Y12239476D01*
X3350260Y12243387D01*
D02*
G37*
G36*
X5344160Y12238307D02*
X5324495Y12234396D01*
X5307824Y12223256D01*
X5296684Y12206585D01*
X5292773Y12186920D01*
X5296684Y12167255D01*
X5307824Y12150584D01*
X5324495Y12139444D01*
X5344160Y12135533D01*
X5363825Y12139444D01*
X5380496Y12150584D01*
X5391636Y12167255D01*
X5395547Y12186920D01*
X5391636Y12206585D01*
X5380496Y12223256D01*
X5363825Y12234396D01*
X5344160Y12238307D01*
D02*
G37*
G36*
X9080500Y12142861D02*
Y12106700D01*
X9116661D01*
X9115276Y12113665D01*
X9104136Y12130336D01*
X9087465Y12141475D01*
X9080500Y12142861D01*
D02*
G37*
G36*
X9055100D02*
X9048135Y12141475D01*
X9031464Y12130336D01*
X9020324Y12113665D01*
X9018939Y12106700D01*
X9055100D01*
Y12142861D01*
D02*
G37*
G36*
X5168700Y12126061D02*
Y12089900D01*
X5204861D01*
X5203476Y12096865D01*
X5192337Y12113536D01*
X5175665Y12124676D01*
X5168700Y12126061D01*
D02*
G37*
G36*
X5143300D02*
X5136335Y12124676D01*
X5119664Y12113536D01*
X5108525Y12096865D01*
X5107139Y12089900D01*
X5143300D01*
Y12126061D01*
D02*
G37*
G36*
X3208500Y12120560D02*
Y12084400D01*
X3244661D01*
X3243276Y12091364D01*
X3232136Y12108036D01*
X3215465Y12119175D01*
X3208500Y12120560D01*
D02*
G37*
G36*
X3183100D02*
X3176135Y12119175D01*
X3159464Y12108036D01*
X3148324Y12091364D01*
X3146939Y12084400D01*
X3183100D01*
Y12120560D01*
D02*
G37*
G36*
X5030600Y12159087D02*
X5010935Y12155176D01*
X4994264Y12144036D01*
X4983125Y12127365D01*
X4979213Y12107700D01*
X4983125Y12088035D01*
X4994264Y12071364D01*
X5010935Y12060224D01*
X5030600Y12056313D01*
X5050265Y12060224D01*
X5066937Y12071364D01*
X5078076Y12088035D01*
X5081988Y12107700D01*
X5078076Y12127365D01*
X5066937Y12144036D01*
X5050265Y12155176D01*
X5030600Y12159087D01*
D02*
G37*
G36*
X7581900Y12088461D02*
Y12052300D01*
X7618061D01*
X7616676Y12059265D01*
X7605536Y12075936D01*
X7588865Y12087076D01*
X7581900Y12088461D01*
D02*
G37*
G36*
X7556500D02*
X7549535Y12087076D01*
X7532864Y12075936D01*
X7521724Y12059265D01*
X7520339Y12052300D01*
X7556500D01*
Y12088461D01*
D02*
G37*
G36*
X3070400Y12153587D02*
X3050735Y12149675D01*
X3034064Y12138536D01*
X3022924Y12121865D01*
X3019013Y12102200D01*
X3022924Y12082535D01*
X3034064Y12065863D01*
X3050735Y12054724D01*
X3070400Y12050812D01*
X3090065Y12054724D01*
X3106736Y12065863D01*
X3117876Y12082535D01*
X3121787Y12102200D01*
X3117876Y12121865D01*
X3106736Y12138536D01*
X3090065Y12149675D01*
X3070400Y12153587D01*
D02*
G37*
G36*
X9116661Y12081300D02*
X9080500D01*
Y12045139D01*
X9087465Y12046524D01*
X9104136Y12057663D01*
X9115276Y12074335D01*
X9116661Y12081300D01*
D02*
G37*
G36*
X9055100D02*
X9018939D01*
X9020324Y12074335D01*
X9031464Y12057663D01*
X9048135Y12046524D01*
X9055100Y12045139D01*
Y12081300D01*
D02*
G37*
G36*
X5204861Y12064500D02*
X5168700D01*
Y12028339D01*
X5175665Y12029724D01*
X5192337Y12040864D01*
X5203476Y12057535D01*
X5204861Y12064500D01*
D02*
G37*
G36*
X5143300D02*
X5107139D01*
X5108525Y12057535D01*
X5119664Y12040864D01*
X5136335Y12029724D01*
X5143300Y12028339D01*
Y12064500D01*
D02*
G37*
G36*
X3244661Y12059000D02*
X3208500D01*
Y12022839D01*
X3215465Y12024224D01*
X3232136Y12035363D01*
X3243276Y12052035D01*
X3244661Y12059000D01*
D02*
G37*
G36*
X3183100D02*
X3146939D01*
X3148324Y12052035D01*
X3159464Y12035363D01*
X3176135Y12024224D01*
X3183100Y12022839D01*
Y12059000D01*
D02*
G37*
G36*
X8915400Y12097087D02*
X8895735Y12093175D01*
X8879064Y12082036D01*
X8867924Y12065365D01*
X8864013Y12045700D01*
X8867924Y12026035D01*
X8879064Y12009364D01*
X8895735Y11998224D01*
X8915400Y11994313D01*
X8935065Y11998224D01*
X8951736Y12009364D01*
X8962876Y12026035D01*
X8966787Y12045700D01*
X8962876Y12065365D01*
X8951736Y12082036D01*
X8935065Y12093175D01*
X8915400Y12097087D01*
D02*
G37*
G36*
X7180400D02*
X7160735Y12093175D01*
X7144064Y12082036D01*
X7132925Y12065365D01*
X7129013Y12045700D01*
X7132925Y12026035D01*
X7144064Y12009364D01*
X7160735Y11998224D01*
X7180400Y11994313D01*
X7200065Y11998224D01*
X7216736Y12009364D01*
X7227876Y12026035D01*
X7231787Y12045700D01*
X7227876Y12065365D01*
X7216736Y12082036D01*
X7200065Y12093175D01*
X7180400Y12097087D01*
D02*
G37*
G36*
X7618061Y12026900D02*
X7581900D01*
Y11990739D01*
X7588865Y11992124D01*
X7605536Y12003264D01*
X7616676Y12019935D01*
X7618061Y12026900D01*
D02*
G37*
G36*
X7556500D02*
X7520339D01*
X7521724Y12019935D01*
X7532864Y12003264D01*
X7549535Y11992124D01*
X7556500Y11990739D01*
Y12026900D01*
D02*
G37*
G36*
X6510000Y12090987D02*
X6490335Y12087076D01*
X6473664Y12075936D01*
X6462524Y12059265D01*
X6458613Y12039600D01*
X6462524Y12019935D01*
X6473664Y12003264D01*
X6490335Y11992124D01*
X6510000Y11988213D01*
X6529665Y11992124D01*
X6546336Y12003264D01*
X6557476Y12019935D01*
X6561387Y12039600D01*
X6557476Y12059265D01*
X6546336Y12075936D01*
X6529665Y12087076D01*
X6510000Y12090987D01*
D02*
G37*
G36*
X8076372Y11963987D02*
X8056707Y11960076D01*
X8040036Y11948936D01*
X8028897Y11932265D01*
X8024985Y11912600D01*
X8028897Y11892935D01*
X8040036Y11876264D01*
X8056707Y11865124D01*
X8076372Y11861213D01*
X8096037Y11865124D01*
X8112708Y11876264D01*
X8123848Y11892935D01*
X8127759Y11912600D01*
X8123848Y11932265D01*
X8112708Y11948936D01*
X8096037Y11960076D01*
X8076372Y11963987D01*
D02*
G37*
G36*
X8890000Y11962587D02*
X8870335Y11958675D01*
X8853664Y11947536D01*
X8842524Y11930865D01*
X8838613Y11911200D01*
X8842524Y11891535D01*
X8853664Y11874863D01*
X8870335Y11863724D01*
X8890000Y11859812D01*
X8909665Y11863724D01*
X8926336Y11874863D01*
X8937476Y11891535D01*
X8941387Y11911200D01*
X8937476Y11930865D01*
X8926336Y11947536D01*
X8909665Y11958675D01*
X8890000Y11962587D01*
D02*
G37*
G36*
X11250700Y11876143D02*
Y11839982D01*
X11286861D01*
X11285476Y11846947D01*
X11274336Y11863618D01*
X11257665Y11874758D01*
X11250700Y11876143D01*
D02*
G37*
G36*
X11225300D02*
X11218335Y11874758D01*
X11201664Y11863618D01*
X11190524Y11846947D01*
X11189139Y11839982D01*
X11225300D01*
Y11876143D01*
D02*
G37*
G36*
X4729887Y11938587D02*
X4710222Y11934676D01*
X4693550Y11923536D01*
X4682411Y11906865D01*
X4678499Y11887200D01*
X4682411Y11867535D01*
X4693550Y11850864D01*
X4710222Y11839724D01*
X4729887Y11835813D01*
X4749552Y11839724D01*
X4766223Y11850864D01*
X4777362Y11867535D01*
X4781274Y11887200D01*
X4777362Y11906865D01*
X4766223Y11923536D01*
X4749552Y11934676D01*
X4729887Y11938587D01*
D02*
G37*
G36*
X9321800Y11913187D02*
X9302135Y11909276D01*
X9285464Y11898136D01*
X9274324Y11881465D01*
X9270413Y11861800D01*
X9274324Y11842135D01*
X9285464Y11825464D01*
X9302135Y11814324D01*
X9321800Y11810413D01*
X9341465Y11814324D01*
X9358136Y11825464D01*
X9369276Y11842135D01*
X9373187Y11861800D01*
X9369276Y11881465D01*
X9358136Y11898136D01*
X9341465Y11909276D01*
X9321800Y11913187D01*
D02*
G37*
G36*
X6148200Y11895787D02*
X6128535Y11891876D01*
X6111864Y11880736D01*
X6100725Y11864065D01*
X6096813Y11844400D01*
X6100725Y11824735D01*
X6111864Y11808064D01*
X6128535Y11796924D01*
X6148200Y11793013D01*
X6167865Y11796924D01*
X6184537Y11808064D01*
X6195676Y11824735D01*
X6199588Y11844400D01*
X6195676Y11864065D01*
X6184537Y11880736D01*
X6167865Y11891876D01*
X6148200Y11895787D01*
D02*
G37*
G36*
X4188000Y11890287D02*
X4168335Y11886375D01*
X4151664Y11875236D01*
X4140524Y11858565D01*
X4136613Y11838900D01*
X4140524Y11819235D01*
X4151664Y11802563D01*
X4168335Y11791424D01*
X4188000Y11787512D01*
X4207665Y11791424D01*
X4224336Y11802563D01*
X4235476Y11819235D01*
X4239387Y11838900D01*
X4235476Y11858565D01*
X4224336Y11875236D01*
X4207665Y11886375D01*
X4188000Y11890287D01*
D02*
G37*
G36*
X11286861Y11814582D02*
X11250700D01*
Y11778421D01*
X11257665Y11779806D01*
X11274336Y11790946D01*
X11285476Y11807617D01*
X11286861Y11814582D01*
D02*
G37*
G36*
X11225300D02*
X11189139D01*
X11190524Y11807617D01*
X11201664Y11790946D01*
X11218335Y11779806D01*
X11225300Y11778421D01*
Y11814582D01*
D02*
G37*
G36*
X4495800Y11871787D02*
X4476135Y11867875D01*
X4459464Y11856736D01*
X4448324Y11840065D01*
X4444413Y11820400D01*
X4448324Y11800735D01*
X4459464Y11784064D01*
X4476135Y11772924D01*
X4495800Y11769013D01*
X4515465Y11772924D01*
X4532136Y11784064D01*
X4543276Y11800735D01*
X4547187Y11820400D01*
X4543276Y11840065D01*
X4532136Y11856736D01*
X4515465Y11867875D01*
X4495800Y11871787D01*
D02*
G37*
G36*
X7162800Y11862387D02*
X7143135Y11858476D01*
X7126464Y11847336D01*
X7115324Y11830665D01*
X7111413Y11811000D01*
X7115324Y11791335D01*
X7126464Y11774664D01*
X7143135Y11763524D01*
X7162800Y11759613D01*
X7182465Y11763524D01*
X7199136Y11774664D01*
X7210276Y11791335D01*
X7214187Y11811000D01*
X7210276Y11830665D01*
X7199136Y11847336D01*
X7182465Y11858476D01*
X7162800Y11862387D01*
D02*
G37*
G36*
X6084700Y11770461D02*
Y11734300D01*
X6120861D01*
X6119476Y11741265D01*
X6108337Y11757936D01*
X6091665Y11769076D01*
X6084700Y11770461D01*
D02*
G37*
G36*
X6059300D02*
X6052335Y11769076D01*
X6035664Y11757936D01*
X6024525Y11741265D01*
X6023139Y11734300D01*
X6059300D01*
Y11770461D01*
D02*
G37*
G36*
X4124500Y11764960D02*
Y11728800D01*
X4160661D01*
X4159276Y11735764D01*
X4148136Y11752436D01*
X4131465Y11763575D01*
X4124500Y11764960D01*
D02*
G37*
G36*
X4099100D02*
X4092135Y11763575D01*
X4075464Y11752436D01*
X4064324Y11735764D01*
X4062939Y11728800D01*
X4099100D01*
Y11764960D01*
D02*
G37*
G36*
X10875900Y11821287D02*
X10856235Y11817375D01*
X10839564Y11806236D01*
X10828424Y11789565D01*
X10824513Y11769900D01*
X10828424Y11750235D01*
X10839564Y11733564D01*
X10856235Y11722424D01*
X10875900Y11718513D01*
X10895565Y11722424D01*
X10912236Y11733564D01*
X10923376Y11750235D01*
X10927287Y11769900D01*
X10923376Y11789565D01*
X10912236Y11806236D01*
X10895565Y11817375D01*
X10875900Y11821287D01*
D02*
G37*
G36*
X10617200Y11816187D02*
X10597535Y11812276D01*
X10580864Y11801136D01*
X10569724Y11784465D01*
X10565813Y11764800D01*
X10569724Y11745135D01*
X10580864Y11728464D01*
X10597535Y11717325D01*
X10617200Y11713413D01*
X10636865Y11717325D01*
X10653536Y11728464D01*
X10664676Y11745135D01*
X10668587Y11764800D01*
X10664676Y11784465D01*
X10653536Y11801136D01*
X10636865Y11812276D01*
X10617200Y11816187D01*
D02*
G37*
G36*
X10403200D02*
X10383535Y11812276D01*
X10366864Y11801136D01*
X10355724Y11784465D01*
X10351813Y11764800D01*
X10355724Y11745135D01*
X10366864Y11728464D01*
X10383535Y11717325D01*
X10403200Y11713413D01*
X10422865Y11717325D01*
X10439536Y11728464D01*
X10450676Y11745135D01*
X10454587Y11764800D01*
X10450676Y11784465D01*
X10439536Y11801136D01*
X10422865Y11812276D01*
X10403200Y11816187D01*
D02*
G37*
G36*
X7797800Y11811587D02*
X7778135Y11807676D01*
X7761464Y11796536D01*
X7750324Y11779865D01*
X7746413Y11760200D01*
X7750324Y11740535D01*
X7761464Y11723864D01*
X7778135Y11712724D01*
X7797800Y11708813D01*
X7817465Y11712724D01*
X7834136Y11723864D01*
X7845276Y11740535D01*
X7849187Y11760200D01*
X7845276Y11779865D01*
X7834136Y11796536D01*
X7817465Y11807676D01*
X7797800Y11811587D01*
D02*
G37*
G36*
X7950200Y11800387D02*
X7930535Y11796476D01*
X7913864Y11785336D01*
X7902724Y11768665D01*
X7898813Y11749000D01*
X7902724Y11729335D01*
X7913864Y11712664D01*
X7930535Y11701524D01*
X7950200Y11697613D01*
X7969865Y11701524D01*
X7986536Y11712664D01*
X7997676Y11729335D01*
X8001587Y11749000D01*
X7997676Y11768665D01*
X7986536Y11785336D01*
X7969865Y11796476D01*
X7950200Y11800387D01*
D02*
G37*
G36*
X6120861Y11708900D02*
X6084700D01*
Y11672739D01*
X6091665Y11674124D01*
X6108337Y11685264D01*
X6119476Y11701935D01*
X6120861Y11708900D01*
D02*
G37*
G36*
X6059300D02*
X6023139D01*
X6024525Y11701935D01*
X6035664Y11685264D01*
X6052335Y11674124D01*
X6059300Y11672739D01*
Y11708900D01*
D02*
G37*
G36*
X4160661Y11703400D02*
X4124500D01*
Y11667239D01*
X4131465Y11668624D01*
X4148136Y11679763D01*
X4159276Y11696435D01*
X4160661Y11703400D01*
D02*
G37*
G36*
X4099100D02*
X4062939D01*
X4064324Y11696435D01*
X4075464Y11679763D01*
X4092135Y11668624D01*
X4099100Y11667239D01*
Y11703400D01*
D02*
G37*
G36*
X5564000Y11761787D02*
X5544335Y11757875D01*
X5527664Y11746736D01*
X5516525Y11730065D01*
X5512613Y11710400D01*
X5516525Y11690735D01*
X5527664Y11674064D01*
X5544335Y11662924D01*
X5564000Y11659012D01*
X5583665Y11662924D01*
X5600337Y11674064D01*
X5611476Y11690735D01*
X5615388Y11710400D01*
X5611476Y11730065D01*
X5600337Y11746736D01*
X5583665Y11757875D01*
X5564000Y11761787D01*
D02*
G37*
G36*
X8610600Y11760787D02*
X8590935Y11756876D01*
X8574264Y11745736D01*
X8563124Y11729065D01*
X8559213Y11709400D01*
X8563124Y11689735D01*
X8574264Y11673064D01*
X8590935Y11661924D01*
X8610600Y11658013D01*
X8630265Y11661924D01*
X8646936Y11673064D01*
X8658076Y11689735D01*
X8661987Y11709400D01*
X8658076Y11729065D01*
X8646936Y11745736D01*
X8630265Y11756876D01*
X8610600Y11760787D01*
D02*
G37*
G36*
X3603800Y11756287D02*
X3584135Y11752375D01*
X3567464Y11741236D01*
X3556324Y11724564D01*
X3552413Y11704899D01*
X3556324Y11685234D01*
X3567464Y11668563D01*
X3584135Y11657424D01*
X3603800Y11653512D01*
X3623465Y11657424D01*
X3640136Y11668563D01*
X3651276Y11685234D01*
X3655187Y11704899D01*
X3651276Y11724564D01*
X3640136Y11741236D01*
X3623465Y11752375D01*
X3603800Y11756287D01*
D02*
G37*
G36*
X5703700Y11668861D02*
Y11632700D01*
X5739861D01*
X5738476Y11639665D01*
X5727337Y11656336D01*
X5710665Y11667476D01*
X5703700Y11668861D01*
D02*
G37*
G36*
X5678300D02*
X5671335Y11667476D01*
X5654664Y11656336D01*
X5643525Y11639665D01*
X5642139Y11632700D01*
X5678300D01*
Y11668861D01*
D02*
G37*
G36*
X4546600Y11735387D02*
X4526935Y11731476D01*
X4510264Y11720336D01*
X4499124Y11703665D01*
X4495213Y11684000D01*
X4499124Y11664335D01*
X4510264Y11647664D01*
X4526935Y11636524D01*
X4546600Y11632613D01*
X4566265Y11636524D01*
X4582936Y11647664D01*
X4594076Y11664335D01*
X4597987Y11684000D01*
X4594076Y11703665D01*
X4582936Y11720336D01*
X4566265Y11731476D01*
X4546600Y11735387D01*
D02*
G37*
G36*
X3743500Y11663360D02*
Y11627200D01*
X3779661D01*
X3778276Y11634164D01*
X3767136Y11650836D01*
X3750465Y11661975D01*
X3743500Y11663360D01*
D02*
G37*
G36*
X3718100D02*
X3711135Y11661975D01*
X3694464Y11650836D01*
X3683324Y11634164D01*
X3681939Y11627200D01*
X3718100D01*
Y11663360D01*
D02*
G37*
G36*
X5739861Y11607300D02*
X5703700D01*
Y11571139D01*
X5710665Y11572524D01*
X5727337Y11583664D01*
X5738476Y11600335D01*
X5739861Y11607300D01*
D02*
G37*
G36*
X5678300D02*
X5642139D01*
X5643525Y11600335D01*
X5654664Y11583664D01*
X5671335Y11572524D01*
X5678300Y11571139D01*
Y11607300D01*
D02*
G37*
G36*
X3779661Y11601800D02*
X3743500D01*
Y11565639D01*
X3750465Y11567024D01*
X3767136Y11578163D01*
X3778276Y11594835D01*
X3779661Y11601800D01*
D02*
G37*
G36*
X3718100D02*
X3681939D01*
X3683324Y11594835D01*
X3694464Y11578163D01*
X3711135Y11567024D01*
X3718100Y11565639D01*
Y11601800D01*
D02*
G37*
G36*
X5484400Y11619087D02*
X5464735Y11615176D01*
X5448064Y11604036D01*
X5436925Y11587365D01*
X5433013Y11567700D01*
X5436925Y11548035D01*
X5448064Y11531364D01*
X5464735Y11520224D01*
X5484400Y11516313D01*
X5504065Y11520224D01*
X5520736Y11531364D01*
X5531876Y11548035D01*
X5535788Y11567700D01*
X5531876Y11587365D01*
X5520736Y11604036D01*
X5504065Y11615176D01*
X5484400Y11619087D01*
D02*
G37*
G36*
X3529200D02*
X3509535Y11615176D01*
X3492864Y11604036D01*
X3481724Y11587365D01*
X3477813Y11567700D01*
X3481724Y11548035D01*
X3492864Y11531364D01*
X3509535Y11520224D01*
X3529200Y11516313D01*
X3548865Y11520224D01*
X3565536Y11531364D01*
X3576676Y11548035D01*
X3580587Y11567700D01*
X3576676Y11587365D01*
X3565536Y11604036D01*
X3548865Y11615176D01*
X3529200Y11619087D01*
D02*
G37*
G36*
X8883400Y11606987D02*
X8863735Y11603075D01*
X8847064Y11591936D01*
X8835924Y11575265D01*
X8832013Y11555600D01*
X8835924Y11535935D01*
X8847064Y11519263D01*
X8863735Y11508124D01*
X8883400Y11504212D01*
X8903065Y11508124D01*
X8919736Y11519263D01*
X8930875Y11535935D01*
X8934787Y11555600D01*
X8930875Y11575265D01*
X8919736Y11591936D01*
X8903065Y11603075D01*
X8883400Y11606987D01*
D02*
G37*
G36*
X10588800Y11582987D02*
X10569135Y11579076D01*
X10552464Y11567936D01*
X10541324Y11551265D01*
X10537413Y11531600D01*
X10541324Y11511935D01*
X10552464Y11495264D01*
X10569135Y11484124D01*
X10588800Y11480213D01*
X10608465Y11484124D01*
X10625136Y11495264D01*
X10636276Y11511935D01*
X10640187Y11531600D01*
X10636276Y11551265D01*
X10625136Y11567936D01*
X10608465Y11579076D01*
X10588800Y11582987D01*
D02*
G37*
G36*
X8051500Y11502961D02*
Y11466800D01*
X8087661D01*
X8086276Y11473765D01*
X8075136Y11490436D01*
X8058465Y11501575D01*
X8051500Y11502961D01*
D02*
G37*
G36*
X8026100D02*
X8019135Y11501575D01*
X8002464Y11490436D01*
X7991324Y11473765D01*
X7989939Y11466800D01*
X8026100D01*
Y11502961D01*
D02*
G37*
G36*
X6616700Y11495061D02*
Y11458900D01*
X6652861D01*
X6651476Y11465865D01*
X6640336Y11482536D01*
X6623665Y11493676D01*
X6616700Y11495061D01*
D02*
G37*
G36*
X6591300D02*
X6584335Y11493676D01*
X6567664Y11482536D01*
X6556524Y11465865D01*
X6555139Y11458900D01*
X6591300D01*
Y11495061D01*
D02*
G37*
G36*
X9272900Y11489561D02*
Y11453400D01*
X9309061D01*
X9307676Y11460365D01*
X9296536Y11477036D01*
X9279865Y11488176D01*
X9272900Y11489561D01*
D02*
G37*
G36*
X9247500D02*
X9240535Y11488176D01*
X9223864Y11477036D01*
X9212724Y11460365D01*
X9211339Y11453400D01*
X9247500D01*
Y11489561D01*
D02*
G37*
G36*
X8432800Y11550087D02*
X8413135Y11546176D01*
X8396464Y11535036D01*
X8385324Y11518365D01*
X8381413Y11498700D01*
X8385324Y11479035D01*
X8396464Y11462364D01*
X8413135Y11451224D01*
X8432800Y11447313D01*
X8452465Y11451224D01*
X8469136Y11462364D01*
X8480276Y11479035D01*
X8484187Y11498700D01*
X8480276Y11518365D01*
X8469136Y11535036D01*
X8452465Y11546176D01*
X8432800Y11550087D01*
D02*
G37*
G36*
X11123700Y11478861D02*
Y11442700D01*
X11159861D01*
X11158476Y11449665D01*
X11147336Y11466336D01*
X11130665Y11477476D01*
X11123700Y11478861D01*
D02*
G37*
G36*
X11098300D02*
X11091335Y11477476D01*
X11074664Y11466336D01*
X11063524Y11449665D01*
X11062139Y11442700D01*
X11098300D01*
Y11478861D01*
D02*
G37*
G36*
X11365000Y11538787D02*
X11345335Y11534876D01*
X11328664Y11523736D01*
X11317524Y11507065D01*
X11313613Y11487400D01*
X11317524Y11467735D01*
X11328664Y11451064D01*
X11345335Y11439925D01*
X11365000Y11436013D01*
X11384665Y11439925D01*
X11401336Y11451064D01*
X11412476Y11467735D01*
X11416387Y11487400D01*
X11412476Y11507065D01*
X11401336Y11523736D01*
X11384665Y11534876D01*
X11365000Y11538787D01*
D02*
G37*
G36*
X9652700Y11524087D02*
X9633035Y11520176D01*
X9616364Y11509036D01*
X9605224Y11492365D01*
X9601313Y11472700D01*
X9605224Y11453035D01*
X9616364Y11436364D01*
X9633035Y11425225D01*
X9652700Y11421313D01*
X9672365Y11425225D01*
X9689036Y11436364D01*
X9700176Y11453035D01*
X9704087Y11472700D01*
X9700176Y11492365D01*
X9689036Y11509036D01*
X9672365Y11520176D01*
X9652700Y11524087D01*
D02*
G37*
G36*
X5030600Y11524087D02*
X5010935Y11520176D01*
X4994264Y11509036D01*
X4983125Y11492365D01*
X4979213Y11472700D01*
X4983125Y11453035D01*
X4994264Y11436364D01*
X5010935Y11425224D01*
X5030600Y11421313D01*
X5050265Y11425224D01*
X5066937Y11436364D01*
X5078076Y11453035D01*
X5081988Y11472700D01*
X5078076Y11492365D01*
X5066937Y11509036D01*
X5050265Y11520176D01*
X5030600Y11524087D01*
D02*
G37*
G36*
X4636900Y11454461D02*
Y11418300D01*
X4673061D01*
X4671676Y11425265D01*
X4660537Y11441936D01*
X4643865Y11453076D01*
X4636900Y11454461D01*
D02*
G37*
G36*
X4611500D02*
X4604535Y11453076D01*
X4587864Y11441936D01*
X4576725Y11425265D01*
X4575339Y11418300D01*
X4611500D01*
Y11454461D01*
D02*
G37*
G36*
X6996500Y11519087D02*
X6976835Y11515176D01*
X6960164Y11504036D01*
X6949024Y11487365D01*
X6945113Y11467700D01*
X6949024Y11448035D01*
X6960164Y11431364D01*
X6976835Y11420224D01*
X6996500Y11416313D01*
X7016165Y11420224D01*
X7032836Y11431364D01*
X7043976Y11448035D01*
X7047887Y11467700D01*
X7043976Y11487365D01*
X7032836Y11504036D01*
X7016165Y11515176D01*
X6996500Y11519087D01*
D02*
G37*
G36*
X3070400Y11518587D02*
X3050735Y11514675D01*
X3034064Y11503536D01*
X3022924Y11486865D01*
X3019013Y11467200D01*
X3022924Y11447535D01*
X3034064Y11430863D01*
X3050735Y11419724D01*
X3070400Y11415812D01*
X3090065Y11419724D01*
X3106736Y11430863D01*
X3117876Y11447535D01*
X3121787Y11467200D01*
X3117876Y11486865D01*
X3106736Y11503536D01*
X3090065Y11514675D01*
X3070400Y11518587D01*
D02*
G37*
G36*
X2676700Y11448961D02*
Y11412800D01*
X2712861D01*
X2711476Y11419765D01*
X2700336Y11436436D01*
X2683665Y11447575D01*
X2676700Y11448961D01*
D02*
G37*
G36*
X2651300D02*
X2644335Y11447575D01*
X2627664Y11436436D01*
X2616524Y11419765D01*
X2615139Y11412800D01*
X2651300D01*
Y11448961D01*
D02*
G37*
G36*
X8087661Y11441400D02*
X8051500D01*
Y11405239D01*
X8058465Y11406624D01*
X8075136Y11417764D01*
X8086276Y11434435D01*
X8087661Y11441400D01*
D02*
G37*
G36*
X8026100D02*
X7989939D01*
X7991324Y11434435D01*
X8002464Y11417764D01*
X8019135Y11406624D01*
X8026100Y11405239D01*
Y11441400D01*
D02*
G37*
G36*
X4433800Y11506787D02*
X4414135Y11502876D01*
X4397464Y11491736D01*
X4386324Y11475065D01*
X4382413Y11455400D01*
X4386324Y11435735D01*
X4397464Y11419064D01*
X4414135Y11407924D01*
X4433800Y11404013D01*
X4453465Y11407924D01*
X4470136Y11419064D01*
X4481276Y11435735D01*
X4485187Y11455400D01*
X4481276Y11475065D01*
X4470136Y11491736D01*
X4453465Y11502876D01*
X4433800Y11506787D01*
D02*
G37*
G36*
X6652861Y11433500D02*
X6616700D01*
Y11397339D01*
X6623665Y11398724D01*
X6640336Y11409864D01*
X6651476Y11426535D01*
X6652861Y11433500D01*
D02*
G37*
G36*
X6591300D02*
X6555139D01*
X6556524Y11426535D01*
X6567664Y11409864D01*
X6584335Y11398724D01*
X6591300Y11397339D01*
Y11433500D01*
D02*
G37*
G36*
X9309061Y11428000D02*
X9272900D01*
Y11391839D01*
X9279865Y11393224D01*
X9296536Y11404364D01*
X9307676Y11421035D01*
X9309061Y11428000D01*
D02*
G37*
G36*
X9247500D02*
X9211339D01*
X9212724Y11421035D01*
X9223864Y11404364D01*
X9240535Y11393224D01*
X9247500Y11391839D01*
Y11428000D01*
D02*
G37*
G36*
X11159861Y11417300D02*
X11123700D01*
Y11381139D01*
X11130665Y11382524D01*
X11147336Y11393664D01*
X11158476Y11410335D01*
X11159861Y11417300D01*
D02*
G37*
G36*
X11098300D02*
X11062139D01*
X11063524Y11410335D01*
X11074664Y11393664D01*
X11091335Y11382524D01*
X11098300Y11381139D01*
Y11417300D01*
D02*
G37*
G36*
X3885287Y11481387D02*
X3865622Y11477476D01*
X3848951Y11466336D01*
X3837811Y11449665D01*
X3833900Y11430000D01*
X3837811Y11410335D01*
X3848951Y11393664D01*
X3865622Y11382524D01*
X3885287Y11378613D01*
X3904952Y11382524D01*
X3921623Y11393664D01*
X3932763Y11410335D01*
X3936674Y11430000D01*
X3932763Y11449665D01*
X3921623Y11466336D01*
X3904952Y11477476D01*
X3885287Y11481387D01*
D02*
G37*
G36*
X5843400Y11477887D02*
X5823735Y11473976D01*
X5807064Y11462836D01*
X5795925Y11446165D01*
X5792013Y11426500D01*
X5795925Y11406835D01*
X5807064Y11390164D01*
X5823735Y11379024D01*
X5843400Y11375113D01*
X5863065Y11379024D01*
X5879737Y11390164D01*
X5890876Y11406835D01*
X5894788Y11426500D01*
X5890876Y11446165D01*
X5879737Y11462836D01*
X5863065Y11473976D01*
X5843400Y11477887D01*
D02*
G37*
G36*
X5970400Y11460587D02*
X5950735Y11456676D01*
X5934064Y11445536D01*
X5922925Y11428865D01*
X5919013Y11409200D01*
X5922925Y11389535D01*
X5934064Y11372864D01*
X5950735Y11361724D01*
X5970400Y11357813D01*
X5990065Y11361724D01*
X6006737Y11372864D01*
X6017876Y11389535D01*
X6021788Y11409200D01*
X6017876Y11428865D01*
X6006737Y11445536D01*
X5990065Y11456676D01*
X5970400Y11460587D01*
D02*
G37*
G36*
X4673061Y11392900D02*
X4636900D01*
Y11356739D01*
X4643865Y11358124D01*
X4660537Y11369264D01*
X4671676Y11385935D01*
X4673061Y11392900D01*
D02*
G37*
G36*
X4611500D02*
X4575339D01*
X4576725Y11385935D01*
X4587864Y11369264D01*
X4604535Y11358124D01*
X4611500Y11356739D01*
Y11392900D01*
D02*
G37*
G36*
X4010200Y11455087D02*
X3990535Y11451175D01*
X3973864Y11440036D01*
X3962724Y11423365D01*
X3958813Y11403700D01*
X3962724Y11384035D01*
X3973864Y11367363D01*
X3990535Y11356224D01*
X4010200Y11352312D01*
X4029865Y11356224D01*
X4046536Y11367363D01*
X4057676Y11384035D01*
X4061587Y11403700D01*
X4057676Y11423365D01*
X4046536Y11440036D01*
X4029865Y11451175D01*
X4010200Y11455087D01*
D02*
G37*
G36*
X2712861Y11387400D02*
X2676700D01*
Y11351239D01*
X2683665Y11352624D01*
X2700336Y11363763D01*
X2711476Y11380435D01*
X2712861Y11387400D01*
D02*
G37*
G36*
X2651300D02*
X2615139D01*
X2616524Y11380435D01*
X2627664Y11363763D01*
X2644335Y11352624D01*
X2651300Y11351239D01*
Y11387400D01*
D02*
G37*
G36*
X5481200Y11442787D02*
X5461535Y11438876D01*
X5444864Y11427736D01*
X5433724Y11411065D01*
X5429813Y11391400D01*
X5433724Y11371735D01*
X5444864Y11355064D01*
X5461535Y11343924D01*
X5481200Y11340013D01*
X5500865Y11343924D01*
X5517536Y11355064D01*
X5528676Y11371735D01*
X5532587Y11391400D01*
X5528676Y11411065D01*
X5517536Y11427736D01*
X5500865Y11438876D01*
X5481200Y11442787D01*
D02*
G37*
G36*
X3521000Y11437287D02*
X3501335Y11433375D01*
X3484664Y11422236D01*
X3473524Y11405564D01*
X3469613Y11385900D01*
X3473524Y11366235D01*
X3484664Y11349563D01*
X3501335Y11338424D01*
X3521000Y11334512D01*
X3540665Y11338424D01*
X3557336Y11349563D01*
X3568475Y11366235D01*
X3572387Y11385900D01*
X3568475Y11405564D01*
X3557336Y11422236D01*
X3540665Y11433375D01*
X3521000Y11437287D01*
D02*
G37*
G36*
X10431700Y11348361D02*
Y11312200D01*
X10467861D01*
X10466476Y11319165D01*
X10455336Y11335836D01*
X10438665Y11346976D01*
X10431700Y11348361D01*
D02*
G37*
G36*
X10406300D02*
X10399335Y11346976D01*
X10382664Y11335836D01*
X10371524Y11319165D01*
X10370139Y11312200D01*
X10406300D01*
Y11348361D01*
D02*
G37*
G36*
X11760200Y11403187D02*
X11740535Y11399276D01*
X11723864Y11388136D01*
X11712724Y11371465D01*
X11708813Y11351800D01*
X11712724Y11332135D01*
X11723864Y11315464D01*
X11740535Y11304324D01*
X11760200Y11300413D01*
X11779865Y11304324D01*
X11796536Y11315464D01*
X11807676Y11332135D01*
X11811587Y11351800D01*
X11807676Y11371465D01*
X11796536Y11388136D01*
X11779865Y11399276D01*
X11760200Y11403187D01*
D02*
G37*
G36*
X8991600Y11378387D02*
X8971935Y11374475D01*
X8955264Y11363336D01*
X8944124Y11346665D01*
X8940213Y11327000D01*
X8944124Y11307335D01*
X8955264Y11290663D01*
X8971935Y11279524D01*
X8991600Y11275612D01*
X9011265Y11279524D01*
X9027936Y11290663D01*
X9039076Y11307335D01*
X9042987Y11327000D01*
X9039076Y11346665D01*
X9027936Y11363336D01*
X9011265Y11374475D01*
X8991600Y11378387D01*
D02*
G37*
G36*
X6237100Y11287861D02*
Y11251700D01*
X6273261D01*
X6271876Y11258665D01*
X6260737Y11275336D01*
X6244065Y11286476D01*
X6237100Y11287861D01*
D02*
G37*
G36*
X6211700D02*
X6204735Y11286476D01*
X6188064Y11275336D01*
X6176925Y11258665D01*
X6175539Y11251700D01*
X6211700D01*
Y11287861D01*
D02*
G37*
G36*
X10467861Y11286800D02*
X10431700D01*
Y11250639D01*
X10438665Y11252024D01*
X10455336Y11263164D01*
X10466476Y11279835D01*
X10467861Y11286800D01*
D02*
G37*
G36*
X10406300D02*
X10370139D01*
X10371524Y11279835D01*
X10382664Y11263164D01*
X10399335Y11252024D01*
X10406300Y11250639D01*
Y11286800D01*
D02*
G37*
G36*
X4276900Y11282360D02*
Y11246200D01*
X4313061D01*
X4311676Y11253164D01*
X4300536Y11269836D01*
X4283865Y11280975D01*
X4276900Y11282360D01*
D02*
G37*
G36*
X4251500D02*
X4244535Y11280975D01*
X4227864Y11269836D01*
X4216724Y11253164D01*
X4215339Y11246200D01*
X4251500D01*
Y11282360D01*
D02*
G37*
G36*
X7632800Y11335587D02*
X7613135Y11331676D01*
X7596464Y11320536D01*
X7585324Y11303865D01*
X7581413Y11284200D01*
X7585324Y11264535D01*
X7596464Y11247864D01*
X7613135Y11236725D01*
X7632800Y11232813D01*
X7652465Y11236725D01*
X7669136Y11247864D01*
X7680275Y11264535D01*
X7684187Y11284200D01*
X7680275Y11303865D01*
X7669136Y11320536D01*
X7652465Y11331676D01*
X7632800Y11335587D01*
D02*
G37*
G36*
X6426200D02*
X6406535Y11331676D01*
X6389864Y11320536D01*
X6378724Y11303865D01*
X6374813Y11284200D01*
X6378724Y11264535D01*
X6389864Y11247864D01*
X6406535Y11236725D01*
X6426200Y11232813D01*
X6445865Y11236725D01*
X6462536Y11247864D01*
X6473676Y11264535D01*
X6477587Y11284200D01*
X6473676Y11303865D01*
X6462536Y11320536D01*
X6445865Y11331676D01*
X6426200Y11335587D01*
D02*
G37*
G36*
X9911000Y11326987D02*
X9891335Y11323076D01*
X9874664Y11311936D01*
X9863524Y11295265D01*
X9859613Y11275600D01*
X9863524Y11255935D01*
X9874664Y11239264D01*
X9891335Y11228124D01*
X9911000Y11224213D01*
X9930665Y11228124D01*
X9947336Y11239264D01*
X9958476Y11255935D01*
X9962387Y11275600D01*
X9958476Y11295265D01*
X9947336Y11311936D01*
X9930665Y11323076D01*
X9911000Y11326987D01*
D02*
G37*
G36*
X7264400Y11303587D02*
X7244735Y11299676D01*
X7228064Y11288536D01*
X7216924Y11271865D01*
X7213013Y11252200D01*
X7216924Y11232535D01*
X7228064Y11215864D01*
X7244735Y11204724D01*
X7264400Y11200813D01*
X7284065Y11204724D01*
X7300736Y11215864D01*
X7311876Y11232535D01*
X7315787Y11252200D01*
X7311876Y11271865D01*
X7300736Y11288536D01*
X7284065Y11299676D01*
X7264400Y11303587D01*
D02*
G37*
G36*
X6273261Y11226300D02*
X6237100D01*
Y11190139D01*
X6244065Y11191524D01*
X6260737Y11202664D01*
X6271876Y11219335D01*
X6273261Y11226300D01*
D02*
G37*
G36*
X6211700D02*
X6175539D01*
X6176925Y11219335D01*
X6188064Y11202664D01*
X6204735Y11191524D01*
X6211700Y11190139D01*
Y11226300D01*
D02*
G37*
G36*
X12458700Y11290724D02*
Y11188700D01*
X12560724D01*
X12558430Y11206125D01*
X12546801Y11234198D01*
X12528304Y11258304D01*
X12504198Y11276801D01*
X12476125Y11288430D01*
X12458700Y11290724D01*
D02*
G37*
G36*
X2044700D02*
Y11188700D01*
X2146724D01*
X2144430Y11206125D01*
X2132801Y11234198D01*
X2114304Y11258304D01*
X2090198Y11276801D01*
X2062125Y11288430D01*
X2044700Y11290724D01*
D02*
G37*
G36*
X12433300D02*
X12415875Y11288430D01*
X12387802Y11276801D01*
X12363696Y11258304D01*
X12345199Y11234198D01*
X12333570Y11206125D01*
X12331276Y11188700D01*
X12433300D01*
Y11290724D01*
D02*
G37*
G36*
X2019300D02*
X2001875Y11288430D01*
X1973802Y11276801D01*
X1949696Y11258304D01*
X1931199Y11234198D01*
X1919570Y11206125D01*
X1917276Y11188700D01*
X2019300D01*
Y11290724D01*
D02*
G37*
G36*
X4313061Y11220800D02*
X4276900D01*
Y11184639D01*
X4283865Y11186024D01*
X4300536Y11197163D01*
X4311676Y11213835D01*
X4313061Y11220800D01*
D02*
G37*
G36*
X4251500D02*
X4215339D01*
X4216724Y11213835D01*
X4227864Y11197163D01*
X4244535Y11186024D01*
X4251500Y11184639D01*
Y11220800D01*
D02*
G37*
G36*
X11734800Y11201987D02*
X11715135Y11198076D01*
X11698464Y11186936D01*
X11687324Y11170265D01*
X11683413Y11150600D01*
X11687324Y11130935D01*
X11698464Y11114264D01*
X11715135Y11103124D01*
X11734800Y11099213D01*
X11754465Y11103124D01*
X11771136Y11114264D01*
X11782276Y11130935D01*
X11786187Y11150600D01*
X11782276Y11170265D01*
X11771136Y11186936D01*
X11754465Y11198076D01*
X11734800Y11201987D01*
D02*
G37*
G36*
X9169400D02*
X9149735Y11198076D01*
X9133064Y11186936D01*
X9121924Y11170265D01*
X9118013Y11150600D01*
X9121924Y11130935D01*
X9133064Y11114264D01*
X9149735Y11103124D01*
X9169400Y11099213D01*
X9189065Y11103124D01*
X9205736Y11114264D01*
X9216876Y11130935D01*
X9220787Y11150600D01*
X9216876Y11170265D01*
X9205736Y11186936D01*
X9189065Y11198076D01*
X9169400Y11201987D01*
D02*
G37*
G36*
X8883400D02*
X8863735Y11198076D01*
X8847064Y11186936D01*
X8835924Y11170265D01*
X8832013Y11150600D01*
X8835924Y11130935D01*
X8847064Y11114264D01*
X8863735Y11103124D01*
X8883400Y11099213D01*
X8903065Y11103124D01*
X8919736Y11114264D01*
X8930875Y11130935D01*
X8934787Y11150600D01*
X8930875Y11170265D01*
X8919736Y11186936D01*
X8903065Y11198076D01*
X8883400Y11201987D01*
D02*
G37*
G36*
X6896100Y11129361D02*
Y11093200D01*
X6932261D01*
X6930876Y11100164D01*
X6919736Y11116836D01*
X6903065Y11127975D01*
X6896100Y11129361D01*
D02*
G37*
G36*
X6870700D02*
X6863735Y11127975D01*
X6847064Y11116836D01*
X6835924Y11100164D01*
X6834539Y11093200D01*
X6870700D01*
Y11129361D01*
D02*
G37*
G36*
X2146724Y11163300D02*
X2044700D01*
Y11061276D01*
X2062125Y11063570D01*
X2090198Y11075199D01*
X2114304Y11093696D01*
X2132801Y11117802D01*
X2144430Y11145875D01*
X2146724Y11163300D01*
D02*
G37*
G36*
X12560724D02*
X12458700D01*
Y11061276D01*
X12476125Y11063570D01*
X12504198Y11075199D01*
X12528304Y11093696D01*
X12546801Y11117802D01*
X12558430Y11145875D01*
X12560724Y11163300D01*
D02*
G37*
G36*
X2019300D02*
X1917276D01*
X1919570Y11145875D01*
X1931199Y11117802D01*
X1949696Y11093696D01*
X1973802Y11075199D01*
X2001875Y11063570D01*
X2019300Y11061276D01*
Y11163300D01*
D02*
G37*
G36*
X12433300D02*
X12331276D01*
X12333570Y11145875D01*
X12345199Y11117802D01*
X12363696Y11093696D01*
X12387802Y11075199D01*
X12415875Y11063570D01*
X12433300Y11061276D01*
Y11163300D01*
D02*
G37*
G36*
X10955200Y11151187D02*
X10935535Y11147276D01*
X10918864Y11136136D01*
X10907724Y11119465D01*
X10903813Y11099800D01*
X10907724Y11080135D01*
X10918864Y11063464D01*
X10935535Y11052324D01*
X10955200Y11048413D01*
X10974865Y11052324D01*
X10991536Y11063464D01*
X11002675Y11080135D01*
X11006587Y11099800D01*
X11002675Y11119465D01*
X10991536Y11136136D01*
X10974865Y11147276D01*
X10955200Y11151187D01*
D02*
G37*
G36*
X6932261Y11067800D02*
X6896100D01*
Y11031639D01*
X6903065Y11033024D01*
X6919736Y11044163D01*
X6930876Y11060835D01*
X6932261Y11067800D01*
D02*
G37*
G36*
X6870700D02*
X6834539D01*
X6835924Y11060835D01*
X6847064Y11044163D01*
X6863735Y11033024D01*
X6870700Y11031639D01*
Y11067800D01*
D02*
G37*
G36*
X8407400Y11125787D02*
X8387735Y11121876D01*
X8371064Y11110736D01*
X8359924Y11094065D01*
X8356013Y11074400D01*
X8359924Y11054735D01*
X8371064Y11038064D01*
X8387735Y11026924D01*
X8407400Y11023013D01*
X8427065Y11026924D01*
X8443736Y11038064D01*
X8454876Y11054735D01*
X8458787Y11074400D01*
X8454876Y11094065D01*
X8443736Y11110736D01*
X8427065Y11121876D01*
X8407400Y11125787D01*
D02*
G37*
G36*
X4799987Y11056161D02*
Y11020000D01*
X4836148D01*
X4834762Y11026964D01*
X4823623Y11043636D01*
X4806952Y11054775D01*
X4799987Y11056161D01*
D02*
G37*
G36*
X4774587D02*
X4767622Y11054775D01*
X4750951Y11043636D01*
X4739811Y11026964D01*
X4738426Y11020000D01*
X4774587D01*
Y11056161D01*
D02*
G37*
G36*
X8331100Y11015061D02*
Y10978900D01*
X8367261D01*
X8365876Y10985865D01*
X8354736Y11002536D01*
X8338065Y11013675D01*
X8331100Y11015061D01*
D02*
G37*
G36*
X8305700D02*
X8298735Y11013675D01*
X8282064Y11002536D01*
X8270925Y10985865D01*
X8269539Y10978900D01*
X8305700D01*
Y11015061D01*
D02*
G37*
G36*
X4836148Y10994600D02*
X4799987D01*
Y10958439D01*
X4806952Y10959824D01*
X4823623Y10970963D01*
X4834762Y10987635D01*
X4836148Y10994600D01*
D02*
G37*
G36*
X4774587D02*
X4738426D01*
X4739811Y10987635D01*
X4750951Y10970963D01*
X4767622Y10959824D01*
X4774587Y10958439D01*
Y10994600D01*
D02*
G37*
G36*
X2044700Y11036724D02*
Y10934700D01*
X2146724D01*
X2144430Y10952125D01*
X2132801Y10980198D01*
X2114304Y11004304D01*
X2090198Y11022801D01*
X2062125Y11034430D01*
X2044700Y11036724D01*
D02*
G37*
G36*
X2019300D02*
X2001875Y11034430D01*
X1973802Y11022801D01*
X1949696Y11004304D01*
X1931199Y10980198D01*
X1919570Y10952125D01*
X1917276Y10934700D01*
X2019300D01*
Y11036724D01*
D02*
G37*
G36*
X3897987Y10960061D02*
Y10923900D01*
X3934148D01*
X3932763Y10930865D01*
X3921623Y10947536D01*
X3904952Y10958676D01*
X3897987Y10960061D01*
D02*
G37*
G36*
X3872587D02*
X3865622Y10958676D01*
X3848951Y10947536D01*
X3837811Y10930865D01*
X3836426Y10923900D01*
X3872587D01*
Y10960061D01*
D02*
G37*
G36*
X8367261Y10953500D02*
X8331100D01*
Y10917339D01*
X8338065Y10918724D01*
X8354736Y10929864D01*
X8365876Y10946535D01*
X8367261Y10953500D01*
D02*
G37*
G36*
X8305700D02*
X8269539D01*
X8270925Y10946535D01*
X8282064Y10929864D01*
X8298735Y10918724D01*
X8305700Y10917339D01*
Y10953500D01*
D02*
G37*
G36*
X8472499Y10944460D02*
Y10908299D01*
X8508660D01*
X8507275Y10915264D01*
X8496136Y10931936D01*
X8479464Y10943075D01*
X8472499Y10944460D01*
D02*
G37*
G36*
X8447099D02*
X8440135Y10943075D01*
X8423463Y10931936D01*
X8412324Y10915264D01*
X8410938Y10908299D01*
X8447099D01*
Y10944460D01*
D02*
G37*
G36*
X7061100Y10929161D02*
Y10893000D01*
X7097261D01*
X7095876Y10899964D01*
X7084736Y10916636D01*
X7068065Y10927775D01*
X7061100Y10929161D01*
D02*
G37*
G36*
X7035700D02*
X7028735Y10927775D01*
X7012064Y10916636D01*
X7000925Y10899964D01*
X6999539Y10893000D01*
X7035700D01*
Y10929161D01*
D02*
G37*
G36*
X5092700Y10921660D02*
Y10885499D01*
X5128861D01*
X5127476Y10892464D01*
X5116336Y10909136D01*
X5099665Y10920275D01*
X5092700Y10921660D01*
D02*
G37*
G36*
X5067300D02*
X5060335Y10920275D01*
X5043664Y10909136D01*
X5032524Y10892464D01*
X5031139Y10885499D01*
X5067300D01*
Y10921660D01*
D02*
G37*
G36*
X3934148Y10898500D02*
X3897987D01*
Y10862339D01*
X3904952Y10863724D01*
X3921623Y10874864D01*
X3932763Y10891535D01*
X3934148Y10898500D01*
D02*
G37*
G36*
X3872587D02*
X3836426D01*
X3837811Y10891535D01*
X3848951Y10874864D01*
X3865622Y10863724D01*
X3872587Y10862339D01*
Y10898500D01*
D02*
G37*
G36*
X6517718Y10954087D02*
X6498053Y10950175D01*
X6481382Y10939036D01*
X6470242Y10922364D01*
X6466330Y10902700D01*
X6470242Y10883035D01*
X6481382Y10866363D01*
X6498053Y10855224D01*
X6517718Y10851312D01*
X6537383Y10855224D01*
X6554054Y10866363D01*
X6565193Y10883035D01*
X6569105Y10902700D01*
X6565193Y10922364D01*
X6554054Y10939036D01*
X6537383Y10950175D01*
X6517718Y10954087D01*
D02*
G37*
G36*
X9316799Y10953587D02*
X9297134Y10949676D01*
X9280463Y10938536D01*
X9269324Y10921865D01*
X9265412Y10902200D01*
X9269324Y10882535D01*
X9280463Y10865864D01*
X9297134Y10854724D01*
X9316799Y10850813D01*
X9336464Y10854724D01*
X9353135Y10865864D01*
X9364275Y10882535D01*
X9368186Y10902200D01*
X9364275Y10921865D01*
X9353135Y10938536D01*
X9336464Y10949676D01*
X9316799Y10953587D01*
D02*
G37*
G36*
X8508660Y10882899D02*
X8472499D01*
Y10846739D01*
X8479464Y10848124D01*
X8496136Y10859263D01*
X8507275Y10875935D01*
X8508660Y10882899D01*
D02*
G37*
G36*
X8447099D02*
X8410938D01*
X8412324Y10875935D01*
X8423463Y10859263D01*
X8440135Y10848124D01*
X8447099Y10846739D01*
Y10882899D01*
D02*
G37*
G36*
X7894200Y10941387D02*
X7874535Y10937475D01*
X7857864Y10926336D01*
X7846724Y10909665D01*
X7842813Y10890000D01*
X7846724Y10870335D01*
X7857864Y10853664D01*
X7874535Y10842524D01*
X7894200Y10838613D01*
X7913865Y10842524D01*
X7930536Y10853664D01*
X7941676Y10870335D01*
X7945587Y10890000D01*
X7941676Y10909665D01*
X7930536Y10926336D01*
X7913865Y10937475D01*
X7894200Y10941387D01*
D02*
G37*
G36*
X7097261Y10867600D02*
X7061100D01*
Y10831439D01*
X7068065Y10832824D01*
X7084736Y10843963D01*
X7095876Y10860635D01*
X7097261Y10867600D01*
D02*
G37*
G36*
X7035700D02*
X6999539D01*
X7000925Y10860635D01*
X7012064Y10843963D01*
X7028735Y10832824D01*
X7035700Y10831439D01*
Y10867600D01*
D02*
G37*
G36*
X5128861Y10860099D02*
X5092700D01*
Y10823938D01*
X5099665Y10825324D01*
X5116336Y10836463D01*
X5127476Y10853135D01*
X5128861Y10860099D01*
D02*
G37*
G36*
X5067300D02*
X5031139D01*
X5032524Y10853135D01*
X5043664Y10836463D01*
X5060335Y10825324D01*
X5067300Y10823938D01*
Y10860099D01*
D02*
G37*
G36*
X2146724Y10909300D02*
X2044700D01*
Y10807276D01*
X2062125Y10809570D01*
X2090198Y10821199D01*
X2114304Y10839696D01*
X2132801Y10863802D01*
X2144430Y10891875D01*
X2146724Y10909300D01*
D02*
G37*
G36*
X2019300D02*
X1917276D01*
X1919570Y10891875D01*
X1931199Y10863802D01*
X1949696Y10839696D01*
X1973802Y10821199D01*
X2001875Y10809570D01*
X2019300Y10807276D01*
Y10909300D01*
D02*
G37*
G36*
X12446000Y11038396D02*
X12415875Y11034430D01*
X12387802Y11022801D01*
X12363696Y11004304D01*
X12345199Y10980198D01*
X12333570Y10952125D01*
X12329604Y10922000D01*
X12333570Y10891875D01*
X12345199Y10863802D01*
X12363696Y10839696D01*
X12387802Y10821199D01*
X12415875Y10809570D01*
X12446000Y10805604D01*
X12476125Y10809570D01*
X12504198Y10821199D01*
X12528304Y10839696D01*
X12546801Y10863802D01*
X12558430Y10891875D01*
X12562396Y10922000D01*
X12558430Y10952125D01*
X12546801Y10980198D01*
X12528304Y11004304D01*
X12504198Y11022801D01*
X12476125Y11034430D01*
X12446000Y11038396D01*
D02*
G37*
G36*
X3314700Y10834743D02*
Y10798582D01*
X3350861D01*
X3349476Y10805547D01*
X3338336Y10822218D01*
X3321665Y10833358D01*
X3314700Y10834743D01*
D02*
G37*
G36*
X3289300D02*
X3282335Y10833358D01*
X3265664Y10822218D01*
X3254524Y10805547D01*
X3253139Y10798582D01*
X3289300D01*
Y10834743D01*
D02*
G37*
G36*
X10463300Y10816943D02*
Y10780782D01*
X10499461D01*
X10498076Y10787747D01*
X10486936Y10804418D01*
X10470265Y10815557D01*
X10463300Y10816943D01*
D02*
G37*
G36*
X10437900D02*
X10430935Y10815557D01*
X10414264Y10804418D01*
X10403124Y10787747D01*
X10401739Y10780782D01*
X10437900D01*
Y10816943D01*
D02*
G37*
G36*
X11620500Y10815442D02*
Y10779281D01*
X11656661D01*
X11655276Y10786246D01*
X11644136Y10802918D01*
X11627465Y10814057D01*
X11620500Y10815442D01*
D02*
G37*
G36*
X11595100D02*
X11588135Y10814057D01*
X11571464Y10802918D01*
X11560324Y10786246D01*
X11558939Y10779281D01*
X11595100D01*
Y10815442D01*
D02*
G37*
G36*
X4838087Y10871687D02*
X4818422Y10867775D01*
X4801751Y10856636D01*
X4790611Y10839965D01*
X4786700Y10820300D01*
X4790611Y10800635D01*
X4801751Y10783963D01*
X4818422Y10772824D01*
X4838087Y10768912D01*
X4857752Y10772824D01*
X4874423Y10783963D01*
X4885562Y10800635D01*
X4889474Y10820300D01*
X4885562Y10839965D01*
X4874423Y10856636D01*
X4857752Y10867775D01*
X4838087Y10871687D01*
D02*
G37*
G36*
X3804300D02*
X3784636Y10867775D01*
X3767964Y10856636D01*
X3756825Y10839965D01*
X3752913Y10820300D01*
X3756825Y10800635D01*
X3767964Y10783963D01*
X3784636Y10772824D01*
X3804300Y10768912D01*
X3823965Y10772824D01*
X3840637Y10783963D01*
X3851776Y10800635D01*
X3855688Y10820300D01*
X3851776Y10839965D01*
X3840637Y10856636D01*
X3823965Y10867775D01*
X3804300Y10871687D01*
D02*
G37*
G36*
X11341400Y10762087D02*
X11321735Y10758175D01*
X11305063Y10747036D01*
X11300686Y10740484D01*
X11285412D01*
X11282036Y10745536D01*
X11265365Y10756675D01*
X11245700Y10760587D01*
X11226035Y10756675D01*
X11209364Y10745536D01*
X11198224Y10728864D01*
X11194313Y10709199D01*
X11198224Y10689534D01*
X11209364Y10672863D01*
X11226035Y10661724D01*
X11245700Y10657812D01*
X11265365Y10661724D01*
X11282036Y10672863D01*
X11286414Y10679415D01*
X11301688D01*
X11305063Y10674363D01*
X11321735Y10663224D01*
X11341400Y10659312D01*
X11361065Y10663224D01*
X11377736Y10674363D01*
X11388875Y10691034D01*
X11392787Y10710699D01*
X11388875Y10730364D01*
X11377736Y10747036D01*
X11361065Y10758175D01*
X11341400Y10762087D01*
D02*
G37*
G36*
X3350861Y10773182D02*
X3314700D01*
Y10737021D01*
X3321665Y10738406D01*
X3338336Y10749546D01*
X3349476Y10766217D01*
X3350861Y10773182D01*
D02*
G37*
G36*
X3289300D02*
X3253139D01*
X3254524Y10766217D01*
X3265664Y10749546D01*
X3282335Y10738406D01*
X3289300Y10737021D01*
Y10773182D01*
D02*
G37*
G36*
X6197600Y10831787D02*
X6177935Y10827875D01*
X6161264Y10816736D01*
X6150124Y10800065D01*
X6146213Y10780400D01*
X6150124Y10760735D01*
X6161264Y10744063D01*
X6177935Y10732924D01*
X6197600Y10729012D01*
X6217265Y10732924D01*
X6233936Y10744063D01*
X6245076Y10760735D01*
X6248987Y10780400D01*
X6245076Y10800065D01*
X6233936Y10816736D01*
X6217265Y10827875D01*
X6197600Y10831787D01*
D02*
G37*
G36*
X10499461Y10755382D02*
X10463300D01*
Y10719221D01*
X10470265Y10720606D01*
X10486936Y10731745D01*
X10498076Y10748417D01*
X10499461Y10755382D01*
D02*
G37*
G36*
X10437900D02*
X10401739D01*
X10403124Y10748417D01*
X10414264Y10731745D01*
X10430935Y10720606D01*
X10437900Y10719221D01*
Y10755382D01*
D02*
G37*
G36*
X11656661Y10753881D02*
X11620500D01*
Y10717721D01*
X11627465Y10719106D01*
X11644136Y10730245D01*
X11655276Y10746917D01*
X11656661Y10753881D01*
D02*
G37*
G36*
X11595100D02*
X11558939D01*
X11560324Y10746917D01*
X11571464Y10730245D01*
X11588135Y10719106D01*
X11595100Y10717721D01*
Y10753881D01*
D02*
G37*
G36*
X9398099Y10734660D02*
Y10698499D01*
X9434260D01*
X9432875Y10705464D01*
X9421736Y10722136D01*
X9405064Y10733275D01*
X9398099Y10734660D01*
D02*
G37*
G36*
X9372699D02*
X9365734Y10733275D01*
X9349063Y10722136D01*
X9337924Y10705464D01*
X9336538Y10698499D01*
X9372699D01*
Y10734660D01*
D02*
G37*
G36*
X5768500Y10782887D02*
X5748835Y10778976D01*
X5732164Y10767836D01*
X5721024Y10751165D01*
X5717113Y10731500D01*
X5721024Y10711835D01*
X5732164Y10695164D01*
X5748835Y10684024D01*
X5768500Y10680113D01*
X5788165Y10684024D01*
X5804836Y10695164D01*
X5815976Y10711835D01*
X5819887Y10731500D01*
X5815976Y10751165D01*
X5804836Y10767836D01*
X5788165Y10778976D01*
X5768500Y10782887D01*
D02*
G37*
G36*
X10972800Y10779887D02*
X10953135Y10775975D01*
X10936464Y10764836D01*
X10925324Y10748165D01*
X10921413Y10728500D01*
X10925324Y10708835D01*
X10936464Y10692164D01*
X10953135Y10681024D01*
X10972800Y10677113D01*
X10992465Y10681024D01*
X11009136Y10692164D01*
X11020276Y10708835D01*
X11024187Y10728500D01*
X11020276Y10748165D01*
X11009136Y10764836D01*
X10992465Y10775975D01*
X10972800Y10779887D01*
D02*
G37*
G36*
X2939900D02*
X2920235Y10775975D01*
X2903564Y10764836D01*
X2892424Y10748165D01*
X2888513Y10728500D01*
X2892424Y10708835D01*
X2903564Y10692164D01*
X2920235Y10681024D01*
X2939900Y10677113D01*
X2959565Y10681024D01*
X2976236Y10692164D01*
X2987376Y10708835D01*
X2991287Y10728500D01*
X2987376Y10748165D01*
X2976236Y10764836D01*
X2959565Y10775975D01*
X2939900Y10779887D01*
D02*
G37*
G36*
X10088500Y10762087D02*
X10068835Y10758175D01*
X10052164Y10747036D01*
X10041025Y10730364D01*
X10037113Y10710699D01*
X10041025Y10691034D01*
X10052164Y10674363D01*
X10068835Y10663224D01*
X10088500Y10659312D01*
X10108165Y10663224D01*
X10124836Y10674363D01*
X10135976Y10691034D01*
X10139888Y10710699D01*
X10135976Y10730364D01*
X10124836Y10747036D01*
X10108165Y10758175D01*
X10088500Y10762087D01*
D02*
G37*
G36*
X9005899Y10691861D02*
Y10655700D01*
X9042060D01*
X9040675Y10662665D01*
X9029536Y10679336D01*
X9012864Y10690476D01*
X9005899Y10691861D01*
D02*
G37*
G36*
X8980499D02*
X8973535Y10690476D01*
X8956863Y10679336D01*
X8945724Y10662665D01*
X8944338Y10655700D01*
X8980499D01*
Y10691861D01*
D02*
G37*
G36*
X9434260Y10673099D02*
X9398099D01*
Y10636938D01*
X9405064Y10638324D01*
X9421736Y10649463D01*
X9432875Y10666134D01*
X9434260Y10673099D01*
D02*
G37*
G36*
X9372699D02*
X9336538D01*
X9337924Y10666134D01*
X9349063Y10649463D01*
X9365734Y10638324D01*
X9372699Y10636938D01*
Y10673099D01*
D02*
G37*
G36*
X5624500Y10672161D02*
Y10636000D01*
X5660661D01*
X5659276Y10642964D01*
X5648136Y10659636D01*
X5631465Y10670775D01*
X5624500Y10672161D01*
D02*
G37*
G36*
X5599100D02*
X5592135Y10670775D01*
X5575464Y10659636D01*
X5564324Y10642964D01*
X5562939Y10636000D01*
X5599100D01*
Y10672161D01*
D02*
G37*
G36*
X4279287Y10728987D02*
X4259622Y10725076D01*
X4242951Y10713936D01*
X4231811Y10697265D01*
X4227900Y10677600D01*
X4231811Y10657935D01*
X4242951Y10641264D01*
X4259622Y10630124D01*
X4279287Y10626213D01*
X4298952Y10630124D01*
X4315623Y10641264D01*
X4326762Y10657935D01*
X4330674Y10677600D01*
X4326762Y10697265D01*
X4315623Y10713936D01*
X4298952Y10725076D01*
X4279287Y10728987D01*
D02*
G37*
G36*
X8852300Y10712287D02*
X8832635Y10708376D01*
X8815963Y10697236D01*
X8804824Y10680565D01*
X8800912Y10660900D01*
X8804824Y10641235D01*
X8815963Y10624564D01*
X8832635Y10613424D01*
X8852300Y10609513D01*
X8871964Y10613424D01*
X8888636Y10624564D01*
X8899775Y10641235D01*
X8903687Y10660900D01*
X8899775Y10680565D01*
X8888636Y10697236D01*
X8871964Y10708376D01*
X8852300Y10712287D01*
D02*
G37*
G36*
X8293000Y10707187D02*
X8273335Y10703276D01*
X8256664Y10692136D01*
X8245525Y10675465D01*
X8241613Y10655800D01*
X8245525Y10636135D01*
X8256664Y10619464D01*
X8273335Y10608324D01*
X8293000Y10604413D01*
X8312665Y10608324D01*
X8329336Y10619464D01*
X8340476Y10636135D01*
X8344387Y10655800D01*
X8340476Y10675465D01*
X8329336Y10692136D01*
X8312665Y10703276D01*
X8293000Y10707187D01*
D02*
G37*
G36*
X7440900D02*
X7421235Y10703276D01*
X7404564Y10692136D01*
X7393425Y10675465D01*
X7389513Y10655800D01*
X7393425Y10636135D01*
X7404564Y10619464D01*
X7421235Y10608324D01*
X7440900Y10604413D01*
X7460565Y10608324D01*
X7477237Y10619464D01*
X7488376Y10636135D01*
X7492288Y10655800D01*
X7488376Y10675465D01*
X7477237Y10692136D01*
X7460565Y10703276D01*
X7440900Y10707187D01*
D02*
G37*
G36*
X5486400Y10705187D02*
X5466735Y10701275D01*
X5450064Y10690136D01*
X5438924Y10673465D01*
X5435013Y10653800D01*
X5438924Y10634135D01*
X5450064Y10617463D01*
X5466735Y10606324D01*
X5486400Y10602412D01*
X5506065Y10606324D01*
X5522736Y10617463D01*
X5533876Y10634135D01*
X5537787Y10653800D01*
X5533876Y10673465D01*
X5522736Y10690136D01*
X5506065Y10701275D01*
X5486400Y10705187D01*
D02*
G37*
G36*
X9042060Y10630300D02*
X9005899D01*
Y10594139D01*
X9012864Y10595524D01*
X9029536Y10606664D01*
X9040675Y10623335D01*
X9042060Y10630300D01*
D02*
G37*
G36*
X8980499D02*
X8944338D01*
X8945724Y10623335D01*
X8956863Y10606664D01*
X8973535Y10595524D01*
X8980499Y10594139D01*
Y10630300D01*
D02*
G37*
G36*
X4924500Y10688887D02*
X4904836Y10684975D01*
X4888164Y10673836D01*
X4877025Y10657165D01*
X4873113Y10637500D01*
X4877025Y10617835D01*
X4888164Y10601163D01*
X4904836Y10590024D01*
X4924500Y10586112D01*
X4944165Y10590024D01*
X4960837Y10601163D01*
X4971976Y10617835D01*
X4975888Y10637500D01*
X4971976Y10657165D01*
X4960837Y10673836D01*
X4944165Y10684975D01*
X4924500Y10688887D01*
D02*
G37*
G36*
X5660661Y10610600D02*
X5624500D01*
Y10574439D01*
X5631465Y10575824D01*
X5648136Y10586963D01*
X5659276Y10603635D01*
X5660661Y10610600D01*
D02*
G37*
G36*
X5599100D02*
X5562939D01*
X5564324Y10603635D01*
X5575464Y10586963D01*
X5592135Y10575824D01*
X5599100Y10574439D01*
Y10610600D01*
D02*
G37*
G36*
X12446000Y10784396D02*
X12415875Y10780430D01*
X12387802Y10768801D01*
X12363696Y10750304D01*
X12345199Y10726198D01*
X12333570Y10698125D01*
X12329604Y10668000D01*
X12333570Y10637875D01*
X12345199Y10609802D01*
X12363696Y10585696D01*
X12387802Y10567199D01*
X12415875Y10555570D01*
X12446000Y10551604D01*
X12476125Y10555570D01*
X12504198Y10567199D01*
X12528304Y10585696D01*
X12546801Y10609802D01*
X12558430Y10637875D01*
X12562396Y10668000D01*
X12558430Y10698125D01*
X12546801Y10726198D01*
X12528304Y10750304D01*
X12504198Y10768801D01*
X12476125Y10780430D01*
X12446000Y10784396D01*
D02*
G37*
G36*
X2032000D02*
X2001875Y10780430D01*
X1973802Y10768801D01*
X1949696Y10750304D01*
X1931199Y10726198D01*
X1919570Y10698125D01*
X1915604Y10668000D01*
X1919570Y10637875D01*
X1931199Y10609802D01*
X1949696Y10585696D01*
X1973802Y10567199D01*
X2001875Y10555570D01*
X2032000Y10551604D01*
X2062125Y10555570D01*
X2090198Y10567199D01*
X2114304Y10585696D01*
X2132801Y10609802D01*
X2144430Y10637875D01*
X2148395Y10668000D01*
X2144430Y10698125D01*
X2132801Y10726198D01*
X2114304Y10750304D01*
X2090198Y10768801D01*
X2062125Y10780430D01*
X2032000Y10784396D01*
D02*
G37*
G36*
X4926987Y10547061D02*
Y10510900D01*
X4963148D01*
X4961762Y10517865D01*
X4950623Y10534536D01*
X4933952Y10545675D01*
X4926987Y10547061D01*
D02*
G37*
G36*
X4901587D02*
X4894622Y10545675D01*
X4877951Y10534536D01*
X4866811Y10517865D01*
X4865426Y10510900D01*
X4901587D01*
Y10547061D01*
D02*
G37*
G36*
X8026300Y10507061D02*
Y10470900D01*
X8062461D01*
X8061076Y10477865D01*
X8049936Y10494536D01*
X8033265Y10505675D01*
X8026300Y10507061D01*
D02*
G37*
G36*
X8000900D02*
X7993935Y10505675D01*
X7977264Y10494536D01*
X7966125Y10477865D01*
X7964739Y10470900D01*
X8000900D01*
Y10507061D01*
D02*
G37*
G36*
X9779000Y10558887D02*
X9759335Y10554975D01*
X9742664Y10543836D01*
X9731524Y10527165D01*
X9727613Y10507500D01*
X9731524Y10487835D01*
X9742664Y10471163D01*
X9759335Y10460024D01*
X9779000Y10456112D01*
X9798665Y10460024D01*
X9815336Y10471163D01*
X9826476Y10487835D01*
X9830387Y10507500D01*
X9826476Y10527165D01*
X9815336Y10543836D01*
X9798665Y10554975D01*
X9779000Y10558887D01*
D02*
G37*
G36*
X4963148Y10485500D02*
X4926987D01*
Y10449339D01*
X4933952Y10450724D01*
X4950623Y10461864D01*
X4961762Y10478535D01*
X4963148Y10485500D01*
D02*
G37*
G36*
X4901587D02*
X4865426D01*
X4866811Y10478535D01*
X4877951Y10461864D01*
X4894622Y10450724D01*
X4901587Y10449339D01*
Y10485500D01*
D02*
G37*
G36*
X6604000Y10441887D02*
X6584335Y10437975D01*
X6567664Y10426836D01*
X6560311Y10415832D01*
X6547465Y10410676D01*
X6527800Y10414587D01*
X6508135Y10410676D01*
X6491464Y10399536D01*
X6480324Y10382865D01*
X6476413Y10363200D01*
X6480324Y10343535D01*
X6491464Y10326864D01*
X6497116Y10323087D01*
Y10307813D01*
X6491464Y10304036D01*
X6480324Y10287364D01*
X6478939Y10280400D01*
X6576661D01*
X6575276Y10287364D01*
X6564136Y10304036D01*
X6558484Y10307813D01*
Y10323087D01*
X6564136Y10326864D01*
X6571489Y10337867D01*
X6584335Y10343024D01*
X6604000Y10339112D01*
X6614065Y10341114D01*
X6615752Y10340166D01*
X6623839Y10330110D01*
X6620913Y10315400D01*
X6624825Y10295735D01*
X6635964Y10279064D01*
X6652636Y10267924D01*
X6672301Y10264012D01*
X6691966Y10267924D01*
X6708637Y10279064D01*
X6719776Y10295735D01*
X6723688Y10315400D01*
X6719776Y10335065D01*
X6708637Y10351736D01*
X6691966Y10362875D01*
X6672301Y10366787D01*
X6662236Y10364785D01*
X6660549Y10365733D01*
X6652461Y10375790D01*
X6655387Y10390500D01*
X6651476Y10410165D01*
X6640336Y10426836D01*
X6623665Y10437975D01*
X6604000Y10441887D01*
D02*
G37*
G36*
X8062461Y10445500D02*
X8026300D01*
Y10409339D01*
X8033265Y10410724D01*
X8049936Y10421864D01*
X8061076Y10438535D01*
X8062461Y10445500D01*
D02*
G37*
G36*
X8000900D02*
X7964739D01*
X7966125Y10438535D01*
X7977264Y10421864D01*
X7993935Y10410724D01*
X8000900Y10409339D01*
Y10445500D01*
D02*
G37*
G36*
X3187700Y10437461D02*
Y10401300D01*
X3223861D01*
X3222476Y10408265D01*
X3211336Y10424936D01*
X3194665Y10436076D01*
X3187700Y10437461D01*
D02*
G37*
G36*
X3162300D02*
X3155335Y10436076D01*
X3138664Y10424936D01*
X3127524Y10408265D01*
X3126139Y10401300D01*
X3162300D01*
Y10437461D01*
D02*
G37*
G36*
X8421600Y10497387D02*
X8401935Y10493476D01*
X8385264Y10482336D01*
X8374124Y10465665D01*
X8370213Y10446000D01*
X8374124Y10426335D01*
X8385264Y10409664D01*
X8401935Y10398525D01*
X8421600Y10394613D01*
X8441265Y10398525D01*
X8457936Y10409664D01*
X8469076Y10426335D01*
X8472987Y10446000D01*
X8469076Y10465665D01*
X8457936Y10482336D01*
X8441265Y10493476D01*
X8421600Y10497387D01*
D02*
G37*
G36*
X5202000D02*
X5182335Y10493476D01*
X5165664Y10482336D01*
X5154524Y10465665D01*
X5150613Y10446000D01*
X5154524Y10426335D01*
X5165664Y10409664D01*
X5182335Y10398525D01*
X5202000Y10394613D01*
X5221665Y10398525D01*
X5238336Y10409664D01*
X5249476Y10426335D01*
X5253387Y10446000D01*
X5249476Y10465665D01*
X5238336Y10482336D01*
X5221665Y10493476D01*
X5202000Y10497387D01*
D02*
G37*
G36*
X3429000D02*
X3409335Y10493476D01*
X3392664Y10482336D01*
X3381524Y10465665D01*
X3377613Y10446000D01*
X3381524Y10426335D01*
X3392664Y10409664D01*
X3409335Y10398525D01*
X3429000Y10394613D01*
X3448665Y10398525D01*
X3465336Y10409664D01*
X3476476Y10426335D01*
X3480387Y10446000D01*
X3476476Y10465665D01*
X3465336Y10482336D01*
X3448665Y10493476D01*
X3429000Y10497387D01*
D02*
G37*
G36*
X10336300Y10419661D02*
Y10383500D01*
X10372461D01*
X10371076Y10390465D01*
X10359936Y10407136D01*
X10343265Y10418275D01*
X10336300Y10419661D01*
D02*
G37*
G36*
X10310900D02*
X10303935Y10418275D01*
X10287264Y10407136D01*
X10276124Y10390465D01*
X10274739Y10383500D01*
X10310900D01*
Y10419661D01*
D02*
G37*
G36*
X11493500Y10418161D02*
Y10382000D01*
X11529661D01*
X11528276Y10388964D01*
X11517136Y10405636D01*
X11500465Y10416775D01*
X11493500Y10418161D01*
D02*
G37*
G36*
X11468100D02*
X11461135Y10416775D01*
X11444464Y10405636D01*
X11433324Y10388964D01*
X11431939Y10382000D01*
X11468100D01*
Y10418161D01*
D02*
G37*
G36*
X8534400Y10480887D02*
X8514735Y10476975D01*
X8498064Y10465836D01*
X8486924Y10449165D01*
X8483013Y10429500D01*
X8486924Y10409835D01*
X8498064Y10393163D01*
X8514735Y10382024D01*
X8534400Y10378112D01*
X8554065Y10382024D01*
X8570736Y10393163D01*
X8581876Y10409835D01*
X8585787Y10429500D01*
X8581876Y10449165D01*
X8570736Y10465836D01*
X8554065Y10476975D01*
X8534400Y10480887D01*
D02*
G37*
G36*
X10577600Y10479587D02*
X10557935Y10475676D01*
X10541264Y10464536D01*
X10530124Y10447865D01*
X10526213Y10428200D01*
X10530124Y10408535D01*
X10541264Y10391864D01*
X10557935Y10380724D01*
X10577600Y10376813D01*
X10597265Y10380724D01*
X10613936Y10391864D01*
X10625076Y10408535D01*
X10628987Y10428200D01*
X10625076Y10447865D01*
X10613936Y10464536D01*
X10597265Y10475676D01*
X10577600Y10479587D01*
D02*
G37*
G36*
X11734800Y10478087D02*
X11715135Y10474175D01*
X11698464Y10463036D01*
X11687324Y10446365D01*
X11683413Y10426700D01*
X11687324Y10407035D01*
X11698464Y10390364D01*
X11715135Y10379224D01*
X11734800Y10375312D01*
X11754465Y10379224D01*
X11771136Y10390364D01*
X11782276Y10407035D01*
X11786187Y10426700D01*
X11782276Y10446365D01*
X11771136Y10463036D01*
X11754465Y10474175D01*
X11734800Y10478087D01*
D02*
G37*
G36*
X7188200Y10449187D02*
X7168535Y10445275D01*
X7151864Y10434136D01*
X7140724Y10417465D01*
X7136813Y10397800D01*
X7140724Y10378135D01*
X7151864Y10361463D01*
X7168535Y10350324D01*
X7188200Y10346412D01*
X7207865Y10350324D01*
X7224536Y10361463D01*
X7235676Y10378135D01*
X7239587Y10397800D01*
X7235676Y10417465D01*
X7224536Y10434136D01*
X7207865Y10445275D01*
X7188200Y10449187D01*
D02*
G37*
G36*
X3223861Y10375900D02*
X3187700D01*
Y10339739D01*
X3194665Y10341124D01*
X3211336Y10352264D01*
X3222476Y10368935D01*
X3223861Y10375900D01*
D02*
G37*
G36*
X3162300D02*
X3126139D01*
X3127524Y10368935D01*
X3138664Y10352264D01*
X3155335Y10341124D01*
X3162300Y10339739D01*
Y10375900D01*
D02*
G37*
G36*
X6787200Y10434787D02*
X6767535Y10430876D01*
X6750864Y10419736D01*
X6739724Y10403065D01*
X6735813Y10383400D01*
X6739724Y10363735D01*
X6750864Y10347064D01*
X6767535Y10335924D01*
X6787200Y10332013D01*
X6806865Y10335924D01*
X6823536Y10347064D01*
X6834676Y10363735D01*
X6838587Y10383400D01*
X6834676Y10403065D01*
X6823536Y10419736D01*
X6806865Y10430876D01*
X6787200Y10434787D01*
D02*
G37*
G36*
X10372461Y10358100D02*
X10336300D01*
Y10321939D01*
X10343265Y10323324D01*
X10359936Y10334463D01*
X10371076Y10351135D01*
X10372461Y10358100D01*
D02*
G37*
G36*
X10310900D02*
X10274739D01*
X10276124Y10351135D01*
X10287264Y10334463D01*
X10303935Y10323324D01*
X10310900Y10321939D01*
Y10358100D01*
D02*
G37*
G36*
X11529661Y10356600D02*
X11493500D01*
Y10320439D01*
X11500465Y10321824D01*
X11517136Y10332963D01*
X11528276Y10349635D01*
X11529661Y10356600D01*
D02*
G37*
G36*
X11468100D02*
X11431939D01*
X11433324Y10349635D01*
X11444464Y10332963D01*
X11461135Y10321824D01*
X11468100Y10320439D01*
Y10356600D01*
D02*
G37*
G36*
X4101718Y10414587D02*
X4082053Y10410676D01*
X4065382Y10399536D01*
X4054242Y10382865D01*
X4050330Y10363200D01*
X4054242Y10343535D01*
X4065382Y10326864D01*
X4082053Y10315724D01*
X4101718Y10311813D01*
X4121383Y10315724D01*
X4138054Y10326864D01*
X4149193Y10343535D01*
X4153105Y10363200D01*
X4149193Y10382865D01*
X4138054Y10399536D01*
X4121383Y10410676D01*
X4101718Y10414587D01*
D02*
G37*
G36*
X12446000Y10530396D02*
X12415875Y10526430D01*
X12387802Y10514801D01*
X12363696Y10496304D01*
X12345199Y10472198D01*
X12333570Y10444125D01*
X12329604Y10414000D01*
X12333570Y10383875D01*
X12345199Y10355802D01*
X12363696Y10331696D01*
X12387802Y10313199D01*
X12415875Y10301570D01*
X12446000Y10297604D01*
X12476125Y10301570D01*
X12504198Y10313199D01*
X12528304Y10331696D01*
X12546801Y10355802D01*
X12558430Y10383875D01*
X12562396Y10414000D01*
X12558430Y10444125D01*
X12546801Y10472198D01*
X12528304Y10496304D01*
X12504198Y10514801D01*
X12476125Y10526430D01*
X12446000Y10530396D01*
D02*
G37*
G36*
X2032000D02*
X2001875Y10526430D01*
X1973802Y10514801D01*
X1949696Y10496304D01*
X1931199Y10472198D01*
X1919570Y10444125D01*
X1915604Y10414000D01*
X1919570Y10383875D01*
X1931199Y10355802D01*
X1949696Y10331696D01*
X1973802Y10313199D01*
X2001875Y10301570D01*
X2032000Y10297604D01*
X2062125Y10301570D01*
X2090198Y10313199D01*
X2114304Y10331696D01*
X2132801Y10355802D01*
X2144430Y10383875D01*
X2148395Y10414000D01*
X2144430Y10444125D01*
X2132801Y10472198D01*
X2114304Y10496304D01*
X2090198Y10514801D01*
X2062125Y10526430D01*
X2032000Y10530396D01*
D02*
G37*
G36*
X8356600Y10366787D02*
X8336935Y10362875D01*
X8320264Y10351736D01*
X8309124Y10335065D01*
X8305213Y10315400D01*
X8309124Y10295735D01*
X8320264Y10279064D01*
X8336935Y10267924D01*
X8356600Y10264012D01*
X8376265Y10267924D01*
X8392936Y10279064D01*
X8404076Y10295735D01*
X8407987Y10315400D01*
X8404076Y10335065D01*
X8392936Y10351736D01*
X8376265Y10362875D01*
X8356600Y10366787D01*
D02*
G37*
G36*
X4775200Y10338387D02*
X4755535Y10334476D01*
X4738864Y10323336D01*
X4727724Y10306665D01*
X4723813Y10287000D01*
X4727724Y10267335D01*
X4738864Y10250664D01*
X4755535Y10239524D01*
X4775200Y10235613D01*
X4794865Y10239524D01*
X4811536Y10250664D01*
X4822676Y10267335D01*
X4826587Y10287000D01*
X4822676Y10306665D01*
X4811536Y10323336D01*
X4794865Y10334476D01*
X4775200Y10338387D01*
D02*
G37*
G36*
X6576661Y10255000D02*
X6540500D01*
Y10218839D01*
X6547465Y10220224D01*
X6564136Y10231363D01*
X6575276Y10248035D01*
X6576661Y10255000D01*
D02*
G37*
G36*
X6515100D02*
X6478939D01*
X6480324Y10248035D01*
X6491464Y10231363D01*
X6508135Y10220224D01*
X6515100Y10218839D01*
Y10255000D01*
D02*
G37*
G36*
X5994400Y10389187D02*
X5974735Y10385276D01*
X5958064Y10374136D01*
X5946924Y10357465D01*
X5943013Y10337800D01*
X5946924Y10318135D01*
X5958064Y10301464D01*
X5974735Y10290324D01*
X5977433Y10283810D01*
X5972324Y10276164D01*
X5968413Y10256499D01*
X5972324Y10236834D01*
X5983464Y10220163D01*
X6000135Y10209024D01*
X6019800Y10205112D01*
X6039465Y10209024D01*
X6056136Y10220163D01*
X6067276Y10236834D01*
X6071187Y10256499D01*
X6067276Y10276164D01*
X6056136Y10292836D01*
X6039465Y10303975D01*
X6036767Y10310489D01*
X6041876Y10318135D01*
X6045787Y10337800D01*
X6041876Y10357465D01*
X6030736Y10374136D01*
X6014065Y10385276D01*
X5994400Y10389187D01*
D02*
G37*
G36*
X2286000Y10292587D02*
X2266335Y10288676D01*
X2249664Y10277536D01*
X2238524Y10260865D01*
X2234613Y10241200D01*
X2238524Y10221535D01*
X2249664Y10204864D01*
X2266335Y10193724D01*
X2286000Y10189813D01*
X2305665Y10193724D01*
X2322336Y10204864D01*
X2333476Y10221535D01*
X2337387Y10241200D01*
X2333476Y10260865D01*
X2322336Y10277536D01*
X2305665Y10288676D01*
X2286000Y10292587D01*
D02*
G37*
G36*
X6159500Y10214961D02*
Y10178800D01*
X6195661D01*
X6194276Y10185764D01*
X6183136Y10202436D01*
X6166465Y10213575D01*
X6159500Y10214961D01*
D02*
G37*
G36*
X6134100D02*
X6127135Y10213575D01*
X6110464Y10202436D01*
X6099324Y10185764D01*
X6097939Y10178800D01*
X6134100D01*
Y10214961D01*
D02*
G37*
G36*
X7607200Y10280987D02*
X7587535Y10277075D01*
X7570864Y10265936D01*
X7559725Y10249265D01*
X7555813Y10229600D01*
X7559725Y10209935D01*
X7570864Y10193264D01*
X7587535Y10182124D01*
X7607200Y10178213D01*
X7626865Y10182124D01*
X7643536Y10193264D01*
X7654676Y10209935D01*
X7658587Y10229600D01*
X7654676Y10249265D01*
X7643536Y10265936D01*
X7626865Y10277075D01*
X7607200Y10280987D01*
D02*
G37*
G36*
X9602799Y10255087D02*
X9583135Y10251176D01*
X9566463Y10240036D01*
X9555324Y10223365D01*
X9551412Y10203700D01*
X9555324Y10184035D01*
X9566463Y10167364D01*
X9583135Y10156224D01*
X9602799Y10152313D01*
X9622464Y10156224D01*
X9639136Y10167364D01*
X9650275Y10184035D01*
X9654187Y10203700D01*
X9650275Y10223365D01*
X9639136Y10240036D01*
X9622464Y10251176D01*
X9602799Y10255087D01*
D02*
G37*
G36*
X8242200Y10230187D02*
X8222535Y10226275D01*
X8205864Y10215136D01*
X8194725Y10198465D01*
X8190813Y10178800D01*
X8194725Y10159135D01*
X8205864Y10142464D01*
X8222535Y10131324D01*
X8242200Y10127413D01*
X8261865Y10131324D01*
X8278536Y10142464D01*
X8289676Y10159135D01*
X8293587Y10178800D01*
X8289676Y10198465D01*
X8278536Y10215136D01*
X8261865Y10226275D01*
X8242200Y10230187D01*
D02*
G37*
G36*
X6195661Y10153400D02*
X6159500D01*
Y10117239D01*
X6166465Y10118624D01*
X6183136Y10129763D01*
X6194276Y10146435D01*
X6195661Y10153400D01*
D02*
G37*
G36*
X6134100D02*
X6097939D01*
X6099324Y10146435D01*
X6110464Y10129763D01*
X6127135Y10118624D01*
X6134100Y10117239D01*
Y10153400D01*
D02*
G37*
G36*
X3746718Y10204687D02*
X3727054Y10200775D01*
X3710382Y10189636D01*
X3699243Y10172965D01*
X3695331Y10153300D01*
X3699243Y10133635D01*
X3710382Y10116964D01*
X3727054Y10105824D01*
X3746718Y10101912D01*
X3766383Y10105824D01*
X3783055Y10116964D01*
X3794194Y10133635D01*
X3798106Y10153300D01*
X3794194Y10172965D01*
X3783055Y10189636D01*
X3766383Y10200775D01*
X3746718Y10204687D01*
D02*
G37*
G36*
X5943600Y10169587D02*
X5923935Y10165675D01*
X5907264Y10154536D01*
X5896124Y10137865D01*
X5892213Y10118200D01*
X5896124Y10098535D01*
X5907264Y10081864D01*
X5923935Y10070724D01*
X5943600Y10066812D01*
X5963265Y10070724D01*
X5979936Y10081864D01*
X5991076Y10098535D01*
X5994987Y10118200D01*
X5991076Y10137865D01*
X5979936Y10154536D01*
X5963265Y10165675D01*
X5943600Y10169587D01*
D02*
G37*
G36*
X12446000Y10276395D02*
X12415875Y10272430D01*
X12387802Y10260801D01*
X12363696Y10242304D01*
X12345199Y10218198D01*
X12333570Y10190125D01*
X12329604Y10160000D01*
X12333570Y10129875D01*
X12345199Y10101802D01*
X12363696Y10077696D01*
X12387802Y10059199D01*
X12415875Y10047570D01*
X12446000Y10043604D01*
X12476125Y10047570D01*
X12504198Y10059199D01*
X12528304Y10077696D01*
X12546801Y10101802D01*
X12558430Y10129875D01*
X12562396Y10160000D01*
X12558430Y10190125D01*
X12546801Y10218198D01*
X12528304Y10242304D01*
X12504198Y10260801D01*
X12476125Y10272430D01*
X12446000Y10276395D01*
D02*
G37*
G36*
X2032000D02*
X2001875Y10272430D01*
X1973802Y10260801D01*
X1949696Y10242304D01*
X1931199Y10218198D01*
X1919570Y10190125D01*
X1915604Y10160000D01*
X1919570Y10129875D01*
X1931199Y10101802D01*
X1949696Y10077696D01*
X1973802Y10059199D01*
X2001875Y10047570D01*
X2032000Y10043604D01*
X2062125Y10047570D01*
X2090198Y10059199D01*
X2114304Y10077696D01*
X2132801Y10101802D01*
X2144430Y10129875D01*
X2148395Y10160000D01*
X2144430Y10190125D01*
X2132801Y10218198D01*
X2114304Y10242304D01*
X2090198Y10260801D01*
X2062125Y10272430D01*
X2032000Y10276395D01*
D02*
G37*
G36*
X8356600Y10109787D02*
X8336935Y10105876D01*
X8320264Y10094736D01*
X8309124Y10078065D01*
X8305213Y10058400D01*
X8309124Y10038735D01*
X8320264Y10022064D01*
X8336935Y10010924D01*
X8356600Y10007013D01*
X8376265Y10010924D01*
X8392936Y10022064D01*
X8404076Y10038735D01*
X8407987Y10058400D01*
X8404076Y10078065D01*
X8392936Y10094736D01*
X8376265Y10105876D01*
X8356600Y10109787D01*
D02*
G37*
G36*
X5486400Y10070187D02*
X5466735Y10066275D01*
X5450064Y10055136D01*
X5438924Y10038465D01*
X5435013Y10018800D01*
X5438924Y9999135D01*
X5450064Y9982463D01*
X5466735Y9971324D01*
X5486400Y9967412D01*
X5506065Y9971324D01*
X5522736Y9982463D01*
X5533876Y9999135D01*
X5537787Y10018800D01*
X5533876Y10038465D01*
X5522736Y10055136D01*
X5506065Y10066275D01*
X5486400Y10070187D01*
D02*
G37*
G36*
X5092700Y10000561D02*
Y9964400D01*
X5128861D01*
X5127476Y9971365D01*
X5116336Y9988036D01*
X5099665Y9999175D01*
X5092700Y10000561D01*
D02*
G37*
G36*
X5067300D02*
X5060335Y9999175D01*
X5043664Y9988036D01*
X5032524Y9971365D01*
X5031139Y9964400D01*
X5067300D01*
Y10000561D01*
D02*
G37*
G36*
X6299200Y10032687D02*
X6279535Y10028775D01*
X6262864Y10017636D01*
X6251724Y10000965D01*
X6247813Y9981300D01*
X6251724Y9961635D01*
X6262864Y9944963D01*
X6279535Y9933824D01*
X6299200Y9929912D01*
X6318865Y9933824D01*
X6335536Y9944963D01*
X6346676Y9961635D01*
X6350587Y9981300D01*
X6346676Y10000965D01*
X6335536Y10017636D01*
X6318865Y10028775D01*
X6299200Y10032687D01*
D02*
G37*
G36*
X6468500Y10020387D02*
X6448835Y10016476D01*
X6432163Y10005336D01*
X6421024Y9988665D01*
X6417112Y9969000D01*
X6421024Y9949335D01*
X6432163Y9932664D01*
X6448835Y9921524D01*
X6468500Y9917613D01*
X6488165Y9921524D01*
X6504836Y9932664D01*
X6515975Y9949335D01*
X6519887Y9969000D01*
X6515975Y9988665D01*
X6504836Y10005336D01*
X6488165Y10016476D01*
X6468500Y10020387D01*
D02*
G37*
G36*
X2356100Y9945161D02*
Y9909000D01*
X2392261D01*
X2390876Y9915965D01*
X2379736Y9932636D01*
X2363065Y9943776D01*
X2356100Y9945161D01*
D02*
G37*
G36*
X2330700D02*
X2323735Y9943776D01*
X2307064Y9932636D01*
X2295924Y9915965D01*
X2294539Y9909000D01*
X2330700D01*
Y9945161D01*
D02*
G37*
G36*
X4729887Y10011187D02*
X4710222Y10007275D01*
X4693550Y9996136D01*
X4682411Y9979465D01*
X4678499Y9959800D01*
X4682411Y9940135D01*
X4693550Y9923464D01*
X4710222Y9912324D01*
X4729887Y9908412D01*
X4749552Y9912324D01*
X4766223Y9923464D01*
X4777362Y9940135D01*
X4781274Y9959800D01*
X4777362Y9979465D01*
X4766223Y9996136D01*
X4749552Y10007275D01*
X4729887Y10011187D01*
D02*
G37*
G36*
X5128861Y9939000D02*
X5092700D01*
Y9902839D01*
X5099665Y9904224D01*
X5116336Y9915363D01*
X5127476Y9932035D01*
X5128861Y9939000D01*
D02*
G37*
G36*
X5067300D02*
X5031139D01*
X5032524Y9932035D01*
X5043664Y9915363D01*
X5060335Y9904224D01*
X5067300Y9902839D01*
Y9939000D01*
D02*
G37*
G36*
X8472499Y9928461D02*
Y9892300D01*
X8508660D01*
X8507275Y9899265D01*
X8496136Y9915936D01*
X8479464Y9927075D01*
X8472499Y9928461D01*
D02*
G37*
G36*
X8447099D02*
X8440135Y9927075D01*
X8423463Y9915936D01*
X8412324Y9899265D01*
X8410938Y9892300D01*
X8447099D01*
Y9928461D01*
D02*
G37*
G36*
X10922000Y9988887D02*
X10902335Y9984975D01*
X10885664Y9973836D01*
X10874524Y9957164D01*
X10870613Y9937500D01*
X10874524Y9917835D01*
X10885664Y9901163D01*
X10902335Y9890024D01*
X10922000Y9886112D01*
X10941665Y9890024D01*
X10958336Y9901163D01*
X10969476Y9917835D01*
X10973387Y9937500D01*
X10969476Y9957164D01*
X10958336Y9973836D01*
X10941665Y9984975D01*
X10922000Y9988887D01*
D02*
G37*
G36*
X5937000D02*
X5917335Y9984975D01*
X5900664Y9973836D01*
X5889524Y9957164D01*
X5885613Y9937500D01*
X5889524Y9917835D01*
X5900664Y9901163D01*
X5917335Y9890024D01*
X5937000Y9886112D01*
X5956665Y9890024D01*
X5973336Y9901163D01*
X5984475Y9917835D01*
X5988387Y9937500D01*
X5984475Y9957164D01*
X5973336Y9973836D01*
X5956665Y9984975D01*
X5937000Y9988887D01*
D02*
G37*
G36*
X7061100Y9913661D02*
Y9877500D01*
X7097261D01*
X7095876Y9884465D01*
X7084736Y9901136D01*
X7068065Y9912276D01*
X7061100Y9913661D01*
D02*
G37*
G36*
X7035700D02*
X7028735Y9912276D01*
X7012064Y9901136D01*
X7000925Y9884465D01*
X6999539Y9877500D01*
X7035700D01*
Y9913661D01*
D02*
G37*
G36*
X3897987Y9907161D02*
Y9871000D01*
X3934148D01*
X3932763Y9877965D01*
X3921623Y9894636D01*
X3904952Y9905775D01*
X3897987Y9907161D01*
D02*
G37*
G36*
X3872587D02*
X3865622Y9905775D01*
X3848951Y9894636D01*
X3837811Y9877965D01*
X3836426Y9871000D01*
X3872587D01*
Y9907161D01*
D02*
G37*
G36*
X8852300Y9962987D02*
X8832635Y9959076D01*
X8815963Y9947936D01*
X8804824Y9931265D01*
X8800912Y9911600D01*
X8804824Y9891935D01*
X8815963Y9875264D01*
X8832635Y9864124D01*
X8852300Y9860213D01*
X8871964Y9864124D01*
X8888636Y9875264D01*
X8899775Y9891935D01*
X8903687Y9911600D01*
X8899775Y9931265D01*
X8888636Y9947936D01*
X8871964Y9959076D01*
X8852300Y9962987D01*
D02*
G37*
G36*
X3200400Y9954288D02*
X3180735Y9950376D01*
X3164064Y9939237D01*
X3152924Y9922565D01*
X3149012Y9902900D01*
X3152924Y9883236D01*
X3164064Y9866564D01*
X3180735Y9855425D01*
X3200400Y9851513D01*
X3220065Y9855425D01*
X3236736Y9866564D01*
X3247875Y9883236D01*
X3251787Y9902900D01*
X3247875Y9922565D01*
X3236736Y9939237D01*
X3220065Y9950376D01*
X3200400Y9954288D01*
D02*
G37*
G36*
X4279287Y9954287D02*
X4259622Y9950376D01*
X4242951Y9939236D01*
X4231811Y9922565D01*
X4227900Y9902900D01*
X4231811Y9883235D01*
X4242951Y9866564D01*
X4259622Y9855424D01*
X4279287Y9851513D01*
X4298952Y9855424D01*
X4315623Y9866564D01*
X4326762Y9883235D01*
X4330674Y9902900D01*
X4326762Y9922565D01*
X4315623Y9939236D01*
X4298952Y9950376D01*
X4279287Y9954287D01*
D02*
G37*
G36*
X2392261Y9883600D02*
X2356100D01*
Y9847439D01*
X2363065Y9848824D01*
X2379736Y9859964D01*
X2390876Y9876635D01*
X2392261Y9883600D01*
D02*
G37*
G36*
X2330700D02*
X2294539D01*
X2295924Y9876635D01*
X2307064Y9859964D01*
X2323735Y9848824D01*
X2330700Y9847439D01*
Y9883600D01*
D02*
G37*
G36*
X7440900Y9937687D02*
X7421235Y9933775D01*
X7404564Y9922636D01*
X7393425Y9905965D01*
X7389513Y9886300D01*
X7393425Y9866635D01*
X7404564Y9849964D01*
X7421235Y9838824D01*
X7440900Y9834913D01*
X7460565Y9838824D01*
X7477237Y9849964D01*
X7488376Y9866635D01*
X7492288Y9886300D01*
X7488376Y9905965D01*
X7477237Y9922636D01*
X7460565Y9933775D01*
X7440900Y9937687D01*
D02*
G37*
G36*
X8508660Y9866900D02*
X8472499D01*
Y9830739D01*
X8479464Y9832124D01*
X8496136Y9843264D01*
X8507275Y9859935D01*
X8508660Y9866900D01*
D02*
G37*
G36*
X8447099D02*
X8410938D01*
X8412324Y9859935D01*
X8423463Y9843264D01*
X8440135Y9832124D01*
X8447099Y9830739D01*
Y9866900D01*
D02*
G37*
G36*
X7097261Y9852100D02*
X7061100D01*
Y9815939D01*
X7068065Y9817324D01*
X7084736Y9828464D01*
X7095876Y9845135D01*
X7097261Y9852100D01*
D02*
G37*
G36*
X7035700D02*
X6999539D01*
X7000925Y9845135D01*
X7012064Y9828464D01*
X7028735Y9817324D01*
X7035700Y9815939D01*
Y9852100D01*
D02*
G37*
G36*
X3934148Y9845600D02*
X3897987D01*
Y9809439D01*
X3904952Y9810824D01*
X3921623Y9821964D01*
X3932763Y9838635D01*
X3934148Y9845600D01*
D02*
G37*
G36*
X3872587D02*
X3836426D01*
X3837811Y9838635D01*
X3848951Y9821964D01*
X3865622Y9810824D01*
X3872587Y9809439D01*
Y9845600D01*
D02*
G37*
G36*
X6692900Y9833961D02*
Y9797800D01*
X6729061D01*
X6727676Y9804764D01*
X6716536Y9821436D01*
X6699865Y9832575D01*
X6692900Y9833961D01*
D02*
G37*
G36*
X6667500D02*
X6660535Y9832575D01*
X6643864Y9821436D01*
X6632724Y9804764D01*
X6631339Y9797800D01*
X6667500D01*
Y9833961D01*
D02*
G37*
G36*
X12446000Y10022395D02*
X12415875Y10018430D01*
X12387802Y10006801D01*
X12363696Y9988304D01*
X12345199Y9964198D01*
X12333570Y9936125D01*
X12329604Y9906000D01*
X12333570Y9875875D01*
X12345199Y9847802D01*
X12363696Y9823696D01*
X12387802Y9805199D01*
X12415875Y9793570D01*
X12446000Y9789605D01*
X12476125Y9793570D01*
X12504198Y9805199D01*
X12528304Y9823696D01*
X12546801Y9847802D01*
X12558430Y9875875D01*
X12562396Y9906000D01*
X12558430Y9936125D01*
X12546801Y9964198D01*
X12528304Y9988304D01*
X12504198Y10006801D01*
X12476125Y10018430D01*
X12446000Y10022395D01*
D02*
G37*
G36*
X2032000D02*
X2001875Y10018430D01*
X1973802Y10006801D01*
X1949696Y9988304D01*
X1931199Y9964198D01*
X1919570Y9936125D01*
X1915604Y9906000D01*
X1919570Y9875875D01*
X1931199Y9847802D01*
X1949696Y9823696D01*
X1973802Y9805199D01*
X2001875Y9793570D01*
X2032000Y9789605D01*
X2062125Y9793570D01*
X2090198Y9805199D01*
X2114304Y9823696D01*
X2132801Y9847802D01*
X2144430Y9875875D01*
X2148395Y9906000D01*
X2144430Y9936125D01*
X2132801Y9964198D01*
X2114304Y9988304D01*
X2090198Y10006801D01*
X2062125Y10018430D01*
X2032000Y10022395D01*
D02*
G37*
G36*
X9631300Y9787261D02*
Y9751100D01*
X9667460D01*
X9666075Y9758065D01*
X9654936Y9774736D01*
X9638264Y9785875D01*
X9631300Y9787261D01*
D02*
G37*
G36*
X9605900D02*
X9598935Y9785875D01*
X9582263Y9774736D01*
X9571124Y9758065D01*
X9569739Y9751100D01*
X9605900D01*
Y9787261D01*
D02*
G37*
G36*
X6729061Y9772400D02*
X6692900D01*
Y9736239D01*
X6699865Y9737624D01*
X6716536Y9748763D01*
X6727676Y9765435D01*
X6729061Y9772400D01*
D02*
G37*
G36*
X6667500D02*
X6631339D01*
X6632724Y9765435D01*
X6643864Y9748763D01*
X6660535Y9737624D01*
X6667500Y9736239D01*
Y9772400D01*
D02*
G37*
G36*
X10452100Y9770042D02*
Y9733881D01*
X10488261D01*
X10486876Y9740846D01*
X10475736Y9757518D01*
X10459065Y9768657D01*
X10452100Y9770042D01*
D02*
G37*
G36*
X10426700D02*
X10419735Y9768657D01*
X10403064Y9757518D01*
X10391924Y9740846D01*
X10390539Y9733881D01*
X10426700D01*
Y9770042D01*
D02*
G37*
G36*
X11620500Y9767943D02*
Y9731782D01*
X11656661D01*
X11655276Y9738747D01*
X11644136Y9755418D01*
X11627465Y9766558D01*
X11620500Y9767943D01*
D02*
G37*
G36*
X11595100D02*
X11588135Y9766558D01*
X11571464Y9755418D01*
X11560324Y9738747D01*
X11558939Y9731782D01*
X11595100D01*
Y9767943D01*
D02*
G37*
G36*
X6832600Y9830387D02*
X6812935Y9826476D01*
X6796264Y9815336D01*
X6785124Y9798665D01*
X6781213Y9779000D01*
X6785124Y9759335D01*
X6796264Y9742664D01*
X6812935Y9731524D01*
X6832600Y9727613D01*
X6852265Y9731524D01*
X6868936Y9742664D01*
X6880076Y9759335D01*
X6883987Y9779000D01*
X6880076Y9798665D01*
X6868936Y9815336D01*
X6852265Y9826476D01*
X6832600Y9830387D01*
D02*
G37*
G36*
X3281700Y9735361D02*
Y9699200D01*
X3317861D01*
X3316475Y9706165D01*
X3305336Y9722836D01*
X3288665Y9733975D01*
X3281700Y9735361D01*
D02*
G37*
G36*
X3256300D02*
X3249335Y9733975D01*
X3232664Y9722836D01*
X3221524Y9706165D01*
X3220139Y9699200D01*
X3256300D01*
Y9735361D01*
D02*
G37*
G36*
X9667460Y9725700D02*
X9631300D01*
Y9689539D01*
X9638264Y9690924D01*
X9654936Y9702063D01*
X9666075Y9718735D01*
X9667460Y9725700D01*
D02*
G37*
G36*
X9605900D02*
X9569739D01*
X9571124Y9718735D01*
X9582263Y9702063D01*
X9598935Y9690924D01*
X9605900Y9689539D01*
Y9725700D01*
D02*
G37*
G36*
X8407400Y9789787D02*
X8387735Y9785875D01*
X8371064Y9774736D01*
X8359924Y9758065D01*
X8356013Y9738400D01*
X8359924Y9718735D01*
X8371064Y9702063D01*
X8387735Y9690924D01*
X8407400Y9687012D01*
X8427065Y9690924D01*
X8443736Y9702063D01*
X8454876Y9718735D01*
X8458787Y9738400D01*
X8454876Y9758065D01*
X8443736Y9774736D01*
X8427065Y9785875D01*
X8407400Y9789787D01*
D02*
G37*
G36*
X4953000Y9782800D02*
X4933335Y9778888D01*
X4916664Y9767749D01*
X4905524Y9751078D01*
X4901613Y9731413D01*
X4905524Y9711748D01*
X4916664Y9695077D01*
X4933335Y9683937D01*
X4953000Y9680026D01*
X4972665Y9683937D01*
X4989336Y9695077D01*
X5000476Y9711748D01*
X5004387Y9731413D01*
X5000476Y9751078D01*
X4989336Y9767749D01*
X4972665Y9778888D01*
X4953000Y9782800D01*
D02*
G37*
G36*
X4838087Y9782587D02*
X4818422Y9778675D01*
X4801751Y9767536D01*
X4790611Y9750865D01*
X4786700Y9731200D01*
X4790611Y9711535D01*
X4801751Y9694864D01*
X4818422Y9683724D01*
X4838087Y9679812D01*
X4857752Y9683724D01*
X4874423Y9694864D01*
X4885562Y9711535D01*
X4889474Y9731200D01*
X4885562Y9750865D01*
X4874423Y9767536D01*
X4857752Y9778675D01*
X4838087Y9782587D01*
D02*
G37*
G36*
X10488261Y9708481D02*
X10452100D01*
Y9672321D01*
X10459065Y9673706D01*
X10475736Y9684845D01*
X10486876Y9701517D01*
X10488261Y9708481D01*
D02*
G37*
G36*
X10426700D02*
X10390539D01*
X10391924Y9701517D01*
X10403064Y9684845D01*
X10419735Y9673706D01*
X10426700Y9672321D01*
Y9708481D01*
D02*
G37*
G36*
X11656661Y9706382D02*
X11620500D01*
Y9670221D01*
X11627465Y9671606D01*
X11644136Y9682746D01*
X11655276Y9699417D01*
X11656661Y9706382D01*
D02*
G37*
G36*
X11595100D02*
X11558939D01*
X11560324Y9699417D01*
X11571464Y9682746D01*
X11588135Y9671606D01*
X11595100Y9670221D01*
Y9706382D01*
D02*
G37*
G36*
X8280400Y9772569D02*
X8260735Y9768657D01*
X8244064Y9757518D01*
X8232924Y9740846D01*
X8229013Y9721181D01*
X8232924Y9701517D01*
X8244064Y9684845D01*
X8260735Y9673706D01*
X8280400Y9669794D01*
X8300065Y9673706D01*
X8316736Y9684845D01*
X8327876Y9701517D01*
X8331787Y9721181D01*
X8327876Y9740846D01*
X8316736Y9757518D01*
X8300065Y9768657D01*
X8280400Y9772569D01*
D02*
G37*
G36*
X9110600Y9765887D02*
X9090935Y9761975D01*
X9074263Y9750836D01*
X9063124Y9734165D01*
X9059212Y9714500D01*
X9063124Y9694835D01*
X9074263Y9678164D01*
X9090935Y9667024D01*
X9110600Y9663112D01*
X9130264Y9667024D01*
X9146936Y9678164D01*
X9158075Y9694835D01*
X9161987Y9714500D01*
X9158075Y9734165D01*
X9146936Y9750836D01*
X9130264Y9761975D01*
X9110600Y9765887D01*
D02*
G37*
G36*
X2889500Y9692562D02*
Y9656401D01*
X2925661D01*
X2924276Y9663365D01*
X2913136Y9680037D01*
X2896465Y9691176D01*
X2889500Y9692562D01*
D02*
G37*
G36*
X2864100D02*
X2857135Y9691176D01*
X2840464Y9680037D01*
X2829324Y9663365D01*
X2827939Y9656401D01*
X2864100D01*
Y9692562D01*
D02*
G37*
G36*
X10972800Y9754187D02*
X10953135Y9750276D01*
X10936464Y9739136D01*
X10925324Y9722465D01*
X10921413Y9702800D01*
X10925324Y9683135D01*
X10936464Y9666464D01*
X10953135Y9655324D01*
X10972800Y9651413D01*
X10992465Y9655324D01*
X11009136Y9666464D01*
X11020276Y9683135D01*
X11024187Y9702800D01*
X11020276Y9722465D01*
X11009136Y9739136D01*
X10992465Y9750276D01*
X10972800Y9754187D01*
D02*
G37*
G36*
X8077200D02*
X8057535Y9750276D01*
X8040864Y9739136D01*
X8029724Y9722465D01*
X8025813Y9702800D01*
X8029724Y9683135D01*
X8040864Y9666464D01*
X8057535Y9655324D01*
X8077200Y9651413D01*
X8096865Y9655324D01*
X8113536Y9666464D01*
X8124676Y9683135D01*
X8128587Y9702800D01*
X8124676Y9722465D01*
X8113536Y9739136D01*
X8096865Y9750276D01*
X8077200Y9754187D01*
D02*
G37*
G36*
X5202000Y9741487D02*
X5182335Y9737576D01*
X5165664Y9726436D01*
X5154524Y9709765D01*
X5150613Y9690100D01*
X5154524Y9670435D01*
X5165664Y9653764D01*
X5182335Y9642624D01*
X5202000Y9638713D01*
X5221665Y9642624D01*
X5238336Y9653764D01*
X5249476Y9670435D01*
X5253387Y9690100D01*
X5249476Y9709765D01*
X5238336Y9726436D01*
X5221665Y9737576D01*
X5202000Y9741487D01*
D02*
G37*
G36*
X3317861Y9673800D02*
X3281700D01*
Y9637639D01*
X3288665Y9639024D01*
X3305336Y9650164D01*
X3316475Y9666835D01*
X3317861Y9673800D01*
D02*
G37*
G36*
X3256300D02*
X3220139D01*
X3221524Y9666835D01*
X3232664Y9650164D01*
X3249335Y9639024D01*
X3256300Y9637639D01*
Y9673800D01*
D02*
G37*
G36*
X7708800Y9722187D02*
X7689135Y9718275D01*
X7672464Y9707136D01*
X7661325Y9690465D01*
X7657413Y9670800D01*
X7661325Y9651135D01*
X7672464Y9634464D01*
X7689135Y9623324D01*
X7708800Y9619413D01*
X7728465Y9623324D01*
X7745136Y9634464D01*
X7756276Y9651135D01*
X7760187Y9670800D01*
X7756276Y9690465D01*
X7745136Y9707136D01*
X7728465Y9718275D01*
X7708800Y9722187D01*
D02*
G37*
G36*
X10077300Y9715187D02*
X10057635Y9711275D01*
X10040964Y9700136D01*
X10029824Y9683464D01*
X10025913Y9663799D01*
X10029824Y9644134D01*
X10040964Y9627463D01*
X10057635Y9616324D01*
X10077300Y9612412D01*
X10096965Y9616324D01*
X10113636Y9627463D01*
X10124776Y9644134D01*
X10128687Y9663799D01*
X10124776Y9683464D01*
X10113636Y9700136D01*
X10096965Y9711275D01*
X10077300Y9715187D01*
D02*
G37*
G36*
X2735900Y9712988D02*
X2716235Y9709076D01*
X2699564Y9697937D01*
X2688424Y9681265D01*
X2684513Y9661600D01*
X2688424Y9641936D01*
X2699564Y9625264D01*
X2716235Y9614125D01*
X2735900Y9610213D01*
X2755565Y9614125D01*
X2772236Y9625264D01*
X2783376Y9641936D01*
X2787287Y9661600D01*
X2783376Y9681265D01*
X2772236Y9697937D01*
X2755565Y9709076D01*
X2735900Y9712988D01*
D02*
G37*
G36*
X11245700Y9713087D02*
X11226035Y9709175D01*
X11209364Y9698036D01*
X11198224Y9681365D01*
X11194313Y9661700D01*
X11198224Y9642035D01*
X11209364Y9625364D01*
X11226035Y9614224D01*
X11245700Y9610313D01*
X11265365Y9614224D01*
X11282036Y9625364D01*
X11283047Y9626876D01*
X11297946Y9626315D01*
X11305063Y9615664D01*
X11321735Y9604524D01*
X11341400Y9600613D01*
X11361065Y9604524D01*
X11377736Y9615664D01*
X11388875Y9632335D01*
X11392787Y9652000D01*
X11388875Y9671665D01*
X11377736Y9688336D01*
X11361065Y9699476D01*
X11341400Y9703387D01*
X11321735Y9699476D01*
X11305063Y9688336D01*
X11304053Y9686824D01*
X11289153Y9687385D01*
X11282036Y9698036D01*
X11265365Y9709175D01*
X11245700Y9713087D01*
D02*
G37*
G36*
X2260600Y9703387D02*
X2240935Y9699476D01*
X2224264Y9688336D01*
X2213124Y9671665D01*
X2209213Y9652000D01*
X2213124Y9632335D01*
X2224264Y9615664D01*
X2240935Y9604524D01*
X2260600Y9600613D01*
X2280265Y9604524D01*
X2296936Y9615664D01*
X2308076Y9632335D01*
X2311987Y9652000D01*
X2308076Y9671665D01*
X2296936Y9688336D01*
X2280265Y9699476D01*
X2260600Y9703387D01*
D02*
G37*
G36*
X2925661Y9631001D02*
X2889500D01*
Y9594840D01*
X2896465Y9596225D01*
X2913136Y9607364D01*
X2924276Y9624036D01*
X2925661Y9631001D01*
D02*
G37*
G36*
X2864100D02*
X2827939D01*
X2829324Y9624036D01*
X2840464Y9607364D01*
X2857135Y9596225D01*
X2864100Y9594840D01*
Y9631001D01*
D02*
G37*
G36*
X6934200Y9695088D02*
X6914535Y9691176D01*
X6897864Y9680037D01*
X6886724Y9663365D01*
X6882813Y9643701D01*
X6886724Y9624036D01*
X6897864Y9607364D01*
X6914535Y9596225D01*
X6934200Y9592313D01*
X6953865Y9596225D01*
X6970536Y9607364D01*
X6981676Y9624036D01*
X6985587Y9643701D01*
X6981676Y9663365D01*
X6970536Y9680037D01*
X6953865Y9691176D01*
X6934200Y9695088D01*
D02*
G37*
G36*
X3730800Y9677987D02*
X3711135Y9674076D01*
X3694464Y9662936D01*
X3683324Y9646265D01*
X3679413Y9626600D01*
X3683324Y9606935D01*
X3694464Y9590264D01*
X3711135Y9579124D01*
X3730800Y9575213D01*
X3750465Y9579124D01*
X3767136Y9590264D01*
X3778276Y9606935D01*
X3782187Y9626600D01*
X3778276Y9646265D01*
X3767136Y9662936D01*
X3750465Y9674076D01*
X3730800Y9677987D01*
D02*
G37*
G36*
X6337300Y9599261D02*
Y9563100D01*
X6373461D01*
X6372076Y9570065D01*
X6360936Y9586736D01*
X6344265Y9597876D01*
X6337300Y9599261D01*
D02*
G37*
G36*
X6311900D02*
X6304935Y9597876D01*
X6288264Y9586736D01*
X6277124Y9570065D01*
X6275739Y9563100D01*
X6311900D01*
Y9599261D01*
D02*
G37*
G36*
X12446000Y9768395D02*
X12415875Y9764430D01*
X12387802Y9752801D01*
X12363696Y9734304D01*
X12345199Y9710198D01*
X12333570Y9682125D01*
X12329604Y9652000D01*
X12333570Y9621875D01*
X12345199Y9593802D01*
X12363696Y9569696D01*
X12387802Y9551199D01*
X12415875Y9539570D01*
X12446000Y9535604D01*
X12476125Y9539570D01*
X12504198Y9551199D01*
X12528304Y9569696D01*
X12546801Y9593802D01*
X12558430Y9621875D01*
X12562396Y9652000D01*
X12558430Y9682125D01*
X12546801Y9710198D01*
X12528304Y9734304D01*
X12504198Y9752801D01*
X12476125Y9764430D01*
X12446000Y9768395D01*
D02*
G37*
G36*
X2032000D02*
X2001875Y9764430D01*
X1973802Y9752801D01*
X1949696Y9734304D01*
X1931199Y9710198D01*
X1919570Y9682125D01*
X1915604Y9652000D01*
X1919570Y9621875D01*
X1931199Y9593802D01*
X1949696Y9569696D01*
X1973802Y9551199D01*
X2001875Y9539570D01*
X2032000Y9535604D01*
X2062125Y9539570D01*
X2090198Y9551199D01*
X2114304Y9569696D01*
X2132801Y9593802D01*
X2144430Y9621875D01*
X2148395Y9652000D01*
X2144430Y9682125D01*
X2132801Y9710198D01*
X2114304Y9734304D01*
X2090198Y9752801D01*
X2062125Y9764430D01*
X2032000Y9768395D01*
D02*
G37*
G36*
X10947400Y9627187D02*
X10927735Y9623276D01*
X10911064Y9612136D01*
X10899924Y9595465D01*
X10896013Y9575800D01*
X10899924Y9556135D01*
X10911064Y9539464D01*
X10927735Y9528324D01*
X10947400Y9524413D01*
X10967065Y9528324D01*
X10983736Y9539464D01*
X10994876Y9556135D01*
X10998787Y9575800D01*
X10994876Y9595465D01*
X10983736Y9612136D01*
X10967065Y9623276D01*
X10947400Y9627187D01*
D02*
G37*
G36*
X7975600D02*
X7955935Y9623276D01*
X7939264Y9612136D01*
X7928124Y9595465D01*
X7924213Y9575800D01*
X7928124Y9556135D01*
X7939264Y9539464D01*
X7955935Y9528324D01*
X7975600Y9524413D01*
X7995265Y9528324D01*
X8011936Y9539464D01*
X8023076Y9556135D01*
X8026987Y9575800D01*
X8023076Y9595465D01*
X8011936Y9612136D01*
X7995265Y9623276D01*
X7975600Y9627187D01*
D02*
G37*
G36*
X6373461Y9537700D02*
X6337300D01*
Y9501539D01*
X6344265Y9502924D01*
X6360936Y9514064D01*
X6372076Y9530735D01*
X6373461Y9537700D01*
D02*
G37*
G36*
X6311900D02*
X6275739D01*
X6277124Y9530735D01*
X6288264Y9514064D01*
X6304935Y9502924D01*
X6311900Y9501539D01*
Y9537700D01*
D02*
G37*
G36*
X7848600Y9601787D02*
X7828935Y9597876D01*
X7812264Y9586736D01*
X7801124Y9570065D01*
X7797213Y9550400D01*
X7801124Y9530735D01*
X7812264Y9514064D01*
X7828935Y9502924D01*
X7848600Y9499013D01*
X7868265Y9502924D01*
X7884936Y9514064D01*
X7896076Y9530735D01*
X7899987Y9550400D01*
X7896076Y9570065D01*
X7884936Y9586736D01*
X7868265Y9597876D01*
X7848600Y9601787D01*
D02*
G37*
G36*
X7662200Y9576387D02*
X7642535Y9572476D01*
X7625864Y9561336D01*
X7614725Y9544665D01*
X7610813Y9525000D01*
X7614725Y9505335D01*
X7625864Y9488664D01*
X7642535Y9477524D01*
X7662200Y9473613D01*
X7681865Y9477524D01*
X7698537Y9488664D01*
X7709676Y9505335D01*
X7713588Y9525000D01*
X7709676Y9544665D01*
X7698537Y9561336D01*
X7681865Y9572476D01*
X7662200Y9576387D01*
D02*
G37*
G36*
X4572000D02*
X4552335Y9572476D01*
X4535664Y9561336D01*
X4524524Y9544665D01*
X4520613Y9525000D01*
X4524524Y9505335D01*
X4535664Y9488664D01*
X4552335Y9477524D01*
X4572000Y9473613D01*
X4591665Y9477524D01*
X4608336Y9488664D01*
X4619476Y9505335D01*
X4623387Y9525000D01*
X4619476Y9544665D01*
X4608336Y9561336D01*
X4591665Y9572476D01*
X4572000Y9576387D01*
D02*
G37*
G36*
X5078300Y9481361D02*
Y9445200D01*
X5114461D01*
X5113076Y9452164D01*
X5101936Y9468836D01*
X5085265Y9479975D01*
X5078300Y9481361D01*
D02*
G37*
G36*
X5052900D02*
X5045935Y9479975D01*
X5029264Y9468836D01*
X5018125Y9452164D01*
X5016739Y9445200D01*
X5052900D01*
Y9481361D01*
D02*
G37*
G36*
X4899800Y9545988D02*
X4880136Y9542076D01*
X4863464Y9530936D01*
X4852325Y9514265D01*
X4848413Y9494600D01*
X4852325Y9474935D01*
X4863464Y9458264D01*
X4880136Y9447125D01*
X4899800Y9443213D01*
X4919465Y9447125D01*
X4936137Y9458264D01*
X4947276Y9474935D01*
X4951188Y9494600D01*
X4947276Y9514265D01*
X4936137Y9530936D01*
X4919465Y9542076D01*
X4899800Y9545988D01*
D02*
G37*
G36*
X7734300Y9472261D02*
Y9436100D01*
X7770461D01*
X7769076Y9443065D01*
X7757936Y9459736D01*
X7741265Y9470876D01*
X7734300Y9472261D01*
D02*
G37*
G36*
X7708900D02*
X7701935Y9470876D01*
X7685264Y9459736D01*
X7674124Y9443065D01*
X7672739Y9436100D01*
X7708900D01*
Y9472261D01*
D02*
G37*
G36*
X4279287Y9527687D02*
X4259622Y9523775D01*
X4242951Y9512636D01*
X4231811Y9495964D01*
X4227900Y9476300D01*
X4231811Y9456635D01*
X4242951Y9439963D01*
X4259622Y9428824D01*
X4279287Y9424912D01*
X4298952Y9428824D01*
X4315623Y9439963D01*
X4326762Y9456635D01*
X4330674Y9476300D01*
X4326762Y9495964D01*
X4315623Y9512636D01*
X4298952Y9523775D01*
X4279287Y9527687D01*
D02*
G37*
G36*
X5911400Y9493587D02*
X5891735Y9489675D01*
X5875064Y9478536D01*
X5863925Y9461865D01*
X5860013Y9442200D01*
X5863925Y9422535D01*
X5875064Y9405864D01*
X5891735Y9394724D01*
X5911400Y9390813D01*
X5931065Y9394724D01*
X5947736Y9405864D01*
X5958876Y9422535D01*
X5962787Y9442200D01*
X5958876Y9461865D01*
X5947736Y9478536D01*
X5931065Y9489675D01*
X5911400Y9493587D01*
D02*
G37*
G36*
X5114461Y9419800D02*
X5078300D01*
Y9383639D01*
X5085265Y9385024D01*
X5101936Y9396163D01*
X5113076Y9412835D01*
X5114461Y9419800D01*
D02*
G37*
G36*
X5052900D02*
X5016739D01*
X5018125Y9412835D01*
X5029264Y9396163D01*
X5045935Y9385024D01*
X5052900Y9383639D01*
Y9419800D01*
D02*
G37*
G36*
X4965700Y9412961D02*
Y9376800D01*
X5001861D01*
X5000476Y9383765D01*
X4989336Y9400436D01*
X4972665Y9411575D01*
X4965700Y9412961D01*
D02*
G37*
G36*
X4940300D02*
X4933335Y9411575D01*
X4916664Y9400436D01*
X4905524Y9383765D01*
X4904139Y9376800D01*
X4940300D01*
Y9412961D01*
D02*
G37*
G36*
X7770461Y9410700D02*
X7734300D01*
Y9374539D01*
X7741265Y9375924D01*
X7757936Y9387064D01*
X7769076Y9403735D01*
X7770461Y9410700D01*
D02*
G37*
G36*
X7708900D02*
X7672739D01*
X7674124Y9403735D01*
X7685264Y9387064D01*
X7701935Y9375924D01*
X7708900Y9374539D01*
Y9410700D01*
D02*
G37*
G36*
X2876800Y9442787D02*
X2857135Y9438875D01*
X2840464Y9427736D01*
X2829324Y9411065D01*
X2825413Y9391400D01*
X2829324Y9371735D01*
X2840464Y9355064D01*
X2857135Y9343924D01*
X2876800Y9340013D01*
X2896465Y9343924D01*
X2913136Y9355064D01*
X2924276Y9371735D01*
X2928187Y9391400D01*
X2924276Y9411065D01*
X2913136Y9427736D01*
X2896465Y9438875D01*
X2876800Y9442787D01*
D02*
G37*
G36*
X10325100Y9372761D02*
Y9336600D01*
X10361261D01*
X10359876Y9343564D01*
X10348736Y9360236D01*
X10332065Y9371375D01*
X10325100Y9372761D01*
D02*
G37*
G36*
X10299700D02*
X10292735Y9371375D01*
X10276064Y9360236D01*
X10264924Y9343564D01*
X10263539Y9336600D01*
X10299700D01*
Y9372761D01*
D02*
G37*
G36*
X11493500Y9370661D02*
Y9334500D01*
X11529661D01*
X11528276Y9341465D01*
X11517136Y9358136D01*
X11500465Y9369276D01*
X11493500Y9370661D01*
D02*
G37*
G36*
X11468100D02*
X11461135Y9369276D01*
X11444464Y9358136D01*
X11433324Y9341465D01*
X11431939Y9334500D01*
X11468100D01*
Y9370661D01*
D02*
G37*
G36*
X7900900Y9369061D02*
Y9332900D01*
X7937061D01*
X7935676Y9339865D01*
X7924536Y9356536D01*
X7907865Y9367675D01*
X7900900Y9369061D01*
D02*
G37*
G36*
X7875500D02*
X7868535Y9367675D01*
X7851864Y9356536D01*
X7840724Y9339865D01*
X7839339Y9332900D01*
X7875500D01*
Y9369061D01*
D02*
G37*
G36*
X10566400Y9432687D02*
X10546735Y9428775D01*
X10530064Y9417636D01*
X10518924Y9400965D01*
X10515013Y9381300D01*
X10518924Y9361635D01*
X10530064Y9344964D01*
X10546735Y9333824D01*
X10566400Y9329913D01*
X10586065Y9333824D01*
X10602736Y9344964D01*
X10613876Y9361635D01*
X10617787Y9381300D01*
X10613876Y9400965D01*
X10602736Y9417636D01*
X10586065Y9428775D01*
X10566400Y9432687D01*
D02*
G37*
G36*
X11734800Y9430587D02*
X11715135Y9426676D01*
X11698464Y9415536D01*
X11687324Y9398865D01*
X11683413Y9379200D01*
X11687324Y9359535D01*
X11698464Y9342864D01*
X11715135Y9331725D01*
X11734800Y9327813D01*
X11754465Y9331725D01*
X11771136Y9342864D01*
X11782276Y9359535D01*
X11786187Y9379200D01*
X11782276Y9398865D01*
X11771136Y9415536D01*
X11754465Y9426676D01*
X11734800Y9430587D01*
D02*
G37*
G36*
X2664000D02*
X2644335Y9426676D01*
X2627664Y9415536D01*
X2616524Y9398865D01*
X2612613Y9379200D01*
X2616524Y9359535D01*
X2627664Y9342864D01*
X2644335Y9331725D01*
X2664000Y9327813D01*
X2683665Y9331725D01*
X2700336Y9342864D01*
X2711476Y9359535D01*
X2715387Y9379200D01*
X2711476Y9398865D01*
X2700336Y9415536D01*
X2683665Y9426676D01*
X2664000Y9430587D01*
D02*
G37*
G36*
X6481100Y9354361D02*
Y9318200D01*
X6517261D01*
X6515876Y9325164D01*
X6504737Y9341836D01*
X6488065Y9352975D01*
X6481100Y9354361D01*
D02*
G37*
G36*
X6455700D02*
X6448735Y9352975D01*
X6432064Y9341836D01*
X6420925Y9325164D01*
X6419539Y9318200D01*
X6455700D01*
Y9354361D01*
D02*
G37*
G36*
X3695700Y9327060D02*
Y9290899D01*
X3731861D01*
X3730476Y9297864D01*
X3719336Y9314536D01*
X3702665Y9325675D01*
X3695700Y9327060D01*
D02*
G37*
G36*
X3670300D02*
X3663335Y9325675D01*
X3646664Y9314536D01*
X3635524Y9297864D01*
X3634139Y9290899D01*
X3670300D01*
Y9327060D01*
D02*
G37*
G36*
X12446000Y9514395D02*
X12415875Y9510430D01*
X12387802Y9498801D01*
X12363696Y9480304D01*
X12345199Y9456198D01*
X12333570Y9428125D01*
X12329604Y9398000D01*
X12333570Y9367875D01*
X12345199Y9339802D01*
X12363696Y9315696D01*
X12387802Y9297199D01*
X12415875Y9285570D01*
X12446000Y9281604D01*
X12476125Y9285570D01*
X12504198Y9297199D01*
X12528304Y9315696D01*
X12546801Y9339802D01*
X12558430Y9367875D01*
X12562396Y9398000D01*
X12558430Y9428125D01*
X12546801Y9456198D01*
X12528304Y9480304D01*
X12504198Y9498801D01*
X12476125Y9510430D01*
X12446000Y9514395D01*
D02*
G37*
G36*
X2032000D02*
X2001875Y9510430D01*
X1973802Y9498801D01*
X1949696Y9480304D01*
X1931199Y9456198D01*
X1919570Y9428125D01*
X1915604Y9398000D01*
X1919570Y9367875D01*
X1931199Y9339802D01*
X1949696Y9315696D01*
X1973802Y9297199D01*
X2001875Y9285570D01*
X2032000Y9281604D01*
X2062125Y9285570D01*
X2090198Y9297199D01*
X2114304Y9315696D01*
X2132801Y9339802D01*
X2144430Y9367875D01*
X2148395Y9398000D01*
X2144430Y9428125D01*
X2132801Y9456198D01*
X2114304Y9480304D01*
X2090198Y9498801D01*
X2062125Y9510430D01*
X2032000Y9514395D01*
D02*
G37*
G36*
X8745200Y9378187D02*
X8725535Y9374276D01*
X8708863Y9363136D01*
X8697724Y9346465D01*
X8693812Y9326800D01*
X8697724Y9307135D01*
X8708863Y9290464D01*
X8725535Y9279325D01*
X8745200Y9275413D01*
X8764865Y9279325D01*
X8781536Y9290464D01*
X8792675Y9307135D01*
X8796587Y9326800D01*
X8792675Y9346465D01*
X8781536Y9363136D01*
X8764865Y9374276D01*
X8745200Y9378187D01*
D02*
G37*
G36*
X10361261Y9311200D02*
X10325100D01*
Y9275039D01*
X10332065Y9276424D01*
X10348736Y9287563D01*
X10359876Y9304235D01*
X10361261Y9311200D01*
D02*
G37*
G36*
X10299700D02*
X10263539D01*
X10264924Y9304235D01*
X10276064Y9287563D01*
X10292735Y9276424D01*
X10299700Y9275039D01*
Y9311200D01*
D02*
G37*
G36*
X11529661Y9309100D02*
X11493500D01*
Y9272939D01*
X11500465Y9274324D01*
X11517136Y9285464D01*
X11528276Y9302135D01*
X11529661Y9309100D01*
D02*
G37*
G36*
X11468100D02*
X11431939D01*
X11433324Y9302135D01*
X11444464Y9285464D01*
X11461135Y9274324D01*
X11468100Y9272939D01*
Y9309100D01*
D02*
G37*
G36*
X7937061Y9307500D02*
X7900900D01*
Y9271339D01*
X7907865Y9272724D01*
X7924536Y9283864D01*
X7935676Y9300535D01*
X7937061Y9307500D01*
D02*
G37*
G36*
X7875500D02*
X7839339D01*
X7840724Y9300535D01*
X7851864Y9283864D01*
X7868535Y9272724D01*
X7875500Y9271339D01*
Y9307500D01*
D02*
G37*
G36*
X9271000Y9366587D02*
X9251335Y9362675D01*
X9234664Y9351536D01*
X9223524Y9334865D01*
X9219613Y9315200D01*
X9223524Y9295535D01*
X9234664Y9278864D01*
X9251335Y9267724D01*
X9271000Y9263813D01*
X9290665Y9267724D01*
X9307336Y9278864D01*
X9318476Y9295535D01*
X9322387Y9315200D01*
X9318476Y9334865D01*
X9307336Y9351536D01*
X9290665Y9362675D01*
X9271000Y9366587D01*
D02*
G37*
G36*
X7314200D02*
X7294535Y9362675D01*
X7277864Y9351536D01*
X7266725Y9334865D01*
X7262813Y9315200D01*
X7266725Y9295535D01*
X7277864Y9278864D01*
X7294535Y9267724D01*
X7314200Y9263813D01*
X7333865Y9267724D01*
X7350536Y9278864D01*
X7361676Y9295535D01*
X7365588Y9315200D01*
X7361676Y9334865D01*
X7350536Y9351536D01*
X7333865Y9362675D01*
X7314200Y9366587D01*
D02*
G37*
G36*
X6517261Y9292800D02*
X6481100D01*
Y9256639D01*
X6488065Y9258024D01*
X6504737Y9269163D01*
X6515876Y9285835D01*
X6517261Y9292800D01*
D02*
G37*
G36*
X6455700D02*
X6419539D01*
X6420925Y9285835D01*
X6432064Y9269163D01*
X6448735Y9258024D01*
X6455700Y9256639D01*
Y9292800D01*
D02*
G37*
G36*
X4528800Y9339287D02*
X4509135Y9335375D01*
X4492464Y9324236D01*
X4481324Y9307565D01*
X4477413Y9287900D01*
X4481324Y9268235D01*
X4492464Y9251563D01*
X4509135Y9240424D01*
X4528800Y9236512D01*
X4548465Y9240424D01*
X4565136Y9251563D01*
X4576276Y9268235D01*
X4580187Y9287900D01*
X4576276Y9307565D01*
X4565136Y9324236D01*
X4548465Y9335375D01*
X4528800Y9339287D01*
D02*
G37*
G36*
X3731861Y9265499D02*
X3695700D01*
Y9229338D01*
X3702665Y9230724D01*
X3719336Y9241863D01*
X3730476Y9258534D01*
X3731861Y9265499D01*
D02*
G37*
G36*
X3670300D02*
X3634139D01*
X3635524Y9258534D01*
X3646664Y9241863D01*
X3663335Y9230724D01*
X3670300Y9229338D01*
Y9265499D01*
D02*
G37*
G36*
X4241800Y9315787D02*
X4222135Y9311875D01*
X4205464Y9300736D01*
X4194324Y9284065D01*
X4190413Y9264400D01*
X4194324Y9244735D01*
X4205464Y9228064D01*
X4222135Y9216924D01*
X4241800Y9213013D01*
X4261465Y9216924D01*
X4278136Y9228064D01*
X4289276Y9244735D01*
X4293187Y9264400D01*
X4289276Y9284065D01*
X4278136Y9300736D01*
X4261465Y9311875D01*
X4241800Y9315787D01*
D02*
G37*
G36*
X6273800Y9271587D02*
X6254135Y9267676D01*
X6237464Y9256536D01*
X6226324Y9239865D01*
X6222413Y9220200D01*
X6226324Y9200535D01*
X6237464Y9183864D01*
X6254135Y9172724D01*
X6273800Y9168813D01*
X6293465Y9172724D01*
X6310136Y9183864D01*
X6321276Y9200535D01*
X6325187Y9220200D01*
X6321276Y9239865D01*
X6310136Y9256536D01*
X6293465Y9267676D01*
X6273800Y9271587D01*
D02*
G37*
G36*
X5001861Y9351400D02*
X4904139D01*
X4905524Y9344435D01*
X4916664Y9327763D01*
X4928316Y9319978D01*
X4929419Y9305440D01*
X4929264Y9305336D01*
X4918125Y9288665D01*
X4914213Y9269000D01*
X4918125Y9249335D01*
X4929264Y9232664D01*
X4945935Y9221525D01*
X4965600Y9217613D01*
X4979112Y9220301D01*
X4979213Y9220200D01*
X4983125Y9200535D01*
X4994264Y9183864D01*
X5010935Y9172724D01*
X5030600Y9168813D01*
X5050265Y9172724D01*
X5066937Y9183864D01*
X5078076Y9200535D01*
X5081988Y9220200D01*
X5078076Y9239865D01*
X5066937Y9256536D01*
X5050265Y9267676D01*
X5030600Y9271587D01*
X5017088Y9268899D01*
X5016987Y9269001D01*
X5013076Y9288665D01*
X5001936Y9305336D01*
X4990284Y9313122D01*
X4989182Y9327660D01*
X4989336Y9327763D01*
X5000476Y9344435D01*
X5001861Y9351400D01*
D02*
G37*
G36*
X5458100Y9259387D02*
X5438435Y9255476D01*
X5421764Y9244336D01*
X5410625Y9227665D01*
X5406713Y9208000D01*
X5410625Y9188335D01*
X5421764Y9171664D01*
X5438435Y9160524D01*
X5458100Y9156613D01*
X5477765Y9160524D01*
X5494437Y9171664D01*
X5505576Y9188335D01*
X5509488Y9208000D01*
X5505576Y9227665D01*
X5494437Y9244336D01*
X5477765Y9255476D01*
X5458100Y9259387D01*
D02*
G37*
G36*
X3454400Y9356887D02*
X3434735Y9352975D01*
X3418064Y9341836D01*
X3406924Y9325164D01*
X3403013Y9305500D01*
X3406924Y9285835D01*
X3418064Y9269163D01*
X3434735Y9258024D01*
X3448869Y9255213D01*
X3451551Y9241730D01*
X3450064Y9240737D01*
X3438924Y9224065D01*
X3435013Y9204400D01*
X3438924Y9184736D01*
X3450064Y9168064D01*
X3466735Y9156925D01*
X3486400Y9153013D01*
X3506065Y9156925D01*
X3522736Y9168064D01*
X3533876Y9184736D01*
X3537787Y9204400D01*
X3533876Y9224065D01*
X3522736Y9240737D01*
X3506065Y9251876D01*
X3491931Y9254687D01*
X3489249Y9268170D01*
X3490736Y9269163D01*
X3501876Y9285835D01*
X3505787Y9305500D01*
X3501876Y9325164D01*
X3490736Y9341836D01*
X3474065Y9352975D01*
X3454400Y9356887D01*
D02*
G37*
G36*
X8826500Y9159261D02*
Y9123100D01*
X8862661D01*
X8861275Y9130065D01*
X8850136Y9146736D01*
X8833465Y9157875D01*
X8826500Y9159261D01*
D02*
G37*
G36*
X8801100D02*
X8794135Y9157875D01*
X8777464Y9146736D01*
X8766324Y9130065D01*
X8764939Y9123100D01*
X8801100D01*
Y9159261D01*
D02*
G37*
G36*
X7888200Y9208587D02*
X7868535Y9204676D01*
X7851864Y9193536D01*
X7840724Y9176865D01*
X7836813Y9157200D01*
X7840724Y9137535D01*
X7851864Y9120864D01*
X7868535Y9109724D01*
X7888200Y9105813D01*
X7907865Y9109724D01*
X7924536Y9120864D01*
X7935676Y9137535D01*
X7939587Y9157200D01*
X7935676Y9176865D01*
X7924536Y9193536D01*
X7907865Y9204676D01*
X7888200Y9208587D01*
D02*
G37*
G36*
X6400800Y9195387D02*
X6381135Y9191476D01*
X6364464Y9180336D01*
X6353324Y9163665D01*
X6349413Y9144000D01*
X6353324Y9124335D01*
X6364464Y9107664D01*
X6381135Y9096524D01*
X6400800Y9092613D01*
X6420465Y9096524D01*
X6437136Y9107664D01*
X6448276Y9124335D01*
X6452187Y9144000D01*
X6448276Y9163665D01*
X6437136Y9180336D01*
X6420465Y9191476D01*
X6400800Y9195387D01*
D02*
G37*
G36*
X5030600Y9111744D02*
X5010935Y9107832D01*
X4994264Y9096693D01*
X4984514Y9082100D01*
X4975637Y9080325D01*
X4970279Y9080543D01*
X4963936Y9090036D01*
X4947265Y9101175D01*
X4927600Y9105087D01*
X4907935Y9101175D01*
X4891264Y9090036D01*
X4880124Y9073365D01*
X4876213Y9053700D01*
X4880124Y9034035D01*
X4891264Y9017363D01*
X4907935Y9006224D01*
X4927600Y9002312D01*
X4947265Y9006224D01*
X4963936Y9017363D01*
X4973687Y9031956D01*
X4982563Y9033731D01*
X4987921Y9033513D01*
X4994264Y9024020D01*
X5010935Y9012881D01*
X5030600Y9008969D01*
X5050265Y9012881D01*
X5066937Y9024020D01*
X5078076Y9040691D01*
X5081988Y9060356D01*
X5078076Y9080021D01*
X5066937Y9096693D01*
X5050265Y9107832D01*
X5030600Y9111744D01*
D02*
G37*
G36*
X8434300Y9116461D02*
Y9080300D01*
X8470461D01*
X8469076Y9087265D01*
X8457936Y9103937D01*
X8441265Y9115076D01*
X8434300Y9116461D01*
D02*
G37*
G36*
X8408900D02*
X8401935Y9115076D01*
X8385264Y9103937D01*
X8374124Y9087265D01*
X8372739Y9080300D01*
X8408900D01*
Y9116461D01*
D02*
G37*
G36*
X3683000Y9177587D02*
X3663335Y9173676D01*
X3646664Y9162536D01*
X3635524Y9145865D01*
X3631613Y9126200D01*
X3635524Y9106535D01*
X3646664Y9089864D01*
X3663335Y9078724D01*
X3683000Y9074813D01*
X3702665Y9078724D01*
X3719336Y9089864D01*
X3730476Y9106535D01*
X3734387Y9126200D01*
X3730476Y9145865D01*
X3719336Y9162536D01*
X3702665Y9173676D01*
X3683000Y9177587D01*
D02*
G37*
G36*
X8862661Y9097700D02*
X8826500D01*
Y9061539D01*
X8833465Y9062924D01*
X8850136Y9074063D01*
X8861275Y9090735D01*
X8862661Y9097700D01*
D02*
G37*
G36*
X8801100D02*
X8764939D01*
X8766324Y9090735D01*
X8777464Y9074063D01*
X8794135Y9062924D01*
X8801100Y9061539D01*
Y9097700D01*
D02*
G37*
G36*
X8280700Y9136887D02*
X8261035Y9132976D01*
X8244364Y9121836D01*
X8233224Y9105165D01*
X8229313Y9085500D01*
X8233224Y9065835D01*
X8244364Y9049164D01*
X8261035Y9038025D01*
X8280700Y9034113D01*
X8300365Y9038025D01*
X8317036Y9049164D01*
X8328176Y9065835D01*
X8332087Y9085500D01*
X8328176Y9105165D01*
X8317036Y9121836D01*
X8300365Y9132976D01*
X8280700Y9136887D01*
D02*
G37*
G36*
X7713000Y9132387D02*
X7693335Y9128476D01*
X7676664Y9117336D01*
X7665525Y9100665D01*
X7661613Y9081000D01*
X7665525Y9061335D01*
X7676664Y9044664D01*
X7693335Y9033524D01*
X7713000Y9029613D01*
X7732665Y9033524D01*
X7749337Y9044664D01*
X7760476Y9061335D01*
X7764388Y9081000D01*
X7760476Y9100665D01*
X7749337Y9117336D01*
X7732665Y9128476D01*
X7713000Y9132387D01*
D02*
G37*
G36*
X6860900D02*
X6841235Y9128476D01*
X6824564Y9117336D01*
X6813425Y9100665D01*
X6809513Y9081000D01*
X6813425Y9061335D01*
X6824564Y9044664D01*
X6841235Y9033524D01*
X6860900Y9029613D01*
X6880565Y9033524D01*
X6897237Y9044664D01*
X6908376Y9061335D01*
X6912288Y9081000D01*
X6908376Y9100665D01*
X6897237Y9117336D01*
X6880565Y9128476D01*
X6860900Y9132387D01*
D02*
G37*
G36*
X12446000Y9260395D02*
X12415875Y9256430D01*
X12387802Y9244801D01*
X12363696Y9226304D01*
X12345199Y9202198D01*
X12333570Y9174125D01*
X12329604Y9144000D01*
X12333570Y9113875D01*
X12345199Y9085802D01*
X12363696Y9061696D01*
X12387802Y9043199D01*
X12415875Y9031570D01*
X12446000Y9027604D01*
X12476125Y9031570D01*
X12504198Y9043199D01*
X12528304Y9061696D01*
X12546801Y9085802D01*
X12558430Y9113875D01*
X12562396Y9144000D01*
X12558430Y9174125D01*
X12546801Y9202198D01*
X12528304Y9226304D01*
X12504198Y9244801D01*
X12476125Y9256430D01*
X12446000Y9260395D01*
D02*
G37*
G36*
X2032000D02*
X2001875Y9256430D01*
X1973802Y9244801D01*
X1949696Y9226304D01*
X1931199Y9202198D01*
X1919570Y9174125D01*
X1915604Y9144000D01*
X1919570Y9113875D01*
X1931199Y9085802D01*
X1949696Y9061696D01*
X1973802Y9043199D01*
X2001875Y9031570D01*
X2032000Y9027604D01*
X2062125Y9031570D01*
X2090198Y9043199D01*
X2114304Y9061696D01*
X2132801Y9085802D01*
X2144430Y9113875D01*
X2148395Y9144000D01*
X2144430Y9174125D01*
X2132801Y9202198D01*
X2114304Y9226304D01*
X2090198Y9244801D01*
X2062125Y9256430D01*
X2032000Y9260395D01*
D02*
G37*
G36*
X6043500Y9059261D02*
Y9023100D01*
X6079661D01*
X6078276Y9030065D01*
X6067136Y9046736D01*
X6050465Y9057875D01*
X6043500Y9059261D01*
D02*
G37*
G36*
X6018100D02*
X6011135Y9057875D01*
X5994464Y9046736D01*
X5983325Y9030065D01*
X5981939Y9023100D01*
X6018100D01*
Y9059261D01*
D02*
G37*
G36*
X8470461Y9054900D02*
X8434300D01*
Y9018739D01*
X8441265Y9020125D01*
X8457936Y9031264D01*
X8469076Y9047935D01*
X8470461Y9054900D01*
D02*
G37*
G36*
X8408900D02*
X8372739D01*
X8374124Y9047935D01*
X8385264Y9031264D01*
X8401935Y9020125D01*
X8408900Y9018739D01*
Y9054900D01*
D02*
G37*
G36*
X10861500Y9105087D02*
X10841835Y9101175D01*
X10825164Y9090036D01*
X10814025Y9073365D01*
X10810113Y9053700D01*
X10814025Y9034035D01*
X10825164Y9017363D01*
X10841835Y9006224D01*
X10861500Y9002312D01*
X10881165Y9006224D01*
X10897836Y9017363D01*
X10908976Y9034035D01*
X10912887Y9053700D01*
X10908976Y9073365D01*
X10897836Y9090036D01*
X10881165Y9101175D01*
X10861500Y9105087D01*
D02*
G37*
G36*
X4075500D02*
X4055835Y9101175D01*
X4039164Y9090036D01*
X4028024Y9073365D01*
X4024113Y9053700D01*
X4028024Y9034035D01*
X4039164Y9017363D01*
X4055835Y9006224D01*
X4075500Y9002312D01*
X4095165Y9006224D01*
X4111836Y9017363D01*
X4122976Y9034035D01*
X4126887Y9053700D01*
X4122976Y9073365D01*
X4111836Y9090036D01*
X4095165Y9101175D01*
X4075500Y9105087D01*
D02*
G37*
G36*
X6079661Y8997700D02*
X6043500D01*
Y8961539D01*
X6050465Y8962924D01*
X6067136Y8974064D01*
X6078276Y8990735D01*
X6079661Y8997700D01*
D02*
G37*
G36*
X6018100D02*
X5981939D01*
X5983325Y8990735D01*
X5994464Y8974064D01*
X6011135Y8962924D01*
X6018100Y8961539D01*
Y8997700D01*
D02*
G37*
G36*
X7446300Y8932261D02*
Y8896100D01*
X7482461D01*
X7481076Y8903065D01*
X7469937Y8919736D01*
X7453265Y8930875D01*
X7446300Y8932261D01*
D02*
G37*
G36*
X7420900D02*
X7413935Y8930875D01*
X7397264Y8919736D01*
X7386125Y8903065D01*
X7384739Y8896100D01*
X7420900D01*
Y8932261D01*
D02*
G37*
G36*
X2356100Y8929161D02*
Y8893000D01*
X2392261D01*
X2390876Y8899965D01*
X2379736Y8916636D01*
X2363065Y8927776D01*
X2356100Y8929161D01*
D02*
G37*
G36*
X2330700D02*
X2323735Y8927776D01*
X2307064Y8916636D01*
X2295924Y8899965D01*
X2294539Y8893000D01*
X2330700D01*
Y8929161D01*
D02*
G37*
G36*
X4660900Y8904961D02*
Y8868800D01*
X4697061D01*
X4695676Y8875765D01*
X4684536Y8892436D01*
X4667865Y8903575D01*
X4660900Y8904961D01*
D02*
G37*
G36*
X4635500D02*
X4628535Y8903575D01*
X4611864Y8892436D01*
X4600724Y8875765D01*
X4599339Y8868800D01*
X4635500D01*
Y8904961D01*
D02*
G37*
G36*
X5030600Y8965587D02*
X5010935Y8961675D01*
X4994264Y8950536D01*
X4983125Y8933865D01*
X4979213Y8914200D01*
X4983125Y8894535D01*
X4994264Y8877864D01*
X5010935Y8866724D01*
X5030600Y8862813D01*
X5050265Y8866724D01*
X5066937Y8877864D01*
X5078076Y8894535D01*
X5081988Y8914200D01*
X5078076Y8933865D01*
X5066937Y8950536D01*
X5050265Y8961675D01*
X5030600Y8965587D01*
D02*
G37*
G36*
X2735900Y8963688D02*
X2716235Y8959776D01*
X2699564Y8948637D01*
X2688424Y8931965D01*
X2684513Y8912300D01*
X2688424Y8892636D01*
X2699564Y8875964D01*
X2716235Y8864825D01*
X2735900Y8860913D01*
X2755565Y8864825D01*
X2772236Y8875964D01*
X2783376Y8892636D01*
X2787287Y8912300D01*
X2783376Y8931965D01*
X2772236Y8948637D01*
X2755565Y8959776D01*
X2735900Y8963688D01*
D02*
G37*
G36*
X7482461Y8870700D02*
X7446300D01*
Y8834539D01*
X7453265Y8835924D01*
X7469937Y8847064D01*
X7481076Y8863735D01*
X7482461Y8870700D01*
D02*
G37*
G36*
X7420900D02*
X7384739D01*
X7386125Y8863735D01*
X7397264Y8847064D01*
X7413935Y8835924D01*
X7420900Y8834539D01*
Y8870700D01*
D02*
G37*
G36*
X2392261Y8867600D02*
X2356100D01*
Y8831439D01*
X2363065Y8832825D01*
X2379736Y8843964D01*
X2390876Y8860635D01*
X2392261Y8867600D01*
D02*
G37*
G36*
X2330700D02*
X2294539D01*
X2295924Y8860635D01*
X2307064Y8843964D01*
X2323735Y8832825D01*
X2330700Y8831439D01*
Y8867600D01*
D02*
G37*
G36*
X4697061Y8843400D02*
X4660900D01*
Y8807239D01*
X4667865Y8808624D01*
X4684536Y8819763D01*
X4695676Y8836435D01*
X4697061Y8843400D01*
D02*
G37*
G36*
X4635500D02*
X4599339D01*
X4600724Y8836435D01*
X4611864Y8819763D01*
X4628535Y8808624D01*
X4635500Y8807239D01*
Y8843400D01*
D02*
G37*
G36*
X6351600Y8785487D02*
X6331935Y8781575D01*
X6315264Y8770436D01*
X6310815Y8763777D01*
X6298114D01*
X6295736Y8767336D01*
X6279065Y8778475D01*
X6259400Y8782387D01*
X6239735Y8778475D01*
X6223064Y8767336D01*
X6211925Y8750665D01*
X6208013Y8731000D01*
X6211925Y8711335D01*
X6223064Y8694664D01*
X6239735Y8683524D01*
X6259400Y8679613D01*
X6279065Y8683524D01*
X6295736Y8694664D01*
X6300186Y8701322D01*
X6312886D01*
X6315264Y8697763D01*
X6331935Y8686624D01*
X6351600Y8682712D01*
X6371265Y8686624D01*
X6387936Y8697763D01*
X6399076Y8714435D01*
X6402987Y8734100D01*
X6399076Y8753765D01*
X6387936Y8770436D01*
X6371265Y8781575D01*
X6351600Y8785487D01*
D02*
G37*
G36*
X3514900Y8787961D02*
Y8751800D01*
X3551061D01*
X3549676Y8758765D01*
X3538536Y8775436D01*
X3521865Y8786576D01*
X3514900Y8787961D01*
D02*
G37*
G36*
X3489500D02*
X3482535Y8786576D01*
X3465864Y8775436D01*
X3454724Y8758765D01*
X3453339Y8751800D01*
X3489500D01*
Y8787961D01*
D02*
G37*
G36*
X10312400Y8833187D02*
X10292735Y8829275D01*
X10276064Y8818136D01*
X10264924Y8801465D01*
X10261013Y8781800D01*
X10264924Y8762135D01*
X10276064Y8745464D01*
X10292735Y8734324D01*
X10312400Y8730413D01*
X10332065Y8734324D01*
X10348736Y8745464D01*
X10359876Y8762135D01*
X10363787Y8781800D01*
X10359876Y8801465D01*
X10348736Y8818136D01*
X10332065Y8829275D01*
X10312400Y8833187D01*
D02*
G37*
G36*
X5624400D02*
X5604735Y8829275D01*
X5588064Y8818136D01*
X5576925Y8801465D01*
X5573013Y8781800D01*
X5576925Y8762135D01*
X5588064Y8745464D01*
X5604735Y8734324D01*
X5624400Y8730413D01*
X5644065Y8734324D01*
X5660736Y8745464D01*
X5671876Y8762135D01*
X5675787Y8781800D01*
X5671876Y8801465D01*
X5660736Y8818136D01*
X5644065Y8829275D01*
X5624400Y8833187D01*
D02*
G37*
G36*
X3729200Y8797387D02*
X3709535Y8793475D01*
X3692864Y8782336D01*
X3681724Y8765664D01*
X3677813Y8746000D01*
X3681724Y8726335D01*
X3692864Y8709663D01*
X3709535Y8698524D01*
X3729200Y8694612D01*
X3748865Y8698524D01*
X3765536Y8709663D01*
X3776676Y8726335D01*
X3780587Y8746000D01*
X3776676Y8765664D01*
X3765536Y8782336D01*
X3748865Y8793475D01*
X3729200Y8797387D01*
D02*
G37*
G36*
X9879100Y8730343D02*
Y8694182D01*
X9915261D01*
X9913876Y8701147D01*
X9902736Y8717818D01*
X9886065Y8728958D01*
X9879100Y8730343D01*
D02*
G37*
G36*
X9853700D02*
X9846735Y8728958D01*
X9830064Y8717818D01*
X9818924Y8701147D01*
X9817539Y8694182D01*
X9853700D01*
Y8730343D01*
D02*
G37*
G36*
X11036300Y8726543D02*
Y8690382D01*
X11072461D01*
X11071076Y8697347D01*
X11059936Y8714018D01*
X11043265Y8725158D01*
X11036300Y8726543D01*
D02*
G37*
G36*
X11010900D02*
X11003935Y8725158D01*
X10987264Y8714018D01*
X10976124Y8697347D01*
X10974739Y8690382D01*
X11010900D01*
Y8726543D01*
D02*
G37*
G36*
X3551061Y8726400D02*
X3514900D01*
Y8690239D01*
X3521865Y8691624D01*
X3538536Y8702764D01*
X3549676Y8719435D01*
X3551061Y8726400D01*
D02*
G37*
G36*
X3489500D02*
X3453339D01*
X3454724Y8719435D01*
X3465864Y8702764D01*
X3482535Y8691624D01*
X3489500Y8690239D01*
Y8726400D01*
D02*
G37*
G36*
X8051800Y8785487D02*
X8032135Y8781575D01*
X8015464Y8770436D01*
X8004324Y8753765D01*
X8000413Y8734100D01*
X8004324Y8714435D01*
X8015464Y8697763D01*
X8032135Y8686624D01*
X8051800Y8682712D01*
X8071465Y8686624D01*
X8088136Y8697763D01*
X8099276Y8714435D01*
X8103187Y8734100D01*
X8099276Y8753765D01*
X8088136Y8770436D01*
X8071465Y8781575D01*
X8051800Y8785487D01*
D02*
G37*
G36*
X5029200Y8766587D02*
X5009535Y8762676D01*
X4992864Y8751536D01*
X4981724Y8734865D01*
X4977813Y8715200D01*
X4981724Y8695535D01*
X4992864Y8678864D01*
X5009535Y8667725D01*
X5029200Y8663813D01*
X5048865Y8667725D01*
X5065536Y8678864D01*
X5076676Y8695535D01*
X5080587Y8715200D01*
X5076676Y8734865D01*
X5065536Y8751536D01*
X5048865Y8762676D01*
X5029200Y8766587D01*
D02*
G37*
G36*
X2994200D02*
X2974535Y8762676D01*
X2957864Y8751536D01*
X2946724Y8734865D01*
X2942813Y8715200D01*
X2946724Y8695535D01*
X2957864Y8678864D01*
X2974535Y8667725D01*
X2994200Y8663813D01*
X3013865Y8667725D01*
X3030536Y8678864D01*
X3041676Y8695535D01*
X3045587Y8715200D01*
X3041676Y8734865D01*
X3030536Y8751536D01*
X3013865Y8762676D01*
X2994200Y8766587D01*
D02*
G37*
G36*
X9915261Y8668782D02*
X9879100D01*
Y8632621D01*
X9886065Y8634006D01*
X9902736Y8645146D01*
X9913876Y8661817D01*
X9915261Y8668782D01*
D02*
G37*
G36*
X9853700D02*
X9817539D01*
X9818924Y8661817D01*
X9830064Y8645146D01*
X9846735Y8634006D01*
X9853700Y8632621D01*
Y8668782D01*
D02*
G37*
G36*
X11480800Y8839787D02*
X11461135Y8835876D01*
X11444464Y8824736D01*
X11433324Y8808065D01*
X11429413Y8788400D01*
X11433324Y8768735D01*
X11444464Y8752064D01*
X11455238Y8744865D01*
X11451494Y8732092D01*
X11435735Y8728958D01*
X11419064Y8717818D01*
X11407924Y8701147D01*
X11404013Y8681482D01*
X11407924Y8661817D01*
X11419064Y8645146D01*
X11435735Y8634006D01*
X11455400Y8630095D01*
X11475065Y8634006D01*
X11491736Y8645146D01*
X11502876Y8661817D01*
X11506787Y8681482D01*
X11502876Y8701147D01*
X11491736Y8717818D01*
X11480962Y8725017D01*
X11484706Y8737790D01*
X11500465Y8740924D01*
X11517136Y8752064D01*
X11528276Y8768735D01*
X11532187Y8788400D01*
X11528276Y8808065D01*
X11517136Y8824736D01*
X11500465Y8835876D01*
X11480800Y8839787D01*
D02*
G37*
G36*
X11072461Y8664982D02*
X11036300D01*
Y8628821D01*
X11043265Y8630206D01*
X11059936Y8641346D01*
X11071076Y8658017D01*
X11072461Y8664982D01*
D02*
G37*
G36*
X11010900D02*
X10974739D01*
X10976124Y8658017D01*
X10987264Y8641346D01*
X11003935Y8630206D01*
X11010900Y8628821D01*
Y8664982D01*
D02*
G37*
G36*
X7027200Y8706187D02*
X7007535Y8702275D01*
X6990864Y8691136D01*
X6979725Y8674465D01*
X6975813Y8654800D01*
X6979725Y8635135D01*
X6990864Y8618464D01*
X7007535Y8607324D01*
X7027200Y8603413D01*
X7046865Y8607324D01*
X7063537Y8618464D01*
X7074676Y8635135D01*
X7078588Y8654800D01*
X7074676Y8674465D01*
X7063537Y8691136D01*
X7046865Y8702275D01*
X7027200Y8706187D01*
D02*
G37*
G36*
X9031200Y8679687D02*
X9011535Y8675776D01*
X8994864Y8664636D01*
X8983724Y8647965D01*
X8979813Y8628300D01*
X8983724Y8608635D01*
X8994864Y8591964D01*
X9011535Y8580825D01*
X9031200Y8576913D01*
X9050865Y8580825D01*
X9067536Y8591964D01*
X9078676Y8608635D01*
X9082587Y8628300D01*
X9078676Y8647965D01*
X9067536Y8664636D01*
X9050865Y8675776D01*
X9031200Y8679687D01*
D02*
G37*
G36*
X4241800Y8678887D02*
X4222135Y8674975D01*
X4205464Y8663836D01*
X4194324Y8647165D01*
X4190413Y8627500D01*
X4194324Y8607835D01*
X4205464Y8591163D01*
X4222135Y8580024D01*
X4241800Y8576112D01*
X4261465Y8580024D01*
X4278136Y8591163D01*
X4289276Y8607835D01*
X4293187Y8627500D01*
X4289276Y8647165D01*
X4278136Y8663836D01*
X4261465Y8674975D01*
X4241800Y8678887D01*
D02*
G37*
G36*
X9504300Y8675487D02*
X9484635Y8671575D01*
X9467964Y8660436D01*
X9456825Y8643765D01*
X9452913Y8624100D01*
X9456825Y8604435D01*
X9467964Y8587764D01*
X9484635Y8576624D01*
X9504300Y8572713D01*
X9523965Y8576624D01*
X9540636Y8587764D01*
X9551776Y8604435D01*
X9555688Y8624100D01*
X9551776Y8643765D01*
X9540636Y8660436D01*
X9523965Y8671575D01*
X9504300Y8675487D01*
D02*
G37*
G36*
X10661500Y8671687D02*
X10641835Y8667775D01*
X10625164Y8656636D01*
X10614024Y8639965D01*
X10610113Y8620300D01*
X10614024Y8600635D01*
X10625164Y8583964D01*
X10641835Y8572824D01*
X10661500Y8568913D01*
X10681165Y8572824D01*
X10697836Y8583964D01*
X10708976Y8600635D01*
X10712887Y8620300D01*
X10708976Y8639965D01*
X10697836Y8656636D01*
X10681165Y8667775D01*
X10661500Y8671687D01*
D02*
G37*
G36*
X7662200Y8655387D02*
X7642535Y8651475D01*
X7625864Y8640336D01*
X7614725Y8623665D01*
X7610813Y8604000D01*
X7614725Y8584335D01*
X7625864Y8567664D01*
X7642535Y8556524D01*
X7662200Y8552613D01*
X7681865Y8556524D01*
X7698537Y8567664D01*
X7709676Y8584335D01*
X7713588Y8604000D01*
X7709676Y8623665D01*
X7698537Y8640336D01*
X7681865Y8651475D01*
X7662200Y8655387D01*
D02*
G37*
G36*
X4876800Y8628087D02*
X4857135Y8624175D01*
X4840464Y8613036D01*
X4829324Y8596365D01*
X4825413Y8576700D01*
X4829324Y8557035D01*
X4840464Y8540363D01*
X4857135Y8529224D01*
X4876800Y8525312D01*
X4896465Y8529224D01*
X4913136Y8540363D01*
X4924276Y8557035D01*
X4928187Y8576700D01*
X4924276Y8596365D01*
X4913136Y8613036D01*
X4896465Y8624175D01*
X4876800Y8628087D01*
D02*
G37*
G36*
X3570200Y8611187D02*
X3550535Y8607276D01*
X3533864Y8596136D01*
X3522724Y8579465D01*
X3518813Y8559800D01*
X3522724Y8540135D01*
X3533864Y8523464D01*
X3550535Y8512324D01*
X3570200Y8508413D01*
X3589865Y8512324D01*
X3606536Y8523464D01*
X3617676Y8540135D01*
X3621587Y8559800D01*
X3617676Y8579465D01*
X3606536Y8596136D01*
X3589865Y8607276D01*
X3570200Y8611187D01*
D02*
G37*
G36*
X5078300Y8465861D02*
Y8429700D01*
X5114461D01*
X5113076Y8436665D01*
X5101936Y8453336D01*
X5085265Y8464476D01*
X5078300Y8465861D01*
D02*
G37*
G36*
X5052900D02*
X5045935Y8464476D01*
X5029264Y8453336D01*
X5018125Y8436665D01*
X5016739Y8429700D01*
X5052900D01*
Y8465861D01*
D02*
G37*
G36*
X5458100Y8489887D02*
X5438435Y8485975D01*
X5421764Y8474836D01*
X5410625Y8458165D01*
X5406713Y8438500D01*
X5410625Y8418835D01*
X5421764Y8402164D01*
X5438435Y8391024D01*
X5458100Y8387113D01*
X5477765Y8391024D01*
X5494437Y8402164D01*
X5505576Y8418835D01*
X5509488Y8438500D01*
X5505576Y8458165D01*
X5494437Y8474836D01*
X5477765Y8485975D01*
X5458100Y8489887D01*
D02*
G37*
G36*
X5114461Y8404300D02*
X5078300D01*
Y8368139D01*
X5085265Y8369524D01*
X5101936Y8380664D01*
X5113076Y8397335D01*
X5114461Y8404300D01*
D02*
G37*
G36*
X5052900D02*
X5016739D01*
X5018125Y8397335D01*
X5029264Y8380664D01*
X5045935Y8369524D01*
X5052900Y8368139D01*
Y8404300D01*
D02*
G37*
G36*
X7900900Y8353061D02*
Y8316900D01*
X7937061D01*
X7935676Y8323865D01*
X7924536Y8340536D01*
X7907865Y8351676D01*
X7900900Y8353061D01*
D02*
G37*
G36*
X7875500D02*
X7868535Y8351676D01*
X7851864Y8340536D01*
X7840724Y8323865D01*
X7839339Y8316900D01*
X7875500D01*
Y8353061D01*
D02*
G37*
G36*
X6481100Y8338861D02*
Y8302700D01*
X6517261D01*
X6515876Y8309665D01*
X6504737Y8326336D01*
X6488065Y8337476D01*
X6481100Y8338861D01*
D02*
G37*
G36*
X6455700D02*
X6448735Y8337476D01*
X6432064Y8326336D01*
X6420925Y8309665D01*
X6419539Y8302700D01*
X6455700D01*
Y8338861D01*
D02*
G37*
G36*
X9752100Y8333061D02*
Y8296900D01*
X9788261D01*
X9786876Y8303865D01*
X9775736Y8320536D01*
X9759065Y8331676D01*
X9752100Y8333061D01*
D02*
G37*
G36*
X9726700D02*
X9719735Y8331676D01*
X9703064Y8320536D01*
X9691924Y8303865D01*
X9690539Y8296900D01*
X9726700D01*
Y8333061D01*
D02*
G37*
G36*
X10909300Y8329261D02*
Y8293100D01*
X10945461D01*
X10944076Y8300065D01*
X10932936Y8316736D01*
X10916265Y8327876D01*
X10909300Y8329261D01*
D02*
G37*
G36*
X10883900D02*
X10876935Y8327876D01*
X10860264Y8316736D01*
X10849124Y8300065D01*
X10847739Y8293100D01*
X10883900D01*
Y8329261D01*
D02*
G37*
G36*
X9993400Y8392988D02*
X9973735Y8389076D01*
X9957064Y8377937D01*
X9945924Y8361265D01*
X9942013Y8341600D01*
X9945924Y8321935D01*
X9957064Y8305264D01*
X9973735Y8294125D01*
X9993400Y8290213D01*
X10013065Y8294125D01*
X10029736Y8305264D01*
X10040876Y8321935D01*
X10044787Y8341600D01*
X10040876Y8361265D01*
X10029736Y8377937D01*
X10013065Y8389076D01*
X9993400Y8392988D01*
D02*
G37*
G36*
X11150600Y8389187D02*
X11130935Y8385276D01*
X11114264Y8374136D01*
X11103124Y8357465D01*
X11099213Y8337800D01*
X11103124Y8318135D01*
X11114264Y8301464D01*
X11130935Y8290325D01*
X11150600Y8286413D01*
X11170265Y8290325D01*
X11186936Y8301464D01*
X11198076Y8318135D01*
X11201987Y8337800D01*
X11198076Y8357465D01*
X11186936Y8374136D01*
X11170265Y8385276D01*
X11150600Y8389187D01*
D02*
G37*
G36*
X8280700Y8387587D02*
X8261035Y8383676D01*
X8244364Y8372536D01*
X8233224Y8355865D01*
X8229313Y8336200D01*
X8233224Y8316535D01*
X8244364Y8299864D01*
X8261035Y8288725D01*
X8280700Y8284813D01*
X8300365Y8288725D01*
X8317036Y8299864D01*
X8328176Y8316535D01*
X8332087Y8336200D01*
X8328176Y8355865D01*
X8317036Y8372536D01*
X8300365Y8383676D01*
X8280700Y8387587D01*
D02*
G37*
G36*
X3695700Y8311561D02*
Y8275400D01*
X3731861D01*
X3730476Y8282365D01*
X3719336Y8299036D01*
X3702665Y8310175D01*
X3695700Y8311561D01*
D02*
G37*
G36*
X3670300D02*
X3663335Y8310175D01*
X3646664Y8299036D01*
X3635524Y8282365D01*
X3634139Y8275400D01*
X3670300D01*
Y8311561D01*
D02*
G37*
G36*
X6860900Y8362887D02*
X6841235Y8358975D01*
X6824564Y8347836D01*
X6813425Y8331165D01*
X6809513Y8311500D01*
X6813425Y8291835D01*
X6824564Y8275164D01*
X6841235Y8264024D01*
X6860900Y8260113D01*
X6880565Y8264024D01*
X6897237Y8275164D01*
X6908376Y8291835D01*
X6912288Y8311500D01*
X6908376Y8331165D01*
X6897237Y8347836D01*
X6880565Y8358975D01*
X6860900Y8362887D01*
D02*
G37*
G36*
X7937061Y8291500D02*
X7900900D01*
Y8255339D01*
X7907865Y8256724D01*
X7924536Y8267864D01*
X7935676Y8284535D01*
X7937061Y8291500D01*
D02*
G37*
G36*
X7875500D02*
X7839339D01*
X7840724Y8284535D01*
X7851864Y8267864D01*
X7868535Y8256724D01*
X7875500Y8255339D01*
Y8291500D01*
D02*
G37*
G36*
X6517261Y8277300D02*
X6481100D01*
Y8241139D01*
X6488065Y8242524D01*
X6504737Y8253664D01*
X6515876Y8270335D01*
X6517261Y8277300D01*
D02*
G37*
G36*
X6455700D02*
X6419539D01*
X6420925Y8270335D01*
X6432064Y8253664D01*
X6448735Y8242524D01*
X6455700Y8241139D01*
Y8277300D01*
D02*
G37*
G36*
X9788261Y8271500D02*
X9752100D01*
Y8235339D01*
X9759065Y8236724D01*
X9775736Y8247864D01*
X9786876Y8264535D01*
X9788261Y8271500D01*
D02*
G37*
G36*
X9726700D02*
X9690539D01*
X9691924Y8264535D01*
X9703064Y8247864D01*
X9719735Y8236724D01*
X9726700Y8235339D01*
Y8271500D01*
D02*
G37*
G36*
X4075500Y8335587D02*
X4055835Y8331675D01*
X4039164Y8320536D01*
X4028024Y8303865D01*
X4024113Y8284200D01*
X4028024Y8264535D01*
X4039164Y8247863D01*
X4055835Y8236724D01*
X4075500Y8232812D01*
X4095165Y8236724D01*
X4111836Y8247863D01*
X4122976Y8264535D01*
X4126887Y8284200D01*
X4122976Y8303865D01*
X4111836Y8320536D01*
X4095165Y8331675D01*
X4075500Y8335587D01*
D02*
G37*
G36*
X10945461Y8267700D02*
X10909300D01*
Y8231539D01*
X10916265Y8232924D01*
X10932936Y8244064D01*
X10944076Y8260735D01*
X10945461Y8267700D01*
D02*
G37*
G36*
X10883900D02*
X10847739D01*
X10849124Y8260735D01*
X10860264Y8244064D01*
X10876935Y8232924D01*
X10883900Y8231539D01*
Y8267700D01*
D02*
G37*
G36*
X3731861Y8250000D02*
X3695700D01*
Y8213839D01*
X3702665Y8215224D01*
X3719336Y8226364D01*
X3730476Y8243035D01*
X3731861Y8250000D01*
D02*
G37*
G36*
X3670300D02*
X3634139D01*
X3635524Y8243035D01*
X3646664Y8226364D01*
X3663335Y8215224D01*
X3670300Y8213839D01*
Y8250000D01*
D02*
G37*
G36*
X6094400Y8306387D02*
X6074735Y8302476D01*
X6058064Y8291336D01*
X6046924Y8274665D01*
X6043013Y8255000D01*
X6046924Y8235335D01*
X6058064Y8218664D01*
X6074735Y8207524D01*
X6094400Y8203613D01*
X6114065Y8207524D01*
X6130736Y8218664D01*
X6141876Y8235335D01*
X6145787Y8255000D01*
X6141876Y8274665D01*
X6130736Y8291336D01*
X6114065Y8302476D01*
X6094400Y8306387D01*
D02*
G37*
G36*
X9059700Y8211861D02*
Y8175700D01*
X9095861D01*
X9094476Y8182665D01*
X9083336Y8199336D01*
X9066665Y8210476D01*
X9059700Y8211861D01*
D02*
G37*
G36*
X9034300D02*
X9027335Y8210476D01*
X9010664Y8199336D01*
X8999524Y8182665D01*
X8998139Y8175700D01*
X9034300D01*
Y8211861D01*
D02*
G37*
G36*
X5726000Y8274387D02*
X5706335Y8270475D01*
X5689664Y8259336D01*
X5678525Y8242665D01*
X5674613Y8223000D01*
X5678525Y8203335D01*
X5689664Y8186664D01*
X5706335Y8175524D01*
X5726000Y8171613D01*
X5745665Y8175524D01*
X5762336Y8186664D01*
X5773476Y8203335D01*
X5777387Y8223000D01*
X5773476Y8242665D01*
X5762336Y8259336D01*
X5745665Y8270475D01*
X5726000Y8274387D01*
D02*
G37*
G36*
X9095861Y8150300D02*
X9059700D01*
Y8114139D01*
X9066665Y8115524D01*
X9083336Y8126664D01*
X9094476Y8143335D01*
X9095861Y8150300D01*
D02*
G37*
G36*
X9034300D02*
X8998139D01*
X8999524Y8143335D01*
X9010664Y8126664D01*
X9027335Y8115524D01*
X9034300Y8114139D01*
Y8150300D01*
D02*
G37*
G36*
X8539000Y8190487D02*
X8519335Y8186576D01*
X8502664Y8175436D01*
X8491524Y8158765D01*
X8487613Y8139100D01*
X8491524Y8119435D01*
X8502664Y8102764D01*
X8519335Y8091624D01*
X8539000Y8087713D01*
X8558665Y8091624D01*
X8575336Y8102764D01*
X8586476Y8119435D01*
X8590387Y8139100D01*
X8586476Y8158765D01*
X8575336Y8175436D01*
X8558665Y8186576D01*
X8539000Y8190487D01*
D02*
G37*
G36*
X7497200Y8179387D02*
X7477535Y8175476D01*
X7460864Y8164336D01*
X7449724Y8147665D01*
X7445813Y8128000D01*
X7449724Y8108335D01*
X7460864Y8091664D01*
X7477535Y8080524D01*
X7497200Y8076613D01*
X7516865Y8080524D01*
X7533536Y8091664D01*
X7544676Y8108335D01*
X7548587Y8128000D01*
X7544676Y8147665D01*
X7533536Y8164336D01*
X7516865Y8175476D01*
X7497200Y8179387D01*
D02*
G37*
G36*
X4711800Y8152087D02*
X4692135Y8148175D01*
X4675464Y8137036D01*
X4664324Y8120365D01*
X4660413Y8100700D01*
X4664324Y8081035D01*
X4675464Y8064364D01*
X4692135Y8053224D01*
X4711800Y8049313D01*
X4731465Y8053224D01*
X4748136Y8064364D01*
X4759275Y8081035D01*
X4763187Y8100700D01*
X4759275Y8120365D01*
X4748136Y8137036D01*
X4731465Y8148175D01*
X4711800Y8152087D01*
D02*
G37*
G36*
X7128800Y8147387D02*
X7109135Y8143475D01*
X7092464Y8132336D01*
X7081325Y8115665D01*
X7077413Y8096000D01*
X7081325Y8076335D01*
X7092464Y8059664D01*
X7109135Y8048524D01*
X7128800Y8044613D01*
X7148465Y8048524D01*
X7165137Y8059664D01*
X7176276Y8076335D01*
X7180188Y8096000D01*
X7176276Y8115665D01*
X7165137Y8132336D01*
X7148465Y8143475D01*
X7128800Y8147387D01*
D02*
G37*
G36*
X4343400Y8120087D02*
X4323735Y8116175D01*
X4307064Y8105036D01*
X4295924Y8088365D01*
X4292013Y8068700D01*
X4295924Y8049035D01*
X4307064Y8032363D01*
X4323735Y8021224D01*
X4343400Y8017312D01*
X4363065Y8021224D01*
X4379736Y8032363D01*
X4390876Y8049035D01*
X4394787Y8068700D01*
X4390876Y8088365D01*
X4379736Y8105036D01*
X4363065Y8116175D01*
X4343400Y8120087D01*
D02*
G37*
%LPD*%
D17*
X12446000Y10668000D02*
D03*
Y10414000D02*
D03*
Y10922000D02*
D03*
Y11176000D02*
D03*
Y10160000D02*
D03*
Y9906000D02*
D03*
Y9398000D02*
D03*
Y9652000D02*
D03*
Y9144000D02*
D03*
X2032000Y10668000D02*
D03*
Y10414000D02*
D03*
Y10922000D02*
D03*
Y11176000D02*
D03*
Y10160000D02*
D03*
Y9906000D02*
D03*
Y9398000D02*
D03*
Y9652000D02*
D03*
Y9144000D02*
D03*
D18*
X5768500Y10731500D02*
D03*
X5344160Y12186920D02*
D03*
X3350260Y12192000D02*
D03*
X5943600Y10118200D02*
D03*
X5484400Y11567700D02*
D03*
X3529200D02*
D03*
X6468500Y9969000D02*
D03*
X6299200Y9981300D02*
D03*
X5843400Y11426500D02*
D03*
X3885287Y11430000D02*
D03*
X5029200Y8715200D02*
D03*
X5030600Y9060356D02*
D03*
X4965600Y9269000D02*
D03*
X4241800Y9264400D02*
D03*
X4279287Y9476300D02*
D03*
X4899800Y9494600D02*
D03*
X5065600Y9432500D02*
D03*
X4953000Y9364100D02*
D03*
Y9731413D02*
D03*
X4838087Y9731200D02*
D03*
X6273800Y9220200D02*
D03*
X6468400Y9305500D02*
D03*
X6400800Y9144000D02*
D03*
X11480800Y8788400D02*
D03*
X11341400Y9652000D02*
D03*
X11455400Y8681482D02*
D03*
X11341400Y10710699D02*
D03*
X11607800Y10766581D02*
D03*
X11734800Y11150600D02*
D03*
X10922000Y9937500D02*
D03*
X10947400Y9575800D02*
D03*
X10861500Y9053700D02*
D03*
X11760200Y11351800D02*
D03*
X10955200Y11099800D02*
D03*
X10972800Y10728500D02*
D03*
X10588800Y11531600D02*
D03*
X10875900Y11769900D02*
D03*
X10972800Y9702800D02*
D03*
X9779000Y10507500D02*
D03*
X8915400Y12045700D02*
D03*
X8610600Y11709400D02*
D03*
X8407400Y11074400D02*
D03*
X8534400Y10429500D02*
D03*
X8051800Y8734100D02*
D03*
X7888200Y9157200D02*
D03*
X7721600Y9423400D02*
D03*
X7975600Y9575800D02*
D03*
X8280400Y9721181D02*
D03*
X8076372Y11912600D02*
D03*
X7188200Y10397800D02*
D03*
X10617200Y11764800D02*
D03*
X9169400Y11150600D02*
D03*
X8883400D02*
D03*
X7848600Y9550400D02*
D03*
X8356600Y10058400D02*
D03*
X8242200Y10178800D02*
D03*
X8421600Y10446000D02*
D03*
X7950200Y11749000D02*
D03*
X7797800Y11760200D02*
D03*
X8432800Y11498700D02*
D03*
X8890000Y11911200D02*
D03*
X7975600Y12234300D02*
D03*
X7180400Y12045700D02*
D03*
X9321800Y11861800D02*
D03*
X8407400Y9738400D02*
D03*
X7662200Y9525000D02*
D03*
X6351600Y8734100D02*
D03*
X6324600Y9550400D02*
D03*
X6787200Y10383400D02*
D03*
X6672301Y10315400D02*
D03*
X6527800Y10363200D02*
D03*
X5994400Y10337800D02*
D03*
X5202000Y9690100D02*
D03*
X6832600Y9779000D02*
D03*
X6426200Y11284200D02*
D03*
X4729887Y11887200D02*
D03*
X4433800Y11455400D02*
D03*
X6934200Y9643701D02*
D03*
X6680200Y9785100D02*
D03*
X4101718Y10363200D02*
D03*
X5202000Y10446000D02*
D03*
X4924500Y10637500D02*
D03*
X4775200Y10287000D02*
D03*
X9271000Y9315200D02*
D03*
X5030600Y8914200D02*
D03*
X4546600Y11684000D02*
D03*
X3746718Y10153300D02*
D03*
X3454400Y9305500D02*
D03*
X3729200Y8746000D02*
D03*
X3683000Y9278199D02*
D03*
Y9126200D02*
D03*
X4075500Y8284200D02*
D03*
X8356600Y10315400D02*
D03*
X5030600Y9220200D02*
D03*
X4075500Y9053700D02*
D03*
X6510000Y12039600D02*
D03*
X5030600Y12107700D02*
D03*
X5156000Y12077200D02*
D03*
X4495800Y11820400D02*
D03*
X10312400Y8781800D02*
D03*
X3730800Y9626600D02*
D03*
X3269000Y9686500D02*
D03*
X4572000Y9525000D02*
D03*
X2664000Y9379200D02*
D03*
X2876800Y9391400D02*
D03*
X2735900Y9661600D02*
D03*
X3885287Y10911200D02*
D03*
X3804300Y10820300D02*
D03*
X11111000Y11430000D02*
D03*
X11365000Y11487400D02*
D03*
X11238000Y11827282D02*
D03*
X10323600Y10370800D02*
D03*
X10577600Y10428200D02*
D03*
X10450600Y10768082D02*
D03*
X10088500Y10710699D02*
D03*
X10312400Y9323900D02*
D03*
X10566400Y9381300D02*
D03*
X10439400Y9721181D02*
D03*
X10077300Y9663799D02*
D03*
X9739400Y8284200D02*
D03*
X9993400Y8341600D02*
D03*
X9866400Y8681482D02*
D03*
X9504300Y8624100D02*
D03*
X10896600Y8280400D02*
D03*
X11150600Y8337800D02*
D03*
X11023600Y8677682D02*
D03*
X10661500Y8620300D02*
D03*
X11480800Y9321800D02*
D03*
X11734800Y9379200D02*
D03*
X11607800Y9719082D02*
D03*
X11245700Y9661700D02*
D03*
X11480800Y10369300D02*
D03*
X11734800Y10426700D02*
D03*
X11245700Y10709199D02*
D03*
X3570200Y8559800D02*
D03*
X2260600Y9652000D02*
D03*
X2286000Y10241200D02*
D03*
X8852300Y10660900D02*
D03*
X8459799Y10895599D02*
D03*
X8852300Y9911600D02*
D03*
X8459799Y9879600D02*
D03*
X9316799Y10902200D02*
D03*
X9110600Y9714500D02*
D03*
X8993199Y10643000D02*
D03*
X9385399Y10685799D02*
D03*
X9602799Y10203700D02*
D03*
X9618600Y9738400D02*
D03*
X2343400Y9896300D02*
D03*
X2735900Y8912300D02*
D03*
X2343400Y8880300D02*
D03*
X3200400Y9902900D02*
D03*
X2994200Y8715200D02*
D03*
X2876800Y9643701D02*
D03*
X3486400Y9204400D02*
D03*
X3502200Y8739100D02*
D03*
X8280700Y9085500D02*
D03*
X7888200Y9320200D02*
D03*
X8280700Y8336200D02*
D03*
X7888200Y8304200D02*
D03*
X8745200Y9326800D02*
D03*
X8539000Y8139100D02*
D03*
X8421600Y9067600D02*
D03*
X8813800Y9110400D02*
D03*
X9031200Y8628300D02*
D03*
X9047000Y8163000D02*
D03*
X10419000Y11299500D02*
D03*
X10185800Y12246900D02*
D03*
X10117200Y12463300D02*
D03*
X10403200Y11764800D02*
D03*
X9911000Y11275600D02*
D03*
X9793600Y12204100D02*
D03*
X9652700Y11472700D02*
D03*
X9260200Y11440700D02*
D03*
X9652700Y12222000D02*
D03*
X9260200Y12456700D02*
D03*
X4279287Y10677600D02*
D03*
Y9902900D02*
D03*
X3885287Y9858300D02*
D03*
X4787287Y11007300D02*
D03*
X4729887Y9959800D02*
D03*
X4838087Y10820300D02*
D03*
X4914287Y10498200D02*
D03*
X8991600Y12416100D02*
D03*
Y11327000D02*
D03*
X9067800Y12094000D02*
D03*
X8883400Y11555600D02*
D03*
X8940800Y12603100D02*
D03*
X8038800Y11454100D02*
D03*
X8432800Y12273400D02*
D03*
X8038800Y12507000D02*
D03*
X6860900Y9081000D02*
D03*
Y8311500D02*
D03*
X6468400Y8290000D02*
D03*
X7314200Y9315200D02*
D03*
X7027200Y8654800D02*
D03*
X7128800Y8096000D02*
D03*
X7433600Y8883400D02*
D03*
X7713000Y9081000D02*
D03*
X7662200Y8604000D02*
D03*
X7497200Y8128000D02*
D03*
X7440900Y10655800D02*
D03*
X7048400Y10880300D02*
D03*
X7440900Y9886300D02*
D03*
X7048400Y9864800D02*
D03*
X7894200Y10890000D02*
D03*
X7607200Y10229600D02*
D03*
X7708800Y9670800D02*
D03*
X8013600Y10458200D02*
D03*
X8293000Y10655800D02*
D03*
X8077200Y9702800D02*
D03*
X8318400Y10966200D02*
D03*
X6996500Y12237200D02*
D03*
X6604000Y12461700D02*
D03*
X6996500Y11467700D02*
D03*
X6604000Y11446200D02*
D03*
X7449800Y12471400D02*
D03*
X7162800Y11811000D02*
D03*
X7264400Y11252200D02*
D03*
X7569200Y12039600D02*
D03*
X7848600Y12237200D02*
D03*
X7632800Y11284200D02*
D03*
X7874000Y12547600D02*
D03*
X5458100Y9208000D02*
D03*
Y8438500D02*
D03*
X5065600Y8417000D02*
D03*
X5911400Y9442200D02*
D03*
X5624400Y8781800D02*
D03*
X5726000Y8223000D02*
D03*
X6030800Y9010400D02*
D03*
X6259400Y8731000D02*
D03*
X6094400Y8255000D02*
D03*
X4927600Y9053700D02*
D03*
X4876800Y8576700D02*
D03*
X4648200Y8856100D02*
D03*
X4528800Y9287900D02*
D03*
X4241800Y8627500D02*
D03*
X4711800Y8100700D02*
D03*
X4343400Y8068700D02*
D03*
X3683000Y8262700D02*
D03*
X3302000Y10785882D02*
D03*
X3175000Y10388600D02*
D03*
X3429000Y10446000D02*
D03*
X2939900Y10728500D02*
D03*
X4624200Y12326700D02*
D03*
X5030600Y11472700D02*
D03*
X4624200Y11405600D02*
D03*
X5564000Y11710400D02*
D03*
X5970400Y11409200D02*
D03*
X6148200Y11844400D02*
D03*
X5741800Y12234300D02*
D03*
X5481200Y11391400D02*
D03*
X5691000Y11620000D02*
D03*
X6224400Y11239000D02*
D03*
X6072000Y11721600D02*
D03*
X6061918Y12356600D02*
D03*
X6427600Y12534400D02*
D03*
X3070400Y12102200D02*
D03*
X2664000Y12321199D02*
D03*
X3070400Y11467200D02*
D03*
X2664000Y11400100D02*
D03*
X3603800Y11704899D02*
D03*
X4010200Y11403700D02*
D03*
X4188000Y11838900D02*
D03*
X3781600Y12228800D02*
D03*
X3521000Y11385900D02*
D03*
X3730800Y11614500D02*
D03*
X4264200Y11233500D02*
D03*
X3195800Y12071700D02*
D03*
X4111800Y11716100D02*
D03*
X4101718Y12351100D02*
D03*
X4467400Y12528900D02*
D03*
X6883400Y11080500D02*
D03*
X6517718Y10902700D02*
D03*
X6197600Y10780400D02*
D03*
X6604000Y10390500D02*
D03*
X6527800Y10267700D02*
D03*
X6146800Y10166100D02*
D03*
X6019800Y10256499D02*
D03*
X5937000Y9937500D02*
D03*
X5611800Y10623300D02*
D03*
X5486400Y10018800D02*
D03*
Y10653800D02*
D03*
X5080000Y9951700D02*
D03*
Y10872799D02*
D03*
%TF.MD5,2912217fcce416e03b7cc76097085d79*%
M02*
