%TF.GenerationSoftware,Altium Limited,Altium Designer,19.0.15 (446)*%
G04 Layer_Color=255*
%FSLAX45Y45*%
%MOMM*%
%TF.FileFunction,Pads,Top*%
%TF.Part,Single*%
G01*
G75*
%TA.AperFunction,SMDPad,CuDef*%
%ADD10R,0.95000X0.85000*%
%ADD11R,0.80000X0.80000*%
%ADD12R,0.85000X0.95000*%
%ADD13R,0.90000X0.80000*%
%ADD14R,0.80000X0.80000*%
%ADD15R,0.80000X0.90000*%
%TA.AperFunction,ComponentPad*%
%ADD17C,1.80000*%
D10*
X8155500Y11619100D02*
D03*
Y11749100D02*
D03*
X6121400Y9923299D02*
D03*
Y10053299D02*
D03*
X5207000Y10875799D02*
D03*
Y11005799D02*
D03*
X6680200Y10027900D02*
D03*
Y9897900D02*
D03*
X5765800Y10837699D02*
D03*
Y10967699D02*
D03*
X5207000Y10713700D02*
D03*
Y10583700D02*
D03*
X5740400Y10332700D02*
D03*
Y10202700D02*
D03*
X6731000Y10637500D02*
D03*
Y10507500D02*
D03*
X6883400Y10967700D02*
D03*
Y10837700D02*
D03*
X5207000Y10126499D02*
D03*
Y10256499D02*
D03*
Y9951700D02*
D03*
Y9821700D02*
D03*
X5665600Y11377200D02*
D03*
Y11507200D02*
D03*
X4751200Y12329700D02*
D03*
Y12459700D02*
D03*
X6224400Y11481800D02*
D03*
Y11351800D02*
D03*
X5310000Y12291600D02*
D03*
Y12421600D02*
D03*
X4751200Y12167600D02*
D03*
Y12037600D02*
D03*
X5284600Y11786600D02*
D03*
Y11656600D02*
D03*
X6275200Y12091400D02*
D03*
Y11961400D02*
D03*
X6427600Y12421600D02*
D03*
Y12291600D02*
D03*
X4751200Y11580400D02*
D03*
Y11710400D02*
D03*
Y11405600D02*
D03*
Y11275600D02*
D03*
X3705400Y11371699D02*
D03*
Y11501699D02*
D03*
X2791000Y12324199D02*
D03*
Y12454199D02*
D03*
X4264200Y11476300D02*
D03*
Y11346300D02*
D03*
X3349800Y12286099D02*
D03*
Y12416099D02*
D03*
X2791000Y12162100D02*
D03*
Y12032100D02*
D03*
X3324400Y11781100D02*
D03*
Y11651100D02*
D03*
X4315000Y12085900D02*
D03*
Y11955900D02*
D03*
X4467400Y12416100D02*
D03*
Y12286100D02*
D03*
X2791000Y11574899D02*
D03*
Y11704899D02*
D03*
Y11400100D02*
D03*
Y11270100D02*
D03*
X3810000Y9278199D02*
D03*
Y9408199D02*
D03*
Y9098900D02*
D03*
Y8968900D02*
D03*
X4739000Y8576699D02*
D03*
Y8706699D02*
D03*
X3810000Y8435500D02*
D03*
Y8565500D02*
D03*
Y8262700D02*
D03*
Y8132700D02*
D03*
X6595400Y9305500D02*
D03*
Y9435500D02*
D03*
Y9126200D02*
D03*
Y8996200D02*
D03*
X7524400Y8604000D02*
D03*
Y8734000D02*
D03*
X6595400Y8462800D02*
D03*
Y8592800D02*
D03*
Y8290000D02*
D03*
Y8160000D02*
D03*
X7175400Y10880300D02*
D03*
Y11010300D02*
D03*
Y10701000D02*
D03*
Y10571000D02*
D03*
X8104400Y10178800D02*
D03*
Y10308800D02*
D03*
X7175400Y10037600D02*
D03*
Y10167600D02*
D03*
Y9864800D02*
D03*
Y9734800D02*
D03*
X6731000Y12461700D02*
D03*
Y12591700D02*
D03*
Y12282400D02*
D03*
Y12152400D02*
D03*
X7660000Y11760200D02*
D03*
Y11890200D02*
D03*
X6731000Y11619000D02*
D03*
Y11749000D02*
D03*
Y11446200D02*
D03*
Y11316200D02*
D03*
X5192600Y9432500D02*
D03*
Y9562500D02*
D03*
Y9253200D02*
D03*
Y9123200D02*
D03*
X6121600Y8731000D02*
D03*
Y8861000D02*
D03*
X5192600Y8589800D02*
D03*
Y8719800D02*
D03*
Y8417000D02*
D03*
Y8287000D02*
D03*
X11086800Y10442499D02*
D03*
Y10572499D02*
D03*
X11607800Y11007300D02*
D03*
Y10877300D02*
D03*
X11086800Y10877299D02*
D03*
Y11007299D02*
D03*
X11785600Y10873099D02*
D03*
Y11003099D02*
D03*
X11086800Y9395000D02*
D03*
Y9525000D02*
D03*
X11607800Y9959800D02*
D03*
Y9829800D02*
D03*
X11086800Y9829800D02*
D03*
Y9959800D02*
D03*
X11785600Y9825600D02*
D03*
Y9955600D02*
D03*
X10502600Y8353600D02*
D03*
Y8483600D02*
D03*
X11023600Y8918400D02*
D03*
Y8788400D02*
D03*
X10502600Y8788400D02*
D03*
Y8918400D02*
D03*
X11201400Y8784200D02*
D03*
Y8914200D02*
D03*
X9345400Y8357400D02*
D03*
Y8487400D02*
D03*
X9866400Y8922200D02*
D03*
Y8792200D02*
D03*
X9345400Y8792200D02*
D03*
Y8922200D02*
D03*
X10044200Y8788000D02*
D03*
Y8918000D02*
D03*
X9918400Y9397099D02*
D03*
Y9527099D02*
D03*
X10439400Y9961900D02*
D03*
Y9831900D02*
D03*
X9918400Y9831899D02*
D03*
Y9961899D02*
D03*
X10617200Y9827699D02*
D03*
Y9957699D02*
D03*
X9929600Y10443999D02*
D03*
Y10573999D02*
D03*
X10450600Y11008800D02*
D03*
Y10878800D02*
D03*
X9929600Y10878799D02*
D03*
Y11008799D02*
D03*
X10628400Y10874600D02*
D03*
Y11004600D02*
D03*
X10717000Y11503200D02*
D03*
Y11633200D02*
D03*
X11238000Y12068000D02*
D03*
Y11938000D02*
D03*
X10717000Y11938000D02*
D03*
Y12068000D02*
D03*
X11415800Y11933800D02*
D03*
Y12063800D02*
D03*
X2781000Y10461800D02*
D03*
Y10591800D02*
D03*
X3302000Y11026600D02*
D03*
Y10896600D02*
D03*
X2781000Y10896600D02*
D03*
Y11026600D02*
D03*
X3479800Y10892400D02*
D03*
Y11022400D02*
D03*
X8155500Y12507000D02*
D03*
Y12637000D02*
D03*
Y12341400D02*
D03*
Y12211400D02*
D03*
X9067800Y11976200D02*
D03*
Y11846200D02*
D03*
X8155500Y11454000D02*
D03*
Y11324000D02*
D03*
X4001987Y10911200D02*
D03*
Y11041200D02*
D03*
Y10745600D02*
D03*
Y10615600D02*
D03*
Y10023300D02*
D03*
Y10153300D02*
D03*
X4914287Y10380400D02*
D03*
Y10250400D02*
D03*
X4001987Y9858200D02*
D03*
Y9728200D02*
D03*
X9379500Y12456700D02*
D03*
Y12586700D02*
D03*
Y12294600D02*
D03*
Y12164600D02*
D03*
X10303200Y12458200D02*
D03*
Y12328200D02*
D03*
X9379500Y11596700D02*
D03*
Y11726700D02*
D03*
Y11440700D02*
D03*
Y11310700D02*
D03*
X8579099Y10895599D02*
D03*
Y11025599D02*
D03*
Y10733500D02*
D03*
Y10603500D02*
D03*
X9502799Y10897100D02*
D03*
Y10767100D02*
D03*
X8579099Y10035600D02*
D03*
Y10165600D02*
D03*
Y9879600D02*
D03*
Y9749600D02*
D03*
X2462700Y9896300D02*
D03*
Y10026300D02*
D03*
Y9734200D02*
D03*
Y9604200D02*
D03*
X3386400Y9897800D02*
D03*
Y9767800D02*
D03*
X2462700Y9036300D02*
D03*
Y9166300D02*
D03*
Y8880300D02*
D03*
Y8750300D02*
D03*
X8007500Y9320200D02*
D03*
Y9450200D02*
D03*
Y9158100D02*
D03*
Y9028100D02*
D03*
X8931200Y9321700D02*
D03*
Y9191700D02*
D03*
X8007500Y8460200D02*
D03*
Y8590200D02*
D03*
Y8304200D02*
D03*
Y8174200D02*
D03*
D11*
X5536000Y11029700D02*
D03*
X5386000D02*
D03*
X5561400Y9835900D02*
D03*
X5411400D02*
D03*
X5080200Y12483600D02*
D03*
X4930200D02*
D03*
X5105600Y11289800D02*
D03*
X4955600D02*
D03*
X3120000Y12478100D02*
D03*
X2970000D02*
D03*
X3145400Y11284300D02*
D03*
X2995400D02*
D03*
X4158500Y9414900D02*
D03*
X4008500D02*
D03*
X4872500Y9171800D02*
D03*
X4722500D02*
D03*
X4150500Y8119500D02*
D03*
X4000500D02*
D03*
X6943901Y9442200D02*
D03*
X6793900D02*
D03*
X7657901Y9199100D02*
D03*
X7507900D02*
D03*
X6935901Y8146800D02*
D03*
X6785900D02*
D03*
X7523900Y11017000D02*
D03*
X7373900D02*
D03*
X8237900Y10773900D02*
D03*
X8087900D02*
D03*
X7515900Y9721600D02*
D03*
X7365900D02*
D03*
X7079500Y12598400D02*
D03*
X6929500D02*
D03*
X7793500Y12355300D02*
D03*
X7643500D02*
D03*
X7071500Y11303000D02*
D03*
X6921500D02*
D03*
X5541100Y9569200D02*
D03*
X5391100D02*
D03*
X6255101Y9326100D02*
D03*
X6105100D02*
D03*
X5533100Y8273800D02*
D03*
X5383100D02*
D03*
X11101000Y10232699D02*
D03*
X11251000D02*
D03*
X11101000Y9185200D02*
D03*
X11251000D02*
D03*
X10516800Y8143800D02*
D03*
X10666800D02*
D03*
X9359600Y8147600D02*
D03*
X9509600D02*
D03*
X9932600Y9187299D02*
D03*
X10082600D02*
D03*
X9943800Y10234199D02*
D03*
X10093800D02*
D03*
X10731200Y11293400D02*
D03*
X10881200D02*
D03*
X2795200Y10252000D02*
D03*
X2945200D02*
D03*
X8507800Y12636600D02*
D03*
X8357800D02*
D03*
X8507800Y11327000D02*
D03*
X8357800D02*
D03*
X4354287Y11040800D02*
D03*
X4204287D02*
D03*
X4354287Y9731200D02*
D03*
X4204287D02*
D03*
X9716200Y12583700D02*
D03*
X9566200D02*
D03*
X10452800Y11599700D02*
D03*
X10302800D02*
D03*
X9716200Y11301000D02*
D03*
X9566200D02*
D03*
X8915800Y11022600D02*
D03*
X8765799D02*
D03*
X9652400Y10038600D02*
D03*
X9502399D02*
D03*
X8915800Y9739900D02*
D03*
X8765799D02*
D03*
X2799400Y10023300D02*
D03*
X2649400D02*
D03*
X3536000Y9039300D02*
D03*
X3386000D02*
D03*
X2799400Y8740600D02*
D03*
X2649400D02*
D03*
X8344200Y9447200D02*
D03*
X8194200D02*
D03*
X9080800Y8463200D02*
D03*
X8930800D02*
D03*
X8344200Y8164500D02*
D03*
X8194200D02*
D03*
D12*
X6056400Y10623300D02*
D03*
X6186400D02*
D03*
X5881600D02*
D03*
X5751600D02*
D03*
X6285000Y10267700D02*
D03*
X6415000D02*
D03*
X5421400Y10470900D02*
D03*
X5551400D02*
D03*
X5600600Y12077200D02*
D03*
X5730600D02*
D03*
X5425800D02*
D03*
X5295800D02*
D03*
X5829200Y11721600D02*
D03*
X5959200D02*
D03*
X4965600Y11924800D02*
D03*
X5095600D02*
D03*
X3640400Y12071700D02*
D03*
X3770400D02*
D03*
X3465600D02*
D03*
X3335600D02*
D03*
X3869000Y11716100D02*
D03*
X3999000D02*
D03*
X3005400Y11919300D02*
D03*
X3135400D02*
D03*
X4776800Y8989199D02*
D03*
X4646800D02*
D03*
X3972000Y8862199D02*
D03*
X4102000D02*
D03*
X4353000Y8989199D02*
D03*
X4483000D02*
D03*
X3972000Y8671699D02*
D03*
X4102000D02*
D03*
X4841800Y9364100D02*
D03*
X4711800D02*
D03*
X7562200Y9016500D02*
D03*
X7432200D02*
D03*
X6757400Y8889500D02*
D03*
X6887400D02*
D03*
X7138400Y9016500D02*
D03*
X7268400D02*
D03*
X6757400Y8699000D02*
D03*
X6887400D02*
D03*
X7627200Y9391400D02*
D03*
X7497200D02*
D03*
X8142200Y10591300D02*
D03*
X8012200D02*
D03*
X7337400Y10464300D02*
D03*
X7467400D02*
D03*
X7718400Y10591300D02*
D03*
X7848400D02*
D03*
X7337400Y10273800D02*
D03*
X7467400D02*
D03*
X8207200Y10966200D02*
D03*
X8077200D02*
D03*
X7697800Y12172700D02*
D03*
X7567800D02*
D03*
X6893000Y12045700D02*
D03*
X7023000D02*
D03*
X7274000Y12172700D02*
D03*
X7404000D02*
D03*
X6893000Y11855200D02*
D03*
X7023000D02*
D03*
X7762800Y12547600D02*
D03*
X7632800D02*
D03*
X6159400Y9143500D02*
D03*
X6029400D02*
D03*
X5354600Y9016500D02*
D03*
X5484600D02*
D03*
X5735600Y9143500D02*
D03*
X5865600D02*
D03*
X5354600Y8826000D02*
D03*
X5484600D02*
D03*
X6224400Y9518400D02*
D03*
X6094400D02*
D03*
X11571200Y10232699D02*
D03*
X11441200D02*
D03*
X11746000Y10248900D02*
D03*
X11876000D02*
D03*
X11571200Y9185200D02*
D03*
X11441200D02*
D03*
X11746000Y9201400D02*
D03*
X11876000D02*
D03*
X10987000Y8143800D02*
D03*
X10857000D02*
D03*
X11161800Y8160000D02*
D03*
X11291800D02*
D03*
X9829800Y8147600D02*
D03*
X9699800D02*
D03*
X10004600Y8163800D02*
D03*
X10134600D02*
D03*
X10402800Y9187299D02*
D03*
X10272800D02*
D03*
X10577600Y9203500D02*
D03*
X10707600D02*
D03*
X10414000Y10234199D02*
D03*
X10284000D02*
D03*
X10588800Y10250400D02*
D03*
X10718800D02*
D03*
X11201400Y11293400D02*
D03*
X11071400D02*
D03*
X11376200Y11309600D02*
D03*
X11506200D02*
D03*
X3265400Y10252000D02*
D03*
X3135400D02*
D03*
X3440200Y10268200D02*
D03*
X3570200D02*
D03*
X8698000Y12603100D02*
D03*
X8828000D02*
D03*
X8342400Y12089000D02*
D03*
X8472400D02*
D03*
X8342400Y11860700D02*
D03*
X8472400D02*
D03*
X8711300Y11285900D02*
D03*
X8841300D02*
D03*
X4544487Y11007300D02*
D03*
X4674487D02*
D03*
X4188887Y10493200D02*
D03*
X4318887D02*
D03*
X4188887Y10264900D02*
D03*
X4318887D02*
D03*
X4557787Y9690100D02*
D03*
X4687787D02*
D03*
X10061800Y12174300D02*
D03*
X9931800D02*
D03*
X9576200Y12060000D02*
D03*
X9706200D02*
D03*
X10289000Y12139200D02*
D03*
X10419000D02*
D03*
X9576200Y11834400D02*
D03*
X9706200D02*
D03*
X10417400Y11426500D02*
D03*
X10287400D02*
D03*
X9261400Y10613200D02*
D03*
X9131400D02*
D03*
X8775799Y10498900D02*
D03*
X8905799D02*
D03*
X9488599Y10578100D02*
D03*
X9618599D02*
D03*
X8775799Y10273300D02*
D03*
X8905799D02*
D03*
X9617000Y9865400D02*
D03*
X9487000D02*
D03*
X3145000Y9613901D02*
D03*
X3015000D02*
D03*
X2659400Y9499600D02*
D03*
X2789400D02*
D03*
X3372200Y9578800D02*
D03*
X3502200D02*
D03*
X2659400Y9274000D02*
D03*
X2789400D02*
D03*
X3500600Y8866100D02*
D03*
X3370600D02*
D03*
X8689800Y9037800D02*
D03*
X8559800D02*
D03*
X8204200Y8923500D02*
D03*
X8334200D02*
D03*
X8917000Y9002700D02*
D03*
X9047000D02*
D03*
X8204200Y8697900D02*
D03*
X8334200D02*
D03*
X9045400Y8290000D02*
D03*
X8915400D02*
D03*
X11873000Y11811000D02*
D03*
X12003000D02*
D03*
X11873000Y11620500D02*
D03*
X12003000D02*
D03*
X11873000Y11430000D02*
D03*
X12003000D02*
D03*
X11873000Y11239500D02*
D03*
X12003000D02*
D03*
X11682500Y8953500D02*
D03*
X11812500D02*
D03*
X11682500Y8763000D02*
D03*
X11812500D02*
D03*
X11682500Y8572500D02*
D03*
X11812500D02*
D03*
D13*
X6145200Y10902700D02*
D03*
X5945200Y10807700D02*
D03*
Y10997700D02*
D03*
X5580300Y10748799D02*
D03*
X5380300Y10653800D02*
D03*
Y10843799D02*
D03*
X6551600Y10547100D02*
D03*
X6351600Y10452100D02*
D03*
Y10642100D02*
D03*
X6119800Y10343900D02*
D03*
X5919800Y10248900D02*
D03*
Y10438900D02*
D03*
X5580300Y10113799D02*
D03*
X5380300Y10018800D02*
D03*
Y10208799D02*
D03*
X5689400Y12356600D02*
D03*
X5489400Y12261600D02*
D03*
Y12451600D02*
D03*
X5124501Y12202700D02*
D03*
X4924500Y12107700D02*
D03*
Y12297700D02*
D03*
X6095800Y12001000D02*
D03*
X5895800Y11906000D02*
D03*
Y12096000D02*
D03*
X5664000Y11797800D02*
D03*
X5464000Y11702800D02*
D03*
Y11892800D02*
D03*
X5124501Y11567700D02*
D03*
X4924500Y11472700D02*
D03*
Y11662700D02*
D03*
X3729200Y12351100D02*
D03*
X3529200Y12256100D02*
D03*
Y12446100D02*
D03*
X3164300Y12197199D02*
D03*
X2964300Y12102200D02*
D03*
Y12292199D02*
D03*
X4135600Y11995500D02*
D03*
X3935600Y11900500D02*
D03*
Y12090500D02*
D03*
X3703800Y11792300D02*
D03*
X3503800Y11697300D02*
D03*
Y11887300D02*
D03*
X3164300Y11562199D02*
D03*
X2964300Y11467200D02*
D03*
Y11657199D02*
D03*
X4172000Y9148700D02*
D03*
X3972000Y9053700D02*
D03*
Y9243700D02*
D03*
X4545000Y8678300D02*
D03*
X4345000Y8583300D02*
D03*
Y8773300D02*
D03*
X4544700Y8271900D02*
D03*
X4344700Y8176900D02*
D03*
Y8366900D02*
D03*
X4911800Y8297300D02*
D03*
X4711800Y8202300D02*
D03*
Y8392300D02*
D03*
X4172000Y8379199D02*
D03*
X3972000Y8284200D02*
D03*
Y8474199D02*
D03*
X6957400Y9176000D02*
D03*
X6757400Y9081000D02*
D03*
Y9271000D02*
D03*
X7330400Y8705600D02*
D03*
X7130400Y8610600D02*
D03*
Y8800600D02*
D03*
X7330100Y8299200D02*
D03*
X7130100Y8204200D02*
D03*
Y8394200D02*
D03*
X7697200Y8324600D02*
D03*
X7497200Y8229600D02*
D03*
Y8419600D02*
D03*
X6957400Y8406500D02*
D03*
X6757400Y8311500D02*
D03*
Y8501500D02*
D03*
X7537400Y10750800D02*
D03*
X7337400Y10655800D02*
D03*
Y10845800D02*
D03*
X7910400Y10280400D02*
D03*
X7710400Y10185400D02*
D03*
Y10375400D02*
D03*
X7910100Y9874000D02*
D03*
X7710100Y9779000D02*
D03*
Y9969000D02*
D03*
X8277200Y9899400D02*
D03*
X8077200Y9804400D02*
D03*
Y9994400D02*
D03*
X7537400Y9981300D02*
D03*
X7337400Y9886300D02*
D03*
Y10076300D02*
D03*
X7093000Y12332200D02*
D03*
X6893000Y12237200D02*
D03*
Y12427200D02*
D03*
X7466000Y11861800D02*
D03*
X7266000Y11766800D02*
D03*
Y11956800D02*
D03*
X7465700Y11455400D02*
D03*
X7265700Y11360400D02*
D03*
Y11550400D02*
D03*
X7832800Y11480800D02*
D03*
X7632800Y11385800D02*
D03*
Y11575800D02*
D03*
X7093000Y11562700D02*
D03*
X6893000Y11467700D02*
D03*
Y11657700D02*
D03*
X5554600Y9303000D02*
D03*
X5354600Y9208000D02*
D03*
Y9398000D02*
D03*
X5927600Y8832600D02*
D03*
X5727600Y8737600D02*
D03*
Y8927600D02*
D03*
X5927300Y8426200D02*
D03*
X5727300Y8331200D02*
D03*
Y8521200D02*
D03*
X6294400Y8451600D02*
D03*
X6094400Y8356600D02*
D03*
Y8546600D02*
D03*
X5554600Y8533500D02*
D03*
X5354600Y8438500D02*
D03*
Y8628500D02*
D03*
X11445700Y10915299D02*
D03*
X11245700Y10820300D02*
D03*
Y11010300D02*
D03*
X11819300Y10521700D02*
D03*
X11619300Y10426700D02*
D03*
Y10616700D02*
D03*
X11445700Y9867800D02*
D03*
X11245700Y9772800D02*
D03*
Y9962800D02*
D03*
X11819300Y9474200D02*
D03*
X11619300Y9379200D02*
D03*
Y9569200D02*
D03*
X10861500Y8826400D02*
D03*
X10661500Y8731400D02*
D03*
Y8921400D02*
D03*
X11235100Y8432800D02*
D03*
X11035100Y8337800D02*
D03*
Y8527800D02*
D03*
X9704300Y8830200D02*
D03*
X9504300Y8735200D02*
D03*
Y8925200D02*
D03*
X10077900Y8436600D02*
D03*
X9877900Y8341600D02*
D03*
Y8531600D02*
D03*
X10277300Y9869899D02*
D03*
X10077300Y9774900D02*
D03*
Y9964900D02*
D03*
X10650900Y9476300D02*
D03*
X10450900Y9381300D02*
D03*
Y9571300D02*
D03*
X10288500Y10916800D02*
D03*
X10088500Y10821800D02*
D03*
Y11011800D02*
D03*
X10662100Y10523200D02*
D03*
X10462100Y10428200D02*
D03*
Y10618200D02*
D03*
X11075900Y11976000D02*
D03*
X10875900Y11881000D02*
D03*
Y12071000D02*
D03*
X11449500Y11582400D02*
D03*
X11249500Y11487400D02*
D03*
Y11677400D02*
D03*
X3139900Y10934600D02*
D03*
X2939900Y10839600D02*
D03*
Y11029600D02*
D03*
X3513500Y10541000D02*
D03*
X3313500Y10446000D02*
D03*
Y10636000D02*
D03*
X8521300Y12368400D02*
D03*
X8321300Y12273400D02*
D03*
Y12463400D02*
D03*
X8521300Y11593700D02*
D03*
X8321300Y11498700D02*
D03*
Y11688700D02*
D03*
X4367787Y10772600D02*
D03*
X4167787Y10677600D02*
D03*
Y10867600D02*
D03*
X4367787Y9997900D02*
D03*
X4167787Y9902900D02*
D03*
Y10092900D02*
D03*
X9741200Y12317000D02*
D03*
X9541200Y12222000D02*
D03*
Y12412000D02*
D03*
X10111000Y11885200D02*
D03*
X9911000Y11790200D02*
D03*
Y11980200D02*
D03*
X10111000Y11488500D02*
D03*
X9911000Y11393500D02*
D03*
Y11583500D02*
D03*
X10477800Y11859800D02*
D03*
X10277800Y11764800D02*
D03*
Y11954800D02*
D03*
X9741200Y11567700D02*
D03*
X9541200Y11472700D02*
D03*
Y11662700D02*
D03*
X8940799Y10755900D02*
D03*
X8740799Y10660900D02*
D03*
Y10850900D02*
D03*
X9310600Y10324100D02*
D03*
X9110600Y10229100D02*
D03*
Y10419100D02*
D03*
X9310600Y9927399D02*
D03*
X9110600Y9832400D02*
D03*
Y10022400D02*
D03*
X9677399Y10298700D02*
D03*
X9477399Y10203700D02*
D03*
Y10393700D02*
D03*
X8940799Y10006600D02*
D03*
X8740799Y9911600D02*
D03*
Y10101600D02*
D03*
X2824400Y9756600D02*
D03*
X2624400Y9661600D02*
D03*
Y9851600D02*
D03*
X3194200Y9324800D02*
D03*
X2994200Y9229800D02*
D03*
Y9419800D02*
D03*
X3194200Y8928100D02*
D03*
X2994200Y8833100D02*
D03*
Y9023100D02*
D03*
X3561000Y9299400D02*
D03*
X3361000Y9204400D02*
D03*
Y9394400D02*
D03*
X2824400Y9007300D02*
D03*
X2624400Y8912300D02*
D03*
Y9102300D02*
D03*
X8369200Y9180500D02*
D03*
X8169200Y9085500D02*
D03*
Y9275500D02*
D03*
X8739000Y8748700D02*
D03*
X8539000Y8653700D02*
D03*
Y8843700D02*
D03*
X8739000Y8352000D02*
D03*
X8539000Y8257000D02*
D03*
Y8447000D02*
D03*
X9105800Y8723300D02*
D03*
X8905800Y8628300D02*
D03*
Y8818300D02*
D03*
X8369200Y8431200D02*
D03*
X8169200Y8336200D02*
D03*
Y8526200D02*
D03*
D14*
X6705600Y10977700D02*
D03*
Y10827699D02*
D03*
X6249800Y12431600D02*
D03*
Y12281600D02*
D03*
X4289600Y12426100D02*
D03*
Y12276099D02*
D03*
X11988800Y10606400D02*
D03*
Y10456399D02*
D03*
Y9558900D02*
D03*
Y9408900D02*
D03*
X11404600Y8517500D02*
D03*
Y8367500D02*
D03*
X10247400Y8521300D02*
D03*
Y8371300D02*
D03*
X10820400Y9561000D02*
D03*
Y9410999D02*
D03*
X10831600Y10607900D02*
D03*
Y10457900D02*
D03*
X11619000Y11667100D02*
D03*
Y11517100D02*
D03*
X3683000Y10625700D02*
D03*
Y10475700D02*
D03*
X9067800Y11480600D02*
D03*
Y11630600D02*
D03*
X4914287Y9884800D02*
D03*
Y10034800D02*
D03*
D15*
X6400800Y10062900D02*
D03*
X6495800Y9862900D02*
D03*
X6305800D02*
D03*
X5842000Y10037500D02*
D03*
X5937000Y9837500D02*
D03*
X5747000D02*
D03*
X6426200Y11002700D02*
D03*
X6521200Y10802700D02*
D03*
X6331200D02*
D03*
X5945000Y11516800D02*
D03*
X6040000Y11316800D02*
D03*
X5850000D02*
D03*
X5386200Y11491400D02*
D03*
X5481200Y11291400D02*
D03*
X5291200D02*
D03*
X5970400Y12456600D02*
D03*
X6065400Y12256600D02*
D03*
X5875400D02*
D03*
X3984800Y11511300D02*
D03*
X4079800Y11311299D02*
D03*
X3889800D02*
D03*
X3426000Y11485900D02*
D03*
X3521000Y11285899D02*
D03*
X3331000D02*
D03*
X4010200Y12451100D02*
D03*
X4105200Y12251099D02*
D03*
X3915200D02*
D03*
X4433800Y9378199D02*
D03*
X4528800Y9178199D02*
D03*
X4338800D02*
D03*
X7219200Y9405500D02*
D03*
X7314200Y9205499D02*
D03*
X7124200D02*
D03*
X7799200Y10980300D02*
D03*
X7894200Y10780299D02*
D03*
X7704200D02*
D03*
X7354800Y12561700D02*
D03*
X7449800Y12361700D02*
D03*
X7259800D02*
D03*
X5816400Y9532500D02*
D03*
X5911400Y9332499D02*
D03*
X5721400D02*
D03*
X11352300Y10396300D02*
D03*
X11257300Y10596300D02*
D03*
X11447300D02*
D03*
X11352300Y9348800D02*
D03*
X11257300Y9548800D02*
D03*
X11447300D02*
D03*
X10768100Y8307400D02*
D03*
X10673100Y8507400D02*
D03*
X10863100D02*
D03*
X9610900Y8311200D02*
D03*
X9515900Y8511200D02*
D03*
X9705900D02*
D03*
X10183900Y9350900D02*
D03*
X10088900Y9550900D02*
D03*
X10278900D02*
D03*
X10195100Y10397800D02*
D03*
X10100100Y10597800D02*
D03*
X10290100D02*
D03*
X10982500Y11457000D02*
D03*
X10887500Y11657000D02*
D03*
X11077500D02*
D03*
X3046500Y10415600D02*
D03*
X2951500Y10615600D02*
D03*
X3141500D02*
D03*
X8788400Y12417600D02*
D03*
X8883400Y12217600D02*
D03*
X8693400D02*
D03*
X8788400Y12009700D02*
D03*
X8883400Y11809700D02*
D03*
X8693400D02*
D03*
X8788400Y11654100D02*
D03*
X8883400Y11454100D02*
D03*
X8693400D02*
D03*
X4634887Y10821800D02*
D03*
X4729887Y10621800D02*
D03*
X4539887D02*
D03*
X4634887Y10413900D02*
D03*
X4729887Y10213900D02*
D03*
X4539887D02*
D03*
X4634887Y10058300D02*
D03*
X4729887Y9858300D02*
D03*
X4539887D02*
D03*
X10022200Y12556700D02*
D03*
X10117200Y12356700D02*
D03*
X9927200D02*
D03*
X9221799Y10995600D02*
D03*
X9316799Y10795599D02*
D03*
X9126799D02*
D03*
X3105400Y9996300D02*
D03*
X3200400Y9796300D02*
D03*
X3010400D02*
D03*
X8650200Y9420200D02*
D03*
X8745200Y9220200D02*
D03*
X8555200D02*
D03*
D17*
X12446000Y10668000D02*
D03*
Y10414000D02*
D03*
Y10922000D02*
D03*
Y11176000D02*
D03*
Y10160000D02*
D03*
Y9906000D02*
D03*
Y9398000D02*
D03*
Y9652000D02*
D03*
Y9144000D02*
D03*
X2032000Y10668000D02*
D03*
Y10414000D02*
D03*
Y10922000D02*
D03*
Y11176000D02*
D03*
Y10160000D02*
D03*
Y9906000D02*
D03*
Y9398000D02*
D03*
Y9652000D02*
D03*
Y9144000D02*
D03*
%TF.MD5,f72e256bd67239107d06714932deacb9*%
M02*
