%TF.GenerationSoftware,Altium Limited,Altium Designer,19.0.15 (446)*%
G04 Layer_Color=32896*
%FSLAX45Y45*%
%MOMM*%
%TF.FileFunction,Legend,Bot*%
%TF.Part,Single*%
G01*
G75*
%TA.AperFunction,NonConductor*%
%ADD19C,0.25400*%
D19*
X12573000Y10287000D02*
Y11303000D01*
X12319000Y10287000D02*
Y11303000D01*
Y10541000D02*
X12573000D01*
X12319000Y10287000D02*
X12573000D01*
X12319000Y10795000D02*
X12573000D01*
X12319000Y11049000D02*
X12573000D01*
X12319000Y11303000D02*
X12573000D01*
X12319000Y9779000D02*
X12573000D01*
X12319000Y9525000D02*
X12573000D01*
X12319000Y9017000D02*
X12573000D01*
X12319000Y9271000D02*
X12573000D01*
X12319000Y9017000D02*
Y10287000D01*
X12573000Y9017000D02*
Y10287000D01*
X12319000Y10033000D02*
X12573000D01*
X2159000Y10287000D02*
Y11303000D01*
X1905000Y10287000D02*
Y11303000D01*
Y10541000D02*
X2159000D01*
X1905000Y10287000D02*
X2159000D01*
X1905000Y10795000D02*
X2159000D01*
X1905000Y11049000D02*
X2159000D01*
X1905000Y11303000D02*
X2159000D01*
X1905000Y9779000D02*
X2159000D01*
X1905000Y9525000D02*
X2159000D01*
X1905000Y9017000D02*
X2159000D01*
X1905000Y9271000D02*
X2159000D01*
X1905000Y9017000D02*
Y10287000D01*
X2159000Y9017000D02*
Y10287000D01*
X1905000Y10033000D02*
X2159000D01*
%TF.MD5,fe6c920fe8b6c17268156d6575bd5a61*%
M02*
